<svg id="Layer_4" data-name="Layer 4" xmlns="http://www.w3.org/2000/svg" viewBox="0 0 1170 405.96"><defs><style>.cls-1{fill:#1b2c38}.cls-2{fill:#27c7cd}.cls-3{fill:#ffcb05}.cls-4{fill:#fff}.cls-5{fill:none}.cls-6{fill:#8c97a3}.cls-7{fill:#949fac}</style></defs><path class="cls-1" d="M293.58 442.89v-26.95h-2.7v26.95a64 64 0 0062.88 64v-2.7a61.3 61.3 0 01-60.18-61.3zm89.19 54.49l1.2 2.42c.84-.44 1.69-.9 2.52-1.37l-1.38-2.32c-.77.44-1.55.89-2.34 1.27zm-8.62 3.62l.82 2.57c.9-.3 1.81-.63 2.7-1l-1-2.5c-.84.37-1.67.67-2.52.93zm25.57-12.64c.68-.67 1.35-1.36 2-2.06l-2-1.81q-.91 1-1.86 1.92zm-8.99 4.11l1.55 2.21c.78-.56 1.54-1.15 2.29-1.74l-1.72-2.09c-.69.56-1.4 1.15-2.12 1.62zm-32.29 11.58c-.88.05-1.77.08-2.66.1v2.7c1 0 1.91-.05 2.86-.11zm9.87 1.36l-.61-2.63c-.86.19-1.74.36-2.61.51l.41 2.67c.94-.16 1.88-.34 2.81-.55zM415 453.83l2.65.52c.17-.93.32-1.88.45-2.83l-2.68-.32c-.08.88-.22 1.8-.42 2.63zm1-10.94v1.64l2.69.12v-2.83H416z" transform="translate(-25.56 -105.82)"/><path class="cls-1" d="M390.45 326.43h2.7v2.77h-2.7z"/><path class="cls-1" d="M405.52 477.17c-.5.74-1 1.46-1.54 2.17l2.14 1.65c.57-.77 1.12-1.55 1.66-2.34z" transform="translate(-25.56 -105.82)"/><path class="cls-1" d="M390.45 316.87h2.7v2.77h-2.7z"/><path class="cls-1" d="M413.49 460.34c-.25.85-.52 1.7-.81 2.53l2.54.93c.31-.91.6-1.82.87-2.74zm-3.34 8.72c-.38.8-.78 1.6-1.19 2.38l2.37 1.3c.44-.84.87-1.7 1.28-2.56z" transform="translate(-25.56 -105.82)"/><path class="cls-2" d="M354.6 73.06l-11.51 6.65-11.5 6.64V59.78l11.5 6.64 11.51 6.64z"/><path class="cls-3" d="M304.05 41.41h15.46v15.46h-15.46zM20.38 54.52h19v19h-19z"/><path class="cls-1" d="M342.91 46.01h2.7v2.7h-2.7zm-22.08 0h3.5v2.7h-3.5zm11.04 0h3.5v2.7h-3.5zm-21.27 0h2.7v2.7h-2.7zm0-22.08h2.7v3.5h-2.7zm0 11.04h2.7v3.5h-2.7zm0-21.27h2.7v2.7h-2.7zm21.27 0h3.5v2.7h-3.5zm-11.04 0h3.5v2.7h-3.5zm22.08 0h2.7v2.7h-2.7zm0 10.23h2.7v3.5h-2.7zm0 11.04h2.7v3.5h-2.7z"/><circle class="cls-3" cx="378.44" cy="16.71" r="4.42"/><path class="cls-1" d="M35.76 237.46l1.62-2.16a32.45 32.45 0 00-2.35-1.52l-1.3 2.37c.69.41 1.37.85 2.03 1.31zm-2 52.18l1.3 2.37c.81-.48 1.59-1 2.35-1.52l-1.62-2.16c-.66.46-1.34.9-2.03 1.31zm14.74-21.15l2.64.57c.17-.92.3-1.85.39-2.77l-2.69-.19c-.08.8-.19 1.6-.34 2.39zM25.61 293l.58 2.64c.91-.23 1.8-.49 2.68-.79l-.95-2.53c-.76.26-1.53.49-2.31.68zm3.22-62.06c-.89-.3-1.78-.57-2.69-.79l-.58 2.63c.78.2 1.56.43 2.32.69zm16.85 17.97c.36.72.7 1.45 1 2.19l2.53-.94c-.35-.86-.74-1.71-1.16-2.55zm1.02 25.76c-.31.74-.64 1.47-1 2.19l2.37 1.3c.42-.84.81-1.69 1.16-2.55zm-2.34-32.79c-.58-.73-1.19-1.43-1.83-2.11l-1.91 1.91c.55.58 1.08 1.19 1.58 1.82zm4.13 15.39c.15.8.26 1.59.35 2.39l2.69-.19c-.09-.93-.23-1.85-.4-2.77zm-6.27 25.01c-.5.63-1 1.24-1.58 1.82l1.92 1.9c.63-.68 1.25-1.39 1.82-2.12z" transform="translate(-25.56 -105.82)"/><path class="cls-3" d="M633.17 342.06H609.6V315a33.11 33.11 0 1166.21 0v9.21h-23.57V315a9.54 9.54 0 10-19.07 0z" transform="translate(-25.56 -105.82)"/><path class="cls-3" d="M704.24 511.79a52.09 52.09 0 01-52-52.06V323.61h23.56v136.12a28.46 28.46 0 1056.91 0v-80.16h23.57v80.16a52.1 52.1 0 01-52.04 52.06z" transform="translate(-25.56 -105.82)"/><path class="cls-2" d="M212.32 108.39h-.51a98.46 98.46 0 00-97.88 98.33v93.57h38.42v-93.57a59.68 59.68 0 11119.36 0V290h38.42v-83.28a98.43 98.43 0 00-97.81-98.33zm711.05 76.89l-14.14 11.36-.88-11.32-9.35 1.43-1.26-10.44-6.35 3.17-1.89-1.42-5.63-5.43-1.61 7.21 4.32 4.19-18.1 16.97-5 .66-.22-9.34 3.32-14-6.68-3.32-.79-6.09 8.16-8.27 6.21 1.23 2.56 3.74 9.16 1.73-7.06-8.78L871 154l.56-2.35 9.14-.79-1.13-5.94 10.31-3.12 6.82 6.15 15 1.92s6.23-.33 13.35-.65a56.95 56.95 0 00-68.45-30.43l-3.6 2.49-9.26 6.72a.81.81 0 00-.32.79l1.23 7.17a1 1 0 00.54.66.91.91 0 00.85-.06l5.2-3.46 3.11 9.93-16.6 4.9-7.12-2.4a.89.89 0 00-.92.21l-3.21 3.32a.79.79 0 00-.19.78l2.15 7.53-6-6.46-.69-2.21c-.24.52-.5 1-.73 1.57A57.12 57.12 0 10930 180.36zM880.85 124l-7.34 9.77-10.87 2.63-.79-14.44c10.47-.4 16.68 1.21 19 2.04zm-56.07 72.19l-.14-6.43 5-11.07a.67.67 0 00.08-.39l-.91-10.69 9.47-8.27 9 18.63z" transform="translate(-25.56 -105.82)"/><path class="cls-1" d="M548.52 199.31h-2.16v2.7h1.48l12.4 6.74-12.4 6.75h-1.48v2.7h2.17l17.36-9.45-17.37-9.44z"/><path class="cls-3" d="M460.75 198.2h86.84v21.11h-86.84z"/><path class="cls-1" d="M478.41 324h5.53v-2.7h-5.63v-13.48h5.63v-2.7h-5.64a2.58 2.58 0 00-1.76.79 3.31 3.31 0 00-.93 2.34v12.64a3 3 0 002.8 3.11z" transform="translate(-25.56 -105.82)"/><path class="cls-1" d="M459.4 199.2h2.7v19.1h-2.7z"/><circle class="cls-3" cx="587.56" cy="119.93" r="27.11"/><path class="cls-1" d="M562.86 120.23l12.39-9.82-1.67-2.12-15.06 11.94 15.06 11.94 1.67-2.12-12.39-9.82zm53.74 0l-15.07-11.94-1.67 2.12 12.39 9.82-12.39 9.82 1.68 2.12 15.06-11.94z"/><path class="cls-1" transform="rotate(-73.76 530.328 190.164)" d="M595.88 224.7h35.42v2.7h-35.42z"/><path class="cls-1" d="M264.01 140.5h2.7v7.29h-2.7z"/><path class="cls-1" d="M245 133.39l-1.08 2.47c2.16 1 4.29 2.07 6.35 3.25l1.37-2.33a79.729 79.729 0 00-6.64-3.39zm16.17 9.77l-1.63 2.15c1.86 1.46 3.68 3 5.41 4.63l1.88-1.94a86.11 86.11 0 00-5.66-4.84zM227 127.67l-.48 2.66c2.33.44 4.66 1 6.94 1.66l.78-2.58c-2.37-.69-4.8-1.27-7.24-1.74zm45.53 30.46c1.48 1.85 2.89 3.78 4.2 5.76l2.27-1.46a78.832 78.832 0 00-4.39-6z" transform="translate(-25.56 -105.82)"/><path class="cls-1" d="M264.01 103.28h2.7v7.29h-2.7zm0 18.61h2.7v7.29h-2.7z"/><path class="cls-1" d="M291.77 197.67c-.28-2.46-.67-4.93-1.17-7.35l-2.64.58c.48 2.32.86 4.68 1.12 7zm-4.29-18.38a84.24 84.24 0 00-2.86-6.87l-2.43 1.18c1 2.15 1.93 4.35 2.74 6.57zm216.97 12.47a51.74 51.74 0 00-51.67 51.69V353h2.7V243.45a49 49 0 1197.91 0v149h2.7v-149a51.73 51.73 0 00-51.64-51.69z" transform="translate(-25.56 -105.82)"/><path class="cls-1" d="M637.1 294.23h2.7v7.41h-2.7z"/><path class="cls-1" d="M665.79 475.57a41.67 41.67 0 003.59 6.84l2.23-1.53a38.36 38.36 0 01-3.3-6.28z" transform="translate(-25.56 -105.82)"/><path class="cls-1" d="M637.1 256.52h2.7v7.41h-2.7zm0-18.86h2.7v7.41h-2.7zm0 37.71h2.7v7.41h-2.7z"/><path class="cls-1" d="M665.58 463.86a40.65 40.65 0 01-.21-4.13v-3.1h-2.7v3.1a41.74 41.74 0 00.24 4.48z" transform="translate(-25.56 -105.82)"/><path class="cls-1" d="M637.1 313.09h2.7v7.41h-2.7zm0 18.86h2.7v7.41h-2.7z"/><path class="cls-1" d="M678.89 489.24l-1.81 2a41.41 41.41 0 006.28 4.48l1.3-2.36a40.34 40.34 0 01-5.77-4.12z" transform="translate(-25.56 -105.82)"/><path class="cls-1" d="M717.58 344.09h2.7v7.41h-2.7zm0-18.86h2.7v7.41h-2.7zm0-18.86h2.7v7.41h-2.7z"/><path class="cls-1" d="M742.17 468.43a39 39 0 01-2.21 6.73l2.45 1.13a41.11 41.11 0 002.41-7.33zM713 497.66l.54 2.65a42.34 42.34 0 007.34-2.42l-1.14-2.45a38 38 0 01-6.74 2.22zm-18.78 2.47a40.76 40.76 0 007.63 1.15l.08-2.7a39.31 39.31 0 01-7-1.05z" transform="translate(-25.56 -105.82)"/><path class="cls-1" d="M717.58 287.51h2.7v7.41h-2.7z"/><path class="cls-1" d="M734.16 484.6a40.27 40.27 0 01-5 5l1.68 2.11a42.6 42.6 0 005.45-5.46zM642.7 292.32A22.7 22.7 0 00620 315v95.2h2.7V315a20 20 0 1139.93 0v8.2h2.7V315a22.71 22.71 0 00-22.63-22.68zm256.03 122.82a19.25 19.25 0 11-38.49 0V285.25h-2.7v129.89a21.94 21.94 0 1043.88 0V226.83h-2.69z" transform="translate(-25.56 -105.82)"/><path class="cls-1" d="M848 267.57a12.27 12.27 0 00-12.25 12.27v48.22h2.69v-48.22a9.57 9.57 0 1119.13 0v3.71h2.7v-3.71A12.28 12.28 0 00848 267.57zm66.15-65.33a15.44 15.44 0 00-15.42 15.42v9.6h2.7v-9.6a12.71 12.71 0 1125.42 0v148.53h2.7V217.66a15.43 15.43 0 00-15.4-15.42z" transform="translate(-25.56 -105.82)"/><path class="cls-1" d="M997.19 379.41a33.8 33.8 0 11-67.59 0v-14.19h-2.7v14.19a36.5 36.5 0 1073 0v-63.66h-2.71z" transform="translate(-25.56 -105.82)"/><path class="cls-3" d="M268.8 382.27h44c.31-4.16 1.24-9.57 3.86-13 16.22-20.89 17.26-40.79 17.26-42.2a43.07 43.07 0 10-86.13 0c0 1.41 1 21.3 17.25 42.2 2.58 3.43 3.48 8.84 3.76 13z" transform="translate(-25.56 -105.82)"/><path class="cls-4" d="M261.54 326.86h-4.72a34 34 0 0134-33.84v4.72a29.23 29.23 0 00-29.28 29.12z" transform="translate(-25.56 -105.82)"/><path class="cls-1" transform="rotate(-10.21 -329.84 448.767)" d="M273.76 335.45h2.7v46.08h-2.7z"/><path class="cls-1" transform="rotate(-79.79 230.485 320.871)" d="M283.5 357.14h46.08v2.7H283.5z"/><path class="cls-1" d="M283.57 231.54l-5.17 1.85-5.96-2.13h-1.24l-5.95 2.13-5.95-2.13h-1.24l-5.94 2.13-5.17-1.85-.91 2.54 5.45 1.96h1.25l5.94-2.14 5.95 2.14h1.24l5.95-2.14 5.95 2.14h1.25l5.46-1.96-.91-2.54zm-45.31 43.06h53.99v2.7h-53.99zm0 10.88h53.99v2.7h-53.99zm0 10.88h53.99v2.7h-53.99zm7.62 11.89h38.76v2.7h-38.76z"/><path class="cls-1" d="M242.41 276.34h2.7v21.27h-2.7zm21.5-117.25h2.7v10.1h-2.7z"/><path class="cls-1" transform="matrix(.97 -.26 .26 .97 -86.95 -24.92)" d="M275.23 270.36h2.7v6.52h-2.7z"/><path class="cls-1" transform="rotate(-30 53.013 273.885)" d="M261.96 275.86h2.7v6.53h-2.7z"/><path class="cls-1" transform="rotate(-45 111.392 265.81)" d="M250.57 284.6h2.7v6.53h-2.7z"/><path class="cls-1" transform="rotate(-60.01 138.737 268.475)" d="M241.82 296h2.7v6.52h-2.7z"/><path class="cls-1" transform="rotate(-75 155.258 275.113)" d="M236.32 309.27h2.7v6.53h-2.7z"/><path class="cls-1" d="M206.97 219.6h6.52v2.7h-6.52z"/><path class="cls-1" transform="rotate(-15 -176.947 385.253)" d="M234.41 339.67h6.52v2.7h-6.52z"/><path class="cls-1" transform="rotate(-29.98 32.826 349.155)" d="M239.91 352.94h6.52v2.7h-6.52z"/><path class="cls-1" transform="rotate(-45 111.423 343.647)" d="M248.65 364.34h6.52v2.7h-6.52z"/><path class="cls-1" transform="rotate(-44.99 189.187 343.64)" d="M328.38 362.43h2.7v6.52h-2.7z"/><path class="cls-1" transform="rotate(-59.99 234.072 323.534)" d="M337.13 351.03h2.7v6.52h-2.7z"/><path class="cls-1" transform="rotate(-74.99 262.25 304.77)" d="M342.63 337.76h2.7v6.52h-2.7z"/><path class="cls-1" d="M317.03 219.61h6.52v2.7h-6.52z"/><path class="cls-1" transform="rotate(-15 -70.76 356.693)" d="M340.72 311.19h6.52v2.7h-6.52z"/><path class="cls-1" transform="rotate(-30 128.209 294.053)" d="M335.22 297.92h6.52v2.7h-6.52z"/><path class="cls-1" transform="rotate(-45.01 189.211 265.8)" d="M326.48 286.52H333v2.7h-6.52z"/><path class="cls-1" transform="rotate(-60 213.945 248.356)" d="M315.08 277.77h6.52v2.7h-6.52z"/><path class="cls-1" transform="rotate(-75 223.318 237.367)" d="M301.81 272.28h6.52v2.7h-6.52z"/><path class="cls-1" d="M400.79 217.04l-6.75 12.4-6.75-12.4v-1.49h-2.7v2.17l9.45 17.37 9.45-17.37v-2.17h-2.7v1.49z"/><path class="cls-5" d="M387.19 113.98h13.7v99.1h-13.7z"/><path class="cls-1" d="M410.05 321.6h19.1V217.11h-19.1zm2.7-101.79h13.7v99.09h-13.7z" transform="translate(-25.56 -105.82)"/><path class="cls-1" d="M392.69 112.82h2.7v98.5h-2.7z"/><path class="cls-1" d="M412.85 198v-5.6h13.51v5.6h2.7v-5.52a3 3 0 00-3.13-2.81H413.3a3.48 3.48 0 00-2.36.93 2.65 2.65 0 00-.79 1.87V198z" transform="translate(-25.56 -105.82)"/><path class="cls-6" d="M383.48 96.24h21.11v12.5h-21.11z"/><path class="cls-6" d="M984.83 227.32A36.76 36.76 0 00945 255.7q4.47 4.1 9 8.38z" transform="translate(-25.56 -105.82)"/><path class="cls-5" d="M955.8 238.82a35.49 35.49 0 00-9.15 15.83l-.16.59.45.41c1.93 1.77 4 3.66 6.16 5.73l.77.74 28.28-33.71-2.23.06a35.26 35.26 0 00-24.12 10.35z" transform="translate(-25.56 -105.82)"/><path class="cls-1" d="M985 226a38.09 38.09 0 00-41.29 29.42l-.17.77.58.53c2.74 2.51 5.68 5.25 9 8.36l1 1 33.38-39.8zm-31.1 36.14l-.77-.74c-2.2-2.07-4.23-4-6.16-5.73l-.45-.41.16-.59a35.38 35.38 0 0133.27-26.18l2.23-.06z" transform="translate(-25.56 -105.82)"/><path class="cls-6" d="M1018.26 259.25l-37.54 31.51q4.8 5 9.4 10.06a36.75 36.75 0 0028.14-41.57z" transform="translate(-25.56 -105.82)"/><path class="cls-5" d="M1017.28 261.84l-34.6 29 .74.77c2.4 2.54 4.6 4.9 6.74 7.23l.42.45.59-.16A35.27 35.27 0 001007 290a35.63 35.63 0 0010.35-26.09z" transform="translate(-25.56 -105.82)"/><path class="cls-5" d="M1017.34 263.92l-.06-2.08-34.6 29 .74.77c2.4 2.54 4.6 4.9 6.74 7.23l.42.45.59-.16A35.27 35.27 0 001007 290a35.63 35.63 0 0010.34-26.08z" transform="translate(-25.56 -105.82)"/><path class="cls-1" d="M1019.6 259l-.37-2.36-40.48 34 1 1.05a942.5 942.5 0 019.38 10l.53.57.76-.17A38.11 38.11 0 001019.6 259zm-28.43 40.12l-.59.16-.42-.45c-2.14-2.33-4.34-4.69-6.74-7.23l-.74-.77 34.6-29 .06 2.08A35.63 35.63 0 011007 290a35.27 35.27 0 01-15.83 9.16z" transform="translate(-25.56 -105.82)"/><path class="cls-5" d="M1049.82 195.75l-.11-.73-.74-.11a54.66 54.66 0 00-50.07 18.89l-33 39.32 25.69 25.69 39.32-33a55 55 0 0018.91-50.06z" transform="translate(-25.56 -105.82)"/><path class="cls-1" d="M1052.2 193.61l-.17-.92-.92-.16a57.8 57.8 0 00-10.34-.94 57.2 57.2 0 00-43.94 20.47l-34.58 41.22 29.2 29.19 41.21-34.58a57.49 57.49 0 0019.54-54.28zm-60.6 85.2l-25.69-25.69 33-39.32a54.66 54.66 0 0150.09-18.89l.74.11.11.73a55 55 0 01-18.9 50.08z" transform="translate(-25.56 -105.82)"/><path class="cls-3" d="M968.43 288.94c-3.49 3.49-21.08 8.43-21.08 8.43-.23.24 4.94-17.59 8.43-21.08a8.94 8.94 0 1112.65 12.65z" transform="translate(-25.56 -105.82)"/><path class="cls-5" d="M967.48 277.24a7.6 7.6 0 00-10.74 0c-2.52 2.52-6.23 14.07-6.94 16.36l-.58 1.83 1.84-.57c3.25-1 14-4.5 16.42-6.88a7.6 7.6 0 000-10.74z" transform="translate(-25.56 -105.82)"/><path class="cls-1" d="M972.4 282.61a10.3 10.3 0 00-17.57-7.28c-3 3-9.34 20.46-8.73 22.56l.34.83h1.47l.14-.14.26-.08c8.44-2.41 18.41-5.94 21.08-8.61a10.23 10.23 0 003.01-7.28zm-21.34 12.25l-1.84.57.58-1.83c.71-2.29 4.42-13.84 6.94-16.36A7.59 7.59 0 01967.48 288c-2.38 2.36-13.17 5.85-16.42 6.86z" transform="translate(-25.56 -105.82)"/><path class="cls-4" d="M1038.09 206.63a95.77 95.77 0 0111.27 13.57 56.36 56.36 0 001.51-26.35 56.36 56.36 0 00-26.35 1.51 95.21 95.21 0 0113.57 11.27z" transform="translate(-25.56 -105.82)"/><path class="cls-5" d="M1049.7 195l-.73-.11a54.82 54.82 0 00-19.18.51l-2.17.45 1.76 1.34a98.08 98.08 0 0118.13 18.13l1.34 1.76.45-2.17a55 55 0 00.52-19.18z" transform="translate(-25.56 -105.82)"/><path class="cls-1" d="M1052.2 193.61l-.17-.92-.92-.16a56.37 56.37 0 00-10.24-.93 57.73 57.73 0 00-16.73 2.47l-2.71.82 2.33 1.59a94.55 94.55 0 0124.48 24.52l1.6 2.33.81-2.7a57.91 57.91 0 001.55-27.02zm-2.9 21.32l-.45 2.17-1.34-1.76a98.08 98.08 0 00-18.13-18.13l-1.76-1.34 2.17-.45a54.82 54.82 0 0119.18-.51l.73.11.12.73a55 55 0 01-.52 19.18z" transform="translate(-25.56 -105.82)"/><path class="cls-7" d="M1031.22 231.31a12.59 12.59 0 110-17.81 12.59 12.59 0 010 17.81z" transform="translate(-25.56 -105.82)"/><path class="cls-1" transform="rotate(-45.01 845.683 236.428)" d="M984.89 237.85h2.7v41.27h-2.7z"/><path class="cls-1" d="M589.35 399.71v2.5h2.7v-2.5a10.18 10.18 0 019.16-10.11v-2.71a12.87 12.87 0 00-11.86 12.82zm-15.95-29.82v2.71a9.45 9.45 0 018.42 9.38v34.43h2.7V382a12.14 12.14 0 00-11.12-12.11z" transform="translate(-25.56 -105.82)"/><path class="cls-1" d="M589.36 420.18a2.42 2.42 0 11-4.84 0v-9h-2.7v9a5.12 5.12 0 1010.24 0v-16.54h-2.7zM560.48 382v10.5h2.7V382a9.46 9.46 0 018.43-9.38v-2.71A12.15 12.15 0 00560.48 382zm42.52 4.89v2.71a10.18 10.18 0 019.15 10.11v11.05h2.7v-11.05A12.87 12.87 0 00603 386.89z" transform="translate(-25.56 -105.82)"/><path class="cls-2" d="M561.29 472.3a20.14 20.14 0 01-20-18.34h40.07a20.14 20.14 0 01-20.07 18.34z" transform="translate(-25.56 -105.82)"/><path class="cls-5" d="M622.31 447v-21.52h1.31v-7.22h-13v7.22H612V447l-14.53 29.47a2.61 2.61 0 00-.28 2.12l.25.52h.48a2.71 2.71 0 00.66.08h37.16a1.84 1.84 0 001.13-.32l.22-.18.1-.26a2.7 2.7 0 00-.34-2z" transform="translate(-25.56 -105.82)"/><path class="cls-1" d="M639.26 475.25L625 446.34v-18.16h1.31v-12.62H608v12.62h1.32v18.16L595 475.25a5 5 0 00-.1 4.83 4.13 4.13 0 003.63 1.82h37.16a4.13 4.13 0 003.63-1.82 5 5 0 00-.06-4.83zm-2.08 3.19l-.1.26-.22.18a1.84 1.84 0 01-1.13.32h-37.16a2.71 2.71 0 01-.66-.08h-.48l-.25-.52a2.61 2.61 0 01.28-2.12L612 447v-21.52h-1.32v-7.22h13v7.22h-1.31V447l14.53 29.47a2.7 2.7 0 01.28 1.97z" transform="translate(-25.56 -105.82)"/><path class="cls-3" d="M579.74 367.65l11.85-24.02 11.84 24.02h-23.69z"/><path class="cls-5" d="M567.32 425.86l-1.05-.24v-16.94h1.84v-7.28h-13.65v7.28h1.84v16.94l-1 .24a27 27 0 1012.06 0z" transform="translate(-25.56 -105.82)"/><path class="cls-1" d="M569.69 423.69l-.72-.21v-12.1h1.84V398.7h-19v12.68h1.85v12.1l-.73.21a29.72 29.72 0 1016.81 0zm-8.4 55.51a27 27 0 01-6-53.34l1-.24v-16.94h-1.84v-7.28h13.65v7.28h-1.84v16.94l1.05.24a27 27 0 01-6 53.34z" transform="translate(-25.56 -105.82)"/><path class="cls-5" d="M540.41 380.21a3.76 3.76 0 103.76 3.76 3.77 3.77 0 00-3.76-3.76z" transform="translate(-25.56 -105.82)"/><path class="cls-1" d="M546.87 384a6.46 6.46 0 10-6.46 6.46 6.47 6.47 0 006.46-6.46zm-6.46 3.76a3.76 3.76 0 113.76-3.76 3.77 3.77 0 01-3.76 3.73z" transform="translate(-25.56 -105.82)"/><path class="cls-1" d="M572.68 244.19h2.7v2.48h-2.7z"/><path class="cls-1" transform="rotate(-59.99 486.07 325.464)" d="M589.22 354.99h2.7v2.48h-2.7z"/><path class="cls-1" transform="rotate(-29.98 379.882 361.315)" d="M589.14 365.18h2.48v2.7h-2.48z"/><path class="cls-1" d="M572.28 264.79h2.7v2.48h-2.7z"/><path class="cls-1" transform="rotate(-59.99 503.75 336.108)" d="M606.87 365.63h2.7v2.48h-2.7z"/><path class="cls-1" transform="rotate(-29.98 397.913 351.374)" d="M607.18 355.22h2.48v2.7h-2.48z"/><path class="cls-1" d="M131.79 206.72v41h2.7v-41a77.89 77.89 0 0176.82-77.78v-2.7a80.6 80.6 0 00-79.52 80.48zm818.79-20.42l2.63.59c.21-.87.44-1.74.68-2.6l-2.59-.76c-.3.91-.5 1.84-.72 2.77zm3.97-11.97c-.38.88-.74 1.76-1.08 2.65l2.54.94c.32-.84.66-1.67 1-2.49zm-5.61 21.59l2.69.24q.15-1.33.33-2.67l-2.67-.42c-.13.93-.29 1.93-.35 2.85z" transform="translate(-25.56 -105.82)"/><path class="cls-1" d="M922.99 106.6h2.7v2.78h-2.7z"/><path class="cls-1" d="M1014.69 132.57l-.26-2.69c-.95.11-1.9.23-2.84.37l.43 2.67c.89-.14 1.78-.25 2.67-.35zm-66.14 73.04h2.7v-2.74l-2.69-.07c-.01.27-.01 2.81-.01 2.81zM959 165.65c-.49.82-1 1.65-1.42 2.48l2.38 1.26c.43-.78.88-1.56 1.34-2.33zm25.21-25.46l1.44 2.29c.76-.47 1.54-.92 2.32-1.36l-1.28-2.37c-.83.46-1.69.95-2.48 1.44zm8.66-4.52l1.12 2.46c.83-.36 1.66-.71 2.49-1l-1-2.52c-.85.31-1.73.68-2.61 1.06zm12.57-1.44l-.62-2.63c-.93.23-1.85.48-2.77.74l.79 2.58c.86-.25 1.73-.48 2.6-.69zm-29.21 11.58l1.72 2.08q1-.85 2.13-1.65l-1.59-2.19c-.76.57-1.49 1.16-2.26 1.76zm-11.71 11.81c-.59.74-1.17 1.51-1.73 2.28l2.2 1.56c.53-.72 1.07-1.44 1.63-2.14zm6.54-7.24c-.69.67-1.36 1.35-2 2l2 1.84c.62-.65 1.26-1.29 1.9-1.91zm52.19-20.95v2.7a71.58 71.58 0 0170.51 71.46v200.9h2.7v-200.9a74.28 74.28 0 00-73.21-74.16z" transform="translate(-25.56 -105.82)"/><path class="cls-3" d="M1083.68 302.38a11.5 11.5 0 1011.49-11.49 11.49 11.49 0 00-11.49 11.49z" transform="translate(-25.56 -105.82)"/><path class="cls-1" d="M1095.17 328a25.64 25.64 0 1125.64-25.64 25.66 25.66 0 01-25.64 25.64zm0-46.56a20.92 20.92 0 1020.93 20.92 21 21 0 00-20.93-20.9z" transform="translate(-25.56 -105.82)"/><path class="cls-1" d="M1095.17 327a24.63 24.63 0 1124.63-24.63 24.66 24.66 0 01-24.63 24.63zm0-46.56a21.93 21.93 0 1021.93 21.93 21.95 21.95 0 00-21.93-21.92z" transform="translate(-25.56 -105.82)"/><path class="cls-7" d="M544.06 245.21a39.95 39.95 0 11-39.94-39.94 39.95 39.95 0 0139.94 39.94z" transform="translate(-25.56 -105.82)"/><path class="cls-4" d="M478.55 182.72l-39.21-40.52h78.42l-39.21 40.52z"/><path class="cls-5" d="M478.55 180.78l36.03-37.23h-72.05l36.02 37.23z"/><path class="cls-5" d="M478.55 180.78l36.03-37.23h-72.05l36.02 37.23z"/><path class="cls-1" d="M543.32 246.67h-78.41a1.34 1.34 0 00-1.24.83 1.32 1.32 0 00.27 1.46l39.21 40.52a1.35 1.35 0 001 .41 1.38 1.38 0 001-.41L544.29 249a1.34 1.34 0 00.28-1.46 1.37 1.37 0 00-1.25-.87zm-39.2 39.93l-36-37.23h72.05z" transform="translate(-25.56 -105.82)"/><path class="cls-4" d="M493.85 146.87l-15.3 35.85-15.31-35.9-1.97-4.62 32.58 4.67z"/><path class="cls-1" d="M517.78 253.08l-13.66 32-15.65-36.68-2.47 1.08 16.89 39.59a1.36 1.36 0 002.49 0l14.9-34.93z" transform="translate(-25.56 -105.82)"/><path class="cls-4" d="M439.34 142.32h78.42l-10.79-15.84h-56.84l-10.79 15.84z"/><path class="cls-5" d="M450.85 127.83l-8.95 13.14h73.31l-8.95-13.14h-55.41z"/><path class="cls-1" d="M533.65 231.54a1.37 1.37 0 00-1.11-.59H475.7a1.37 1.37 0 00-1.12.59l-10.79 15.84a1.36 1.36 0 00-.07 1.4 1.34 1.34 0 001.19.71h78.41a1.34 1.34 0 001.2-.72 1.36 1.36 0 00-.08-1.39zm-66.19 15.25l9-13.14h55.41l8.95 13.14z" transform="translate(-25.56 -105.82)"/><path class="cls-1" d="M491.63 136.58l-11.87-10.98h-2.41l-16.26 15.05 1.83 1.98 15.63-14.47 11.24 10.4 1.84-1.98z"/><path class="cls-4" d="M486.69 248.14l-8-11.53z" transform="translate(-25.56 -105.82)"/><path class="cls-1" transform="rotate(-34.69 300.5 230.395)" d="M481.35 236.37h2.7v12.01h-2.7z"/><path class="cls-4" d="M495.98 142.32l10.97-15.84h.02l10.79 15.84h-21.78z"/><path class="cls-5" d="M498.56 140.97h16.65l-8.26-12.12-8.39 12.12z"/><path class="cls-1" d="M533.65 231.55a1.37 1.37 0 00-1.14-.6 1.34 1.34 0 00-1.11.59l-11 15.83a1.36 1.36 0 00-.08 1.4 1.33 1.33 0 001.19.72h21.78a1.34 1.34 0 001.2-.72 1.36 1.36 0 00-.08-1.39zm-9.53 15.24l8.4-12.12 8.25 12.12z" transform="translate(-25.56 -105.82)"/><path class="cls-1" transform="rotate(-45.01 375.762 197.566)" d="M511.84 218.28h8.89v2.7h-8.89z"/><path class="cls-1" transform="rotate(-44.99 375.668 197.592)" d="M514.94 215.19h2.7v8.89h-2.7z"/><path class="cls-5" d="M648.34 219a35.75 35.75 0 00-4.62-12l-.51-.83 7.94-9.38-7.9-7.91-9.14 7.73-.85-.58a35.43 35.43 0 00-11.72-5.18l-.95-.23-1-12.26h-11.2l-1 11.93-1 .2a35.39 35.39 0 00-12 4.61l-.84.51-9.38-7.94-7.91 7.91 7.73 9.13-.58.85a35.73 35.73 0 00-5.18 11.72l-.23.95-12.25 1v11.18l11.93 1 .19 1a35.41 35.41 0 004.62 11.95l.51.84-7.95 9.38 7.91 7.91 9.14-7.73.84.58a35.57 35.57 0 0011.73 5.18l.95.23 1 12.25h11.18l1-11.93 1-.19a35.46 35.46 0 0012-4.62l.83-.51 9.39 7.95 7.9-7.91-7.73-9.14.58-.84a35.48 35.48 0 005.23-11.65l.23-.95 12.26-1V221l-11.93-1z" transform="translate(-25.56 -105.82)"/><path class="cls-1" d="M650.62 216.79a38.27 38.27 0 00-3.76-9.7l-.33-.61 8.29-9.8-11.42-11.42-9.48 8-.62-.39a38.3 38.3 0 00-9.51-4.19l-.67-.19-1.07-12.8H605.9l-1 12.37-.71.17a38.27 38.27 0 00-9.7 3.76l-.61.33-9.79-8.29-11.43 11.42 8 9.48-.38.62a38 38 0 00-4.2 9.51l-.19.67-12.79 1.07V233l12.37 1 .17.71a37.88 37.88 0 003.75 9.7l.34.61-8.29 9.79 11.42 11.42 9.47-8 .62.38a38.19 38.19 0 009.52 4.2l.67.19 1.06 12.79h16.15l1-12.37.71-.17a37.81 37.81 0 009.69-3.75l.61-.34 9.8 8.29L653.61 256l-8-9.47.39-.62a38.21 38.21 0 004.19-9.52l.19-.67 12.8-1.06v-16.13l-12.37-1zm9.84 15.4l-12.26 1-.23.95a35.48 35.48 0 01-5.18 11.73l-.58.84 7.73 9.14-7.9 7.91-9.39-7.95-.83.51a35.46 35.46 0 01-12 4.62l-1 .19-1 11.93h-11.14l-1-12.25-.95-.23a35.57 35.57 0 01-11.73-5.16l-.84-.58-9.16 7.73-7.91-7.91 7.95-9.38-.51-.84a35.41 35.41 0 01-4.62-11.95l-.19-1-11.93-1V219.3l12.25-1 .23-.95a35.73 35.73 0 015.18-11.72l.58-.85-7.73-9.13 7.91-7.91 9.38 7.94.84-.51a35.39 35.39 0 0112-4.61l1-.2 1-11.93h11.18l1 12.26.95.23a35.43 35.43 0 0111.72 5.18l.85.58 9.14-7.73 7.9 7.91-7.94 9.38.51.83a35.75 35.75 0 014.62 12l.19 1 11.93 1z" transform="translate(-25.56 -105.82)"/><path class="cls-2" d="M892.43 414.85v-4.7l-3.9-.32a9.86 9.86 0 00-.68-1.76l2.61-3.09-3.32-3.32-3 2.53a9.5 9.5 0 00-1.72-.77l-.34-4h-4.68l-.33 3.9a9.86 9.86 0 00-1.76.68l-3.08-2.61-3.33 3.32 2.53 3a8.82 8.82 0 00-.76 1.72l-4 .34v4.69l3.9.33a9.12 9.12 0 00.67 1.76l-2.61 3.08 3.32 3.33 3-2.53a8.82 8.82 0 001.72.76l.34 4h4.7l.32-3.9a8.88 8.88 0 001.76-.67l3.09 2.61 3.32-3.32-2.53-3a9.5 9.5 0 00.77-1.72zm-12.9 1.93a4.49 4.49 0 114.49-4.49 4.49 4.49 0 01-4.49 4.49z" transform="translate(-25.56 -105.82)"/><path class="cls-1" transform="rotate(-45.01 321.264 146.622)" d="M454.06 167.33h15.49v2.7h-15.49z"/><path class="cls-1" transform="rotate(-45 321.303 146.622)" d="M460.46 160.94h2.7v15.49h-2.7z"/><path class="cls-1" transform="rotate(-45 855.208 151.341)" d="M987.98 172.05h15.49v2.7h-15.49z"/><path class="cls-1" transform="rotate(-45 855.179 151.343)" d="M994.38 165.65h2.7v15.49h-2.7z"/><path class="cls-1" transform="rotate(-45 989.572 196.136)" d="M1122.35 216.83h15.49v2.7h-15.49z"/><path class="cls-1" transform="rotate(-45 989.543 196.138)" d="M1128.74 210.44h2.7v15.49h-2.7z"/><path class="cls-1" transform="rotate(-45 960.688 87.92)" d="M1096.85 108.58h8.93v2.7h-8.93z"/><path class="cls-1" transform="rotate(-45 960.9 87.852)" d="M1099.97 105.47h2.7v8.93h-2.7z"/><path class="cls-1" transform="rotate(-45.01 808.883 97.276)" d="M944.81 118.01h8.93v2.7h-8.93z"/><path class="cls-1" transform="rotate(-45.01 808.71 97.317)" d="M947.92 114.9h2.7v8.93h-2.7z"/><path class="cls-1" transform="rotate(-45.01 834.9 300.609)" d="M970.82 321.33h8.93v2.7h-8.93z"/><path class="cls-1" transform="rotate(-45 834.857 300.61)" d="M973.93 318.21h2.7v8.93h-2.7z"/><path class="cls-1" d="M410.41 326.16h3.05v2.7h-3.05zm-10.13 0h3.05v2.7h-3.05zm20.25 0h3.05v2.7h-3.05zm20.25 0h3.05v2.7h-3.05zm-10.12 0h3.05v2.7h-3.05zm-41.16-1.01h4.71v4.71h-4.71z"/><path class="cls-1" d="M390.5 326.16h2.7v2.7h-2.7zm0-20.25h2.7v3.05h-2.7zm0-40.5h2.7v3.05h-2.7zm0 30.37h2.7v3.05h-2.7zm0 20.26h2.7v3.05h-2.7zm0-40.51h2.7v3.05h-2.7zm0 10.13h2.7v3.05h-2.7zm-1-31.04h4.71v4.71h-4.71z"/><path class="cls-1" d="M390.5 255.63h2.7v2.7h-2.7zm40.16 0h3.05v2.7h-3.05zm-20.25 0h3.05v2.7h-3.05zm-10.13 0h3.05v2.7h-3.05zm20.25 0h3.05v2.7h-3.05zm20.25 0h3.05v2.7h-3.05zm20.25 40.15h2.7v3.05h-2.7zm0 10.13h2.7v3.05h-2.7zm0-20.25h2.7v3.05h-2.7zm0-10.13h2.7v3.05h-2.7z"/><path class="cls-4" d="M384.52 249.1h17.93v17.93h-17.93z"/><path class="cls-5" d="M385.87 250.45h15.23v15.23h-15.23z"/><path class="cls-1" d="M408.73 374.2h20.63v-20.63h-20.63zm2.7-17.93h15.23v15.23h-15.23z" transform="translate(-25.56 -105.82)"/><path class="cls-5" d="M453.14 250.45h15.23v15.23h-15.23z"/><path class="cls-1" d="M476 374.2h20.63v-20.63H476zm2.7-17.93h15.23v15.23h-15.22z" transform="translate(-25.56 -105.82)"/><path class="cls-5" d="M453.14 318.81h15.23v15.23h-15.23z"/><path class="cls-1" d="M476 442.56h20.63v-20.62H476zm2.7-17.92h15.23v15.22h-15.22z" transform="translate(-25.56 -105.82)"/><path class="cls-4" d="M384.52 317.47h17.93v17.92h-17.93z"/><path class="cls-1" d="M430.37 443.57h-22.65v-22.64h22.65zm-17.93-4.72h13.21v-13.2h-13.21z" transform="translate(-25.56 -105.82)"/><path class="cls-1" d="M408.73 442.56v-20.62h20.63v20.62zm2.7-2.7h15.23v-15.22h-15.23z" transform="translate(-25.56 -105.82)"/><path class="cls-3" d="M808.42 274.54h52.76v-39.6h-27.66l-12.61-12.61v12.61h-12.49v39.6z"/><path class="cls-1" d="M821.55 258.01h26.5v2.7h-26.5zm0-9.33h26.5v2.7h-26.5z"/><path class="cls-4" d="M872.36 315.53a3.25 3.25 0 003.14 3.36h6.08v12.63l14.9-12.63h17.61a3.26 3.26 0 003.15-3.36v-38.2a3.26 3.26 0 00-3.15-3.36H875.5a3.25 3.25 0 00-3.14 3.36z" transform="translate(-25.56 -105.82)"/><path class="cls-5" d="M914.09 275.32H875.5a1.91 1.91 0 00-1.79 2v38.2a1.91 1.91 0 001.79 2h7.43v11.08L896 317.54h18.1a1.92 1.92 0 001.8-2v-38.2a1.92 1.92 0 00-1.81-2.02z" transform="translate(-25.56 -105.82)"/><path class="cls-1" d="M914.09 272.62H875.5a4.6 4.6 0 00-4.49 4.71v38.2a4.6 4.6 0 004.49 4.71h4.73v14.19L897 320.24h17.11a4.61 4.61 0 004.5-4.71v-38.2a4.61 4.61 0 00-4.52-4.71zm1.8 42.91a1.92 1.92 0 01-1.8 2H896l-13.07 11.07v-11.06h-7.43a1.91 1.91 0 01-1.79-2v-38.2a1.91 1.91 0 011.79-2h38.59a1.92 1.92 0 011.8 2z" transform="translate(-25.56 -105.82)"/><path class="cls-3" d="M879.44 190.43l-8.44 4.88-8.44 4.87v-19.49l8.44 4.87 8.44 4.87z"/><path class="cls-1" d="M435.48 355.65h2.7v4.78h-2.7z"/><path class="cls-1" transform="rotate(-60.01 348.641 438.942)" d="M451.71 467.33h2.7v4.78h-2.7z"/><path class="cls-1" transform="rotate(-29.98 243 475.514)" d="M451.06 479.39h4.78v2.7h-4.78z"/><path class="cls-1" d="M436.28 377.69h2.7v4.79h-2.7z"/><path class="cls-1" transform="rotate(-60.02 368.171 449.269)" d="M471.19 477.65h2.7v4.78h-2.7z"/><path class="cls-1" transform="rotate(-30.01 262.054 463.843)" d="M469.75 467.68h4.78v2.7h-4.78z"/><path class="cls-4" d="M437.35 375.99l3.45 6.11 3.45 6.1-7.01-.06-7.02-.06 3.56-6.05 3.57-6.04z"/><path class="cls-5" d="M437.32 378.69l-4.75 8.06 9.35.08-4.6-8.14z"/><path class="cls-1" d="M462.93 479.11l-9.5 16.12 18.71.17zm0 5.4l4.6 8.14-9.35-.08z" transform="translate(-25.56 -105.82)"/><path class="cls-1" transform="rotate(-89.48 396.571 457.951)" d="M459.65 496.62h6.23v2.7h-6.23z"/><rect class="cls-4" x="322.43" y="306.71" width="90.6" height="39" rx="1.46"/><path class="cls-5" d="M323.78 308.06h87.9v36.3h-87.9z"/><path class="cls-1" d="M437.13 411.18h-87.68a2.81 2.81 0 00-2.81 2.81v36.08a2.81 2.81 0 002.81 2.81h87.68a2.81 2.81 0 002.81-2.81V414a2.81 2.81 0 00-2.81-2.82zm.11 39h-87.9v-36.3h87.9z" transform="translate(-25.56 -105.82)"/><path class="cls-2" d="M329.8 314.3h6.87v4.71h-6.87zm11.5 0h6.87v4.71h-6.87zm11.5 0h6.87v4.71h-6.87zm11.49 0h6.87v4.71h-6.87zm11.5 0h6.87v4.71h-6.87zm11.5 0h6.87v4.71h-6.87zm11.49 0h6.87v4.71h-6.87zm-68.98 9.55h6.87v4.71h-6.87zm11.5 0h6.87v4.71h-6.87zm11.5 0h6.87v4.71h-6.87zm11.49 0h6.87v4.71h-6.87zm11.5 0h6.87v4.71h-6.87zm11.5 0h6.87v4.71h-6.87zm11.49 0h6.87v4.71h-6.87zm-68.98 9.56h6.87v4.71h-6.87zm11.5 0h6.87v4.71h-6.87zm11.5 0h41.46v4.71H352.8zm45.98 0h6.87v4.71h-6.87z"/><path class="cls-1" d="M1150.75 308.94H1170v2.7h-19.25zm-13.49 0h5.07v2.7h-5.07zm.53-10.61h19.25v2.7h-19.25zm-13.5 0h5.07v2.7h-5.07z"/><path class="cls-5" d="M334.97 250.45h27.79v27.79h-27.79z"/><path class="cls-1" d="M357.84 386.77H391v-33.2h-33.16zm2.7-30.5h27.79v27.8h-27.79z" transform="translate(-25.56 -105.82)"/><path class="cls-1" transform="rotate(-45 233.912 348.11)" d="M353.88 368.82h41.11v2.7h-41.11z"/><path class="cls-1" transform="rotate(-45 233.912 348.11)" d="M373.08 349.62h2.7v41.11h-2.7z"/><path class="cls-5" d="M817.69 274a2.14 2.14 0 00-2.15-2.14H695a2.14 2.14 0 00-2.1 2.14v73.2h124.79z" transform="translate(-25.56 -105.82)"/><path class="cls-1" d="M815.54 269.14H695a4.84 4.84 0 00-4.8 4.86v75.9h130.19V274a4.85 4.85 0 00-4.85-4.86zM692.9 274a2.14 2.14 0 012.14-2.14h120.5a2.14 2.14 0 012.15 2.14v73.2H692.9z" transform="translate(-25.56 -105.82)"/><path class="cls-2" d="M675.96 174.79h107.41v57.73H675.96z"/><path class="cls-5" d="M692.91 359.23a3.42 3.42 0 002.82 3h120c1.2 0 2-1.47 2-2.84v-9.58H692.91z" transform="translate(-25.56 -105.82)"/><path class="cls-1" d="M690.21 359.23c0 2.83 2.79 5.71 5.52 5.71h120c2.91 0 4.65-2.82 4.65-5.54v-12.27H690.21zm127.52.17c0 1.37-.75 2.84-2 2.84h-120a3.42 3.42 0 01-2.82-3v-9.41h124.82z" transform="translate(-25.56 -105.82)"/><path class="cls-1" d="M742.43 364.79l-2.69-.22v3.42a41.5 41.5 0 01-.25 6.95c-.1.53-.19.9-.26 1.15l.21.36-.66.55a6 6 0 01-.74.45l-.18.1c-.47.26-1.26.63-2.23 1.07l1.07 2.48c1.07-.48 1.91-.89 2.46-1.19l.19-.1c1.63-.9 2.21-1.44 2.79-4.35a41.88 41.88 0 00.3-7.59c-.01-1.13-.03-2.2-.01-3.08z" transform="translate(-25.56 -105.82)"/><path class="cls-4" d="M775.26 380.28c-1.13-.49-2.5-1.11-3.3-1.55-1.41-.78-1.69-.87-2.22-3.53-.57-2.91-.1-8.71-.32-11.38z" transform="translate(-25.56 -105.82)"/><path class="cls-1" d="M774.32 382.44c-1.08-.46-2.56-1.13-3.49-1.64l-.13-.07c-2.12-1.18-2.67-2-3.27-5.07a41.55 41.55 0 01-.32-7.67v-4l4.69-.38c.1 1.15.08 2.74.05 4.43a39.79 39.79 0 00.24 6.68 7.85 7.85 0 00.41 1.61 2.79 2.79 0 01.52.26l.11.06c.59.32 1.72.85 3.1 1.45z" transform="translate(-25.56 -105.82)"/><path class="cls-1" d="M773.8 381.11c-1.08-.48-1.93-.89-2.49-1.19l-.12-.07c-1.73-1-2.19-1.48-2.77-4.39a40.8 40.8 0 01-.3-7.45v-3.08l2.69-.21v3.31a40.5 40.5 0 00.25 6.91 6.45 6.45 0 00.53 1.9l1.09 1.92.34-1c.47.24 1.1.53 1.85.87z" transform="translate(-25.56 -105.82)"/><path class="cls-1" d="M707.18 272.88h45.15v2.7h-45.15z"/><path class="cls-4" d="M756.6 329.67a2.65 2.65 0 012.65-2.65h44.41a2.65 2.65 0 012.65 2.65v64.74a2.65 2.65 0 01-2.65 2.64h-44.41a2.65 2.65 0 01-2.65-2.64z" transform="translate(-25.56 -105.82)"/><path class="cls-5" d="M803.66 328.37h-44.41a1.3 1.3 0 00-1.3 1.3v64.74a1.3 1.3 0 001.3 1.29h44.41a1.3 1.3 0 001.3-1.29v-64.74a1.3 1.3 0 00-1.3-1.3z" transform="translate(-25.56 -105.82)"/><path class="cls-1" d="M803.66 325.67h-44.41a4 4 0 00-4 4v64.74a4 4 0 004 4h44.41a4 4 0 004-4v-64.74a4 4 0 00-4-4zm1.3 68.74a1.3 1.3 0 01-1.3 1.29h-44.41a1.3 1.3 0 01-1.3-1.29v-64.74a1.3 1.3 0 011.3-1.3h44.41a1.3 1.3 0 011.3 1.3z" transform="translate(-25.56 -105.82)"/><path class="cls-6" d="M737.54 228.12h36.71v55.71h-36.71z"/><rect class="cls-4" x="766.87" y="239.11" width="26.65" height="52.46" rx="1.67"/><path class="cls-5" d="M768.22 240.46h23.95v49.76h-23.95z"/><path class="cls-1" d="M817.41 343.58H794.1a3 3 0 00-3 3v49.12a3 3 0 003 3h23.31a3 3 0 003-3v-49.1a3 3 0 00-3-3.02zm.32 52.46h-24v-49.76h24z" transform="translate(-25.56 -105.82)"/><path class="cls-1" d="M769.8 280.29h22.53v2.7H769.8z"/><path class="cls-4" d="M746.51 197.82v-10.53h-10.54v-4.72h15.25v15.25h-4.71z"/><path class="cls-4" transform="rotate(-45.01 625.403 277.241)" d="M756.96 296.94h17.85v4.71h-17.85z"/><path class="cls-4" d="M725.44 223.6H710.2l-.01-15.25h4.72v10.54h10.53v4.71z"/><path class="cls-4" transform="rotate(-45 606.153 296.473)" d="M737.73 316.17h17.85v4.71h-17.85z"/><path class="cls-4" d="M1011.05 178.22h116.1v93.01h-116.1z"/><path class="cls-5" d="M1012.4 179.57h113.4v90.31h-113.4z"/><path class="cls-1" d="M1035.26 378.4h118.8v-95.71h-118.8zm2.7-93h113.4v90.3H1038z" transform="translate(-25.56 -105.82)"/><path class="cls-2" d="M1018.12 194.13h101.95v29.36h-101.95z"/><path class="cls-3" d="M1018.12 228.9h30.45v16.4h-30.45z"/><path class="cls-1" d="M1019.13 250.34h28.43v2.7h-28.43zm0 9.32h28.43v2.7h-28.43zm35.75-9.32h28.43v2.7h-28.43z"/><path class="cls-4" d="M1045.41 206.31h47.38v4.71h-47.38z"/><path class="cls-1" d="M1054.88 259.66h28.43v2.7h-28.43zm35.75-9.32h28.43v2.7h-28.43zm0 9.32h28.43v2.7h-28.43z"/><path class="cls-3" d="M1053.87 228.9h30.45v16.4h-30.45zm35.75 0h30.45v16.4h-30.45z"/><path class="cls-4" d="M1011.05 164.66h116.1v13.55h-116.1z"/><path class="cls-5" d="M1012.4 166.01h113.4v10.85h-113.4z"/><path class="cls-1" d="M1035.26 285.39h118.8v-16.25h-118.8zm2.7-13.55h113.4v10.85H1038z" transform="translate(-25.56 -105.82)"/><path class="cls-1" d="M1017.36 169.99h2.39v2.7h-2.39zm7.63 0h2.39v2.7h-2.39zm7.62 0h2.39v2.7h-2.39zm-3.16 16.46h36.88v2.7h-36.88zm-10.32 0h2.8v2.7h-2.8z"/><path class="cls-5" d="M209.72 248a39.51 39.51 0 10-2 0v1.37h2z" transform="translate(-25.56 -105.82)"/><path class="cls-1" d="M238.54 238.39a42.2 42.2 0 10-29.84 12.35 41.91 41.91 0 0029.84-12.35zm-30.84 11V248a39.51 39.51 0 112 0v1.37z" transform="translate(-25.56 -105.82)"/><path class="cls-7" d="M187.54 230.87a31.38 31.38 0 1122.19 9.18 31.21 31.21 0 01-22.19-9.18z" transform="translate(-25.56 -105.82)"/><path class="cls-4" d="M235.62 208h-4.72a21.2 21.2 0 00-21.19-21.17v-4.72A25.93 25.93 0 01235.62 208z" transform="translate(-25.56 -105.82)"/><path class="cls-3" d="M64.8 90.82h52.99v23.89H64.8z"/><path class="cls-4" d="M117.88 94.43h8.16v16.67h-8.16z"/><path class="cls-1" d="M118.89 95.78h5.81l-.01 13.97h-5.8v2.7h8.5l.01-19.37h-8.51v2.7z"/><path class="cls-1" d="M86.63 215.2a10.42 10.42 0 010-13.23l.3-.37h2.43v-2.7h-3.55l-.39.4a13.13 13.13 0 000 18.57l.39.4h3.56v-2.7h-2.44z" transform="translate(-25.56 -105.82)"/><path class="cls-1" d="M129.14 107.72h12.91v2.7h-12.91zm0-12.61h12.91v2.7h-12.91z"/><path class="cls-4" d="M71.92 95.78h36.54v4.71H71.92z"/><path class="cls-1" d="M778.31 195.37v-1.43a40.51 40.51 0 10-69.85 27.91l.28.3v34.55h2.7v-35.11a1.36 1.36 0 00-.39-1 37.8 37.8 0 1164.56-26.7v1.71a1.32 1.32 0 00.18.73l11.49 19.9h-6.78a1.36 1.36 0 00-1.35 1.35v15.46a9.22 9.22 0 01-9.2 9.21h-16.72a1.34 1.34 0 00-1.35 1.35v13h2.7V245H770a11.92 11.92 0 0011.9-11.91V219h7.75a1.35 1.35 0 001.17-2z" transform="translate(-25.56 -105.82)"/><path class="cls-3" d="M691.59 257.71v-36.12a39.15 39.15 0 1166.87-27.65c0 .59 0 1.18-.05 1.77l5.47 9.47 7.19 12.45H762v15.46a10.56 10.56 0 01-10.56 10.56H734.7v14.06z" transform="translate(-25.56 -105.82)"/><path class="cls-1" d="M707.84 92.69l-1.91 1.9 9.83 9.84-9.83 9.82 1.91 1.91 11.73-11.73-11.73-11.74z"/><path class="cls-1" d="M676.9 103.07h39.65v2.7H676.9zm29.96-12.92l1.91-1.91-9.83-9.83 9.83-9.83-1.91-1.91-11.73 11.74 11.73 11.74z"/><path class="cls-1" d="M698.14 77.06h39.66v2.7h-39.66z"/><path class="cls-7" d="M749.9 313.82h43.61v43.61H749.9z"/><path class="cls-1" d="M808.94 373.76h2.7v2.7h-2.7zm-34.57 0h2.31v2.7h-2.31zm8.64 0h2.31v2.7h-2.31zm17.29 0h2.31v2.7h-2.31zm-8.65 0h2.31v2.7h-2.31zm-26.32 0h2.7v2.7h-2.7zm0-17.29h2.7v2.31h-2.7zm0 8.65h2.7v2.31h-2.7zm0-17.29h2.7v2.31h-2.7zm0-8.64h2.7v2.31h-2.7zm0-9.04h2.7v2.7h-2.7zm17.68 0h2.31v2.7h-2.31zm-8.65 0h2.31v2.7h-2.31zm25.93 0h2.31v2.7h-2.31zm-8.64 0h2.31v2.7h-2.31zm17.29 0h2.7v2.7h-2.7zm0 34.97h2.7v2.31h-2.7zm0-25.93h2.7v2.31h-2.7zm0 17.29h2.7v2.31h-2.7zm0-8.65h2.7v2.31h-2.7z"/><path class="cls-3" d="M986.29 379.31a23.93 23.93 0 11-23.92-23.92 23.92 23.92 0 0123.92 23.92z" transform="translate(-25.56 -105.82)"/><path class="cls-1" d="M935.05 245.39h2.7v7.56h-2.7z"/><path class="cls-1" transform="rotate(-45.03 804.454 340.332)" d="M943.54 358.62h2.7v7.55h-2.7z"/><path class="cls-1" d="M908.71 272.54h7.55v2.7h-7.55z"/><path class="cls-1" transform="rotate(-45 804.931 374.737)" d="M941.68 395.44h7.55v2.7h-7.55z"/><path class="cls-1" d="M934.84 293.03h4.71v9.57h-4.71z"/><path class="cls-1" d="M935.85 294.03h2.7v7.56h-2.7z"/><path class="cls-1" transform="rotate(-45.01 839.477 374.165)" d="M978.5 392.45h2.7V400h-2.7z"/><path class="cls-1" d="M957.35 271.74h7.55v2.7h-7.55z"/><path class="cls-1" transform="rotate(-44.99 838.844 339.793)" d="M975.51 360.49h7.55v2.7h-7.55z"/><path class="cls-4" d="M1013.91 506.56v-7.7a22.7 22.7 0 009.16-18.22v-39.52l-.43-8.73a8.47 8.47 0 00-8.46-8.47c-4.68 0-8.47 1.68-8.47 6.35v-2.12a8.47 8.47 0 00-16.94 0v-4.23a8.47 8.47 0 00-16.93 0v4.35c0-2-.08-48.36-.08-48.36a8.76 8.76 0 10-17.52 0v85.58l-.18-4.17v-17.5a12.92 12.92 0 00-12.94-12.93h-4.3c-.19 0 .17 0 0 0v37.71l24.51 29.15s6.36 4 10.27 5v3.83z" transform="translate(-25.56 -105.82)"/><path class="cls-1" d="M1024.42 480.64v-39.58l-.42-8.67a9.83 9.83 0 00-9.81-9.82 12.47 12.47 0 00-6.7 1.63l-.94.61-.5-1A9.82 9.82 0 00991 420.6l-1.05.88-.52-1.27a9.83 9.83 0 00-14.65-4.38l-1.58 1.09-.06-37a10.11 10.11 0 10-20.22 0v55.49l-1.71-1.71a14.25 14.25 0 00-10.07-4.15h-5.74l-.08 2.54h.11v14.05h-.09l.08 1.12v21.84l25 29.68.18.11a57.5 57.5 0 009 4.62l.66.25v1.79h2.7v-3.88l-1-.25c-3.37-.82-8.93-4.23-9.55-4.62l-.14-.08-24.06-28.61v-20h.12l-.12-1.06v-14.81h3a11.6 11.6 0 0111.59 11.58v17.56l.13 3.18 2.75-.05v-84.6a7.41 7.41 0 1114.82 0s.07 40.21.08 47.35h2.7v-3.34a7.12 7.12 0 0114.23 0v3.23h2.77a7.12 7.12 0 0114.17 1v1.11h2.78c.45-2.65 2.81-4 7-4a7.19 7.19 0 017.12 7.19l.42 8.66v39.52a21.23 21.23 0 01-8.62 17.14l-.54.4v7.37h2.7v-6l.37-.3a24 24 0 008.74-18.6z" transform="translate(-25.56 -105.82)"/><path class="cls-1" d="M159.8 309.28l2.34-1.35-54.21-93.9-54.22 93.9 2.34 1.35 51.88-89.85 51.87 89.85z"/><path class="cls-1" d="M106.58 150.87h2.7v157.72h-2.7z"/><path class="cls-3" d="M40.19 172.84h135.47V278.6H40.19z"/><path class="cls-4" d="M91.33 182.29h74.87v86.85H49.65v-86.85h41.68z"/><path class="cls-5" d="M51 183.64h113.85v84.14H51z"/><path class="cls-1" d="M73.87 376.31h119.25v-89.54H73.87zm2.7-86.84h113.85v84.14H76.57z" transform="translate(-25.56 -105.82)"/><path class="cls-6" d="M59.82 192.46v38.92l17.79-23.68 17.47 23.26 11.31-15.05 14.39 19.16 3.16 4.21h32.09v-46.82H59.82z"/><path class="cls-4" d="M167.2 316.11a8.23 8.23 0 11-8.23-8.23 8.22 8.22 0 018.23 8.23z" transform="translate(-25.56 -105.82)"/><path class="cls-5" d="M90.89 172.93h34.08v8.2H90.89z"/><path class="cls-1" d="M113.75 289.37h39.48V276.1h-39.48zm2.7-10.62h34.08V287h-34.08z" transform="translate(-25.56 -105.82)"/><path class="cls-3" d="M386.07 257.87v-6.39l-5.68-.47a17.38 17.38 0 00-2.24-5.8l3.79-4.48-4.52-4.52-4.34 3.68a17.46 17.46 0 00-5.69-2.52l-.49-5.85h-6.39l-.51 5.68a17.17 17.17 0 00-5.8 2.24l-4.48-3.79-4.52 4.51 3.68 4.35a17.28 17.28 0 00-2.52 5.69l-5.85.48v6.39l5.68.48a17.46 17.46 0 002.24 5.8l-3.79 4.48 4.51 4.52 4.35-3.68a17.35 17.35 0 005.69 2.51l.48 5.86h6.39l.48-5.68a17.46 17.46 0 005.8-2.24l4.48 3.79 4.52-4.52-3.68-4.34a17.23 17.23 0 002.51-5.69z" transform="translate(-25.56 -105.82)"/><path class="cls-4" d="M371.75 254.28a8.44 8.44 0 11-8.44-8.44 8.44 8.44 0 018.44 8.44z" transform="translate(-25.56 -105.82)"/><path class="cls-5" d="M363.31 247.19a7.09 7.09 0 107.09 7.09 7.1 7.1 0 00-7.09-7.09z" transform="translate(-25.56 -105.82)"/><path class="cls-1" d="M363.31 244.49a9.79 9.79 0 109.79 9.79 9.8 9.8 0 00-9.79-9.79zm0 16.88a7.09 7.09 0 117.09-7.09 7.1 7.1 0 01-7.09 7.09z" transform="translate(-25.56 -105.82)"/><path class="cls-3" d="M1138.37 456.86a42.9 42.9 0 11-42.9-42.89 42.9 42.9 0 0142.9 42.89z" transform="translate(-25.56 -105.82)"/><path class="cls-4" d="M1078.67 458.58c.42 10.37 7.91 18.64 17.1 18.64s16.68-8.27 17.1-18.64z" transform="translate(-25.56 -105.82)"/><path class="cls-5" d="M1095.77 475.87c7.57 0 14.09-6.21 15.49-14.77l.19-1.17h-31.36l.19 1.17c1.41 8.56 7.92 14.77 15.49 14.77z" transform="translate(-25.56 -105.82)"/><path class="cls-1" d="M1077.32 458.63c.46 11.18 8.56 19.94 18.45 19.94s18-8.76 18.45-19.94l.06-1.4h-37zm34.13 1.3l-.19 1.17c-1.4 8.56-7.92 14.77-15.49 14.77s-14.08-6.21-15.49-14.77l-.19-1.17z" transform="translate(-25.56 -105.82)"/><path class="cls-4" d="M1107.48 163.31a25.65 25.65 0 11-25.64-25.63 25.64 25.64 0 0125.64 25.63z" transform="translate(-25.56 -105.82)"/><path class="cls-5" d="M1081.84 139a24.29 24.29 0 1024.29 24.28 24.32 24.32 0 00-24.29-24.28z" transform="translate(-25.56 -105.82)"/><path class="cls-1" d="M1108.83 163.31a27 27 0 10-27 27 27 27 0 0027-27zm-27 24.3a24.29 24.29 0 1124.29-24.3 24.33 24.33 0 01-24.28 24.3z" transform="translate(-25.56 -105.82)"/><path class="cls-3" d="M1081.84 181.14a17.82 17.82 0 1117.82-17.83 17.85 17.85 0 01-17.82 17.83z" transform="translate(-25.56 -105.82)"/><path class="cls-1" d="M1045.29 59.08l6.28 6.28 15.11-15.1-1.91-1.91-13.2 13.2-4.38-4.38-1.9 1.91z"/><path class="cls-1" d="M1080.35 437.46a5.53 5.53 0 015.44 4.53h2.73a8.23 8.23 0 00-16.34 0h2.73a5.53 5.53 0 015.44-4.53zm30.25 0a5.53 5.53 0 015.4 4.54h2.73a8.23 8.23 0 00-16.34 0h2.73a5.53 5.53 0 015.48-4.54z" transform="translate(-25.56 -105.82)"/><path class="cls-3" d="M40.19 325.54h254.48v32.71H40.19z"/><path class="cls-1" d="M48.19 325.54h2.7v10.87h-2.7zm9.84 0h2.7v4.92h-2.7zm9.83 0h2.7v10.87h-2.7zm9.84 0h2.7v4.92h-2.7zm9.84 0h2.7v10.87h-2.7zm9.83 0h2.7v4.92h-2.7zm9.84 0h2.7v10.87h-2.7zm9.83 0h2.7v4.92h-2.7zm9.84 0h2.7v10.87h-2.7zm9.84 0h2.7v4.92h-2.7zm9.83 0h2.7v10.87h-2.7zm9.84 0h2.7v4.92h-2.7zm9.83 0h2.7v10.87h-2.7zm10.54 0h2.7v4.92h-2.7zm9.84 0h2.7v10.87h-2.7zm9.83 0h2.7v4.92h-2.7zm9.84 0h2.7v10.87h-2.7zm9.84 0h2.7v4.92h-2.7zm9.83 0h2.7v10.87h-2.7zm9.84 0h2.7v4.92h-2.7zm9.84 0h2.7v10.87h-2.7zm9.83 0h2.7v4.92h-2.7zm9.84 0h2.7v10.87h-2.7zm9.83 0h2.7v4.92h-2.7zm9.84 0h2.7v10.87h-2.7z"/></svg>