<svg xmlns="http://www.w3.org/2000/svg" viewBox="0 0 570 472.38"><defs><style>.cls-1{fill:#fff}.cls-6{fill:none}.cls-5{fill:#282d33}.cls-4{fill:#ffcb05}.cls-7{fill:#1b2c38}.cls-10{fill:#27c7cd}</style></defs><g id="Layer_4" data-name="Layer 4"><path class="cls-1" d="M720.25 303.61l32.9 10.7a46.65 46.65 0 01-13.5 16z" transform="translate(-207.75 -77.87)"/><path d="M553.91 189.05a56.61 56.61 0 00-33.17-28.33 53.32 53.32 0 00-14.34-2.71l-1.33-.06v55.57l52.85 17.18.34-1.3a56.82 56.82 0 00-4.35-40.35z" stroke-width="1.27" stroke-miterlimit="10" stroke="#282d33" fill="none"/><path d="M555.19 188.41a58.07 58.07 0 00-34-29 55.41 55.41 0 00-16.81-2.84h-.73v58.06l55.22 17.94.21-.7a58.18 58.18 0 00-3.89-43.46zm3.07 41l-.34 1.3-52.85-17.18v-55.58l1.33.06a53.32 53.32 0 0114.34 2.71 57 57 0 0137.51 68.68z" fill="#282d33" stroke-width="1.27" stroke-miterlimit="10" stroke="#282d33"/><path class="cls-4" d="M710.86 340.05a47.25 47.25 0 01-33.39-80.67 45.55 45.55 0 0126-13.38v49.26l2.67 3.61 26.18 36a47.44 47.44 0 01-21.48 5.14z" transform="translate(-207.75 -77.87)"/><path class="cls-5" d="M492.65 476.22a71.53 71.53 0 01-143.06.85h-2.44a74 74 0 00148-.85v-93.85h-2.45z" transform="translate(-207.75 -77.87)"/><path class="cls-4" d="M605.18 135.9a146.49 146.49 0 11-207.18 0 146.49 146.49 0 01207.18 0z" transform="translate(-207.75 -77.87)"/><path class="cls-5" d="M306.35 309.88h2.44v-2.42h-2.44z" transform="translate(-207.75 -77.87)"/><path class="cls-5" d="M30.42 229.57h2.55v2.44h-2.55zm8.52 0h2.55v2.44h-2.55zm8.52 0h2.55v2.44h-2.55zm8.53 0h2.55v2.44h-2.55zm34.08 0h2.55v2.44h-2.55zm-25.56 0h2.55v2.44h-2.55zm17.04 0h2.55v2.44h-2.55zm-8.52 0h2.55v2.44h-2.55z"/><path class="cls-4" d="M691.73 426a60.89 60.89 0 010 86.11c-22.65 22.64-63.48 22.64-86.12 0A60.89 60.89 0 11691.73 426z" transform="translate(-207.75 -77.87)"/><path class="cls-5" d="M474.88 441.72a20.24 20.24 0 01-40.46.85H432a22.7 22.7 0 0022.68 21.84 22.72 22.72 0 0022.68-22.69V341.9h-2.45z" transform="translate(-207.75 -77.87)"/><path class="cls-5" d="M476 480.2a55.86 55.86 0 11-89.6-51.88 55.19 55.19 0 0134.16-11.77 59.07 59.07 0 016.22.34l.3-2.42a59.54 59.54 0 00-6.53-.36 58.31 58.31 0 00-57.71 51.06 58.37 58.37 0 0050.6 65.1 59.28 59.28 0 007.28.45 58.39 58.39 0 0057.71-50.22z" transform="translate(-207.75 -77.87)"/><path class="cls-5" d="M459.83 478.17A39.6 39.6 0 01420.72 512a40.65 40.65 0 01-4.93-.3 39.56 39.56 0 01-34.42-43.32l-2.43-.3a42 42 0 0083.32 10.43zm106.73 28.88a17.52 17.52 0 01-35-.85V341.9h-2.46v164.3a20 20 0 0039.91.85z" transform="translate(-207.75 -77.87)"/><path class="cls-5" d="M302.49 320.06h2.44v98.44h-2.44z"/><path class="cls-5" d="M580.66 517.89a33.36 33.36 0 00-31.73-43.6h-1.38l.16 2.44h1.22a30.91 30.91 0 11-27.1 45.74l-2.18 1.11a33.1 33.1 0 0019 15.79A33.49 33.49 0 00549 541a33.41 33.41 0 0031.69-23.11z" transform="translate(-207.75 -77.87)"/><path class="cls-5" transform="rotate(-45.01 505.07 337.93)" d="M701.74 121.26h2.44v9.73h-2.44z"/><path class="cls-5" transform="rotate(-45 505.097 337.982)" d="M698.1 124.91h9.74v2.44h-9.74z"/><path class="cls-5" transform="rotate(-45.01 25.73 384.598)" d="M222.38 167.95h2.44v9.73h-2.44z"/><path class="cls-5" transform="rotate(-45 25.756 384.671)" d="M218.74 171.6h9.74v2.44h-9.74z"/><circle class="cls-4" cx="63.91" cy="396.84" r="46.43"/><path class="cls-5" d="M88.52 448l2.03-1.36-26.16-39.22h-2.54L35.7 446.64l2.03 1.36 25.4-38.08L88.52 448z"/><path class="cls-5" d="M61.9 409.52h2.44v37.4H61.9z"/><path class="cls-5" d="M276.53 482.19a6.61 6.61 0 00.66-4.25l-2.37.74a4.13 4.13 0 01-.46 2.38 4.2 4.2 0 01-2.48 2.08 4.54 4.54 0 01-1.27.19 4.24 4.24 0 01-3.69-2.17l-2.36.74a6.63 6.63 0 003 3.11 6.54 6.54 0 003.08.77 6.84 6.84 0 002-.31 6.68 6.68 0 003.89-3.28z" transform="translate(-207.75 -77.87)"/><path class="cls-6" transform="rotate(-20.63 -43.093 998.567)" d="M240.46 458.77h68.63v16.15h-68.63z"/><path class="cls-5" d="M312.89 463.73L305.48 444l-68.81 26 7.41 19.68zm-8.84-16.54l5.69 15.11-64.23 24.18-5.69-15.11z" transform="translate(-207.75 -77.87)"/><path class="cls-6" transform="rotate(-20.63 -4.44 984.088)" d="M308.89 442.38h8.97v19.86h-8.97z"/><path class="cls-5" d="M324.22 461.45l-8.72-23.17-13 4.89 8.72 23.16zm-10.14-20l7 18.59-8.39 3.16-7-18.59z" transform="translate(-207.75 -77.87)"/><path class="cls-6" transform="rotate(-20.63 -85.302 1014.499)" d="M224.16 478.38h16.75v8.71h-16.75z"/><path class="cls-5" d="M245.06 485.29l-4.79-12.73-20.27 7.63 4.79 12.72zm-6.22-9.58l3.07 8.16-15.68 5.9-3.07-8.16z" transform="translate(-207.75 -77.87)"/><path class="cls-1" d="M265 473.07l50-18.83z" transform="translate(-207.75 -77.87)"/><path class="cls-5" transform="rotate(-20.63 -27.767 995.452)" d="M264.18 462.43h51.73v2.44h-51.73z"/><path class="cls-1" d="M63.18 363.97h4.14v4.15h-4.14zm33.2 34.24h4.14v4.15h-4.14zm-13.75 15.82h4.14v4.15h-4.14zm-45.65 4.67h4.14v4.15h-4.14z"/><path class="cls-7" d="M248.74 449.23a10 10 0 01-2.71-19.6c-.47 0-.95-.07-1.44-.07A13.88 13.88 0 10258.35 442a10 10 0 01-9.61 7.23z" transform="translate(-207.75 -77.87)"/><path class="cls-1" d="M305.27 255.13l7.93-7.93 30-30 7.93-7.93a15.38 15.38 0 0120-18.89l-9.27 9.27 1.93 7.21 7.21 1.93 9.27-9.27a15.37 15.37 0 01-18.9 20l-7.93 7.93-30 30.05-7.93 7.92a15.37 15.37 0 01-20 18.9l9.27-9.27-1.94-7.21-7.2-1.93-9.27 9.27a15.38 15.38 0 0118.89-20z" transform="translate(-207.75 -77.87)"/><path class="cls-5" d="M175.41 207.95l-4.95-16.76-1.38-1.38-1.73 1.73.94.94 3.5 11.85-11.85-3.5-.94-.94-1.73 1.73 1.38 1.38 16.76 4.95z"/><path class="cls-6" transform="rotate(-45 138.497 450.872)" d="M330.37 192.32h11.99v93.39h-11.99z"/><path class="cls-5" d="M377.08 267.8l-69.49-69.49-11.94 11.93 69.5 69.5zm-69.49-66l66 66-8.48 8.48-66-66z" transform="translate(-207.75 -77.87)"/><path class="cls-5" transform="rotate(-45 137.577 449.954)" d="M334.23 191.61h2.44v93h-2.44z"/><path class="cls-5" d="M302 192.84l-3.47-3.46a2.32 2.32 0 00-1.68-.68 2.92 2.92 0 00-2.06.89l-7.87 7.87a2.9 2.9 0 00-.87 1.79 2.37 2.37 0 00.66 1.95l3.46 3.46 1.73-1.73-3.5-3.5 8.37-8.36 3.5 3.5z" transform="translate(-207.75 -77.87)"/><path class="cls-4" transform="rotate(-45 102.662 415.056)" d="M291.27 197.72h18.59v11h-18.59z"/><path class="cls-6" d="M387.33 330.73h-92.52a1.46 1.46 0 00-1.46 1.46v56h95.44v-56a1.46 1.46 0 00-1.46-1.46z" transform="translate(-207.75 -77.87)"/><path class="cls-5" d="M387.33 328.29h-92.52a3.91 3.91 0 00-3.91 3.9v58.48h100.34v-58.48a3.91 3.91 0 00-3.91-3.9zm1.46 59.94h-95.44v-56a1.46 1.46 0 011.46-1.46h92.52a1.46 1.46 0 011.46 1.46z" transform="translate(-207.75 -77.87)"/><path d="M292.13 389.39v8.26a3.61 3.61 0 003.21 3.35h92.18c1.58 0 2.53-1.63 2.53-3.21v-8.4z" transform="translate(-207.75 -77.87)" fill="#636c78"/><path class="cls-6" d="M295.34 399.78h92.18c.8 0 1.3-1 1.3-2v-7.17h-95.46v7a2.45 2.45 0 001.98 2.17z" transform="translate(-207.75 -77.87)"/><path class="cls-5" d="M290.91 397.65a4.8 4.8 0 004.43 4.57h92.18c2.34 0 3.75-2.25 3.75-4.43v-9.62H290.91zm2.45-7h95.46v7.17c0 .95-.5 2-1.3 2h-92.18a2.45 2.45 0 01-2-2.13z" transform="translate(-207.75 -77.87)"/><path class="cls-5" d="M331.38 402l-2.44-.2v2.54a31.08 31.08 0 01-.19 5.31 7.4 7.4 0 01-.29 1.18l-.1.26-.24.15-.27.16-.26.14c-.35.19-.93.47-1.62.78l1 2.24c.78-.35 1.42-.66 1.84-.89l.13-.07c1.29-.71 1.78-1.17 2.24-3.47a31.93 31.93 0 00.24-5.87c-.04-.8-.05-1.59-.04-2.26zm24.73 10.35c-.73-.33-1.33-.62-1.73-.84l-.1-.05a2.32 2.32 0 01-.28-.16l-.25-.15-.1-.29a9.52 9.52 0 01-.29-1.18 32.75 32.75 0 01-.19-5.25v-2.5l-2.44.2v2.27a31 31 0 00.24 5.75c.45 2.29.85 2.74 2.22 3.5l.09.05c.5.27 1.23.61 1.85.89z" transform="translate(-207.75 -77.87)"/><path class="cls-5" d="M116.09 334.55h34.51v2.44h-34.51z"/><path class="cls-4" d="M95.44 287.28h12.3v15.35h-12.3z"/><path class="cls-1" d="M115.71 266.65h12.3v35.98h-12.3z"/><path class="cls-6" d="M116.93 267.88h9.86v33.53h-9.86z"/><path class="cls-5" d="M322.24 381.72H337V343.3h-14.76zm2.45-36h9.85v33.54h-9.85z" transform="translate(-207.75 -77.87)"/><path class="cls-4" d="M135.98 276.39h12.3v26.24h-12.3z"/><path class="cls-1" d="M156.26 258.32h12.3v44.31h-12.3z"/><path class="cls-4" d="M340.65 323.24H318a1.63 1.63 0 00-1.64 1.64v9.41a1.63 1.63 0 001.64 1.64h9.09l.6 1 1.63 2.83L331 337l.6-1h9.09a1.64 1.64 0 001.64-1.64v-9.41a1.64 1.64 0 00-1.68-1.71z" transform="translate(-207.75 -77.87)"/><path class="cls-1" d="M115.46 249.73h12.22v4.15h-12.22z"/><path class="cls-5" d="M92.34 301.41h81.99v2.44H92.34z"/><path class="cls-6" d="M609.84 359.77a20.53 20.53 0 00-2.63-6.82l-.46-.75 4.56-5.4-4-4-5.31 4.42-.77-.52a20.15 20.15 0 00-6.68-3l-.86-.2-.58-7.05h-5.71l-.57 6.88-.91.17a20.24 20.24 0 00-6.82 2.63l-.75.46-5.4-4.57-4 4 4.46 5.26-.52.77a20.33 20.33 0 00-3 6.68l-.2.86-7.05.59V366l6.87.58.18.91a20.27 20.27 0 002.63 6.82l.46.75-4.57 5.4 4 4 5.26-4.46.77.53a20.13 20.13 0 006.68 3l.86.21.59 7.05h5.7l.57-6.88.92-.17a20.27 20.27 0 006.81-2.63l.76-.46 5.39 4.56 4-4-4.46-5.27.53-.76a20.52 20.52 0 003-6.68l.21-.86 7-.59v-5.71l-6.88-.57z" transform="translate(-207.75 -77.87)"/><path class="cls-5" d="M611.9 357.81A22.78 22.78 0 00610 353l-.27-.51 4.89-5.78-7.21-7.21-5.58 4.71-.52-.3a22.94 22.94 0 00-4.78-2.11l-.55-.16-.62-7.54h-10.2l-.6 7.27-.59.16a22.83 22.83 0 00-4.87 1.88l-.51.27-5.77-4.89-7.21 7.21 4.71 5.57-.3.52a23.17 23.17 0 00-2.11 4.78l-.17.55-7.54.63v10.2l7.28.61.15.58a22.86 22.86 0 001.89 4.87l.27.51-4.89 5.77 7.22 7.22 5.57-4.72.52.31a22.62 22.62 0 004.78 2.1l.55.17.63 7.54h10.2l.61-7.28.58-.15a22.34 22.34 0 004.87-1.89l.51-.26 5.77 4.88 7.22-7.21-4.72-5.58.31-.52a23.06 23.06 0 002.1-4.77l.17-.55 7.54-.63V359l-7.28-.6zm5 9.15l-7 .59-.21.86a20.52 20.52 0 01-3 6.68l-.53.76 4.46 5.27-4 4-5.39-4.56-.76.46a20.27 20.27 0 01-6.81 2.63l-.92.17-.57 6.88h-5.7l-.59-7.05-.86-.21a20.13 20.13 0 01-6.68-3l-.77-.53-5.26 4.46-4-4 4.57-5.4-.46-.75a20.27 20.27 0 01-2.63-6.82l-.18-.91-6.87-.58v-5.7l7.05-.59.2-.86a20.33 20.33 0 013-6.68l.52-.77-4.46-5.26 4-4 5.4 4.57.75-.46a20.24 20.24 0 016.82-2.63l.91-.17.57-6.88h5.71l.58 7.05.86.2a20.15 20.15 0 016.68 3l.77.52 5.27-4.45 4 4-4.56 5.4.46.75a20.53 20.53 0 012.63 6.82l.17.91 6.88.57z" transform="translate(-207.75 -77.87)"/><circle cx="382.01" cy="285.74" r="11.33" stroke-width="2.56" stroke="#1b2c38" stroke-miterlimit="10" fill="none"/><path class="cls-5" d="M410.93 122.28l-1.07-2.2a19.8 19.8 0 00-2.22 1.41l1.53 1.91a15.4 15.4 0 011.76-1.12zm-4.52 26.08l-1.91 1.53a18.24 18.24 0 001.87 1.86l1.52-1.91a17.23 17.23 0 01-1.48-1.48zm9.69-27.9a14.56 14.56 0 012.08-.24v-2.45a19.28 19.28 0 00-2.62.3zm-13.7 13.77l-2.4-.53a20.43 20.43 0 00-.29 2.61h2.45a15.88 15.88 0 01.24-2.08zm1.08 9.5a17 17 0 01-.69-2l-2.39.54a20 20 0 00.88 2.5zm7.99 11.27a21.73 21.73 0 002.5.87l.54-2.39a17.86 17.86 0 01-2-.69zm-7.28-25.94a19 19 0 011.11-1.78l-1.91-1.52A18.62 18.62 0 00402 128zM434 145.23a17 17 0 01-1.11 1.77l1.91 1.53a18.5 18.5 0 001.4-2.23zm.67-14.73a15.8 15.8 0 01.7 2l2.38-.55a18.28 18.28 0 00-.88-2.48zm-2.93-4.63l1.9-1.53a18.24 18.24 0 00-1.87-1.86l-1.52 1.92a17.23 17.23 0 011.49 1.47zm-7.58-7.45l-.53 2.39a17 17 0 012 .68l1.06-2.2a18.49 18.49 0 00-2.53-.87zM427.2 152l1.07 2.2a19.92 19.92 0 002.23-1.41l-1.5-1.91a18.17 18.17 0 01-1.8 1.12zm-4.62 4.19l-.55-2.38a16 16 0 01-2.03.19v2.45a19.28 19.28 0 002.58-.26zm13.19-16.13l2.38.54a19.44 19.44 0 00.3-2.68L436 138a16.29 16.29 0 01-.23 2.06z" transform="translate(-207.75 -77.87)"/><path class="cls-1" d="M607.4 529v-13.87C607.4 509 613 504 620 504h55.12c6.94 0 12.56 5 12.56 11.12V529z" transform="translate(-207.75 -77.87)"/><path class="cls-5" d="M675.08 502.79H620c-7.6 0-13.78 5.53-13.78 12.34v13h2.44v-13c0-5.46 5.09-9.9 11.34-9.9h55.12c6.25 0 11.34 4.44 11.34 9.9v13h2.44v-13c-.04-6.81-6.22-12.34-13.82-12.34z" transform="translate(-207.75 -77.87)"/><path class="cls-1" d="M450.32 426.26l-10.56 6.09-10.55-6.09v-23.04h21.11v23.04z"/><path class="cls-6" d="M449.1 425.55v-21.11h-18.66v21.11l9.32 5.39 9.34-5.39z"/><path class="cls-5" d="M635.74 504.83l11.78 6.8 11.77-6.8v-25h-23.55zm2.45-22.52h18.66v21.11l-9.33 5.39-9.33-5.39z" transform="translate(-207.75 -77.87)"/><path class="cls-1" d="M672.35 474.16a24.66 24.66 0 01-24.67 24.67A24.67 24.67 0 01623 474.16v-21.43c0-13.63 11-12.61 24.68-12.61 13.63 0 24.67-1 24.67 12.61z" transform="translate(-207.75 -77.87)"/><path class="cls-6" d="M652.86 441.33h-10.37c-11.36 0-18.27.76-18.27 11.4v21.43a23.46 23.46 0 0046.91 0v-21.43c0-10.64-6.9-11.4-18.27-11.4z" transform="translate(-207.75 -77.87)"/><path class="cls-5" d="M652.86 438.88h-10.37c-9.71 0-20.71 0-20.71 13.85v21.43a25.9 25.9 0 0051.79 0v-21.43c0-13.85-11-13.85-20.71-13.85zm18.27 35.28a23.46 23.46 0 01-46.91 0v-21.43c0-10.64 6.91-11.4 18.27-11.4h10.37c11.37 0 18.27.76 18.27 11.4z" transform="translate(-207.75 -77.87)"/><path class="cls-5" d="M427.3 387.31h4.5v4.15h-4.5z"/><path class="cls-5" d="M428.15 388.16h2.79v2.44h-2.79zm19.9-.85h4.5v4.15h-4.5z"/><path class="cls-5" d="M448.9 388.16h2.79v2.44h-2.79z"/><path class="cls-10" d="M659.06 484.72a7.25 7.25 0 00-7.23-6.75h-8.3a7.26 7.26 0 00-7.24 6.75z" transform="translate(-207.75 -77.87)"/><path class="cls-6" d="M651.83 479.2h-8.3a6.05 6.05 0 00-5.22 3l-.75 1.29h20.23l-.74-1.29a6.05 6.05 0 00-5.22-3z" transform="translate(-207.75 -77.87)"/><path class="cls-5" d="M660.28 484.63a8.5 8.5 0 00-8.45-7.88h-8.3a8.51 8.51 0 00-8.46 7.88l-.09 1.31h25.4zm-22.72-1.13l.75-1.29a6.05 6.05 0 015.22-3h8.3a6.05 6.05 0 015.22 3l.74 1.29z" transform="translate(-207.75 -77.87)"/><path class="cls-10" d="M669.49 436.7v-1.61a4.11 4.11 0 00-4.06-4.15h-35.5a4.11 4.11 0 00-4.06 4.15v1.61a8.75 8.75 0 00-8.37 8.83l2.08 29.05 4 4.15s1.83-23.37 4.35-31l19.74 3.64 19.74-3.64c2.51 7.65 4.35 31 4.35 31l4-4.15 2.07-29.05a8.74 8.74 0 00-8.34-8.83z" transform="translate(-207.75 -77.87)"/><path class="cls-6" d="M669.44 437.92h-1.18v-2.79a2.88 2.88 0 00-2.83-2.93h-35.5a2.88 2.88 0 00-2.84 2.93v2.79h-1.18a7.51 7.51 0 00-7.19 7.53l2 28.6 1.83 1.89.18-1.85c.7-7.58 2.16-21.14 4-26.76l.33-1 20.57 3.79 20.56-3.79.34 1c1.85 5.63 3.31 19.18 4 26.76l.17 1.85 1.83-1.89 2-28.53a7.52 7.52 0 00-7.09-7.6z" transform="translate(-207.75 -77.87)"/><path class="cls-5" d="M671.37 435.71l-.64-.15v-.66a5.29 5.29 0 00-5.27-5.18h-35.5a5.3 5.3 0 00-5.28 5.18v.66l-.65.15a9.91 9.91 0 00-7.7 9.76l2.11 29.64 6.2 6.42.22-2.72c.16-2.08 1.69-20.54 3.78-28.92l.19-.78 18.9 3.48 18.89-3.48.19.78c2.1 8.38 3.62 26.84 3.79 28.94l.21 2.7 6.21-6.42 2.1-29.46v-.12a9.93 9.93 0 00-7.75-9.82zm3.22 38.34l-1.83 1.89-.17-1.85c-.7-7.58-2.16-21.13-4-26.76l-.34-1-20.56 3.79-20.57-3.79-.33 1c-1.85 5.62-3.31 19.18-4 26.76l-.18 1.85-1.83-1.89-2-28.6a7.51 7.51 0 017.19-7.53h1.18v-2.79a2.88 2.88 0 012.84-2.93h35.5a2.88 2.88 0 012.83 2.93v2.79h1.18a7.52 7.52 0 017.19 7.6z" transform="translate(-207.75 -77.87)"/><path class="cls-1" d="M624.66 464.23c-2.46 0-6.62 1.35-6.85 3.56l-.81 7.83c-.23 2.21 3.55 4.42 6 4.9z" transform="translate(-207.75 -77.87)"/><path class="cls-6" d="M619.07 467.74v.1l-.83 8v.11c.18 1.06 2 2.12 2.55 2.42l1.12.61 1.41-13.52-1.22.36c-.62.18-2.63.88-3.03 1.92z" transform="translate(-207.75 -77.87)"/><path class="cls-5" d="M616.6 467.66l-.82 7.84c-.33 3.16 4.28 5.69 7 6.22l1.22.28 1.84-17.59.16-1.41h-1.38c-2.57 0-7.68 1.42-8.02 4.66zm5.29 11.34l-1.12-.61c-.55-.3-2.37-1.36-2.55-2.42v-.11l.83-8v-.1c.4-1 2.41-1.71 3-1.89l1.22-.36z" transform="translate(-207.75 -77.87)"/><path class="cls-1" d="M670.37 464.78c2.46 0 6.66 1.51 7 3.73l1 7.85c.29 2.22-3.43 4.33-5.84 4.75z" transform="translate(-207.75 -77.87)"/><path class="cls-6" d="M676.07 468.5c-.36-1.05-2.39-1.8-3-2l-1.29-.43 1.78 13.58 1.08-.57c.55-.28 2.33-1.28 2.5-2.35v-.12l-1.06-8z" transform="translate(-207.75 -77.87)"/><path class="cls-5" d="M679.56 476.2l-1-7.85c-.43-3.28-5.6-4.76-8.15-4.79H669l2.5 19 1.25-.22c2.66-.49 7.25-2.93 6.81-6.14zm-2.43.53c-.17 1.07-2 2.07-2.5 2.35l-1.08.57-1.78-13.58 1.29.43c.62.2 2.65.95 3 2v.08l1.06 8z" transform="translate(-207.75 -77.87)"/><path class="cls-4" d="M436.87 442.77l-2.92-5.05 2.92-5.06h5.83l2.92 5.06-2.92 5.05h-5.83z"/><path class="cls-6" d="M442 433.88h-4.43l-2.21 3.84 2.21 3.83H442l2.21-3.83-2.21-3.84z"/><path class="cls-5" d="M651.16 509.31h-7.25l-3.62 6.28 3.62 6.27h7.25l3.63-6.27zm-1.41 10.11h-4.42l-2.22-3.83 2.22-3.84h4.42l2.21 3.84z" transform="translate(-207.75 -77.87)"/><path class="cls-4" d="M434.99 451.98l1.88-9.2h5.83l1.88 9.2h-9.59z"/><path class="cls-5" d="M441.71 444l1.51 7.39 2.39-.49-1.91-9.34h-7.83l-1.91 9.34 2.4.49 1.51-7.39h3.84z"/><path class="cls-1" d="M428.08 440.37l11.67-7.71-10.75-6.21-.92 13.92z"/><path class="cls-6" d="M430.09 428.49l-.63 9.51 7.97-5.27-7.34-4.24z"/><path class="cls-5" d="M649.83 510.46l-14.16-8.18-1.22 18.34zm-12-4.1l7.34 4.24-8 5.26z" transform="translate(-207.75 -77.87)"/><path class="cls-1" d="M451.49 440.37l-11.67-7.71 10.75-6.21.92 13.92z"/><path class="cls-6" d="M442.14 432.73l7.97 5.27-.63-9.51-7.34 4.24z"/><path class="cls-5" d="M659.41 502.28l-14.16 8.18 15.37 10.16zm-9.52 8.32l7.34-4.24.63 9.5z" transform="translate(-207.75 -77.87)"/><path class="cls-6" d="M565 96.25a3.6 3.6 0 103.6 3.59 3.59 3.59 0 00-3.6-3.59z" transform="translate(-207.75 -77.87)"/><path class="cls-5" d="M571 99.84a6 6 0 10-6 6 6 6 0 006-6zm-6 3.6a3.6 3.6 0 113.6-3.6 3.6 3.6 0 01-3.6 3.6z" transform="translate(-207.75 -77.87)"/><path class="cls-5" d="M406.83 0h15.83v2.44h-15.83z"/><path class="cls-6" transform="rotate(-45 137.68 325.63)" d="M331.68 109.9h7.76v7.76h-7.76z"/><path class="cls-5" d="M335.56 104.84l-8.95 8.94 8.95 9 8.94-9zm-5.49 8.94l5.49-5.49 5.49 5.49-5.49 5.49z" transform="translate(-207.75 -77.87)"/><path class="cls-5" d="M141.06 34.69h29.42v2.44h-29.42z"/><circle class="cls-6" cx="10.56" cy="230.38" r="8.12"/><path class="cls-5" d="M218.31 297.69a10.56 10.56 0 1010.56 10.56 10.57 10.57 0 00-10.56-10.56zm0 18.67a8.12 8.12 0 118.12-8.11 8.12 8.12 0 01-8.12 8.11z" transform="translate(-207.75 -77.87)"/><path class="cls-5" d="M502.23 413.41h2.39v2.44h-2.39zm8.2 0h2.39v2.44h-2.39zm16.39 0h2.39v2.44h-2.39zm-8.19 0h2.39v2.44h-2.39zm-40.98 0h2.39v2.44h-2.39zm16.39 0h2.39v2.44h-2.39zm-8.2 0h2.39v2.44h-2.39zm72.38-42.57h2.44v2.39h-2.44zm0 16.39h2.44v2.39h-2.44zm0-8.2h2.44v2.39h-2.44z"/><path class="cls-5" d="M765.78 475.44l2.4.46a20.58 20.58 0 00.23-2.61H766a19.28 19.28 0 01-.22 2.15zM750.79 491l.32 2.43a20.46 20.46 0 002.57-.62l-.82-2.31a16.42 16.42 0 01-2.07.5z" transform="translate(-207.75 -77.87)"/><path class="cls-5" d="M535.02 413.41h2.39v2.44h-2.39z"/><path class="cls-5" d="M757.85 488.1l1.28 2.08a23.25 23.25 0 002.1-1.6l-1.68-1.78a19.58 19.58 0 01-1.7 1.3zm6.33-7.37a17.8 17.8 0 01-1 1.87l2 1.4a22.75 22.75 0 001.28-2.32z" transform="translate(-207.75 -77.87)"/><path class="cls-6" d="M767.19 428.35a8.12 8.12 0 108.12 8.12 8.13 8.13 0 00-8.12-8.12z" transform="translate(-207.75 -77.87)"/><path class="cls-5" d="M767.19 425.91a10.56 10.56 0 1010.56 10.56 10.58 10.58 0 00-10.56-10.56zm0 18.68a8.12 8.12 0 118.12-8.12 8.12 8.12 0 01-8.12 8.12z" transform="translate(-207.75 -77.87)"/><path class="cls-5" d="M387.36 195.52h2.44v5.51h-2.44z"/><path class="cls-5" transform="rotate(-45.01 388.593 492.038)" d="M585.19 277.5h2.44v5.51h-2.44z"/><path class="cls-5" d="M371.8 211.08h5.51v2.44h-5.51z"/><path class="cls-5" transform="rotate(-45.01 388.507 511.869)" d="M583.66 298.87h5.51v2.44h-5.51z"/><path class="cls-5" d="M387.36 223.58h2.44v5.51h-2.44z"/><path class="cls-5" transform="rotate(-44.99 408.411 512.007)" d="M605.04 297.34h2.44v5.51h-2.44z"/><path class="cls-5" d="M399.86 211.08h5.51v2.44h-5.51z"/><path class="cls-5" transform="rotate(-44.99 408.3 492.158)" d="M603.51 279.03h5.51v2.44h-5.51z"/><path class="cls-5" d="M736 192.55h2.44v-2.42H736z" transform="translate(-207.75 -77.87)"/><path class="cls-5" d="M460.1 112.24h2.55v2.44h-2.55zm8.52 0h2.55v2.44h-2.55zm8.53 0h2.55v2.44h-2.55zm8.52 0h2.55v2.44h-2.55zm34.08 0h2.55v2.44h-2.55zm-25.56 0h2.55v2.44h-2.55zm17.04 0h2.55v2.44h-2.55zm-8.52 0h2.55v2.44h-2.55z"/><path class="cls-6" transform="rotate(-45 521.482 581.565)" d="M715.48 365.84h7.76v7.76h-7.76z"/><path class="cls-5" d="M719.36 378.67l8.94-8.94-8.94-9-9 9zm5.48-8.94l-5.48 5.48-5.49-5.48 5.49-5.49z" transform="translate(-207.75 -77.87)"/><path class="cls-5" d="M468.93 293.08h29.42v-2.45h-29.42"/></g><g id="Layer_5" data-name="Layer 5"><path class="cls-10" d="M503.89 141a87.19 87.19 0 00-87.22 87.19c0 48.2 87.22 122.55 87.22 122.55s87.21-74.35 87.21-122.55A87.18 87.18 0 00503.89 141z" transform="translate(-207.75 -77.87)"/><path class="cls-6" d="M587.05 228.23a83.16 83.16 0 00-166.32 0c0 15.88 10.46 37 31.1 62.93 20.4 25.58 43.69 46.83 50.34 52.74l1.7 1.52 1.71-1.53a502 502 0 0039-39.11c27.77-31.4 42.47-57.87 42.47-76.55z" transform="translate(-207.75 -77.87)"/><path class="cls-6" d="M502.73 343.26c-6.63-5.89-29.87-27.1-50.23-52.63-20.52-25.73-30.92-46.72-30.92-62.4a82.31 82.31 0 01164.61 0c0 18.46-14.61 44.74-42.27 76A500.78 500.78 0 01505 343.26l-1.14 1z" transform="translate(-207.75 -77.87)"/><path class="cls-6" d="M587.9 228.23a84 84 0 00-168 0c0 16.08 10.52 37.43 31.28 63.46 20.45 25.64 43.78 46.93 50.44 52.85l2.28 2 2.27-2a500.79 500.79 0 0039.05-39.19c27.91-31.57 42.68-58.23 42.68-77.12z" transform="translate(-207.75 -77.87)"/><path class="cls-6" d="M588.75 228.23a84.87 84.87 0 00-169.73 0c0 16.27 10.59 37.81 31.48 64 20.48 25.69 43.86 47 50.53 53l2.85 2.52 2.84-2.54a502 502 0 0039.12-39.25c28.07-31.77 42.91-58.63 42.91-77.73z" transform="translate(-207.75 -77.87)"/><path class="cls-6" d="M589.61 228.23a85.72 85.72 0 00-171.44 0c0 16.47 10.65 38.18 31.66 64.52 20.53 25.74 43.95 47.13 50.64 53.06l3.41 3 3.41-3.05a504.32 504.32 0 0039.19-39.33c28.21-31.83 43.13-58.89 43.13-78.2z" transform="translate(-207.75 -77.87)"/><path class="cls-5" d="M550.46 306.49c27.57-31.65 42.14-58.71 42.14-78.26a88.71 88.71 0 00-177.42 0c0 19.55 14.57 46.61 42.14 78.26a476.5 476.5 0 0045.6 45.43l1 .82 1-.82a487.66 487.66 0 0045.54-45.43zm-43.17 39.31l-3.41 3.05-3.41-3c-6.69-5.93-30.11-27.32-50.64-53.06-21-26.34-31.66-48.05-31.66-64.52a85.72 85.72 0 01171.44 0c0 19.31-14.92 46.37-43.13 78.24a504.32 504.32 0 01-39.19 39.29z" transform="translate(-207.75 -77.87)"/><path class="cls-1" d="M503.9 292.28a64 64 0 1164-64 64.05 64.05 0 01-64 64z" transform="translate(-207.75 -77.87)"/></g><g id="Layer_6" data-name="Layer 6"><path class="cls-6" d="M492.66 168.8a60.87 60.87 0 00-39 26 61.34 61.34 0 00101.19 69.34l1.62 1.08L558 263l-1.62-1.15a61.35 61.35 0 00-63.69-93.09z" transform="translate(-207.75 -77.87)"/><path class="cls-5" d="M540.85 174.81a65.2 65.2 0 1017.93 90.4l.06-.09a65.12 65.12 0 00-18-90.31zm15.5 87.08L558 263l-1.53 2.22-1.62-1.08a61.34 61.34 0 01-101.19-69.34 61.34 61.34 0 01102.72 67z" transform="translate(-207.75 -77.87)"/><path d="M338.54 178.86a50 50 0 117.48-37.51 49.78 49.78 0 01-7.48 37.51z" stroke-width="4.03" stroke="#1b2c38" stroke-miterlimit="10" fill="none"/><path class="cls-7" d="M496.94 194.73L496 190a39.64 39.64 0 00-24.54 16.78l-.05.08a39.65 39.65 0 00-6.12 29.06L470 235a34.83 34.83 0 015.4-25.44l.05-.07a34.73 34.73 0 0121.49-14.76z" transform="translate(-207.75 -77.87)"/><path class="cls-7" transform="rotate(-56.2 425.38 449.952)" d="M585.48 257.83h33.49v73.02h-33.49z"/><path class="cls-1" d="M627.15 303.88l-33.61-22.51z" transform="translate(-207.75 -77.87)"/><path class="cls-1" transform="rotate(-56.2 433.495 448.232)" d="M607.08 272.39h6.54v40.46h-6.54z"/><path class="cls-6" transform="rotate(-56.18 400.349 433.239)" d="M566.14 273.15h22v8.81h-22z"/><path class="cls-5" d="M575.74 294.48l16.52-24.68-13.71-9.18L562 285.29zm-8.38-10.24L579.6 266l7.32 4.9-12.24 18.28z" transform="translate(-207.75 -77.87)"/><path class="cls-6" d="M635.27 314.07l-7.27 10.8 2.88 1.93.6-.18a16.36 16.36 0 0011.71-17.48l-.07-.62-2.88-1.93z" transform="translate(-207.75 -77.87)"/><path class="cls-5" d="M632.07 311.93l-9.37 14 7.41 5 .79-.16A20.2 20.2 0 00646.79 307l-.15-.78-7.43-5zm11.16-2.79a16.36 16.36 0 01-11.71 17.48l-.6.18-2.92-1.93 7.23-10.8 5-7.48 2.88 1.93z" transform="translate(-207.75 -77.87)"/><path class="cls-5" transform="rotate(-56.2 387.304 432.51)" d="M562.22 272.83h3.85v8.14h-3.85z"/><path class="cls-5" transform="rotate(-56.2 390.323 418.381)" d="M565.16 257.11h3.85v11.32h-3.85z"/></g><g id="Layer_3" data-name="Layer 3"><path class="cls-10" d="M377.64 73.78l-6.58-19.75 37.3-37.32 6.59 19.77-37.31 37.3z"/><path class="cls-10" d="M377.64 73.78l19.76 6.59 37.3-37.31-19.75-6.58-37.31 37.3z"/><path class="cls-6" d="M412.8 35.97l-5.26-15.77-34.33 34.34 5.25 15.76 34.34-34.33z"/><path class="cls-5" d="M624.85 114.85l-7.91-23.75-40.28 40.29 7.91 23.74zm-9.56-16.78l5.26 15.77-34.33 34.33-5.22-15.76z" transform="translate(-207.75 -77.87)"/><path class="cls-5" d="M577.63 131.62l38.93-38.94 7.32 21.94L585 153.55zm2.35.55l5.86 17.58 35.69-35.68-5.86-17.58z" transform="translate(-207.75 -77.87)"/><path class="cls-6" d="M415.46 38.63l-34.34 34.33 15.77 5.26 34.33-34.34-15.76-5.25z"/><path class="cls-5" d="M622.19 112.19l-40.28 40.28 23.75 7.92 40.28-40.29zm-17.55 43.89l-15.76-5.25 34.33-34.33 15.79 5.25z" transform="translate(-207.75 -77.87)"/><path class="cls-5" d="M583.49 152.1l38.94-38.93 21.93 7.31-38.93 38.93zm3.81-.9l17.57 5.86 35.68-35.68-17.55-5.86z" transform="translate(-207.75 -77.87)"/><path class="cls-5" d="M628.35 107a1.86 1.86 0 00-1.33.55L500.67 233.92a1.88 1.88 0 002.66 2.66l126.35-126.35a1.88 1.88 0 00-1.33-3.21z" transform="translate(-207.75 -77.87)"/><path class="cls-5" d="M502 236.28a1 1 0 01-1-1 1 1 0 01.3-.73l126.33-126.38a1 1 0 01.72-.3 1 1 0 011 1 1 1 0 01-.3.72L502.73 236a1 1 0 01-.73.28z" transform="translate(-207.75 -77.87)"/><path class="cls-5" d="M502 235.42a.15.15 0 01-.12 0 .17.17 0 010-.24l126.35-126.4a.14.14 0 01.12-.06.17.17 0 01.12 0 .18.18 0 01.06.13.17.17 0 010 .12l-126.4 126.4a.17.17 0 01-.13.05z" transform="translate(-207.75 -77.87)"/><path class="cls-5" d="M502 235.42a.15.15 0 01-.12 0 .17.17 0 010-.24l126.35-126.4a.14.14 0 01.12-.06.17.17 0 01.12 0 .18.18 0 01.06.13.17.17 0 010 .12l-126.4 126.4a.17.17 0 01-.13.05z" transform="translate(-207.75 -77.87)"/></g></svg>