<svg xmlns="http://www.w3.org/2000/svg" viewBox="0 0 670 562.34"><defs><style>.cls-1{fill:#ffcb05}.cls-2{fill:#1b2c38}.cls-3{fill:#27c7cd}.cls-4{fill:#fff}.cls-5{fill:none}</style></defs><g id="Layer_4" data-name="Layer 4"><path class="cls-1" d="M693.63 385.53h-25.37V168.39a38.81 38.81 0 10-77.62 0v95.76h-25.37v-95.76a64.18 64.18 0 11128.36 0z" transform="translate(-213.99 -103.25)"/><path class="cls-1" d="M702.39 425.18a34 34 0 01-33.95-33.94v-9.19h25.38v9.19a8.56 8.56 0 1017.12 0v-50.12h25.37v50.12a34 34 0 01-33.92 33.94z" transform="translate(-213.99 -103.25)"/><path class="cls-2" d="M464.42 277.2h5.08v5.08h-5.08z"/><path class="cls-2" d="M465.69 278.47h2.54v2.54h-2.54z"/><path class="cls-2" d="M586.58 137.63a52.78 52.78 0 00-4.18 6.86l2.29 1.09a50.68 50.68 0 013.91-6.42zM622 118.67l-.31-2.51a52.19 52.19 0 00-7.83 1.77l.81 2.41a49.84 49.84 0 017.33-1.67zM595.46 128l1.68 1.9a50.84 50.84 0 016.1-4.41l-1.24-2.16a51 51 0 00-6.54 4.67zm39.13-9.62a51.56 51.56 0 017.41 1.32l.69-2.44a52.94 52.94 0 00-7.9-1.41zm20.25 3.71l-1.17 2.25a49.42 49.42 0 016.3 4.12l1.59-2a51.43 51.43 0 00-6.72-4.37z" transform="translate(-213.99 -103.25)"/><path class="cls-2" d="M362.7 136.34h2.54v7.78h-2.54z"/><path class="cls-2" d="M675.35 142.33a53.11 53.11 0 00-4.48-6.66l-2 1.62a52 52 0 014.2 6.24zm-98.54 22.41l2.54.11a50.15 50.15 0 011.08-7.44l-2.46-.62a53.08 53.08 0 00-1.16 7.95z" transform="translate(-213.99 -103.25)"/><path class="cls-2" d="M362.7 74.4h2.54v7.79h-2.54zm0 20.64h2.54v7.79h-2.54zm102.99 80.2h2.54v7.79h-2.54zm0 20.65h2.54v7.79h-2.54zm0 61.93h2.54v7.79h-2.54zm0-41.28h2.54v7.78h-2.54zm0 20.64h2.54v7.78h-2.54z"/><path class="cls-2" d="M681.87 162.31a53.88 53.88 0 00-1.52-7.89l-2.43.73a50 50 0 011.42 7.39z" transform="translate(-213.99 -103.25)"/><path class="cls-2" d="M465.69 113.31h2.54v7.79h-2.54zm0-41.29h2.54v7.79h-2.54zm0 82.58h2.54v7.78h-2.54zm0-61.94h2.54v7.79h-2.54zm0 41.29h2.54v7.79h-2.54zm-104.26 21.87h5.08v5.08h-5.08z"/><path class="cls-2" d="M362.7 157.09h2.54v2.54h-2.54zM145.12 39.34h22.05v2.54h-22.05zm-12.88 0h5.66v2.54h-5.66zm-15.67 13.32h22.05v2.54h-22.05zm-12.88 0h5.66v2.54h-5.66z"/><path class="cls-2" d="M626.62 606.66l1 2.36a15.35 15.35 0 002.75-1.84l-1.81-1.8a12.73 12.73 0 01-1.94 1.28zm-19.12-4a14.43 14.43 0 001.84 2.74l1.8-1.8a12.39 12.39 0 01-1.29-1.92zm1.36-10.39l-2.36-1a14.77 14.77 0 00-.63 3.23h2.55a11.34 11.34 0 01.44-2.23zM622 580.92v2.55a13.05 13.05 0 012.24.44l1-2.36a15.14 15.14 0 00-3.24-.63zm-7.19 3.99l-1-2.35a14.92 14.92 0 00-2.74 1.84l1.81 1.8a11.85 11.85 0 011.93-1.29zm19.13 3.96a14.81 14.81 0 00-1.85-2.74l-1.8 1.81a11.78 11.78 0 011.3 1.92zm-16.74 18.77l-1 2.36a15.37 15.37 0 003.24.64v-2.55a12.39 12.39 0 01-2.24-.45zm15.38-8.32l2.36 1a15 15 0 00.64-3.28L633 597a12.77 12.77 0 01-.42 2.32z" transform="translate(-213.99 -103.25)"/><path class="cls-2" d="M259.36 168.82h2.54v6.29h-2.54z"/><path class="cls-2" transform="rotate(-45.01 230.864 486.853)" d="M461.22 277.09h2.54v6.29h-2.54z"/><path class="cls-2" d="M240.33 187.85h6.29v2.54h-6.29z"/><path class="cls-2" transform="rotate(-45 230.856 511.176)" d="M459.34 303.23h6.29v2.54h-6.29z"/><path class="cls-2" d="M259.36 203.14h2.54v6.29h-2.54z"/><path class="cls-2" transform="rotate(-44.99 255.059 511.247)" d="M485.48 301.36h2.54v6.29h-2.54z"/><path class="cls-2" d="M274.65 187.85h6.29v2.54h-6.29z"/><path class="cls-2" transform="rotate(-45.01 255.157 486.85)" d="M483.61 278.97h6.29v2.54h-6.29z"/><path class="cls-2" d="M452.84 567.22l-1.35 2.14c.76.47 1.53.93 2.3 1.36l1.21-2.22c-.72-.42-1.44-.85-2.16-1.28zM437 554.72l-1.82 1.76c.63.63 1.27 1.26 1.92 1.87l1.71-1.87a33.76 33.76 0 01-1.81-1.76zm7.54 6.72l-1.6 2c.69.54 1.4 1.09 2.12 1.62l1.48-2.06c-.67-.53-1.34-1-2-1.56zM425.79 541c-.46-.7-.91-1.41-1.36-2.13l-2.18 1.29c.47.76.95 1.52 1.44 2.27zm6.04 8.11c-.54-.64-1.07-1.3-1.6-2l-2 1.55c.55.69 1.11 1.39 1.69 2.07zm48.64 31.53c.87.17 1.76.33 2.64.47l.37-2.51c-.82-.13-1.65-.28-2.49-.44zM461.76 572l-1.09 2.29c.81.37 1.62.73 2.44 1.08l1-2.35zm8.62 6c.85.28 1.7.54 2.56.78l.67-2.44-2.42-.74z" transform="translate(-213.99 -103.25)"/><path class="cls-2" d="M195.3 376.91h2.54v2.6h-2.54zm0 10.28h2.54v2.6h-2.54z"/><path class="cls-2" d="M490.8 582c.89.07 1.79.12 2.67.16l.08-2.54-2.53-.15zm-78.5-78.85c-.09-.83-.17-1.67-.23-2.51l-2.54.15c.07.89.15 1.78.25 2.66z" transform="translate(-213.99 -103.25)"/><path class="cls-2" d="M369.01 366.73h2.54v2.6h-2.54z"/><path class="cls-2" d="M420.75 532.19c-.38-.75-.74-1.52-1.1-2.28l-2.32 1c.37.81.76 1.61 1.16 2.42z" transform="translate(-213.99 -103.25)"/><path class="cls-2" d="M195.3 366.62h2.54v2.6h-2.54z"/><path class="cls-2" d="M414 513.14c-.19-.83-.36-1.65-.53-2.47l-2.49.45c.17.87.35 1.74.55 2.62zm2.78 9.73c-.29-.8-.56-1.6-.82-2.41l-2.42.75c.27.85.56 1.7.86 2.54zm164.06-9.63l2.47.6c.19-.87.38-1.74.55-2.62l-2.49-.46c-.17.83-.37 1.66-.53 2.48zm-2.02 7.32c-.26.8-.54 1.6-.82 2.39l2.37.89c.31-.84.6-1.69.87-2.53zm-3.7 9.44c-.35.76-.72 1.52-1.09 2.27l2.25 1.17c.4-.8.79-1.6 1.16-2.41zm-71.23 52l-.22-2.52c-.83.06-1.68.11-2.52.14l.07 2.54c.9-.02 1.78-.07 2.67-.16z" transform="translate(-213.99 -103.25)"/><path class="cls-2" d="M369.01 377.01h2.54v2.6h-2.54zm0 10.28h2.54v2.6h-2.54z"/><path class="cls-2" d="M582.51 503.25l2.52.31c.09-.89.18-1.78.24-2.67l-2.53-.15c-.06.84-.14 1.68-.23 2.51zm-12.17 35.63c-.44.71-.89 1.43-1.36 2.13l2.1 1.42q.74-1.11 1.44-2.25zM530.64 573l1 2.35c.83-.35 1.65-.71 2.46-1.09L533 572c-.81.34-1.58.68-2.36 1zm-9.55 3.39l.67 2.45c.86-.25 1.71-.51 2.56-.78l-.81-2.41c-.8.26-1.61.51-2.42.74zm-6.87 4.26l-.52-2.48-2.48.44.37 2.51c.87-.12 1.75-.3 2.63-.47zM548.21 563l1.48 2.07c.72-.54 1.43-1.08 2.13-1.63l-1.6-2q-.99.78-2.01 1.56zm7.79-6.52l1.71 1.88c.66-.62 1.3-1.24 1.93-1.87l-1.82-1.77-1.82 1.76zm8.54-9.31c-.53.66-1.06 1.31-1.6 2l1.92 1.66c.57-.68 1.14-1.38 1.69-2.08zm-24.81 21.34l1.22 2.22c.78-.44 1.55-.9 2.31-1.36l-1.35-2.15z" transform="translate(-213.99 -103.25)"/><path class="cls-2" d="M602.63 493.08a105.42 105.42 0 01-104 105.29v2.53a108 108 0 00106.54-107.82V453.7h-2.54zm-225.12-223.7a34.19 34.19 0 00-34.14 34.18V331h2.54v-27.44a31.61 31.61 0 1163.22 0V461h2.54V303.56a34.21 34.21 0 00-34.16-34.18zm205.61 91.37V461h2.54V360.75a23.23 23.23 0 0123.21-23.21h40.83V335h-40.83a25.78 25.78 0 00-25.75 25.75z" transform="translate(-213.99 -103.25)"/><path class="cls-3" d="M201.55 108.98h85.01v29.18h-85.01z"/><path class="cls-2" d="M223.76 122.3h40.6v2.54h-40.6zm-7.51-37.89h38.68v2.54h-38.68zm0 9.44h38.68v2.54h-38.68z"/><path class="cls-3" d="M200.82 83.18h9.14v9.15h-9.14z"/><path class="cls-1" d="M262.56 82.99h24.95v14.8h-24.95z"/><path class="cls-2" d="M269.98 89.13h10.12v2.54h-10.12z"/><path class="cls-2" d="M546.7 350.94H524a9.71 9.71 0 00-1.38.11h-7.4l2.45-8.63v-11.6a11.45 11.45 0 00-11.43-11.43h-3.85l-1.22.05v16.36l-3.66 5.2-14.69 16a19.17 19.17 0 00-4.17 6.82l-.3.84h-3.74v2.54h5.73l.23-1a16.72 16.72 0 014.1-7.5l14.71-16.07 4.33-6.06v-14.7h2.53a8.9 8.9 0 018.89 8.89v11.25l-3.26 11.52h10.97a7.18 7.18 0 011.16-.1h22.7a6.84 6.84 0 110 13.68h-3.06v2.65a6.84 6.84 0 01-1.27 13.56h-.89V386a6.84 6.84 0 01-1.27 13.56H535v2.65a6.84 6.84 0 01-1.26 13.56h-37a16.49 16.49 0 01-13.3-6.69l-.38-.51h-8.4v2.54h7.13l.38.45a19.08 19.08 0 0014.57 6.75h36.99a9.37 9.37 0 007.83-14.52l-1-1.53 1.77-.41a9.45 9.45 0 007.26-9.13 9.35 9.35 0 00-2.48-6.35l-1-1.12 1.28-.81a9.37 9.37 0 002.49-13.59l-1-1.3 1.49-.63a9.38 9.38 0 00-3.66-18z" transform="translate(-213.99 -103.25)"/><path class="cls-3" d="M221.73 259.4h33.85v63.78h-33.85z"/><path class="cls-4" d="M244.01 312.15h4.19v3.81h-4.19z"/><path class="cls-1" d="M435.22 191.19h195.16V336.6H435.22z"/><path class="cls-5" d="M412.44 216.5h192.62v142.88H412.44z"/><path class="cls-2" d="M623.89 465.17h197.69V317.22H623.89zm2.53-145.42h192.63v142.88H626.42z" transform="translate(-213.99 -103.25)"/><path class="cls-4" d="M428.19 227.19v65.17l29.8-39.67 29.25 38.96 18.93-25.2 24.09 32.08 5.29 7.05h53.75v-78.39H428.19z"/><path class="cls-1" d="M779.18 360.29a13.78 13.78 0 11-13.78-13.78 13.77 13.77 0 0113.78 13.78z" transform="translate(-213.99 -103.25)"/><path class="cls-2" d="M166.63 272.75h7.11v47.26H86.43v-47.26h6.64v-2.54H83.9v52.34h92.38v-52.34h-9.65v2.54z"/><path class="cls-2" transform="rotate(-42.43 72.932 636.828)" d="M296.02 411.57h33.82v2.54h-33.82z"/><path class="cls-2" transform="rotate(-47.57 151.104 603.976)" d="M373.94 395.93h2.54v33.82h-2.54z"/><path class="cls-1" d="M389 374.73h-89.93v3.09l11.2 9.56 7.89 6.73 3.35 2.86L332 406l8.64 7.36a5.34 5.34 0 006.71 0L356 406l10.5-8.95 3.35-2.86 7.89-6.73 11.2-9.56z" transform="translate(-213.99 -103.25)"/><path class="cls-5" d="M341.49 412.35a3.92 3.92 0 002.53.85 4 4 0 002.54-.85L389.17 376h-90.3z" transform="translate(-213.99 -103.25)"/><path class="cls-2" d="M389 373.46h-89.93a1.27 1.27 0 00-1.27 1.27v3a1.22 1.22 0 000 .46 1.42 1.42 0 00.54.74l41.46 35.36a6.64 6.64 0 008.36 0l41.49-35.38a1.24 1.24 0 00.39-.43 1.37 1.37 0 00.17-.82v-2.92a1.27 1.27 0 00-1.21-1.28zm-42.42 38.89a4 4 0 01-2.54.85 3.92 3.92 0 01-2.53-.85L298.87 376h90.3z" transform="translate(-213.99 -103.25)"/><path class="cls-2" d="M128.77 240.84h2.54v5.68h-2.54z"/><path class="cls-2" transform="rotate(-15.01 -168.675 1109.184)" d="M329.04 345.9h2.54v5.69h-2.54z"/><path class="cls-2" transform="matrix(.87 -.5 .5 .87 -348.47 102.96)" d="M316.26 351.19h2.54v5.68h-2.54z"/><path class="cls-2" transform="rotate(-59.98 121.095 579.57)" d="M314.69 444.53h5.69v2.54h-5.69z"/><path class="cls-2" transform="rotate(-74.98 156.047 538.96)" d="M327.46 449.82h5.68v2.54h-5.68z"/><path class="cls-2" d="M128.76 346.8h2.54v5.68h-2.54z"/><path class="cls-2" transform="rotate(-14.99 -141.649 1212.717)" d="M356.46 448.25H359v5.68h-2.54z"/><path class="cls-2" transform="rotate(-29.99 70.721 793.577)" d="M369.24 442.96h2.54v5.68h-2.54z"/><path class="cls-2" transform="rotate(-60.01 174.153 487.7)" d="M367.67 352.77h5.68v2.54h-5.68z"/><path class="cls-2" transform="rotate(-75 182.807 434.734)" d="M354.9 347.47h5.68v2.54h-5.68z"/><path class="cls-5" d="M626 216.71h-93.88a5.08 5.08 0 00-4.84 5.29v74.42a5.08 5.08 0 004.84 5.29h13.12v23.13l27.32-23.13H626a5.09 5.09 0 004.86-5.29V222a5.09 5.09 0 00-4.86-5.29z" transform="translate(-213.99 -103.25)"/><path class="cls-2" d="M626 214.17h-93.88a7.62 7.62 0 00-7.38 7.83v74.42a7.62 7.62 0 007.38 7.83h10.59v26.07l30.78-26.07H626a7.63 7.63 0 007.4-7.83V222a7.63 7.63 0 00-7.4-7.83zm4.86 82.25a5.09 5.09 0 01-4.86 5.29h-53.44l-27.32 23.13v-23.13h-13.12a5.08 5.08 0 01-4.84-5.29V222a5.08 5.08 0 014.84-5.29H626a5.09 5.09 0 014.86 5.29z" transform="translate(-213.99 -103.25)"/><path class="cls-3" d="M339.32 190.4h-17.97v-68.89h87.49v68.89h-53.22l-16.3 13.81V190.4z"/><path class="cls-5" d="M590.57 255.07a1.37 1.37 0 00-1.36-1.37h-37.52a1.38 1.38 0 00-1.37 1.37v24a1.37 1.37 0 001.37 1.37h37.52a1.35 1.35 0 001.36-1.37v-6.77l14.18 7v-24.55l-14.18 7.05z" transform="translate(-213.99 -103.25)"/><path class="cls-2" d="M593.11 255.07a3.91 3.91 0 00-3.9-3.9h-37.52a3.91 3.91 0 00-3.9 3.9v24a3.91 3.91 0 003.9 3.91h37.52a3.91 3.91 0 003.9-3.91v-2.67l14.17 7v-32.74l-14.17 7zm11.64-.32v24.59l-14.18-7V279a1.35 1.35 0 01-1.36 1.37h-37.52a1.37 1.37 0 01-1.37-1.37v-24a1.38 1.38 0 011.37-1.37h37.52a1.37 1.37 0 011.36 1.37v6.73z" transform="translate(-213.99 -103.25)"/><path class="cls-5" d="M559.33 234.7a7.73 7.73 0 107.73 7.73 7.74 7.74 0 00-7.73-7.73z" transform="translate(-213.99 -103.25)"/><path class="cls-2" d="M569.6 242.43a10.27 10.27 0 10-10.27 10.27 10.29 10.29 0 0010.27-10.27zm-10.27 7.73a7.73 7.73 0 117.73-7.73 7.74 7.74 0 01-7.73 7.73z" transform="translate(-213.99 -103.25)"/><path class="cls-5" d="M578.65 234.7a7.73 7.73 0 107.72 7.73 7.74 7.74 0 00-7.72-7.73z" transform="translate(-213.99 -103.25)"/><path class="cls-2" d="M578.65 232.16a10.27 10.27 0 1010.26 10.27 10.29 10.29 0 00-10.26-10.27zm0 18a7.73 7.73 0 117.72-7.73 7.74 7.74 0 01-7.72 7.73z" transform="translate(-213.99 -103.25)"/><path class="cls-5" d="M443.89 105.79a30.67 30.67 0 1030.67 30.66 30.7 30.7 0 00-30.67-30.66z" transform="translate(-213.99 -103.25)"/><path class="cls-2" d="M443.89 103.25a33.21 33.21 0 1033.21 33.2 33.25 33.25 0 00-33.21-33.2zm0 63.87a30.67 30.67 0 1130.67-30.67 30.7 30.7 0 01-30.67 30.67z" transform="translate(-213.99 -103.25)"/><path class="cls-1" d="M466.61 136.45a22.72 22.72 0 11-22.72-22.71 22.72 22.72 0 0122.72 22.71z" transform="translate(-213.99 -103.25)"/><path class="cls-4" d="M451.87 133.79a8 8 0 11-8-8 8 8 0 018 8z" transform="translate(-213.99 -103.25)"/><path class="cls-5" d="M443.89 127.08a6.71 6.71 0 106.71 6.71 6.72 6.72 0 00-6.71-6.71z" transform="translate(-213.99 -103.25)"/><path class="cls-2" d="M443.89 124.54a9.25 9.25 0 109.25 9.25 9.25 9.25 0 00-9.25-9.25zm0 16a6.71 6.71 0 116.71-6.71 6.72 6.72 0 01-6.71 6.67z" transform="translate(-213.99 -103.25)"/><path class="cls-4" d="M449.88 142.66h-12a8 8 0 00-8 8v.65a20.32 20.32 0 0027.93 0v-.65a8 8 0 00-7.93-8z" transform="translate(-213.99 -103.25)"/><path class="cls-5" d="M449.88 143.93h-12a6.76 6.76 0 00-6.69 6.13l-.06.66.51.42a19 19 0 0024.44 0l.51-.42-.05-.66a6.76 6.76 0 00-6.66-6.13z" transform="translate(-213.99 -103.25)"/><path class="cls-2" d="M449.88 141.39h-12a9.26 9.26 0 00-9.25 9.25v1.2l.4.37a21.57 21.57 0 0029.67 0l.4-.37v-1.2a9.26 9.26 0 00-9.22-9.25zm6.74 9.33l-.51.42a19 19 0 01-24.44 0l-.51-.42.06-.66a6.76 6.76 0 016.69-6.13h12a6.76 6.76 0 016.69 6.13z" transform="translate(-213.99 -103.25)"/><path class="cls-2" d="M293.62 8.96h2.54v13.53h-2.54z"/><path class="cls-2" d="M288.12 14.46h13.53V17h-13.53zm-120.53 87.96h2.54v16.07h-2.54z"/><path class="cls-2" d="M160.83 109.19h16.07v2.54h-16.07zm249.72 269.88h144.64v2.54H410.55zm0 15.22h144.64v2.54H410.55zm0 15.23h125.09v2.54H410.55z"/><path class="cls-1" d="M392.17 309.09l1.14-1.14a10.54 10.54 0 000-14.9l-.16-.15a10.53 10.53 0 00-14.9 0l-1.13 1.1-1.12-1.1a10.54 10.54 0 00-14.91 0l-.15.15a10.53 10.53 0 000 14.9l1.13 1.14 15.06 15.05z" transform="translate(-213.99 -103.25)"/><path class="cls-5" d="M516.85 491.88a30.93 30.93 0 00-22-9.12 31.19 31.19 0 00-1.25 62.35v1.29h2.53v-1.32a31.2 31.2 0 0020.73-53.23z" transform="translate(-213.99 -103.25)"/><path class="cls-2" d="M528.53 513.94a33.73 33.73 0 10-33.71 33.73h.06a33.68 33.68 0 0033.65-33.73zm-32.41 31.17v1.32h-2.53v-1.29a31.19 31.19 0 011.25-62.35 31.19 31.19 0 011.31 62.35z" transform="translate(-213.99 -103.25)"/><path class="cls-3" d="M512.53 531.59a25 25 0 117.3-17.64 24.85 24.85 0 01-7.3 17.64z" transform="translate(-213.99 -103.25)"/><path class="cls-4" d="M478.13 514h-5.07a21.27 21.27 0 0121.25-21.27v5.07a16.22 16.22 0 00-16.18 16.2z" transform="translate(-213.99 -103.25)"/><path class="cls-2" d="M556.89 508.15l2.07-1.48c-16.87-23.14-39-36.05-62.55-36.5v2.54c22.71.45 44.11 12.98 60.48 35.44z" transform="translate(-213.99 -103.25)"/><path class="cls-5" d="M495.14 481.58c-20.48 0-40 11.22-55.1 31.6l-.56.75.56.76c15.06 20.37 34.62 31.6 55.1 31.6s40-11.23 55.1-31.6l.55-.76-.55-.75c-15.06-20.38-34.63-31.6-55.1-31.6z" transform="translate(-213.99 -103.25)"/><path class="cls-2" d="M495.14 479c-21.86 0-42.55 12.13-58.25 34.16l-.52.73.52.74c15.7 22 36.39 34.15 58.25 34.15s42.55-12.13 58.25-34.15l.52-.74-.52-.73C537.69 491.17 517 479 495.14 479zm55.1 35.65c-15.06 20.37-34.63 31.6-55.1 31.6s-40-11.23-55.1-31.6l-.56-.76.56-.75c15.06-20.38 34.62-31.6 55.1-31.6s40 11.22 55.1 31.6l.55.75z" transform="translate(-213.99 -103.25)"/><path class="cls-5" d="M487.94 554.94l24.26-23.34h80.08v-77.92H467.7v77.92h20.24v23.34z"/><path class="cls-2" d="M678.54 638h20.24v27.59L727.45 638h82v-84.21H678.54zm3.15-81.07h124.58v77.92h-80.09l-24.26 23.34v-23.34h-20.23z" transform="translate(-213.99 -103.25)"/><path class="cls-2" d="M492.66 475.33h74.68v3.15h-74.68zm0 14.93h74.68v3.15h-74.68zm0 14.94h74.68v3.15h-74.68z"/><path class="cls-2" d="M875.15 497.84a6.39 6.39 0 016.26 5.12H884a8.93 8.93 0 00-17.77 1.27v32.94h2.54v-32.94a6.4 6.4 0 016.38-6.39z" transform="translate(-213.99 -103.25)"/><path class="cls-2" d="M645.99 409.41h17.36v2.54h-17.36zm-389.8 115.85h38.68v2.54h-38.68zm0 9.43h38.68v2.54h-38.68z"/><path class="cls-3" d="M240.75 524.02h9.14v9.15h-9.14z"/><path class="cls-1" d="M302.5 523.84h24.95v14.8H302.5z"/><path class="cls-2" d="M309.91 529.97h10.12v2.54h-10.12z"/><path class="cls-2" d="M263 483.66l1.49 3.58a22.87 22.87 0 004.17-2.8l-2.66-2.73a19.54 19.54 0 01-3 1.95zm-29-6.08a22 22 0 002.8 4.17l2.73-2.74a19.6 19.6 0 01-2-2.92zm2.05-15.79l-3.59-1.48a22.7 22.7 0 00-1 4.91h3.87a18.72 18.72 0 01.72-3.43zM256 444.54v3.87a18.77 18.77 0 013.4.67l1.47-3.59a21.79 21.79 0 00-4.87-.95zm-10.9 6.05l-1.5-3.59a22.51 22.51 0 00-4.16 2.81l2.74 2.73a19.16 19.16 0 012.92-1.95zm29.07 6.03a22.92 22.92 0 00-2.81-4.17l-2.73 2.75a18.45 18.45 0 012 2.92zm-25.44 28.53l-1.48 3.58a22.22 22.22 0 004.92 1v-3.87a18.93 18.93 0 01-3.44-.71zm23.38-12.66l3.58 1.49a22.73 22.73 0 001-5h-3.88a17.66 17.66 0 01-.7 3.51z" transform="translate(-213.99 -103.25)"/><path class="cls-2" d="M28.75 284.35h2.54v16.07h-2.54z"/><path class="cls-2" d="M21.98 291.12h16.07v2.54H21.98z"/></g><g id="Layer_5" data-name="Layer 5"><path class="cls-5" d="M309.57 225.09A19.46 19.46 0 10329 244.55a19.48 19.48 0 00-19.43-19.46z" transform="translate(-213.99 -103.25)"/><path class="cls-2" d="M309.57 222.55a22 22 0 1022 22 22 22 0 00-22-22zm0 41.45A19.46 19.46 0 11329 244.55 19.48 19.48 0 01309.57 264z" transform="translate(-213.99 -103.25)"/><path class="cls-5" d="M309.57 234.82a9.73 9.73 0 109.72 9.73 9.73 9.73 0 00-9.72-9.73z" transform="translate(-213.99 -103.25)"/><path class="cls-2" d="M309.57 232.28a12.27 12.27 0 1012.26 12.27 12.28 12.28 0 00-12.26-12.27zm0 22a9.73 9.73 0 119.72-9.72 9.73 9.73 0 01-9.72 9.71z" transform="translate(-213.99 -103.25)"/><path class="cls-5" d="M236 186.6a19.46 19.46 0 1019.45 19.46A19.48 19.48 0 00236 186.6z" transform="translate(-213.99 -103.25)"/><path class="cls-2" d="M236 184.07a22 22 0 1022 22 22 22 0 00-22-22zm0 41.45a19.46 19.46 0 1119.45-19.46A19.48 19.48 0 01236 225.52z" transform="translate(-213.99 -103.25)"/><path class="cls-3" d="M225 206.06a11 11 0 1011-11 11 11 0 00-11 11z" transform="translate(-213.99 -103.25)"/><path class="cls-5" d="M236 263.58A19.46 19.46 0 10255.43 283 19.47 19.47 0 00236 263.58z" transform="translate(-213.99 -103.25)"/><path class="cls-2" d="M236 261a22 22 0 1022 22 22 22 0 00-22-22zm0 41.45A19.46 19.46 0 11255.43 283 19.48 19.48 0 01236 302.49z" transform="translate(-213.99 -103.25)"/><path class="cls-1" d="M225 283a11 11 0 1011-11 11 11 0 00-11 11z" transform="translate(-213.99 -103.25)"/><path class="cls-2" transform="rotate(-26.98 -48.016 660.762)" d="M253.77 265.14h40.88v2.54h-40.88z"/><path class="cls-2" transform="rotate(-63.03 83.361 345.77)" d="M273.29 202.6h2.54v40.59h-2.54z"/></g><g id="Layer_3" data-name="Layer 3"><path class="cls-1" d="M350.07 516.72a14.8 14.8 0 11-14.8-14.8 14.8 14.8 0 0114.8 14.8z" transform="translate(-213.99 -103.25)"/><path class="cls-5" d="M335.27 503.18a13.54 13.54 0 1013.54 13.54 13.55 13.55 0 00-13.54-13.54z" transform="translate(-213.99 -103.25)"/><path class="cls-2" d="M335.27 500.65a16.07 16.07 0 1016.07 16.07 16.09 16.09 0 00-16.07-16.07zm0 29.6a13.54 13.54 0 1113.54-13.53 13.55 13.55 0 01-13.54 13.53z" transform="translate(-213.99 -103.25)"/><path class="cls-4" d="M152 439.05h.5a6 6 0 016 6v10.93a6 6 0 01-6 6h-.5a6 6 0 01-6-6V445a6 6 0 016-5.95z"/><rect class="cls-5" x="147.36" y="440.32" width="9.87" height="20.3" rx="4.69"/><path class="cls-2" d="M366.53 541H366a7.24 7.24 0 00-7.22 7.23v10.92a7.23 7.23 0 007.22 7.23h.5a7.23 7.23 0 007.23-7.23v-10.89a7.24 7.24 0 00-7.2-7.26zm4.69 18.15a4.69 4.69 0 01-4.69 4.69H366a4.69 4.69 0 01-4.68-4.69v-10.89a4.69 4.69 0 014.68-4.69h.5a4.7 4.7 0 014.69 4.69z" transform="translate(-213.99 -103.25)"/><path class="cls-4" d="M292.19 630.5v-14.94c0-6.6 6.05-11.95 13.5-11.95H365c7.46 0 13.5 5.35 13.5 11.95v14.94z" transform="translate(-213.99 -103.25)"/><path class="cls-2" d="M365 602.34h-59.31c-8.14 0-14.77 5.93-14.77 13.22v13.68h2.54v-13.68c0-5.89 5.49-10.68 12.23-10.68H365c6.75 0 12.23 4.79 12.23 10.68v13.68h2.54v-13.68c-.04-7.29-6.66-13.22-14.77-13.22z" transform="translate(-213.99 -103.25)"/><path class="cls-4" d="M365.5 565.26a30.18 30.18 0 01-30.17 30.18 30.18 30.18 0 01-30.18-30.18v-24.14A30.18 30.18 0 01335.33 511a30.17 30.17 0 0130.17 30.17z" transform="translate(-213.99 -103.25)"/><path class="cls-5" d="M335.33 512.22a28.94 28.94 0 00-28.91 28.9v24.14a28.91 28.91 0 1057.81 0v-24.14a28.94 28.94 0 00-28.9-28.9z" transform="translate(-213.99 -103.25)"/><path class="cls-2" d="M335.33 509.69a31.47 31.47 0 00-31.44 31.43v24.14a31.44 31.44 0 1062.88 0v-24.14a31.47 31.47 0 00-31.44-31.43zm28.9 55.57a28.91 28.91 0 11-57.81 0v-24.14a28.91 28.91 0 0157.81 0z" transform="translate(-213.99 -103.25)"/><path class="cls-4" d="M305.15 542.37c-3 .31-7.87 2.81-7.87 5.89v10.92c0 3.08 4.88 5.59 7.87 5.9z" transform="translate(-213.99 -103.25)"/><path class="cls-5" d="M298.54 548.26v10.92c0 1.78 2.69 3.24 3.52 3.64l1.83.9v-20l-1.83.89c-.83.39-3.52 1.87-3.52 3.65z" transform="translate(-213.99 -103.25)"/><path class="cls-2" d="M296 548.26v10.92c0 3.86 5.25 6.77 9 7.16l1.4.15V541l-1.4.14c-3.74.36-9 3.27-9 7.12zm7.88 15.46l-1.83-.9c-.83-.4-3.52-1.86-3.52-3.64v-10.92c0-1.78 2.69-3.23 3.52-3.64l1.83-.89z" transform="translate(-213.99 -103.25)"/><path class="cls-2" d="M120.44 509.89h2.54v2.43h-2.54zm0 11.11h2.54v2.43h-2.54z"/><path class="cls-1" d="M335.33 511a30.18 30.18 0 00-30.18 30.17v5.63h39.23l5.27-9.14 5.28 9.14h10.57v-5.63A30.17 30.17 0 00335.33 511z" transform="translate(-213.99 -103.25)"/><path class="cls-5" d="M335.33 512.22a28.94 28.94 0 00-28.91 28.9v4.36h37.23l6-10.4 6 10.4h8.57v-4.36a28.94 28.94 0 00-28.89-28.9z" transform="translate(-213.99 -103.25)"/><path class="cls-2" d="M335.33 509.69a31.47 31.47 0 00-31.44 31.43V548h41.22l4.54-7.86 4.54 7.86h12.58v-6.89a31.47 31.47 0 00-31.44-31.42zm28.9 35.79h-8.57l-6-10.4-6 10.4h-37.24v-4.36a28.91 28.91 0 0157.81 0z" transform="translate(-213.99 -103.25)"/></g><g id="Layer_2" data-name="Layer 2"><rect class="cls-5" x="587.18" y="78.52" width="9.88" height="20.3" rx="4.69"/><path class="cls-2" d="M806.35 179.23h-.49a7.23 7.23 0 00-7.23 7.23v10.92a7.24 7.24 0 007.23 7.23h.49a7.24 7.24 0 007.23-7.23v-10.92a7.23 7.23 0 00-7.23-7.23zm4.65 18.15a4.7 4.7 0 01-4.69 4.69h-.49a4.7 4.7 0 01-4.69-4.69v-10.92a4.69 4.69 0 014.69-4.69h.49a4.69 4.69 0 014.69 4.69z" transform="translate(-213.99 -103.25)"/><path class="cls-4" d="M732 268.7v-14.94c0-6.6 6-11.95 13.51-11.95h59.26c7.46 0 13.51 5.35 13.51 11.95v14.94z" transform="translate(-213.99 -103.25)"/><path class="cls-4" d="M733.28 267.43v-13.67c0-5.89 5.49-10.68 12.24-10.68h59.26c6.75 0 12.24 4.79 12.24 10.68v13.67z" transform="translate(-213.99 -103.25)"/><path class="cls-2" d="M804.78 240.54h-59.26c-8.15 0-14.78 5.93-14.78 13.22v13.67h2.54v-13.67c0-5.89 5.49-10.68 12.24-10.68h59.26c6.75 0 12.24 4.79 12.24 10.68v13.67h2.53v-13.67c0-7.29-6.62-13.22-14.77-13.22z" transform="translate(-213.99 -103.25)"/><path class="cls-4" d="M805.32 203.46a30.17 30.17 0 01-30.17 30.17A30.18 30.18 0 01745 203.46v-24.14a30.18 30.18 0 0130.18-30.17 30.17 30.17 0 0130.17 30.17z" transform="translate(-213.99 -103.25)"/><path class="cls-5" d="M775.15 150.42a28.94 28.94 0 00-28.91 28.9v24.14a28.91 28.91 0 0057.81 0v-24.14a28.93 28.93 0 00-28.9-28.9z" transform="translate(-213.99 -103.25)"/><path class="cls-2" d="M775.15 147.88a31.47 31.47 0 00-31.44 31.44v24.14a31.44 31.44 0 0062.88 0v-24.14a31.48 31.48 0 00-31.44-31.44zm28.9 55.58a28.91 28.91 0 01-57.81 0v-24.14a28.91 28.91 0 0157.81 0z" transform="translate(-213.99 -103.25)"/><path class="cls-3" d="M764.37 147.51a14 14 0 00-11.67 6.31h-4.79a10.82 10.82 0 00-10.82 10.82V204h7.62v-23.5a7.61 7.61 0 017.61-7.61h48.85a14 14 0 0014-14v-11.38z" transform="translate(-213.99 -103.25)"/><path class="cls-5" d="M753.76 154.52l-.37.57h-5.48a9.56 9.56 0 00-9.55 9.55v38.06h5.08v-22.2a8.89 8.89 0 018.88-8.88h48.85a12.71 12.71 0 0012.69-12.69v-10.15h-49.49a12.67 12.67 0 00-10.61 5.74z" transform="translate(-213.99 -103.25)"/><path class="cls-2" d="M752.4 152.07l-.38.48h-4.11a12.1 12.1 0 00-12.08 12.09v40.6H746V180.5a6.35 6.35 0 016.34-6.35h48.85a15.24 15.24 0 0015.22-15.22v-12.69h-52a15.15 15.15 0 00-12.01 5.83zm61.46 6.86a12.71 12.71 0 01-12.69 12.69h-48.85a8.89 8.89 0 00-8.88 8.88v22.2h-5.08v-38.06a9.56 9.56 0 019.55-9.55h5.48l.37-.57a12.67 12.67 0 0110.61-5.74h49.49z" transform="translate(-213.99 -103.25)"/><path class="cls-4" d="M745 180.56c-3 .31-7.88 2.82-7.88 5.9v10.92c0 3.08 4.89 5.58 7.88 5.89z" transform="translate(-213.99 -103.25)"/><path class="cls-5" d="M738.36 186.46v10.92c0 1.78 2.69 3.23 3.52 3.64l1.83.89v-20l-1.83.89c-.83.42-3.52 1.88-3.52 3.66z" transform="translate(-213.99 -103.25)"/><path class="cls-2" d="M735.83 186.46v10.92c0 3.85 5.25 6.76 9 7.16l1.39.14v-25.53l-1.39.15c-3.75.39-9 3.3-9 7.16zm7.88 15.45l-1.83-.89c-.83-.41-3.52-1.86-3.52-3.64v-10.92c0-1.78 2.69-3.24 3.52-3.65l1.83-.89z" transform="translate(-213.99 -103.25)"/><path class="cls-2" d="M567.87 141.47h2.54v11.43h-2.54zm-10.15 0h2.54v11.43h-2.54z"/></g></svg>