<svg xmlns="http://www.w3.org/2000/svg" viewBox="0 0 1170 390.1"><defs><clipPath id="clip-path" transform="translate(-11.23 -183.55)"><circle class="cls-1" cx="538.54" cy="499.04" r="45.74"/></clipPath><clipPath id="clip-path-2" transform="translate(-11.23 -183.55)"><circle class="cls-1" cx="744.09" cy="486.99" r="31.6"/></clipPath><clipPath id="clip-path-3" transform="translate(-11.23 -183.55)"><circle class="cls-1" cx="478.47" cy="233.55" r="29.24"/></clipPath><clipPath id="clip-path-4" transform="translate(-11.23 -183.55)"><circle class="cls-1" cx="765.12" cy="234.48" r="40.67"/></clipPath><style>.cls-1{fill:none}.cls-2{fill:#1b2c38}.cls-3{fill:#fff}.cls-4{fill:#27c7cd}.cls-5{fill:#95d133}.cls-7{fill:#fc3e59}.cls-9{fill:#ffcb05}.cls-10{fill:#949fac}</style></defs><g id="Layer_4" data-name="Layer 4"><path class="cls-2" d="M368.72 168.93h20.99v2.73h-20.99zm-62.71 37.21H327v2.73h-20.99zm-12.04 0h5.65v2.73h-5.65zm-3.98-10.09h20.99v2.73h-20.99zm-12.04 0h5.65v2.73h-5.65zm760.18 91.96h20.99v2.73h-20.99zm-12.05 0h5.65v2.73h-5.65zm-3.97-10.08h20.99v2.73h-20.99zm-12.04 0h5.65v2.73h-5.65zm136.04-107.39h20.99v2.73h-20.99zm-12.05 0h5.65v2.73h-5.65zm-3.97-10.08h20.99v2.73h-20.99zm-12.05 0h5.65v2.73h-5.65zm16.03 81.48h2.73v6.24h-2.73z"/><path class="cls-2" transform="rotate(-45.03 908.29 355.09)" d="M1133.96 430.19h2.74v6.24h-2.74z"/><path class="cls-2" d="M1116.27 259.74h6.24v2.73h-6.24z"/><path class="cls-2" transform="rotate(-45.01 908.098 377.78)" d="M1132.2 454.64h6.24v2.73h-6.24z"/><path class="cls-2" d="M1134.07 274.04h2.73v6.24h-2.73z"/><path class="cls-2" transform="rotate(-44.99 930.66 377.801)" d="M1156.65 452.88h2.73v6.24h-2.73z"/><path class="cls-2" d="M1148.37 259.74h6.24v2.73h-6.24z"/><path class="cls-2" transform="rotate(-44.99 930.896 355.098)" d="M1154.9 431.94h6.24v2.74h-6.24z"/><path class="cls-2" d="M304.66 275.15h2.37v4.75h-2.37z"/><path class="cls-2" d="M305.67 276.15h.36v2.73h-.36z"/><path class="cls-2" d="M333.78 463.44h-3.88v-4.75h3.88zm-7.76 0h-3.88v-4.75H326z" transform="translate(-11.23 -183.55)"/><path class="cls-2" d="M330.9 462.43v-2.73h1.87v2.73zm-7.75 0v-2.73H325v2.73z" transform="translate(-11.23 -183.55)"/><path class="cls-2" d="M326.42 275.15h2.37v4.75h-2.37z"/><path class="cls-2" d="M327.43 276.15h.36v2.73h-.36z"/><path class="cls-2" transform="rotate(-44.99 -127.821 365.706)" d="M98.05 441.35h2.74v5.15h-2.74z"/><path class="cls-2" transform="rotate(-15.01 -605.479 405.971)" d="M94.24 453.88h5.15v2.73h-5.15z"/><path class="cls-2" transform="rotate(-74.97 -19.944 378.724)" d="M102.75 461.8h5.15v2.73h-5.15z"/><path class="cls-3" d="M113.9 457.22l5.07 5.06z" transform="translate(-11.23 -183.55)"/><path class="cls-2" transform="rotate(-15.01 -583.203 399.253)" d="M116.46 447.06h5.15v2.73h-5.15z"/><path class="cls-2" transform="rotate(-75 -14.715 356.045)" d="M107.95 439.15h5.15v2.73h-5.15z"/><path class="cls-1" d="M113.53 278.01l-9.68-2.69 2.52 9.73 7.16-7.04z"/><path class="cls-2" d="M130.06 460.19L111.25 455l4.88 18.9zm-5.3 1.37l-7.16 7-2.51-9.73z" transform="translate(-11.23 -183.55)"/><path class="cls-2" transform="rotate(-44.47 -105.022 391.02)" d="M123.73 465.72h2.73v6.68h-2.73z"/><path class="cls-1" d="M834.24 96.35h8.72v51.86h-8.72z"/><path class="cls-2" d="M842.73 334.49h14.19v-57.33h-14.19zm2.74-54.59h8.71v51.85h-8.71z" transform="translate(-11.23 -183.55)"/><path class="cls-1" d="M813.67 125.62h8.71v22.59h-8.71z"/><path class="cls-2" d="M822.17 334.49h14.18v-28.06h-14.18zm2.73-25.33h8.71v22.59h-8.71z" transform="translate(-11.23 -183.55)"/><path class="cls-1" d="M793.1 121.66h8.72v26.54h-8.72z"/><path class="cls-2" d="M801.6 334.49h14.18v-32H801.6zm2.73-29.28h8.72v26.54h-8.72z" transform="translate(-11.23 -183.55)"/><path class="cls-1" d="M772.54 138.27h8.71v9.93h-8.71z"/><path class="cls-2" d="M781 334.49h14.19v-15.4H781zm2.74-12.67h8.71v9.93h-8.71z" transform="translate(-11.23 -183.55)"/><path class="cls-4" d="M96.92 355.29l-7.58 4.37-7.57 4.38v-17.5l7.57 4.38 7.58 4.37z"/><path class="cls-2" d="M40.44 266.9h2.73v12.82h-2.73z"/><path class="cls-2" d="M35.4 271.94h12.82v2.73H35.4z"/><path class="cls-5" d="M11.87 354.48a6.38 6.38 0 106.37-6.38 6.37 6.37 0 00-6.37 6.38zm878.06-29.67a6.38 6.38 0 106.38-6.37 6.38 6.38 0 00-6.38 6.37z" transform="translate(-11.23 -183.55)"/><path class="cls-2" d="M173.94 156.57h2.73v12.82h-2.73z"/><path class="cls-2" d="M168.89 161.62h12.82v2.73h-12.82zm159.3-1.49h2.73v12.82h-2.73z"/><path class="cls-2" d="M323.15 165.18h12.82v2.73h-12.82z"/><path class="cls-1" d="M140.11 284.3a3.74 3.74 0 103.73 3.73 3.74 3.74 0 00-3.73-3.73z" transform="translate(-11.23 -183.55)"/><path class="cls-2" d="M140.11 281.56a6.47 6.47 0 106.46 6.47 6.47 6.47 0 00-6.46-6.47zm0 10.21a3.74 3.74 0 113.73-3.74 3.75 3.75 0 01-3.73 3.74z" transform="translate(-11.23 -183.55)"/><path class="cls-2" d="M870.46 206.41h2.73v12.82h-2.73z"/><path class="cls-2" d="M865.42 211.45h12.82v2.73h-12.82z"/><circle class="cls-1" cx="792.53" cy="181.48" r="3.73"/><path class="cls-2" d="M810.23 365a6.47 6.47 0 10-6.47 6.47 6.48 6.48 0 006.47-6.47zm-6.47 3.73a3.73 3.73 0 113.73-3.73 3.74 3.74 0 01-3.73 3.76z" transform="translate(-11.23 -183.55)"/><path class="cls-2" d="M1000.98 309.64h2.73v12.82h-2.73z"/><path class="cls-2" d="M995.94 314.68h12.82v2.73h-12.82zm162.86 62.6h2.73v12.82h-2.73z"/><path class="cls-2" d="M1153.75 382.32h12.82v2.73h-12.82z"/><path class="cls-1" d="M896.31 433.68a3.74 3.74 0 103.73 3.73 3.73 3.73 0 00-3.73-3.73z" transform="translate(-11.23 -183.55)"/><path class="cls-2" d="M902.78 437.41a6.47 6.47 0 10-6.47 6.47 6.48 6.48 0 006.47-6.47zm-6.47 3.74a3.74 3.74 0 113.73-3.74 3.74 3.74 0 01-3.73 3.74z" transform="translate(-11.23 -183.55)"/><path class="cls-2" d="M1037.97 151.76h2.73v12.82h-2.73z"/><path class="cls-2" d="M1032.92 156.81h12.82v2.73h-12.82z"/><path class="cls-1" d="M1014.61 309.21a3.74 3.74 0 103.74 3.74 3.74 3.74 0 00-3.74-3.74z" transform="translate(-11.23 -183.55)"/><path class="cls-2" d="M1021.08 313a6.47 6.47 0 10-6.47 6.47 6.47 6.47 0 006.47-6.47zm-6.47 3.73a3.74 3.74 0 113.74-3.73 3.73 3.73 0 01-3.74 3.68z" transform="translate(-11.23 -183.55)"/><path class="cls-2" d="M1.01 383.51h21.5v2.73H1.01zm256.88-138.26h33.59v2.73h-33.59zm767.72 87.81h33.59v2.73h-33.59zM230.6 105.23h33.59v2.73H230.6zM905.76 252.5h33.59v2.73h-33.59zm162.56-42.72h33.59v2.73h-33.59zm-259.86-29.67h33.59v2.73h-33.59z"/><path class="cls-1" d="M1107.75 368a12.1 12.1 0 00-24.19 0c0 5.81 10.25 15.4 11.41 16.48l.68.62.69-.62c1.16-1.11 11.41-10.7 11.41-16.48z" transform="translate(-11.23 -183.55)"/><path class="cls-2" d="M1110.48 368a14.83 14.83 0 10-29.65 0c0 6.37 8.76 15.54 13.94 19.95l.88.76.89-.76c5.18-4.44 13.94-13.62 13.94-19.95zm-14.83 17.1l-.68-.62c-1.16-1.08-11.41-10.67-11.41-16.48a12.1 12.1 0 0124.19 0c0 5.81-10.25 15.4-11.41 16.48z" transform="translate(-11.23 -183.55)"/><path class="cls-4" d="M1095.65 374.65a6.68 6.68 0 116.68-6.68 6.68 6.68 0 01-6.68 6.68z" transform="translate(-11.23 -183.55)"/><path class="cls-2" d="M1157.95 50.96h2.73v3.53h-2.73z"/><path class="cls-2" transform="rotate(-59.98 998.17 159.142)" d="M1161.5 239.4h2.73v3.53h-2.73z"/><path class="cls-2" transform="rotate(-29.96 814.843 179.465)" d="M1161.5 248.89h3.53v2.73h-3.53z"/><path class="cls-2" d="M1158.74 69.15h2.73v3.53h-2.73z"/><path class="cls-2" transform="rotate(-60 1014.446 167.528)" d="M1177.65 247.81h2.73v3.53h-2.73z"/><path class="cls-2" transform="rotate(-30.01 830.437 169.669)" d="M1176.86 239.11h3.53v2.73h-3.53z"/><path class="cls-2" d="M1078.17 246.24h2.73v3.52h-2.73z"/><path class="cls-2" transform="rotate(-59.99 918.476 354.4)" d="M1081.72 434.68h2.73v3.53h-2.73z"/><path class="cls-2" transform="rotate(-29.98 735.22 374.752)" d="M1081.72 444.18h3.53v2.73h-3.53z"/><path class="cls-2" d="M1078.96 264.44h2.73v3.53h-2.73z"/><path class="cls-2" transform="rotate(-59.99 934.627 362.811)" d="M1097.87 443.09h2.73v3.53h-2.73z"/><path class="cls-2" transform="rotate(-30.03 751.01 364.915)" d="M1097.08 434.39h3.53v2.73h-3.53z"/><path class="cls-2" d="M142.49 25.59h2.73v3.53h-2.73z"/><path class="cls-2" transform="rotate(-59.98 -17.236 133.75)" d="M146.05 214.03h2.73v3.53h-2.73z"/><path class="cls-2" transform="rotate(-30 -200.34 154.06)" d="M146.05 223.52h3.53v2.73h-3.53z"/><path class="cls-2" d="M143.29 43.79h2.73v3.53h-2.73z"/><path class="cls-2" transform="rotate(-60 -1.015 142.158)" d="M162.2 222.44h2.73v3.53h-2.73z"/><path class="cls-2" transform="rotate(-30 -184.946 144.304)" d="M161.41 213.74h3.53v2.73h-3.53z"/><path class="cls-3" d="M184.58 407.12a20.86 20.86 0 11-20.86-20.85 20.86 20.86 0 0120.86 20.85z" transform="translate(-11.23 -183.55)"/><path class="cls-2" d="M145.56 217.91l1.96 1.89 3.57-3.69v14.84h2.73V213.4l-2.82-1.14-5.44 5.65z"/><path class="cls-2" d="M148.92 230.52h6.96v2.73h-6.96zm1.9-37.67h2.73v4.7h-2.73z"/><path class="cls-2" transform="rotate(-30 -198.802 311.931)" d="M147.9 380.35h2.73v4.7h-2.73z"/><path class="cls-2" transform="rotate(-59.99 -25.612 311.151)" d="M137.63 390.85h2.73v4.7h-2.73z"/><path class="cls-2" d="M121.76 222.51h4.7v2.73h-4.7z"/><path class="cls-2" transform="rotate(-29.98 -209.044 350.812)" d="M136.95 420.21h4.7v2.73h-4.7z"/><path class="cls-2" transform="rotate(-59.99 -14.784 349.83)" d="M147.45 430.48h4.7v2.74h-4.7z"/><path class="cls-2" d="M151.43 249.6h2.73v4.7h-2.73z"/><path class="cls-2" transform="rotate(-30 -169.895 360.797)" d="M176.81 429.19h2.73v4.7h-2.73z"/><path class="cls-2" transform="matrix(.5 -.87 .87 .5 -281.66 190.32)" d="M187.08 418.7h2.73v4.7h-2.73z"/><path class="cls-2" d="M178.52 221.9h4.7v2.73h-4.7z"/><path class="cls-2" transform="matrix(.87 -.5 .5 .87 -182.37 -36.86)" d="M185.79 391.3h4.7v2.73h-4.7z"/><path class="cls-2" transform="rotate(-60 13.078 300.348)" d="M175.3 381.03h4.7v2.73h-4.7z"/><path class="cls-1" d="M169.05 268.17h72.74v38.74h-72.74z"/><path class="cls-2" d="M177.55 493.19h78.2V449h-78.2zm2.73-41.47H253v38.74h-72.72z" transform="translate(-11.23 -183.55)"/><path class="cls-5" d="M244.07 486.12a5.53 5.53 0 014.62-4.48v-21.19a5.52 5.52 0 01-4.6-4.4h-54.88a5.52 5.52 0 01-4.6 4.4v21.19a5.53 5.53 0 014.62 4.48z" transform="translate(-11.23 -183.55)"/><path class="cls-1" d="M216.65 463.68a7.41 7.41 0 107.4 7.41 7.42 7.42 0 00-7.4-7.41z" transform="translate(-11.23 -183.55)"/><path class="cls-2" d="M216.65 461a10.14 10.14 0 1010.14 10.14A10.15 10.15 0 00216.65 461zm0 17.54a7.41 7.41 0 117.4-7.4 7.41 7.41 0 01-7.4 7.35z" transform="translate(-11.23 -183.55)"/><path class="cls-2" d="M179.98 286.17h10.96v2.73h-10.96zm39.91 0h10.96v2.73h-10.96z"/><circle class="cls-7" cx="954.5" cy="296.71" r="23.14"/><path class="cls-3" d="M964.58 296.71l-7.58 4.37-7.57 4.37v-17.49l7.57 4.37 7.58 4.38z"/><path class="cls-5" d="M1134.78 202.31h15.56v15.56h-15.56z"/><path class="cls-2" d="M147.01 170.2h2.73v2.73h-2.73zm-22.22 0h3.54v2.73h-3.54zm11.11 0h3.54v2.73h-3.54zm-21.41 0h2.73v2.73h-2.73zm0-22.22h2.73v3.54h-2.73zm0 11.11h2.73v3.54h-2.73zm0-21.42h2.73v2.73h-2.73zm10.3 0h3.54v2.73h-3.54zm11.11 0h3.54v2.73h-3.54zm11.11 0h2.73v2.73h-2.73zm0 21.42h2.73v3.54h-2.73zm0-11.11h2.73v3.55h-2.73z"/><path class="cls-7" d="M335.93 301.67a169.62 169.62 0 01-40.78 0 61.12 61.12 0 010-29 169.62 169.62 0 0140.78 0 61.38 61.38 0 010 29z" transform="translate(-11.23 -183.55)"/><path class="cls-1" d="M300.76 109.76l10.59-6.11-10.59-6.12v12.23z"/><path class="cls-2" d="M325.84 287.19a2.36 2.36 0 00-1.29-2l-11.79-6.81a2.61 2.61 0 00-1.33-.39 2.22 2.22 0 00-2.17 2.4V294a2.21 2.21 0 002.17 2.39 2.68 2.68 0 001.33-.37l11.79-6.82a2.36 2.36 0 001.29-2.01zM312 293.31v-12.23l10.59 6.11z" transform="translate(-11.23 -183.55)"/><path class="cls-2" transform="rotate(-52.91 28.28 175.325)" d="M216.59 254.44h3.45v2.73h-3.45z"/><path class="cls-1" d="M205.46 254.83a15.64 15.64 0 1015.64 15.64 15.65 15.65 0 00-15.64-15.64z" transform="translate(-11.23 -183.55)"/><path class="cls-2" d="M223.83 270.47a18.38 18.38 0 10-18.37 18.37 18.39 18.39 0 0018.37-18.37zm-18.37 15.64a15.64 15.64 0 1115.64-15.64 15.66 15.66 0 01-15.64 15.64z" transform="translate(-11.23 -183.55)"/><path class="cls-2" d="M192.86 76.42h2.73v9.49h-2.73zm-2.33-13.33h7.4v2.73h-7.4zm2.33 3.82h2.73v2h-2.73z"/><path class="cls-1" d="M346.38 114.59h29.47v30.15h-29.47z"/><path class="cls-2" d="M386.52 295.41h-28.34a3.3 3.3 0 00-3.3 3.3v29a3.3 3.3 0 003.3 3.3h28.34a3.3 3.3 0 003.3-3.3v-29a3.3 3.3 0 00-3.3-3.3zm.57 32.88h-29.47v-30.15h29.47z" transform="translate(-11.23 -183.55)"/><path class="cls-2" d="M377.43 285.89h-10.16a3.3 3.3 0 00-3.3 3.3v11.09h2.73v-11.65H378v11.65h2.73v-11.09a3.3 3.3 0 00-3.3-3.3z" transform="translate(-11.23 -183.55)"/><path class="cls-1" d="M380.72 384.08h-1a30.92 30.92 0 00-1 61.82h1a30.92 30.92 0 001-61.83z" transform="translate(-11.23 -183.55)"/><path class="cls-2" d="M380.81 381.35h-1.11a33.66 33.66 0 00-1.08 67.3h1.1a33.65 33.65 0 001.09-67.29zM410.62 416a30.78 30.78 0 01-30.88 29.92h-1a30.92 30.92 0 011-61.82h1a30.95 30.95 0 0129.88 31.9z" transform="translate(-11.23 -183.55)"/><path class="cls-4" d="M408.91 407.41l-2.68 4.59-4.64 8.74-2.59-5.6-4.23 2.66-2.64-5.08-2.46 2.94-1.19-.34-3.79-1.61.63 4 2.9 1.26-5.51 12.42-2.29 1.38-1.93-4.74-1.11-7.88-3.85-.28-1.57-2.95 2.35-5.93 3.25-.65 2 1.38 4.78-1-5.13-3-4.34-.88-.18-1.32 4.28-2.3-1.7-2.81 4.39-3.73 4.5 1.74 7.63-2.12s3.14-1.55 6.66-3.25a30.24 30.24 0 018.46 14.36zm-47.4-16.49l-1.82 2.91-3.15 5.36a.44.44 0 000 .47l2 3.41a.51.51 0 00.4.23.42.42 0 00.39-.21l1.86-2.84 3.42 4.44-7.09 5.94-3.91.25a.45.45 0 00-.41.3l-.91 2.36a.46.46 0 00.06.44l2.5 3.4-4.14-2.07-1.16-1.48a30.18 30.18 0 0111.96-22.91zm-2.03 36.88l-2.48-5.28 3-6.19 8 7.68-7.35 14-1.31-3.26.27-6.7a.43.43 0 00-.13-.25zm7.84-28.26l-3.19-7.22a28.13 28.13 0 019.6-2.9l-1.66 6.58z" transform="translate(-11.23 -183.55)"/><path class="cls-2" d="M1138.63 356.06l-29.23 16.88-29.24-16.88V319.6h-2.73v38.03l31.97 18.46 31.97-18.46V319.6h-2.74v36.46zm-29.23-57.85l-30.6 17.67 1.37 2.37 29.23-16.88 29.23 16.88 1.37-2.37-30.6-17.67z"/><path class="cls-2" d="M1108.03 334.22h2.73v36.76h-2.73z"/><path class="cls-3" d="M1141.5 314.85l-32.1 18.52 14.36 8.29 32.1-18.52-14.36-8.29zm-64.2 0l32.1 18.52-14.35 8.29-32.11-18.52 14.36-8.29z"/><path class="cls-3" d="M1077.3 315.89l32.1-18.52-14.35-8.29-32.11 18.52 14.36 8.29zm64.2 0l-32.1-18.52 14.36-8.29 32.1 18.52-14.36 8.29z"/><path class="cls-7" d="M82.74 510.6l1.26-1.28a11.94 11.94 0 000-16.88l-.17-.18a11.94 11.94 0 00-16.88 0l-1.28 1.28-1.29-1.28a11.93 11.93 0 00-16.87 0l-.18.18a11.94 11.94 0 000 16.88l1.28 1.28 17.06 17.06z" transform="translate(-11.23 -183.55)"/><path class="cls-2" d="M85 491.48l-.18-.18a13.29 13.29 0 00-18.81 0l-.57.57.4.39-1.68 1.68 1.54 1.54 2.24-2.25a10.57 10.57 0 0114.95 0l.18.19a10.59 10.59 0 010 14.94L65.43 526l1.93 1.93L85 510.28a13.3 13.3 0 000-18.8zm775.87-72.91a32.23 32.23 0 00-31.19-32.18v2.73a29.47 29.47 0 11-30.45 30.45h-2.74a32.2 32.2 0 0064.38-1z" transform="translate(-11.23 -183.55)"/><path class="cls-2" d="M788.98 235.02h-4.74"/><path class="cls-2" d="M820.84 390.16l-.64-2.66a29.7 29.7 0 00-2.9.94l1 2.53c.86-.31 1.7-.58 2.54-.81zm-22.3 17.05a29.7 29.7 0 00-.94 2.9l2.66.64c.23-.85.5-1.68.81-2.5zm5-8.77c-.63.79-1.24 1.62-1.79 2.47l2.33 1.43c.48-.73 1-1.44 1.54-2.12zm4.99-5l1.78 2.08c.69-.54 1.4-1.06 2.13-1.54l-1.44-2.33c-.84.56-1.67 1.16-2.47 1.79z" transform="translate(-11.23 -183.55)"/><path class="cls-5" d="M850.64 418.57a22 22 0 11-22-22 22 22 0 0122 22z" transform="translate(-11.23 -183.55)"/><path class="cls-2" d="M828.32 226.23l-15.39 15.39-5.67-5.68-1.94 1.94 7.61 7.61 17.32-17.32-1.93-1.94z"/><circle class="cls-4" cx="255.52" cy="345.31" r="26.82" transform="rotate(-76.85 134.204 260.616)"/><path class="cls-1" d="M255.5 360.84a15.39 15.39 0 001.66-.09 15.52 15.52 0 10-3.28-30.87 16.94 16.94 0 00-2.38.44l-1.34.36.76 1.16a8 8 0 01-9.54 11.82l-1.29-.5-.07 1.38a15.09 15.09 0 00.07 2.42 15.48 15.48 0 0015.41 13.88z" transform="translate(-11.23 -183.55)"/><path class="cls-2" d="M255.5 363.57a18.06 18.06 0 001.95-.1 18.26 18.26 0 00-1.91-36.41 18.1 18.1 0 00-8.68 2.19l-2.16 1.16 2.13 1.23a5.25 5.25 0 01-2.05 9.78 5.07 5.07 0 01-.55 0 5.29 5.29 0 01-3.91-1.75l-1.65-1.83-.68 2.36a18.25 18.25 0 0017.51 23.34zm-15.48-19l.07-1.38 1.29.5a7.93 7.93 0 002.84.52 8.06 8.06 0 00.85 0 8 8 0 005.85-12.3l-.76-1.16 1.34-.36a16.94 16.94 0 012.38-.44 15.67 15.67 0 011.66-.09A15.53 15.53 0 11240.09 347a15.09 15.09 0 01-.09-2.46z" transform="translate(-11.23 -183.55)"/><path class="cls-1" d="M255.52 329c-14.7 0-28.48 5.84-36.86 15.62l-.56.65.56.66c8.38 9.78 22.16 15.62 36.86 15.62s28.48-5.8 36.86-15.55l.56-.66-.56-.65C284 334.88 270.22 329 255.52 329z" transform="translate(-11.23 -183.55)"/><path class="cls-2" d="M255.52 326.3c-16.4 0-31.45 6.8-40.24 18.18l-.64.83.64.84c8.79 11.38 23.84 18.18 40.24 18.18s31.45-6.8 40.24-18.18l.65-.84-.65-.83c-8.76-11.38-23.83-18.18-40.24-18.18zm36.86 19.7c-8.38 9.78-22.16 15.62-36.86 15.62S227 355.75 218.66 346l-.56-.66.56-.65C227 334.88 240.82 329 255.52 329s28.48 5.84 36.86 15.62l.56.65z" transform="translate(-11.23 -183.55)"/><path class="cls-2" d="M26.01 0h36.54v2.73H26.01zm0 8.6h36.54v2.73H26.01zm-8.63-7.59l-4.56 5.72-2.04-1.31L9.3 7.71l4.11 2.66 6.11-7.66-2.14-1.7zm8.63 24.63h36.54v2.73H26.01zm0 8.6h18.74v2.73H26.01zm-8.63-7.59l-4.56 5.72-2.04-1.32-1.49 2.3 4.12 2.66 6.11-7.66-2.14-1.7zm8.63 24.63h18.74v2.73H26.01zm0 8.59h18.74v2.73H26.01zm-8.63-7.59l-4.56 5.73-2.04-1.32-1.48 2.3 4.11 2.66 6.11-7.66-2.14-1.71z"/><path class="cls-1" d="M106.51 209.43a3.55 3.55 0 00-3.59-3.8 4.33 4.33 0 00-1.06.13 7.1 7.1 0 00-5.19 6.45v4.9l4.75-1.13a7.1 7.1 0 005.09-6.55z" transform="translate(-11.23 -183.55)"/><path class="cls-2" d="M109.24 209.41a6.29 6.29 0 00-6.28-6.52 7.37 7.37 0 00-1.73.21 10 10 0 00-7 7.22L94 211h-.1l.06 9.55 9.2-2.17v-.07l.56-.28a9.91 9.91 0 005.52-8.62zm-12.55 7.7v-4.9a7.1 7.1 0 015.19-6.45 4.33 4.33 0 011.06-.13 3.55 3.55 0 013.59 3.8 7.1 7.1 0 01-5.07 6.55z" transform="translate(-11.23 -183.55)"/><path class="cls-1" d="M89.26 216l.35.09 4.42 1v-4.91a7.08 7.08 0 00-5.18-6.44 4.41 4.41 0 00-1.07-.13 3.55 3.55 0 00-3.59 3.79 7.12 7.12 0 005.07 6.6z" transform="translate(-11.23 -183.55)"/><path class="cls-2" d="M81.48 209.41A9.93 9.93 0 0087 218l.56.28v.08l9.2 2.16.04-9.52h-.1l-.16-.68a10 10 0 00-7-7.17 7.37 7.37 0 00-1.73-.21 6.29 6.29 0 00-6.33 6.47zm6.32-3.78a4.41 4.41 0 011.07.13 7.08 7.08 0 015.18 6.44v4.91l-4.42-1-.35-.09a7.12 7.12 0 01-5.05-6.56 3.55 3.55 0 013.57-3.83z" transform="translate(-11.23 -183.55)"/><path class="cls-9" d="M52.85 35.54h62.56v11.63H52.85z"/><path class="cls-1" d="M54.22 36.91h59.82v8.9H54.22z"/><path class="cls-2" d="M62.72 232.09H128v-14.37H62.72zm2.73-11.63h59.82v8.9H65.45z" transform="translate(-11.23 -183.55)"/><path class="cls-9" d="M54.77 47.18h58.72v36.68H54.77z"/><path class="cls-1" d="M56.14 48.54h55.98v33.94H56.14z"/><path class="cls-2" d="M64.64 268.77h61.45v-39.41H64.64zm2.73-36.68h56V266h-56z" transform="translate(-11.23 -183.55)"/><path class="cls-3" d="M78.52 37.92h11.23v6.89H78.52zm.31 11.63h10.61v31.93H78.83z"/><path class="cls-2" d="M950.57 209.84l15.45 20.38 6.39-4.82-8-22.38-19.87-19.7-1.93 1.94 19.43 19.26 7.11 19.91-2.6 1.96-13.82-18.22-24.81-24.84-1.93 1.93 24.58 24.58z"/><path class="cls-1" d="M999.35 423.89a12.09 12.09 0 100 17.1 12 12 0 000-17.1z" transform="translate(-11.23 -183.55)"/><path class="cls-2" d="M1001.28 422a14.84 14.84 0 100 21 14.74 14.74 0 000-21zm-10.49 22.58a12.09 12.09 0 118.56-3.54 12 12 0 01-8.56 3.49z" transform="translate(-11.23 -183.55)"/><path class="cls-1" d="M1016 368.39a12.1 12.1 0 00-1 24.15V394h2v-1.41a12.1 12.1 0 00-1-24.15z" transform="translate(-11.23 -183.55)"/><path class="cls-2" d="M1016 365.66a14.83 14.83 0 100 29.66 14.83 14.83 0 000-29.66zm1 26.88V394h-2v-1.41a12.1 12.1 0 112 0z" transform="translate(-11.23 -183.55)"/><path class="cls-1" d="M967.91 390.33h-51.19V393a6.28 6.28 0 006.26 6.27l49.25.25 19.11-9.05-.45-3.23z" transform="translate(-11.23 -183.55)"/><path class="cls-2" d="M993.22 384.12l-25.34 3.48H914v5.4a9 9 0 009 9l49.86.25L994.33 392zm-21 15.36l-49.22-.25a6.28 6.28 0 01-6.26-6.27v-2.63h51.19l23-3.13.45 3.23z" transform="translate(-11.23 -183.55)"/><path class="cls-3" d="M970.41 392.32a2.32 2.32 0 110 3.28 2.32 2.32 0 010-3.28z" transform="translate(-11.23 -183.55)"/><path class="cls-2" d="M972.05 391.64a2.32 2.32 0 00-1.64 4 2.31 2.31 0 003.27 0 2.32 2.32 0 00-1.63-4z" transform="translate(-11.23 -183.55)"/><path class="cls-2" d="M972.05 395.28a1.32 1.32 0 01-.93-2.25 1.34 1.34 0 01.93-.38 1.31 1.31 0 011.31 1.32 1.3 1.3 0 01-.39.92 1.29 1.29 0 01-.92.39zm8.44-26.76v-2.73H983v2.73zm-9 0v-2.73H974v2.73zm-9 0v-2.73H965v2.73zm-9 0v-2.73H956v2.73zm-9 0v-2.73H947v2.73zm-9 0v-2.73H938v2.73zm-9 0v-2.73h2.49v2.73z" transform="translate(-11.23 -183.55)"/><path class="cls-2" transform="rotate(-28.81 619.384 344.933)" d="M980.84 410.7h2.73v8.24h-2.73z"/><path class="cls-2" transform="rotate(-8.53 -237.937 369.98)" d="M994.17 384.92h7.08v2.73h-7.08z"/><path class="cls-3" d="M971.85 147.63l-.23-.1-5.6 2.38-5.59-2.38-5.6 2.38-5.59-2.38-5.59 2.38-5.6-2.38-5.59 2.38-5.59-2.38-5.59 2.38-5.59-2.38-.21.09v36.99h56.37v-36.98z"/><path class="cls-1" d="M960.43 149.02l-5.6 2.37-5.59-2.37-5.59 2.37-5.6-2.37-5.59 2.37-5.59-2.37-5.59 2.37-4.43-1.88v33.74h53.63V149.5l-4.46 1.89-5.59-2.37z"/><path class="cls-2" d="M977.25 332l-5.59-2.38-5.59 2.38-5.6-2.38-5.59 2.38-5.6-2.38-5.59 2.38-5.59-2.38-5.59 2.38-5.59-2.38-1.57.68v39.26h59.09v-39.29l-1.59-.68zm4.46 34.82h-53.63v-33.76l4.43 1.88 5.59-2.37 5.59 2.37 5.59-2.37 5.6 2.37 5.59-2.37 5.6 2.37 5.59-2.37 5.59 2.37 4.46-1.89z" transform="translate(-11.23 -183.55)"/><path class="cls-2" d="M923.26 159.68h18.95v2.73h-18.95zm33.62 0h5.11v2.73h-5.11zm-33.62 9.88h22.51v2.73h-22.51zm33.62 0h5.11v2.73h-5.11z"/><path class="cls-1" d="M97.38 359.35H53.77a1.92 1.92 0 00-1.8 2v38.45a1.93 1.93 0 001.8 2h7.49V413l13.14-11.16h23a1.92 1.92 0 001.79-2v-38.47a1.91 1.91 0 00-1.81-2.02z" transform="translate(-11.23 -183.55)"/><path class="cls-2" d="M97.38 356.61H53.77a4.66 4.66 0 00-4.53 4.76v38.45a4.65 4.65 0 004.53 4.75h4.75v14.3l16.88-14.3h22a4.65 4.65 0 004.53-4.75v-38.45a4.66 4.66 0 00-4.55-4.76zm1.79 43.21a1.92 1.92 0 01-1.79 2h-23L61.26 413v-11.16h-7.49a1.93 1.93 0 01-1.8-2v-38.47a1.92 1.92 0 011.8-2h43.61a1.91 1.91 0 011.79 2z" transform="translate(-11.23 -183.55)"/><path class="cls-1" d="M65.48 368.09a4.62 4.62 0 104.61 4.61 4.62 4.62 0 00-4.61-4.61z" transform="translate(-11.23 -183.55)"/><path class="cls-2" d="M65.48 365.35a7.35 7.35 0 107.35 7.35 7.36 7.36 0 00-7.35-7.35zm0 12a4.62 4.62 0 114.61-4.62 4.62 4.62 0 01-4.61 4.59z" transform="translate(-11.23 -183.55)"/><path class="cls-1" d="M84.74 384.27a4.62 4.62 0 104.62 4.62 4.62 4.62 0 00-4.62-4.62z" transform="translate(-11.23 -183.55)"/><path class="cls-2" d="M92.09 388.89a7.35 7.35 0 10-7.35 7.35 7.36 7.36 0 007.35-7.35zm-7.35 4.61a4.62 4.62 0 114.62-4.61 4.62 4.62 0 01-4.62 4.61z" transform="translate(-11.23 -183.55)"/><path class="cls-2" transform="rotate(-45 -151.894 302.757)" d="M55.93 379.6h38.71v2.73H55.93z"/><path class="cls-2" d="M1061.5 20.1h36.54v2.73h-36.54zm0 8.82h36.54v2.73h-36.54z"/><path class="cls-4" d="M1047.25 19.12h8.55v8.55h-8.55z"/><path class="cls-7" d="M1047.94 71.73h79.5v27.29h-79.5z"/><path class="cls-2" d="M1068.52 84.01h38.33v2.73h-38.33zm43.23-59.51h9.83v2.73h-9.83zm-50.25 24.08h36.54v2.73h-36.54zm0 8.82h36.54v2.73h-36.54z"/><path class="cls-4" d="M1047.25 47.6h8.55v8.55h-8.55z"/><path class="cls-2" d="M1111.75 52.98h9.83v2.73h-9.83zm-25.83 43.43h2.73v4.83h-2.73z"/><path class="cls-2" transform="rotate(-60 924.523 206.22)" d="M1087.74 285.85h2.73v4.83h-2.73z"/><path class="cls-2" transform="rotate(-29.97 741.11 228.56)" d="M1087.1 297.99h4.83v2.74h-4.83z"/><path class="cls-2" transform="rotate(-60.01 944.21 216.61)" d="M1107.36 296.25h2.73v4.83h-2.73z"/><path class="cls-2" transform="rotate(-30.01 760.337 216.739)" d="M1105.91 286.2h4.83v2.73h-4.83z"/><path class="cls-1" d="M1087.77 119.63l-4.76 8.09 9.38.08-4.62-8.17z"/><path class="cls-2" d="M1099.05 297.71l-9.58 16.29 18.86.17zm0 5.47l4.62 8.17-9.38-.08z" transform="translate(-11.23 -183.55)"/><path class="cls-2" transform="rotate(-89.49 1000.615 230.628)" d="M1095.73 315.34h6.29v2.73h-6.29z"/><path class="cls-2" d="M97.54 323c-1.2-1.86-2.69-4.19-5.73-4.19s-4.53 2.33-5.73 4.19-2 2.93-3.43 2.93-2.25-1.11-3.42-2.93-2.69-4.19-5.73-4.19-4.5 2.29-5.72 4.19-2 2.93-3.43 2.93-2.26-1.11-3.43-2.93-2.69-4.19-5.72-4.19-4.53 2.33-5.73 4.19-2 2.93-3.42 2.93-2.26-1.11-3.43-2.93c-1.06-1.65-2.34-3.65-4.72-4.09v2.85c.89.4 1.55 1.37 2.42 2.72 1.2 1.87 2.69 4.19 5.73 4.19s4.52-2.32 5.72-4.19 2-2.93 3.43-2.93 2.26 1.11 3.42 2.93 2.69 4.19 5.73 4.19 4.53-2.32 5.73-4.19 2-2.93 3.42-2.93 2.26 1.11 3.43 2.93 2.69 4.19 5.72 4.19 4.53-2.32 5.73-4.19 2-2.93 3.43-2.93 2.26 1.11 3.43 2.93c1.06 1.65 2.35 3.65 4.73 4.1v-2.86c-.89-.44-1.56-1.4-2.43-2.72z" transform="translate(-11.23 -183.55)"/><path class="cls-4" d="M986.71 259.55a5.67 5.67 0 00-1.65-4.07L970 240.41l-3.62-3.62-3.77-3.79c-.41.35-.81.71-1.2 1.1-9.69 9.69-7.73 27.36 4.39 39.47.67.68 1.36 1.32 2.07 1.93a5.65 5.65 0 002.39.48z" transform="translate(-11.23 -183.55)"/><path class="cls-1" d="M1012.5 259.81l-.24-1.14a17.65 17.65 0 00-2.19-5.24l-.07-.11c-.25-.4-.48-.73-.72-1l-.28-.32c-.24-.31-.47-.6-.72-.87l-.31-.35c-.24-.25-.48-.51-.74-.76l-.45-.42c-.26-.23-.47-.42-.7-.6l-.35-.26c-.48-.37-1-.71-1.48-1l-.23-.13c-.18-.12-.32-.2-.46-.28l-.43-.22-.24-.12-.79-.38-.55-.23c-.4-.16-.69-.26-1-.36l-.66-.21q-.48-.14-1-.24h-.15l-.49-.1c-.36-.07-.72-.12-1.09-.17h-.55c-.61-.06-1.16-.09-1.67-.09s-.94 0-1.4.07a17.75 17.75 0 00-16.08 14.7l-3.1.24a4.31 4.31 0 00-3.83-2.35h-30.41v1c.54 12.7 13.55 22.64 29.63 22.64.75 0 1.51 0 2.33-.07h.2l.18-.09a4.29 4.29 0 001.72-1.55l3 .56v12.23l.84.14a26.79 26.79 0 004.67.4c1 0 1.94-.05 3-.14l.57-.07.4-.06c.64-.08 1.28-.16 1.91-.27l.62-.13.51-.11c.54-.12 1.1-.25 1.65-.4.38-.1.76-.23 1.15-.35s1-.33 1.51-.51l1.15-.46a35.168 35.168 0 002.52-1.19c.37-.2.86-.48 1.29-.73l.14-.08c.37-.22.66-.39.94-.57s.79-.55 1.18-.83l.27-.19.75-.55c.28-.22.53-.44.78-.66l.69-.59c.21-.18.4-.34.58-.51.6-.56 1.19-1.16 1.75-1.79.21-.24.41-.49.61-.74l.5-.62.54-.68c.26-.34.48-.69.71-1l.23-.35c.18-.27.35-.52.51-.78s.43-.76.64-1.14l.2-.38.41-.79c.2-.43.39-.87.58-1.32s.29-.73.42-1.09.33-.91.47-1.38.22-.76.31-1.13.24-.95.34-1.42v-.55a26.18 26.18 0 00.43-4.6 28.75 28.75 0 00-.51-4.18z" transform="translate(-11.23 -183.55)"/><path class="cls-2" d="M1015.42 260.54a18 18 0 00-.52-2.36v-.16a20.49 20.49 0 00-2.54-6.06c0-.05-.07-.11-.11-.17a22.7 22.7 0 00-.81-1.17l-.23-.31c-.27-.34-.54-.68-.82-1-.08-.1-.36-.4-.36-.4-.28-.3-.56-.6-.85-.88l-.53-.48c-.26-.24-.53-.48-.8-.7l-.32-.24-.1-.07a18.37 18.37 0 00-1.71-1.18l-.2-.13-.58-.34-.56-.29-.21-.1-.91-.44-.77-.32-1-.37c-.25-.08-.5-.16-.77-.23s-.72-.2-1.1-.29h-.18l-.55-.12c-.42-.08-.84-.14-1.27-.19h-.19l-.45-.06c-.73-.06-1.34-.09-1.92-.09a15.76 15.76 0 00-1.64.08 20.51 20.51 0 00-17.52 13.18l-.44 1.16-1-.66a6.94 6.94 0 00-3.77-1.11h-33l-.1 1.26c0 .69-.07 1.22-.07 1.73 0 14.43 14.52 26.18 32.38 26.18.93 0 1.89 0 2.93-.11h.2l.26-.1 1.34-.47v11.23l1.07.23a31.94 31.94 0 007.24.83c1 0 2.08-.05 3.21-.15l.69-.09h.35c.69-.09 1.38-.18 2.07-.3l.74-.28.37-.08c.6-.13 1.21-.27 1.8-.43l1.26-.38c.55-.18 1.1-.36 1.64-.56l1.25-.5c.51-.21 1-.44 1.52-.68l1.22-.61c.48-.25.94-.52 1.4-.8l.16-.09c.35-.2.68-.4 1-.62s.87-.6 1.29-.9l.25-.18.86-.63c.32-.25.62-.52.94-.79l.6-.51.69-.61c.65-.61 1.29-1.27 1.92-2 .26-.3.52-.62.77-.94l.4-.5c.22-.26.43-.52.64-.79s.55-.78.81-1.18l.2-.31c.2-.3.4-.6.58-.9s.49-.85.72-1.28l.14-.27c.18-.33.35-.65.51-1s.44-1 .64-1.45.33-.8.47-1.2.36-1 .51-1.51.24-.84.35-1.26.27-1.05.39-1.66a1.72 1.72 0 000-.2l.06-.46a29.32 29.32 0 00.45-4.93 26.59 26.59 0 00-.39-4.25zm-2.68 8.87v.55c-.1.47-.21.94-.34 1.42s-.19.75-.31 1.13-.3.92-.47 1.38-.27.72-.42 1.09-.38.89-.58 1.32l-.41.79-.2.38c-.21.38-.41.76-.64 1.14s-.33.51-.51.78l-.23.35c-.23.35-.45.7-.71 1l-.54.68-.5.62c-.2.25-.4.5-.61.74-.56.63-1.15 1.23-1.75 1.79-.18.17-.37.33-.58.51l-.69.59c-.25.22-.5.44-.78.66l-.75.55-.27.19c-.39.28-.78.57-1.18.83s-.57.35-.94.57l-.14.08c-.43.25-.85.5-1.29.73s-.75.38-1.12.56-.93.43-1.4.63l-1.15.46c-.49.18-1 .35-1.51.51s-.77.25-1.15.35c-.55.15-1.11.28-1.65.4l-.51.11-.62.13c-.63.11-1.27.19-1.91.27l-.4.06-.57.07c-1.08.09-2.06.14-3 .14a26.79 26.79 0 01-4.67-.4l-.84-.14V280.2l-3-.56a4.29 4.29 0 01-1.72 1.55l-.18.09h-.2c-.82.05-1.58.07-2.33.07-16.08 0-29.09-9.94-29.63-22.64v-1h30.49a4.31 4.31 0 013.83 2.35l3.1-.24a17.75 17.75 0 0116.08-14.7c.46 0 .91-.07 1.4-.07s1.06 0 1.67.09h.55c.37.05.73.1 1.09.17l.49.1h.15q.48.1 1 .24l.66.21c.29.1.58.2 1 .36l.55.23.79.38.24.12.43.22c.14.08.28.16.46.28l.23.13c.51.32 1 .66 1.48 1l.35.26c.23.18.44.37.7.6l.45.42c.26.25.5.51.74.76l.31.35c.25.27.48.56.72.87l.21.28c.24.32.47.65.72 1l.07.11a17.65 17.65 0 012.19 5.24l.24 1.14.16.82a28.75 28.75 0 01.51 4.18 26.18 26.18 0 01-.66 4.8z" transform="translate(-11.23 -183.55)"/><path class="cls-2" d="M984.34 293h-3.05c-.63 0-1.27-.11-1.92-.18H979l-.6-.07c-1-.15-2-.33-2.91-.55a29.07 29.07 0 01-5.37-1.87l-1.2 2.46a31.65 31.65 0 005.93 2.06c1 .25 2 .44 3.16.61l.73.08h.31c.7.08 1.39.16 2.08.2h3.4z" transform="translate(-11.23 -183.55)"/><path class="cls-3" d="M1003.75 256.89a2.66 2.66 0 11-2.66-2.67 2.66 2.66 0 012.66 2.67z" transform="translate(-11.23 -183.55)"/><path class="cls-1" d="M1001.09 255.59a1.3 1.3 0 00-1.3 1.3 1.3 1.3 0 002.59 0 1.3 1.3 0 00-1.29-1.3z" transform="translate(-11.23 -183.55)"/><path class="cls-2" d="M1001.09 252.86a4 4 0 104 4 4 4 0 00-4-4zm0 5.27a1.25 1.25 0 01-1.3-1.24 1.3 1.3 0 112.59 0 1.25 1.25 0 01-1.29 1.24z" transform="translate(-11.23 -183.55)"/><path class="cls-2" d="M993.53 71.97h15.94v2.73h-15.94z"/><path class="cls-2" transform="rotate(-18.13 431.12 196.719)" d="M1004.32 251.95h15.74v2.73h-15.74z"/><path class="cls-4" d="M992.54 291.51a20.71 20.71 0 01-.2-2.83c0-11.3 9.11-20.61 20.7-21.65a26.43 26.43 0 01-.38 2.72v.48c-.11.49-.23 1-.35 1.43s-.21.76-.33 1.13-.32.94-.5 1.4-.28.72-.44 1.08-.41.91-.63 1.35-.34.63-.51.95l-.05.08c-.24.42-.48.85-.74 1.27-.17.27-.35.52-.53.77l-.28.4c-.24.34-.47.68-.72 1s-.39.46-.58.69l-.5.58c-.22.26-.44.53-.68.78-.6.64-1.22 1.25-1.85 1.81a7.22 7.22 0 01-.6.5l-.71.58c-.28.23-.55.46-.84.68l-.79.54-.3.21c-.45.31-.85.58-1.26.84s-.62.36-.94.54l-.2.12c-.46.25-.91.5-1.37.73s-.79.38-1.19.57l-1.48.63-1.22.46z" transform="translate(-11.23 -183.55)"/><path class="cls-2" d="M29.07 327.85h20.99v2.73H29.07zm-12.04 0h5.65v2.73h-5.65zm-3.97-10.09h20.99v2.73H13.06zm-12.05 0h5.65v2.73H1.01zm899.9-229.48h20.99v2.73h-20.99zm-12.04 0h5.65v2.73h-5.65zM884.9 78.2h20.99v2.73H884.9zm-12.05 0h5.65v2.73h-5.65z"/></g><g id="Layer_6" data-name="Layer 6"><path class="cls-2" d="M668.82 328.79h-45.43a1.92 1.92 0 00-1.91 1.91V561a1.92 1.92 0 003.83 0V332.62h41.6V561a1.91 1.91 0 103.82 0V330.7a1.92 1.92 0 00-1.91-1.91z" transform="translate(-11.23 -183.55)"/><path class="cls-10" d="M584.7 424.9V321.15a52.32 52.32 0 10-104.63 0V424.9z" transform="translate(-11.23 -183.55)"/><path class="cls-1" d="M532.38 270.74A50.46 50.46 0 00482 321.15V423h100.79V321.15a50.46 50.46 0 00-50.41-50.41z" transform="translate(-11.23 -183.55)"/><path class="cls-2" d="M532.38 266.92a54.28 54.28 0 00-54.22 54.23V424.9a1.91 1.91 0 001.91 1.91H584.7a1.91 1.91 0 001.91-1.91V321.15a54.28 54.28 0 00-54.23-54.23zM582.79 423H482V321.15a50.41 50.41 0 11100.81 0zm86.03 19.35h-32.11a1.92 1.92 0 000 3.83h32.11a1.92 1.92 0 000-3.83zm0 18.8h-20.36a1.92 1.92 0 100 3.83h20.36a1.92 1.92 0 000-3.83z" transform="translate(-11.23 -183.55)"/><path class="cls-3" d="M428.08 115.14h178.85v103H428.08z"/><path class="cls-1" d="M430 117.05h175.02v99.17H430z"/><path class="cls-2" d="M437.4 403.59h182.67V296.77H437.4zm3.83-103h175v99.17h-175z" transform="translate(-11.23 -183.55)"/><path class="cls-3" d="M618 298.57H439.29l22.34 19.06L477.31 331c1.83 1.56 4.25 3.62 6.66 5.69l20.87 17.8L522 369.12a10.68 10.68 0 0013.34 0l17.15-14.63 20.86-17.8L580 331l15.67-13.37z" transform="translate(-11.23 -183.55)"/><path class="cls-1" d="M444.48 300.48l35.41 30.22c1.6 1.36 3.47 2.94 5.33 4.54l38 32.42a9 9 0 0010.86 0l78.76-67.18z" transform="translate(-11.23 -183.55)"/><path class="cls-2" d="M575.59 337.29c2.07-1.77 4.08-3.49 5.67-4.83l37-31.57-1.56-4.23H440.62l-1.56 4.23 81.69 69.68a12.57 12.57 0 0015.82 0zm-46.93 32.19a8.42 8.42 0 01-5.43-1.82l-38-32.42c-1.86-1.6-3.73-3.18-5.33-4.54l-35.41-30.22h168.36l-78.76 67.18a8.44 8.44 0 01-5.43 1.82z" transform="translate(-11.23 -183.55)"/><path class="cls-2" transform="rotate(-40.8 217.381 298.59)" d="M432.33 373.35h74.83v3.82h-74.83z"/><path class="cls-2" transform="rotate(-49.2 382.168 295.75)" d="M586.34 337.85h3.82v74.83h-3.82z"/><path class="cls-9" d="M700.81 268.83c-.32 0-.62 0-.94.05v-.1H535.41v.2a52.27 52.27 0 0149.29 52.17V424.9h168.42V321.15a52.31 52.31 0 00-52.31-52.32z" transform="translate(-11.23 -183.55)"/><path class="cls-1" d="M700.81 270.74l-.9.05a2.46 2.46 0 01-.49-.05l-.21-.05H553.38l6.16 3.56a54.39 54.39 0 0127.07 46.9V423h164.6V321.15a50.46 50.46 0 00-50.4-50.41z" transform="translate(-11.23 -183.55)"/><path class="cls-2" d="M700.81 266.92h-165.4a1.92 1.92 0 00-1.91 1.92v.2a1.92 1.92 0 001.8 1.91 50.39 50.39 0 0147.49 50.26V424.9a1.92 1.92 0 001.91 1.91h168.42a1.92 1.92 0 001.88-1.91V321.15a54.29 54.29 0 00-54.19-54.23zM751.21 423h-164.6V321.15a54.39 54.39 0 00-27.07-46.9l-6.16-3.56h145.83l.21.05a2.46 2.46 0 00.49.05l.9-.05a50.46 50.46 0 0150.4 50.41z" transform="translate(-11.23 -183.55)"/><path class="cls-2" d="M604.17 20.46h3.82v130.26h-3.82z"/><path class="cls-7" d="M606.08 68.83V33.32h61.32l-13.3 17.76 13.3 17.75h-61.32z"/><path class="cls-1" d="M651.71 51.08l11.87-15.85H608v31.68h55.58l-11.87-15.83z"/><path class="cls-2" d="M667.72 234.62L682.46 215H615.4v39.32h67.06zm-48.49-15.84h55.58l-11.87 15.84 11.87 15.84h-55.58z" transform="translate(-11.23 -183.55)"/></g><g id="Layer_5" data-name="Layer 5"><g clip-path="url(#clip-path)"><path class="cls-3" d="M563.73 494.37a5.81 5.81 0 01-5.82 5.82h-40.47a5.82 5.82 0 01-5.83-5.82 5.82 5.82 0 015.83-5.82h40.47a5.81 5.81 0 015.82 5.82z" transform="translate(-11.23 -183.55)"/><path class="cls-2" d="M557.91 501.76h-40.47a7.39 7.39 0 010-14.78h40.47a7.39 7.39 0 010 14.78zm-40.47-11.65a4.26 4.26 0 000 8.52h40.47a4.26 4.26 0 000-8.52z" transform="translate(-11.23 -183.55)"/><path class="cls-10" d="M507.5 546.59v-15.16c0-4.62 4.23-8.37 9.46-8.37h41.53c5.23 0 9.47 3.75 9.47 8.37v15.16z" transform="translate(-11.23 -183.55)"/><path class="cls-2" d="M569.52 546.59h-3.13v-15.16c0-3.75-3.54-6.81-7.9-6.81H517c-4.35 0-7.9 3.06-7.9 6.81v15.16h-3.13v-15.16c0-5.48 4.95-9.94 11-9.94h41.53c6.08 0 11 4.46 11 9.94z" transform="translate(-11.23 -183.55)"/><rect class="cls-3" x="506.26" y="281.37" width="41.35" height="58.13" rx="16.28"/><path class="cls-2" d="M542.56 524.62h-8.78a17.87 17.87 0 01-17.85-17.85V481.2a17.86 17.86 0 0117.85-17.84h8.78a17.86 17.86 0 0117.85 17.84v25.57a17.87 17.87 0 01-17.85 17.85zm-8.78-58.14a14.73 14.73 0 00-14.72 14.72v25.57a14.73 14.73 0 0014.72 14.72h8.78a14.73 14.73 0 0014.72-14.72V481.2a14.73 14.73 0 00-14.72-14.72z" transform="translate(-11.23 -183.55)"/><path class="cls-4" d="M558.84 509.64v-27.57a16.23 16.23 0 00-5.39-12.07 22.29 22.29 0 01.15 2.47V498s-1.23 8.13-3.23 11c-1.91-3.66-6.65-6.25-12.2-6.25s-10.29 2.59-12.2 6.25c-2-2.9-3.23-11-3.23-11v-17.17a20.1 20.1 0 005.76-14.41v-.6a16.28 16.28 0 00-11 15.38V522a5.62 5.62 0 005.62 5.61h.53a5.55 5.55 0 003.78-1.48 5.61 5.61 0 005.57 5h.54a5.6 5.6 0 004.67-2.51 5.63 5.63 0 004.68 2.51h.53a5.6 5.6 0 005.57-5 5.58 5.58 0 003.79 1.48h.53a5.61 5.61 0 005.61-5.61v-11.53a5.57 5.57 0 00-.08-.83z" transform="translate(-11.23 -183.55)"/><path class="cls-2" d="M543.41 532.62h-.53a7.16 7.16 0 01-4.68-1.73 7.11 7.11 0 01-4.67 1.73H533a7.17 7.17 0 01-6.48-4.09 7.2 7.2 0 01-2.87.6h-.53a7.18 7.18 0 01-7.18-7.17V481.2a17.86 17.86 0 0112-16.86l2-.69.08 2.32v.45a21.77 21.77 0 01-5.76 15.05v16.45a51 51 0 001.93 8.09 17.34 17.34 0 0123.87 0 50.09 50.09 0 001.94-8.09v-25.46a19.89 19.89 0 00-.15-2.29l-.47-4.11 3.07 2.77a17.86 17.86 0 015.92 13.24v27.45a8.34 8.34 0 01.07 1V522a7.18 7.18 0 01-7.18 7.17h-.53a7.25 7.25 0 01-2.88-.6 7.16 7.16 0 01-6.44 4.05zm-5.21-6.9l1.3 2a4.05 4.05 0 003.38 1.82h.53a4 4 0 004-3.58l.35-3 2.26 2.07a4 4 0 002.73 1.06h.53a4.05 4.05 0 004.05-4v-11.62a4.68 4.68 0 00-.05-.6v-27.8a14.7 14.7 0 00-2.11-7.56v23.76c-.13.87-1.35 8.58-3.5 11.69l-1.47 2.14-1.2-2.31c-1.69-3.23-6-5.41-10.81-5.41s-9.12 2.18-10.81 5.41l-1.2 2.31-1.5-2.1c-2.14-3.11-3.36-10.82-3.49-11.69v-18.14l.48-.46a18.28 18.28 0 005.21-11.49 14.71 14.71 0 00-7.8 13V522a4 4 0 004.05 4h.53a4 4 0 002.73-1.06l2.26-2.07.35 3a4 4 0 004 3.58h.54a4 4 0 003.37-1.82z" transform="translate(-11.23 -183.55)"/><path class="cls-2" d="M549.9 480.79c-12.88 0-23-6.06-23-13.79h3.12c0 5.78 9.09 10.67 19.84 10.67a31.16 31.16 0 0012.71-2.54l1.3 2.85a34 34 0 01-13.97 2.81z" transform="translate(-11.23 -183.55)"/><path class="cls-4" d="M558.55 478.19a16.28 16.28 0 00-16-13.27h-8.78a16.34 16.34 0 00-5.17.85 7.21 7.21 0 00-.11 1.23c0 6.75 9.58 12.23 21.4 12.23a35.35 35.35 0 008.66-1.04z" transform="translate(-11.23 -183.55)"/><path class="cls-2" d="M549.9 480.79c-12.88 0-23-6.06-23-13.79a8.44 8.44 0 01.13-1.5l.16-.92.88-.29a17.78 17.78 0 015.67-.93h8.78a17.83 17.83 0 0117.53 14.54l.27 1.44-1.42.36a36.7 36.7 0 01-9 1.09zM530.06 467c0 5.78 9.09 10.67 19.84 10.67a33.92 33.92 0 006.76-.66 14.71 14.71 0 00-14.1-10.53h-8.78a14.67 14.67 0 00-3.72.52z" transform="translate(-11.23 -183.55)"/><path class="cls-3" d="M541.69 500.38a3.44 3.44 0 01-3.44 3.44 3.44 3.44 0 01-3.44-3.44z" transform="translate(-11.23 -183.55)"/><path class="cls-2" d="M538.25 505.38a5 5 0 01-5-5h3.13a1.88 1.88 0 003.75 0h3.13a5 5 0 01-5.01 5zm-3.92-17.69a3.86 3.86 0 00-5.45 0l-2.21-2.21a7 7 0 019.88 0z" transform="translate(-11.23 -183.55)"/><path class="cls-2" d="M518.48 306.35h3.79v3.13h-3.79z"/><path class="cls-2" d="M547 487.69a3.86 3.86 0 00-5.45 0l-2.21-2.21a7 7 0 019.87 0z" transform="translate(-11.23 -183.55)"/><path class="cls-2" d="M531.15 306.35h3.79v3.13h-3.79z"/><path class="cls-3" d="M534.24 511.82v1.52a2.91 2.91 0 002.91 2.91h2a2.91 2.91 0 002.91-2.91v-1.52z" transform="translate(-11.23 -183.55)"/><path class="cls-2" d="M539.19 517.81h-2a4.48 4.48 0 01-4.48-4.47v-3.08h11v3.08a4.48 4.48 0 01-4.52 4.47zm-3.39-4.43a1.35 1.35 0 001.35 1.31h2a1.36 1.36 0 001.35-1.31z" transform="translate(-11.23 -183.55)"/></g><path class="cls-2" d="M538.54 546.34a47.3 47.3 0 1147.3-47.3 47.36 47.36 0 01-47.3 47.3zm0-91.47A44.17 44.17 0 10582.71 499a44.21 44.21 0 00-44.17-44.13z" transform="translate(-11.23 -183.55)"/><g clip-path="url(#clip-path-2)"><path class="cls-4" d="M723.76 521v-5.72a11.07 11.07 0 0111.07-11.07h15.93a11.06 11.06 0 0111.06 11.07V521z" transform="translate(-11.23 -183.55)"/><path class="cls-2" d="M762.9 521h-2.16v-5.72a10 10 0 00-10-10h-15.91a10 10 0 00-10 10V521h-2.16v-5.72a12.16 12.16 0 0112.15-12.15h15.93a12.16 12.16 0 0112.14 12.15z" transform="translate(-11.23 -183.55)"/><path class="cls-3" d="M742.79 512.05a5 5 0 01-4.95-4.95v-26.51a5 5 0 014.95-4.95 5 5 0 015 4.95v26.51a5 5 0 01-5 4.95z" transform="translate(-11.23 -183.55)"/><path class="cls-2" d="M742.79 513.13a6 6 0 01-6-6v-26.54a6 6 0 0112.07 0v26.51a6 6 0 01-6.07 6.03zm0-36.41a3.88 3.88 0 00-3.87 3.87v26.51a3.88 3.88 0 007.75 0v-26.51a3.88 3.88 0 00-3.88-3.87z" transform="translate(-11.23 -183.55)"/><path class="cls-7" d="M763.55 481.81a7.68 7.68 0 00-5.21-7.21 4.34 4.34 0 00-4.31-5.51h-.11a15.58 15.58 0 00-26.38 8.1 7.53 7.53 0 00-.75 12.59 5.53 5.53 0 00-.52 2.31c0 3.49 3.34 6.31 7.47 6.31s7.48-2.82 7.48-6.31a5.75 5.75 0 00-.09-.93h11a4.56 4.56 0 108.17-3.16 7.56 7.56 0 003.25-6.19z" transform="translate(-11.23 -183.55)"/><path class="cls-2" d="M733.74 499.49c-4.72 0-8.55-3.31-8.55-7.39a6.4 6.4 0 01.31-2 8.6 8.6 0 011.07-13.59 16.67 16.67 0 0127.8-8.51 5.49 5.49 0 015.21 5.43v.48a8.63 8.63 0 012.16 14.32 5.64 5.64 0 11-10.5 4h-8.94c-.1 4.03-3.9 7.26-8.56 7.26zm9.12-33.92a14.52 14.52 0 00-14.26 11.83l-.09.48-.42.25a6.45 6.45 0 00-.65 10.8l.7.53-.37.79a4.34 4.34 0 00-.42 1.85c0 2.88 2.87 5.23 6.39 5.23s6.4-2.35 6.4-5.23a3.47 3.47 0 00-.08-.74l-.22-1.27h13.26l.09 1a3.48 3.48 0 106.25-2.42l-.67-.88.91-.65a6.47 6.47 0 002.79-5.31 6.6 6.6 0 00-4.49-6.19l-1-.34.27-1a3.24 3.24 0 00.12-.86 3.34 3.34 0 00-3.39-3.28h-.55l-.32-.33a14.42 14.42 0 00-10.25-4.26z" transform="translate(-11.23 -183.55)"/><path class="cls-3" d="M756.72 481.28v7.61c0 6.77-6.2 12.25-13.86 12.25-7.65 0-13.85-5.48-13.85-12.25v-8.26l6-3.33 2.33-3.86 1.24-2.38 1.46 2.38 6 5.15 6 1.67 4.7.44z" transform="translate(-11.23 -183.55)"/><path class="cls-3" d="M755.74 481.39a4.1 4.1 0 011.45-.26 4.23 4.23 0 010 8.45z" transform="translate(-11.23 -183.55)"/><path class="cls-2" d="M757.19 490.66v-2.16a3.15 3.15 0 000-6.29 3 3 0 00-1.08.19l-.74-2a5.31 5.31 0 111.82 10.29z" transform="translate(-11.23 -183.55)"/><path class="cls-3" d="M729.81 489.58a4.23 4.23 0 010-8.45z" transform="translate(-11.23 -183.55)"/><path class="cls-2" d="M729.81 490.66a5.31 5.31 0 010-10.61v2.16a3.15 3.15 0 000 6.29z" transform="translate(-11.23 -183.55)"/><path class="cls-2" d="M742.86 502.22a15 15 0 01-14.93-14.93v-6.42h2.16v6.42a12.78 12.78 0 0025.55 0v-6.42h2.16v6.42a15 15 0 01-14.94 14.93z" transform="translate(-11.23 -183.55)"/><path class="cls-2" d="M742.89 496.79a10.93 10.93 0 01-4-.79l.8-2a8.68 8.68 0 007.35-.39l1 1.91a10.87 10.87 0 01-5.15 1.27zm-14.07-14.35l-.71-2a16.71 16.71 0 002.51-1.1 13.57 13.57 0 007.12-10.21l2.06-.31 2 4.23c2.64 5.72 9.48 7.42 15 7.11l.13 2.16c-6.24.35-14-1.66-17.1-8.37l-.66-1.41a15.6 15.6 0 01-7.51 8.71 18.23 18.23 0 01-2.84 1.19z" transform="translate(-11.23 -183.55)"/><path class="cls-2" d="M725.02 300.01h2.52v2.16h-2.52zm10.12 0h2.52v2.16h-2.52zm-1.66 7.71h-3.8v-8.07h2.16v5.91h1.64v2.16z"/></g><path class="cls-2" d="M744.09 519.67A32.68 32.68 0 11776.77 487a32.72 32.72 0 01-32.68 32.67zm0-63.2A30.52 30.52 0 10774.6 487a30.55 30.55 0 00-30.51-30.53z" transform="translate(-11.23 -183.55)"/><g clip-path="url(#clip-path-3)"><path class="cls-9" d="M491.75 235a8.49 8.49 0 01-8.5 8.49 8.5 8.5 0 01-8.5-8.49v-2.84a8.5 8.5 0 018.5-8.49 8.49 8.49 0 018.5 8.49z" transform="translate(-11.23 -183.55)"/><path class="cls-2" d="M483.25 244.44a9.51 9.51 0 01-9.5-9.49v-2.84a9.5 9.5 0 0119 0V235a9.51 9.51 0 01-9.5 9.44zm0-19.83a7.52 7.52 0 00-7.5 7.5V235a7.5 7.5 0 0015 0v-2.84a7.51 7.51 0 00-7.5-7.55z" transform="translate(-11.23 -183.55)"/><path class="cls-3" d="M493.26 232.28a3.63 3.63 0 11-3.59-3.05 3.35 3.35 0 013.59 3.05z" transform="translate(-11.23 -183.55)"/><path class="cls-2" d="M489.67 236.33a4.08 4.08 0 114.59-4.05 4.35 4.35 0 01-4.59 4.05zm0-6.1a2.11 2.11 0 102.59 2.05 2.37 2.37 0 00-2.59-2.05z" transform="translate(-11.23 -183.55)"/><path class="cls-3" d="M477.89 257.36a4.59 4.59 0 01-4.58-4.59v-24.53a4.58 4.58 0 014.58-4.58 4.58 4.58 0 014.58 4.58v24.53a4.59 4.59 0 01-4.58 4.59z" transform="translate(-11.23 -183.55)"/><path class="cls-2" d="M477.89 258.36a5.59 5.59 0 01-5.58-5.59v-24.53a5.58 5.58 0 0111.16 0v24.53a5.59 5.59 0 01-5.58 5.59zm0-33.7a3.59 3.59 0 00-3.58 3.58v24.53a3.58 3.58 0 107.16 0v-24.53a3.58 3.58 0 00-3.58-3.58z" transform="translate(-11.23 -183.55)"/><path class="cls-3" d="M489.22 230.9a11.89 11.89 0 01-11.89 11.89 11.88 11.88 0 01-11.88-11.89v-5a11.88 11.88 0 0111.88-11.9 11.89 11.89 0 0111.89 11.89z" transform="translate(-11.23 -183.55)"/><path class="cls-2" d="M477.33 243.79a12.9 12.9 0 01-12.88-12.89v-5a12.89 12.89 0 1125.77 0v5a12.9 12.9 0 01-12.89 12.89zm0-28.79a10.9 10.9 0 00-10.88 10.89v5a10.89 10.89 0 1021.77 0v-5A10.9 10.9 0 00477.33 215z" transform="translate(-11.23 -183.55)"/><path class="cls-3" d="M474.69 237.14a2.83 2.83 0 005.13 0z" transform="translate(-11.23 -183.55)"/><path class="cls-2" d="M477.25 239.78a4 4 0 01-3.42-2.14l1.73-1a1.83 1.83 0 003.39 0l1.73 1a4 4 0 01-3.43 2.14z" transform="translate(-11.23 -183.55)"/><path class="cls-4" d="M463.46 262.67v-9.39a4 4 0 014-3.95h20.5a4 4 0 013.95 3.95v9.39z" transform="translate(-11.23 -183.55)"/><path class="cls-2" d="M492.86 262.67h-2v-9.39a3 3 0 00-2.95-2.95h-20.5a3 3 0 00-3 2.95v9.39h-2v-9.39a5 5 0 015-4.95h20.5a5 5 0 014.95 4.95zm-9.47-31.12a4.08 4.08 0 01-2.9-1.2l1.41-1.41a2.13 2.13 0 001.49.61 2.09 2.09 0 001.48-.61l1.42 1.41a4.11 4.11 0 01-2.9 1.2z" transform="translate(-11.23 -183.55)"/><path class="cls-9" d="M462.59 228.47v15.47h2.17c6.62 0 12-8.87 12-15.49v-15a15 15 0 00-14.17 15.02z" transform="translate(-11.23 -183.55)"/><path class="cls-2" d="M464.76 244.94h-3.17v-16.47a16 16 0 0115.11-16l1.05-.06v16c0 7.46-5.99 16.53-12.99 16.53zm-1.17-2h1.17c5.82 0 11-8.1 11-14.49v-13.88a14 14 0 00-12.16 13.9z" transform="translate(-11.23 -183.55)"/><path class="cls-2" d="M460.27 244.94h-2v-2h2c5.6 0 10.15-4.93 10.15-11h2c0 7.17-5.42 13-12.15 13z" transform="translate(-11.23 -183.55)"/><path class="cls-9" d="M477.92 213.48v1.1a17.21 17.21 0 0014.16 14.79v-.9a15 15 0 00-14.16-14.99z" transform="translate(-11.23 -183.55)"/><path class="cls-2" d="M493.08 230.55l-1.16-.2a18.28 18.28 0 01-15-15.64v-2.29l1.06.06a16 16 0 0115.1 16zm-14.15-16a16.28 16.28 0 0012.15 13.57 14 14 0 00-12.15-13.55z" transform="translate(-11.23 -183.55)"/><rect class="cls-4" x="460.96" y="63.06" width="11.33" height="6.5" rx="1"/><path class="cls-2" d="M482.52 254.11h-9.33a2 2 0 01-2-2v-4.5a2 2 0 012-2h9.33a2 2 0 012 2v4.5a2 2 0 01-2 2zm-9.33-6.5v4.5h9.33v-4.5z" transform="translate(-11.23 -183.55)"/><path class="cls-2" d="M463.52 65.39h2v3.83h-2z"/></g><path class="cls-2" d="M478.47 263.79a30.25 30.25 0 1130.25-30.24 30.28 30.28 0 01-30.25 30.24zm0-58.49a28.25 28.25 0 1028.25 28.25 28.28 28.28 0 00-28.25-28.25z" transform="translate(-11.23 -183.55)"/><g clip-path="url(#clip-path-4)"><path d="M738.24 279.4v-11.76a8.33 8.33 0 018.34-8.34h24.68a8.34 8.34 0 018.34 8.34v11.76z" transform="translate(-11.23 -183.55)" fill="#f8c44f"/><path class="cls-2" d="M781 279.4h-2.78v-11.76a7 7 0 00-7-6.95h-24.64a7 7 0 00-7 6.95v11.76h-2.78v-11.76a9.73 9.73 0 019.73-9.73h24.68a9.74 9.74 0 019.73 9.73z" transform="translate(-11.23 -183.55)"/><path class="cls-3" d="M754.76 80.7l-7.07 4.08-7.07-4.08V65.27h14.14V80.7z"/><path class="cls-2" d="M758.92 269.94l-8.46-4.89v-17.63h16.92v17.63zm-5.68-6.49l5.68 3.28 5.68-3.28V250.2h-11.36z" transform="translate(-11.23 -183.55)"/><path class="cls-3" d="M734.93 50.83h.27a3.26 3.26 0 013.26 3.26v3.2a3.26 3.26 0 01-3.26 3.26h-.27a3.26 3.26 0 01-3.26-3.26v-3.2a3.27 3.27 0 013.26-3.26z"/><path class="cls-2" d="M746.44 245.5h-.28a4.66 4.66 0 01-4.65-4.66v-3.2a4.66 4.66 0 014.65-4.66h.28a4.66 4.66 0 014.65 4.66v3.2a4.66 4.66 0 01-4.65 4.66zm-.28-9.74a1.88 1.88 0 00-1.87 1.88v3.2a1.88 1.88 0 001.87 1.88h.28a1.88 1.88 0 001.87-1.88v-3.2a1.88 1.88 0 00-1.87-1.88z" transform="translate(-11.23 -183.55)"/><path class="cls-3" d="M768.3 50.83h.27a3.26 3.26 0 013.26 3.26v3.2a3.26 3.26 0 01-3.26 3.26h-.27a3.26 3.26 0 01-3.3-3.26v-3.2a3.27 3.27 0 013.3-3.26z"/><path class="cls-2" d="M779.8 245.5h-.27a4.66 4.66 0 01-4.65-4.66v-3.2a4.66 4.66 0 014.65-4.66h.27a4.66 4.66 0 014.66 4.66v3.2a4.66 4.66 0 01-4.66 4.66zm-.27-9.74a1.88 1.88 0 00-1.87 1.88v3.2a1.88 1.88 0 001.87 1.88h.27a1.88 1.88 0 001.88-1.88v-3.2a1.88 1.88 0 00-1.88-1.88z" transform="translate(-11.23 -183.55)"/><rect class="cls-3" x="735.15" y="29.93" width="32.67" height="41.36" rx="8.34"/><path class="cls-2" d="M770.71 256.23h-16a9.74 9.74 0 01-9.71-9.73v-24.68a9.73 9.73 0 019.73-9.73h16a9.74 9.74 0 019.73 9.73v24.68a9.75 9.75 0 01-9.75 9.73zm-16-41.36a7 7 0 00-7 6.95v24.68a7 7 0 007 6.95h16a7 7 0 006.95-6.95v-24.68a7 7 0 00-6.95-6.95z" transform="translate(-11.23 -183.55)"/><path class="cls-3" d="M752.4 240.07v6a2.75 2.75 0 002.75 2.74h6z" transform="translate(-11.23 -183.55)"/><path class="cls-2" d="M764.5 250.2h-9.35a4.14 4.14 0 01-4.14-4.13v-9.36zm-10.71-6.78v2.65a1.36 1.36 0 001.36 1.35h2.64zm4.1-9.42a6.18 6.18 0 01-4.39-1.81l2-2a3.43 3.43 0 004.85 0l2 2a6.18 6.18 0 01-4.46 1.81zm14.83 0a6.18 6.18 0 01-4.39-1.81l2-2a3.43 3.43 0 004.85 0l2 2a6.18 6.18 0 01-4.46 1.81z" transform="translate(-11.23 -183.55)"/><path class="cls-10" d="M757.56 206.35a11.33 11.33 0 00-11 8.56 8.34 8.34 0 00-3.67 6.91v13.86h.73a8.33 8.33 0 008.34-8.34v-4a8.43 8.43 0 002.57.41h21.9a8.33 8.33 0 008.34-8.34v-9z" transform="translate(-11.23 -183.55)"/><path class="cls-2" d="M743.63 237.07h-2.12v-15.25a9.73 9.73 0 013.85-7.75 12.72 12.72 0 0112.2-9.11h28.61v10.43a9.74 9.74 0 01-9.73 9.73h-21.9a9.45 9.45 0 01-1.18-.07v2.29a9.73 9.73 0 01-9.73 9.73zm13.93-29.33a10 10 0 00-9.65 7.51l-.13.51-.43.3a6.94 6.94 0 00-3.06 5.76v12.44a7 7 0 006.29-6.92v-5.93l1.82.59a7.24 7.24 0 002.14.34h21.9a7 7 0 006.95-7v-7.65zm12.14 36.32v-2.78a1.39 1.39 0 10-1.39-1.39h-2.78a4.18 4.18 0 114.17 4.17z" transform="translate(-11.23 -183.55)"/><path class="cls-2" d="M753.95 40.36h2.78v15.99h-2.78z"/></g><path class="cls-2" d="M765.12 276.54a42.06 42.06 0 1142.06-42.06 42.11 42.11 0 01-42.06 42.06zm0-81.33a39.28 39.28 0 1039.28 39.27 39.32 39.32 0 00-39.28-39.27z" transform="translate(-11.23 -183.55)"/></g></svg>