<svg xmlns="http://www.w3.org/2000/svg" viewBox="0 0 570 522.72"><defs><style>.cls-1{fill:#ffcb05}.cls-2{fill:#fff}.cls-3{fill:none}.cls-4{fill:#1b2c38}.cls-5{fill:#27c7cd}</style></defs><g id="Layer_4" data-name="Layer 4"><path class="cls-1" d="M764.13 430.33a46.53 46.53 0 11-46.53-46.52 46.53 46.53 0 0146.53 46.52z" transform="translate(-217.54 -40.91)"/><path class="cls-2" d="M746 430.33A28.39 28.39 0 11717.6 402a28.39 28.39 0 0128.4 28.33z" transform="translate(-217.54 -40.91)"/><path class="cls-3" d="M717.6 403.55a26.78 26.78 0 1026.78 26.78 26.8 26.8 0 00-26.78-26.78z" transform="translate(-217.54 -40.91)"/><path class="cls-4" d="M717.6 400.34a30 30 0 1030 30 30 30 0 00-30-30zm0 56.77a26.78 26.78 0 1126.78-26.78 26.81 26.81 0 01-26.78 26.78z" transform="translate(-217.54 -40.91)"/><path class="cls-3" d="M717.6 401.33c-26.29 0-50.71 10.6-65.34 28.36l-.53.64.53.64c14.62 17.75 39 28.35 65.34 28.35s50.73-10.6 65.4-28.32l.53-.64-.53-.64c-14.67-17.79-39.1-28.39-65.4-28.39z" transform="translate(-217.54 -40.91)"/><path class="cls-4" d="M717.6 398.12c-28.21 0-54.07 11.68-69.18 31.23l-.75 1 .75 1c15.11 19.55 41 31.22 69.18 31.22s54.08-11.67 69.19-31.22l.75-1-.75-1c-15.11-19.55-40.97-31.23-69.19-31.23zM783 431c-14.62 17.75-39.05 28.35-65.35 28.35s-50.72-10.6-65.34-28.35l-.53-.64.53-.64c14.63-17.76 39-28.36 65.34-28.36s50.73 10.6 65.35 28.36l.53.64zm-35.59-51.93l-1.57 2.8c.91.53 1.82 1.09 2.7 1.68l1.82-2.64c-.97-.64-1.95-1.26-2.95-1.84zm-62.53 1.82l1.82 2.64c.88-.58 1.79-1.15 2.7-1.68l-1.56-2.8c-1 .58-1.99 1.2-2.96 1.84zm9.66-5.19l1.3 2.93c1-.41 2-.8 3-1.15l-1-3.05c-1.15.39-2.23.81-3.3 1.27zm-23.24 17.61q-1.08 1.37-2.1 2.79l2.65 1.81q.93-1.31 1.92-2.55zm5.04-5.54l2.27 2.27c.77-.75 1.55-1.46 2.35-2.16l-2.05-2.46c-.91.75-1.74 1.58-2.57 2.35zm89.66 8.36c-.67-.95-1.37-1.88-2.09-2.79l-2.47 2.05c.66.83 1.3 1.68 1.91 2.54zm-57.13-21.21l-.44-3.17c-1.15.17-2.3.39-3.43.63l.73 3.13c1.04-.23 2.09-.42 3.14-.59zm8.42-3.92h-1.4l.15 3.21h3.17l.15-3.21h-1.73zm20.17 3.45l-1 3c1 .36 2 .74 3 1.16l1.31-2.94c-1.13-.41-2.22-.83-3.31-1.22zm18.87 10.99l-2.06 2.47c.81.69 1.59 1.41 2.35 2.15l2.28-2.27c-.84-.79-1.7-1.59-2.57-2.35zm-29.94-10.51c1.05.17 2.1.36 3.13.59l.74-3.13c-1.13-.24-2.28-.46-3.43-.64zm-39.72 102.18l-1.82 2.64c1 .64 1.95 1.26 2.95 1.84l1.57-2.8c-.91-.53-1.82-1.1-2.7-1.68zm9.13 4.89l-1.3 3c1.07.45 2.15.87 3.25 1.26l1-3c-.98-.45-1.97-.83-2.95-1.26zm9.2 6.26c1.13.25 2.28.46 3.42.64l.45-3.18c-1.05-.16-2.1-.36-3.13-.58zm-26.41-17.66l-2.28 2.26c.84.81 1.7 1.6 2.57 2.36l2.06-2.47c-.81-.69-1.59-1.41-2.35-2.15zm-4.84-5.33q-1-1.25-1.92-2.55l-2.65 1.81c.67 1 1.37 1.88 2.1 2.78zm62.65 17.91l1 3c1.09-.38 2.18-.81 3.25-1.26l-1.3-2.93c-.96.45-1.95.83-2.95 1.19zm17.85-10.41l2 2.47c.88-.76 1.74-1.54 2.57-2.35l-2.27-2.27c-.71.74-1.5 1.46-2.3 2.15zm-8.44 6.04l1.56 2.8c1-.59 2-1.2 3-1.84l-1.82-2.65a92.6 92.6 0 01-2.74 1.69zm-15.6 9.46l-.73-3.12c-1 .22-2.09.42-3.14.58l.44 3.18c1.14-.18 2.29-.39 3.43-.64zm33.15-25.52c-.62.87-1.26 1.72-1.92 2.54l2.47 2c.72-.9 1.42-1.83 2.1-2.78zm-44.19 23.64H716l-.14 3.21h3.48z" transform="translate(-217.54 -40.91)"/><path class="cls-4" d="M719.67 415h-4.13a6.77 6.77 0 00-6.76 6.76v3.51c0 1.38.62 3.41 3.58 5.32l7.29 2.84 1.14-3-6.79-2.62-.1-.06c-.89-.6-1.94-1.52-1.94-2.52v-3.51a3.56 3.56 0 013.55-3.55h4.13a3.56 3.56 0 013.55 3.55v.64h3.21v-.64a6.77 6.77 0 00-6.73-6.72z" transform="translate(-217.54 -40.91)"/><path class="cls-4" d="M722.76 431.22l-6.92-2.71-1.15 3 6.41 2.49.09.06c1.29.87 2 1.82 2 2.6v3.51a3.55 3.55 0 01-3.55 3.55h-4.13a3.55 3.55 0 01-3.55-3.55v-.63h-3.21v.63a6.76 6.76 0 006.76 6.76h4.13a6.76 6.76 0 006.76-6.76v-3.51c.03-1.42-.61-3.49-3.64-5.44z" transform="translate(-217.54 -40.91)"/><path class="cls-4" d="M498.77 369.61h3.21v5.69h-3.21zm0 34.54h3.21v5.69h-3.21z"/></g><g id="Layer_7" data-name="Layer 7"><path class="cls-1" d="M115.58 438.23l-22.24 12.84-22.25 12.85v-51.38l22.25 12.84 22.24 12.85z"/><path class="cls-4" d="M279.25 458.81c-.35-.7-.69-1.41-1-2.12l-2.17 1q.53 1.14 1.08 2.25zm20.54 22.41l-1.27 2c.7.43 1.41.85 2.14 1.26l1.14-2.08c-.67-.4-1.35-.77-2.01-1.18zm-5.41-3.81l-1.5 1.84c.65.51 1.31 1 2 1.51l1.38-1.93c-.64-.46-1.26-.94-1.88-1.42zm-4.92-4.41l-1.71 1.65c.58.59 1.18 1.17 1.79 1.74l1.6-1.76c-.57-.55-1.14-1.1-1.68-1.63zm28.2 17.81c.81.16 1.63.31 2.45.44l.35-2.35c-.77-.12-1.54-.26-2.31-.41z" transform="translate(-217.54 -40.91)"/><path class="cls-4" d="M167.65 376.45h2.37v2.42h-2.37z"/><path class="cls-4" d="M286.57 469.83c-.51-.6-1-1.21-1.49-1.82l-1.88 1.44c.51.65 1 1.3 1.57 1.93zm25.18 16.97l-.76 2.25c.79.26 1.59.5 2.38.73l.62-2.29c-.75-.22-1.5-.49-2.24-.69z" transform="translate(-217.54 -40.91)"/><path class="cls-4" d="M53.34 383.15h2.37v2.42h-2.37z"/><path class="cls-4" d="M324.5 491.77c.82.06 1.65.11 2.48.14l.07-2.37c-.78 0-1.57-.08-2.34-.14z" transform="translate(-217.54 -40.91)"/><path class="cls-4" d="M55.71 392.33v-2.41h-2.37v2.42l2.37-.01zm-2.37-15.94h2.37v2.42h-2.37z"/><path class="cls-4" d="M273.6 439.85q-.12-1.17-.21-2.34l-2.37.15c.06.82.14 1.65.23 2.47zm8.98 24.68c-.43-.64-.85-1.31-1.26-2l-2 1.21c.43.71.88 1.41 1.34 2.1zm-5.96-11.81c-.27-.73-.53-1.48-.76-2.22l-2.27.69c.25.79.52 1.58.8 2.36zm-1.89-6.35c-.18-.76-.34-1.52-.49-2.29l-2.34.42c.16.82.33 1.63.52 2.43zm30.87 38l-1 2.14c.74.35 1.51.68 2.27 1l.89-2.2c-.76-.31-1.45-.62-2.16-.94zm76.97-33.81c-.24.74-.49 1.48-.76 2.22l2.22.83c.29-.77.56-1.56.81-2.35zm-5.47 12.01q-.6 1-1.26 2l2 1.33c.46-.68.9-1.39 1.33-2.09zm3.09-5.84c-.32.71-.66 1.41-1 2.11l2.11 1.09c.37-.74.73-1.49 1.07-2.24zm4.01-12.59c-.15.77-.31 1.54-.49 2.3l2.29.56c.19-.8.36-1.62.51-2.43zm.64-4.22l2.36.28c.09-.82.17-1.65.23-2.47l-2.37-.15c-.06.78-.13 1.56-.22 2.34z" transform="translate(-217.54 -40.91)"/><path class="cls-4" d="M167.65 383.22h2.37v2.42h-2.37z"/><path class="cls-4" transform="rotate(-89.84 257.11 520.725)" d="M385.18 430.91h2.42v2.37h-2.42z"/><path class="cls-4" d="M356.6 482.42l1.15 2.08c.71-.41 1.43-.83 2.14-1.27l-1.27-2c-.62.41-1.34.77-2.02 1.19zM373.34 468c-.48.61-1 1.22-1.48 1.82l1.79 1.55c.54-.63 1.06-1.27 1.57-1.93zm-22.7 17.32l.89 2.2c.77-.32 1.54-.65 2.28-1l-1-2.15c-.73.33-1.45.63-2.17.95zm-12.72 3.59l.34 2.34c.82-.13 1.64-.27 2.45-.43l-.49-2.33c-.76.16-1.53.29-2.3.42zm6.46-1.42l.63 2.29c.79-.22 1.59-.46 2.37-.72l-.75-2.25c-.75.24-1.5.47-2.25.68zm-10.5 4.28l-.21-2.36c-.78.06-1.56.1-2.34.13l.06 2.37c.84-.03 1.67-.08 2.49-.14zm33.4-17.15l1.6 1.75c.61-.56 1.2-1.14 1.79-1.73L369 473c-.59.54-1.15 1.09-1.72 1.62zm-5.11 4.21l1.38 1.93c.67-.49 1.33-1 2-1.51l-1.55-1.84c-.57.48-1.2.96-1.83 1.42z" transform="translate(-217.54 -40.91)"/><path class="cls-4" d="M167.17 370.85h3.34v1.67h-3.34z"/><path class="cls-4" d="M398.12 432.91a69 69 0 01-68.44 68.94v2.38a71.41 71.41 0 0070.82-71.32v-26.26h-2.38zm-147.8-112.17a22.85 22.85 0 00-22.81 22.84V362h2.37v-18.4a20.45 20.45 0 1140.9 0v68.6h2.38v-68.6a22.86 22.86 0 00-22.84-22.86z" transform="translate(-217.54 -40.91)"/><path class="cls-2" d="M260 347.22l.74-.75a6.93 6.93 0 000-9.81l-.1-.1a6.93 6.93 0 00-9.81 0l-.74.75-.75-.75a6.92 6.92 0 00-9.8 0l-.11.1a6.93 6.93 0 000 9.81l.75.75 9.91 9.91z" transform="translate(-217.54 -40.91)"/></g><g id="Layer_5" data-name="Layer 5"><path class="cls-5" d="M316 192.9a29.4 29.4 0 01-58.06 0z" transform="translate(-217.54 -40.91)"/><path class="cls-4" d="M297.91 148.32l-.68-.18v-18h2.6v-16.9h-25.9v16.91h2.6v18l-.67.18a41.83 41.83 0 00-25 19.39 42.53 42.53 0 00-2 3.87l2.6 1.08a36.83 36.83 0 011.79-3.55 38.8 38.8 0 0124.93-18.49l1.09-.25v-23h-2.6v-11.33H297v11.29h-2.61v23l1.09.25a38.65 38.65 0 11-17.95 75.18l-.75 2.71a42 42 0 0010.07 1.23 41.5 41.5 0 0041.45-41.46 41 41 0 00-30.39-39.93z" transform="translate(-217.54 -40.91)"/><path class="cls-4" d="M66.95 117.63h2.81v2.71h-2.81z"/><path class="cls-4" transform="rotate(-30.03 110.039 550.004)" d="M293.7 163.55h2.72v2.81h-2.72z"/><path class="cls-4" transform="rotate(-60.03 151.066 343.236)" d="M293.86 174.05h2.81v2.72h-2.81z"/><path class="cls-4" d="M67.35 138.55h2.81v2.71h-2.81z"/><path class="cls-4" transform="rotate(-30 92.017 561.236)" d="M275.78 174.35h2.71v2.81h-2.71z"/><path class="cls-4" transform="rotate(-60.03 132.79 333.129)" d="M275.54 163.94h2.81v2.72h-2.81z"/><path class="cls-3" d="M246.68 182.13A26.34 26.34 0 10273 208.46a26.36 26.36 0 00-26.32-26.33z" transform="translate(-217.54 -40.91)"/><path class="cls-4" d="M246.68 179.33a29.14 29.14 0 1029.15 29.13 29.17 29.17 0 00-29.15-29.13zm0 55.47A26.34 26.34 0 11273 208.46a26.37 26.37 0 01-26.32 26.34z" transform="translate(-217.54 -40.91)"/><path class="cls-1" d="M246.68 229a20.56 20.56 0 1120.56-20.56A20.58 20.58 0 01246.68 229z" transform="translate(-217.54 -40.91)"/><path class="cls-4" d="M248.4 195.4H245a5.68 5.68 0 00-5.68 5.68V204c0 1.16.52 2.87 3 4.47l6 2.33 1-2.62-5.52-2.11-.09-.06c-.71-.48-1.56-1.22-1.56-2v-2.91a2.88 2.88 0 012.85-2.9h3.43a2.88 2.88 0 012.87 2.88v.43h2.81v-.43a5.68 5.68 0 00-5.71-5.68z" transform="translate(-217.54 -40.91)"/><path class="cls-4" d="M251 208.9l-5.68-2.23-1 2.62 5.23 2 .08.06c.5.33 1.64 1.2 1.64 2.08v2.91a2.87 2.87 0 01-2.87 2.87H245a2.87 2.87 0 01-2.87-2.87v-.43h-2.81v.43A5.68 5.68 0 00245 222h3.43a5.68 5.68 0 005.68-5.68v-2.91c-.03-1.14-.57-2.87-3.11-4.51z" transform="translate(-217.54 -40.91)"/><path class="cls-4" d="M28 150.97h2.81v4.54H28zm0 28.64h2.81v4.54H28z"/></g><g id="Layer_2" data-name="Layer 2"><path class="cls-4" d="M347.36 277.58l30.29-29.08-1.52-1.57-29.11 27.94-29.84-17.05-29.71 30.92 1.57 1.51 28.54-29.69 29.78 17.02z"/><path class="cls-2" d="M511.19 331.13a6.09 6.09 0 11-6.09-6.13 6.09 6.09 0 016.09 6.13z" transform="translate(-217.54 -40.91)"/><path class="cls-4" d="M505.1 339.31a8.18 8.18 0 118.18-8.18 8.19 8.19 0 01-8.18 8.18zm0-12.17a4 4 0 104 4 4 4 0 00-4-4z" transform="translate(-217.54 -40.91)"/><path class="cls-4" d="M505.1 338.3a7.18 7.18 0 117.18-7.17 7.18 7.18 0 01-7.18 7.17zm0-12.16a5 5 0 105 5 5 5 0 00-5-5z" transform="translate(-217.54 -40.91)"/><path class="cls-2" d="M541 300.09a6.09 6.09 0 11-6.08-6.08 6.08 6.08 0 016.08 6.08z" transform="translate(-217.54 -40.91)"/><path class="cls-4" d="M534.92 308.27a8.18 8.18 0 118.18-8.18 8.19 8.19 0 01-8.18 8.18zm0-12.16a4 4 0 104 4 4 4 0 00-4-4z" transform="translate(-217.54 -40.91)"/><path class="cls-4" d="M534.92 307.27a7.18 7.18 0 117.18-7.18 7.19 7.19 0 01-7.18 7.18zm0-12.17a5 5 0 105 5 5 5 0 00-5-5z" transform="translate(-217.54 -40.91)"/><path class="cls-2" d="M570.82 317.13a6.09 6.09 0 11-6.09-6.08 6.09 6.09 0 016.09 6.08z" transform="translate(-217.54 -40.91)"/><path class="cls-3" d="M564.73 312.14a5 5 0 105 5 5 5 0 00-5-5z" transform="translate(-217.54 -40.91)"/><path class="cls-4" d="M571.91 317.13a7.18 7.18 0 10-7.18 7.18 7.19 7.19 0 007.18-7.18zm-7.18 5a5 5 0 115-5 5 5 0 01-5 5z" transform="translate(-217.54 -40.91)"/><path class="cls-2" d="M601.24 287.93a6.09 6.09 0 11-6.08-6.09 6.08 6.08 0 016.08 6.09z" transform="translate(-217.54 -40.91)"/><path class="cls-4" d="M595.16 296.11a8.19 8.19 0 118.18-8.18 8.19 8.19 0 01-8.18 8.18zm0-12.17a4 4 0 104 4 4 4 0 00-4-4z" transform="translate(-217.54 -40.91)"/><path class="cls-4" d="M595.16 295.1a7.18 7.18 0 117.17-7.17 7.18 7.18 0 01-7.17 7.17zm0-12.17a5 5 0 105 5 5 5 0 00-5-5z" transform="translate(-217.54 -40.91)"/><path class="cls-1" d="M640.13 221.22h-26.4v-83.49a70.36 70.36 0 10-140.72 0v129.93h-26.4V137.73a96.76 96.76 0 11193.52 0z" transform="translate(-217.54 -40.91)"/><path class="cls-4" d="M587.78 65.63l-1.13 1.87a87.18 87.18 0 015.05 3.39l1.3-1.75a83.455 83.455 0 00-5.22-3.51zM601 75.69l-1.47 1.62c1.48 1.38 2.92 2.83 4.3 4.31l1.62-1.47c-1.45-1.54-2.95-3.03-4.45-4.46z" transform="translate(-217.54 -40.91)"/><path class="cls-4" d="M408.29 159.32h2.19v6.19h-2.19z"/><path class="cls-4" d="M572.88 58.33l-.74 2.05c1.9.71 3.78 1.5 5.62 2.34l.94-2c-1.91-.85-3.86-1.66-5.82-2.39zm49.86 49.92c-.73-2-1.54-3.91-2.41-5.81l-2 .94c.85 1.84 1.63 3.72 2.33 5.61zm-66.22-52c2 .32 4 .72 6 1.19l.53-2.12c-2-.49-4.11-.9-6.17-1.23zm53.68 33.17q1.78 2.46 3.39 5.06l1.87-1.13a83.53 83.53 0 00-3.5-5.23zM627 124.3a90.02 90.02 0 00-1.23-6.18l-2.12.53c.47 2 .86 4 1.18 6zm1 16.5v-3.07c0-1 0-2.11-.06-3.17l-2.18.1c0 1 .05 2.06.05 3.07v3.07z" transform="translate(-217.54 -40.91)"/><path class="cls-4" d="M408.29 142.92h2.19v6.2h-2.19zm0-16.41h2.19v6.19h-2.19zm0-16.4h2.19v6.2h-2.19zm-1 64.65h4.19v4.19h-4.19z"/><path class="cls-4" d="M408.29 175.76h2.19v2.19h-2.19z"/><path class="cls-1" d="M551.49 312.84a90.95 90.95 0 10-90.95 90.94 90.94 90.94 0 0090.95-90.94z" transform="translate(-217.54 -40.91)"/><path class="cls-4" d="M248.61 131.66h2.19v2.25h-2.19zm0-76.69h2.19v2.25h-2.19zm0 8.52h2.19v2.25h-2.19z"/><path class="cls-4" d="M466.83 80.94c-.23-.76-.48-1.51-.77-2.26l-2 .83c.25.66.48 1.33.68 2z" transform="translate(-217.54 -40.91)"/><path class="cls-4" d="M248.61 72.01h2.19v2.25h-2.19zm0 8.52h2.19v2.25h-2.19z"/><path class="cls-4" d="M440.51 56.65l-.4 2.15c.69.15 1.38.32 2.05.52l.67-2.09c-.77-.23-1.54-.41-2.32-.58zm8.28 2.91l-.92 2q.94.48 1.86 1l1.16-1.86q-1.03-.6-2.1-1.14zm7.47 8l1.58-1.51c-.56-.56-1.15-1.1-1.75-1.62l-1.38 1.69c.53.47 1.05.95 1.55 1.44z" transform="translate(-217.54 -40.91)"/><path class="cls-4" d="M248.61 165.75h2.19V168h-2.19z"/><path class="cls-4" d="M463.27 72.93c-.41-.68-.85-1.34-1.31-2l-1.75 1.3c.4.58.79 1.17 1.15 1.77z" transform="translate(-217.54 -40.91)"/><path class="cls-4" d="M248.61 157.22h2.19v2.25h-2.19zm0-17.04h2.19v2.25h-2.19zm0 8.52h2.19v2.25h-2.19z"/><path class="cls-4" d="M468.31 89.59c0-.8-.1-1.59-.19-2.38l-2.17.3c.08.7.14 1.41.17 2.11z" transform="translate(-217.54 -40.91)"/><path class="cls-4" d="M248.61 123.14h2.19v2.25h-2.19zm0-34.09h2.19v2.25h-2.19zm0 17.05h2.19v2.25h-2.19zm0-8.53h2.19v2.25h-2.19zm0 17.05h2.19v2.25h-2.19z"/><path class="cls-4" d="M491.73 128.7a10.58 10.58 0 0110.54 9.59h2.19a12.77 12.77 0 00-12.73-11.77A12.79 12.79 0 00479 139.29v79.14h2.19v-79.14a10.59 10.59 0 0110.54-10.59z" transform="translate(-217.54 -40.91)"/><path class="cls-4" d="M510.43 148a21.1 21.1 0 00-9.17-28.41 21.25 21.25 0 00-9.61-2.33 20.9 20.9 0 00-8.13 1.64l.93 2a18.8 18.8 0 017.2-1.43 19 19 0 018.62 2.09 18.93 18.93 0 01-8.64 35.77h-.25l-.14 2.18h.39a21 21 0 0018.8-11.51z" transform="translate(-217.54 -40.91)"/><path class="cls-4" d="M133.87 293.83h2.19v9.55h-2.19z"/><path class="cls-4" d="M130.18 297.51h9.55v2.19h-9.55zm-35.1 40.35h2.19v9.55h-2.19z"/><path class="cls-4" d="M91.4 341.54h9.55v2.19H91.4zm210.2-67.63h2.19v9.55h-2.19z"/><path class="cls-4" d="M297.92 277.59h9.55v2.19h-9.55zm190.37-26.06h2.19v13.88h-2.19z"/><path class="cls-4" d="M482.43 257.38h13.89v2.19h-13.89zM134.92 370.29h2.19v13.88h-2.19z"/><path class="cls-4" d="M129.06 376.13h13.89v2.19h-13.89z"/><path class="cls-4" d="M597.26 361.68a16.7 16.7 0 01.2 1.87h2.19a20.8 20.8 0 00-.26-2.39zM575.44 348l-.48-2.14a19.42 19.42 0 00-2.22.77l1 2a15.77 15.77 0 011.7-.63zm-8.07 2a20 20 0 00-1.67 1.65l1.71 1.37a18.12 18.12 0 011.32-1.31zm2.88 28.6l-1.37 1.71a19.48 19.48 0 002 1.26l1-2a18.15 18.15 0 01-1.63-.97zm-6.58-18.91a18.18 18.18 0 01.62-1.75l-2-1a18.3 18.3 0 00-.78 2.22zm2.45 14.76a15.94 15.94 0 01-1-1.57l-2 .94a19.58 19.58 0 001.24 2zm-2.91-7.1c-.1-.6-.16-1.21-.2-1.82h-2.19a19.83 19.83 0 00.26 2.32zm29.86 11.78a20 20 0 001.67-1.65L593 376.1a18.26 18.26 0 01-1.32 1.32zm-2.87-28.68l1.36-1.71a19.48 19.48 0 00-2-1.26l-1 2c.61.28 1.13.61 1.64.97zm4.13 4.14a15.94 15.94 0 011 1.57l2-1a21.45 21.45 0 00-1.25-2zm2.46 14.83c-.18.59-.38 1.17-.62 1.75l2 .95a19.32 19.32 0 00.78-2.21zm-13.2-24.03a18.27 18.27 0 00-2.33-.27v2.19c.62 0 1.24.11 1.85.21zm-6.75 38.29a20.25 20.25 0 002.33.26v-2.18a16.38 16.38 0 01-1.85-.22zm8.16-2.56l.48 2.14a19.58 19.58 0 002.23-.77l-1-2a17.35 17.35 0 01-1.71.63z" transform="translate(-217.54 -40.91)"/><path class="cls-4" d="M392.98 362.37h18.31v2.19h-18.31zm24.19 0h4.76v2.19h-4.76zm49.84-267.23h2.19v5.28h-2.19z"/><path class="cls-4" transform="rotate(-44.99 517.469 376.74)" d="M672.98 133.44h5.28v2.19h-5.28z"/><path class="cls-4" d="M451.28 82.51h5.28v2.19h-5.28z"/><path class="cls-4" transform="rotate(-44.99 517.471 356.684)" d="M674.53 111.84h2.18v5.28h-2.18z"/><path class="cls-4" d="M467.01 66.78h2.19v5.28h-2.19z"/><path class="cls-4" transform="rotate(-45 537.585 356.615)" d="M693.03 113.39h5.29v2.19h-5.29z"/><path class="cls-4" d="M479.64 82.51h5.28v2.19h-5.28z"/><path class="cls-4" transform="rotate(-45.01 537.556 376.614)" d="M694.58 131.89h2.19v5.28h-2.19z"/><path d="M663 217.24a53.69 53.69 0 100 75.92 53.74 53.74 0 000-75.92z" transform="translate(-217.54 -40.91)" fill="#f7f8fc"/><path class="cls-2" d="M664.17 216.1a55.31 55.31 0 100 78.2 55.38 55.38 0 000-78.2z" transform="translate(-217.54 -40.91)"/><path class="cls-5" d="M654.7 225.57a41.92 41.92 0 100 59.27 41.95 41.95 0 000-59.27z" transform="translate(-217.54 -40.91)"/><path class="cls-2" d="M645.4 234.87a28.77 28.77 0 100 40.67 28.79 28.79 0 000-40.67z" transform="translate(-217.54 -40.91)"/><path class="cls-1" d="M634.31 246a13.08 13.08 0 100 18.49 13.1 13.1 0 000-18.49z" transform="translate(-217.54 -40.91)"/><path class="cls-3" d="M663.73 216.53a54.66 54.66 0 1016 38.68 54.31 54.31 0 00-16-38.68z" transform="translate(-217.54 -40.91)"/><path class="cls-4" d="M665.28 215a56.88 56.88 0 10-40.21 97.08A56.87 56.87 0 00665.28 215zm-1.55 78.88a54.66 54.66 0 1116-38.66 54.27 54.27 0 01-16 38.65z" transform="translate(-217.54 -40.91)"/><path class="cls-1" d="M451.01 169.45l-3.49-10.46 19.76-19.77 3.49 10.47-19.76 19.76zm0 0l10.46 3.49 19.76-19.76-10.46-3.49-19.76 19.76z"/><path class="cls-3" d="M469.52 149.4l-2.71-8.15-18.04 18.03 2.72 8.15 18.03-18.03z"/><path class="cls-4" d="M689.56 190.89l-4.26-12.78-21.49 21.49 4.26 12.78zm-5.21-8.74l2.71 8.15-18 18-2.72-8.15z" transform="translate(-217.54 -40.91)"/><path class="cls-3" d="M471.06 150.94l-18.03 18.03 8.15 2.72 18.03-18.03-8.15-2.72z"/><path class="cls-4" d="M688 189.35l-21.49 21.49 12.78 4.26 21.49-21.49zm-9.3 23.25l-8.15-2.72 18-18 8.14 2.71z" transform="translate(-217.54 -40.91)"/><path class="cls-4" d="M691.31 186.62a1.08 1.08 0 00-.78.32l-66.92 66.93a1.06 1.06 0 00-.32.77 1.1 1.1 0 001.87.77l66.92-66.92a1.11 1.11 0 000-1.55 1.07 1.07 0 00-.77-.32zM397.2 340.12a33.92 33.92 0 11-67.83 0V320h-2.19v20.09a36.1 36.1 0 1072.2 0V111.45h-2.18z" transform="translate(-217.54 -40.91)"/><path class="cls-4" d="M425.48 75.06a28.31 28.31 0 00-28.27 28.28v10.74h2.18v-10.74a26.08 26.08 0 1152.16 0v97.2h2.18v-97.2a28.3 28.3 0 00-28.25-28.28z" transform="translate(-217.54 -40.91)"/><path class="cls-4" d="M425.59 118.83a15.71 15.71 0 00-15.69 15.7v5.3h2.18v-5.3a13.5 13.5 0 1127 0v80.76h2.18v-80.76a15.7 15.7 0 00-15.67-15.7z" transform="translate(-217.54 -40.91)"/><path class="cls-3" d="M328.27 271a23.2 23.2 0 1023.19 23.2 23.22 23.22 0 00-23.19-23.2z" transform="translate(-217.54 -40.91)"/><path class="cls-4" d="M328.27 268.82a25.38 25.38 0 1025.38 25.38 25.41 25.41 0 00-25.38-25.38zm0 48.58a23.2 23.2 0 1123.19-23.2 23.22 23.22 0 01-23.19 23.2z" transform="translate(-217.54 -40.91)"/><path class="cls-1" d="M328.27 312.2a18 18 0 1118-18 18 18 0 01-18 18z" transform="translate(-217.54 -40.91)"/><path class="cls-4" d="M329.77 282.89h-3a4.84 4.84 0 00-4.83 4.84v2.55c0 1.4.88 2.71 2.54 3.79l5 2 .78-2-4.67-1.79-.1-.06c-.93-.63-1.42-1.28-1.42-1.87v-2.55a2.65 2.65 0 012.65-2.65h3a2.65 2.65 0 012.65 2.65v.19h2.18v-.19a4.84 4.84 0 00-4.78-4.91z" transform="translate(-217.54 -40.91)"/><path class="cls-4" d="M332 294.71l-4.79-1.88-.78 2 4.41 1.7.09.06c.95.64 1.49 1.35 1.49 1.94v2.55a2.65 2.65 0 01-2.65 2.65h-3a2.65 2.65 0 01-2.65-2.65v-.19h-2.18v.19a4.83 4.83 0 004.83 4.83h3a4.83 4.83 0 004.83-4.83v-2.55c0-1.39-.9-2.72-2.6-3.82z" transform="translate(-217.54 -40.91)"/><path class="cls-4" d="M109.86 238.96h2.19v3.58h-2.19zm0 25.09h2.19v3.58h-2.19z"/><path class="cls-3" d="M642 354a6.57 6.57 0 106.57 6.57A6.58 6.58 0 00642 354z" transform="translate(-217.54 -40.91)"/><path class="cls-4" d="M650.75 360.53a8.76 8.76 0 10-8.76 8.76 8.77 8.77 0 008.76-8.76zM642 367.1a6.57 6.57 0 116.57-6.57 6.57 6.57 0 01-6.57 6.57z" transform="translate(-217.54 -40.91)"/><path class="cls-4" d="M241.04 212.12h4.19v14.55h-4.19z"/><path class="cls-4" transform="rotate(-45 269.084 516.942)" d="M425.15 267.52h4.19v14.55h-4.19z"/><path class="cls-4" d="M189.02 265.7h14.55v4.19h-14.55z"/><path class="cls-4" transform="rotate(-45.03 270.173 584.078)" d="M421.06 340.05h14.55v4.18h-14.55z"/><path class="cls-4" d="M240.51 305.27h8.37V324h-8.37z"/><path class="cls-4" d="M242.61 307.36h4.19v14.55h-4.19z"/><path class="cls-4" transform="rotate(-44.98 337.514 583.315)" d="M493.59 333.77h4.19v14.55h-4.19z"/><path class="cls-4" d="M284.26 264.14h14.55v4.19h-14.55z"/><path class="cls-4" transform="rotate(-45.01 336.397 515.773)" d="M487.31 271.6h14.55v4.19h-14.55z"/><path fill="#636c78" d="M241.59 467.16h104.65v55.55H241.59z"/><path class="cls-2" d="M540.1 502.05V490.3a34.62 34.62 0 0014-27.79v-60.29l-.65-13.32A12.92 12.92 0 00540.5 376c-7.13 0-12.92 2.55-12.92 9.68v-3.22a12.92 12.92 0 10-25.83 0V376a12.92 12.92 0 10-25.83 0v6.62c0-3.12-.12-73.78-.12-73.78a13.37 13.37 0 00-26.73 0L449 439.4l-.26-6.37v-26.7A19.72 19.72 0 00429 386.61h-6.56c-.29 0 .27 0 0 0v24.7s-.05 0 0 0v32.78l37.4 44.46s9.7 6.14 15.67 7.6v5.84z" transform="translate(-217.54 -40.91)"/><path class="cls-4" d="M556.16 462.51v-60.39l-.64-13.22a15 15 0 00-15-15 19.44 19.44 0 00-9.77 2.2l-1.85 1.07-1-1.88a15 15 0 00-22.24-4.81l-2.11 1.52-1.1-2.35a15 15 0 00-21.31-6.59L478 365l-.09-56.16a15.46 15.46 0 00-30.92 0v84.26l-3.54-3.1a21.82 21.82 0 00-14.45-5.49h-8.71l-.12 3.94h.17v21.44l-.16.06.16 1.64v33.29l38.11 45.29.27.17a88.69 88.69 0 0013.35 6.94l1.35.51V500h4.19v-5.38l-1.6-.39c-5.09-1.24-13.54-6.41-14.49-7l-.29-.18-36.7-43.63v-30.6l.25-.09-.25-1.56V388.7H429a17.66 17.66 0 0117.65 17.63v26.79l.18 4.32 4.27-.09.07-128.53a11.27 11.27 0 1122.54 0l.12 71.68H478V376a10.82 10.82 0 1121.64 0v4.36H504a10.83 10.83 0 0121.45 2.1v1.13h4.43c.92-3.65 4.47-5.5 10.58-5.5A10.92 10.92 0 01551.33 389l.65 13.22v60.29a32.35 32.35 0 01-13.14 26.12l-.83.63V500h4.18v-8.6l.75-.63a36.62 36.62 0 0013.22-28.26z" transform="translate(-217.54 -40.91)"/><path class="cls-4" d="M330.25 481.44h8.37v9.12h-8.37z"/><path class="cls-4" d="M332.34 483.53h4.19v4.94h-4.19z"/></g></svg>