<svg id="Layer_1" data-name="Layer 1" xmlns="http://www.w3.org/2000/svg" viewBox="0 0 569.57 273.87"><defs><style>.cls-12{fill:#fff}.cls-16,.cls-18{stroke-width:2px}.cls-3{fill-rule:evenodd}.cls-2,.cls-3{fill:#c2c5cb}.cls-16,.cls-18{stroke:#231f20}.cls-10,.cls-18{fill:#ffd86f}.cls-11{fill:#231f20}.cls-16,.cls-18{stroke-miterlimit:10}.cls-16{fill:#27c7cd}.cls-31{fill:#1a3a45}</style></defs><g id="Isolation_Mode" data-name="Isolation Mode"><path d="M400.56 194.88a11.27 11.27 0 01-11 11.5H193.89a11.3 11.3 0 01-11-11.52V88.58a11.29 11.29 0 0111-11.51h195.6a11.27 11.27 0 0111.07 11.47h0v106.34z" fill-rule="evenodd" stroke-width="2" stroke="#1b2c38" fill="#fff"/><path class="cls-2" d="M378.82 85h6.71a1.38 1.38 0 011.38 1.37v5a1.39 1.39 0 01-1.39 1.39h-6.7a1.38 1.38 0 01-1.38-1.38v-5a1.37 1.37 0 011.35-1.38z"/><rect class="cls-2" x="377.44" y="94.48" width="9.47" height="10.13" rx="1.69"/><path class="cls-3" d="M365.79 85h6.7a1.39 1.39 0 011.39 1.39v5a1.4 1.4 0 01-1.39 1.38h-6.7a1.4 1.4 0 01-1.39-1.38v-5a1.39 1.39 0 011.39-1.39z"/><rect class="cls-2" x="353.46" y="94.48" width="20.41" height="10.13" rx="1.81"/><rect class="cls-2" x="361.17" y="106.36" width="12.7" height="10.13" rx="1.81"/><rect class="cls-2" x="376.78" y="130.82" width="10.13" height="21.74" rx="1.81"/><path class="cls-3" d="M386.91 109.06v18.12a1.83 1.83 0 01-1.8 1.82h-6.55a1.82 1.82 0 01-1.81-1.82v-18.12a1.82 1.82 0 011.81-1.81h6.52a1.81 1.81 0 011.83 1.77z"/><rect class="cls-2" x="354.13" y="130.13" width="9.47" height="10.13" rx="1.69"/><rect class="cls-2" x="348.17" y="130.13" width="27" height="10.13" rx="1.69"/><path class="cls-2" d="M354.84 85h5.8a1.38 1.38 0 011.36 1.38v5a1.39 1.39 0 01-1.39 1.39h-5.8a1.38 1.38 0 01-1.38-1.38v-5A1.37 1.37 0 01354.8 85zm-11.14 0h5.8a1.38 1.38 0 011.38 1.37v5a1.39 1.39 0 01-1.39 1.39h-5.79a1.38 1.38 0 01-1.38-1.38v-5a1.37 1.37 0 011.37-1.38zm-11.08 0h5.8a1.38 1.38 0 011.38 1.37v5a1.39 1.39 0 01-1.39 1.39h-5.8a1.39 1.39 0 01-1.39-1.39v-5a1.39 1.39 0 011.4-1.38zm-11.12 0h5.8a1.37 1.37 0 011.4 1.34v5a1.39 1.39 0 01-1.39 1.39h-5.8a1.38 1.38 0 01-1.38-1.38v-5A1.39 1.39 0 01321.5 85zm-11.12 0h5.8a1.38 1.38 0 011.38 1.37v5a1.39 1.39 0 01-1.39 1.39h-5.8a1.38 1.38 0 01-1.37-1.37v-5a1.37 1.37 0 011.34-1.39zm-11.12 0h5.8a1.39 1.39 0 011.39 1.37v5a1.39 1.39 0 01-1.39 1.39h-5.8a1.39 1.39 0 01-1.39-1.39v-5a1.37 1.37 0 011.35-1.37zm-11.11 0H294a1.38 1.38 0 011.38 1.37v5a1.39 1.39 0 01-1.39 1.39h-5.8a1.39 1.39 0 01-1.39-1.39v-5a1.38 1.38 0 011.32-1.37z"/><path class="cls-3" d="M277 85h5.8a1.37 1.37 0 011.38 1.36v5a1.38 1.38 0 01-1.38 1.38H277a1.4 1.4 0 01-1.34-1.38v-5a1.39 1.39 0 011.43-1.36z"/><path class="cls-2" d="M265.92 85h5.78a1.38 1.38 0 011.38 1.37v5a1.4 1.4 0 01-1.38 1.36h-5.8a1.39 1.39 0 01-1.39-1.36v-5a1.37 1.37 0 011.37-1.37zm-11.12 0h5.8a1.39 1.39 0 011.4 1.38v5a1.39 1.39 0 01-1.39 1.39h-5.8a1.39 1.39 0 01-1.39-1.39v-5a1.37 1.37 0 011.34-1.38zm-11.1 0h5.8a1.38 1.38 0 011.38 1.37v5a1.39 1.39 0 01-1.39 1.39h-5.79a1.38 1.38 0 01-1.38-1.38v-5a1.37 1.37 0 011.37-1.38zm-11.13 0h5.8a1.38 1.38 0 011.38 1.37v5a1.39 1.39 0 01-1.39 1.39h-5.8a1.39 1.39 0 01-1.39-1.39v-5a1.38 1.38 0 011.37-1.37zm-11.12 0h5.8a1.38 1.38 0 011.38 1.37v5a1.39 1.39 0 01-1.39 1.39h-5.8a1.39 1.39 0 01-1.39-1.39v-5a1.38 1.38 0 011.37-1.37zm-11.11 0h5.8a1.38 1.38 0 011.38 1.37v5a1.39 1.39 0 01-1.39 1.39h-5.8a1.39 1.39 0 01-1.39-1.39v-5a1.39 1.39 0 011.4-1.38zm-12.49 0h6.71a1.38 1.38 0 011.38 1.37v5a1.39 1.39 0 01-1.39 1.39h-6.7a1.38 1.38 0 01-1.38-1.38v-5a1.37 1.37 0 011.35-1.38z"/><rect class="cls-2" x="341.62" y="94.48" width="9.3" height="10.13" rx="1.66"/><rect class="cls-2" x="329.56" y="94.48" width="9.3" height="10.13" rx="1.66"/><rect class="cls-2" x="317.5" y="94.48" width="9.3" height="10.13" rx="1.66"/><rect class="cls-2" x="305.44" y="94.48" width="9.3" height="10.13" rx="1.66"/><rect class="cls-2" x="293.38" y="94.48" width="9.29" height="10.13" rx="1.66"/><rect class="cls-2" x="281.32" y="94.48" width="9.3" height="10.13" rx="1.66"/><rect class="cls-2" x="269.26" y="94.48" width="9.29" height="10.13" rx="1.66"/><rect class="cls-2" x="257.2" y="94.48" width="9.3" height="10.13" rx="1.66"/><rect class="cls-2" x="245.13" y="94.48" width="9.3" height="10.13" rx="1.66"/><rect class="cls-2" x="233.08" y="94.48" width="9.3" height="10.13" rx="1.66"/><rect class="cls-2" x="221.01" y="94.48" width="9.3" height="10.13" rx="1.66"/><rect class="cls-2" x="208.96" y="94.48" width="9.3" height="10.13" rx="1.66"/><rect class="cls-2" x="196.47" y="94.48" width="9.47" height="10.13" rx="1.69"/><rect class="cls-2" x="196.47" y="106.36" width="16.15" height="10.13" rx="1.81"/><rect class="cls-2" x="196.47" y="118.24" width="18.51" height="10.13" rx="1.81"/><rect class="cls-2" x="196.47" y="130.13" width="24.97" height="10.13" rx="1.81"/><rect class="cls-2" x="214.12" y="106.36" width="9.96" height="10.13" rx="1.78"/><path class="cls-3" d="M228.19 106.38h6.37a1.78 1.78 0 011.78 1.78v6.57a1.78 1.78 0 01-1.78 1.78h-6.4a1.78 1.78 0 01-1.78-1.78v-6.55a1.77 1.77 0 011.73-1.81h.08z"/><rect class="cls-2" x="238.7" y="106.36" width="9.96" height="10.13" rx="1.78"/><rect class="cls-2" x="250.98" y="106.36" width="9.96" height="10.13" rx="1.78"/><rect class="cls-2" x="263.27" y="106.36" width="9.96" height="10.13" rx="1.78"/><path class="cls-3" d="M277.33 106.38h6.37a1.79 1.79 0 011.82 1.75v6.63a1.8 1.8 0 01-1.78 1.78h-6.41a1.79 1.79 0 01-1.77-1.78v-6.58a1.77 1.77 0 011.74-1.8z"/><rect class="cls-2" x="287.84" y="106.36" width="9.96" height="10.13" rx="1.78"/><rect class="cls-2" x="300.13" y="106.36" width="9.96" height="10.13" rx="1.78"/><rect class="cls-2" x="312.41" y="106.36" width="9.96" height="10.13" rx="1.78"/><path class="cls-3" d="M326.48 106.38h6.4a1.77 1.77 0 011.78 1.76v6.61a1.78 1.78 0 01-1.78 1.78h-6.4a1.8 1.8 0 01-1.78-1.78v-6.58a1.79 1.79 0 011.77-1.81z"/><rect class="cls-2" x="336.99" y="106.36" width="9.96" height="10.13" rx="1.78"/><rect class="cls-2" x="349.27" y="106.36" width="9.96" height="10.13" rx="1.78"/><rect class="cls-2" x="217.54" y="118.24" width="9.96" height="10.13" rx="1.78"/><rect class="cls-2" x="229.83" y="118.24" width="9.96" height="10.13" rx="1.78"/><rect class="cls-2" x="242.11" y="118.24" width="9.96" height="10.13" rx="1.78"/><rect class="cls-2" x="254.4" y="118.24" width="9.96" height="10.13" rx="1.78"/><rect class="cls-2" x="266.69" y="118.24" width="9.96" height="10.13" rx="1.78"/><rect class="cls-2" x="278.97" y="118.24" width="9.95" height="10.13" rx="1.78"/><rect class="cls-2" x="291.26" y="118.24" width="9.96" height="10.13" rx="1.78"/><rect class="cls-2" x="303.55" y="118.24" width="9.96" height="10.13" rx="1.78"/><rect class="cls-2" x="315.83" y="118.24" width="9.96" height="10.13" rx="1.78"/><rect class="cls-2" x="328.12" y="118.24" width="9.96" height="10.13" rx="1.78"/><rect class="cls-2" x="340.41" y="118.24" width="9.95" height="10.13" rx="1.78"/><rect class="cls-2" x="352.75" y="118.24" width="9.96" height="10.13" rx="1.78"/><rect class="cls-2" x="365.1" y="118.24" width="9.96" height="10.13" rx="1.78"/><rect class="cls-2" x="217.11" y="130.13" width="9.96" height="10.13" rx="1.78"/><path class="cls-3" d="M232 130.18h6.4a1.78 1.78 0 011.8 1.82v6.57a1.78 1.78 0 01-1.78 1.78H232a1.78 1.78 0 01-1.78-1.78V132a1.78 1.78 0 011.78-1.82z"/><rect class="cls-2" x="243.37" y="130.13" width="9.96" height="10.13" rx="1.78"/><rect class="cls-2" x="256.5" y="130.13" width="9.96" height="10.13" rx="1.78"/><rect class="cls-2" x="269.64" y="130.13" width="9.96" height="10.13" rx="1.78"/><rect class="cls-2" x="282.77" y="130.13" width="9.96" height="10.13" rx="1.78"/><rect class="cls-2" x="295.9" y="130.13" width="9.95" height="10.13" rx="1.78"/><rect class="cls-2" x="309.03" y="130.13" width="9.96" height="10.13" rx="1.78"/><rect class="cls-2" x="322.16" y="130.13" width="9.96" height="10.13" rx="1.78"/><rect class="cls-2" x="335.29" y="130.13" width="9.96" height="10.13" rx="1.78"/><path class="cls-3" d="M198.32 142.44h6.38a1.78 1.78 0 011.78 1.78v6.57a1.78 1.78 0 01-1.78 1.78h-6.4a1.78 1.78 0 01-1.78-1.78v-6.61a1.77 1.77 0 011.8-1.74z"/><rect class="cls-2" x="209.42" y="142.43" width="9.96" height="10.13" rx="1.78"/><rect class="cls-2" x="222.3" y="142.43" width="9.96" height="10.13" rx="1.78"/><rect class="cls-2" x="235.18" y="142.43" width="9.96" height="10.13" rx="1.78"/><rect class="cls-2" x="248.06" y="142.43" width="9.96" height="10.13" rx="1.78"/><path class="cls-3" d="M261.7 142.44h59v10.13h-70.86v-10.13z"/><rect class="cls-2" x="312.46" y="142.43" width="9.96" height="10.13" rx="1.78"/><rect class="cls-2" x="338.47" y="142.43" width="35.23" height="10.13" rx="1.69"/><rect class="cls-2" x="325.59" y="142.43" width="9.47" height="10.13" rx="1.69"/><path class="cls-3" d="M259.77 160.68h63.85a1.65 1.65 0 011.77 1.47v25.45a1.63 1.63 0 01-1.77 1.46h-63.85a1.63 1.63 0 01-1.77-1.46v-25.42a1.64 1.64 0 011.77-1.5z"/><rect class="cls-2" x="258" y="191.36" width="32.49" height="7.11" rx=".37"/><rect class="cls-2" x="292.9" y="191.36" width="32.49" height="7.11" rx=".37"/><path d="M212.35 78.88h15.23v3.17h-15.23zm143.44 0h15.23v3.17h-15.23z" fill="#b3b2b3" stroke-width="2" stroke="#1b2c38"/><path d="M162.32 1.38a3.17 3.17 0 00-3.14 3.2h0a3.37 3.37 0 00.14.89L180.7 75c.8 2.61 6 4.71 11.61 4.71H391c5.59 0 10.82-2.1 11.62-4.71l21.46-69.55a3.17 3.17 0 00-2.05-4h0a3.13 3.13 0 00-.91-.13z" fill="#e6e6e6" fill-rule="evenodd" stroke-width="2" stroke="#1b2c38"/><path d="M405.91 64.45l18-58.38a3.64 3.64 0 00-2.41-4.55h0a3.43 3.43 0 00-1.06-.14H163A3.62 3.62 0 00159.34 5h0a3.64 3.64 0 00.16 1.09l18 58.38A3.64 3.64 0 00181 67h221.43a3.65 3.65 0 003.48-2.55z" stroke="#231f20" fill="#333d44" fill-rule="evenodd" stroke-width="2"/><path fill="none" stroke-width="2" stroke="#1b2c38" d="M187.69 65.66h208l16.23-57.69H171.46l16.23 57.69z"/><path d="M158.44 4.72l18.37 59.66a8.07 8.07 0 007.72 5.7H399.7a7 7 0 006.66-4.83l19.72-60.49a2.87 2.87 0 00-1.84-3.62h0a3.17 3.17 0 00-.87-.14H161.18a2.88 2.88 0 00-2.87 2.88 3 3 0 00.13.84zm235.12 60.66H189.79a2.86 2.86 0 01-2.75-2l-14.65-52a2.88 2.88 0 012-3.54 3.33 3.33 0 01.77-.11h233.08a2.87 2.87 0 012.86 2.87 2.94 2.94 0 01-.11.78l-14.64 52a2.91 2.91 0 01-2.79 2z" fill="#c1c6cc" stroke-width="2" stroke="#1b2c38"/></g><g id="Layer_7" data-name="Layer 7"><rect x="223.19" y="35.71" width="140" height="4" rx="1.83" fill="#3c474c"/><rect class="cls-10" x="223.19" y="35.71" width="70" height="4" rx="1.83"/></g><g id="Layer_6" data-name="Layer 6"><path class="cls-11" d="M205.3 193.68a2 2 0 11-2-2 2 2 0 012 2z"/><path class="cls-10" d="M238.7 156.75c3.14-9.9 13.44-23.57 13.44-23.57-.74-4-6.81-4.54-11.36 0l-8.55 10.07-.84-19.72-1-22.28a3.89 3.89 0 00-7.78.37l.58 21.91h-1.49l-1.16-27.24a3.9 3.9 0 00-7.79.36l.71 26.61h-1.82l-.94-20.79a3.9 3.9 0 00-7.8.24v.13l.56 21a3.32 3.32 0 00-1.33.81l-.59-12.85a3.51 3.51 0 10-7-.59 3 3 0 000 .52v.41l.45 17a3.86 3.86 0 000 .68l.53 25.81c-.36 8 2.44 12.47 7.16 20.09l1.26 39.55 24.84-17.89-.48-20.08c.4-.49 5.7-5.6 10.4-20.55z"/><path class="cls-11" d="M202.81 217.6l-1.33-41.53c-4.7-7.59-7.54-12.17-7.17-20.5l-.53-25.74a4.09 4.09 0 010-.7l-.45-17a4.73 4.73 0 014.5-4.93h.23a4.68 4.68 0 013.78 1.87l-.17-6.23a5.13 5.13 0 014.87-5.34h.25a5.06 5.06 0 014.77 3.29l-.11-4.15a5.12 5.12 0 014.87-5.34h.24a5.11 5.11 0 015.14 4.88l.13 3.12a5.16 5.16 0 014.43-3h.33a5.14 5.14 0 015.11 4.88l1.7 38.9 6.54-7.71a11.47 11.47 0 017.85-3.64c3 0 5.17 1.66 5.65 4.23l.09.53-.32.42c-.1.14-10.21 13.62-13.26 23.21-4.23 13.34-8.91 19.06-10.36 20.61l.49 20.2zm-4.72-107.92a2.3 2.3 0 00-2.29 2.32v.06l.46 17.1v.07a4.51 4.51 0 000 .52l.53 25.85c-.34 7.66 2.2 11.76 6.82 19.2l.33.54 1.2 37.59 22.42-16.24-.49-20 .4-.37c.22-.21 5.42-5.21 10.1-20 2.88-9.06 11.4-20.9 13.28-23.46a3 3 0 00-3.11-1.75 8.89 8.89 0 00-6.06 2.86l-10.5 12.39-2-45.12a2.65 2.65 0 00-2.67-2.54h-.13a2.7 2.7 0 00-2.55 2.8l.62 23.19h-4l-1.21-28.39a2.66 2.66 0 00-2.68-2.51h-.13a2.66 2.66 0 00-2.55 2.78l.74 27.94-1.3-.06a12.06 12.06 0 00-1.7 0l-1.24.06-.93-22a2.65 2.65 0 00-2.67-2.54h-.08a2.66 2.66 0 00-2.55 2.78l.58 21.9-.81.31a2.08 2.08 0 00-.83.47l-2 2.38-.68-16a2.29 2.29 0 00-2.32-2.13z"/><path class="cls-12" d="M198.52 181.83h35.95v5.33h-35.95z"/><path class="cls-11" d="M235.7 188.38h-38.4v-7.77h38.4zm-35.95-2.44h33.51v-2.89h-33.51z"/><path fill="#8d96a1" d="M198.52 185.45h35.95v88.42h-35.95z"/><path class="cls-11" d="M199.74 273.87v-87.2h33.52v87.2h2.44v-89.64h-38.4v89.64h2.44z"/></g><path class="cls-10" d="M342.2 271.2v2.67H367l.59-4.44c4.62-7.6 7.36-12 6.92-20l.29-25.63a5 5 0 00-4.77-5.22 5.13 5.13 0 00-2.22.41 5 5 0 00-4.34-2.83 6 6 0 00-4.27 1.84c-.89-1.06-1.92-2.87-5.26-2.87a12.59 12.59 0 00-5.21 1.82l.68-23.38a5 5 0 00-10-.38l-1.41 44.3-8.58-9.93c-4.57-4.45-10.58-3.9-11.28.12 0 0 10.35 13.48 13.57 23.27 4.8 14.8 10.04 19.83 10.49 20.25z"/><path class="cls-11" d="M330.51 251.31c4.34 13.22 9 18.84 10.48 20.37v2.19h2.42l.1-3.14-.41-.37c-.2-.2-5.4-5.07-10.2-19.72-2.95-8.95-11.51-20.63-13.41-23.15.59-1.62 2.51-1.76 3.12-1.76a8.88 8.88 0 015.92 2.7l10.61 12.28 1.58-47.44a3.76 3.76 0 013.78-3.65h.19a3.78 3.78 0 013.61 3.94l-.76 26 2.06-1.65a12 12 0 014.45-1.56 4.36 4.36 0 014 2l.32.39.89 1.07.94-1a4.85 4.85 0 013.31-1.41 3.79 3.79 0 013.28 2.15l.51 1 1.07-.45a3.55 3.55 0 011.51-.31h.18a3.8 3.8 0 013.59 4l-.29 25.7c.41 7.48-2.07 11.56-6.59 19l-.32.54v4.79h2.15l.24-4.11c4.6-7.58 7.38-12.16 6.93-20.35l.29-25.59a6.26 6.26 0 00-6-6.47h-.2a7 7 0 00-1.44.16 6.22 6.22 0 00-4.84-2.6h-.22a7.45 7.45 0 00-3.93 1.29 6.69 6.69 0 00-5.42-2.35 13.37 13.37 0 00-3.93 1l.62-21.29a6.26 6.26 0 00-6-6.47h-.26a6.22 6.22 0 00-6.22 6l-1.37 41.21-6.61-7.64a11.38 11.38 0 00-7.69-3.47c-3 0-5.2 1.68-5.65 4.25l-.09.53.33.44c.1.18 10.26 13.46 13.37 22.95z"/><g id="Layer_4" data-name="Layer 4"><path d="M509.7 162.76a40.51 40.51 0 1140.51-40.51 40.51 40.51 0 01-40.51 40.51z" stroke-miterlimit="10" fill="#cfeaf3" stroke="#231f20" stroke-width="2"/><path d="M509.7 154.64a32.4 32.4 0 1132.4-32.4h0a32.44 32.44 0 01-32.4 32.4z" stroke-miterlimit="10" stroke="#231f20" stroke-width="2" fill="#fff"/><path class="cls-16" d="M509.7 146.53a24.29 24.29 0 1124.3-24.3 24.32 24.32 0 01-24.3 24.3z"/><path d="M509.7 138.38a16.17 16.17 0 1116.17-16.18h0a16.2 16.2 0 01-16.17 16.18z" fill="#f1f1f1" stroke-miterlimit="10" stroke="#231f20" stroke-width="2"/><path class="cls-16" d="M517.7 122.25a8.06 8.06 0 11-8.06-8.06 8.06 8.06 0 018.06 8.06z"/><path class="cls-18" d="M545.71 87.75l11.12 1.96 10.51-10.11-11.49-1.3-10.14 9.45zm-1.49-1.27l-1.97-11.1 10.12-10.53 1.3 11.5-9.45 10.13z"/><path class="cls-11" d="M510.87 123.43a1.72 1.72 0 11-2.56-2.3 1.07 1.07 0 01.19-.18l45.06-45 2.3 2.29z"/><path d="M482.7 92.27c-1.11.89-1.19 1.15-2.67 2.45l28.12 28.19 1.29-1.43 1.17-1z" fill="#cac8c8"/></g><g id="Layer_3" data-name="Layer 3"><rect x="46.65" y="71.58" width="77.46" height="97.87" rx="3.48" transform="rotate(-12.9 85.368 120.513)" stroke-width="2" stroke-miterlimit="10" fill="#fc3e59" stroke="#231f20"/><path stroke-width="2" stroke="#231f20" fill="#fff" d="M44.202 86.163l63.301-14.498 19.055 83.196-63.301 14.498z"/><path d="M91.56 80l-.78-3.39A2.06 2.06 0 0088.32 75h0L63 80.8a2.1 2.1 0 00-1.57 2.5l.78 3.41z" fill="#f89b22" stroke-miterlimit="10" stroke="#231f20" stroke-width="2"/><path class="cls-18" d="M91.25 78.5l-.77-3.39A2.08 2.08 0 0088 73.53l-25.3 5.85a2.05 2.05 0 00-1.56 2.47l.77 3.39z"/><path class="cls-18" d="M80 75.18a4.87 4.87 0 11-5.84-3.67A4.88 4.88 0 0180 75.18z"/><circle cx="75.23" cy="76.22" r="2.09" stroke-width="2" stroke-miterlimit="10" stroke="#231f20" fill="#fff"/><path class="cls-11" transform="rotate(-12.9 84.607 107.437)" d="M64.36 106.37h40.48v2.13H64.36z"/><path class="cls-11" transform="rotate(-12.9 86.556 115.944)" d="M66.31 114.88h40.48V117H66.31z"/><path class="cls-11" transform="rotate(-12.9 88.506 124.451)" d="M68.25 123.4h40.48v2.13H68.25z"/><path class="cls-11" transform="rotate(-12.9 90.456 132.958)" d="M70.2 131.92h40.48v2.13H70.2z"/><path d="M59.16 118.87a1.07 1.07 0 01-.76-.14l-1.93-1.27a1 1 0 011.09-1.63l1 .67 2-4a1 1 0 011.41-.12 1 1 0 01.33 1l-2.47 5a1 1 0 01-.62.51zm1.84 8.18a1 1 0 01-.75-.14l-1.93-1.27a1 1 0 111.1-1.64l1 .65 2-4a1 1 0 011.41-.15 1 1 0 01.34 1l-2.48 5a1 1 0 01-.61.5zm1.9 8.18a1 1 0 01-.75-.14l-1.93-1.28a1 1 0 01-.63-1.27 1 1 0 011.27-.62 1 1 0 01.43.28l1 .66 2-4a1 1 0 011.95.45 1 1 0 01-.21.42l-2.47 5a1 1 0 01-.62.5z" fill="#95d133"/></g><g id="Layer_2" data-name="Layer 2" stroke-width="2" stroke="#231f20"><path stroke-miterlimit="10" fill="#8d96a1" d="M18.263 156.674l22.045-18.44 5.126 6.13-22.045 18.439z"/><path stroke-miterlimit="10" fill="#8d96a1" d="M18.728 155.934l14.936-12.489 5.453 6.521-14.937 12.49z"/><path d="M11.87 176.18a6.8 6.8 0 01-8.73-10.4l22.16-18.55a6.76 6.76 0 015.7-1.45l5.46 6.52a6.83 6.83 0 01-2.46 5.36z" stroke-miterlimit="10" fill="#8d96a1"/><path d="M85.7 105.47a29.55 29.55 0 10-3.7 41.62h0a29.51 29.51 0 003.72-41.57h0zm-7.23 37.39a24 24 0 113-33.85 24 24 0 01-3 33.85z" stroke-linecap="round" stroke-linejoin="round" fill="#fff"/></g><g id="Layer_8" data-name="Layer 8"><path class="cls-12" d="M442.14 122.38a2.77 2.77 0 10-5.47-.88 2.6 2.6 0 000 .88z"/><path class="cls-11" d="M439.41 118.82a3.41 3.41 0 013.14 3.58v.42h-6.3v-.44a3.41 3.41 0 013.16-3.56zm2.29 3.18a2.3 2.3 0 10-4.59-.31 1.61 1.61 0 000 .31z"/><path fill="#f16839" d="M436.66 124.27h5.48V178h-5.48z"/><path class="cls-11" d="M436.26 123.87h6.3v54.51h-6.3zm5.48.81h-4.67v52.92h4.63z"/><path fill="#f5cd2d" d="M438.7 124.27h1.4V178h-1.4z"/><path class="cls-31" d="M436.66 122.35h5.48v3.37h-5.48z"/><path class="cls-11" d="M436.26 122h6.3v4.23h-6.3zm5.48.82h-4.67v2.55h4.63z"/><path class="cls-12" d="M440.51 185.49l1.65-7.5h-5.51l1.65 7.5h2.21z"/><path class="cls-11" d="M436.15 177.59h6.55l-1.83 8.32H438zm5.5.82h-4.49l1.47 6.68h1.55z"/><path class="cls-31" d="M438.29 185.45l1.12 5.09 1.11-5.09h-2.23z"/><path class="cls-11" d="M437.79 185.05H441l-1.62 7.41zm2.22.82h-1.21l.61 2.77z"/></g></svg>