<svg xmlns="http://www.w3.org/2000/svg" viewBox="0 0 570 384.9"><defs><style>.cls-12,.cls-2,.cls-5{fill:none}.cls-2{stroke:#e2e7ec;stroke-linecap:round;stroke-linejoin:round}.cls-2,.cls-5{stroke-width:2px}.cls-3{fill:#fff}.cls-4{fill:#e6e7e8}.cls-12,.cls-5{stroke:#1b2c38;stroke-miterlimit:10}.cls-13{fill:#fc3e59}.cls-15{fill:#ffd86f}.cls-16{fill:#ffcb05}.cls-17{fill:#1b2c38}</style></defs><g id="Layer_3" data-name="Layer 3"><path d="M244.74 324h-42.22a1.25 1.25 0 110-2.5h42.22a50.31 50.31 0 10-18.51-97.05 1.25 1.25 0 01-1 0 1.27 1.27 0 01-.65-.8A78 78 0 0071.3 240.19a1.27 1.27 0 01-.59 1 1.25 1.25 0 01-1.16.08 41.87 41.87 0 10-16.8 80.22h96.71a1.25 1.25 0 110 2.5H52.75a44.38 44.38 0 010-88.75 44 44 0 0116.15 3.06 80.46 80.46 0 01157.72-16.67A52.79 52.79 0 11244.74 324zm312.15-83.75H383.61a35.39 35.39 0 110-70.78 35.06 35.06 0 0111.85 2.06 53.78 53.78 0 01105.29 11 29.74 29.74 0 0138.59 18.18 23.44 23.44 0 0117.55-7.82 1.13 1.13 0 010 2.26 21.22 21.22 0 00-17.11 8.59 1.11 1.11 0 01-1.12.43 1.12 1.12 0 01-.88-.82 27.48 27.48 0 00-37.62-18.14 1.15 1.15 0 01-1.05-.07 1.12 1.12 0 01-.53-.92 51.51 51.51 0 00-101.27-10.95 1.11 1.11 0 01-.58.72 1.12 1.12 0 01-.93 0A33.12 33.12 0 10383.61 238h173.28a21.49 21.49 0 0019.33-12.23 1.14 1.14 0 011.51-.53 1.12 1.12 0 01.54 1.5 23.79 23.79 0 01-21.38 13.51z" transform="translate(-8.38 -25.96)" fill="#e2e7ec"/><path class="cls-2" d="M417.48 27.69a25.76 25.76 0 016.12-.69 26.14 26.14 0 0125.26 19.45 17 17 0 116.25 32.79h-13.92M401.42 39.3a26.13 26.13 0 0110.46-9.56M383 53.83A14.2 14.2 0 01397.51 52a25.83 25.83 0 011.65-8.08M423.7 79.2h-31.89A14.22 14.22 0 01377.59 65" transform="translate(-8.38 -25.96)"/><path class="cls-2" d="M428.01 53.24h-7.89"/></g><g id="Seo"><path class="cls-3" d="M158.87 63.86H426a3 3 0 013 3v317H155.87v-317a3 3 0 013-3z"/><path class="cls-4" d="M158.87 63.86H426a3 3 0 013 3v25.6H155.87v-25.6a3 3 0 013-3z"/><path class="cls-5" d="M164.25 409.86v-317a3 3 0 013-3h267.14a3 3 0 013 3v317" transform="translate(-8.38 -25.96)"/><path d="M192.47 104.12a3.17 3.17 0 11-3.17-3.12 3.17 3.17 0 013.17 3.12z" transform="translate(-8.38 -25.96)" fill="#e7643e"/><path d="M204.48 104.12a3.16 3.16 0 11-3.16-3.16 3.16 3.16 0 013.16 3.16z" transform="translate(-8.38 -25.96)" fill="#47cbd7"/><circle cx="204.96" cy="78.16" r="3.16" fill="#f5ab35"/><path class="cls-3" d="M228.69 74.84h165.49v7.15H228.69z"/><path class="cls-5" d="M155.42 92.41h273.59"/><path fill="#cfeaf3" d="M205.59 121.1h173.7v67.07h-173.7z"/><path d="M205.59 194.57h84.78v56.58h-84.78zm90.78 0h82.92v56.58h-82.92z" fill="#f2f3f4"/><path class="cls-4" d="M241.8 264.19h101.59v6.71H241.8z"/><path d="M208.77 285.79h173.91v4.82H208.77zm0 8.75h173.91v4.82H208.77zm28.79 8.76h116.33v4.82H237.56z" fill="#f1f2f2"/><path class="cls-4" d="M207.91 332.03h171.38v43.77H207.91z"/><path class="cls-12" d="M434.57 134.62l-3.65 5.82m22.77.65l-9.49 9.51m16.01 9.89l-5.81 3.37m19.4 11.93l-12.98 3.51m8.94 16.73l-6.72-.16m10.85 20.03l-12.98-3.44m-.09 18.81l-6.27-3.34m-.6 22.77l-9.53-9.47m-9.85 16.04l-3.38-5.8"/><path class="cls-13" d="M465.66 231.43l.55-11.3-11.27-.55a47.29 47.29 0 00-2.63-13.39l10.23-5.26-5.18-10.06-10 5.17a48.1 48.1 0 00-9-10.27l6.22-9.69-9.53-6.08-6.1 9.5a47.3 47.3 0 00-12.92-4.4l.54-11.49-11.3-.53-.53 11.27a47.21 47.21 0 00-13 2.53l-5.2-10.26-10.09 5.11 5.11 10.08a47.79 47.79 0 00-10.33 8.91l-9.64-6.29-6.18 9.48 9.46 6.16a47.35 47.35 0 00-4.48 12.89l-11.49-.61-.6 11.29 11.28.6a47.38 47.38 0 002.57 13.4l-10.26 5.22 5.11 10.05 10.06-5.13a48.13 48.13 0 008.94 10.31l-6.27 9.66 9.49 6.15 6.14-9.47a47.59 47.59 0 0012.9 4.45l-.59 11.49L409 281l.58-11.27a48 48 0 0013.39-2.6l5.24 10.24 10.07-5.16-5.15-10.05a48.36 48.36 0 0010.29-9l9.67 6.25 6.14-9.51-9.49-6.12a47.2 47.2 0 004.42-12.9zm-85.9-8.43a27.52 27.52 0 1124 26.34 27.53 27.53 0 01-24-26.34z" transform="translate(-8.38 -25.96)"/><path d="M407.26 187.34a34.47 34.47 0 1034.46 34.46 34.46 34.46 0 00-34.46-34.46zM406 249.48a27.52 27.52 0 1128.77-26.2 27.51 27.51 0 01-28.77 26.2z" transform="translate(-8.38 -25.96)" fill="#e52e51"/><path class="cls-15" d="M235.83 255.86l-5.23-28.35a53.91 53.91 0 10-20.6 23.62z" transform="translate(-8.38 -25.96)"/><path class="cls-12" d="M181.54 259.36a53.42 53.42 0 0028.5-8.23l25.79 4.73-5.23-28.35" transform="translate(-8.38 -25.96)"/><circle class="cls-16" cx="180.98" cy="205.77" r="38.19" transform="rotate(-8.98 11.545 246.214)"/><path class="cls-17" d="M180.5 230.33V226a25.87 25.87 0 01-14.68-6.51l4.36-5.18a20.6 20.6 0 0010.32 5.18V207.9q-6.75-1.6-9.88-4.23c-2.08-1.75-3.13-4.34-3.13-7.79a10.86 10.86 0 013.61-8.43 14.61 14.61 0 019.4-3.58v-3h3.81v3a24.87 24.87 0 0112.41 4.47l-3.88 5.49a19.23 19.23 0 00-8.53-3.46v11.21h.18q6.85 1.61 10.08 4.36t3.22 8a10.82 10.82 0 01-3.7 8.5 15.41 15.41 0 01-9.78 3.58v4.29zm-4.21-38.5a4.59 4.59 0 00-.33 6.5 11.92 11.92 0 004.54 2.24v-10.32a7.18 7.18 0 00-4.21 1.58zM188.85 218a4.28 4.28 0 001.67-3.46 4.35 4.35 0 00-1.31-3.31 13.21 13.21 0 00-4.9-2.29v10.73a8.28 8.28 0 004.54-1.67zm-31.49 44.52a2.91 2.91 0 103.74-1.71 2.91 2.91 0 00-3.74 1.71zM139.35 251a2.91 2.91 0 104.1-.34 2.91 2.91 0 00-4.1.34zm-12.98-17a2.91 2.91 0 104 1.09 2.91 2.91 0 00-4-1.09zM120 213.58a2.91 2.91 0 103.35 2.39 2.91 2.91 0 00-3.35-2.39zm1-21.36a2.91 2.91 0 102.33 3.39 2.91 2.91 0 00-2.33-3.39zm8.29-19.72a2.91 2.91 0 101 4 2.9 2.9 0 00-1-4zm14.52-15.7a2.91 2.91 0 10-.39 4.1 2.9 2.9 0 00.39-4.1zm19.03-9.8a2.91 2.91 0 10-1.78 3.71 2.91 2.91 0 001.78-3.71z" transform="translate(-8.38 -25.96)"/><path class="cls-16" d="M427.02 320.83h-12.01l-9.89-13.5-17.13-4.94-15.85 7.77-12.54 10.67-21.1 4.62-19.79-11.75-23.32-39.64-10.52 13.77-15.63 34.35-38.91 13.95-19.53-6.67-16.08 6.67-16.88-6.67-20.59 13.35v41.28h269.77v-63.26z"/><path class="cls-15" d="M427.19 329.46l-12.18 14.08-9.89-.73-17.13-17.36-15.85 11.26-12.54 6.83-25.16 9.74-15.73-14.3-17.81-31.56-10.1-11.39-21.56 48.38-29.45 15.23-28.99-16.83-16.08 10.54-16.88-4.28-20.59 8.56v26.46h269.77l.17-54.63z"/><path class="cls-17" d="M288.81 321.42h6.55v37.82h-6.55z"/><path class="cls-13" d="M279.38 340.33h12.71v43.32h-12.71z"/><path class="cls-13" d="M292.08 340.33h12.7v43.32h-12.7z"/><path class="cls-12" d="M278.76 354.36h26.65m-26.65 8.95h26.65"/><path d="M363.91 306.66v-11.91h-11.89a50.09 50.09 0 00-3.42-14l10.5-6-5.94-10.33-10.32 5.94a50.18 50.18 0 00-9.93-10.36l6.08-10.5-10.32-6-5.95 10.29a50.18 50.18 0 00-13.81-4v-12.11H297v11.89a49.4 49.4 0 00-13.56 3.3l-6-10.55-10.34 5.88 5.9 10.35a50.71 50.71 0 00-10.43 9.89l-10.46-6.14-6 10.28 10.25 6a50 50 0 00-4.08 13.78l-12.12-.07-.16 11.92 11.89.08a50.09 50.09 0 003.36 14l-10.53 6 5.9 10.35 10.38-5.92a50.44 50.44 0 009.91 10.41l-6.12 10.47 10.29 6 6-10.27a49.6 49.6 0 0013.79 4.05l-.05 12.12 11.91.05v-11.89a50 50 0 0014-3.39l6 10.51 10.34-5.92-5.91-10.32a50.65 50.65 0 0010.38-9.93l10.49 6.09 6-10.3-10.28-6a50 50 0 004-13.79zM264.6 302a37.47 37.47 0 1134.95 35 37.47 37.47 0 01-34.95-35z" transform="translate(-8.38 -25.96)" fill="#27c7cd"/><path class="cls-5" d="M363.91 306.66v-11.91h-11.89a50.09 50.09 0 00-3.42-14l10.5-6-5.94-10.33-10.32 5.94a50.18 50.18 0 00-9.93-10.36l6.08-10.5-10.32-6-5.95 10.29a50.18 50.18 0 00-13.81-4v-12.11H297v11.89a49.4 49.4 0 00-13.56 3.3l-6-10.55-10.34 5.88 5.9 10.35a50.71 50.71 0 00-10.43 9.89l-10.46-6.14-6 10.28 10.25 6a50 50 0 00-4.08 13.78l-12.12-.07-.16 11.92 11.89.08a50.09 50.09 0 003.36 14l-10.53 6 5.9 10.35 10.38-5.92a50.44 50.44 0 009.91 10.41l-6.12 10.47 10.29 6 6-10.27a49.6 49.6 0 0013.79 4.05l-.05 12.12 11.91.05v-11.89a50 50 0 0014-3.39l6 10.51 10.34-5.92-5.91-10.32a50.65 50.65 0 0010.38-9.93l10.49 6.09 6-10.3-10.28-6a50 50 0 004-13.79zm-99.39-7.05A37.47 37.47 0 11302 337.08a37.48 37.48 0 01-37.48-37.47z" transform="translate(-8.38 -25.96)"/><path class="cls-5" d="M109.15 383.9h369.71"/><path class="cls-12" d="M348 60a2.7 2.7 0 11-2.7-2.7A2.7 2.7 0 01348 60zm112.54 249.76a2.7 2.7 0 11-2.69-2.7 2.69 2.69 0 012.69 2.7z" transform="translate(-8.38 -25.96)"/><path class="cls-12" d="M154.19 48.74h68.95m8.51 0h-5.63m14.13 0h-5.06m14.41 0h9.61m-4.81 4.81v-9.62m217.28 267.18h9.61m-4.81 4.81v-9.61M119.96 81.99h9.61m-4.8 4.81v-9.61M88.81 233.4h9.61m-4.8 4.81v-9.62M231.66 34.05h86.9m2.82 14.69h37.63m78.64 262.17H457"/><path stroke="#414042" stroke-miterlimit="10" fill="none" d="M95.07 329.08h48.67"/><path class="cls-12" d="M302.76 48.74l7.67 4.43v-8.86l-7.67 4.43 7.67 4.43v-8.86l-7.67 4.43zm160.71 218.81l7.68 4.43v-8.86l-7.68 4.43 7.68 4.43v-8.86l-7.68 4.43zM418.61 35.62l-7.68 4.43v-8.86l7.68 4.43-7.68 4.43v-8.86l7.68 4.43zm-295.37 80.35l-7.67 4.43v-8.86l7.67 4.43-7.67 4.43v-8.86l7.67 4.43z"/></g></svg>