<svg id="Seo" xmlns="http://www.w3.org/2000/svg" viewBox="0 0 569.9 388.66"><defs><style>.cls-3{fill:#f1f2ec}.cls-4{fill:#1b2c38}.cls-6{fill:#f8d87e}</style></defs><path fill="#e23052" d="M204.68 140.17h-67.32l10.44-33.98-10.44-33.98h67.32v67.96z"/><path fill="#d12850" d="M173.38 78.13l31.3-5.92-1.06 18.77-30.24-12.85z"/><path class="cls-3" d="M293.91 328.65h-5.74a8.75 8.75 0 01-8.72-8.72 8.75 8.75 0 018.72-8.72h5.74a8.75 8.75 0 018.72 8.72 8.75 8.75 0 01-8.72 8.72z" transform="translate(-.08 -25.72)"/><path class="cls-4" d="M293.91 330.12h-5.74a10.2 10.2 0 110-20.39h5.74a10.2 10.2 0 110 20.39zm-5.74-17.43a7.24 7.24 0 000 14.48h5.74a7.24 7.24 0 000-14.48zm7.1 62.31h-1.36v-3h1.35c1.51 0 3 0 4.51-.08l.1 3c-1.52.08-3.05.08-4.6.08zm-7.35-.2c-2-.11-4-.26-6-.47l.3-2.94c1.94.2 3.88.35 5.84.46zm17.94-.22l-.24-2.94q2.92-.26 5.82-.61l.37 2.94q-2.96.4-5.95.63zm-29.85-1q-3-.44-5.91-1l.58-2.9c1.9.37 3.83.7 5.76 1zm41.72-.51l-.51-2.91q2.89-.51 5.74-1.14l.64 2.89q-2.91.68-5.87 1.19zm-53.47-1.78q-2.91-.7-5.78-1.55l.83-2.84c1.87.55 3.75 1.05 5.65 1.52zm65.15-.8l-.77-2.86c1.89-.51 3.75-1.06 5.6-1.65l.9 2.82q-2.83.93-5.73 1.72zm11.38-3.64l-1-2.78q2.75-1 5.43-2.16l1.15 2.72q-2.76 1.2-5.58 2.25zm11-4.69l-1.28-2.66c1.76-.85 3.5-1.73 5.21-2.66l1.4 2.61q-2.62 1.46-5.33 2.74zm10.53-5.67L360.8 354q2.51-1.51 4.94-3.12l1.64 2.46c-1.66 1.09-3.38 2.16-5.06 3.18zm10-6.61l-1.75-2.39q2.35-1.72 4.65-3.56l1.85 2.31q-2.37 1.91-4.78 3.67zm9.33-7.49l-2-2.22c1.46-1.29 2.89-2.62 4.3-4l2.05 2.13c-1.42 1.45-2.89 2.8-4.38 4.12zm8.6-8.32l-2.15-2c1.34-1.42 2.65-2.86 3.92-4.34l2.24 1.93q-1.98 2.27-4.04 4.44zM398 325l-2.33-1.83c1.2-1.53 2.38-3.09 3.51-4.68l2.41 1.72q-1.7 2.47-3.59 4.79zm7-9.7l-2.48-1.61q1.59-2.46 3.07-5l2.55 1.49c-1.02 1.74-2.06 3.45-3.14 5.12zm6-10.3l-2.63-1.37c.91-1.73 1.77-3.48 2.6-5.25l2.68 1.25c-.8 1.78-1.65 3.56-2.65 5.37zm11.73-67.82q-.11-1.89-.27-3.75l3-.25c.11 1.27.2 2.54.27 3.83zm-.9-9.56c-.25-2-.55-3.87-.89-5.78l2.91-.52c.35 2 .66 3.93.92 5.91zm-2.05-11.52c-.43-1.9-.91-3.8-1.42-5.67l2.85-.78q.8 2.88 1.46 5.8zm-3.1-11.27c-.61-1.85-1.25-3.69-1.94-5.51l2.77-1q1 2.79 2 5.63zm-4.13-10.92q-1.16-2.68-2.43-5.31l2.66-1.29q1.31 2.69 2.49 5.43zm-5.11-10.5q-1.4-2.57-2.91-5.06l2.53-1.54c1 1.7 2 3.43 3 5.18zm-6.05-10q-1.63-2.44-3.37-4.78l2.38-1.76q1.77 2.4 3.45 4.89zm-6.94-9.4c-1.23-1.52-2.49-3-3.79-4.46l2.21-2q2 2.24 3.87 4.56zm-7.78-8.74c-1.36-1.4-2.76-2.76-4.18-4.1l2-2.16c1.46 1.36 2.88 2.76 4.28 4.19zm-8.54-8c-1.48-1.26-3-2.5-4.54-3.69l1.82-2.34q2.35 1.84 4.64 3.78zm-9.24-7.18c-1.59-1.12-3.21-2.22-4.85-3.27l1.59-2.49a136.1 136.1 0 015 3.35zm-9.89-6.3c-1.69-1-3.4-1.91-5.14-2.81l1.36-2.63q2.67 1.38 5.26 2.88zm-10.4-5.39q-2.65-1.22-5.37-2.33l1.11-2.74c1.86.76 3.69 1.55 5.5 2.39zm-10.81-4.4c-1.84-.65-3.69-1.26-5.57-1.83l.86-2.83q2.87.87 5.7 1.86zm-11.21-3.39c-1.89-.47-3.79-.91-5.71-1.3l.59-2.9c2 .4 3.91.85 5.84 1.33z" transform="translate(-.08 -25.72)"/><circle cx="295.84" cy="220.09" r="113.21" fill="#ffcb05"/><path class="cls-6" d="M369.54 159.85H301.9c-6.35 0-11.49 4.5-11.49 10v1.83c0 5.54 5.14 10 11.49 10h32.38c5.77 0 10.44 4.08 10.44 9.12s-4.67 9.2-10.44 9.2h-9.07c-6.35 0-11.49 4.49-11.49 10s5.14 10 11.49 10h80.94a113.07 113.07 0 00-36.61-60.15z" transform="translate(-.08 -25.72)"/><path class="cls-4" d="M406.15 221.57h-80.94c-7.15 0-13-5.17-13-11.52s5.82-11.52 13-11.52h9.07v3h-9.07c-5.52 0-10 3.84-10 8.56s4.49 8.56 10 8.56h80.94z" transform="translate(-.08 -25.72)"/><path class="cls-4" d="M316.62 154.56h17.58v2.96h-17.58z"/><path class="cls-4" d="M291.89 169.89h-3c0-6.35 5.82-11.52 13-11.52h52.85v3H301.9c-5.52-.04-10.01 3.8-10.01 8.52z" transform="translate(-.08 -25.72)"/><path class="cls-6" d="M319.44 259.17H183.51a113 113 0 0035.69 69.89h73.2c7.36 0 13.33-5.22 13.33-11.65s-6-11.65-13.33-11.65h-10.53c-6.69 0-12.12-4.74-12.12-10.59s5.43-10.59 12.12-10.59h37.57c7.36 0 13.33-5.21 13.33-11.65v-2.11c0-6.44-5.97-11.65-13.33-11.65z" transform="translate(-.08 -25.72)"/><path class="cls-4" d="M292.4 330.54h-73.2v-3h73.2c6.53 0 11.85-4.57 11.85-10.17h3c-.04 7.28-6.68 13.17-14.85 13.17z" transform="translate(-.08 -25.72)"/><path class="cls-4" d="M183.43 231.97h135.93v2.96H183.43z"/><path class="cls-4" d="M319.44 286.06h-37.57v-3h37.57c6.54 0 11.85-4.56 11.85-10.17h3c-.04 7.28-6.68 13.17-14.85 13.17z" transform="translate(-.08 -25.72)"/><path fill="#fc3e59" d="M173.38 147.73h101.35l17.93-69.6H173.38v69.6z"/><path class="cls-4" transform="rotate(-75.53 259.366 155.975)" d="M197.34 166.82h157.33v3.92H197.34z"/><path class="cls-3" d="M455.68 309.36h-3a8.11 8.11 0 00-1.21-.68c-1.14-.56-2.87-1.41-2.87-3.33s1.73-2.77 2.87-3.33a5 5 0 001.23-.74l-1.23-.61c-1.14-.56-2.87-1.4-2.87-3.32s1.73-2.77 2.87-3.33a5.33 5.33 0 001.23-.74l2.94.07c0 1.92-1.73 2.76-2.87 3.32a5.33 5.33 0 00-1.23.74l1.23.61c1.14.56 2.87 1.4 2.87 3.32s-1.73 2.77-2.87 3.33a5 5 0 00-1.23.75l1.23.61c1.23.56 2.91 1.41 2.91 3.33zM98 346a4.08 4.08 0 00-.69-.38c-.82-.41-2.21-1.09-2.21-2.69s1.39-2.29 2.21-2.69h.07-.07c-.82-.4-2.21-1.08-2.21-2.68s1.39-2.29 2.21-2.7a3.48 3.48 0 00.69-.38.56.56 0 00-.13.36h3c0 1.6-1.38 2.28-2.21 2.68h-.07.07c.82.41 2.21 1.09 2.21 2.69s-1.38 2.29-2.21 2.69h-.07.07c.83.41 2.21 1.09 2.21 2.69h-3a.55.55 0 00.13.41zm85.54-283.73a4.28 4.28 0 00-.68-.39c-.83-.4-2.22-1.09-2.22-2.69s1.39-2.28 2.22-2.69h.06-.06c-.83-.41-2.22-1.09-2.22-2.69s1.39-2.28 2.22-2.69a4.35 4.35 0 00.68-.38.55.55 0 00-.13.35h3c0 1.6-1.38 2.28-2.21 2.69h-.06.06c.83.41 2.21 1.08 2.21 2.69s-1.38 2.28-2.21 2.69h-.07.07c.83.4 2.21 1.08 2.21 2.69h-3a.55.55 0 00.13.42z" transform="translate(-.08 -25.72)"/><path class="cls-3" d="M0 199.36h55.41v2.96H0zm57.77 0h4.79v2.96h-4.79zm7.09 0h4.79v2.96h-4.79zm254.99 175.06h55.41v2.96h-55.41zm57.77 0h4.79v2.96h-4.79zm7.09 0h4.79v2.96h-4.79zm65.43-250.87h55.41v2.96h-55.41zm-7.15 0h4.79v2.96h-4.79zm-7.1 0h4.79v2.96h-4.79zm46.61 156.77h8.2v2.96h-8.2z"/><path class="cls-3" d="M485.13 277.7h2.96v8.2h-2.96zM76.76 232.55h8.2v2.96h-8.2z"/><path class="cls-3" d="M79.38 229.93h2.96v8.2h-2.96zm59.37-177.06h8.2v2.96h-8.2z"/><path class="cls-3" d="M141.37 50.25h2.96v8.2h-2.96z"/><path class="cls-4" d="M360.11 56.84h5.16v2.96h-5.16zm6.2-6.2h2.96v5.21h-2.96zm3.99 6.2h5.16v2.96h-5.16zm-3.99 3.94h2.96v5.21h-2.96zM134.03 310.19h4.83v2.96h-4.83zm5.71-5.7h2.96v4.88h-2.96zm3.83 5.7h4.83v2.96h-4.83zm-3.83 3.79h2.96v4.88h-2.96z"/><path class="cls-3" d="M23.8 167.62h3.94v2.96H23.8zm4.37-4.37h2.96v3.97h-2.96zm3.39 4.37h3.93v2.96h-3.93zm-3.39 3.36h2.96v3.97h-2.96zm20.36 16.68h50.15v2.96H48.53zm403.55 47.5h117.81v2.96H452.08z"/><path class="cls-4" d="M399.06 192.88h50.15v2.96h-50.15zm-279.49 39.09h76.7v2.96h-76.7z"/><path class="cls-3" d="M190.94 385.7H344.5v2.96H190.94z"/><path class="cls-4" d="M248.63 34.72h147.26v2.96H248.63z"/><path class="cls-3" d="M239.58 37.59a7.44 7.44 0 11-7.44-7.43 7.44 7.44 0 017.44 7.43z" transform="translate(-.08 -25.72)"/><path class="cls-3" d="M224.73 40.56a7.42 7.42 0 117.42-7.42 7.43 7.43 0 01-7.42 7.42zm0-11.88a4.46 4.46 0 104.46 4.46 4.46 4.46 0 00-4.46-4.46zm302.7 266.15a7.43 7.43 0 11-7.43-7.44 7.43 7.43 0 017.43 7.44z" transform="translate(-.08 -25.72)"/><path class="cls-3" d="M512.58 297.79a7.42 7.42 0 117.42-7.42 7.43 7.43 0 01-7.42 7.42zm0-11.88a4.46 4.46 0 104.46 4.46 4.46 4.46 0 00-4.46-4.46zm-402.17 9.68a7.44 7.44 0 11-7.44-7.43 7.43 7.43 0 017.44 7.43z" transform="translate(-.08 -25.72)"/><path class="cls-3" d="M95.56 298.56a7.42 7.42 0 117.42-7.42 7.43 7.43 0 01-7.42 7.42zm0-11.88a4.46 4.46 0 104.46 4.46 4.46 4.46 0 00-4.46-4.46z" transform="translate(-.08 -25.72)"/></svg>