<svg xmlns="http://www.w3.org/2000/svg" viewBox="0 0 570 303.41"><defs><style>.cls-1{fill:#f1f2ec}.cls-2{fill:#6c6ff2}.cls-21,.cls-24,.cls-3,.cls-4{fill:none}.cls-24,.cls-3,.cls-4{stroke:#1b2c38}.cls-21,.cls-24,.cls-3,.cls-4{stroke-miterlimit:10}.cls-3{stroke-width:2px}.cls-14{fill:#fc3e59}.cls-16{fill:#ffcb05}.cls-20{fill:#1b2c38}.cls-21{stroke:#181e23}.cls-22{fill:#f1f2f2}.cls-24{stroke-dasharray:2}</style></defs><g id="My_office" data-name="My office"><path class="cls-1" d="M104.88 13.72h93.38v116.2h-93.38z"/><path class="cls-2" d="M112.78 23.55h77.59v96.55h-77.59z"/><path class="cls-3" d="M104.88 13.72h93.38v116.2h-93.38z"/><path class="cls-4" d="M112.78 23.55h77.59v96.55h-77.59z"/><path d="M127.62 46.51h47.9m-47.9 10.43h47.9m-47.9 10.42h47.9m-47.9 10.43h47.9m-47.9 10.42h47.9m-47.9 10.43h47.9" stroke="#fff" stroke-miterlimit="10" fill="none"/><path class="cls-1" d="M243.66 256.7h77.21v45.71h-77.21z"/><path fill="#d9dfe7" d="M243.66 256.7h77.21v22.85h-77.21z"/><path class="cls-3" d="M243.66 256.7h77.21v45.71h-77.21z"/><path fill="#636c78" d="M155.21 81.17h253.8V233.6h-253.8z"/><path class="cls-1" d="M168.04 96.07h228.75v120.4H168.04z"/><path fill="#fff" d="M156.57 228H407.2v34.61H156.57z"/><path class="cls-3" d="M156.57 228h251.44v34.61H156.57z"/><path stroke="#414042" stroke-miterlimit="10" fill="none" d="M228.65 302.41h108.24"/><path class="cls-3" d="M291.21 380.91a10.16 10.16 0 11-10.16-10.17 10.16 10.16 0 0110.16 10.17zm-.43-2.02a5.58 5.58 0 0111.16 0" transform="translate(62.43 -88.66)"/><path class="cls-3" d="M322 380.91a10.16 10.16 0 11-10.16-10.17A10.16 10.16 0 01322 380.91z" transform="translate(62.43 -88.66)"/><path class="cls-3" d="M333.32 292.24l48.99 6.18m-47.24 0l48.99-6.18"/><path d="M142.12 331.39H84.7v17.45a49.45 49.45 0 0013.07 33.51v8.72h31.28v-8.72a49.45 49.45 0 0013.07-33.51z" transform="translate(62.43 -88.66)" fill="#27c7cd"/><path d="M130.31 331.39v17.45a49.49 49.49 0 01-13.07 33.51v8.72H124v-8.72a49.49 49.49 0 0013.07-33.51v-17.45z" transform="translate(62.43 -88.66)" fill="#91e0e7"/><path class="cls-3" d="M142.12 331.39H84.7v17.45a49.45 49.45 0 0013.07 33.51v8.72h31.28v-8.72a49.45 49.45 0 0013.07-33.51z" transform="translate(62.43 -88.66)"/><path class="cls-3" d="M87.61 364.42h-9.44a12.31 12.31 0 01-12.28-12.27 12.31 12.31 0 0112.28-12.28h6.07m21.91-14.71v-3.43a9.2 9.2 0 019.21-9.2h8.48a3.32 3.32 0 003.31-3.32 3.31 3.31 0 00-3.31-3.31H97.16a3 3 0 01-3-3 3 3 0 013-3h11.21m4.63.59h9.65a3.4 3.4 0 003.39-3.4 3.39 3.39 0 00-3.39-3.39H97.82a3.68 3.68 0 01-3.68-3.7 3.68 3.68 0 013.68-3.68h36.08" transform="translate(62.43 -88.66)"/><path d="M94.14 331.39v8a3.71 3.71 0 003.71 3.72 3.71 3.71 0 003.72-3.72 3.17 3.17 0 013.17-3.17 3.17 3.17 0 013.17 3.17V348a4.12 4.12 0 004.12 4.12 4.12 4.12 0 004.11-4.12v-16.61z" transform="translate(62.43 -88.66)" fill="#e7643e"/><path d="M94.14 331.39v8a3.71 3.71 0 003.71 3.72h0a3.71 3.71 0 003.72-3.72h0a3.17 3.17 0 013.17-3.17h0a3.17 3.17 0 013.17 3.17V348a4.12 4.12 0 004.12 4.12h0a4.12 4.12 0 004.11-4.12v-16.61z" transform="translate(62.43 -88.66)" fill="#fc3e59" stroke-miterlimit="10" stroke="#1b2c38"/><path class="cls-14" d="M393 384.84v-24.16c0-6.61 4.32-12 9.6-12 5.28 0 9.61 5.4 9.61 12v24.16z" transform="translate(62.43 -88.66)"/><path class="cls-4" d="M393 384.84v-24.16c0-6.61 4.32-12 9.6-12 5.28 0 9.61 5.4 9.61 12v24.16z" transform="translate(62.43 -88.66)"/><path class="cls-4" d="M428.02 123.45l62.72 56.54m-67.63-51.09l62.71 56.54m-24.18 81.86l24.49-80.81m-17.46 82.94l24.49-80.81"/><path d="M338.36 222.5l17.6-4.56a8.53 8.53 0 006.1-10.36 8.54 8.54 0 00-10.37-6.1l-17.6 4.52a8.53 8.53 0 00-6.09 10.41 8.52 8.52 0 0010.36 6.09z" transform="translate(62.43 -88.66)" fill="#757474"/><path class="cls-4" d="M338.36 222.5l17.6-4.56a8.53 8.53 0 006.1-10.36 8.54 8.54 0 00-10.37-6.1l-17.6 4.52a8.53 8.53 0 00-6.09 10.41 8.52 8.52 0 0010.36 6.09z" transform="translate(62.43 -88.66)"/><path class="cls-16" d="M304.1 250.72a10.82 10.82 0 1013.39-7.39 10.82 10.82 0 00-13.39 7.39z" transform="translate(62.43 -88.66)"/><path d="M315.2 207.22a11.84 11.84 0 1122.8 6.56z" transform="translate(62.43 -88.66)" fill="#e6e7e8"/><path class="cls-14" d="M352.56 157.62l48.74 14.06 4.56-36.98-37.99-10.96-15.31 33.88z"/><path transform="rotate(106.09 390.053 193.183)" fill="#535151" d="M321.67 194.35h7.65v39.4h-7.65z"/><path class="cls-4" d="M315.2 207.22a11.84 11.84 0 1122.8 6.56z" transform="translate(62.43 -88.66)"/><path fill="#e22b4f" stroke-miterlimit="10" stroke="#1b2c38" d="M405.79 134.52l2.12-7.35-37.86-10.91-2.12 7.34"/><path class="cls-4" d="M352.48 157.79l48.73 14.05 4.57-36.98-37.99-10.95-15.31 33.88z"/><path class="cls-20" d="M347.12 211.45a9.5 9.5 0 106.81-11.58 9.5 9.5 0 00-6.81 11.58z" transform="translate(62.43 -88.66)"/><path class="cls-21" d="M347.12 211.45a9.5 9.5 0 106.81-11.58 9.5 9.5 0 00-6.81 11.58z" transform="translate(62.43 -88.66)"/><path class="cls-22" d="M352.21 210.13a4.25 4.25 0 103-5.18 4.24 4.24 0 00-3 5.18z" transform="translate(62.43 -88.66)"/><path class="cls-20" d="M418.57 273.36a9.5 9.5 0 109.5-9.5 9.5 9.5 0 00-9.5 9.5z" transform="translate(62.43 -88.66)"/><path class="cls-21" d="M418.57 273.36a9.5 9.5 0 109.5-9.5 9.5 9.5 0 00-9.5 9.5z" transform="translate(62.43 -88.66)"/><path class="cls-22" d="M423.82 273.36a4.25 4.25 0 104.25-4.24 4.25 4.25 0 00-4.25 4.24z" transform="translate(62.43 -88.66)"/><path class="cls-20" d="M393 358.32a9.5 9.5 0 109.5-9.5 9.5 9.5 0 00-9.5 9.5z" transform="translate(62.43 -88.66)"/><path class="cls-21" d="M393 358.32a9.5 9.5 0 109.5-9.5 9.5 9.5 0 00-9.5 9.5z" transform="translate(62.43 -88.66)"/><path class="cls-22" d="M398.2 358.32a4.25 4.25 0 104.25-4.25 4.25 4.25 0 00-4.25 4.25z" transform="translate(62.43 -88.66)"/><path class="cls-4" d="M461.07 153.24l-4.44 5.89m17.95 65.46l6.33 2.19"/><path transform="rotate(180 420.08 342.705)" fill="#e22b4f" d="M350.36 383h77v8.07h-77z"/><path class="cls-4" transform="rotate(180 420.08 342.705)" d="M350.36 383h77v8.07h-77z"/><path class="cls-4" d="M314.36 22h4.47m7.1 0h4.48m-8.03 8.02v-4.47m0-7.1v-4.47M82.09 165.4h4.48m7.1 0h4.47m-8.02 8.02v-4.47m0-7.1v-4.47M291.69 46.51h48.79M90.59 143.48h48.79"/><path class="cls-4" d="M70.11 251.27a2.79 2.79 0 11-2.79-2.79 2.79 2.79 0 012.79 2.79zM330.54 145.6a2.79 2.79 0 11-2.79-2.79 2.79 2.79 0 012.79 2.79zM221.32 92a2.79 2.79 0 11-2.79-2.79 2.79 2.79 0 012.79 2.79z" transform="translate(62.43 -88.66)"/><path class="cls-4" d="M226.95 56.94h71.34m8.81 0h-5.84m14.63 0h-5.24m13.64 141.4h41.56m5.13 0h-3.4m8.52 0h-3.05M70 194.2h41.55m5.13 0h-3.39m8.51 0h-3.05M277.54 46.51h8.79m-4.39 4.39v-8.78M478.2 115.2h8.78m-4.39 4.39v-8.78M239.27 13.98h8.79m-4.4 4.39V9.58M79.94 75.47h8.78m-4.39 4.4v-8.79"/><path class="cls-16" transform="rotate(-45 232.686 -8.412)" d="M298.19 100.97h20.62v20.62h-20.62z"/><path class="cls-4" transform="rotate(-45 229.841 2.997)" d="M295.34 112.37h20.62v20.62h-20.62z"/><path class="cls-24" d="M385.75 176.32a24 24 0 110-48.06" transform="translate(62.43 -88.66)"/><path class="cls-4" d="M385.75 128.26a24 24 0 010 48.06" transform="translate(62.43 -88.66)"/><path class="cls-4" d="M443.68 63.62h9.01m-4.51 4.51v-9.01"/><circle class="cls-24" cx="219.14" cy="34.02" r="10.88"/><circle class="cls-2" cx="433.98" cy="196.99" r="10.88"/><path class="cls-24" d="M393.83 285.65A10.88 10.88 0 11383 274.78a10.88 10.88 0 0110.83 10.87z" transform="translate(62.43 -88.66)"/><circle class="cls-16" cx="220.68" cy="250.13" r="43.15" transform="rotate(-76.84 196.02 166.443)"/><path d="M253.67 250.13a33 33 0 11-33-33 33 33 0 0133 33z" transform="translate(62.43 -88.66)" fill="#f2d889"/><path class="cls-20" d="M218.7 269.76v-3.48a21.68 21.68 0 01-11.16-5.49l4.46-5.39a19.4 19.4 0 006.73 4.15v-7.11q-5-1.29-7.35-3.46a8.12 8.12 0 01-2.33-6.25 9 9 0 012.67-6.72 11.59 11.59 0 017-3.18v-2.34h5.06v2.44a21.84 21.84 0 019.5 4l-3.92 5.63a18.33 18.33 0 00-5.58-2.87v6.88a17.93 17.93 0 017.61 3.58 8.14 8.14 0 012.46 6.34 9.06 9.06 0 01-2.75 6.78 12.13 12.13 0 01-7.32 3.19v3.34zm0-30.3a2.66 2.66 0 00-2 2.63 3.15 3.15 0 002 2.91zm7.49 17.37a2.62 2.62 0 00-.52-1.67 4.76 4.76 0 00-1.91-1.24v5.87a3 3 0 002.43-2.96z" transform="translate(62.43 -88.66)"/><path class="cls-4" d="M200.03 135.71h4.47m7.1 0h4.48m-8.03 8.02v-4.47m0-7.1v-4.47"/><path class="cls-4" d="M276 210.86a2.79 2.79 0 11-2.79-2.79 2.79 2.79 0 012.79 2.79z" transform="translate(62.43 -88.66)"/></g><path class="cls-3" d="M0 302.41h570" id="Layer_2" data-name="Layer 2"/></svg>