<svg id="Layer_1" data-name="Layer 1" xmlns="http://www.w3.org/2000/svg" viewBox="0 0 370 270.16"><defs><style>.cls-2{fill:#f1f2ec}.cls-3{fill:#fc3e59}.cls-4{fill:#1b2c38}.cls-6{fill:#414042}.cls-7{fill:#95d133}.cls-8{fill:#f9d657}.cls-9{fill:#ffcb05}</style></defs><path d="M306.07 174.33a124.29 124.29 0 01-45 95.82H102a124.53 124.53 0 11204.08-95.82z" fill="#f2d889"/><path class="cls-2" d="M226.84 270.16l-14.71-154.93h-69.15l-13.72 154.93h97.58z"/><path class="cls-3" d="M142.67 118.73l-3.9 44.02 59.54-47.52h-51.02l-4.62 3.5zm-8.22 92.84l-4.92 55.61 89.44-79.93-4.13-43.45-80.39 67.77zm92.39 58.59l-3.32-34.97-36.81 34.97h40.13z"/><path class="cls-4" d="M130.27 270.16l13.63-153.93h67.32l14.61 153.93h2.01l-14.8-155.93h-70.98l-13.8 155.93h2.01z"/><path class="cls-4" d="M56.64 270.16a158.33 158.33 0 01-34.25-98.49c0-87.76 71.39-159.15 159.15-159.15s159.15 71.39 159.15 159.15a158.33 158.33 0 01-34.25 98.49H309a160.33 160.33 0 0033.7-98.49c0-88.86-72.29-161.15-161.15-161.15S20.39 82.81 20.39 171.67a160.27 160.27 0 0033.73 98.49z"/><path class="cls-4" d="M243.5 165.03h7.37v2h-7.37zm19.06 0h7.37v2h-7.37zm-6.85 6.85h2v7.37h-2zm0-19.06h2v7.37h-2zM74.4 65.23h5.83v2H74.4zm15.09 0h5.83v2h-5.83zm-5.63 5.64h2v5.83h-2zm0-15.1h2v5.83h-2zM230.68 82.1h5.83v2h-5.83zm15.09 0h5.83v2h-5.83zm-5.63 5.63h2v5.83h-2zm0-15.1h2v5.83h-2zM93.53 152.88h6.83v2h-6.83zm17.68 0h6.83v2h-6.83zm-6.42 6.43h2v6.83h-2zm0-17.69h2v6.83h-2zm-52.99 64h5.83v2H51.8zm15.09 0h5.83v2h-5.83zm-5.63 5.63h2v5.83h-2zm0-15.1h2v5.83h-2zm210.87 31.03h8.08v2h-8.08zm20.93 0h8.08v2h-8.08zm-7.42 7.42h2v8.08h-2zm0-20.93h2v8.08h-2z"/><path class="cls-2" d="M145.49 46.77h21.85v53.65h-21.85zm21.85 0h21.85v53.65h-21.85zm21.85 0h21.85v53.65h-21.85z"/><path class="cls-4" d="M212 101.42h-67.51V45.77H212zm-65.55-2H210V47.77h-63.51z"/><path class="cls-2" d="M130.94 103.07h92.87v16.01h-92.87z"/><path class="cls-4" d="M223.56 120.08h-92.37a1.25 1.25 0 01-1.25-1.25v-15.51a1.25 1.25 0 011.25-1.25h92.37a1.25 1.25 0 011.25 1.25v15.51a1.25 1.25 0 01-1.25 1.25zm-91.62-2h90.87v-14h-90.87zM.61 157.22l-.61-1.9 2.85-.91.61 1.91zm5.7-1.81l-.6-1.91 2.85-.9.61 1.9zm5.69-1.82l-.6-1.9 2.85-.91.61 1.9zm5.71-1.82l-.6-1.9L20 149l.6 1.91zm5.73-1.77l-.61-1.9 2.86-.91.6 1.9zm5.71-1.82l-.61-1.9 2.86-.91.6 1.9zm5.71-1.81l-.61-1.91 2.85-.91.61 1.91zm5.7-1.82l-.6-1.9 2.85-.91.61 1.9zm5.71-1.82l-.6-1.9 2.85-.91.61 1.91zm5.73-1.85l-.6-1.91 2.85-.9.6 1.9zm5.71-1.82l-.61-1.9 2.86-.91.6 1.9zm5.71-1.82l-.61-1.9 2.86-.91.6 1.91zm5.71-1.81l-.61-1.91 2.85-.9.61 1.9zm5.7-1.82l-.6-1.9 2.85-.91.61 1.9zm5.71-1.81l-.6-1.91 2.85-.91.61 1.91zm5.69-1.8l-.6-1.9 2.85-.91.6 1.9zm5.71-1.82l-.61-1.9 2.86-.91.6 1.9zm5.71-1.81l-.65-1.93 2.86-.9.6 1.9zm5.71-1.82l-.61-1.9 2.85-.91.61 1.9zm5.7-1.82l-.6-1.9 2.85-.91.61 1.91zm5.71-1.81l-.6-1.9h.15l.6 1.9zm-.45-80.72l-2.86-.89.6-1.91 2.86.9zm-5.72-1.79l-2.87-.9.6-1.91 2.87.9zm-5.73-1.8l-2.86-.9.6-1.91 2.86.9zm-5.72-1.8l-2.86-.9.59-1.9 2.87.89zM91.42 33l-2.86-.9.6-1.91 2.86.9zm-5.72-1.8l-2.86-.9.6-1.91 2.86.9zM80 29.42l-2.86-.9.6-1.91 2.86.9zm-5.72-1.8l-2.86-.89.6-1.91 2.86.9zm-5.73-1.79l-2.86-.9.6-1.91 2.86.9zM62.8 24l-2.86-.9.6-1.91 2.86.9zm-5.72-1.8l-2.87-.9.6-1.9 2.86.89zm-5.73-1.79l-2.86-.9.6-1.91 2.86.9zm-5.72-1.8l-2.87-.9.6-1.91 2.87.9zm-5.73-1.8l-2.9-.87.6-1.91 2.86.9zM34.18 15l-2.86-.89.59-1.91 2.87.9zm-5.73-1.79l-2.86-.9.6-1.91 2.86.9zm-5.72-1.8l-2.86-.9.59-1.91 2.87.9zM17 9.65l-2.86-.9.6-1.9 2.86.9zm-5.72-1.79L8.57 7l.6-1.91 2.71.91zm358.13 152.49l-2.86-.88.59-1.91 2.86.88zm-5.72-1.76l-2.87-.88.59-1.91 2.86.88zm-5.69-1.76l-2.9-.83.59-1.91 2.86.88zm-5.72-1.76l-2.87-.88.59-1.91 2.86.88zm-5.73-1.76l-2.86-.88.58-1.91 2.87.88zm-5.72-1.76l-2.87-.88.59-1.91 2.86.88zm-5.73-1.76l-2.86-.89.58-1.9 2.87.88zm-5.77-1.79l-2.86-.88.59-1.91 2.86.88zm-5.72-1.76l-2.86-.88.58-1.91 2.87.88zm-5.73-1.76l-2.86-.88.59-1.91 2.86.88zm-5.72-1.76l-2.86-.88.58-1.91 2.86.88zm-5.73-1.72l-2.86-.88.59-1.91 2.86.88zm-5.72-1.76l-2.87-.88.59-1.91 2.86.88zm-5.71-1.78l-2.86-.88.58-1.91 2.87.88zm-5.72-1.77l-2.87-.88.59-1.9 2.86.88zm-5.73-1.76l-2.86-.88.58-1.91 2.87.88zm-5.73-1.76l-2.86-.88.59-1.91 2.86.88zm-5.72-1.76l-2.86-.88.58-1.91 2.87.88zm-5.73-1.76l-2.86-.88.59-1.91 2.86.88zm-5.72-1.76l-2.87-.88.59-1.91 2.86.88zm-5.73-1.76l-2.86-.88.59-1.91 2.86.88zm-5.72-1.76l-2.87-.89.59-1.9 2.86.88zm-5.73-1.77l-1.19-.36.59-1.91 1.19.37zm-1.88-81.39l-.59-1.92 2.87-.87.58 1.91zm5.74-1.75l-.58-1.91 2.87-.87.58 1.91zm5.74-1.74l-.58-1.92 2.87-.87.58 1.92zm5.74-1.72l-.58-1.91 2.87-.87.58 1.91zm5.74-1.74l-.55-1.95 2.87-.87.58 1.92zm5.74-1.75l-.58-1.91 2.87-.87.58 1.91zm5.71-1.77l-.58-1.91 2.87-.88.59 1.92zm5.78-1.74l-.59-1.91 2.87-.87.59 1.91zm5.74-1.74l-.59-1.91 2.87-.88.59 1.92zm5.74-1.74l-.59-1.92 2.87-.87.59 1.91zm5.74-1.76l-.58-1.91 2.87-.87.58 1.91zm5.74-1.76l-.58-1.92 2.87-.87.58 1.91zm5.74-1.75l-.58-1.91 2.87-.87.58 1.91zm5.74-1.74l-.58-1.92 2.87-.87.58 1.92zm5.78-1.73l-.58-1.91 2.87-.87.58 1.91zm5.7-1.78l-.58-1.91 2.87-.88.58 1.92zm5.74-1.75l-.58-1.91 2.87-.87.58 1.91zm5.74-1.74l-.58-1.91 2.87-.88.58 1.92zm5.74-1.74l-.58-1.92 2.87-.85.58 1.91z"/><circle cx="178.27" cy="73.59" r="17.44" transform="rotate(-76.76 178.268 73.596)" fill="#27c7cd"/><path class="cls-4" d="M178.27 92a18.45 18.45 0 1118.44-18.45A18.48 18.48 0 01178.27 92zm0-34.89a16.45 16.45 0 1016.44 16.44 16.46 16.46 0 00-16.44-16.4z"/><path class="cls-6" d="M184.81 73.59a6.55 6.55 0 11-6.54-6.54 6.54 6.54 0 016.54 6.54z"/><path class="cls-2" d="M130.46 47.27H181L179 1c-25.55 0-48.54 20.71-48.54 46.27z"/><path class="cls-2" d="M176.73 1v46.27H223A46.27 46.27 0 00176.73 1z"/><path class="cls-4" d="M224 48.27h-94.54v-1a47.27 47.27 0 0194.54 0zm-92.54-2H222a45.28 45.28 0 00-90.53 0z"/><path class="cls-7" d="M32 95.7a9 9 0 11-9-9 9 9 0 019 9z"/><path class="cls-6" d="M23 105.79A10.09 10.09 0 1133.05 95.7 10.1 10.1 0 0123 105.79zm0-18.05a8 8 0 108 8 8 8 0 00-8-8z"/><path class="cls-3" d="M323.81 81.41a9 9 0 11-9-9 9 9 0 019 9z"/><path class="cls-4" d="M314.79 91.5a10.09 10.09 0 1110.09-10.09 10.09 10.09 0 01-10.09 10.09zm0-18a8 8 0 108 8 8 8 0 00-8-8.05zM344 110.45a10 10 0 1110-10 10 10 0 01-10 10zm0-18.06a8 8 0 108 8 8 8 0 00-8-8zM266.78 74.1a10 10 0 1110-10 10 10 0 01-10 10zm0-18a8 8 0 108 8 8 8 0 00-8-8.05z"/><circle class="cls-8" cx="37.56" cy="47.43" r="15.99"/><circle class="cls-9" cx="37.56" cy="47.43" r="15.99"/><path class="cls-4" d="M37.56 64.41a17 17 0 1117-17 17 17 0 01-17 17zm0-32a15 15 0 1015 15 15 15 0 00-15-14.97z"/><path class="cls-4" d="M37.56 64.41a17 17 0 1117-17 17 17 0 01-17 17zm0-32a15 15 0 1015 15 15 15 0 00-15-14.97z"/><path class="cls-8" d="M82.2 112.34A12.39 12.39 0 1169.81 100a12.39 12.39 0 0112.39 12.34z"/><path class="cls-7" d="M82.2 112.34A12.39 12.39 0 1169.81 100a12.39 12.39 0 0112.39 12.34z"/><path class="cls-6" d="M69.81 125.72a13.39 13.39 0 1113.39-13.38 13.4 13.4 0 01-13.39 13.38zm0-24.77a11.39 11.39 0 1011.39 11.39A11.4 11.4 0 0069.81 101z"/><path d="M131.89 84.29a8.63 8.63 0 11-8.63-8.63 8.63 8.63 0 018.63 8.63z" fill="#e7643e"/><path class="cls-3" d="M131.89 84.29a8.63 8.63 0 11-8.63-8.63 8.63 8.63 0 018.63 8.63z"/><path class="cls-4" d="M123.26 93.92a9.63 9.63 0 119.63-9.63 9.64 9.64 0 01-9.63 9.63zm0-17.26a7.63 7.63 0 107.63 7.63 7.64 7.64 0 00-7.63-7.63z"/><circle class="cls-8" cx="322.41" cy="42.98" r="15.99"/><circle class="cls-7" cx="322.41" cy="42.98" r="15.99"/><path class="cls-6" d="M322.41 60a17 17 0 1117-17 17 17 0 01-17 17zm0-32a15 15 0 1015 15 15 15 0 00-15-15z"/><path class="cls-3" d="M299.14 104.15a11.38 11.38 0 11-11.38-11.37 11.38 11.38 0 0111.38 11.37z"/><path class="cls-9" d="M299.14 104.15a11.38 11.38 0 11-11.38-11.37 11.38 11.38 0 0111.38 11.37z"/><path class="cls-4" d="M287.76 116.52a12.37 12.37 0 1112.38-12.37 12.39 12.39 0 01-12.38 12.37zm0-22.74a10.37 10.37 0 1010.38 10.37 10.38 10.38 0 00-10.38-10.37z"/></svg>