<svg id="Analysis" xmlns="http://www.w3.org/2000/svg" viewBox="0 0 250 250"><defs><style>.cls-1{fill:#f1f2ec}.cls-3{fill:#1b2c38}.cls-4{fill:#e6e7e8}.cls-7{fill:#fff}.cls-8{fill:#231f20;opacity:.1}.cls-9{fill:#ffcb05}.cls-10{fill:#fc3e59}</style></defs><circle class="cls-1" cx="124.74" cy="139.4" r="108.96"/><path class="cls-1" d="M325.64 313c-21.31 33.06-55.51 54.5-94.06 54.5s-72.69-21.39-94-54.39z" transform="translate(-106.77 -118.33)"/><path d="M326.14 313.39l-.52-.57-189.2.09c.9 1.21 1.82 2.39 2.76 3.56l175.15 11.74c4.48-4.34 8.06-9.82 11.81-14.82z" transform="translate(-106.77 -118.33)" fill="#e8e9e1"/><path class="cls-3" d="M231.51 368.33a110 110 0 11110-110 110.12 110.12 0 01-110 110zm0-217.93a107.93 107.93 0 10107.92 107.93A108.06 108.06 0 00231.51 150.4z" transform="translate(-106.77 -118.33)"/><path class="cls-3" d="M0 193.07h4.85v1.99H0z"/><path class="cls-4" d="M272.13 141.35c-.14-7.69 1.64-21.69-12.17-21.9h-70.08v80.82h82.26z" transform="translate(-106.77 -118.33)"/><path class="cls-3" d="M273.14 205.35h-29.08v-2h27.09v-64.7c.06-8 .14-18-11.19-18.2h-70.08v-2H260c13.32.2 13.23 12.24 13.17 20.2v2.67z" transform="translate(-106.77 -118.33)"/><rect x="53.48" y="81.27" width="173.09" height="107.21" rx="1" fill="#636c78"/><path class="cls-3" d="M332.34 307.81H161.25a2 2 0 01-2-2V200.6a2 2 0 012-2h171.09a2 2 0 012 2v105.21a2 2 0 01-2 2zm0-2zM161.25 200.6v105.21h171.09V200.6z" transform="translate(-106.77 -118.33)"/><path fill="#27c7cd" d="M61.89 91.06h155.34v83.76H61.89z"/><path class="cls-7" d="M331.19 312.4H162.24a8.29 8.29 0 01-8.18-6.94l-1.2-7.34h188.67l-1 6.38a9.42 9.42 0 01-9.34 7.9z" transform="translate(-106.77 -118.33)"/><path class="cls-3" d="M331.19 313.39H162.24a9.25 9.25 0 01-9.16-7.77l-1.39-8.5h191l-1.23 7.54a10.38 10.38 0 01-10.27 8.73zM154 299.11l1 6.19a7.26 7.26 0 007.19 6.1h169a8.39 8.39 0 008.31-7.06l.86-5.23z" transform="translate(-106.77 -118.33)"/><path class="cls-3" d="M127.68 184.33h25.28v1.99h-25.28z"/><path class="cls-8" d="M194.06 119.33c-7.14 0-13.86 4.35-14 13.91v121.31h5.2c2.68 6.82-.28 18.11-12.07 19.09h70.08c13.81-.21 12-14.21 12.17-21.9v-118.5c0-6.32 2.24-11.84 8.36-13.42l-9.15-.49z" transform="translate(-106.77 -118.33)"/><path class="cls-7" d="M189 119.33c-7.14 0-13.86 4.35-14 13.91v121.31h5.2c2.68 6.82-.28 18.11-12.08 19.09h70.09c13.81-.21 12-14.21 12.17-21.9h-.05v-118.5a13.86 13.86 0 0110.4-13.42v-.49z" transform="translate(-106.77 -118.33)"/><path class="cls-8" d="M231.45 259.72V199h.06c-.14-7.69 1.64-21.69-12.17-21.9h-70.08c11.3.94 14.48 11.36 12.37 18.22h-5.51v64.43c.15 9.55 6.88 13.91 14 13.91h71.72v-.5a13.86 13.86 0 01-10.39-13.44z" transform="translate(-106.77 -118.33)"/><path class="cls-4" d="M227.39 259.72V199h.06c-.15-7.69 1.64-21.69-12.18-21.9h-70.08c11.31.94 14.49 11.36 12.37 18.22h-5.51v64.43c.16 9.55 6.88 13.91 14 13.91h71.71v-.5a13.86 13.86 0 01-10.37-13.44z" transform="translate(-106.77 -118.33)"/><path class="cls-3" d="M168.08 274.63l-.08-2c5.66-.46 8.59-3.37 10.06-5.73a14.14 14.14 0 001.4-11.36H174v-122.3c.13-7.43 4.81-14.91 15-14.91h72.71v2.26l-.75.19a12.87 12.87 0 00-9.65 12.46v121.17c.06 8 .16 20-13.15 20.21zm6.83-2h63.26c11.31-.17 11.23-10.17 11.17-18.2V133.24a14.86 14.86 0 017.51-12.92H189c-5.91 0-12.87 3.39-13 12.93v120.31h4.87l.25.63a15.88 15.88 0 01-1.37 13.81 13.62 13.62 0 01-4.84 4.64z" transform="translate(-106.77 -118.33)"/><path class="cls-3" d="M238.78 274.63h-72.71c-10.2 0-14.89-7.48-15-14.89V194.3h5.74a14 14 0 00-1.89-10.88 12.58 12.58 0 00-9.8-5.35l.08-2h70.08c13.32.19 13.23 12.24 13.17 20.2v3.67h-.08v59.75a12.87 12.87 0 009.63 12.49l.75.19zm-85.73-78.33v63.43c.15 9.52 7.11 12.91 13 12.91h67.84a14.83 14.83 0 01-7.52-12.92V198h.05v-1.7c.06-8 .14-18-11.19-18.2H152a13.71 13.71 0 014.55 4.22 15.9 15.9 0 011.95 13.29l-.22.71z" transform="translate(-106.77 -118.33)"/><path class="cls-8" d="M133.46 191v121.31h75.33V191c0-6.32 2.25-11.84 8.36-13.41l-8.13-.5h-61.55c-7.13-.01-13.86 4.35-14.01 13.91z" transform="translate(-106.77 -118.33)"/><path class="cls-7" d="M128.37 191v121.31h75.34V191a13.84 13.84 0 0110.4-13.41v-.5h-71.72c-7.14-.01-13.86 4.35-14.02 13.91z" transform="translate(-106.77 -118.33)"/><path class="cls-3" d="M204.71 313.3h-77.33V191c.12-7.42 4.81-14.89 15-14.89h72.72v2.26l-.75.19a12.86 12.86 0 00-9.64 12.44zm-75.34-2h73.34V191a14.85 14.85 0 017.52-12.91h-67.84c-5.91 0-12.86 3.38-13 12.92z" transform="translate(-106.77 -118.33)"/><path class="cls-9" d="M31.17 90.91h5.05V140h-5.05z"/><path class="cls-10" d="M38.48 115.56h5.05V140h-5.05zm7.3 6.17h5.05v18.28h-5.05z"/><path class="cls-9" d="M53.09 103.98h5.05V140h-5.05z"/><path class="cls-10" d="M60.39 94.42h5.05V140h-5.05zm7.31 16.97h5.05v28.62H67.7z"/><path class="cls-9" d="M75 122.57h5.05v17.44H75z"/><path class="cls-10" d="M82.31 105.08h5.05V140h-5.05z"/><path class="cls-4" d="M29.77 79.48h24.3v4.01h-24.3zm46.15-61.89h57.81v4.01H75.92zm0 10.64h38.43v4.01H75.92zm41.39 0h16.43v4.01h-16.43zM75.92 38.86H93.9v4.01H75.92zm20.69 0h37.13v4.01H96.61zM75.92 49.5h31.69v4.01H75.92zm-46.15 95.82h42.17v4.01H29.77zm1.3 11.25H53.3v4.14H31.07zm-.08 8.59h47.19v4.14H30.99zm-.16 9.28h25.32v4.14H30.83zm26.58-17.87h11.42v4.14H57.41zm15.43 0h18.7v4.14h-18.7z"/><path class="cls-8" d="M353.57 202.53a43.75 43.75 0 10-45.74 47v2.17h-5.34a2.15 2.15 0 00-2.15 2.28l3.5 39h15.84v-39.15a2.16 2.16 0 00-2.16-2.15h-5.47v-2.17a43.77 43.77 0 0041.52-46.98zm-37.34 34.61c-22.15-.28-35.47-15.18-35.47-31.27s18.33-31.28 34.42-31.28a29.21 29.21 0 0129.18 29.18c0 16.09-12.04 33.58-28.13 33.37z" transform="translate(-106.77 -118.33)"/><path class="cls-3" d="M206.37 124.17h1.99v16h-1.99z"/><path class="cls-7" d="M314.13 164.23a41.64 41.64 0 1041.64 41.64 41.69 41.69 0 00-41.64-41.64zm0 72.93a31.3 31.3 0 1131.29-31.29 31.33 31.33 0 01-31.29 31.29z" transform="translate(-106.77 -118.33)"/><path class="cls-3" d="M314.13 248.5a42.64 42.64 0 1142.64-42.63 42.67 42.67 0 01-42.64 42.63zm0-83.28a40.65 40.65 0 1040.65 40.65 40.69 40.69 0 00-40.65-40.65zm0 72.93a32.29 32.29 0 1132.29-32.28 32.32 32.32 0 01-32.29 32.28zm0-62.58a30.3 30.3 0 1030.3 30.3 30.33 30.33 0 00-30.3-30.3z" transform="translate(-106.77 -118.33)"/><path class="cls-10" d="M199.74 135.45h7.63v39.5h-7.63z"/><path class="cls-10" d="M207.36 135.45h7.63v39.5h-7.63z"/><path class="cls-3" d="M322.76 293h-2v-37a1.26 1.26 0 00-1.26-1.26h-10.74a1.27 1.27 0 00-1.26 1.26v37h-2v-37a3.26 3.26 0 013.25-3.25h10.75a3.26 3.26 0 013.26 3.25z" transform="translate(-106.77 -118.33)"/><path class="cls-3" d="M199.37 145.44h16v1.99h-16zm0 6.65h16v1.99h-16z"/><path class="cls-3" d="M305.88 184.14l-.78-1.83a25.08 25.08 0 014.77-1.48 25.78 25.78 0 015.12-.52v2a23.5 23.5 0 00-9.11 1.84zM297 223.66a25.4 25.4 0 01-3.1-3.76 25.22 25.22 0 01-3.82-9.08 25.42 25.42 0 010-10.23 25.22 25.22 0 013.82-9.08 25.4 25.4 0 013.1-3.76l1.41 1.41a23.34 23.34 0 00-5 7.44 24 24 0 00-1.36 4.39 23.89 23.89 0 000 9.43 23.76 23.76 0 001.36 4.39 23.2 23.2 0 002.16 4 23.68 23.68 0 002.86 3.46z" transform="translate(-106.77 -118.33)"/><path class="cls-3" d="M7.56 193.07h216.22v1.99H7.56z"/></svg>