<svg id="Layer_1" data-name="Layer 1" xmlns="http://www.w3.org/2000/svg" viewBox="0 0 250 250"><defs><style>.cls-1{fill:#1b2c38}.cls-2{fill:#f1f2ec}.cls-8{fill:#fff}</style></defs><path class="cls-1" d="M246.87 120.32H250v1.99h-3.13zm-6 0H244v1.99h-3.13z"/><circle class="cls-2" cx="125.08" cy="140.37" r="109.08"/><circle cx="123.56" cy="136.33" r="76.66" fill="#ffcb05"/><path d="M41.93 211.18a50.13 50.13 0 004.72 5.16 57.78 57.78 0 005.81 4.54c4.13 3 8 6.34 12 9.48a59.67 59.67 0 0012.81 8.06c4 1.74 8.17 3 12 5 2.46.74 4.78 1.93 7.3 2.5 2.7.6 5.45 1.08 8.19 1.49a100.93 100.93 0 0016.75 1.16 1.85 1.85 0 011.29.45 1.92 1.92 0 01.71-.11c4.23.05 8.53.12 12.82 0a77.88 77.88 0 007.73-1.15c6.7-1.4 13.15-4.11 19.65-6.22a2 2 0 01.77-.09 1.8 1.8 0 011.59-.81c2.56 0 4.9-1.38 7-2.66s4.39-2.69 6.67-3.93c5-2.71 8.91-7 14.08-9.43l.26-.1a1.89 1.89 0 01.5-.92c5-5.3 11.91-8.8 16-15a54.26 54.26 0 013.14-4.81 98.52 98.52 0 00-181.44-6.07 10.54 10.54 0 012.12 3c2.46 3.5 4.83 7.1 7.53 10.46z" fill="#27c7cd"/><path d="M77.27 238.42c4 1.74 8.17 3 12 5 2.46.74 4.78 1.93 7.3 2.5 2.7.6 5.45 1.08 8.19 1.49a100.93 100.93 0 0016.75 1.16 1.85 1.85 0 011.29.45 1.92 1.92 0 01.71-.11c4.23.05 8.53.12 12.82 0a77.88 77.88 0 007.73-1.15c6.7-1.4 13.15-4.11 19.65-6.22a2 2 0 01.77-.09 1.8 1.8 0 011.59-.81c2.56 0 4.9-1.38 7-2.66s4.39-2.69 6.67-3.93c3.35-1.82 6.23-4.37 9.33-6.58A68.36 68.36 0 0055.21 223c3.11 2.41 6.12 5 9.21 7.37a59.81 59.81 0 0012.85 8.05z" fill="#1ab7b7"/><path class="cls-1" d="M121.73 141.49A97.59 97.59 0 01213 204.75a14 14 0 011.52-1.91 99.53 99.53 0 00-182.31-7.35c.51.53 1 1 1.56 1.57a97.58 97.58 0 0187.96-55.57z"/><path class="cls-1" d="M179.78 234c.52-.28 1-.59 1.53-.9-.88-32.35-9.35-63-24.09-86.92l-1.78 1.11c14.72 23.86 23.1 54.62 23.79 87zm-113-1.87c1-31.62 9.35-61.54 23.75-84.87l-1.78-1.11c-14.36 23.28-22.76 53-24 84.44.67.48 1.35 1.03 2.03 1.54zm54.76 16.41a1.81 1.81 0 011.24.41V140.44h-2.1v108.1z"/><path class="cls-1" d="M173.11 237.9h-97c.39.18.78.37 1.17.54 1.27.55 2.56 1.06 3.85 1.55h88a24 24 0 003.98-2.09zM33.53 191.07h174.96v2.09H33.53z"/><path class="cls-1" d="M125 250a110 110 0 11110-110 110 110 0 01-110 110zm0-217.93A107.93 107.93 0 10232.92 140 108 108 0 00125 32.07z"/><path d="M121.78 1.07a57.53 57.53 0 00-57.52 57.54c0 31.77 57.52 96.66 57.52 96.66s57.53-64.89 57.53-96.66A57.53 57.53 0 00121.8 1.07zm0 85.23a33.37 33.37 0 1133.37-33.37 33.37 33.37 0 01-33.33 33.39z" fill="#fc3e59"/><path d="M163.26 53a41.44 41.44 0 10-41.45 41.43A41.43 41.43 0 00163.26 53zm-75.87 0a34.44 34.44 0 1134.44 34.4A34.44 34.44 0 0187.39 53z" fill="#dd2f51"/><path class="cls-1" d="M121.78 156.93L121 156c-.14-.17-14.58-16.5-28.83-36.51-19.22-27-29-47.47-29-60.88a58.62 58.62 0 01117.24 0c0 13.41-9.75 33.89-29 60.88-14.25 20-28.69 36.34-28.83 36.51zm0-154.75a56.5 56.5 0 00-56.43 56.44c0 29 49.43 86.94 56.43 95 7-8.06 56.44-66.06 56.44-95a56.52 56.52 0 00-56.44-56.44zm0 85.23A34.46 34.46 0 11156.24 53a34.5 34.5 0 01-34.46 34.41zm0-66.73A32.27 32.27 0 10154.06 53a32.27 32.27 0 00-32.28-32.32z"/><path class="cls-2" d="M232.87 123.17a37.15 37.15 0 00-1.2-5.73c-1-3.82-2.27-7.58-3.58-11.31-1.2-3.42-2.61-6.75-3.85-10.16a28.1 28.1 0 00-2.34-5.33 16.25 16.25 0 00-12.13 2.26 22.4 22.4 0 00-43.53-3.23 15.35 15.35 0 00-18.84 10.76c-.14.54-.26 1.09-.35 1.64h-2.5a11.53 11.53 0 00-11.5 11.49v.85a11.53 11.53 0 0011.5 11.49H233a19.69 19.69 0 00-.13-2.73z"/><path class="cls-8" d="M231.67 117.44c-1-3.75-2.22-7.45-3.51-11.11a9.25 9.25 0 00-2.16-.26h-.37a13.63 13.63 0 00-16.88-9.31 13.23 13.23 0 00-3.59 1.63 18.68 18.68 0 00-36.29-2.69 13.42 13.42 0 00-3.33-.45 12.83 12.83 0 00-12.68 10.82h-2.09a9.62 9.62 0 00-9.58 9.58v.71a9.62 9.62 0 009.58 9.58H226a9.54 9.54 0 006.86-2.91 36.82 36.82 0 00-1.19-5.59z"/><path class="cls-1" d="M202.48 91.65a17.61 17.61 0 00-23.76-5.58l-1.06-1.8a19.71 19.71 0 0126.58 6.24z"/><path class="cls-1" d="M233 124.89h-88.45a10.46 10.46 0 01-10.45-10.44v-.85a10.46 10.46 0 0110.45-10.45H148l.14-.88a14.25 14.25 0 0114.15-12.09 14.7 14.7 0 013.73.5l1 .27.3-1a21.35 21.35 0 0141.41 3.12l.25 1.59 1.36-.87a15.07 15.07 0 0112.26-1.89 12.43 12.43 0 00-1.6-2.47 16.46 16.46 0 00-2.43-.18 17.46 17.46 0 00-8.07 2 23.45 23.45 0 00-45-2.81 16.36 16.36 0 00-19.32 12.63h-1.63A12.55 12.55 0 00132 113.6v.85A12.56 12.56 0 00144.54 127H233z"/><path class="cls-1" d="M170.94 100.31l-1.94-.76a7.06 7.06 0 00.28-.89l2 .49a8.08 8.08 0 01-.34 1.16zm.61-3.24h-2.09a6.94 6.94 0 00-6.88-7h-.05v-2a9 9 0 019 9z"/><path class="cls-2" d="M85.9 45.07h-.37A13.64 13.64 0 0065 37.38a18.7 18.7 0 00-36.3-2.69 13.44 13.44 0 00-3.34-.45 12.86 12.86 0 00-12.68 10.83h-2.09A9.63 9.63 0 001 54.67v.7A9.63 9.63 0 0010.59 65H85.9a9.63 9.63 0 009.6-9.6v-.7a9.63 9.63 0 00-9.6-9.63z"/><path class="cls-8" d="M79.41 48.38h-.31A11.38 11.38 0 0065 40.6a11.53 11.53 0 00-3 1.4 15.59 15.59 0 00-30.29-2.24 10.64 10.64 0 00-13.09 7.45 9.47 9.47 0 00-.26 1.2h-1.74a8 8 0 00-8 8V57a8 8 0 008 8h62.79a8 8 0 008-8v-.59a8 8 0 00-8-8.03z"/><path class="cls-1" d="M58.85 36.41a14.6 14.6 0 00-19.67-4.62l-1-1.71a16.58 16.58 0 0122.35 5.25z"/><path class="cls-1" d="M85.9 66H10.59A10.6 10.6 0 010 55.37v-.7a10.6 10.6 0 0110.59-10.6h1.27A13.73 13.73 0 0128 33.52a19.7 19.7 0 0137.71 2.3 14.66 14.66 0 0119.74 6.35 15.94 15.94 0 01.81 1.9 10.6 10.6 0 0110.23 10.6v.7A10.6 10.6 0 0185.9 66zM10.59 46.07A8.62 8.62 0 002 54.67v.7A8.61 8.61 0 0010.6 64h75.3a8.61 8.61 0 008.6-8.6v-.7a8.61 8.61 0 00-8.6-8.6h-1.12l-.21-.72a12.64 12.64 0 00-19-7.13l-1.29.85-.23-1.51A17.7 17.7 0 0029.65 35l-.28.91-.93-.24A11.79 11.79 0 0014 43.93a12.42 12.42 0 00-.28 1.32l-.14.84z"/><path class="cls-1" d="M32.74 43.62l-1.86-.72a6.18 6.18 0 00.23-.73l1.93.47a8.51 8.51 0 01-.3.98zm.52-2.78h-2a5.68 5.68 0 00-5.66-5.66v-2a7.66 7.66 0 017.66 7.66zm177.41 79.48H238v1.99h-27.33z"/><path class="cls-1" d="M125 250A110.13 110.13 0 0115 140a109 109 0 0122.72-66.93l1.65 1.26A107.93 107.93 0 10208 71.07l1.6-1.32A110 110 0 01125 250z"/></svg>