<svg id="social_Media" data-name="social Media" xmlns="http://www.w3.org/2000/svg" viewBox="0 0 250 250"><defs><style>.cls-1{fill:#f1f2ec}.cls-4{fill:#1b2c38}.cls-5{fill:#fff}.cls-6{fill:#ffcb05}.cls-12{opacity:.1;fill:#231f20}.cls-10{fill:#636c78}</style></defs><circle class="cls-1" cx="125.1" cy="140.44" r="108.54"/><circle cx="127.39" cy="131.28" r="91.84" fill="#27c7cd"/><path class="cls-1" d="M301.91 395.07c-21.1 23-50.35 37.26-82.67 37.26s-61.24-14.11-82.37-36.92z" transform="translate(-93.89 -183.75)"/><path d="M220 423.24a112.46 112.46 0 01-56.17-25.88h-25.44c20.79 21.58 49.52 34.93 81.24 34.93a111.15 111.15 0 0054.52-14.26 110.45 110.45 0 01-54.15 5.21z" transform="translate(-93.89 -183.75)" fill="#e8e9e1"/><path class="cls-4" d="M218.89 433.75a110 110 0 11110-110 110.12 110.12 0 01-110 110zm0-218.09A108.09 108.09 0 10327 323.75a108.22 108.22 0 00-108.11-108.09z" transform="translate(-93.89 -183.75)"/><path class="cls-4" d="M0 211.54h5.94v1.99H0zm238.59 0H250v1.99h-11.41z"/><path class="cls-5" d="M243.13 394.23v-86.05a9.93 9.93 0 019.9-9.9h55.51a9.93 9.93 0 019.9 9.9v86.05z" transform="translate(-93.89 -183.75)"/><path class="cls-4" d="M319.43 396.29h-2v-90.16a6.86 6.86 0 00-6.85-6.86H251a6.86 6.86 0 00-6.85 6.86v90.16h-2v-90.16a8.86 8.86 0 018.84-8.85h59.61a8.86 8.86 0 018.84 8.85z" transform="translate(-93.89 -183.75)"/><path class="cls-4" d="M178.37 122.36h17.73v1.99h-17.73z"/><path class="cls-6" d="M152.84 130.66h67.79v81.87h-67.79z"/><circle class="cls-4" cx="202.35" cy="123.35" r="1.05"/><path d="M243.11 307.43v19.85a42 42 0 0024.75-29.69H253a9.87 9.87 0 00-9.89 9.84zM285.53 376c0-24.73-15.87-41.66-42.42-46.75v67.63h4v-1.63h38.38z" transform="translate(-93.89 -183.75)" fill="#231f20" opacity=".1"/><rect class="cls-5" x="22.41" y="152.89" width="95.78" height="59.65" rx="1.49"/><path class="cls-4" d="M210.6 397.28h-92.82a2.48 2.48 0 01-2.48-2.47v-56.69a2.47 2.47 0 012.48-2.47h92.82a2.47 2.47 0 012.47 2.47v56.69a2.48 2.48 0 01-2.47 2.47zm-92.82-59.65a.49.49 0 00-.49.49v56.69a.49.49 0 00.49.48h92.82a.49.49 0 00.49-.48v-56.69a.49.49 0 00-.49-.49z" transform="translate(-93.89 -183.75)"/><path fill="#6c6ff2" d="M30.93 161.35h78.75v43.23H30.93z"/><path class="cls-10" d="M73.1 203.73l-19.15-24.62-20.21 24.62H73.1z"/><path class="cls-5" d="M199.22 363.8a1 1 0 00-1.43-.9 1.39 1.39 0 00-1-.75 1.59 1.59 0 00.06-.3 1.66 1.66 0 00-2.79-1.22 3.05 3.05 0 00-6-.6 1.86 1.86 0 00-.42 0 2.09 2.09 0 00-2 1.57 2.09 2.09 0 00-.71-.14 1.87 1.87 0 00-1.62 2.88h15.76a.94.94 0 00.15-.54zm-60.02 2.04a.56.56 0 00-.57-.56.59.59 0 00-.23.05.81.81 0 00-.56-.42.85.85 0 000-.17.94.94 0 00-.94-.93.92.92 0 00-.63.25 1.72 1.72 0 00-3.37-.34h-.23a1.17 1.17 0 00-1.14.88 1.06 1.06 0 00-.4-.08 1.05 1.05 0 00-.91 1.61h8.86a.61.61 0 00.12-.29zm22.09-8.84a.86.86 0 00-.86-.87.92.92 0 00-.37.09 1.21 1.21 0 00-.85-.65 1 1 0 000-.26 1.44 1.44 0 00-1.44-1.44 1.46 1.46 0 00-1 .39 2.63 2.63 0 00-5.17-.52h-.36a1.8 1.8 0 00-1.75 1.35 1.58 1.58 0 00-.49-.09 1.65 1.65 0 00-1.66 1.65 1.6 1.6 0 00.26.83h13.61a.86.86 0 00.08-.48z" transform="translate(-93.89 -183.75)"/><path opacity=".37" fill="#1b2c38" d="M61.47 188.78l-22.7 14.45h22.7v-14.45z"/><path class="cls-10" d="M100.19 203.23L75.58 171.6l-25.96 31.63h50.57z"/><path class="cls-4" d="M30.78 203.34h79.05v.99H30.78z"/><path class="cls-12" d="M190.13 396.29v-60.12h-7.41c-22 6.24-35 21.23-35 42.22v17.9z" transform="translate(-93.89 -183.75)"/><path d="M272.47 396.29v-18.93c0-31.88-26.28-46.51-58.15-46.51-31.88 0-57.75 14.63-57.75 46.51v18.93z" transform="translate(-93.89 -183.75)" fill="#fc3e59"/><path class="cls-5" d="M63.64 185.06H82.5v27.48H63.64z"/><path class="cls-4" d="M83.81 212.53h-1.99v-26.48H63.64v-1.98h20.17v28.46z"/><path class="cls-5" transform="rotate(180 215.135 290.675)" d="M252.65 368.81h18.86v27.48h-18.86z"/><path class="cls-4" d="M159.44 212.53h-1.98v-28.46h19.02v1.98h-17.04v26.48z"/><path class="cls-4" d="M273.46 397.28H155.57v-19.92c0-29.3 22.51-47.51 58.75-47.51 36.48 0 59.14 18.21 59.14 47.51zm-115.9-2h113.92v-17.92c0-33.56-29.53-45.52-57.16-45.52-16.39 0-30.3 3.84-40.24 11.11-11 8-16.52 19.59-16.52 34.41z" transform="translate(-93.89 -183.75)"/><circle class="cls-5" cx="81.54" cy="101.55" r="7.44"/><path class="cls-4" d="M175.43 293.47a8.43 8.43 0 118.43-8.42 8.44 8.44 0 01-8.43 8.42zm0-14.87a6.45 6.45 0 106.44 6.45 6.45 6.45 0 00-6.44-6.45z" transform="translate(-93.89 -183.75)"/><path class="cls-5" d="M264 285.31a7.44 7.44 0 11-7.44-7.44 7.44 7.44 0 017.44 7.44z" transform="translate(-93.89 -183.75)"/><path class="cls-4" d="M256.59 293.47a8.43 8.43 0 118.43-8.42 8.44 8.44 0 01-8.43 8.42zm0-14.87a6.45 6.45 0 106.44 6.45 6.45 6.45 0 00-6.44-6.45z" transform="translate(-93.89 -183.75)"/><path class="cls-5" d="M200.74 292.87v52.48a14.7 14.7 0 0026.9-.23l.63-1.44v-50.81z" transform="translate(-93.89 -183.75)"/><path class="cls-4" d="M214.49 354.13a16 16 0 01-12.79-6.36 10.27 10.27 0 01-1.95-6.07v-36a13.84 13.84 0 0113.82-13.82h1.87a13.84 13.84 0 0113.82 13.82v34.52a13.41 13.41 0 01-5.11 10.78 16.16 16.16 0 01-9.66 3.13zm-.92-60.27a11.85 11.85 0 00-11.83 11.84v36a8.28 8.28 0 001.56 4.89 13.69 13.69 0 009.12 5.41 14.26 14.26 0 0010.58-2.63 11.4 11.4 0 004.32-9.15V305.7a11.85 11.85 0 00-11.83-11.84z" transform="translate(-93.89 -183.75)"/><path class="cls-12" d="M200.74 332.82c5.31 2.59 8.74 4.09 15 4.09 5.31 0 7.85-1.05 12.49-2.93V295h-27.49z" transform="translate(-93.89 -183.75)"/><path class="cls-5" d="M175.77 247.9v41.89a40 40 0 0040 40 40 40 0 0040-40V247.9h-80z" transform="translate(-93.89 -183.75)"/><path class="cls-4" d="M215.78 330.8a41 41 0 01-41-41v-42.89h82v42.88a41 41 0 01-41 41.01zm-39-81.91v40.9a39 39 0 1078 0v-40.9z" transform="translate(-93.89 -183.75)"/><path class="cls-4" d="M193.21 278.51l-1.94-.43a7.17 7.17 0 017-5.57 7.1 7.1 0 017 5.53l-1.94.44a5.12 5.12 0 00-5-4 5.17 5.17 0 00-5.12 4.03zm34.85 0l-1.94-.43a7.18 7.18 0 017-5.57A7.1 7.1 0 01240 278l-1.94.44a5.12 5.12 0 00-5-4 5.18 5.18 0 00-5 4.07z" transform="translate(-93.89 -183.75)"/><path class="cls-12" d="M176.22 245.12a17.34 17.34 0 00-.21 2.51l-.24-.07v14.93a9.71 9.71 0 015.86-2.08h66a16.51 16.51 0 008.18-2.17v-13.12h-79.59z" transform="translate(-93.89 -183.75)"/><path class="cls-4" d="M216.19 298.66a6.63 6.63 0 01-6.62-6.62h2a4.63 4.63 0 009.26 0h2a6.63 6.63 0 01-6.64 6.62zM200 278.29a1.78 1.78 0 11-1.78-1.77 1.78 1.78 0 011.78 1.77zm34.86 0a1.78 1.78 0 11-1.78-1.77 1.78 1.78 0 011.78 1.77zm-18.68 34.87a15.94 15.94 0 01-9.76-3.14l1.22-1.57a14.77 14.77 0 0017.08 0l1.21 1.57a15.93 15.93 0 01-9.75 3.14z" transform="translate(-93.89 -183.75)"/><path class="cls-6" d="M202.63 293.86a1.89 1.89 0 11-1.89-1.89 1.89 1.89 0 011.89 1.89zm-8.51-.12a1.89 1.89 0 11-1.88-1.89 1.89 1.89 0 011.88 1.89zm4.22 5.81a1.89 1.89 0 11-1.89-1.89 1.89 1.89 0 011.89 1.89zm42.66-5.69a1.89 1.89 0 11-1.89-1.89 1.89 1.89 0 011.89 1.89zm-8.51-.12a1.89 1.89 0 11-1.88-1.89 1.89 1.89 0 011.88 1.89zm4.22 5.81a1.89 1.89 0 11-1.89-1.89 1.89 1.89 0 011.89 1.89zM266.86 222v17.23a16.58 16.58 0 01-16.58 16.58h-66a8.3 8.3 0 00-8.29 8.3V275a1.66 1.66 0 01-1.66 1.66h-8.26a1.67 1.67 0 01-1.65-1.66v-31.52c2.6-7.8 11.57-4.87 11.57-4.87a16.59 16.59 0 0116.6-16.61z" transform="translate(-93.89 -183.75)"/><path class="cls-6" d="M181.63 251.39h66a16.58 16.58 0 0016.58-16.59V222h-71.6A16.59 16.59 0 00176 238.61s-9-2.93-11.57 4.87V274h6.35a1.66 1.66 0 001.66-1.66v-12.66c.01-4.57 4.62-8.29 9.19-8.29z" transform="translate(-93.89 -183.75)"/><path class="cls-4" d="M174.35 277.64h-8.26a2.65 2.65 0 01-2.65-2.65v-31.67l.06-.16c2.05-6.14 7.89-6.59 11.56-5.83A17.6 17.6 0 01192.59 221h75.26v18.22a17.6 17.6 0 01-17.57 17.58h-66a7.31 7.31 0 00-7.3 7.3V275a2.65 2.65 0 01-2.63 2.64zm-8.92-34V275a.67.67 0 00.66.66h8.26a.67.67 0 00.65-.66v-10.87a9.3 9.3 0 019.28-9.29h66a15.61 15.61 0 0015.59-15.59V223h-73.28A15.61 15.61 0 00177 238.61V240l-1.3-.42c-.32-.13-7.95-2.51-10.27 4.06z" transform="translate(-93.89 -183.75)"/><path d="M189 190.1v35.46a4.91 4.91 0 01-4.91 4.91 1 1 0 00-1 1v14.18a.86.86 0 01-1.51.55l-18.92-15.47a.94.94 0 00-.6-.22h-52.78a4.31 4.31 0 01-4.32-4.31v-35.95a5.42 5.42 0 015.42-5.42h73.31a5.27 5.27 0 015.31 5.27z" transform="translate(-93.89 -183.75)" fill="#e7643e"/><path class="cls-4" d="M182.24 247.55a1.92 1.92 0 01-1.39-.61L162 231.55h-52.17a6 6 0 01-5.94-5.94v-35.92a6 6 0 015.94-5.94h74.27a6 6 0 016 5.94v35.92a6 6 0 01-5.87 5.94v14.06a1.93 1.93 0 01-1.27 1.82 2 2 0 01-.72.12zm-72.41-61.64a3.79 3.79 0 00-3.79 3.78v35.92a3.79 3.79 0 003.79 3.79h53L182 245.12V229.4h2.08a3.79 3.79 0 003.79-3.79v-35.92a3.79 3.79 0 00-3.79-3.78z" transform="translate(-93.89 -183.75)"/><path class="cls-5" d="M160.43 202.43a8.66 8.66 0 00-14.85-6.07 8.66 8.66 0 00-12.43 12.07l12.39 12.34 12.71-12.6c.14-.16.5-.62.5-.62a8.67 8.67 0 001.68-5.12z" transform="translate(-93.89 -183.75)"/><path class="cls-4" d="M269.05 268.15a5.66 5.66 0 115.66-5.66 5.67 5.67 0 01-5.66 5.66zm0-9.34a3.68 3.68 0 103.67 3.68 3.67 3.67 0 00-3.67-3.68zm-113.69 60.42a4.82 4.82 0 114.81-4.82 4.82 4.82 0 01-4.81 4.82zm0-7.65a2.83 2.83 0 102.83 2.83 2.83 2.83 0 00-2.83-2.83zm146.55-20.89a4.39 4.39 0 114.39-4.38 4.39 4.39 0 01-4.39 4.38zm0-6.78a2.4 2.4 0 102.4 2.4 2.4 2.4 0 00-2.4-2.4zM144 273.87a6.53 6.53 0 116.54-6.53 6.54 6.54 0 01-6.54 6.53zm0-11.07a4.54 4.54 0 104.55 4.54 4.54 4.54 0 00-4.55-4.54zm193.35-18.52a6.53 6.53 0 116.54-6.53 6.53 6.53 0 01-6.54 6.53zm0-11.07a4.55 4.55 0 104.55 4.54 4.55 4.55 0 00-4.55-4.54zm-236.93 56.23a6.54 6.54 0 116.53-6.53 6.53 6.53 0 01-6.53 6.53zm0-11.08a4.55 4.55 0 104.54 4.55 4.55 4.55 0 00-4.54-4.55z" transform="translate(-93.89 -183.75)"/><path class="cls-4" d="M16.41 211.54h211.93v1.99H16.41z"/></svg>