<svg id="email_marketing" data-name="email marketing" xmlns="http://www.w3.org/2000/svg" viewBox="0 0 250 250"><defs><style>.cls-1{fill:#f1f2ec}.cls-3{fill:#e8e9e1}.cls-4{fill:#1b2c38}</style></defs><circle class="cls-1" cx="121.55" cy="140.9" r="109.1"/><circle cx="121.82" cy="142.57" r="97.55" fill="#27c7cd"/><path class="cls-1" d="M204.69 210.35c-18 23.47-48.52 38.91-83.12 38.91-34.09 0-64.21-15-82.32-37.89z"/><path class="cls-3" d="M195.29 212.22c-18 18.94-45.7 31.07-76.77 31.07-30.57 0-57.88-11.75-75.89-30.16h-1.88c17.74 21.43 47.25 35.45 80.66 35.45 33.91 0 63.8-14.44 81.45-36.41z"/><path class="cls-4" d="M121.56 250a110 110 0 11110-110 110.13 110.13 0 01-110 110zm0-218.2A108.2 108.2 0 10229.75 140 108.32 108.32 0 00121.56 31.8z"/><path class="cls-4" d="M11.49 211.65H234.8v1.99H11.49zm228.19 0H250v1.99h-10.32zM0 211.65h5.58v1.99H0z"/><path d="M199.07 212.65H48.57a7.52 7.52 0 01-7.52-7.52V121.2A11.16 11.16 0 0152.21 110h146.86a7.75 7.75 0 017.74 7.74v87.16a7.75 7.75 0 01-7.73 7.75zM49 110l63.65-52.34a19.09 19.09 0 0122.5 0L198.89 110z" fill="#bcbec0"/><path class="cls-4" d="M198.2 110.78l-63.65-52.34a18 18 0 00-21.28 0l-63.61 52.3-1.26-1.54L112.05 57a20 20 0 0123.72 0l63.7 52.37z"/><path class="cls-4" d="M198.37 213.65H49.49a9.44 9.44 0 01-9.43-9.44v-85.74a9.43 9.43 0 019.43-9.47h148.88a9.44 9.44 0 019.44 9.43v85.74a9.44 9.44 0 01-9.44 9.44zM49.49 111a7.44 7.44 0 00-7.44 7.44v85.74a7.44 7.44 0 007.44 7.44h148.88a7.45 7.45 0 007.45-7.44v-85.71a7.45 7.45 0 00-7.45-7.44z"/><path d="M89.39 32.57l-24 23.27v127.78h113.5V42.19a9.61 9.61 0 00-9.6-9.62h-79.9z" fill="#fff"/><path d="M90.18 32.57l-24.75 24h20a4.69 4.69 0 004.71-4.69z" fill="#fc3e59"/><path class="cls-4" d="M84.15 58H65.43v-2h18.72a5.48 5.48 0 005.47-5.47v-18h2v18A7.49 7.49 0 0184.15 58z"/><path class="cls-4" d="M179.89 183.62h-2v-142a8.12 8.12 0 00-8.1-8.1H93.08a8.08 8.08 0 00-5.64 2.29l-18.56 18a8.15 8.15 0 00-2.46 5.81v124h-2V59.69a10.17 10.17 0 013.06-7.24l18.52-18a10.12 10.12 0 017-2.85h76.85a10.11 10.11 0 0110 10.06z"/><path class="cls-1" d="M45.79 210.42s60-46.58 60-50.57l-62.35-45.56S41 117 41 125.48V206c.05 3.65 2.76 4 4.79 4.42zm156.61 0s-60-46.58-60-50.57l62.36-45.56s2.39 2.66 2.39 11.19V206c-.01 3.65-2.72 4-4.75 4.42z"/><path class="cls-3" d="M45.79 211.84l66.49-55.3a19.71 19.71 0 0123.5 0l66.49 55.3z"/><path class="cls-4" d="M201.64 212l-66.49-54.67a18.85 18.85 0 00-22.28 0L46.43 212l-1.27-1.54 66.49-54.67a20.89 20.89 0 0124.72 0l66.52 54.65z"/><path class="cls-4" transform="rotate(-53.84 75.273 137.568)" d="M74.29 97.96h1.97v79.22h-1.97z"/><path class="cls-4" transform="rotate(-36.14 172.135 137.518)" d="M132.58 136.54h79.1v1.97h-79.1z"/><path class="cls-4" d="M197.62 213.65H50.25a10.21 10.21 0 01-10.19-10.2v-84.22A10.2 10.2 0 0150.25 109v2a8.21 8.21 0 00-8.2 8.2v84.21a8.21 8.21 0 008.2 8.2h147.37a8.21 8.21 0 008.2-8.2v-84.18a8.21 8.21 0 00-8.2-8.2v-2a10.2 10.2 0 0110.19 10.19v84.23a10.21 10.21 0 01-10.19 10.2z"/><path d="M78.11 67.69h86.38v6.13H78.11zm0 14.32h86.38v6.13H78.11zm0 14.31h86.38v6.13H78.11zm0 14.31h86.38v6.13H78.11zm0 14.31h86.38v6.13H78.11zm77.91 20.44H91.17l-8.34-6.13h81.53l-8.34 6.13z" fill="#e6e7e8"/><path d="M134.61 120.56L139.14 96a46.66 46.66 0 1117.75 20.43z" style="isolation:isolate" fill="#231f20" opacity=".1"/><path d="M134.61 113.41l4.53-24.52a46.62 46.62 0 1117.75 20.43z" fill="#ffcb05"/><path class="cls-4" d="M181.58 117.44a47.45 47.45 0 01-24.86-7.07l-23.36 4.28L138.1 89a47.5 47.5 0 1143.48 28.43zm-24.46-9.17l.33.2a45.56 45.56 0 10-17.4-20l.12.29-4.28 23.41z"/><circle cx="181.33" cy="69.93" r="28.26" transform="rotate(-77.05 181.336 69.927)" fill="#fade79"/><path class="cls-4" d="M181.17 0h1.99v16.31h-1.99z"/><path class="cls-4" transform="rotate(-75 197.85 10.5)" d="M189.69 9.51H206v1.99h-16.31z"/><path class="cls-4" transform="rotate(-60.01 212.36 16.801)" d="M204.2 15.81h16.31v1.99H204.2z"/><path class="cls-4" transform="rotate(-45 224.794 26.687)" d="M216.64 25.69h16.31v1.99h-16.31z"/><path class="cls-4" transform="rotate(-30.01 234.218 39.427)" d="M226.07 38.43h16.31v1.99h-16.31z"/><path class="cls-4" transform="rotate(-15 240.03 54.165)" d="M231.89 53.17h16.31v1.99h-16.31z"/><path class="cls-4" d="M233.69 68.92H250v1.99h-16.31z"/><path class="cls-4" transform="rotate(-45.07 138.86 25.229)" d="M137.86 17.07h1.99v16.31h-1.99z"/><path class="cls-4" transform="rotate(-30.07 151.594 15.772)" d="M150.6 7.62h1.99v16.31h-1.99z"/><path class="cls-4" transform="rotate(-15.07 166.337 9.963)" d="M165.34 1.82h1.99v16.31h-1.99z"/><path class="cls-4" d="M180.75 88.22V85a19 19 0 01-10.81-4.79l3.21-3.83a15.26 15.26 0 007.6 3.83v-8.52a18 18 0 01-7.28-3.12 7.08 7.08 0 01-2.3-5.74 8 8 0 012.66-6.22 10.74 10.74 0 016.92-2.61v-2.2h2.82V54a18.39 18.39 0 019.14 3.3l-2.86 4a14.09 14.09 0 00-6.28-2.55V67h.13a18 18 0 017.43 3.21 7.3 7.3 0 012.37 5.87 8 8 0 01-2.72 6.27 11.37 11.37 0 01-7.21 2.65v3.16zm-3.1-28.38a3.11 3.11 0 00-1.12 2.46 3.06 3.06 0 00.88 2.33 8.72 8.72 0 003.34 1.65v-7.61a5.32 5.32 0 00-3.1 1.17zm9.24 19.28a3.39 3.39 0 00.47-4.77l-.21-.23a9.68 9.68 0 00-3.6-1.69v7.91a6.13 6.13 0 003.34-1.22z"/></svg>