<svg id="ppc" xmlns="http://www.w3.org/2000/svg" viewBox="0 0 250 250"><defs><style>.cls-1{fill:#f1f2ec}.cls-3{fill:#1b2c38}.cls-5{fill:#27c7cd}.cls-6{fill:#fff}.cls-9{fill:#ffcb05}.cls-10{fill:#231f20;opacity:.1}</style></defs><ellipse class="cls-1" cx="125.67" cy="125.91" rx="110" ry="108.33"/><path class="cls-1" d="M333.51 345.26C315 376.18 280.4 397 240.84 397c-38.33 0-72-19.52-90.89-48.86z" transform="translate(-115.15 -162.74)"/><path d="M333.06 344.37l-183.78 3.42c1.46 2.71 3 5.32 4.65 7.89l170.65 3.18a126.59 126.59 0 008.48-14.49z" transform="translate(-115.15 -162.74)" fill="#e8e9e1"/><path class="cls-3" d="M240.82 398.55a110 110 0 11110-110 110.12 110.12 0 01-110 110zm0-217.9a107.91 107.91 0 10107.9 107.9 108 108 0 00-107.9-107.9z" transform="translate(-115.15 -162.74)"/><path class="cls-3" d="M19.15 183.83H227.5v2H19.15zm216.04 0H250v2h-14.81zM0 183.83h12.33v2H0z"/><rect x="36.76" y="67.85" width="178.72" height="110.7" rx="1" fill="#636c78"/><path class="cls-3" d="M329.62 342.29H152.91a2 2 0 01-2-2v-108.7a2 2 0 012-2h176.71a2 2 0 012 2v108.7a2 2 0 01-2 2zm0-2zm-176.71-108.7v108.7h176.71v-108.7z" transform="translate(-115.15 -162.74)"/><path class="cls-5" d="M45.44 77.96h160.39v86.48H45.44z"/><path class="cls-6" d="M328.4 347.06H154a8.56 8.56 0 01-8.44-7.17l-1.24-7.58h194.8L338 338.9a9.73 9.73 0 01-9.6 8.16z" transform="translate(-115.15 -162.74)"/><path class="cls-3" d="M328.4 348.05H154a9.51 9.51 0 01-9.42-8l-1.44-8.74h197.12l-1.26 7.75a10.7 10.7 0 01-10.6 8.99zm-182.94-14.74l1 6.42a7.52 7.52 0 007.45 6.32H328.4a8.68 8.68 0 008.61-7.31l.89-5.43z" transform="translate(-115.15 -162.74)"/><path class="cls-3" d="M113.37 174.29h26.1v2h-26.1z"/><path class="cls-6" d="M304.38 327.35H177.16V181.61a5.41 5.41 0 015.41-5.42h116a5.83 5.83 0 015.82 5.82z" transform="translate(-115.15 -162.74)"/><path d="M304.38 190.35H177.16v-8.92a5.55 5.55 0 015.55-5.55h116a5.68 5.68 0 015.68 5.68z" transform="translate(-115.15 -162.74)" fill="#fc3e59"/><path class="cls-5" d="M69.44 36.02h58.76v55.32H69.44z"/><path class="cls-6" d="M188.53 183.38a1.64 1.64 0 11-1.63-1.62 1.63 1.63 0 011.63 1.62zm6.37 0a1.64 1.64 0 11-1.64-1.62 1.64 1.64 0 011.64 1.62zm6.37 0a1.64 1.64 0 01-3.27 0 1.64 1.64 0 013.27 0z" transform="translate(-115.15 -162.74)"/><path d="M130.51 49.82h49.89v2.75h-49.89zm0 8.13h49.89v2.75h-49.89zm0 8.13h49.89v2.75h-49.89zm0 8.13h49.89v2.75h-49.89zm0 8.13h34.47v2.75h-34.47zm0-46.33h49.89v6.9h-49.89zM69.69 104.4H180.4v2.75H69.69zm10.44 9.41h89.55v2.75H80.13zm0 9.4h89.55v2.75H80.13zm0 9.41h89.55v2.75H80.13zm0 9.41h89.55v2.75H80.13zm0 9.4h44.78v2.75H80.13z" fill="#d8d8d8"/><path class="cls-3" d="M305.38 327.35h-2V181.47a4.28 4.28 0 00-4.28-4.28H182.43a4.28 4.28 0 00-4.27 4.28v145.88h-2V181.47a6.28 6.28 0 016.27-6.28H299.1a6.29 6.29 0 016.28 6.28z" transform="translate(-115.15 -162.74)"/><path class="cls-3" d="M63.58 26.61h125.65v2H63.58z"/><path class="cls-9" d="M229.7 228.82a14.68 14.68 0 11-14.7-14.68 14.68 14.68 0 0114.7 14.68z" transform="translate(-115.15 -162.74)"/><path class="cls-3" d="M214.35 235.5v-1.19a7.39 7.39 0 01-3.8-1.86l1.51-1.84a6.4 6.4 0 002.29 1.41v-2.41a5.88 5.88 0 01-2.5-1.18 2.76 2.76 0 01-.8-2.13 3.12 3.12 0 01.95-2.3 4 4 0 012.39-1.08v-.79h1.72v.87a7.51 7.51 0 013.23 1.34l-1.34 1.89a6.11 6.11 0 00-1.9-1v2.33a6.19 6.19 0 012.59 1.22 2.8 2.8 0 01.83 2.16 3.07 3.07 0 01-.93 2.3 4.1 4.1 0 01-2.49 1.09v1.14zm0-10.31a.9.9 0 00-.7.89 1.05 1.05 0 00.7 1zm2.55 5.91a.88.88 0 00-.18-.57 1.65 1.65 0 00-.65-.42v2a1 1 0 00.83-1.01z" transform="translate(-115.15 -162.74)"/><path class="cls-3" transform="rotate(-2.31 -3878.812 2978.153)" d="M214.1 200.4h2v7.77h-2z"/><path class="cls-3" transform="rotate(-59.9 30.111 222.632)" d="M221.12 203.07h15.52v2h-15.52z"/><path class="cls-3" transform="rotate(-29.83 -127.57 350.78)" d="M231.59 215h7.76v2h-7.76z"/><path class="cls-3" transform="rotate(-89.75 103.115 204.167)" d="M241.43 219.95h2v15.52h-2z"/><path class="cls-3" transform="rotate(-1.23 -7423.624 5532.47)" d="M214.16 247.01h2v7.76h-2z"/><path class="cls-3" transform="rotate(-59.42 1.223 270.503)" d="M193.66 249.98h15.52v2h-15.52z"/><path class="cls-3" transform="rotate(-30.69 -159.01 367.402)" d="M191.4 238h7.44v2h-7.44z"/><path class="cls-3" transform="rotate(-89.23 48.043 204.206)" d="M187.08 219.46h2v15.52h-2z"/><path class="cls-3" transform="rotate(-61.88 1.944 230.529)" d="M194.25 212.07h2v7.55h-2z"/><path class="cls-3" transform="rotate(-29.06 -169.463 344.612)" d="M201.05 196.07h2v15.52h-2z"/><path class="cls-10" d="M118.65 81.71l12.34 14.71-5.14 4.31-12.33-14.71-3.51 9.72-9.91-30.94 28.74 15.15-10.19 1.76z"/><path class="cls-3" d="M120.06 80.03l13.57 13.57-4.73 4.73-13.57-13.57-2.66 9.99L100.1 64.8l29.95 12.58-9.99 2.65z"/><circle class="cls-10" cx="161.93" cy="98.14" r="17.13"/><circle class="cls-9" cx="277.92" cy="258.82" r="14.89" transform="rotate(-22.64 -186.123 465.054)"/><path class="cls-3" d="M277.92 274.71a15.89 15.89 0 1115.88-15.89 15.91 15.91 0 01-15.88 15.89zm0-29.78a13.89 13.89 0 1013.88 13.89 13.9 13.9 0 00-13.88-13.89z" transform="translate(-115.15 -162.74)"/><path class="cls-3" d="M277.23 265.59v-1.2a7.55 7.55 0 01-3.85-1.89l1.53-1.86a6.82 6.82 0 002.32 1.43v-2.45a5.91 5.91 0 01-2.53-1.2 2.78 2.78 0 01-.81-2.15 3.13 3.13 0 01.92-2.32 4 4 0 012.42-1.1V252H279v.84a7.56 7.56 0 013.27 1.37l-1.35 1.94a6.24 6.24 0 00-1.92-1v2.37a6.15 6.15 0 012.62 1.23 2.81 2.81 0 01.85 2.19 3.11 3.11 0 01-.95 2.34 4.19 4.19 0 01-2.52 1.1v1.15zm0-10.45a.91.91 0 00-.7.9 1.09 1.09 0 00.7 1zm2.59 6a.93.93 0 00-.18-.58 1.63 1.63 0 00-.66-.42v2a1 1 0 00.84-1.01z" transform="translate(-115.15 -162.74)"/><circle class="cls-10" cx="315.68" cy="217.93" r="20.77" transform="rotate(-49.44 81.379 261.624)"/><path class="cls-9" d="M333.45 225.27a18 18 0 11-6.65-24.65 18 18 0 016.65 24.65z" transform="translate(-115.15 -162.74)"/><path class="cls-3" d="M317.77 235.32a19 19 0 1116.55-9.55 19.07 19.07 0 01-16.55 9.55zm.06-36.09a17 17 0 108.47 2.26 17.06 17.06 0 00-8.47-2.26z" transform="translate(-115.15 -162.74)"/><path class="cls-3" d="M313 223l.73-1.26a9.18 9.18 0 01-2.91-4.32l2.74-1a8.16 8.16 0 001.57 2.91l1.48-2.58a7.11 7.11 0 01-1.94-2.79 3.39 3.39 0 01.46-2.75 3.75 3.75 0 012.37-1.88 4.81 4.81 0 013.2.31l.49-.85 1.83 1-.5.89a9.09 9.09 0 012.61 3.41l-2.59 1.23a7.48 7.48 0 00-1.43-2.2l-1.43 2.49a7.65 7.65 0 012 2.88 3.44 3.44 0 01-.44 2.82 3.77 3.77 0 01-2.4 1.88 5.06 5.06 0 01-3.33-.37l-.69 1.21zm6.32-11a1.11 1.11 0 00-1.29.53 1.3 1.3 0 00.14 1.48zm-.9 7.86a1 1 0 00.15-.71 1.93 1.93 0 00-.43-.85l-1.22 2.13a1.26 1.26 0 001.49-.58z" transform="translate(-115.15 -162.74)"/><path class="cls-10" d="M276.62 211.21a11.08 11.08 0 11-15.43-2.73 11.08 11.08 0 0115.43 2.73z" transform="translate(-115.15 -162.74)"/><path class="cls-9" d="M275.11 210.64a9.63 9.63 0 11-13.4-2.37 9.63 9.63 0 0113.4 2.37z" transform="translate(-115.15 -162.74)"/><path class="cls-3" d="M267.25 226.79a10.73 10.73 0 01-1.87-.16 10.65 10.65 0 111.87.16zm0-19.26a8.63 8.63 0 107.09 3.69 8.59 8.59 0 00-5.57-3.55 8.77 8.77 0 00-1.56-.14z" transform="translate(-115.15 -162.74)"/><path class="cls-3" d="M269.37 220l-.44-.63a4.82 4.82 0 01-2.74.42l.12-1.55a4.37 4.37 0 001.76-.1l-.91-1.3a3.89 3.89 0 01-1.79.31 1.8 1.8 0 01-1.22-.85 2 2 0 01-.37-1.57 2.58 2.58 0 01.87-1.48l-.3-.42.93-.65.31.44a4.93 4.93 0 012.24-.49v1.53a4.28 4.28 0 00-1.39.19l.88 1.26a4 4 0 011.85-.32 1.81 1.81 0 011.26.85 2 2 0 01.36 1.59 2.65 2.65 0 01-.93 1.52l.43.61zm-3.87-5.53a.59.59 0 000 .74.71.71 0 00.75.27zm3.59 2.21a.6.6 0 00-.31-.24 1.13 1.13 0 00-.51 0l.75 1.07a.65.65 0 00.07-.83z" transform="translate(-115.15 -162.74)"/><path class="cls-3" d="M47.46 42.8h4.25v2h-4.25zm-7.32 0h4.25v2h-4.25zM0 42.8h37.08v2H0zm245.75 56.93H250v2h-4.25zm-7.32 0h4.25v2h-4.25zm-40.15 0h37.08v2h-37.08zM17.78 50.2h42.24v2H17.78zM37.46 3.81h9.62v2h-9.62z"/><path class="cls-3" d="M41.27 0h2v9.62h-2zm185.45 231.86h6.82v2h-6.82z"/><path class="cls-3" d="M229.13 229.45h2v6.82h-2zm12.65 15.58h7.94v2h-7.94z"/><path class="cls-3" d="M244.75 242.06h2V250h-2zm-16.02-169.4h10.15v2h-10.15z"/><path class="cls-3" d="M232.8 68.59h2v10.15h-2z"/></svg>