<svg xmlns="http://www.w3.org/2000/svg" viewBox="0 0 570 437.02"><defs><style>.cls-1{fill:#e2e7ec}.cls-2{fill:#1b2c38}.cls-3{fill:#27c7cd}.cls-4{fill:#ffcb05}.cls-5{fill:#6066e2}.cls-6{fill:#515ace}.cls-7{fill:#6c6ff2}</style></defs><path class="cls-1" d="M143.54 287.2h-27.18a.81.81 0 010-1.61h27.18a32.37 32.37 0 10-11.91-62.45.76.76 0 01-.66 0 .79.79 0 01-.42-.51 50.17 50.17 0 00-98.63 10.67.82.82 0 01-.37.65.8.8 0 01-.75.05A26.94 26.94 0 1020 285.59h62.22a.81.81 0 110 1.61H20a28.56 28.56 0 110-57.11 28.24 28.24 0 0110.39 2 51.78 51.78 0 01101.49-10.73 33.6 33.6 0 0111.67-2.09 34 34 0 110 68zM508 163.73H403.53a21.34 21.34 0 117.15-41.44 32.42 32.42 0 0163.48 6.71 17.92 17.92 0 0123.27 11 14.14 14.14 0 0110.57-4.8.68.68 0 110 1.36 12.8 12.8 0 00-10.31 5.18.69.69 0 01-.68.26.7.7 0 01-.53-.49 16.56 16.56 0 00-22.68-10.94.7.7 0 01-1-.6 31.06 31.06 0 00-61.06-6.6.69.69 0 01-.91.46 20 20 0 10-7.35 38.54H508a13 13 0 0011.67-7.37.69.69 0 011.24.59 14.36 14.36 0 01-12.91 8.14zM306.69 72.38h-13.92a1 1 0 010-2h13.92a16 16 0 10-5.88-30.86 1 1 0 01-.82 0 1 1 0 01-.52-.64 25.11 25.11 0 00-30.17-18 1 1 0 11-.47-1.95 27.65 27.65 0 016.36-.75 27.15 27.15 0 0125.92 19.14 18 18 0 115.58 35.1zM253 32.48a1 1 0 01-.53-.15 1 1 0 01-.32-1.38A27.17 27.17 0 01263 21a1 1 0 11.9 1.78A25.19 25.19 0 00253.85 32a1 1 0 01-.85.48zM234.57 47a1 1 0 01-.79-.38 1 1 0 01.17-1.4 15.18 15.18 0 0114.24-2.51 26.75 26.75 0 011.61-7 1 1 0 111.87.71 25.29 25.29 0 00-1.58 7.76 1 1 0 01-.46.81 1 1 0 01-.94.07 13.15 13.15 0 00-13.5 1.74 1.05 1.05 0 01-.62.2zm40.71 25.38h-31.89a15.24 15.24 0 01-15.22-15.22 1 1 0 012 0 13.23 13.23 0 0013.22 13.22h31.89a1 1 0 010 2zm12.72 0h-7.89a1 1 0 010-2H288a1 1 0 010 2z" transform="translate(8.57 -18.14)" id="Layer_6" data-name="Layer 6"/><g id="Layer_3" data-name="Layer 3"><path class="cls-2" d="M72.66 121h-14.6l7.3-12.64zm-12.87-1h11.13l-5.56-9.64zm391.66 72.26l-8.67-8.68 8.67-8.67 8.68 8.67zm-7.26-8.68l7.26 7.27 7.26-7.27-7.26-7.26z" transform="translate(8.57 -18.14)"/><path class="cls-3" transform="rotate(-90 402.025 64.395)" d="M396.17 67.1h21.29v21.29h-21.29z"/><path class="cls-2" d="M397.23 93.51l-15.76-15.76L397.23 62 413 77.75zm-14.35-15.76l14.35 14.34 14.34-14.34-14.34-14.35z" transform="translate(8.57 -18.14)"/><circle class="cls-4" cx="132.96" cy="127.16" r="20.91"/><path class="cls-2" d="M113.59 159.51h-1.17v-1h2v1h-.83zm2.91-.19l-.14-1a17.54 17.54 0 001.92-.35l.23 1c-.66.13-1.34.25-2.01.35zm-6.12 0a19.31 19.31 0 01-2-.4l.25-1a17.44 17.44 0 001.91.38zm10.1-.89l-.32-.95c.61-.21 1.22-.45 1.81-.72l.41.92c-.62.23-1.26.48-1.9.7zm-14.07-.1q-1-.34-1.89-.78l.42-.9c.59.27 1.2.52 1.81.74zm17.79-1.58l-.49-.87c.56-.32 1.11-.68 1.64-1.05l.58.82c-.56.35-1.14.71-1.73 1.05zm-21.49-.15c-.58-.35-1.16-.73-1.71-1.13l.59-.81a17.69 17.69 0 001.63 1.08zm24.83-2.21l-.65-.76c.49-.42 1-.88 1.42-1.34l.72.69c-.47.44-.97.91-1.49 1.36zm-28.14-.2c-.5-.45-1-.93-1.46-1.43l.73-.68a20 20 0 001.4 1.36zm31-2.75l-.79-.62c.4-.51.79-1.05 1.14-1.59l.84.54c-.39.52-.79 1.08-1.21 1.62zm-33.77-.24c-.41-.53-.8-1.1-1.17-1.68l.85-.53c.35.55.72 1.09 1.12 1.6zm36-3.2l-.89-.46a18.85 18.85 0 00.81-1.77l.93.37a19.59 19.59 0 01-.88 1.86zm-38.16-.26a19.37 19.37 0 01-.83-1.87l.93-.36c.24.6.5 1.2.79 1.78zm39.68-3.53l-1-.28c.19-.62.34-1.26.47-1.9l1 .19a19.26 19.26 0 01-.5 1.94zM93 143.88a19.94 19.94 0 01-.46-2l1-.17c.12.63.26 1.27.44 1.9zm41.93-3.73l-1-.1q.09-1 .09-2h1c-.02.74-.02 1.42-.12 2.1zm-42.65-.3c0-.58-.07-1.17-.07-1.75v-.29h1v.28c0 .56 0 1.12.07 1.67zm41.7-3.13c0-.65-.12-1.3-.23-1.94l1-.16c.11.67.19 1.35.24 2zm-40.65-.85l-1-.11c.08-.67.19-1.35.32-2l1 .21c-.18.61-.28 1.26-.35 1.9zm40-3c-.17-.62-.37-1.25-.59-1.86l.94-.34c.23.63.44 1.29.61 2zm-39.23-.81l-1-.3c.2-.65.44-1.3.7-1.92l.92.38c-.22.6-.44 1.22-.63 1.84zm37.9-2.84a18.85 18.85 0 00-.93-1.71l.85-.52a18.33 18.33 0 011 1.79zm-36.37-.76l-.88-.47a19.38 19.38 0 011.06-1.75l.83.55c-.4.54-.74 1.1-1.05 1.67zm34.35-2.57c-.39-.52-.81-1-1.24-1.5l.74-.68c.45.51.89 1 1.3 1.58zm-32.18-.67l-.78-.63a19.78 19.78 0 011.37-1.52l.71.7c-.5.46-.93.95-1.34 1.45zm29.52-2.22c-.49-.43-1-.85-1.51-1.24l.6-.8c.54.41 1.07.85 1.58 1.3zm-26.82-.55l-.65-.77c.53-.44 1.07-.85 1.63-1.24l.57.83a17.59 17.59 0 00-1.55 1.18zm23.7-1.78c-.56-.34-1.13-.65-1.72-.94l.44-.9c.61.3 1.22.63 1.8 1zm-20.49-.43l-.48-.87c.59-.33 1.21-.64 1.83-.91l.4.92c-.6.26-1.18.55-1.75.86zm17-1.27a17.46 17.46 0 00-1.86-.59l.26-1a20 20 0 012 .62zm-13.41-.28l-.3-1c.64-.21 1.31-.39 2-.54l.22 1q-1.01.24-1.94.54zm9.64-.72c-.64-.11-1.29-.18-1.93-.23l.06-1a20.21 20.21 0 012 .23zm-5.83-.12l-.12-1c.67-.08 1.36-.13 2-.15v1c-.6.02-1.26.07-1.9.15z" transform="translate(8.57 -18.14)"/><path class="cls-3" d="M134.22 276.85l12-2.11-2.59-14.68-12 2.12a27.72 27.72 0 00-2.37-4.14l7.86-9.36-11.42-9.58-7.86 9.36a28.8 28.8 0 00-4.48-1.62V234.6H98.44v12.24a28.16 28.16 0 00-4.43 1.6l-7.84-9.38-11.44 9.56 7.84 9.38a29.65 29.65 0 00-2.38 4.14l-12-2.15-2.61 14.68 12 2.14a27.88 27.88 0 00.83 4.69l-10.61 6.1 7.43 12.92 10.59-6.09a29.82 29.82 0 003.66 3.06L85.29 309l14 5.12 4.19-11.49c.8.07 1.6.12 2.42.12s1.57-.05 2.35-.12l4.18 11.5 14-5.09-4.18-11.49a27.57 27.57 0 003.67-3.06l10.58 6.12 7.5-12.94-10.6-6.12a28 28 0 00.82-4.7zm-17.13-2.58a11.2 11.2 0 11-11.19-11.19 11.19 11.19 0 0111.19 11.19z" transform="translate(8.57 -18.14)"/><path class="cls-2" d="M105.9 286.46a12.19 12.19 0 1112.19-12.19 12.21 12.21 0 01-12.19 12.19zm0-22.38a10.19 10.19 0 1010.19 10.19 10.2 10.2 0 00-10.19-10.19zm0 31.23h-.4v-1h.38c.5 0 1 0 1.49-.06l.07 1c-.44.04-1.02.06-1.54.06zm-2.36-.13c-.65-.07-1.31-.18-1.94-.31l.2-1a16.55 16.55 0 001.85.29zm5.88-.16l-.17-1c.62-.11 1.23-.24 1.83-.4l.26 1c-.63.15-1.28.29-1.92.38zm-9.73-.64c-.62-.19-1.25-.42-1.85-.67l.38-.92c.58.24 1.17.45 1.76.63zm13.52-.38l-.34-.94a18.47 18.47 0 001.72-.73l.43.9c-.58.28-1.19.54-1.81.77zm-17.15-1.13c-.58-.31-1.15-.64-1.69-1l.54-.84a18.65 18.65 0 001.62 1zm20.69-.58l-.51-.85c.53-.32 1.06-.68 1.55-1l.6.8a17.94 17.94 0 01-1.64 1.05zm-24-1.57c-.51-.41-1-.85-1.47-1.3l.69-.72a18.25 18.25 0 001.41 1.23zm27.14-.76l-.66-.75c.46-.41.91-.86 1.34-1.31l.73.68c-.42.48-.9.94-1.39 1.42zm-30-2c-.42-.5-.83-1-1.21-1.55l.82-.58c.36.51.75 1 1.15 1.48zm32.65-.91l-.8-.61c.38-.49.74-1 1.08-1.54l.84.53c-.3.57-.66 1.13-1.07 1.65zm-34.92-2.3a19.08 19.08 0 01-.9-1.74l.9-.42a18.56 18.56 0 00.86 1.66zm37-1l-.89-.45c.28-.55.54-1.13.77-1.71l.93.37a19.21 19.21 0 01-.75 1.79zM86 281.21a17.63 17.63 0 01-.56-1.88l1-.24c.15.6.33 1.21.53 1.79zm40.09-1.12l-1-.27c.17-.6.31-1.21.43-1.82l1 .18c-.07.65-.22 1.29-.4 1.91zm-41-2.69a18.59 18.59 0 01-.2-2l1-.05a16.75 16.75 0 00.19 1.86zm41.75-1.17l-1-.09c.06-.62.09-1.25.09-1.87h1c.01.65-.03 1.32-.09 1.96zm-.91-2.32c0-.63-.05-1.25-.12-1.87l1-.11c.07.65.11 1.31.12 2zm-40.06-.4h-1c0-.66.08-1.32.16-2l1 .13c-.03.62-.14 1.25-.16 1.87zm39.65-3.32c-.13-.61-.28-1.22-.47-1.82l1-.29c.19.62.36 1.26.49 1.9zm-39.16-.39l-1-.22a18.33 18.33 0 01.53-1.89l1 .31a16.6 16.6 0 00-.53 1.8zm38.06-3.19c-.24-.57-.5-1.14-.8-1.7l.89-.46c.3.58.59 1.18.83 1.78zm-36.89-.36l-.92-.4a19.34 19.34 0 01.87-1.77l.88.49a15.41 15.41 0 00-.83 1.68zm35.14-2.95c-.34-.52-.71-1-1.1-1.52l.78-.62c.41.51.8 1 1.16 1.59zm-33.33-.3l-.82-.56a17.87 17.87 0 011.18-1.57l.77.64c-.4.49-.78.95-1.13 1.49zm31-2.6c-.43-.44-.89-.88-1.36-1.28l.65-.76c.49.43 1 .88 1.43 1.35zm-28.61-.28l-.71-.7c.47-.47 1-.91 1.46-1.33l.64.77c-.48.37-.95.79-1.39 1.23zm25.77-2.16c-.51-.36-1-.7-1.57-1l.5-.87c.56.33 1.12.69 1.65 1.06zm-22.89-.23l-.56-.82a19.38 19.38 0 011.68-1l.48.87c-.54.22-1.08.57-1.6.92zm19.65-1.65c-.56-.26-1.15-.49-1.74-.7l.34-.94a17.79 17.79 0 011.82.74zm-16.37-.16l-.4-.91c.6-.26 1.22-.5 1.84-.7l.31.95a18.46 18.46 0 00-1.75.63zm12.84-1.07a18.72 18.72 0 00-1.84-.37l.15-1c.65.1 1.3.23 1.93.39zm-9.29-.09l-.22-1c.64-.14 1.29-.26 1.94-.34l.13 1c-.62.06-1.24.17-1.85.31zm5.59-.47h-1.87v-1h2zm332.25 130.62c-.68 0-1.37 0-2-.08l.09-1c.64.06 1.3.08 1.95.08zm-4.07-.35c-.67-.12-1.34-.27-2-.44l.26-1c.62.17 1.27.31 1.91.43zm-3.94-1.06c-.64-.23-1.27-.5-1.88-.79l.42-.9c.59.27 1.19.53 1.81.75zm-3.69-1.74c-.58-.34-1.16-.71-1.72-1.1l.58-.82a19.08 19.08 0 001.64 1.06zm-3.34-2.35c-.51-.44-1-.9-1.5-1.39l.72-.7c.46.46.94.91 1.43 1.32zm-2.87-2.9c-.43-.52-.85-1.07-1.23-1.63l.82-.57c.37.54.77 1.06 1.18 1.56zm-2.32-3.36c-.34-.59-.65-1.2-.94-1.81l.91-.42q.41.88.9 1.74zm-1.7-3.71q-.35-1-.6-1.95l1-.25c.17.63.36 1.26.58 1.87zm-1-3.95c-.11-.67-.19-1.35-.24-2l1-.07c.05.65.13 1.3.24 1.94zm.69-4.06h-1c0-.68 0-1.37.1-2l1 .1c-.09.59-.14 1.25-.14 1.9zm.37-3.88l-1-.19a20.4 20.4 0 01.46-2l1 .27c-.22.64-.37 1.28-.49 1.92zm1.05-3.77l-.94-.35c.24-.63.51-1.27.81-1.88l.9.44c-.31.58-.57 1.19-.8 1.79zm1.69-3.52l-.86-.51c.35-.58.73-1.15 1.12-1.71l.82.59c-.41.53-.77 1.08-1.11 1.63zm2.29-3.17l-.76-.65c.44-.51.92-1 1.4-1.49l.7.72c-.5.45-.95.93-1.37 1.42zm2.8-2.72l-.63-.78c.52-.42 1.07-.83 1.64-1.22l.56.83c-.57.37-1.1.8-1.6 1.17zm3.23-2.2l-.49-.87c.59-.33 1.21-.64 1.83-.92l.41.92c-.63.26-1.22.56-1.78.87zm3.56-1.59l-.32-.95c.63-.22 1.29-.41 2-.58l.24 1c-.71.13-1.34.32-1.95.53zm3.79-.94l-.15-1a19.7 19.7 0 012-.23l.07 1a18.47 18.47 0 00-1.95.23z" transform="translate(8.57 -18.14)"/><path class="cls-2" d="M439.28 384.91v-1a22.28 22.28 0 000-44.55v-1a23.28 23.28 0 010 46.55z" transform="translate(8.57 -18.14)"/><path class="cls-2" d="M443.58 342.99h8.54v1h-8.54z"/><path class="cls-2" d="M447.35 339.23h1v8.54h-1z"/><path class="cls-2" d="M91.92 383l-2.56-13.14 12.64 4.38zm-1.25-11.6l1.9 9.73 7.48-6.51zm64.75-175.3l-11.59-6.69 11.59-6.69zm-9.59-6.69l8.59 5v-9.92z" transform="translate(8.57 -18.14)"/><path class="cls-2" d="M483.28 197.08h9.21v1h-9.21z"/><path class="cls-2" d="M487.38 192.98h1v9.21h-1zM176.9 372.41h9.21v1h-9.21z"/><path class="cls-2" d="M181.01 368.3h1v9.21h-1z"/><path class="cls-5" d="M355.53 332.44h-22.48l3.49-11.35-3.49-11.35h22.48v22.7z"/><path class="cls-6" d="M345.08 311.72l10.45-1.98-.35 6.27-10.1-4.29z"/><path class="cls-7" d="M345.08 311.72h29.36v23.24h-29.36z"/><path class="cls-2" d="M373.94 310.26h1v46.7h-1z"/><path class="cls-5" d="M176.32 337.65h-22.48l3.49-11.34-3.49-11.35h22.48v22.69z"/><path class="cls-6" d="M165.87 316.94l10.45-1.98-.35 6.27-10.1-4.29z"/><path class="cls-7" d="M165.87 316.93h29.36v23.24h-29.36z"/><path class="cls-2" d="M194.73 315.48h1v46.7h-1z"/><path fill="#d1d3d4" d="M285 285.75L174.03 436.4h221.94L285 285.75z"/><path d="M195.56 345.61l-66.87 90.79h133.74l-66.87-90.79zm178.88-.12l-66.87 90.78h133.74l-66.87-90.78z" fill="#e6e7e8"/><path class="cls-2" d="M226 341.08a4.61 4.61 0 114.61-4.61 4.6 4.6 0 01-4.61 4.61zm0-8.22a3.61 3.61 0 103.61 3.61 3.61 3.61 0 00-3.61-3.61z" transform="translate(8.57 -18.14)"/><path d="M277.08 132.37a84 84 0 00-84 84c0 46.37 84 141.1 84 141.1s84-94.73 84-141.1a84 84 0 00-84-84zm0 124.4a48.71 48.71 0 1148.71-48.71 48.71 48.71 0 01-48.71 48.71z" transform="translate(8.57 -18.14)" fill="#fc3e59"/><path d="M339.06 208.06a62 62 0 10-62 62 62 62 0 0062-62zm-110.68 0a48.71 48.71 0 1148.7 48.71 48.71 48.71 0 01-48.7-48.71z" transform="translate(8.57 -18.14)" fill="#ea2f53"/><path class="cls-2" d="M277.08 358.94l-.74-.84c-.21-.24-21.27-24.06-42.06-53.24-28-39.29-42.17-69.08-42.17-88.52a85 85 0 01169.94 0c0 19.44-14.18 49.23-42.17 88.52-20.78 29.14-41.88 53-42.05 53.24zm0-225.57a83.06 83.06 0 00-83 83c0 43.14 74.63 130 83 139.58 8.34-9.57 83-96.44 83-139.58a83.06 83.06 0 00-83-83zm0 124.4a49.71 49.71 0 1149.71-49.71 49.76 49.76 0 01-49.71 49.71zm0-97.41a47.71 47.71 0 1047.71 47.7 47.76 47.76 0 00-47.71-47.7z" transform="translate(8.57 -18.14)"/><path class="cls-2" d="M285.15 89.69h1v16.51h-1z"/><path class="cls-2" transform="rotate(-75.01 294.802 97.147)" d="M286.06 111.31h32.52v1h-32.52z"/><path class="cls-2" transform="rotate(-60.08 310.158 112.705)" d="M313.68 128.69h15.75v1h-15.75z"/><path class="cls-2" transform="rotate(-45.12 329.115 116.632)" d="M330.42 135.52h32.52v1h-32.52z"/><path class="cls-2" transform="rotate(-30.12 325.59 136.012)" d="M348.04 160.5h13.95v1h-13.95z"/><path class="cls-2" transform="rotate(-60.56 186.868 144.097)" d="M197.63 152.38h1v16.26h-1z"/><path class="cls-2" transform="rotate(-45.58 189.423 117.096)" d="M206.2 120.1h1v32.52h-1z"/><path class="cls-2" transform="rotate(-30.61 202.313 103.226)" d="M230.66 119.81h1v16.26h-1z"/><path class="cls-2" transform="rotate(-15.64 188.876 71.045)" d="M250.14 95.04h1v32.52h-1z"/></g><path class="cls-1" d="M3.68 407.91l-12.25-12.25 12.25-12.25 12.25 12.25zm-10.83-12.25l10.83 10.83 10.84-10.83-10.84-10.84z" transform="translate(8.57 -18.14)" id="Layer_9" data-name="Layer 9"/><g id="Layer_8" data-name="Layer 8"><path class="cls-1" d="M452 298.65h100.65v1H452zm-12.99 0h8.7v1h-8.7zm-12.88 0h8.7v1h-8.7zm134.66 0H570v1h-9.21z"/><path class="cls-1" d="M564.89 294.54h1v9.21h-1z"/></g><g id="Layer_10" data-name="Layer 10"><path d="M451.31 250.18A32.27 32.27 0 00419 217.91v32.27z" transform="translate(8.57 -18.14)" fill="#e7643e"/><path d="M451.31 250.18A32.27 32.27 0 00419 217.91v32.27z" transform="translate(8.57 -18.14)" fill="#95d133"/><path class="cls-2" d="M451.86 250.73h-33.37v-33.37h.51a32.85 32.85 0 0132.82 32.82zm-32.27-1.1h31.16a31.76 31.76 0 00-31.16-31.17z" transform="translate(8.57 -18.14)"/><path class="cls-4" d="M459.18 250.18A40.15 40.15 0 11419 210v40.14z" transform="translate(8.57 -18.14)"/><path d="M440.93 250.18a21.89 21.89 0 11-21.93-21.9v21.9z" transform="translate(8.57 -18.14)" fill="#f1f2ec"/><path class="cls-2" d="M419 290.87a40.69 40.69 0 110-81.38h.55v40.14h40.14v.55A40.74 40.74 0 01419 290.87zm-.55-80.28a39.59 39.59 0 1040.13 40.14h-40.09z" transform="translate(8.57 -18.14)"/><path class="cls-2" transform="rotate(-75.01 422.45 194.72)" d="M426.29 208.83h7.33v1.1h-7.33z"/><path class="cls-2" transform="rotate(-60.06 430.535 193.928)" d="M434.64 209.86h14.66v1.1h-14.66z"/><path class="cls-2" transform="rotate(-50.67 433.897 201.703)" d="M444.84 219.28h7.91v1.1h-7.91z"/><path class="cls-2" transform="rotate(-30.02 429.264 202.149)" d="M451.44 226.64h14.66v1.1h-14.66z"/><path class="cls-2" transform="rotate(-18.45 408.301 203.543)" d="M456.09 238.41h7.47v1.1h-7.47z"/></g><path class="cls-2" d="M50 435.02h470v2H50z" id="Layer_5" data-name="Layer 5"/></svg>