<svg id="Social_Media" data-name="Social Media" xmlns="http://www.w3.org/2000/svg" viewBox="0 0 670 560.5"><defs><clipPath id="clip-path" transform="translate(-32.49 -21.75)"><circle cx="174.57" cy="317.91" r="55.77" fill="none"/></clipPath><style>.cls-18,.cls-2{fill:#1b2c38}.cls-4{fill:#fff}.cls-6{fill:#fc3e59}.cls-7{fill:#ffcb05}.cls-8{fill:#636c78}.cls-9{fill:#e3e0e2}.cls-10{fill:#fffffe}.cls-11{fill:#f1f2ec}.cls-12{fill:#e8e9e1}.cls-14{fill:#27c7cd}.cls-18{opacity:.2}</style></defs><path class="cls-2" d="M42.51 395.49h107.48v1H42.51zm-13.87 0h9.29v1h-9.29zm-13.76 0h9.28v1h-9.28z"/><path fill="#949fac" d="M92.92 335.85h319.71v218.9H92.92z"/><path class="cls-4" d="M111.84 355.51h281.87v179.58H111.84z"/><path class="cls-4" d="M428.29 559.5H77.26l-11.17-26.67h373.36l-11.16 26.67z"/><path class="cls-2" d="M461.44 582.25H109.08l-12-28.67h376.36zm-351-2h349.7l10.33-24.67H100.08z" transform="translate(-32.49 -21.75)"/><path class="cls-2" d="M229.83 544.04h45.89v1h-45.89z"/><path class="cls-4" d="M148.38 204.59h192.97v326.02H148.38z"/><path fill="#d1d3d4" d="M148.38 204.59h192.97v29.72H148.38z"/><path class="cls-6" d="M197.54 234.36a2.1 2.1 0 11-2.1-2.09 2.09 2.09 0 012.1 2.09z" transform="translate(-32.49 -21.75)"/><path class="cls-7" d="M205.38 234.36a2.1 2.1 0 11-2.09-2.09 2.09 2.09 0 012.09 2.09z" transform="translate(-32.49 -21.75)"/><path class="cls-8" d="M213.22 234.36a2.09 2.09 0 11-2.09-2.09 2.08 2.08 0 012.09 2.09z" transform="translate(-32.49 -21.75)"/><path class="cls-9" d="M150.11 220.63h191.24v12.07H150.11z"/><path class="cls-9" d="M254.07 246.2h-38.32l2.85-9.67a5.9 5.9 0 015.66-4.22h21.3a5.9 5.9 0 015.65 4.22z" transform="translate(-32.49 -21.75)"/><path class="cls-10" d="M187.42 224.29h135.53v4.75H187.42z"/><path class="cls-11" d="M236.28 327.05h86.68v22.74h-86.68z"/><path class="cls-6" d="M236.28 462.03h86.68v62.7h-86.68z"/><path class="cls-12" transform="rotate(180 214.43 527.69)" d="M203.99 530.65h53.35v15.82h-53.35z"/><path class="cls-11" d="M236.28 387.68h86.68v11.37h-86.68z"/><path class="cls-10" d="M255.19 391.47h58.28v3.79h-58.28z"/><path class="cls-12" d="M168.71 247.23h154.24v58.93H168.71z"/><path fill="#6c6ff2" d="M148.38 232.7h192.97v14.53H148.38z"/><path class="cls-10" d="M172.89 238.5h23.2v2.94h-23.2zm29.53 0h27.53v2.94h-27.53zm33.86 0h27.53v2.94h-27.53zm33.85 0h27.53v2.94h-27.53zm33.86 0h18.96v2.94h-18.96z"/><path class="cls-2" d="M184.35 290.25h31.83v31.83h-31.83z"/><path class="cls-6" d="M242.08 333.08h13.1v13.1h-13.1zm-70.57 59.35h17.51v17.51h-17.51z"/><path class="cls-11" d="M191.23 392.43h17.51v17.51h-17.51z"/><path class="cls-14" d="M210.95 392.43h17.51v17.51h-17.51zm-39.44 18.95h17.51v17.51h-17.51z"/><path class="cls-8" d="M191.23 411.38h17.51v17.51h-17.51z"/><path class="cls-7" d="M210.95 411.38h17.51v17.51h-17.51zm-39.44 18.95h17.51v17.51h-17.51z"/><path class="cls-11" d="M191.23 430.33h17.51v17.51h-17.51z"/><path class="cls-6" d="M210.95 430.33h17.51v17.51h-17.51z"/><path class="cls-12" d="M171.51 333.08h53.35v2.32h-53.35z"/><path class="cls-8" d="M261.46 334.24h11.19v2.32h-11.19zm0 6.03h26.68v2.32h-26.68z"/><path class="cls-12" d="M241.85 355.05h81.1v2.32h-81.1zm0 5.8h25.21v2.32h-25.21z"/><path class="cls-6" d="M241.85 367.35h10.86v2.32h-10.86z"/><path class="cls-11" d="M236.28 409.16h86.68v22.74h-86.68z"/><path class="cls-14" d="M242.08 415.19h13.1v13.1h-13.1z"/><path class="cls-8" d="M261.46 416.35h11.19v2.32h-11.19zm0 6.03h26.68v2.32h-26.68z"/><path class="cls-12" d="M241.85 437.16h81.1v2.32h-81.1zm0 5.8h25.21v2.32h-25.21z"/><path fill="#e78967" d="M241.85 449.46h10.86v2.32h-10.86z"/><path class="cls-12" d="M171.51 341.43h53.35v2.32h-53.35zm0 119.44h53.35v2.32h-53.35zm0 10.99h53.35v2.32h-53.35zm0 11h53.35v2.32h-53.35zm0 10.99h34.79v2.32h-34.79zm0-144.07h34.79v2.32h-34.79zm0 28.73h34.79v3.98h-34.79z"/><path class="cls-7" d="M282.65 415.11a2.62 2.62 0 11-2.62-2.62 2.62 2.62 0 012.62 2.62z" transform="translate(-32.49 -21.75)"/><path class="cls-6" d="M242.27 342.52v-1.28a9.54 9.54 0 00-9.51-9.52 9.54 9.54 0 00-9.52 9.52v1.28z" transform="translate(-32.49 -21.75)"/><path class="cls-4" d="M226.35 328.36H226a.81.81 0 01-.8-.81v-1.28a.8.8 0 01.8-.81h.35zm12.16 0h.35a.81.81 0 00.8-.81v-1.28a.8.8 0 00-.8-.81h-.35z" transform="translate(-32.49 -21.75)"/><path class="cls-4" d="M226.07 323v5.44a6.42 6.42 0 006.41 6.42 6.42 6.42 0 006.41-6.42v-5.12a6.85 6.85 0 00-6.8-5.74 7.06 7.06 0 00-6.02 5.42z" transform="translate(-32.49 -21.75)"/><path class="cls-7" d="M238.89 325s-6.65-7.38-8.63-4.44a22.74 22.74 0 01-4.19 4.59s-1.09-6.6 6.15-7.55c0-.02 6.78-.22 6.67 7.4z" transform="translate(-32.49 -21.75)"/><path class="cls-7" d="M238.56 316.05s-4.54 4.51-8.53 2.54c0 0-1 3.82 4.47 3.46 0 0 5.6-.16 4.06-6z" transform="translate(-32.49 -21.75)"/><path class="cls-2" d="M342.35 530.61h-2V205.59H149.38v325.02h-2V203.59h194.97v327.02z"/><path class="cls-2" d="M148.11 231.7h193.23v2H148.11z"/><path class="cls-7" d="M339.6 336.06h-3a10.7 10.7 0 01-10.7-10.7l-3.66-112.17a40.11 40.11 0 0115-31.3l13.17-10.55C316.29 150.06 325.3 115 325.3 115c15.76 23.64 101.59 23.3 151.49 31a26.85 26.85 0 0122.57 23.08l1.21 9.34a17.69 17.69 0 0117.7 17.7l-3.65 129.26a10.7 10.7 0 01-10.7 10.7z" transform="translate(-32.49 -21.75)"/><path class="cls-2" d="M504.37 337.06H336.18a11.27 11.27 0 01-11.25-11.26l-3.65-112.58a40.9 40.9 0 0115.4-32.11l12.07-9.68c-31.58-20.54-25.32-52.74-24.49-56.39a1.14 1.14 0 01.87-.85 1.18 1.18 0 011.16.48c11.51 16.65 60.73 21.19 104.17 25.2 16.93 1.56 32.92 3 46.48 5.12a28 28 0 0123.41 23.94l1.1 8.49a18.72 18.72 0 0117.82 18.68l-3.65 129.73a11.26 11.26 0 01-11.25 11.23zM325.85 117.38c-1.3 7.92-3.41 35.33 25.15 53.11l1.2.75-14.27 11.43a39 39 0 00-14.66 30.52l3.66 112.58a9.27 9.27 0 009.25 9.29h168.19a9.26 9.26 0 009.25-9.26l3.65-129.73a16.71 16.71 0 00-16.7-16.67h-.88l-1.32-10.21A26 26 0 00476.64 147c-13.51-2.08-29.47-3.55-46.37-5.11-44.6-4.15-90.67-8.4-104.42-24.51z" transform="translate(-32.49 -21.75)"/><path class="cls-4" d="M518 299.91a11.32 11.32 0 01-11.31 11.31 11.32 11.32 0 01-11.31-11.31V289a11.31 11.31 0 0111.31-11.31A11.31 11.31 0 01518 289z" transform="translate(-32.49 -21.75)"/><path class="cls-2" d="M506.7 312.22a12.32 12.32 0 01-12.31-12.31V289a12.31 12.31 0 0124.61 0v11a12.32 12.32 0 01-12.3 12.22zm0-33.57A10.32 10.32 0 00496.39 289v11a10.31 10.31 0 0020.62 0v-11a10.33 10.33 0 00-10.31-10.35z" transform="translate(-32.49 -21.75)"/><path class="cls-4" d="M346.32 299.91A11.33 11.33 0 01335 311.22a11.31 11.31 0 01-11.3-11.31V289a11.3 11.3 0 0111.3-11.35A11.32 11.32 0 01346.32 289z" transform="translate(-32.49 -21.75)"/><path class="cls-2" d="M335 312.22a12.32 12.32 0 01-12.3-12.31V289a12.31 12.31 0 1124.62 0v11A12.33 12.33 0 01335 312.22zm0-33.57A10.32 10.32 0 00324.7 289v11a10.31 10.31 0 1020.62 0v-11A10.33 10.33 0 00335 278.65z" transform="translate(-32.49 -21.75)"/><path class="cls-14" d="M523.47 582.25V507.7c0-57-46.64-103.63-103.63-103.63-57 0-103.63 46.63-103.63 103.63v74.55z" transform="translate(-32.49 -21.75)"/><path class="cls-2" d="M336.43 478.75h2v81.74h-2zm105.75 0h2v81.74h-2z"/><path class="cls-4" d="M418 446a22.6 22.6 0 01-22.59-22.59v-50.96a19.39 19.39 0 0119.39-19.39h6.41a19.39 19.39 0 0119.39 19.39v50.93A22.6 22.6 0 01418 446z" transform="translate(-32.49 -21.75)"/><path class="cls-2" d="M441.57 429.67h-2v-60.31a15.32 15.32 0 00-15.3-15.3h-12.59a15.32 15.32 0 00-15.3 15.3v60.31h-2v-60.31a17.32 17.32 0 0117.3-17.3h12.59a17.32 17.32 0 0117.3 17.3z" transform="translate(-32.49 -21.75)"/><path class="cls-4" d="M419.84 401.4a86.16 86.16 0 01-85.91-85.91v-58.24a86.16 86.16 0 0185.91-85.91 86.16 86.16 0 0185.91 85.91v58.24a86.16 86.16 0 01-85.91 85.91z" transform="translate(-32.49 -21.75)"/><path d="M425.34 401.2a86.29 86.29 0 0076.2-59.27c-18.89-1.09-50.11 8.52-50.11 8.52v-4.33a9.73 9.73 0 00-9.73-9.73h-48a9.73 9.73 0 00-9.73 9.73v4.33s-28.05-8.77-45.74-8.2a86.32 86.32 0 0076.09 58.95l1.61.1c1.3.06 2.59.1 3.9.1 1.3 0 2.6 0 3.89-.1z" transform="translate(-32.49 -21.75)" opacity=".3" fill="#949fac"/><path class="cls-2" d="M419.84 402.4a87 87 0 01-86.91-86.91v-58.24a86.91 86.91 0 01173.82 0v58.24a87 87 0 01-86.91 86.91zm0-230.06a85 85 0 00-84.91 84.91v58.24a84.91 84.91 0 00169.82 0v-58.24a85 85 0 00-84.91-84.91z" transform="translate(-32.49 -21.75)"/><path class="cls-7" d="M454.47 161.11s-53.38-15-107.69 25.8l-21.32 44s100.47 31.24 159.16-51.73c16.92-23.88-30.15-18.07-30.15-18.07z" transform="translate(-32.49 -21.75)"/><path class="cls-7" d="M468.28 181.84s-13.86 54 45.73 66.55V222l-3.47-22.17z" transform="translate(-32.49 -21.75)"/><path class="cls-2" d="M510.58 248.63c-37.95-8-43.7-31.84-44.58-49.34a156.76 156.76 0 01-92.36 36.94c-26.18 1.62-44.87-3.47-45.05-3.52l.53-1.93c.19.05 18.62 5.07 44.47 3.45a154.78 154.78 0 0091.48-36.78 1.76 1.76 0 011.86-.29 1.74 1.74 0 011 1.52c.77 16.89 6 40.23 43 48zm-85.98 81.93h-10.25v-2h10.25a5.33 5.33 0 005.33-5.33v-.58a5.34 5.34 0 00-5.33-5.34h-6.19v-19.08h2v17.08h4.19a7.34 7.34 0 017.33 7.34v.58a7.34 7.34 0 01-7.33 7.33z" transform="translate(-32.49 -21.75)"/><path class="cls-10" d="M442.87 351.29a22.6 22.6 0 01-45.19 0z" transform="translate(-32.49 -21.75)"/><path class="cls-2" d="M420.27 374.88a23.62 23.62 0 01-23.59-23.59v-1h47.19v1a23.62 23.62 0 01-23.6 23.59zm-21.56-22.59a21.59 21.59 0 0043.13 0zm-8.06-69.7h-2a8.87 8.87 0 00-17.74 0h-2a10.87 10.87 0 0121.74 0zm79.35 0h-2a8.87 8.87 0 00-17.74 0h-2a10.87 10.87 0 0121.74 0z" transform="translate(-32.49 -21.75)"/><path class="cls-6" d="M582.05 205.69a9.77 9.77 0 00-16.75-6.84 9.77 9.77 0 00-14 13.61l14 13.91 14.33-14.21.56-.69a9.74 9.74 0 001.86-5.78z" transform="translate(-32.49 -21.75)"/><path class="cls-2" d="M565.26 227.78l-14.68-14.61a10.77 10.77 0 0114.72-15.69 10.67 10.67 0 017-2.57 10.77 10.77 0 018.7 17.15l-.61.76zm-6.94-30.87a8.77 8.77 0 00-6.32 14.86L565.26 225l13.62-13.51c.1-.11.48-.6.48-.6a8.66 8.66 0 001.69-5.16 8.77 8.77 0 00-15-6.14l-.71.73-.72-.73a8.68 8.68 0 00-6.3-2.68z" transform="translate(-32.49 -21.75)"/><path class="cls-6" d="M652.24 136.43a12.7 12.7 0 00-21.79-8.89 12.7 12.7 0 00-18.23 17.7l18.18 18.08 18.6-18.47.73-.91a12.61 12.61 0 002.51-7.51z" transform="translate(-32.49 -21.75)"/><path class="cls-2" d="M630.4 164.73L611.52 146a13.7 13.7 0 0118.93-19.79 13.58 13.58 0 019.07-3.45 13.74 13.74 0 0113.72 13.72 13.59 13.59 0 01-2.67 8.11s-.57.72-.78 1zm-9-40a11.7 11.7 0 00-8.44 19.83l17.46 17.37 17.93-17.77c.15-.17.65-.81.65-.81a11.7 11.7 0 00-17.82-15.09l-.71.73-.71-.73a11.63 11.63 0 00-8.38-3.55z" transform="translate(-32.49 -21.75)"/><path class="cls-4" d="M478.29 361.25h109.03V559.5H478.29z"/><path class="cls-2" d="M620.82 582.25h-111V382h111zm-109-2h107V384h-107z" transform="translate(-32.49 -21.75)"/><path class="cls-7" d="M488.44 379.69h88.75v161.37h-88.75z"/><path d="M520.68 370.24h24.27v1h-24.27zm27 0h1.93v1h-1.93z" fill="#231f20"/><path class="cls-14" d="M590 456a24.71 24.71 0 11-24.7-24.7A24.7 24.7 0 01590 456z" transform="translate(-32.49 -21.75)"/><path class="cls-10" d="M503.1 464.86h59.43v10.5H503.1zm0 16.39h59.43v10.5H503.1z"/><path class="cls-6" d="M517.39 498.16h30.83v13.03h-30.83z"/><path class="cls-2" d="M542.21 491.87a1 1 0 11-1-1 1 1 0 011 1z" transform="translate(-32.49 -21.75)"/><circle class="cls-2" cx="516.62" cy="470.12" r="1.01"/><path class="cls-2" d="M558 491.87a1 1 0 11-1-1 1 1 0 011 1z" transform="translate(-32.49 -21.75)"/><circle class="cls-2" cx="532.43" cy="470.12" r="1.01"/><circle class="cls-2" cx="540.33" cy="470.12" r="1.01"/><circle class="cls-2" cx="548.24" cy="470.12" r="1.01"/><path class="cls-2" d="M589.63 491.87a1 1 0 11-1-1 1 1 0 011 1zm-47.42 16.38a1 1 0 11-1-1 1 1 0 011 1z" transform="translate(-32.49 -21.75)"/><circle class="cls-2" cx="516.62" cy="486.5" r="1.01"/><path class="cls-2" d="M558 508.25a1 1 0 11-1-1 1 1 0 011 1z" transform="translate(-32.49 -21.75)"/><circle class="cls-2" cx="532.43" cy="486.5" r="1.01"/><circle class="cls-2" cx="540.33" cy="486.5" r="1.01"/><circle class="cls-2" cx="548.24" cy="486.5" r="1.01"/><path class="cls-2" d="M589.63 508.25a1 1 0 11-1-1 1 1 0 011 1zm-17.01-46.98l-.18.27a7.3 7.3 0 00-1-.58 8.93 8.93 0 002.37-5.87 1.4 1.4 0 001-1.35V452a1.42 1.42 0 00-1-1.36V449a8.91 8.91 0 00-1.26-4.56l.13-.17c1.11-1.48 1.34-3.51.67-6l-.14-.54-.4.39a17.76 17.76 0 01-4.06 2.86A8.92 8.92 0 00556 449v1.67a1.42 1.42 0 00-1.17 1.39v1.72a1.42 1.42 0 001.19 1.39 8.86 8.86 0 002.62 6.11 10.22 10.22 0 00-.87.59l-.19-.27a13.19 13.19 0 00-5.38 10.58v1.71h26.24v-1.71a13.12 13.12 0 00-5.82-10.91z" transform="translate(-32.49 -21.75)"/><path class="cls-6" d="M655.36 333.61l-9.56-5.52V317a1.45 1.45 0 00-1.44-1.44H532.68a1.44 1.44 0 00-1.44 1.44v35a1.43 1.43 0 001.44 1.44h111.68a1.44 1.44 0 001.44-1.44v-11.1l9.56-5.52a1 1 0 000-1.77z" transform="translate(-32.49 -21.75)"/><path class="cls-2" d="M644.36 353.91H532.68v-1h111.68a.94.94 0 00.94-.94v-11.36l9.81-5.66.5.86-9.31 5.38V352a1.94 1.94 0 01-1.94 1.91z" transform="translate(-32.49 -21.75)"/><path class="cls-18" d="M505.72 300.77h23.96v23.96h-23.96zm27.09-.09h72.73v2.11h-72.73zm0 9.96h72.73v2.11h-72.73zm0 9.95h33.37v2.11h-33.37z"/><path class="cls-14" d="M576.22 273l9.56-5.53v-11.05a1.45 1.45 0 011.44-1.44H698.9a1.44 1.44 0 011.44 1.44v34.95a1.43 1.43 0 01-1.44 1.44H587.22a1.44 1.44 0 01-1.44-1.44V280.3l-9.56-5.52a1 1 0 010-1.78z" transform="translate(-32.49 -21.75)"/><path class="cls-2" d="M698.9 293.31H587.22a1.94 1.94 0 01-1.94-1.94v-10.78l-9.28-5.38.5-.86 9.81 5.66v11.36a.94.94 0 00.94.94H698.9z" transform="translate(-32.49 -21.75)"/><path class="cls-18" transform="rotate(180 665.155 263.02)" d="M669.42 261.92h23.96v23.96h-23.96z"/><path class="cls-18" transform="rotate(180 613.675 252.01)" d="M593.55 261.83h72.73v2.11h-72.73z"/><path class="cls-18" transform="rotate(180 613.675 261.965)" d="M593.55 271.79h72.73v2.11h-72.73z"/><path class="cls-18" transform="rotate(180 633.355 271.925)" d="M632.91 281.74h33.37v2.11h-33.37z"/><circle class="cls-6" cx="142.08" cy="296.16" r="55.77"/><g clip-path="url(#clip-path)"><path class="cls-7" d="M203.35 333.74c-4.73-10.84-1.59-30.72-1.59-30.72a28.38 28.38 0 00-28.38-28.38A28.38 28.38 0 00145 303s3.78 19.63-1.36 30.65a4.56 4.56 0 003 6.42l27.5 6.85 26.25-6.83a4.61 4.61 0 002.96-6.35z" transform="translate(-32.49 -21.75)"/><path class="cls-14" d="M201.16 376.83v-8.13a27.52 27.52 0 00-27.44-27.44 27.53 27.53 0 00-27.45 27.44v8.13z" transform="translate(-32.49 -21.75)"/><path class="cls-4" d="M163.11 356.78l1.55 1a17.57 17.57 0 0019.17-.36 12.51 12.51 0 005.46-10.33v-.91a27.25 27.25 0 00-31.15 0v1.66a10.58 10.58 0 004.97 8.94z" transform="translate(-32.49 -21.75)"/><path class="cls-4" d="M173.72 348.43a6 6 0 01-6-6v-12.62a6 6 0 016-6 6 6 0 016 6v12.64a6 6 0 01-6 5.98zm-17.38-34.92a4.2 4.2 0 11-4.2-4.2 4.2 4.2 0 014.2 4.2zm44.49 0a4.2 4.2 0 11-4.2-4.2 4.2 4.2 0 014.2 4.2z" transform="translate(-32.49 -21.75)"/><path class="cls-4" d="M166.33 291.82a14.67 14.67 0 00-14.68 14.67v9a22.6 22.6 0 0022.6 22.6 22.6 22.6 0 0022.6-22.6V306c0-8.16-5.74-14.17-6.59-14.17z" transform="translate(-32.49 -21.75)"/><path class="cls-2" d="M140.53 310.12h3.11v1.45h-3.11z"/><path class="cls-7" d="M154.48 289s22.78 18.24 43.33 10.74v-7.91l-15.5-9.77-25 1.67z" transform="translate(-32.49 -21.75)"/><path d="M154.78 287.61l-.3.56.07.06z" transform="translate(-32.49 -21.75)" fill="#f7bc5d"/><path class="cls-7" d="M162.71 294.12a12.71 12.71 0 01-13 10l-1.13-4.87 4.45-11.14z" transform="translate(-32.49 -21.75)"/><path class="cls-2" d="M185 310.9h-1.45a1.95 1.95 0 10-3.9 0h-1.45a3.4 3.4 0 016.8 0zm-14.84 0h-1.45a1.95 1.95 0 00-3.9 0h-1.45a3.4 3.4 0 016.8 0z" transform="translate(-32.49 -21.75)"/><path class="cls-6" d="M180.64 324.17a6.08 6.08 0 11-12.15 0z" transform="translate(-32.49 -21.75)"/><path class="cls-2" d="M174.74 319.66h-1.27v-1.45h1.27a.82.82 0 100-1.63h-.9v-4.71h1.45v3.33a2.26 2.26 0 01-.55 4.46z" transform="translate(-32.49 -21.75)"/></g><path class="cls-2" d="M174.57 374.68a56.77 56.77 0 1156.76-56.77 56.84 56.84 0 01-56.76 56.77zm0-111.53a54.77 54.77 0 1054.76 54.76 54.82 54.82 0 00-54.76-54.76z" transform="translate(-32.49 -21.75)"/><path class="cls-2" d="M141.58 216.77h1v14.25h-1z"/><path class="cls-2" transform="rotate(-83.33 141.812 397.078)" d="M164.14 389.21h12.3v1h-12.3z"/><path class="cls-2" transform="rotate(-73.72 119.327 405.183)" d="M135.81 393.88h28.5v1h-28.5z"/><path class="cls-2" transform="rotate(-58.58 99.088 397.627)" d="M127.61 379.07h14.25v1h-14.25z"/><path class="cls-2" transform="rotate(-43.5 71.403 402.073)" d="M100.67 371.76h28.5v1h-28.5z"/><path class="cls-2" transform="rotate(-28.39 49.902 405.118)" d="M102 351.25h14.25v1H102z"/><path class="cls-2" transform="rotate(-13.32 -13.729 463.653)" d="M81.42 334.97h28.5v1h-28.5z"/><path class="cls-2" transform="rotate(-86.41 73.147 321.017)" d="M100.48 307.47h1v14.27h-1z"/><path class="cls-2" transform="rotate(-73.1 66.647 305.036)" d="M97.05 279.74h1v28.5h-1z"/><path class="cls-2" transform="rotate(-59.29 76.869 296.503)" d="M111.7 271.43h1v14.79h-1z"/><path class="cls-2" transform="rotate(-42.9 76.114 289.571)" d="M119.53 244.84h1v28.5h-1z"/><path class="cls-2" transform="rotate(-33.8 88.579 297.452)" d="M140.1 248.88h1v11.95h-1z"/><path class="cls-2" transform="rotate(-12.7 43.104 375.374)" d="M156.52 225.98h1v28.5h-1z"/><path class="cls-4" d="M285.8 165.7h-2.44a6.19 6.19 0 000-12.37h-38.42s5.1-12.83 5.1-18.91c0-2.78.63-8.39-1.08-11.06-.69-1.08-5.63-1.1-6.33 0 0 0-4.69 14.56-7.8 18.82-1.77 2.41-8.54 11.19-8.54 11.19h-10.5l-5.5 39.89h13.44a5 5 0 013.56 1.5l6.16 6.29a5.88 5.88 0 004.22 1.78h35.16a6.19 6.19 0 000-12.37h6.49a6.18 6.18 0 100-12.36h6.48a6.18 6.18 0 000-12.36z" transform="translate(-32.49 -21.75)"/><path class="cls-11" d="M244.94 148.24h1.86c1.46-4.24 3.2-10.24 3.2-13.82 0-1.64.21-4.27 0-6.7v1.61c0 6.07-5.06 18.91-5.06 18.91z" transform="translate(-32.49 -21.75)"/><path class="cls-2" d="M285.18 179.06h-10.56v-2h10.56a5.18 5.18 0 000-10.36h-10.56v-2h10.56a7.18 7.18 0 010 14.36z" transform="translate(-32.49 -21.75)"/><path class="cls-2" d="M278.69 191.42h-14.92v-2h14.92a5.18 5.18 0 100-10.36h-14.92v-2h14.92a7.18 7.18 0 110 14.36z" transform="translate(-32.49 -21.75)"/><path class="cls-2" d="M272.2 203.79h-35.15a7 7 0 01-4.94-2.08l-6.11-6.29a4 4 0 00-2.85-1.2h-13.49v-2h13.44a6 6 0 014.28 1.8l6.16 6.29a4.93 4.93 0 003.51 1.48h35.15a5.19 5.19 0 000-10.37h-5.82v-2h5.82a7.19 7.19 0 010 14.37zm10.53-37.09h-19v-2h19a5.19 5.19 0 000-10.37h-39.89l.54-1.37c.06-.12 5-12.72 5-18.54 0-.54 0-1.2.05-1.92.1-2.67.25-6.71-1-8.61-.57-.47-3.8-.5-4.61 0-.65 2-4.89 14.78-7.87 18.86-1.75 2.4-8.28 10.86-8.56 11.21l-.3.39h-11v-2h10c1.33-1.72 6.7-8.69 8.23-10.78 3-4.08 7.61-18.39 7.65-18.53l.12-.25c.71-1.09 2.83-1.25 4-1.23s3.29.18 4 1.28c1.55 2.42 1.39 6.66 1.28 9.76 0 .69-.05 1.32-.05 1.84 0 5.07-3.32 14.4-4.64 17.91h37a7.19 7.19 0 010 14.37z" transform="translate(-32.49 -21.75)"/><path class="cls-14" transform="rotate(90 194.45 145.8)" d="M173.52 152.4h52.6v41.03h-52.6z"/><circle class="cls-6" cx="387.33" cy="39.35" r="38.35"/><path class="cls-2" d="M419.82 100.44a39.35 39.35 0 1139.34-39.34 39.39 39.39 0 01-39.34 39.34zm0-76.69a37.35 37.35 0 1037.34 37.35 37.39 37.39 0 00-37.34-37.35z" transform="translate(-32.49 -21.75)"/><path class="cls-4" d="M400.97 39.35l-27.28-15.76V55.1l27.28-15.75z"/><path class="cls-2" d="M613.09 206.94h-1c0-1.13-1.28-1.76-2.64-2.43s-3.2-1.57-3.2-3.32 1.7-2.58 3.2-3.32 2.64-1.3 2.64-2.42-1.28-1.76-2.64-2.42-3.2-1.57-3.2-3.32 1.7-2.58 3.2-3.32 2.64-1.29 2.64-2.41h1c0 1.74-1.7 2.58-3.2 3.31s-2.64 1.3-2.64 2.42 1.28 1.75 2.64 2.42 3.2 1.57 3.2 3.32-1.7 2.58-3.2 3.32-2.64 1.3-2.64 2.42 1.28 1.76 2.64 2.42 3.2 1.58 3.2 3.33zm-61.57 64.79h-1c0-1.13-1.28-1.76-2.64-2.43s-3.2-1.57-3.2-3.32 1.7-2.58 3.2-3.32 2.64-1.3 2.64-2.42-1.28-1.76-2.64-2.42-3.2-1.57-3.2-3.32 1.7-2.58 3.2-3.32 2.64-1.29 2.64-2.41h1c0 1.74-1.7 2.58-3.2 3.31s-2.64 1.3-2.64 2.42 1.28 1.75 2.64 2.42 3.2 1.57 3.2 3.32-1.7 2.58-3.2 3.32-2.64 1.3-2.64 2.42 1.28 1.76 2.64 2.42 3.2 1.6 3.2 3.33zM138.16 74.28h-1c0-1.12-1.29-1.75-2.65-2.42s-3.2-1.57-3.2-3.32 1.7-2.59 3.21-3.32c1.35-.67 2.64-1.3 2.64-2.43s-1.29-1.75-2.64-2.42c-1.51-.73-3.21-1.57-3.21-3.31s1.7-2.58 3.21-3.32c1.35-.67 2.64-1.3 2.64-2.42h1c0 1.75-1.7 2.58-3.2 3.32s-2.65 1.3-2.65 2.42 1.29 1.75 2.65 2.42 3.2 1.57 3.2 3.31-1.7 2.59-3.2 3.32-2.65 1.3-2.65 2.43S133.6 70.29 135 71s3.16 1.54 3.16 3.28zM92.34 218.76V193.9l21.53 12.43zm1-23.13V217l18.53-10.7zm562.41 1.45v-13.16l11.4 6.58zm1-11.42v9.69l8.4-4.85zM136.83 199L120 189.22l16.84-9.72zM122 189.22l13.84 8v-16z" transform="translate(-32.49 -21.75)"/><path class="cls-2" d="M141.2 77.19h107.48v1H141.2zm112.06 0h9.29v1h-9.29zm13.75 0h9.29v1h-9.29zm299.84 132.87h82.06v1h-82.06zm85.56 0h7.09v1h-7.09zm10.5 0H670v1h-7.09zM296.08 77.19h15.81v1h-15.81z"/><path class="cls-2" d="M303.49 69.78h1v15.81h-1zM72.48 100.29h15.81v1H72.48z"/><path class="cls-2" d="M79.89 92.88h1v15.81h-1zM629.03 54.6h15.81v1h-15.81z"/><path class="cls-2" d="M636.43 47.19h1V63h-1zM250.98 54.6h57.27v1h-57.27zM0 363.4h57.27v1H0z"/><path class="cls-2" d="M531.24 136.58c-.68 0-1.36 0-2-.05v-1c.66 0 1.31.05 2 .05zm-4-.22q-1-.11-2-.27l.16-1c.65.11 1.3.2 2 .27zm-4-.65c-.66-.15-1.32-.31-2-.49l.27-1c.63.18 1.26.34 1.91.48zm-3.9-1.09c-.64-.22-1.28-.46-1.9-.71l.37-.93c.61.25 1.23.48 1.85.69zm-3.77-1.52c-.61-.28-1.21-.59-1.81-.91l.47-.88c.58.31 1.17.61 1.77.89zm-3.57-1.91a33.1 33.1 0 01-1.7-1.11l.56-.82c.54.37 1.1.73 1.66 1.07zm-3.34-2.3c-.54-.41-1.06-.84-1.58-1.28l.66-.76c.49.43 1 .85 1.53 1.25zm-3.08-2.64c-.49-.47-1-1-1.42-1.44l.73-.69q.68.72 1.38 1.41zm-2.76-3q-.66-.78-1.26-1.59l.8-.6c.39.53.8 1.05 1.22 1.55zm-2.43-3.24q-.57-.84-1.08-1.71l.86-.51c.33.56.68 1.12 1.05 1.67zm-2.07-3.48c-.31-.6-.6-1.21-.88-1.82l.91-.41c.27.6.56 1.19.86 1.77zm-1.66-3.69c-.25-.62-.48-1.26-.69-1.9l1-.31c.2.62.42 1.24.66 1.85zm-1.31-3.84c-.17-.65-.33-1.3-.47-2l1-.2c.13.64.29 1.28.46 1.92zm-.83-4c-.1-.67-.18-1.34-.25-2l1-.1c.06.66.14 1.31.24 2zm-.39-4v-2h1v1.97zm1.05-4l-1-.06c0-.68.11-1.35.19-2l1 .12c-.09.68-.15 1.33-.19 1.99zm.47-3.91l-1-.18c.12-.66.25-1.33.41-2l1 .22c-.17.71-.3 1.36-.41 2.01zm.89-3.84l-1-.28c.19-.65.4-1.3.62-1.93l.94.33c-.17.63-.37 1.29-.56 1.93zm1.31-3.72l-.92-.39c.26-.62.54-1.24.83-1.85l.9.43c-.28.65-.55 1.28-.81 1.86zm1.72-3.53l-.88-.48c.33-.6.67-1.18 1-1.75l.85.53c-.32.58-.66 1.14-.97 1.7zm2.09-3.35l-.82-.57c.39-.55.79-1.1 1.21-1.63l.79.62c-.41.54-.84 1.07-1.18 1.6zm2.44-3.09l-.75-.67c.44-.5.9-1 1.38-1.48l.71.7c-.44.49-.91.97-1.34 1.47zm2.76-2.82l-.67-.74q.74-.67 1.53-1.32l.63.77c-.51.44-1 .87-1.49 1.31zm3.05-2.5l-.59-.8c.54-.4 1.1-.79 1.66-1.15l.55.83c-.53.38-1.09.76-1.62 1.14zm3.3-2.15l-.5-.86c.58-.34 1.18-.66 1.78-1l.45.9c-.58.34-1.16.66-1.73.98zm3.51-1.77l-.4-.92c.62-.27 1.24-.52 1.87-.76l.35.93c-.61.26-1.22.5-1.82.77zm3.69-1.32l-.3-1c.64-.2 1.29-.39 1.95-.55l.24 1c-.63.13-1.3.31-1.89.55zm3.82-1l-.23-1c.66-.13 1.32-.24 2-.34l.13 1c-.61.09-1.26.19-1.9.34zm3.9-.55l-.08-1c.67-.06 1.34-.1 2-.12v1c-.61.01-1.27.05-1.92.1zm3.11 73.13v-1a36.14 36.14 0 000-72.28v-1a37.14 37.14 0 010 74.28z" transform="translate(-32.49 -21.75)"/><path class="cls-2" d="M491.88 77.19h13.73v1h-13.73z"/><path class="cls-2" d="M498.25 70.83h1v13.73h-1z"/></svg>