<svg xmlns="http://www.w3.org/2000/svg" viewBox="0 0 370 396.4"><defs><style>.cls-6{fill:#fff}.cls-3{fill:#1b2c38}.cls-7{fill:#95d133}.cls-8{fill:#f1f2ec}.cls-9{fill:#fc3e59}.cls-11{fill:#ffe9a4}.cls-13{fill:#f1f3ee}.cls-15{fill:#ffcb05}</style></defs><g style="isolation:isolate"><g id="Isolation_Mode" data-name="Isolation Mode"><path d="M55.73 969.35a8.33 8.33 0 00-.38 2.46A8.15 8.15 0 0063.5 980h224.3a8.15 8.15 0 008.15-8.14 8 8 0 00-.38-2.46z" transform="translate(-11.92 -688.52)" fill-rule="evenodd" fill="#fff"/><path class="cls-3" d="M287.8 981H63.5a9.24 9.24 0 01-9.22-9.22 9.37 9.37 0 01.42-2.78l.24-.76h241.43l.23.76a9.22 9.22 0 01-8.8 12zM56.57 970.42a7.2 7.2 0 00-.14 1.39 7.08 7.08 0 007.07 7.07h224.3a7.08 7.08 0 007.08-7.07 7.28 7.28 0 00-.14-1.39z" transform="translate(-11.92 -688.52)"/><path d="M205 974.65a1.07 1.07 0 01-1.08 1.07H151a1.07 1.07 0 01-1.08-1.07 1.08 1.08 0 011.08-1.07h53a1.07 1.07 0 011.08 1.07z" transform="translate(-11.92 -688.52)" fill="#21464f"/><path d="M84.38 851.58h182.53a9.36 9.36 0 019.34 9.34v99.33a9.37 9.37 0 01-9.34 9.35H84.38a9.37 9.37 0 01-9.38-9.35v-99.33a9.36 9.36 0 019.38-9.34z" transform="translate(-11.92 -688.52)" fill="#949fac" fill-rule="evenodd"/><path class="cls-3" d="M266.91 970.67H84.38A10.43 10.43 0 0174 960.25v-99.33a10.43 10.43 0 0110.38-10.42h182.53a10.43 10.43 0 0110.42 10.42v99.33a10.43 10.43 0 01-10.42 10.42zm-182.53-118a8.27 8.27 0 00-8.27 8.26v99.33a8.28 8.28 0 008.27 8.27h182.53a8.28 8.28 0 008.27-8.27v-99.34a8.27 8.27 0 00-8.27-8.26z" transform="translate(-11.92 -688.52)"/><path class="cls-6" d="M266.93 851.58H84.39a9.36 9.36 0 00-9.34 9.34V961a9.37 9.37 0 009.34 9.34h182.54a9.38 9.38 0 009.34-9.34V860.92a9.37 9.37 0 00-9.34-9.34zm.64 109.4a.67.67 0 01-.64.64H84.39a.67.67 0 01-.64-.64V860.92a.66.66 0 01.64-.64h182.54a.66.66 0 01.64.64z" transform="translate(-11.92 -688.52)"/><path class="cls-3" d="M266.93 971.4H84.39A10.43 10.43 0 0174 961V860.92a10.42 10.42 0 0110.39-10.42h182.54a10.42 10.42 0 0110.41 10.42V961a10.43 10.43 0 01-10.41 10.4zM84.39 852.66a8.27 8.27 0 00-8.26 8.26V961a8.27 8.27 0 008.26 8.26h182.54a8.27 8.27 0 008.26-8.26V860.92a8.27 8.27 0 00-8.26-8.26zm182.54 110H84.39a1.75 1.75 0 01-1.72-1.66V860.92a1.75 1.75 0 011.72-1.72h182.54a1.74 1.74 0 011.71 1.72V961a1.74 1.74 0 01-1.71 1.7zm-182.1-2.15h181.66v-99.15H84.83z" transform="translate(-11.92 -688.52)"/><path class="cls-7" d="M166 818.92a53 53 0 1153-53 53.06 53.06 0 01-53 53z" transform="translate(-11.92 -688.52)"/><path class="cls-3" d="M166 820a54 54 0 1154-54.05A54.12 54.12 0 01166 820zm0-106a51.94 51.94 0 1052 51.92A52 52 0 00166 714z" transform="translate(-11.92 -688.52)"/><path class="cls-8" d="M166 808.3a42.38 42.38 0 1142.37-42.38A42.42 42.42 0 01166 808.3z" transform="translate(-11.92 -688.52)"/><path class="cls-3" d="M166 809.35a43.43 43.43 0 1143.42-43.43A43.48 43.48 0 01166 809.35zm0-84.75a41.33 41.33 0 1041.32 41.32A41.37 41.37 0 00166 724.6z" transform="translate(-11.92 -688.52)"/><path class="cls-7" d="M166 797.69a31.77 31.77 0 1131.76-31.77A31.8 31.8 0 01166 797.69z" transform="translate(-11.92 -688.52)"/><path class="cls-3" d="M166 798.74a32.82 32.82 0 1132.81-32.82A32.85 32.85 0 01166 798.74zm0-63.52a30.71 30.71 0 1030.71 30.7 30.74 30.74 0 00-30.71-30.7z" transform="translate(-11.92 -688.52)"/><path class="cls-8" d="M166 787.08a21.16 21.16 0 1121.14-21.16A21.18 21.18 0 01166 787.08z" transform="translate(-11.92 -688.52)"/><path class="cls-3" d="M166 788.13a22.21 22.21 0 1122.2-22.21 22.23 22.23 0 01-22.2 22.21zm0-42.31a20.1 20.1 0 1020.09 20.1 20.13 20.13 0 00-20.09-20.1z" transform="translate(-11.92 -688.52)"/><path class="cls-7" d="M176.58 765.92A10.55 10.55 0 11166 755.39a10.54 10.54 0 0110.58 10.53z" transform="translate(-11.92 -688.52)"/><path class="cls-3" d="M166 777.52a11.59 11.59 0 1111.59-11.6 11.61 11.61 0 01-11.59 11.6zm0-21.08a9.49 9.49 0 109.48 9.48 9.5 9.5 0 00-9.48-9.48z" transform="translate(-11.92 -688.52)"/><path class="cls-9" d="M201.25 32.29l14.55 2.57 13.75-13.22-15.04-1.71-13.26 12.36z"/><path class="cls-3" d="M228.06 724.51l-17.15-3 15.16-14.13 17.74 2zm-12.63-4.37l11.94 2.11L239.13 711l-12.34-1.4z" transform="translate(-11.92 -688.52)"/><path class="cls-9" d="M199.3 30.63l-2.58-14.52 13.24-13.77 1.7 15.04-12.36 13.25z"/><path class="cls-3" d="M210.55 721.41l-3-17.13 15.15-15.76 2 17.74zm-.78-16.41l2.11 11.92 10.6-11.36-1.4-12.33z" transform="translate(-11.92 -688.52)"/><path class="cls-3" d="M167.6 767.47a2.27 2.27 0 01-3.89-1.59 2.25 2.25 0 01.78-1.72l59-58.74 3 3z" transform="translate(-11.92 -688.52)"/><path d="M130.72 726.71c-1.45 1.16-1.56 1.51-3.5 3.2L164 766.79l1.68-1.87 1.53-1.34z" transform="translate(-11.92 -688.52)" style="mix-blend-mode:darken" fill="#cac8c8" opacity=".5"/><path class="cls-11" d="M165.07 919c0-5.24-3.8-9.52-8.45-9.52H127.9c-4.65 0-8.45 4.28-8.45 9.52l-4.78 35.66-8.3-2.1 11.57 12.17c2.13 4 4.91 7.9 7.35 9.79v29h37v-40.43a10.06 10.06 0 002.8-7.05z" transform="translate(-11.92 -688.52)"/><path class="cls-3" d="M163.34 1004.58h-39.13v-29.51a35.45 35.45 0 01-7.15-9.66l-14-14.76 10.75 2.71 4.6-34.39c0-5.81 4.3-10.53 9.53-10.53h28.72c5.25 0 9.53 4.76 9.53 10.6v37a11.24 11.24 0 01-2.81 7.48zm-37-2.15h34.82v-39.78l.31-.31A9.07 9.07 0 00164 956v-37c0-4.66-3.31-8.45-7.37-8.45H127.9c-4.07 0-7.37 3.79-7.37 8.45v.14L115.58 956l-5.87-1.48 9.18 9.7c2.24 4.19 5 7.81 7.06 9.45l.42.32z" transform="translate(-11.92 -688.52)"/><path fill="#636c78" d="M101.06 190.26h28.24v88.96h-28.24z"/><path class="cls-3" d="M142.25 968.84h-30.39l.09-91.12h30.39zM114 966.66h26.08l.09-86.8h-26.09z" transform="translate(-11.92 -688.52)"/><path class="cls-9" d="M152 851.29a5.93 5.93 0 005.93 5.94h15.78a5.94 5.94 0 005.94-5.93v-13.86a5.93 5.93 0 00-5.93-5.94H158a5.92 5.92 0 00-5.94 5.92z" transform="translate(-11.92 -688.52)"/><path class="cls-3" d="M173.75 858.32H158a7 7 0 01-7-7v-13.91a7 7 0 017-7h15.79a7 7 0 017 7v13.88a7 7 0 01-7.04 7.03zm-20.63-7a4.85 4.85 0 004.85 4.86h15.78a4.86 4.86 0 004.86-4.85v-13.89a4.83 4.83 0 00-4.85-4.86h-15.78a4.87 4.87 0 00-4.86 4.85z" transform="translate(-11.92 -688.52)"/><path class="cls-9" d="M15.35 844.84c0 41 3.85 74.17 8.69 74.17s8.8-33.2 8.84-74.16-3.88-74.17-8.69-74.18-8.8 33.2-8.84 74.17z" transform="translate(-11.92 -688.52)"/><path class="cls-3" d="M24 920.09c-1.25 0-4.59 0-7.25-22.68a474.24 474.24 0 01-2.52-52.58c0-19.85 1-38.52 2.63-52.57 2.7-22.66 6-22.68 7.29-22.66s4.59 0 7.24 22.68C33.08 806.33 34 825 34 844.85c-.07 26.02-2.17 75.24-10 75.24zm-7.62-75.25c0 19.59.86 38.06 2.48 52 2.38 20.21 5.14 21.09 5.14 21.09s2.81-.88 5.19-21.1a473.09 473.09 0 002.57-52 473.43 473.43 0 00-2.46-52c-2.34-20.23-5.13-21.11-5.15-21.12s-2.81.88-5.19 21.1a472.9 472.9 0 00-2.58 52z" transform="translate(-11.92 -688.52)"/><path class="cls-9" d="M108.78 968.16a1.31 1.31 0 001.31 1.31h33.92a1.33 1.33 0 001.32-1.32v-4.33a1.33 1.33 0 00-1.32-1.32h-33.92a1.32 1.32 0 00-1.32 1.31z" transform="translate(-11.92 -688.52)"/><path class="cls-3" d="M144 970.58h-33.92a2.4 2.4 0 01-2.39-2.4v-4.33a2.41 2.41 0 01.7-1.69 2.38 2.38 0 011.69-.7H144a2.38 2.38 0 011.69.7 2.3 2.3 0 01.7 1.69v4.33a2.4 2.4 0 01-2.39 2.4zm-33.91-7a.23.23 0 00-.17.07.27.27 0 00-.07.16v4.34a.24.24 0 00.24.24h33.92a.24.24 0 00.24-.24v-4.33a.24.24 0 00-.24-.24h-33.92z" transform="translate(-11.92 -688.52)"/><path class="cls-13" d="M25.07 772.12s38.72 32.29 69.15 32.32h13.58l-.07 77.88h-12c-33.78 0-69.07 34.92-69.07 34.92a702.25 702.25 0 004.43-73.92 449.75 449.75 0 00-6.02-71.2z" transform="translate(-11.92 -688.52)"/><path class="cls-3" d="M25.18 920.18l.38-3.07A707.18 707.18 0 0030 843.32a451.28 451.28 0 00-6-71l-.52-2.92 2.27 1.9c.39.32 38.77 32.05 68.46 32.08H108c.48.06 1.08.26 1.08 1.06a1.23 1.23 0 01-.16.58l-.07 78.37h-13.2c-32.95 0-67.92 34.27-68.27 34.61zm1.42-145.46a459.85 459.85 0 015.52 68.6A709.56 709.56 0 0128 914.44a172.4 172.4 0 0119.86-15.57c12-8 30.05-17.63 47.76-17.63h11l.07-75.72H94.22c-12.82 0-28.48-5.51-46.54-16.33a214 214 0 01-21.08-14.47z" transform="translate(-11.92 -688.52)"/><path class="cls-9" d="M140.91 804.49A31.15 31.15 0 01172 835.67v15.57a31.14 31.14 0 01-31.18 31.12H107.2l.07-77.88z" transform="translate(-11.92 -688.52)"/><path class="cls-3" d="M140.87 883.44h-34.7l.07-80h34.71a32.28 32.28 0 0132.2 32.26v15.57a32.23 32.23 0 01-32.22 32.2zm-32.59-2.19h32.55a30.06 30.06 0 0030.07-30v-15.58a30.11 30.11 0 00-30-30.11h-32.55z" transform="translate(-11.92 -688.52)"/><path class="cls-9" d="M24.16 791.16c.25 1.93.49 4.08.73 6.47 1.3 13.15 2 29.93 2 47.22s-.76 34-2.08 47.2a269.7 269.7 0 01-.74 6.47c-.24-1.93-.49-4.08-.72-6.47-1.3-13.15-2-29.92-2-47.21s.76-34.06 2.08-47.21c.24-2.39.49-4.54.73-6.47m-.68-20.25c-4.52 3.05-8.09 35-8.13 73.93 0 41 3.85 74.17 8.69 74.17a1.24 1.24 0 00.71-.24c4.51-3 8.09-35 8.13-73.92 0-41-3.85-74.17-8.69-74.18a1.24 1.24 0 00-.71.24z" transform="translate(-11.92 -688.52)"/><path class="cls-3" d="M24 920.09c-1.25 0-4.59 0-7.25-22.68a474.24 474.24 0 01-2.52-52.58c0-34.31 3-71 8.6-74.81a2.1 2.1 0 011.33-.42c1.24 0 4.58 0 7.23 22.68C33.08 806.33 34 825 34 844.85c0 34.31-3 71-8.6 74.82a2.42 2.42 0 01-1.4.42zm.15-148.34a.22.22 0 00-.11 0c-.5.34-3.1 3-5.28 22.73a487.71 487.71 0 00-2.38 50.31c0 19.59.86 38.06 2.48 52C21.23 917 24 917.93 24 917.93a.22.22 0 00.11 0c.5-.34 3.09-3 5.27-22.73a482.07 482.07 0 002.38-50.3 473.43 473.43 0 00-2.46-52c-2.34-20.23-5.13-21.11-5.15-21.12zm-.14 135.37L23 898.65c-.28-2.27-.52-4.39-.72-6.5-1.3-13.21-2-30-2-47.31s.76-34.14 2.09-47.31c.23-2.24.47-4.43.74-6.5l1.06-8.41 1.07 8.4c.27 2.07.51 4.25.73 6.51 1.3 13.15 2 30 2 47.32s-.75 34.09-2.08 47.3c-.25 2.48-.5 4.61-.74 6.5zm.11-105.69c-1.1 12.48-1.71 27.72-1.73 43.41s.56 30.92 1.64 43.43c1.1-12.51 1.71-27.76 1.73-43.42s-.53-30.95-1.6-43.42z" transform="translate(-11.92 -688.52)"/><path d="M13 843.32a19.54 19.54 0 0112.57-18.22c-.52 12.26-.46 24.34 0 36.5A19.53 19.53 0 0113 843.32z" transform="translate(-11.92 -688.52)" fill="#434244"/><path class="cls-3" d="M26.76 863.18l-1.53-.57a20.69 20.69 0 01-13.31-19.29 20.73 20.73 0 0113.26-19.23l1.53-.58-.07 1.63c-.49 11.75-.48 23.66.05 36.42zm-12.69-19.86a18.56 18.56 0 0010.4 16.62c-.44-11.56-.45-22.44 0-33.17a18.59 18.59 0 00-10.35 16.55z" transform="translate(-11.92 -688.52)"/><path class="cls-13" d="M97.72 238.49l3.34.08.02-17.59-3.35-.08-.01 17.59z"/><path class="cls-3" d="M114.05 928.19l-5.49-.13v-19.74l5.49.13zm-3.33-2.19h1.18v-15.44h-1.19z" transform="translate(-11.92 -688.52)"/><path class="cls-11" d="M121.16 916.06a6.84 6.84 0 014 8.83 6.85 6.85 0 01-8.83 4l-9.6-3.66a6.83 6.83 0 01-4-8.82 6.84 6.84 0 018.83-4z" transform="translate(-11.92 -688.52)"/><path class="cls-3" d="M118.72 930.37a7.72 7.72 0 01-2.81-.52l-9.6-3.65a7.93 7.93 0 01-4.58-10.2 7.91 7.91 0 0110.27-4.6l9.6 3.65a7.92 7.92 0 01-2.83 15.32zM109.13 913a5.77 5.77 0 00-2.36.51 5.77 5.77 0 00.31 10.65l9.6 3.65a5.77 5.77 0 004.1-10.78l-9.6-3.65a5.81 5.81 0 00-2.05-.38z" transform="translate(-11.92 -688.52)"/><path class="cls-11" d="M117 930.29a6.24 6.24 0 014.55 7.59 6.26 6.26 0 01-7.6 4.55l-9.11-2.28a6.27 6.27 0 01-4.55-7.6 6.26 6.26 0 017.6-4.55z" transform="translate(-11.92 -688.52)"/><path class="cls-3" d="M115.48 943.7a7.29 7.29 0 01-1.78-.22l-9.11-2.29a7.34 7.34 0 113.57-14.19l9.11 2.29a7.34 7.34 0 01-1.79 14.46zm-9.12-14.82a5.19 5.19 0 00-1.25 10.22l9.11 2.29a5.19 5.19 0 102.53-10.06l-9.11-2.33a5.54 5.54 0 00-1.28-.12z" transform="translate(-11.92 -688.52)"/><path class="cls-11" d="M117.3 944.51a5.57 5.57 0 014 6.76 5.57 5.57 0 01-6.75 4.05l-8.09-2a5.57 5.57 0 01-4-6.75 5.57 5.57 0 016.75-4z" transform="translate(-11.92 -688.52)"/><path class="cls-3" d="M116 956.56a6.42 6.42 0 01-1.62-.2l-8.1-2a6.63 6.63 0 01-4.83-8.05 6.65 6.65 0 018.06-4.83l8.1 2a6.64 6.64 0 01-1.61 13.08zm-8.1-13.17a4.5 4.5 0 00-4.36 3.4 4.44 4.44 0 00.52 3.41 4.36 4.36 0 002.75 2l8.09 2a4.49 4.49 0 102.19-8.71l-8.1-2a4.53 4.53 0 00-1.14-.1z" transform="translate(-11.92 -688.52)"/><path class="cls-11" d="M122.83 899.55a7 7 0 014.07 9.07 7 7 0 01-9.08 4.07l-9.82-3.76a7 7 0 01-4.06-9.07 7 7 0 019.07-4.07z" transform="translate(-11.92 -688.52)"/><path class="cls-3" d="M120.31 914.22a8.08 8.08 0 01-2.87-.53l-9.86-3.75a8.11 8.11 0 015.77-15.15l9.86 3.75a8.11 8.11 0 01-2.9 15.68zm-9.84-17.81a5.93 5.93 0 00-5.56 3.84 6 6 0 003.44 7.68l9.86 3.75a5.95 5.95 0 104.23-11.12l-9.85-3.76a6 6 0 00-2.12-.39z" transform="translate(-11.92 -688.52)"/><path class="cls-11" d="M154.82 909.59l-21.77.18a6.7 6.7 0 10.18 13.39l21.59.17z" transform="translate(-11.92 -688.52)"/><path class="cls-3" d="M154.82 922.19l-21.69-.19a5.56 5.56 0 01-.07-11.11l22.91-.18v-2.28l-22.94.18a7.84 7.84 0 00.19 15.68l21.6.16z" transform="translate(-11.92 -688.52)"/><path class="cls-6" d="M106.04 302.75v7.72l48.77.8v-7.71l-48.77-.81z"/><path class="cls-3" d="M167.87 1001l-51.05-.84v-10l51.05.84zm-48.76-3.09l46.47.77v-5.48l-46.47-.77z" transform="translate(-11.92 -688.52)"/><path class="cls-3" d="M154.81 396.4v-87.88l-48.77-.43v88.31h48.77z"/><path class="cls-3" d="M107.19 396.4v-87.05l46.47.41v86.64h2.29v-89.11l-51.05-.46v89.57h2.29z"/><path class="cls-3" d="M107.19 396.07v-86.71l22.25.4-.44 86.31h2.29l.45-88.75-26.84-.49v89.24h2.29z"/><path class="cls-6" d="M158.38 1009.1a3 3 0 103-2.9 2.95 2.95 0 00-3 2.9z" transform="translate(-11.92 -688.52)"/><path class="cls-3" d="M161.34 1013.24h-.08a4.12 4.12 0 11.08 0zm0-5.9a1.83 1.83 0 00-1.83 1.78 1.79 1.79 0 00.51 1.29 1.81 1.81 0 001.27.55v1.14-1.1a1.81 1.81 0 000-3.62z" transform="translate(-11.92 -688.52)"/><path class="cls-11" d="M229.76 941.24l11.45-11.5-8.08 1.4.69-35.63c0-5.24 2.59-22.22-2.06-22.22L191.09 886c-4.65 0-8.45 4.29-8.45 9.53v37a10 10 0 002.8 7.06V980h37v-29c2.41-1.87 5.2-5.8 7.32-9.76z" transform="translate(-11.92 -688.52)"/><path class="cls-3" d="M223.49 981.05h-39.13V940a11.28 11.28 0 01-2.8-7.48v-37c0-5.79 4.18-10.5 9.36-10.6l40.68-12.7h.16a2.77 2.77 0 012.08.93c2.25 2.42 1.93 9.35 1.33 17.49-.14 2-.27 3.74-.27 4.88l-.67 34.34 10.13-1.74-13.73 13.78a35.26 35.26 0 01-7.14 9.64zm-37-2.16h34.82v-28.4l.42-.32c2.11-1.64 4.81-5.25 7.05-9.44l.19-.25 9.06-9.1-6 1 .73-36.93c0-1.19.13-3 .28-5 .38-5.21 1-13.94-.77-15.86a.67.67 0 00-.37-.23l-40.64 12.68h-.17c-4.06 0-7.37 3.79-7.37 8.45v37a9 9 0 002.5 6.3l.31.32z" transform="translate(-11.92 -688.52)"/><path class="cls-3" d="M198.72 270.93l-6.24-.62 37.36-206.27 5.45 1-36.57 205.89z"/><path class="cls-3" d="M211.52 960.62l-8.39-.83 37.76-208.49 7.57 1.4zm-5.85-2.74l4.08.4L246 754.43l-3.33-.62z" transform="translate(-11.92 -688.52)"/><path class="cls-3" d="M250.76 748.26a5.4 5.4 0 11-4.34-6.29 5.41 5.41 0 014.34 6.29z" transform="translate(-11.92 -688.52)"/><path class="cls-3" d="M245.44 753.77a6.68 6.68 0 01-1.17-.1 6.49 6.49 0 117.55-5.21 6.49 6.49 0 01-6.38 5.31zm0-10.82a4.37 4.37 0 10.8.08 4.33 4.33 0 00-.81-.03z" transform="translate(-11.92 -688.52)"/><path class="cls-15" d="M344.66 851.7l34.51-23.91-19.95-3.68-69.13-13.21a7.9 7.9 0 01-3.45-1.56 7.64 7.64 0 01-2.85-7.4l-10.35 56.25a9.45 9.45 0 00-.11 2.54c-.26 3.08.38 7.44 6.24 8.51L314 875.4l54.59 10z" transform="translate(-11.92 -688.52)"/><path class="cls-3" d="M371 887l-57.2-10.52-34.4-6.16c-5-.92-7.54-4.32-7.13-9.57a10.38 10.38 0 01.13-2.74l10.35-56.24 2.11.39a6.58 6.58 0 002.46 6.35 6.84 6.84 0 003 1.35l69.13 13.22 22.5 4.14L346.17 852zm-87.17-79.24l-9.31 50.64a8.41 8.41 0 00-.1 2.25v.19c-.35 4.23 1.41 6.64 5.36 7.36l34.4 6.16 52 9.56-23-32.47 33.28-23-17.46-3.28L289.89 812a9 9 0 01-3.92-1.76 8.83 8.83 0 01-2.16-2.5z" transform="translate(-11.92 -688.52)"/><path d="M324.49 834.25l-30-5.56-15-2.78-3.68 20h-.13l-2.26 12.28a9.38 9.38 0 00-.11 2.53 16.38 16.38 0 01.22-1.64l.66-3.58a9.51 9.51 0 018.44-7.7 10.14 10.14 0 012.9.11l5.21 1 31.2 5.74c4-.33 7.24-2.74 8-6.88l.66-3.59c.55-2.92.9-8.64-6.11-9.93z" transform="translate(-11.92 -688.52)" fill="#eab200"/><path class="cls-3" d="M272.26 860.82a10.24 10.24 0 01.12-2.83l2.46-13.34h.13l3.68-20 46 8.53a8.68 8.68 0 015.87 3.41c1.33 1.94 1.71 4.54 1.12 7.74l-.66 3.58c-.81 4.4-4.25 7.37-9 7.77h-.28L285.36 849a9.44 9.44 0 00-2.6-.1 8.43 8.43 0 00-7.49 6.83l-.66 3.58c-.09.48-.16 1-.21 1.54zm11.45-14.15a10.68 10.68 0 012 .19l36.29 6.67c3.69-.36 6.26-2.59 6.89-6l.66-3.59c.48-2.61.22-4.67-.78-6.12a6.6 6.6 0 00-4.48-2.51l-43.92-8.14-3.69 20h-.13l-.47 2.57a10.74 10.74 0 016.45-3 11.46 11.46 0 011.18-.07z" transform="translate(-11.92 -688.52)"/><path class="cls-15" d="M333.09 776.64l-87.24-16-10.55 57.28 89.18 16.39c6.76 1.24 6.68 6.9 6.15 9.78L341 787.85a9.69 9.69 0 00-7.91-11.21z" transform="translate(-11.92 -688.52)"/><path class="cls-3" d="M331.69 844.28l-2.12-.38c.61-3.34.19-7.52-5.28-8.52l-90.24-16.58L245 759.34l88.31 16.24A10.77 10.77 0 01342 788l-10.34 56.24zm-95.13-27.22l88.12 16.19a8.5 8.5 0 016.12 4l9.11-49.55a8.61 8.61 0 00-7-9.95l-86.19-15.86z" transform="translate(-11.92 -688.52)"/><path class="cls-11" d="M226.54 892.52a6.84 6.84 0 00-4 8.83 6.83 6.83 0 008.83 4l9.6-3.65a6.84 6.84 0 004-8.83 6.83 6.83 0 00-8.82-4z" transform="translate(-11.92 -688.52)"/><path class="cls-3" d="M229 906.84a7.92 7.92 0 01-2.83-15.32l9.6-3.66a7.92 7.92 0 015.63 14.81l-9.6 3.65a7.88 7.88 0 01-2.8.52zm-2.07-13.31a5.77 5.77 0 104.1 10.78l9.61-3.66a5.76 5.76 0 10-4.11-10.77z" transform="translate(-11.92 -688.52)"/><path class="cls-11" d="M230.69 906.75a6.25 6.25 0 00-4.55 7.59 6.26 6.26 0 007.6 4.56l9.12-2.29a6.26 6.26 0 004.55-7.59 6.27 6.27 0 00-7.6-4.56z" transform="translate(-11.92 -688.52)"/><path class="cls-3" d="M232.22 920.16a7.33 7.33 0 01-1.79-14.45l9.11-2.29a7.34 7.34 0 018.91 5.33 7.36 7.36 0 01-5.33 8.91l-9.12 2.28a7.37 7.37 0 01-1.78.22zm9.12-14.81a5 5 0 00-1.27.16L231 907.8a5.19 5.19 0 00-3.77 6.28 5.2 5.2 0 006.3 3.77l9.11-2.28a5.19 5.19 0 00-1.25-10.22z" transform="translate(-11.92 -688.52)"/><path class="cls-11" d="M230.41 921a5.57 5.57 0 00-4 6.76 5.56 5.56 0 006.75 4l8.1-2a5.57 5.57 0 004-6.75 5.57 5.57 0 00-6.76-4z" transform="translate(-11.92 -688.52)"/><path class="cls-3" d="M231.75 933a6.65 6.65 0 01-1.6-13.1l8.09-2a6.64 6.64 0 017.3 9.88 6.53 6.53 0 01-4.08 3l-8.08 2a6.51 6.51 0 01-1.63.22zm8.11-13.17a4.51 4.51 0 00-1.09.13l-8.1 2a4.49 4.49 0 002.18 8.72l8.09-2a4.49 4.49 0 00-1.08-8.84z" transform="translate(-11.92 -688.52)"/><path class="cls-11" d="M224.88 876a7 7 0 00-4.07 9.07 7 7 0 009.07 4.07l9.86-3.75a7 7 0 004.06-9.07 7 7 0 00-9.07-4.07z" transform="translate(-11.92 -688.52)"/><path class="cls-3" d="M227.39 890.69A8.1 8.1 0 01224.5 875l9.85-3.76a8.11 8.11 0 015.78 15.15l-9.87 3.76a8 8 0 01-2.87.54zM225.26 877a6 6 0 004.24 11.12l9.86-3.75a6 6 0 00-4.24-11.12z" transform="translate(-11.92 -688.52)"/><path class="cls-11" d="M214.66 886.24l-21-.18v13.73l20.84-.16a6.7 6.7 0 00.18-13.39z" transform="translate(-11.92 -688.52)"/><path class="cls-3" d="M214.67 885.09l-22.17-.17v2.29l22.14.17a5.55 5.55 0 11-.17 11.1l-20.83.16v2.29l20.93-.16a7.84 7.84 0 00.1-15.68z" transform="translate(-11.92 -688.52)"/><path class="cls-6" d="M168.65 280.03v7.72l48.76-.81v-7.71l-48.76.8z"/><path class="cls-3" d="M179.42 977.43v-10l51.05-.84v10zm2.29-7.76v5.43l46.48-.76v-5.43z" transform="translate(-11.92 -688.52)"/><path class="cls-3" d="M217.41 396.4V284.89l-48.76.55V396.4h48.76z"/><path class="cls-3" d="M169.79 396.4V287l46.48-.53V396.4h2.29V283.3l-51.06.58V396.4h2.29z"/><path class="cls-3" d="M194.87 395.74l-.44-108.75 21.84-.5v109.25h2.29V283.31l-26.43.6.45 111.83h2.29z"/><path class="cls-6" d="M189.33 985.57a3 3 0 11-3-2.9 2.94 2.94 0 013 2.9z" transform="translate(-11.92 -688.52)"/><path class="cls-3" d="M186.37 989.71a4.1 4.1 0 01-.06-8.19 4.13 4.13 0 014.16 4 4.1 4.1 0 01-4 4.16zm0-5.9a1.81 1.81 0 100 3.61v1.14-1.14a1.81 1.81 0 000-3.61z" transform="translate(-11.92 -688.52)"/><g id="Layer_2" data-name="Layer 2"><path class="cls-3" d="M73.37 1019.41l3-1.48-.2-.49a10.86 10.86 0 01-.72-2.92v-.52l-3.28.09a15.84 15.84 0 00-1.3-2.44l1.83-2.73-.42-.33a10.92 10.92 0 01-2.08-2.16l-.31-.43-2.75 1.7a15.08 15.08 0 00-2.39-1.45l.22-3.27-.52-.08a10.69 10.69 0 01-2.88-.83l-.49-.22-1.55 2.89a14.84 14.84 0 00-2.75 0l-1.47-3-.49.2a10.41 10.41 0 01-2.92.72l-.52.06.1 3.38a14.91 14.91 0 00-2.3 1.3l-2.88-1.93-.32.41a10.7 10.7 0 01-2.17 2.08l-.42.31 1.84 3a16.15 16.15 0 00-1.28 2.16l-3.59-.24-.07.52a10.76 10.76 0 01-.83 2.89l-.22.48 3.22 1.74a14.66 14.66 0 000 2.39l-3.34 1.64.2.49a11.15 11.15 0 01.72 2.92l.05.52 3.75-.11a14.78 14.78 0 001.12 2l-2.12 3.16.41.33a10.7 10.7 0 012.09 2.16l.31.43 3.21-2a16.38 16.38 0 002 1.21l-.26 3.8.52.07a11.22 11.22 0 012.9.84l.47.21 1.78-3.29a15.27 15.27 0 002.34.09l1.66 3.36.49-.19a10.43 10.43 0 012.91-.72l.53-.06-.11-3.64a15.27 15.27 0 002.16-1.13l3 2 .32-.42a10.92 10.92 0 012.16-2.08l.43-.31-1.84-3a14.87 14.87 0 001.38-2.18l3.49.24.07-.52a10.76 10.76 0 01.83-2.89l.22-.48-3-1.6a15.18 15.18 0 00.06-2.65zm1.4 4.79a12.75 12.75 0 00-.63 2.19l-3.2-.22-.17.34a14.59 14.59 0 01-1.66 2.63l-.25.31 1.71 2.77a12.18 12.18 0 00-1.64 1.57l-2.78-1.86-.32.2a14.13 14.13 0 01-2.64 1.39l-.37.15.1 3.38a11.81 11.81 0 00-2.2.55l-1.53-3.11h-.38a14.72 14.72 0 01-2.89-.11l-.39-.05-1.65 3.06a12 12 0 00-2.18-.63l.24-3.53-.35-.16a15 15 0 01-2.42-1.49l-.31-.24-3 1.85a11.68 11.68 0 00-1.58-1.64l2-2.93-.22-.32a15 15 0 01-1.39-2.51l-.15-.35-3.47.1a11.34 11.34 0 00-.55-2.21l3.11-1.52v-.39a14.44 14.44 0 010-2.94v-.38l-3-1.6a12 12 0 00.64-2.19l3.33.23.16-.36a14.19 14.19 0 011.55-2.63l.23-.31-1.7-2.76a12.8 12.8 0 001.64-1.57l2.66 1.78.32-.23a14.14 14.14 0 012.76-1.55l.35-.16-.08-3.1a12.65 12.65 0 002.2-.55l1.36 2.77h.39a14.28 14.28 0 013.27 0l.39.05 1.43-2.65a11.6 11.6 0 002.18.63l-.2 3 .35.16a14.22 14.22 0 012.83 1.73l.32.24 2.53-1.57a11.14 11.14 0 001.58 1.64l-1.68 2.51.22.31a14.75 14.75 0 011.55 2.91l.15.37 3-.09a12.08 12.08 0 00.54 2.21l-2.76 1.36v.38a14 14 0 01-.13 3.22l-.06.39z" transform="translate(-11.92 -688.52)"/><path class="cls-3" d="M57.86 1007.66a12.43 12.43 0 1012.43 12.43 12.44 12.44 0 00-12.43-12.43zm9.79 7.11a11.08 11.08 0 01.95 8.49 11.2 11.2 0 01-10.72 8.07 10.85 10.85 0 01-3.1-.44 11.17 11.17 0 01-7.64-13.82 11.16 11.16 0 0113.86-7.63 11.09 11.09 0 016.65 5.33z" transform="translate(-11.92 -688.52)"/><path class="cls-3" d="M52 1020.09a5.83 5.83 0 105.83-5.83 5.84 5.84 0 00-5.83 5.83zm10.53 0a4.7 4.7 0 11-4.7-4.7 4.71 4.71 0 014.73 4.7z" transform="translate(-11.92 -688.52)"/></g><path class="cls-3" d="M305.51 307.81h1.63v2.27h-1.63zm0-5.37h1.63v2.27h-1.63zm0-5.37h1.63v2.27h-1.63zm0-5.36h1.63v2.27h-1.63zm0-5.37h1.63v2.27h-1.63zm0-5.37h1.63v2.27h-1.63zm0-5.36h1.63v2.27h-1.63zm0-5.37h1.63v2.27h-1.63zm0-5.37h1.63v2.27h-1.63zm0-5.36h1.63v2.27h-1.63zm0-5.37h1.63v2.27h-1.63zm0-5.37h1.63v2.27h-1.63zm0-5.36h1.63v2.27h-1.63z" id="Layer_5" data-name="Layer 5"/><path class="cls-3" d="M73.13 85.2h1.36v1.88h-1.36zm0-4.46h1.36v1.88h-1.36zm0-4.45h1.36v1.88h-1.36zm0-4.45h1.36v1.88h-1.36zm0-4.46h1.36v1.88h-1.36zm0-4.45h1.36v1.88h-1.36zm0-4.46h1.36v1.88h-1.36zm0-4.45h1.36v1.88h-1.36zm0-4.45h1.36v1.88h-1.36zm0-4.46h1.36v1.88h-1.36zm0-4.45h1.36v1.88h-1.36zm0-4.46h1.36v1.88h-1.36zm0-4.45h1.36v1.88h-1.36z" id="Layer_6" data-name="Layer 6"/><path class="cls-3" d="M279.34 50.63h18.6v1.16h-18.6zm23.83 0h18.6v1.16h-18.6zm22.08 0h1.74v1.16h-1.74z" id="Layer_7" data-name="Layer 7"/><path class="cls-3" d="M277.91 1050.61a13.11 13.11 0 01-4.71-2.27 12.87 12.87 0 01-3.36-3.76 13.14 13.14 0 01-1.46-10 13.17 13.17 0 012.26-4.71 13.13 13.13 0 0113.74-4.82 13.17 13.17 0 01-6.47 25.53zm.71-.83l.65-.07h.61l.18-.07.14-.06h.06l.18-.08.16-.07h.06l.13-.08h.05l.18-.11.14-.09h.06l.14-.1.16-.13h.05l.13-.1.06-.05.15-.13h.05l.14-.13.07-.07.11-.1.06-.06.17-.17.05-.06.12-.12.07-.08.11-.12.06-.06.16-.18.06-.09.1-.12.08-.09.07-.1a.44.44 0 01.08-.11l.11-.15.31-.42-.54-.26-.12-.06-.13-.06-.53-.23h-.11l-.47-.19h-.08l-.55-.2h-.14l-.53-.18h-.06l-.36-.11-.52-.16zm-1.54-.66l.07.05.54.38 1.38-5.46-.53-.11-.37-.08h-.07l-.54-.1h-.15l-.58-.09h-.13l-.49-.05h-1.59l.08.58a1.11 1.11 0 010 .17 2 2 0 000 .24v.36a1.69 1.69 0 00.05.24v.07a1.16 1.16 0 010 .18v.34a1.87 1.87 0 00.07.22v.08c0 .06 0 .11.05.16v.08a1.07 1.07 0 00.07.19 1.59 1.59 0 00.07.2v.07l.06.15.09.2a1.09 1.09 0 00.08.15v.05l.08.15.11.18.08.13a.91.91 0 00.11.16l.12.16a1.47 1.47 0 00.1.13 3.83 3.83 0 00.28.29l.12.1.16.12zm-4.59-2.72l.09.09c.22.22.46.44.7.64l.1.09.43.33 1.26 1-.59-1.47v-.07a1.8 1.8 0 01-.08-.21v-.12l-.08-.23v-.11l-.09-.27a.45.45 0 000-.08c0-.11-.06-.23-.09-.37 0-.12-.05-.23-.08-.35v-.11l-.06-.28a.43.43 0 000-.12v-.8l-.05-.4h-2.47l-.65.12.36.55a12.12 12.12 0 00.9 1.23c.22.26.44.5.67.73zm12.31.31l-.06.08-.17.22-.06.09-.15.2a.39.39 0 00-.08.1l-.16.19-.08.09-.21.23v.06l-.25.27-.08.07-.18.19-.09.08-.17.16-.1.09-.17.15h-.06l-1.2 1 1.55-.23.41-.07a12.23 12.23 0 003.63-1.31l.57-.32-.54-.43-.07-.06-.19-.15-.21-.15-.2-.15-.23-.15-.2-.14-.24-.16-.22-.14-.12-.06-.34-.21zm-15.65-10.93a12 12 0 00-.09 3.49 12.22 12.22 0 00.92 3.41l.14.33.36-.08h.27l.46-.09h.11l.47-.08h1.77v-.49a3.84 3.84 0 010-.48v-1.38c0-.2 0-.39.05-.58v-.09l.06-.5v-.14c0-.22.06-.4.08-.57a.13.13 0 000-.06c0-.17.05-.34.08-.5v-.16l.12-.56.09-.43-.42-.11-4.56-1.15zm16.4 9.8l.37.22.11.07h.08l.41.27.09.06.37.26.38.28.1.08.34.28h.1l.13.11.27.24.28-.22a.39.39 0 00.1-.08c.26-.21.51-.43.75-.65l.6-.61.11-.13.12-.14a12.12 12.12 0 001.75-2.66c.1-.22.21-.45.3-.69s.19-.47.27-.7l.15-.45-5-1.26-.14.4-.17.55a.76.76 0 010 .11l-.15.47v.09c-.05.17-.12.34-.19.54l-.06.15-.18.44v.11l-.22.51-.06.13c-.07.14-.13.29-.2.43l-.05.1-.25.49-.05.11c-.08.13-.15.27-.23.41l-.22.39zm-10.75-7c0 .16-.05.33-.07.53v.12c0 .37-.08.74-.11 1.11v2.21h.99l.58.05h.15c.42 0 .85.1 1.27.16h.16l.55.1h.11l.53.11.42.09 1.26-5-5.43-1.38-.1.44c0 .17-.07.34-.1.51v.12l-.09.55zm5.43 4.87l.4.12.52.15h.14l.48.16.19.06.58.22h.06l.53.21h.17l.47.2h.1l.46.22.38.18.21-.39.24-.44v-.09l.24-.48.21-.45.06-.13.22-.5c.07-.16.14-.32.2-.49l.06-.14c0-.15.11-.31.17-.46v-.07c.06-.15.11-.32.17-.51l.06-.16.13-.43.16-.52-5.44-1.38zm11.59-10.65h-.3l-.44.08h-.11l-.47.07-.47.06h-1.3v2.36c0 .19 0 .38-.05.56v.11l-.06.48a.5.5 0 000 .12c0 .21-.05.39-.08.56a.58.58 0 000 .1c0 .16 0 .32-.08.48v.18c-.05.22-.08.4-.12.56l-.07.41.41.1 4.55 1.16.08-.47a12 12 0 00.09-3.49 12.22 12.22 0 00-.92-3.41l-.14-.33zm-4.5.37a24.49 24.49 0 01-3.92-.51l-.42-.09-1.26 5 5.44 1.37.1-.49c0-.17.07-.34.1-.5v-.13c0-.2.06-.38.09-.56 0-.16 0-.33.07-.53a1.23 1.23 0 000-.13c0-.18 0-.36.06-.52 0-.17 0-.35.05-.55v-1.28a3.69 3.69 0 000-.47v-.47zm-11.44 1.13c-.06.16-.11.34-.18.54v.12l-.15.5-.15.47.45.12 5 1.26 1.26-5-.41-.11-.53-.17h-.07l-.56-.18-.14-.06-.61-.22-.58-.23h-.11l-.5-.22h-.09l-.45-.21-.38-.19-.2.37v.06l-.21.38-.06.12c-.1.18-.17.33-.24.48l-.22.45a.37.37 0 01-.05.11c-.15.34-.29.69-.43 1v.12c-.06.15-.13.33-.19.51zm-2.26-6a12 12 0 00-2.43 2.56 12.19 12.19 0 00-1.57 3.12l-.16.44 5 1.26.12-.4c.05-.16.1-.34.16-.55l.06-.16c0-.16.1-.32.16-.48v-.08c.06-.17.12-.35.2-.54l.05-.14.18-.46v-.09l.23-.52a.37.37 0 01.05-.11 4.69 4.69 0 01.21-.45v-.09c.07-.16.16-.32.25-.5v-.1c.08-.14.15-.28.23-.41l.22-.4-.38-.23-.09-.05-.14-.09-.41-.27-.09-.06-.38-.26-.37-.28-.09-.07-.35-.29-.1-.08-.13-.11-.27-.24zm5.28.43l-.14.18c-.1.12-.21.26-.31.4l-.31.43.53.25.13.06.13.06c.18.09.36.16.53.23l.12.06.47.19h.11l.56.2.13.05.54.18h.06l.4.12.48.14 1.38-5.45-.63.06h-.48l-.38.12-.16.06-.19.08-.16.08-.15.09-.18.11-.16.1h-.05l-.15.11-.18.14-.14.11h-.05c-.12.1-.24.2-.36.32l-.05.05-.14.13-.17.18-.15.17h-.05l-.15.17-.18.21zm4.32 2.89l.44.1a22.3 22.3 0 003.48.46h.53l-.07-.52c-.34-2.47-1.22-4.3-2.49-5.17l-.51-.35zm-3.91-5.78l-.41.07a12.21 12.21 0 00-3.63 1.3l-.57.31.52.43.08.06.2.16.2.15.22.16.21.14.22.15.22.14.24.15.1.07.35.2.24-.33a1.77 1.77 0 01.16-.22l.09-.12.16-.21.09-.1.17-.22v-.06l.24-.27.26-.28h.05l.21-.21.08-.08.18-.17.08-.07.19-.16 1.24-1zm8.5 2.83a12.25 12.25 0 01.76 3.14l.05.4h2.48l.63-.13-.34-.54a12.15 12.15 0 00-2.58-2.87l-.33-.26-1.24-.94z" transform="translate(-11.92 -688.52)"/></g></g></svg>