<svg xmlns="http://www.w3.org/2000/svg" viewBox="0 0 570 345.76"><defs><style>.cls-3{fill:#fff}.cls-4{fill:#1b2c38}.cls-5{fill:#e8b100}.cls-7{fill:#ffcb05}.cls-8{fill:#f1f2ec}.cls-9{fill:#fc3e59}.cls-10{fill:#27c7cd}</style></defs><path d="M173.89 287H137a1.1 1.1 0 010-2.19h36.88a43.93 43.93 0 10-16.17-84.75 1.09 1.09 0 01-1.45-.73A68.09 68.09 0 0022.42 213.8a1.12 1.12 0 01-.52.89 1.09 1.09 0 01-1 .07 36.22 36.22 0 00-14.67-3.08 36.57 36.57 0 100 73.13h84.45a1.1 1.1 0 010 2.19H6.22a38.76 38.76 0 1114.1-74.84 70.27 70.27 0 01137.74-14.56 45.68 45.68 0 0115.83-2.83 46.12 46.12 0 010 92.23zm262.03-8.8H275a32.88 32.88 0 1111-63.84 50 50 0 0197.81 10.26 27.61 27.61 0 0135.85 16.89 21.76 21.76 0 0116.3-7.27 1.05 1.05 0 110 2.1 19.7 19.7 0 00-15.89 8 1.06 1.06 0 01-1 .4 1 1 0 01-.81-.76 25.52 25.52 0 00-34.95-16.85 1 1 0 01-1.47-.92A47.85 47.85 0 00287.68 216a1 1 0 01-.54.67 1.07 1.07 0 01-.86 0A30.77 30.77 0 10275 276.1h161a20 20 0 0018-11.36 1.05 1.05 0 111.9.9 22.1 22.1 0 01-19.98 12.56z" transform="translate(62.13 -7.55)" fill="#e2e7ec" id="Layer_2" data-name="Layer 2"/><g id="Email_Marketing" data-name="Email Marketing"><path fill="#949fac" d="M143.8 146.56h283.34v194H143.8z"/><path class="cls-3" d="M160.57 163.98h249.81v159.16H160.57z"/><path class="cls-3" d="M441.02 344.76h-311.1l-9.89-23.63h330.89l-9.9 23.63z"/><path class="cls-4" d="M379.56 353.31H67.13L56.4 327.68h333.89zm-311.1-2h309.77l9.06-21.63H59.4z" transform="translate(62.13 -7.55)"/><path class="cls-4" d="M265.14 331.01h40.67v1h-40.67z"/><path class="cls-5" d="M187.51 209.71H381.6v111.13H187.51z"/><path class="cls-5" d="M323.31 219.4c0 .32-2.6.58-5.79.58h-190c-3.19 0-5.78-.26-5.78-.58s2.23-1.88 5-3.49L217.5 163a10.92 10.92 0 0110 0l90.8 52.9c2.77 1.62 5.01 3.18 5.01 3.5z" transform="translate(62.13 -7.55)"/><path class="cls-3" d="M238.86 67.81l-38.64 38.64V284h168.33V67.81H238.86z"/><path class="cls-4" d="M307.42 292.54H137.09v-179l39.22-39.22h131.11zm-168.33-2h166.33V76.36H177.14l-38 38.05z" transform="translate(62.13 -7.55)"/><path fill="#636c78" d="M238.49 106.1V66.79L199.1 106.1h39.39z"/><path class="cls-7" d="M121.71 221.71v103.76c0 3.14 2.23 4.4 5 2.82l90.57-51.84c2.76-1.57 2.76-4.14 0-5.7l-90.57-51.84c-2.77-1.58-5-.33-5 2.8zm105.55 54.47l91 52.1c2.77 1.59 5 .33 5-2.83V221.17c0-3.15-2.25-4.41-5-2.82l-91 52.1c-2.78 1.55-2.78 4.15 0 5.73z" transform="translate(62.13 -7.55)"/><path class="cls-5" d="M121.7 328.39c0 .32 2.59.58 5.78.58H317c3.19 0 5.78-.26 5.78-.58s-2.23-1.87-5-3.47l-95.57-61.33-95.56 61.33c-2.72 1.6-4.95 3.17-4.95 3.47z" transform="translate(62.13 -7.55)"/><path class="cls-4" d="M385.94 321.84H182.83l.01-110.17 12.31-8.14 1.1 1.67-11.41 7.54-.01 107.1h199.12l.49-107.63-11.39-7 1.05-1.7 12.34 7.58v.57l-.5 110.18zM228.36 156.81h103.95v2H228.36zm0-16.4h103.95v2H228.36zm0-16.39h103.95v2H228.36zm0-16.4h103.95v2H228.36z"/><path class="cls-4" d="M228.36 220.75h103.95v2H228.36zm0-16.4h103.95v2H228.36zm0-16.39h103.95v2H228.36zm0-16.4h103.95v2H228.36z"/><path class="cls-7" d="M149.31 204l-4.93-26.69A50.81 50.81 0 10125 199.53z" transform="translate(62.13 -7.55)"/><path class="cls-4" d="M98.19 208.29a51.68 51.68 0 01-51.62-51.62h2a49.54 49.54 0 0075.92 42l.33-.2 24.67 4.53-.36 2-23.9-4.39a51.47 51.47 0 01-27.04 7.68z" transform="translate(62.13 -7.55)"/><ellipse class="cls-8" cx="160.57" cy="149.12" rx="36.74" ry="35.89"/><path class="cls-4" d="M96.29 178v-3.79a23.6 23.6 0 01-12.15-6l4.86-5.8a20.92 20.92 0 007.32 4.51v-7.74c-3.64-.93-6.3-2.18-8-3.76s-2.54-3.84-2.54-6.8a9.86 9.86 0 012.91-7.32 12.6 12.6 0 017.63-3.45v-2.54h5.5V138a23.94 23.94 0 0110.33 4.31l-4.26 6.13a19.84 19.84 0 00-6.07-3.12v7.48q5.61 1.45 8.28 3.89a8.89 8.89 0 012.67 6.91 9.86 9.86 0 01-3 7.37 13.19 13.19 0 01-8 3.48V178zm0-33a2.87 2.87 0 00-2.24 2.85 3.44 3.44 0 002.24 3.17zm8.15 19a2.87 2.87 0 00-.57-1.82 5.32 5.32 0 00-2.08-1.35v6.39c1.76-.59 2.65-1.67 2.65-3.22z" transform="translate(62.13 -7.55)"/><path class="cls-9" d="M370.12 163.13a43.82 43.82 0 11-43.82-43.82 43.82 43.82 0 0143.82 43.82z" transform="translate(62.13 -7.55)"/><path class="cls-8" d="M342.3 161.86l-30.52-17.63a1.47 1.47 0 00-2.2 1.28v35.24a1.47 1.47 0 002.2 1.27l30.52-17.62a1.46 1.46 0 000-2.54l-30.52-17.63a1.47 1.47 0 00-2.2 1.28v35.24a1.47 1.47 0 002.2 1.27l30.52-17.62a1.46 1.46 0 000-2.54z" transform="translate(62.13 -7.55)"/><path class="cls-4" d="M311 183.22a2.5 2.5 0 01-1.23-.33 2.46 2.46 0 01-1.23-2.14v-35.24a2.47 2.47 0 013.7-2.14L342.8 161a2.44 2.44 0 011.18 1.88 1.93 1.93 0 010 .24 2.46 2.46 0 01-1.23 2.14l-30.52 17.62a2.5 2.5 0 01-1.23.34zm-.46-2.47a.44.44 0 00.23.4.45.45 0 00.47 0l30.52-17.62a.44.44 0 00.23-.4.47.47 0 00-.23-.41l-30.48-17.62a.47.47 0 00-.7.41z" transform="translate(62.13 -7.55)"/><path class="cls-4" d="M391.35 90h1v14.63h-1z"/><path class="cls-4" transform="rotate(-18.09 318.91 -87.296)" d="M311 107.86h1v7.52h-1z"/><path class="cls-4" transform="rotate(-40.07 313.204 28.727)" d="M291.98 109.63h1v16.13h-1z"/><path class="cls-4" transform="rotate(-60.43 404.068 133.067)" d="M378.97 182.76h1v14.85h-1z"/><path class="cls-4" transform="rotate(-79 410.377 129.618)" d="M381.87 167.25h1v7.25h-1z"/><path class="cls-4" transform="matrix(.98 -.18 .18 .98 41.02 65.06)" d="M378.54 151.05h14.63v1h-14.63z"/><path class="cls-4" transform="rotate(-30.7 390.391 18.147)" d="M372.2 134.75h5.56v1h-5.56z"/><path class="cls-4" transform="rotate(-50.62 388.896 48.615)" d="M358.77 117.59h14.03v1h-14.03z"/><path class="cls-4" transform="rotate(-70.61 373.203 63.884)" d="M343.78 111.03h7.37v1h-7.37z"/><path class="cls-9" d="M174 35.56a20.87 20.87 0 01-20.87 20.86V35.56z" transform="translate(62.13 -7.55)"/><path class="cls-10" d="M179.1 35.56a26 26 0 10-26 25.95V35.56z" transform="translate(62.13 -7.55)"/><path class="cls-8" d="M167.3 35.56a14.16 14.16 0 10-14.16 14.15V35.56z" transform="translate(62.13 -7.55)"/><path class="cls-4" d="M133.3 72a.86.86 0 01-.72-.38l-8.68-12.36H82.17v-1h42.25l8.86 12.61L139 58.26h12.85v1h-12.2l-5.58 12.2a.91.91 0 01-.73.52z" transform="translate(62.13 -7.55)"/><path class="cls-4" d="M248.21 50.71h29.32v1h-29.32z"/><path class="cls-4" d="M187.4 60.18L168.89 8.6h-.14l-18.21 51.58-.95-.34 18.22-51.57a1.05 1.05 0 011-.72 1 1 0 011 .71l18.51 51.58zM64.92 64.05a3.72 3.72 0 113.72-3.72 3.73 3.73 0 01-3.72 3.72zm0-6.44a2.72 2.72 0 102.72 2.72 2.72 2.72 0 00-2.72-2.72zm313.74 41.7a3.72 3.72 0 113.72-3.72 3.73 3.73 0 01-3.72 3.72zm0-6.43a2.72 2.72 0 102.72 2.71 2.72 2.72 0 00-2.72-2.71zM447 123.64a4.64 4.64 0 114.64-4.64 4.65 4.65 0 01-4.64 4.64zm0-8.28a3.64 3.64 0 103.64 3.64 3.65 3.65 0 00-3.64-3.64zM-8.4 174.35a4.65 4.65 0 01-4.6-4.65 4.64 4.64 0 014.64-4.64 4.65 4.65 0 014.65 4.64 4.65 4.65 0 01-4.69 4.65zm0-8.29a3.65 3.65 0 00-3.6 3.64 3.66 3.66 0 003.64 3.65 3.66 3.66 0 003.65-3.65 3.65 3.65 0 00-3.69-3.64z" transform="translate(62.13 -7.55)"/><path class="cls-4" d="M273.41 29.46h78.95v1h-78.95zm82.32 0h6.82v1h-6.82zm10.1 0h6.82v1h-6.82zm18.4 0h8.42v1h-8.42z"/><path class="cls-4" d="M387.93 25.76h1v8.42h-1zM67.37 185.65h8.42v1h-8.42z"/><path class="cls-4" d="M71.08 181.95h1v8.42h-1zM481.46 33.67h8.42v1h-8.42z"/><path class="cls-4" d="M485.17 29.96h1v8.42h-1zM84.61 77.69h70.84v1H84.61zm351.93 147.17h27.43v1h-27.43zM83.03 186.17h27.43v1H83.03zm387.32 38.69h11.02v1h-11.02zM388.04 52.28h70.84v1h-70.84z"/><path class="cls-9" d="M94.81 236.53l-8.8-15.25 8.8-15.25h17.61l8.8 15.25-8.8 15.25H94.81z"/><path class="cls-4" d="M43.71 258.31H25.52l-9.09-15.74 9.09-15.75h18.19l9.09 15.75zm-17.61-1h17l8.52-14.74-8.52-14.75h-17l-8.51 14.75z" transform="translate(62.13 -7.55)"/><path class="cls-9" d="M473.85 97.01l-5.18-8.97 5.18-8.96h10.35l5.18 8.96-5.18 8.97h-10.35z"/><path class="cls-4" d="M418.32 113.13h-10.93l-5.46-9.46 5.46-9.47h10.93l5.46 9.47zm-10.35-1h9.77l4.89-8.46-4.89-8.47H408l-4.89 8.47z" transform="translate(62.13 -7.55)"/><path class="cls-7" d="M457.46 203.41a21 21 0 11-20.95-20.95 21 21 0 0120.95 20.95z" transform="translate(62.13 -7.55)"/><path class="cls-4" d="M423.54 204.21A21.46 21.46 0 11445 182.76a21.48 21.48 0 01-21.46 21.45zm0-41.91A20.46 20.46 0 10444 182.76a20.48 20.48 0 00-20.46-20.46z" transform="translate(62.13 -7.55)"/><path class="cls-10" d="M389.32 31.94a9.75 9.75 0 11-9.75-9.75 9.75 9.75 0 019.75 9.75z" transform="translate(62.13 -7.55)"/><path class="cls-4" d="M375.19 37.38a10.25 10.25 0 1110.25-10.25 10.26 10.26 0 01-10.25 10.25zm0-19.5a9.25 9.25 0 109.25 9.25 9.26 9.26 0 00-9.25-9.25z" transform="translate(62.13 -7.55)"/><path class="cls-10" d="M29 136.05a9.76 9.76 0 11-9.76-9.76 9.76 9.76 0 019.76 9.76z" transform="translate(62.13 -7.55)"/><path class="cls-4" d="M14.82 141.49a10.25 10.25 0 1110.25-10.25 10.27 10.27 0 01-10.25 10.25zm0-19.5a9.25 9.25 0 109.25 9.25 9.27 9.27 0 00-9.25-9.24z" transform="translate(62.13 -7.55)"/><path class="cls-4" d="M0 343.76h570v2H0z"/></g></svg>