<svg xmlns="http://www.w3.org/2000/svg" viewBox="0 0 570 467.17"><defs><style>.cls-1{fill:#fff}.cls-2{fill:none;stroke:#fff;stroke-linecap:round;stroke-linejoin:round;stroke-width:2px}.cls-10,.cls-4{fill:#1b2c38}.cls-9{fill:#ffcb05}.cls-10{opacity:.1}</style></defs><g id="Layer_4" data-name="Layer 4"><path class="cls-1" d="M220.27 155.64h-40.54a1.2 1.2 0 110-2.39h40.54a48.08 48.08 0 10-17.77-92.76 1.2 1.2 0 01-1 0 1.15 1.15 0 01-.62-.76 74.9 74.9 0 00-147.13 15.8 1.17 1.17 0 01-.56 1 1.2 1.2 0 01-1.12.08A40.06 40.06 0 1036 153.25h92.8a1.2 1.2 0 110 2.39H36a42.42 42.42 0 1115.5-81.91A77.3 77.3 0 01202.87 57.8a50.5 50.5 0 1117.4 97.84zm117.79 265.68h187.07c21.07 0 38.22-16.6 38.22-37s-17.15-37-38.22-37a39 39 0 00-12.78 2.16c-7.15-24-29.89-40.59-55.78-40.59-30.63 0-55.73 22.77-57.9 52.14a32.59 32.59 0 00-11.29-2A32.11 32.11 0 00357 380a25.65 25.65 0 00-18.94-8.17 1.18 1.18 0 100 2.36 23.16 23.16 0 0118.47 9 1.23 1.23 0 001.21.45 1.21 1.21 0 00.95-.86c3.45-12.59 15.25-21.39 28.69-21.39a30.32 30.32 0 0111.92 2.43 1.24 1.24 0 001.14-.08 1.18 1.18 0 00.57-1c1.27-28.9 25.67-51.53 55.56-51.53 25.24 0 47.35 16.48 53.77 40.08a1.2 1.2 0 00.63.76 1.25 1.25 0 001 0 36.76 36.76 0 0113.16-2.45c19.73 0 35.77 15.54 35.77 34.63S544.86 419 525.13 419H338.06a23.31 23.31 0 01-20.88-12.78 1.24 1.24 0 00-1.63-.56 1.16 1.16 0 00-.57 1.57 25.74 25.74 0 0023.08 14.09z" transform="translate(6.65 -1.82)"/><path class="cls-2" d="M461.47 61.12a17.24 17.24 0 00-4-.46 17 17 0 00-16.38 12.6 10.9 10.9 0 00-4.05-.78 11 11 0 100 22h9m25.85-25.83a17 17 0 00-6.78-6.2m18.73 15.63a9.15 9.15 0 00-5.72-2 9.28 9.28 0 00-3.7.77 16.92 16.92 0 00-1.07-5.24m-15.91 22.91h20.68a9.22 9.22 0 009.22-9.22" transform="translate(6.65 -1.82)"/><path class="cls-2" d="M455.87 92.7h5.12"/></g><g id="ppc"><rect x="119.11" y="175.95" width="335.99" height="208.11" rx="1" fill="#636c78"/><path class="cls-4" d="M447.44 386.88h-334a2 2 0 01-2-2V178.77a2 2 0 012-2h334a2 2 0 012 2v206.11a2 2 0 01-2 2zm0-2zm-334-206.11v206.11h334V178.77z" transform="translate(6.65 -1.82)"/><path fill="#e8e9e1" d="M135.42 194.95h301.53v162.58H135.42z"/><path class="cls-1" d="M444.26 396.73H116.31a16.08 16.08 0 01-15.86-13.48L98.11 369h366.23l-2 12.39a18.29 18.29 0 01-18.08 15.34z" transform="translate(6.65 -1.82)"/><path class="cls-4" d="M444.26 397.73H116.31a17 17 0 01-16.85-14.31L96.93 368h368.59l-2.23 13.55a19.21 19.21 0 01-19.03 16.18zM99.29 370l2.14 13.08a15 15 0 0014.88 12.64h328a17.23 17.23 0 0017.06-14.49l1.79-11.23z" transform="translate(6.65 -1.82)"/><path class="cls-4" d="M263.14 376.93h49.07v2h-49.07z"/><path class="cls-1" d="M399.1 359.67H159.92V84.6a9.1 9.1 0 019.1-9.1H388a11.1 11.1 0 0111.1 11.1z" transform="translate(6.65 -1.82)"/><path d="M396.67 102.12H159.92V85.49a9.76 9.76 0 019.76-9.76h219.68a9.74 9.74 0 019.74 9.74V99.7a2.42 2.42 0 01-2.43 2.42z" transform="translate(6.65 -1.82)" fill="#fc3e59"/><path fill="#27c7cd" d="M180.56 116.1h110.48v103.99H180.56z"/><path class="cls-1" d="M181.3 89a3.07 3.07 0 11-3.07-3 3.08 3.08 0 013.07 3zm11.97 0a3.07 3.07 0 11-3.07-3 3.07 3.07 0 013.07 3zm11.98 0a3.07 3.07 0 11-3.08-3 3.08 3.08 0 013.08 3z" transform="translate(6.65 -1.82)"/><path d="M295.37 142.05h93.78v5.18h-93.78zm0 15.29h93.78v5.18h-93.78zm0 15.28h93.78v5.18h-93.78zm0 15.28h93.78v5.18h-93.78zm0 15.28h64.8v5.18h-64.8zm0-87.1h93.78v12.98h-93.78zM181.02 244.66h208.13v5.18H181.02zm19.63 17.68h168.36v5.18H200.65zm0 17.69h168.36v5.18H200.65zm0 17.68h168.36v5.18H200.65zm0 17.69h168.36v5.18H200.65zm0 17.68h84.18v5.18h-84.18z" fill="#d8d8d8"/><path class="cls-4" d="M400.1 359.67h-2V85.42a8.93 8.93 0 00-8.92-8.92H169.84a8.93 8.93 0 00-8.92 8.92v274.25h-2V85.42a10.93 10.93 0 0110.92-10.92h219.34a10.93 10.93 0 0110.92 10.92z" transform="translate(6.65 -1.82)"/><path class="cls-4" d="M169.54 99.3h236.21v2H169.54z"/><path class="cls-9" d="M258.7 174.44a27.6 27.6 0 11-27.59-27.59 27.6 27.6 0 0127.59 27.59z" transform="translate(6.65 -1.82)"/><path class="cls-4" d="M229.84 187v-2.23a13.9 13.9 0 01-7.14-3.51l2.84-3.45a12.36 12.36 0 004.3 2.66v-4.55a10.84 10.84 0 01-4.7-2.21 5.22 5.22 0 01-1.49-4 5.82 5.82 0 011.7-4.3 7.41 7.41 0 014.49-2v-1.49h3.24v1.55a14.18 14.18 0 016.07 2.53l-2.51 3.6a12 12 0 00-3.56-1.83v4.4a11.47 11.47 0 014.86 2.29 5.2 5.2 0 011.57 4.06 5.78 5.78 0 01-1.75 4.33 7.72 7.72 0 01-4.68 2V187zm0-19.38a1.71 1.71 0 00-1.31 1.68 2 2 0 001.31 1.86zm4.79 11.11a1.71 1.71 0 00-.33-1.07 3.13 3.13 0 00-1.22-.79v3.75a1.89 1.89 0 001.55-1.89z" transform="translate(6.65 -1.82)"/><path class="cls-4" transform="rotate(-2.3 189.642 -38.055)" d="M230.25 121.02h2v14.6h-2z"/><path class="cls-4" transform="rotate(-59.9 258.924 121.229)" d="M242.57 126.91h29.18v2h-29.18z"/><path class="cls-4" transform="rotate(-29.83 269.461 136.929)" d="M262.25 149.34h14.59v2h-14.59z"/><path class="cls-4" transform="rotate(-90 284.05 168.36)" d="M281.64 157.77h2v29.18h-2z"/><path class="cls-4" transform="rotate(-1.23 149.165 -95.297)" d="M230.37 208.63h2v14.59h-2z"/><path class="cls-4" transform="rotate(-59.42 207.24 209.367)" d="M190.94 215.11h29.18v2h-29.18z"/><path class="cls-4" transform="rotate(-30.71 193.7 180.546)" d="M186.7 192.58h13.99v2H186.7z"/><path class="cls-4" transform="rotate(-89.23 182.858 167.155)" d="M179.45 156.85h2v29.18h-2z"/><path class="cls-4" transform="rotate(-61.88 195.748 143.598)" d="M192.94 142.96h2v14.2h-2z"/><path class="cls-4" transform="rotate(-29.06 206.547 113.71)" d="M205.72 112.87h2v29.18h-2z"/><path class="cls-10" d="M273.06 202.01l23.19 27.65-9.65 8.09-23.18-27.65-6.61 18.28-18.62-58.17 54.02 28.48-19.15 3.32z"/><path class="cls-4" d="M275.71 198.83l25.52 25.52-8.9 8.91-25.52-25.52-4.98 18.78-23.64-56.31 56.31 23.64-18.79 4.98z"/><circle class="cls-10" cx="354.43" cy="232.88" r="32.21"/><circle class="cls-9" cx="349.35" cy="230.84" r="27.99" transform="rotate(-22.64 348.112 213.319)"/><path class="cls-4" d="M349.35 259.83a29 29 0 1129-29 29 29 0 01-29 29zm0-56a27 27 0 1027 27 27 27 0 00-27-26.98z" transform="translate(6.65 -1.82)"/><path class="cls-4" d="M348.06 243.58v-2.26a14.09 14.09 0 01-7.24-3.56l2.88-3.5a12.37 12.37 0 004.36 2.69v-4.61a10.94 10.94 0 01-4.76-2.24 5.27 5.27 0 01-1.52-4.06 5.91 5.91 0 011.73-4.36 7.61 7.61 0 014.55-2.06v-1.51h3.29v1.58a14.12 14.12 0 016.15 2.56l-2.5 3.66a11.89 11.89 0 00-3.62-1.86v4.46a11.56 11.56 0 014.93 2.32 5.3 5.3 0 011.6 4.11 5.91 5.91 0 01-1.78 4.4 7.92 7.92 0 01-4.75 2.07v2.17zm0-19.65a1.71 1.71 0 00-1.33 1.7 2.07 2.07 0 001.33 1.89zm4.86 11.26a1.68 1.68 0 00-.34-1.08 3 3 0 00-1.23-.81v3.81a1.92 1.92 0 001.57-1.92z" transform="translate(6.65 -1.82)"/><circle class="cls-10" cx="420.35" cy="153.97" r="39.05" transform="rotate(-49.44 421.714 145.825)"/><path class="cls-9" d="M453.76 167.77a33.93 33.93 0 11-12.51-46.33 33.94 33.94 0 0112.51 46.33z" transform="translate(6.65 -1.82)"/><path class="cls-4" d="M424.28 185.78a34.93 34.93 0 1130.35-17.52 35 35 0 01-30.35 17.52zm.11-67.85a32.93 32.93 0 1028.5 49.34 32.92 32.92 0 00-28.5-49.34z" transform="translate(6.65 -1.82)"/><path class="cls-4" d="M415.3 163.47l1.36-2.38a17.05 17.05 0 01-5.46-8.09l5.14-1.94a15.13 15.13 0 003 5.47l2.78-4.85a13.33 13.33 0 01-3.65-5.24 6.39 6.39 0 01.85-5.18 7.17 7.17 0 014.46-3.54 9.15 9.15 0 016 .59l.91-1.59 3.45 2-.95 1.66a17.33 17.33 0 014.92 6.42l-4.88 2.3a14.18 14.18 0 00-2.68-4.14l-2.69 4.69a14.1 14.1 0 013.78 5.42 6.35 6.35 0 01-.81 5.29 7.1 7.1 0 01-4.52 3.54 9.51 9.51 0 01-6.25-.69l-1.31 2.28zm11.87-20.66a2.09 2.09 0 00-2.43 1 2.46 2.46 0 00.26 2.78zm-1.7 14.78a2.12 2.12 0 00.3-1.35 3.76 3.76 0 00-.82-1.59l-2.3 4a2.34 2.34 0 002.82-1.06z" transform="translate(6.65 -1.82)"/><path class="cls-10" d="M346.92 141.34a20.83 20.83 0 11-29-5.13 20.84 20.84 0 0129 5.13z" transform="translate(6.65 -1.82)"/><path class="cls-9" d="M344.08 140.27a18.1 18.1 0 11-25.2-4.45 18.1 18.1 0 0125.2 4.45z" transform="translate(6.65 -1.82)"/><path class="cls-4" d="M329.28 169.74a19.1 19.1 0 1115.62-30 19.09 19.09 0 01-15.62 30zm-.07-36.2a17.1 17.1 0 00-14 26.91 17.1 17.1 0 1028-19.61 16.93 16.93 0 00-11-7 17.21 17.21 0 00-3-.3z" transform="translate(6.65 -1.82)"/><path class="cls-4" d="M333.29 157.87l-.84-1.2a9 9 0 01-5.15.8l.23-2.92a8 8 0 003.31-.19l-1.71-2.44a7.17 7.17 0 01-3.36.58 3.44 3.44 0 01-2.31-1.59 3.84 3.84 0 01-.7-2.95 4.89 4.89 0 011.65-2.78l-.56-.8 1.74-1.22.58.84a9.21 9.21 0 014.22-.93V146a7.65 7.65 0 00-2.61.36l1.65 2.36a7.56 7.56 0 013.48-.6 3.43 3.43 0 012.37 1.59 3.8 3.8 0 01.69 3 5.2 5.2 0 01-1.75 2.86l.8 1.15zM326 147.46a1.11 1.11 0 00-.08 1.39 1.33 1.33 0 001.41.51zm6.75 4.17a1.11 1.11 0 00-.59-.45 1.94 1.94 0 00-.95 0l1.41 2a1.24 1.24 0 00.14-1.55z" transform="translate(6.65 -1.82)"/><path class="cls-4" d="M139.23 119.72h7.99v2h-7.99zm-13.76 0h7.99v2h-7.99zm-75.47 0h69.7v2H50zm462.01 117.03H520v2h-7.99zm-13.77 0h7.99v2h-7.99zm-75.47 0h69.7v2h-69.7zM136.63 428.74h79.41v2h-79.41zM120.42 91.6h18.09v2h-18.09z"/><path class="cls-4" d="M128.47 83.55h2v18.09h-2zm-46.94 96.1h12.83v2H81.53z"/><path class="cls-4" d="M86.94 174.24h2v12.83h-2zm417.61 99.31h14.92v2h-14.92z"/><path class="cls-4" d="M511.01 267.09h2v14.92h-2zM480 185.87h19.08v2H480z"/><path class="cls-4" d="M488.54 177.33h2v19.08h-2zM226.97 458.71h14.92v2h-14.92z"/><path class="cls-4" d="M233.43 452.25h2v14.92h-2z"/><path class="cls-9" d="M75.54 269.44a12.81 12.81 0 11-7-16.72 12.82 12.82 0 017 16.72z" transform="translate(6.65 -1.82)"/><path class="cls-4" d="M50.94 260.07a13.52 13.52 0 1116.35 17.52 13.51 13.51 0 01-16.35-17.52zm24.17 8.51a12.1 12.1 0 00-14.65-15.68 12.1 12.1 0 006.46 23.33 12 12 0 007.3-5.7 12.2 12.2 0 00.89-1.95z" transform="translate(6.65 -1.82)"/><path class="cls-4" d="M60.93 269.73l.39-1a6.37 6.37 0 01-2.44-2.73l1.82-1a5.72 5.72 0 001.38 1.9l.8-1.95a5 5 0 01-1.62-1.78 2.37 2.37 0 01.06-2 2.74 2.74 0 011.49-1.55 3.49 3.49 0 012.29-.08l.26-.64 1.39.57-.27.67a6.54 6.54 0 012.16 2.16l-1.71 1.1a5.64 5.64 0 00-1.21-1.4l-.78 1.89a5.41 5.41 0 011.69 1.84 2.42 2.42 0 010 2 2.65 2.65 0 01-1.51 1.55 3.63 3.63 0 01-2.38.05l-.37.92zm3.42-8.32a.79.79 0 00-.86.49.94.94 0 00.23 1zm.1 5.62a.79.79 0 000-.52 1.36 1.36 0 00-.38-.55l-.67 1.61a.9.9 0 001.05-.57z" transform="translate(6.65 -1.82)"/></g></svg>