<svg id="Layer_2" data-name="Layer 2" xmlns="http://www.w3.org/2000/svg" viewBox="0 0 970 428.66"><defs><style>.cls-1{fill:#e8e9e1}.cls-4{fill:#1b2c38}.cls-6{fill:#95d133}.cls-7{fill:#27c7cd}</style></defs><path class="cls-1" d="M558.16 172.47l-.85-1c-1.31 1.13-2.62 2.3-3.9 3.48l.84 1c1.27-1.21 2.56-2.37 3.91-3.48zm8.03-6.56l-.79-1c-1.38 1.05-2.75 2.15-4.09 3.24l.78.95c1.33-1.1 2.69-2.19 4.1-3.19zm-29.63 28.92l-1-.82c-1.09 1.35-2.18 2.73-3.24 4.11l1 .77a48.84 48.84 0 013.24-4.06zm13.97-15.32l-.91-.93a183.79 183.79 0 00-3.69 3.7l.88.87c1.19-1.24 2.43-2.47 3.72-3.64zm-17.04 237.22c1.07 1.36 2.17 2.73 3.28 4.07l1-.87c-1.11-1.3-2.26-2.65-3.26-4zM543.33 187l-1-.88c-1.17 1.28-2.34 2.59-3.47 3.91l.95.81c1.13-1.34 2.29-2.65 3.52-3.84zm31.26-27.15l-.74-1.08-4.27 3 .73 1c1.39-1.01 2.85-2 4.28-2.92zM636 133.26l5.08-1.08-.24-1.28c-1.7.33-3.42.68-5.12 1l.28 1.27zm10.16-1.93l5.17-.78-.17-1.29c-1.72.22-3.46.47-5.17.75l.21 1.28zm10.33-1.33c1.67-.17 3.45-.32 5.17-.48l-.09-1.3c-1.74.13-3.49.27-5.21.45l.13 1.29zm-73.23 24.19l-.67-1.12c-1.43.89-3 1.81-4.43 2.74l.7 1.1c1.45-.91 2.93-1.8 4.4-2.72zm83.58-24.92c1.72-.07 3.46-.12 5.16-.18v-1.3c-1.73 0-3.49.07-5.22.14l.06 1.3zm-126.67 295.5c.58.65 1.17 1.29 1.76 1.94h1.78c-.85-.93-1.71-1.86-2.54-2.81zm85.77-288.98c1.66-.47 3.34-.88 5-1.38l-.32-1.26c-1.68.42-3.38.88-5 1.35l.36 1.25zm-38.19 15.84c1.5-.84 3-1.67 4.55-2.5l-.6-1.16c-1.53.8-3.08 1.64-4.59 2.48l.64 1.14zm9.17-4.79c1.54-.75 3.12-1.49 4.69-2.23l-.53-1.19c-1.58.71-3.17 1.45-4.73 2.21l.57 1.17zm19.08-7.93c1.62-.56 3.27-1.11 5-1.67l-.4-1.25q-2.55.8-5 1.65l.43 1.23zm-9.64 3.69c1.58-.69 3.2-1.31 4.8-2l-.46-1.21c-1.61.61-3.24 1.26-4.84 1.92l.5 1.21zm-98.2 101.57c.58-1.61 1.23-3.26 1.94-4.81l-1.21-.49c-.66 1.62-1.31 3.27-1.92 4.88l1.22.46zm-9.6 86.83l-1.3.18c.24 1.72.51 3.46.79 5.16l1.29-.21c-.29-1.67-.55-3.39-.78-5.13zm9.14 40.59c.66 1.61 1.32 3.23 2 4.82l1.22-.51c-.72-1.57-1.38-3.19-2-4.79zm-7.46-30.33l-1.28.26c.34 1.7.71 3.42 1.09 5.11l1.27-.29c-.38-1.67-.74-3.34-1.08-5.08zm1.05 10.48c.44 1.65.91 3.34 1.39 5l1.25-.33c-.48-1.65-.94-3.33-1.38-5zm10.8-117.2c.7-1.57 1.43-3.16 2.23-4.68l-1.17-.57c-.76 1.57-1.5 3.17-2.2 4.76l1.19.53zm-7.87 127.2c.53 1.65 1.1 3.31 1.68 4.95l1.23-.44c-.58-1.62-1.14-3.28-1.67-4.91zm21.26 41.55c-.94-1.45-1.87-2.92-2.76-4.39l-1.12.68c.9 1.48 1.79 3 2.79 4.42zm-3.84-187.21c.87-1.48 1.79-3 2.77-4.39l-1.1-.7c-.94 1.46-1.86 3-2.74 4.46l1.12.67zm-5.21 174.44c.82 1.57 1.67 3.07 2.52 4.57l1.13-.65c-.85-1.53-1.69-3-2.5-4.53zm.16-165.35c.8-1.55 1.63-3.09 2.51-4.55L518 220c-.84 1.51-1.67 3.06-2.47 4.62l1.15.6zm-4.79 156.01c.73 1.57 1.49 3.16 2.25 4.7l1.17-.58c-.76-1.53-1.51-3.1-2.23-4.67zm-14.87-70.81h-1.3c0 1.74.09 3.5.18 5.23l1.3-.05c-.11-1.71-.18-3.46-.18-5.18zm7.84-56.37c.51-1.65 1.05-3.32 1.67-4.92l-1.24-.43c-.56 1.66-1.11 3.34-1.62 5l1.24.39zM502 264c.41-1.67.85-3.36 1.36-5l-1.25-.35c-.47 1.67-.92 3.37-1.33 5.06l1.27.31zm25.34 144.33c.94 1.42 2 2.85 3 4.25l1.07-.78c-1-1.38-2-2.8-3-4.21zm2.89-205.25l-1.06-.76c-1 1.41-2 2.85-3 4.29l1 .68c1-1.39 1.99-2.85 3.06-4.21zm-33.36 102.04c0-1.73.05-3.48.11-5.19h-1.3c-.06 1.73-.12 3.49-.12 5.23h1.34zm.57 15.59l-1.3.1c.14 1.74.3 3.49.49 5.21l1.29-.14c-.18-1.71-.34-3.45-.48-5.17zm2.37-46.55c.35-1.7.66-3.42 1-5.05l-1.27-.27c-.34 1.68-.68 3.41-1 5.13l1.28.23zm-2.56 20.59c.11-1.73.25-3.47.44-5.14l-1.29-.12c-.17 1.72-.31 3.48-.42 5.21l1.3.09zm.98-10.33c.21-1.71.45-3.44.77-5.1l-1.29-.2c-.27 1.72-.51 3.46-.72 5.17l1.29.17zm353.54 22.15a176.76 176.76 0 01-47 120.14h1.77a178 178 0 0046.51-120.14c0-98.56-80.19-178.75-178.76-178.75v1.3c97.87 0 177.48 79.6 177.48 177.45z" transform="translate(0 .07)"/><path d="M674.31 416.85v-1.31a109 109 0 105.11-217.94h-5.11v-1.3a110.28 110.28 0 012.1 220.55z" transform="translate(0 .07)" fill="#eca182"/><path class="cls-1" d="M372.16 197.37c-1.74 0-3.51-.06-5.25-.18l.09-1.3c1.71.12 3.45.17 5.16.17zm-10.47-.72a76.56 76.56 0 01-5.17-.9l.27-1.28c1.68.36 3.39.66 5.08.89zm-10.27-2.16c-1.68-.48-3.36-1-5-1.61l.44-1.23c1.61.59 3.27 1.12 4.92 1.59zm-9.89-3.58c-1.6-.71-3.19-1.48-4.73-2.3l.61-1.15c1.52.81 3.08 1.57 4.65 2.26zm-9.29-4.91a75.39 75.39 0 01-4.36-2.93l.76-1c1.39 1 2.83 2 4.29 2.87zm-8.52-6.09a76.254 76.254 0 01-3.91-3.5l.9-.94c1.23 1.19 2.53 2.34 3.85 3.44zm-7.56-7.31a71.792 71.792 0 01-3.4-4l1-.81c1.06 1.34 2.19 2.67 3.34 3.94zm-6.52-8.23c-1-1.44-1.93-2.93-2.81-4.43l1.12-.66c.87 1.48 1.8 2.94 2.77 4.36zm-5.31-9c-.77-1.56-1.5-3.17-2.17-4.78l1.2-.5c.66 1.59 1.38 3.17 2.14 4.7zm-4-9.7c-.55-1.66-1.05-3.35-1.48-5l1.26-.32c.42 1.65.91 3.32 1.46 5zm-2.62-10.17c-.31-1.71-.57-3.45-.77-5.19l1.29-.15c.2 1.71.45 3.43.76 5.11zm-1.18-10.42c0-1.13-.08-2.27-.08-3.4v-1.86h1.3v1.83c0 1.11 0 2.24.07 3.34zm1.55-10.38l-1.3-.12c.16-1.73.39-3.49.67-5.21l1.28.21c-.3 1.65-.52 3.38-.68 5.08zm1.66-10.18l-1.26-.3c.4-1.7.86-3.4 1.38-5.06l1.24.38c-.54 1.6-.94 3.27-1.39 4.94zm3.07-9.86l-1.21-.47c.63-1.62 1.33-3.25 2.08-4.83l1.17.56c-.76 1.51-1.45 3.11-2.07 4.7zm4.41-9.33l-1.13-.64c.85-1.52 1.77-3 2.72-4.49l1.09.71c-1 1.39-1.87 2.88-2.74 4.38zm5.66-8.64l-1-.78c1-1.39 2.17-2.76 3.32-4.07l1 .85a40.77 40.77 0 00-3.35 4zm6.8-7.76l-.92-.93a76.69 76.69 0 013.85-3.57l.85 1a49.66 49.66 0 00-3.81 3.48zm7.8-6.76l-.79-1c1.4-1.05 2.85-2.06 4.3-3l.71 1.09a42.22 42.22 0 00-4.25 2.87zm8.65-5.62l-.64-1.13c1.52-.85 3.09-1.65 4.68-2.39l.55 1.18c-1.56.7-3.13 1.48-4.62 2.3zm9.33-4.36l-.5-1.28c1.63-.63 3.3-1.21 5-1.72l.38 1.25q-2.5.8-4.91 1.71zm9.86-3l-.32-1.28c1.7-.39 3.44-.73 5.16-1l.2 1.29a49.55 49.55 0 00-5.07.93zm10.19-1.62l-.11-1.3c1.73-.15 3.49-.25 5.24-.29v1.31a49 49 0 00-5.16.22zm6.65 149.8v-1.31a74.43 74.43 0 101.72-148.85h-1.72v-1.3a75.73 75.73 0 010 151.46zM492.51 134h-.35v-1.3h.33a9.87 9.87 0 001.33-.06l.13 1.29a13.88 13.88 0 01-1.44.07zm-2.16-.16a15.63 15.63 0 01-1.78-.37l.35-1.26a12.59 12.59 0 001.62.34zm5.41-.2l-.29-1.27a14.46 14.46 0 001.59-.46l.44 1.22a13.32 13.32 0 01-1.74.5zm-8.91-.76a14.46 14.46 0 01-1.63-.8l.64-1.13a13.62 13.62 0 001.49.72zm12.31-.46l-.59-1.17a13.62 13.62 0 001.43-.83l.73 1.08a15.35 15.35 0 01-1.57.91zm-15.47-1.33a14.1 14.1 0 01-1.39-1.17l.9-.94a11.69 11.69 0 001.27 1.06zm18.48-.69l-.85-1a12.81 12.81 0 001.18-1.15l1 .87a14.7 14.7 0 01-1.34 1.28zm-21.11-1.81a13.94 13.94 0 01-1.06-1.46l1.1-.7a14.57 14.57 0 001 1.34zm23.54-.87l-1.06-.75a15.7 15.7 0 00.87-1.41l1.15.61c-.29.53-.61 1-.95 1.55zm-25.44-2.18a14.49 14.49 0 01-.67-1.69l1.23-.41a14.56 14.56 0 00.62 1.54zm27.19-1l-1.21-.47c.19-.52.36-1 .5-1.58l1.26.32a15 15 0 01-.58 1.71zM478 122.11a13.65 13.65 0 01-.24-1.8l1.3-.09a12.77 12.77 0 00.22 1.63zm29.21-1.1l-1.29-.15a15.4 15.4 0 00.1-1.66h1.3a17.78 17.78 0 01-.18 1.79zm-1.2-2.17a13.12 13.12 0 00-.14-1.65l1.29-.19a15.6 15.6 0 01.16 1.81zm-27-.28l-1.31-.06a15.65 15.65 0 01.2-1.81l1.29.22a11.14 11.14 0 00-.18 1.63zm26.48-3A14.38 14.38 0 00505 114l1.2-.5a13.35 13.35 0 01.6 1.71zm-25.93-.27l-1.24-.37a13 13 0 01.63-1.71l1.19.53a11.88 11.88 0 00-.58 1.54zm24.66-2.77a13.72 13.72 0 00-.9-1.39l1-.78a12.85 12.85 0 011 1.52zm-23.32-.25l-1.12-.67a17 17 0 011-1.5l1 .8a15 15 0 00-.88 1.36zm21.35-2.4a13.06 13.06 0 00-1.22-1.13l.83-1a15.61 15.61 0 011.33 1.24zm-19.25-.21l-.92-.92a14.06 14.06 0 011.36-1.2l.8 1a16.36 16.36 0 00-1.24 1.11zm16.76-1.89a15.61 15.61 0 00-1.45-.79l.55-1.18a15.26 15.26 0 011.59.87zm-14.16-.15l-.67-1.11a16.4 16.4 0 011.61-.84l.53 1.19a13.55 13.55 0 00-1.47.75zm11.17-1.26a13.92 13.92 0 00-1.56-.45l.25-1.28a13.39 13.39 0 011.76.46zm-8.15-.08l-.38-1.25a18 18 0 011.76-.42l.21 1.3a14.09 14.09 0 00-1.59.36zm4.91-.55a15.32 15.32 0 00-1.66 0l-.06-1.3h1.81z" transform="translate(0 .07)"/><path class="cls-1" d="M28.14 100.14h69.11v1.3H28.14zm16.6-29.86h155.32v1.3H44.74zm56.66 29.86h7.43v1.3h-7.43zm588.66-35.26h69.11v1.3h-69.11zm53.77 15.1H846.8v1.3H743.83zm19.49-15.1h7.43v1.3h-7.43zm12.46 0h7.43v1.3h-7.43zM112.09 167.26h12.11v1.3h-12.11z"/><path class="cls-1" d="M117.49 161.86h1.3v12.11h-1.3zm789.08 34.27h13.33v1.3h-13.33z"/><path class="cls-1" d="M912.58 190.12h1.3v13.33h-1.3zm36.38 32.35h20.82v1.3h-20.82z"/><path class="cls-1" d="M958.72 212.71h1.3v20.82h-1.3zm-39.51 44.78h10.61v1.3h-10.61z"/><path class="cls-1" d="M923.86 252.83h1.3v10.61h-1.3zM50.55 131.26h14.89v1.3H50.55z"/><path class="cls-1" d="M57.34 124.46h1.3v14.89h-1.3zm74.74-20.87h17.86v1.3h-17.86z"/><path class="cls-1" d="M140.36 95.31h1.3v17.86h-1.3z"/><path class="cls-1" d="M251.58 94.34a1 1 0 01-.93-.64c-1.23-3.06-2.33-4.17-5.39-5.39a1 1 0 01-.58-1.29 1 1 0 01.58-.58c3.06-1.22 4.16-2.33 5.39-5.39a1 1 0 011.29-.58 1 1 0 01.58.58c1.22 3.06 2.33 4.17 5.39 5.39a1 1 0 01.58 1.29 1 1 0 01-.58.58c-3.06 1.22-4.17 2.33-5.39 5.39a1 1 0 01-.94.64zm-5.18-7a8.74 8.74 0 015.18 5.19 8.76 8.76 0 015.19-5.19 8.69 8.69 0 01-5.19-5.18 8.7 8.7 0 01-5.18 5.21zm43.29-28.74a1.12 1.12 0 01-1-.72c-1.7-4.24-3.23-5.77-7.47-7.46a1.14 1.14 0 01-.72-1.06 1.12 1.12 0 01.72-1c4.24-1.7 5.77-3.23 7.47-7.47a1.13 1.13 0 011.47-.63 1.09 1.09 0 01.63.63c1.7 4.24 3.23 5.77 7.47 7.47a1.12 1.12 0 01.72 1 1.14 1.14 0 01-.72 1.06c-4.24 1.69-5.77 3.22-7.47 7.46a1.12 1.12 0 01-1.1.72zM282 49.36c4.14 1.72 6 3.52 7.66 7.66 1.71-4.14 3.52-5.94 7.66-7.66-4.14-1.71-6-3.51-7.66-7.66-1.66 4.15-3.5 5.95-7.66 7.66zm-56.84-15.3a1.17 1.17 0 01-1.09-.74c-1.8-4.52-3.44-6.16-8-8a1.17 1.17 0 01-.74-1.09 1.15 1.15 0 01.74-1.08c4.53-1.81 6.17-3.45 8-8a1.18 1.18 0 011.09-.73 1.16 1.16 0 011.08.73c1.81 4.53 3.45 6.17 8 8a1.16 1.16 0 01.73 1.08 1.18 1.18 0 01-.73 1.09c-4.53 1.81-6.17 3.45-8 8a1.15 1.15 0 01-1.08.74zm-8.27-9.8c4.5 1.85 6.42 3.77 8.27 8.27 1.84-4.5 3.77-6.42 8.26-8.27-4.49-1.84-6.42-3.77-8.26-8.26-1.86 4.49-3.78 6.42-8.28 8.26zM36.36 290.34a6.22 6.22 0 116.22-6.22 6.21 6.21 0 01-6.22 6.22zm0-11.14a4.92 4.92 0 104.92 4.92 4.92 4.92 0 00-4.92-4.92zm24.44 11.14a6.22 6.22 0 116.2-6.22 6.21 6.21 0 01-6.2 6.22zm0-11.14a4.92 4.92 0 104.92 4.92 4.92 4.92 0 00-4.92-4.92zm24.44 11.14a6.22 6.22 0 116.22-6.22 6.21 6.21 0 01-6.22 6.22zm0-11.14a4.92 4.92 0 104.92 4.92 4.92 4.92 0 00-4.92-4.92zM903.63 168a6.23 6.23 0 116.22-6.24 6.25 6.25 0 01-6.22 6.24zm0-11.15a4.92 4.92 0 104.92 4.92 4.93 4.93 0 00-4.92-4.88zM928.07 168a6.23 6.23 0 116.22-6.24 6.25 6.25 0 01-6.22 6.24zm0-11.15a4.92 4.92 0 104.92 4.92 4.92 4.92 0 00-4.92-4.92zM952.51 168a6.23 6.23 0 116.22-6.24 6.25 6.25 0 01-6.22 6.24zm0-11.15a4.92 4.92 0 104.92 4.92 4.92 4.92 0 00-4.92-4.92z" transform="translate(0 .07)"/><path class="cls-1" d="M70.03 308.35h4.06v1.3h-4.06zm7.36 0h4.06v1.3h-4.06zm7.35 0h4.06v1.3h-4.06zm7.35 0h4.06v1.3h-4.06zm7.35 0h4.06v1.3h-4.06zm7.35 0h4.06v1.3h-4.06zm7.36 0h4.06v1.3h-4.06zm7.35 0h4.06v1.3h-4.06zm7.35 0h4.06v1.3h-4.06zm7.35 0h4.06v1.3h-4.06z"/><path class="cls-1" d="M496.21 78.91c-.88 0-1.77 0-2.65-.08l.09-1.3c.84 0 1.7.08 2.56.08zm-5.28-.35c-.87-.11-1.75-.26-2.61-.44l.26-1.27c.83.17 1.68.31 2.52.42zm-5.19-1c-.84-.23-1.69-.5-2.52-.79l.43-1.23c.8.28 1.62.54 2.44.76zm-5-1.74c-.8-.35-1.61-.72-2.4-1.12l.59-1.16c.76.38 1.55.75 2.32 1.08zm-4.74-2.4c-.75-.45-1.5-.93-2.23-1.44l.74-1.07a23.19 23.19 0 002.16 1.39zm-4.35-3a33.41 33.41 0 01-2-1.72l.88-1a25.53 25.53 0 002 1.66zm-3.91-3.57a26.05 26.05 0 01-1.77-2l1-.84c.55.64 1.12 1.29 1.71 1.9zm-3.41-4c-.52-.71-1-1.44-1.49-2.18L464 60c.45.72.94 1.43 1.44 2.11zm-2.83-4.46c-.42-.77-.82-1.57-1.18-2.37l1.18-.54c.36.77.74 1.54 1.14 2.29zm-2.21-4.8c-.31-.83-.6-1.67-.85-2.51l1.24-.38c.25.81.53 1.63.83 2.42zm-1.54-5.07c-.2-.85-.37-1.73-.51-2.59l1.28-.21c.14.84.31 1.68.5 2.51zm-.85-5.22c-.08-.87-.13-1.76-.16-2.64h1.31c0 .85.07 1.71.15 2.56zm1.16-5.24h-1.3a26.24 26.24 0 01.19-2.64l1.29.14c-.1.7-.1 1.56-.18 2.4zm.54-5.09l-1.29-.22c.15-.86.34-1.73.55-2.59l1.26.31a23.6 23.6 0 00-.52 2.44zm1.21-5l-1.24-.4c.27-.84.57-1.68.89-2.5l1.21.48c-.31.73-.6 1.54-.86 2.36zm1.88-4.77l-1.18-.56c.38-.8.79-1.59 1.22-2.35l1.13.63q-.61 1-1.17 2.22zm2.5-4.47l-1-.77c.48-.74 1-1.47 1.52-2.17l1 .78c-.52.68-1 1.39-1.47 2.1zm3.07-4.09l-1-.85c.57-.67 1.17-1.33 1.79-2l.93.91-1.72 1.88zm3.59-3.73l-.86-1c.66-.58 1.34-1.15 2-1.69l.79 1c-.62.59-1.27 1.14-1.91 1.69zm4-3.14l-.71-1.06a25.24 25.24 0 012.24-1.4l.65 1.13c-.7.47-1.43.88-2.13 1.35zm4.42-2.56L478.71 4c.79-.39 1.6-.76 2.41-1.09l.5 1.2c-.73.35-1.52.7-2.28 1.08zm4.73-2L483.6 2c.83-.28 1.69-.53 2.54-.75l.33 1.26c-.77.28-1.6.53-2.4.8zm5-1.3l-.23-1.28c.86-.16 1.74-.3 2.62-.41l.15 1.3c-.85.17-1.7.3-2.52.46zm5.07-.62L494 0c.72 0 1.46-.06 2.19-.06v1.37c-.71 0-1.42 0-2.12.05zm2.14 77.62v-1.3a38.16 38.16 0 001.24-76.31h-1.24V0a39.46 39.46 0 010 78.92z" transform="translate(0 .07)"/><path class="cls-1" d="M488.94 38.88h14.55v1.3h-14.55z"/><path class="cls-1" d="M495.56 32.26h1.3v14.55h-1.3zm97.1-8.58h4.06v1.3h-4.06zm7.35 0h4.06v1.3h-4.06zm7.35 0h4.06v1.3h-4.06zm7.36 0h4.06v1.3h-4.06zm7.35 0h4.06v1.3h-4.06zm7.35 0h4.06v1.3h-4.06zm7.35 0h4.06v1.3h-4.06zm7.35 0h4.06v1.3h-4.06zm7.36 0h4.06v1.3h-4.06zm7.35 0h4.06v1.3h-4.06z"/><path d="M251 274.6c-31.89-3.8-44.31-10-44.31-22 0-14.77 15-23.59 40.11-23.59 22.41 0 41.27 11.28 47.64 21.89l2.87 4.8 43.56-22.4-2.57-5.3c-15.25-31-47.3-47.48-92.81-47.48-45.82.35-92.06 22.38-92.06 70.81 0 54.89 46.85 67.86 92.74 73.31 41.37 4.45 46.15 17.43 46.15 26.8 0 25.43-34.59 27.4-45.19 27.4-27.79 0-49.12-11.79-57.08-31.54l-2.45-6.09-45.6 23.6 2.05 5.05c16 39.29 49.48 58.39 102.47 58.39 61.32 0 99.41-29.45 99.41-76.85-.03-57.22-45.62-70.73-94.93-76.8z" transform="translate(0 .07)" fill="#fc3e59"/><path class="cls-4" d="M297.72 256.43l-.79-1.54 42.8-22-2.21-4.5c-15.1-30.77-46.92-47-92-47v-1.78c45.82 0 78.18 16.6 93.59 48l3 6zm-46.81 19.03c-32.44-3.86-45.08-10.28-45.08-22.9 0-15.31 15.32-24.46 41-24.46v1.74c-24.58 0-39.25 8.49-39.25 22.72 0 11.51 12.21 17.44 43.55 21.17z" transform="translate(0 .07)"/><path fill="#ffcb05" d="M544.22 240.8v-51.49H366.61v236.95h177.61v-53.84H419.93v-38.68H539.8v-51.59H419.93l-.01-41.5 124.3.15z"/><path class="cls-6" d="M760.8 217c-21.6-21.84-51.2-33.38-85.57-33.38-82.72 0-120.39 63.88-120.39 123.25 0 60.08 37.22 120.7 120.39 120.7 82 0 119.4-60.75 120.07-121 .38-34.33-12.2-66.99-34.5-89.57zm-132.91 35c11.85-12.16 27.78-18.33 47.34-18.33 19.39 0 35.16 6 46.86 17.94 13 13.27 20.32 33.48 20 55.44-.59 33.89-18.45 70.09-66.81 70.09-60.61 0-66.71-53.44-67.13-69.82-.6-21.67 6.61-41.83 19.74-55.29z" transform="translate(0 .07)"/><path class="cls-4" d="M675.63 400v-1.74c1.16 0 2.3 0 3.44-.06l.06 1.74c-1.13.06-2.32.06-3.5.06zm-3.49 0c-1.18 0-2.34-.07-3.5-.13l.09-1.73c1.14.06 2.29.1 3.45.13zm10.48-.18l-.11-1.74c1.16-.07 2.31-.15 3.44-.26l.16 1.73-3.49.23zm-17.46-.22c-1.17-.09-2.33-.21-3.48-.33l.2-1.73q1.7.19 3.42.33zm24.44-.46l-.22-1.72c1.15-.14 2.29-.3 3.41-.48l.27 1.72c-1.15.22-2.31.34-3.47.48zm-31.44-.32c-1.16-.16-2.31-.35-3.45-.55l.3-1.71c1.12.2 2.25.38 3.4.55zm38.3-.76l-.33-1.71c1.13-.21 2.26-.45 3.37-.7l.38 1.69c-1.08.26-2.23.54-3.38.72zm-45.19-.46c-1.14-.24-2.29-.51-3.41-.79l.42-1.68c1.1.27 2.23.53 3.35.77zm52-1.1l-.44-1.68c1.09-.29 2.2-.61 3.3-1l.51 1.66c-1.07.35-2.2.67-3.32 1zm-58.8-.6c-1.11-.32-2.24-.67-3.35-1l.55-1.64c1.09.36 2.19.7 3.28 1zm65.5-1.46l-.58-1.64c1.07-.38 2.16-.78 3.23-1.2l.63 1.61c-1 .43-2.09.85-3.23 1.23zm-72.15-.74c-1.09-.41-2.19-.84-3.26-1.29l.67-1.6c1 .44 2.13.87 3.2 1.27zm78.72-1.82l-.71-1.59c1-.46 2.09-.95 3.11-1.45l.77 1.55zm-85.13-.88c-1-.49-2.1-1-3.15-1.55l.8-1.55c1 .54 2.06 1.05 3.08 1.52zm91.41-2.24l-.83-1.52q1.5-.82 3-1.71l.89 1.48c-1 .59-2 1.18-3.06 1.73zm-97.63-1c-1-.58-2-1.19-3-1.81l.92-1.47c1 .61 1.95 1.21 2.94 1.78zm103.64-2.62l-1-1.45c.94-.63 1.89-1.29 2.81-2l1 1.4c-.9.71-1.84 1.38-2.81 2zM619.26 384c-1-.66-1.9-1.35-2.83-2.06l1.05-1.38c.91.69 1.84 1.37 2.77 2zm115.23-3l-1.08-1.35c.89-.71 1.78-1.45 2.64-2.2l1.14 1.31c-.88.76-1.79 1.52-2.7 2.24zm-120.8-1.25c-.9-.75-1.79-1.52-2.65-2.31l1.17-1.28c.84.77 1.71 1.53 2.59 2.26zm126.09-3.35l-1.19-1.26c.83-.8 1.65-1.61 2.44-2.42l1.25 1.2c-.8.83-1.64 1.66-2.5 2.48zM608.5 375c-.82-.81-1.64-1.66-2.43-2.52l1.27-1.18c.78.84 1.58 1.67 2.39 2.47zm136.16-3.68l-1.3-1.15c.76-.86 1.51-1.74 2.23-2.62l1.35 1.09c-.78.91-1.5 1.81-2.28 2.68zm-140.91-1.45c-.75-.89-1.49-1.8-2.21-2.72l1.38-1.07c.69.9 1.42 1.8 2.15 2.67zm145.35-4l-1.39-1c.68-.92 1.35-1.86 2-2.8l1.43 1c-.66.91-1.34 1.87-2 2.8zm-149.64-1.55c-.68-.95-1.34-1.92-2-2.89l1.45-1c.62 1 1.27 1.91 1.93 2.83zm153.61-4.23l-1.47-.93c.6-1 1.19-1.94 1.77-2.94l1.5.86c-.58 1.06-1.19 2.07-1.8 3.05zm-157.44-1.64c-.59-1-1.17-2-1.73-3l1.53-.83c.55 1 1.12 2 1.7 3zm160.93-4.44l-1.54-.81c.53-1 1-2 1.54-3.07l1.6.74c-.54 1.06-1.06 2.12-1.6 3.14zm-164.27-1.72c-.51-1-1-2.1-1.49-3.17l1.58-.71c.47 1 1 2.1 1.47 3.12zm167.29-4.6L758 347c.45-1 .89-2.11 1.31-3.18l1.61.64c-.42 1.08-.87 2.17-1.33 3.23zm-170.15-1.82c-.44-1.08-.86-2.19-1.26-3.28l1.64-.59c.39 1.07.8 2.16 1.23 3.22zm172.73-4.7l-1.64-.57c.38-1.07.74-2.17 1.08-3.27l1.66.52c-.38 1.15-.75 2.28-1.1 3.36zm-175.09-1.87c-.36-1.11-.7-2.24-1-3.35l1.67-.48c.32 1.1.65 2.21 1 3.3zm177.18-4.81l-1.67-.46c.3-1.11.59-2.23.85-3.33l1.69.41c-.3 1.12-.59 2.26-.9 3.38zm-179.09-1.89a99.63 99.63 0 01-.79-3.42l1.7-.36c.24 1.12.5 2.25.77 3.36zm180.73-4.87l-1.7-.35c.23-1.12.44-2.25.64-3.38l1.71.29c-.23 1.15-.45 2.3-.68 3.44zm-182.18-2c-.21-1.15-.39-2.3-.56-3.46l1.72-.25c.17 1.14.35 2.28.55 3.41zm183.37-4.91l-1.72-.24q.24-1.69.42-3.42l1.73.19c-.16 1.17-.3 2.33-.46 3.48zm-184.37-2q-.19-1.74-.33-3.48l1.73-.14c.09 1.15.2 2.29.33 3.43zm185.09-4.91l-1.73-.13c.09-1.15.16-2.29.21-3.44l1.73.08c-.01 1.13-.12 2.29-.21 3.49zm-185.66-2c-.06-1.16-.1-2.33-.11-3.5h1.73c0 1.15.06 2.29.11 3.44zm186-5h-1.74v-3.44h1.74v3.44zm-184.35-2h-1.74c0-1.16.06-2.33.11-3.5l1.74.09c-.1 1.06-.13 2.2-.15 3.35zM766.3 300c-.06-1.14-.14-2.29-.23-3.44l1.73-.14c.1 1.16.18 2.34.24 3.49zm-182.16-2l-1.73-.14c.09-1.17.21-2.33.34-3.49l1.72.19a33.28 33.28 0 00-.37 3.38zm181.58-4.87c-.14-1.13-.29-2.27-.46-3.41l1.71-.26c.18 1.15.34 2.32.47 3.47zm-180.8-2l-1.72-.25c.17-1.16.36-2.31.56-3.46l1.71.3c-.24 1.09-.43 2.22-.59 3.36zm179.76-4.82a95.76 95.76 0 00-.69-3.37l1.69-.38c.26 1.14.49 2.29.71 3.43zm-178.54-2l-1.7-.36c.24-1.15.5-2.29.79-3.42l1.68.42c-.32 1.09-.57 2.21-.81 3.34zm177-4.75c-.29-1.12-.6-2.24-.92-3.32l1.66-.5c.33 1.1.64 2.24.94 3.38zm-175.38-2l-1.68-.48c.32-1.11.66-2.24 1-3.35l1.65.53c-.33 1.15-.67 2.26-.97 3.36zm173.4-4.71c-.37-1.08-.75-2.17-1.16-3.24l1.63-.61c.41 1.09.8 2.2 1.17 3.3zM589.86 271l-1.64-.59c.4-1.1.82-2.21 1.24-3.28l1.62.64c-.42 1.14-.83 2.23-1.22 3.29zm168.9-4.55c-.44-1.05-.91-2.12-1.39-3.16l1.58-.72c.49 1.06 1 2.14 1.41 3.21zm-166.35-1.85l-1.59-.7c.47-1.08 1-2.15 1.47-3.18l1.56.75c-.49 1.08-.98 2.13-1.44 3.19zm163.47-4.41c-.53-1-1.07-2-1.61-3l1.51-.84c.56 1 1.11 2 1.65 3.1zm-160.48-1.73l-1.53-.81c.55-1 1.12-2.06 1.7-3.07l1.5.87c-.57.99-1.13 2-1.67 3.01zm157.14-4.23c-.59-1-1.21-2-1.84-2.91l1.45-1c.64 1 1.27 2 1.88 3zm-153.69-1.72l-1.47-.93c.62-1 1.27-2 1.94-2.93l1.43 1c-.65.93-1.29 1.9-1.9 2.86zm149.91-4c-.68-.94-1.37-1.87-2.06-2.76l1.37-1.07c.7.91 1.41 1.86 2.1 2.82zm-146-1.66l-1.39-1c.7-.94 1.42-1.87 2.16-2.78l1.35 1.1c-.72.83-1.44 1.74-2.13 2.66zm141.78-3.77c-.74-.87-1.5-1.74-2.27-2.58l1.27-1.17c.79.85 1.57 1.74 2.33 2.63zm-137.44-1.57l-1.3-1.15c.78-.88 1.58-1.75 2.38-2.59l1.25 1.21c-.79.79-1.57 1.64-2.34 2.51zm133.06-3.2c-.81-.81-1.64-1.61-2.47-2.39l1.18-1.27c.85.79 1.7 1.61 2.52 2.44zm-128.34-1.78l-1.2-1.26c.84-.8 1.7-1.6 2.58-2.37l1.15 1.3c-.83.76-1.68 1.54-2.5 2.33zm123.3-2.9c-.87-.74-1.76-1.47-2.66-2.17l1.08-1.37c.91.71 1.82 1.46 2.71 2.22zM617 232l-1.09-1.35c.91-.74 1.84-1.46 2.78-2.15l1 1.39c-.86.68-1.77 1.39-2.66 2.11zm112.75-2.6c-.93-.66-1.88-1.32-2.84-1.94l1-1.46c1 .64 1.94 1.31 2.89 2zm-107.2-1.48l-1-1.44c1-.65 2-1.29 3-1.9l.91 1.48c-1.02.57-1.99 1.2-2.94 1.85zM724 225.63c-1-.59-2-1.16-3-1.7l.83-1.53q1.5.84 3 1.74zm-95.64-1.32l-.85-1.51c1-.58 2.07-1.13 3.1-1.65l.78 1.55c-1 .5-2 1-3 1.6zm89.6-2c-1-.49-2.06-1-3.11-1.45l.7-1.59c1.08.48 2.14 1 3.18 1.48zm-83.47-1.13l-.72-1.59c1.07-.48 2.15-1 3.22-1.38l.65 1.61c-1 .45-2.11.91-3.15 1.39zm77.19-1.64c-1.06-.42-2.14-.82-3.22-1.2l.57-1.64c1.1.39 2.21.8 3.29 1.22zm-70.83-.95l-.58-1.63a80.5 80.5 0 013.31-1.12l.53 1.65c-1.09.42-2.18.75-3.26 1.13zm64.35-1.32c-1.09-.34-2.2-.66-3.31-1l.45-1.67c1.13.3 2.26.62 3.37 1zm-57.79-.75l-.47-1.68c1.12-.31 2.26-.6 3.4-.86l.4 1.69c-1.12.29-2.24.57-3.33.88zm51.14-1a118.1 118.1 0 00-3.37-.71l.33-1.7c1.14.22 2.3.46 3.43.72zm-44.4-.55l-.34-1.71c1.14-.22 2.29-.43 3.45-.62l.27 1.72c-1.17.18-2.31.39-3.37.64zm37.69-.74a77.61 77.61 0 00-3.41-.47l.21-1.73c1.15.14 2.31.3 3.47.48zm-30.9-.37l-.22-1.72q1.71-.22 3.48-.39l.16 1.73c-1.21.11-2.34.24-3.47.43zm24.06-.46c-1.13-.1-2.28-.18-3.43-.25l.09-1.73c1.18.06 2.34.15 3.5.25zm-17.21-.19l-.11-1.73c1.15-.08 2.32-.13 3.5-.17V213c-1.16 0-2.3.1-3.44.17zm10.33-.2h-3.44v-1.74h3.41z" transform="translate(0 .07)"/><path class="cls-4" d="M543.28 372.41h1.74v53.85h-1.74z"/><path class="cls-4" d="M0 425.19h970v3.47H0z"/><path class="cls-4" d="M675.47 378.08a72.12 72.12 0 1171.58-81l-1.72.21a70.39 70.39 0 10-.12 18.2l1.72.24a72.33 72.33 0 01-71.46 62.35z" transform="translate(0 .07)"/><path class="cls-4" d="M675.47 358.28A52.32 52.32 0 11727 297.06l-1.71.29a50.57 50.57 0 10-.16 18.12l1.7.32a52.33 52.33 0 01-51.36 42.49z" transform="translate(0 .07)"/><path class="cls-4" d="M675.47 338.75A32.79 32.79 0 11707 297l-1.67.47a31 31 0 10-.27 17.91l1.65.52a32.66 32.66 0 01-31.24 22.85z" transform="translate(0 .07)"/><path class="cls-6" d="M688.84 300.32a14.51 14.51 0 10.26 10.68z" transform="translate(0 .07)"/><path class="cls-4" d="M675.47 321.34A15.38 15.38 0 11689.64 300l-1.6.67a13.65 13.65 0 10.24 10l1.64.6a15.43 15.43 0 01-14.45 10.07z" transform="translate(0 .07)"/><path class="cls-4" d="M674.32 305.77h105.2v1.74h-105.2z"/><path class="cls-4" transform="rotate(-45 752.97 301.92)" d="M746.27 301.02h13.25v1.74h-13.25z"/><path class="cls-4" transform="rotate(-45 762.33 301.922)" d="M755.62 301.02h13.25v1.74h-13.25z"/><path class="cls-4" transform="rotate(-45 771.696 301.913)" d="M764.99 301.01h13.25v1.74h-13.25z"/><path class="cls-4" transform="rotate(-45 771.721 311.003)" d="M770.77 304.35h1.74v13.25h-1.74z"/><path class="cls-4" transform="rotate(-45 762.341 310.978)" d="M761.38 304.31h1.74v13.25h-1.74z"/><path class="cls-4" transform="rotate(-45 752.963 310.982)" d="M752.01 304.32h1.74v13.25h-1.74z"/><path class="cls-4" d="M723.75 257l-1.23-1.23.61-.61 1.23 1.22zm1.23-1.23l-1.23-1.23.61-.61 1.23 1.23zm1.18-1.23l-1.22-1.23.61-.61 1.23 1.23zm1.23-1.23l-1.22-1.22.61-.62 1.23 1.23zm1.23-1.22l-1.23-1.23.62-.62 1.23 1.23zm1.23-1.23l-1.23-1.23.61-.61 1.23 1.22zm1.23-1.23l-1.23-1.23.61-.61 1.23 1.23zm1.22-1.23l-1.14-1.22.61-.62 1.23 1.23zm1.23-1.22l-1.19-1.24.62-.62 1.23 1.23zm1.23-1.23l-1.23-1.23.62-.61 1.22 1.22zm1.23-1.23l-1.23-1.23.61-.61 1.23 1.23zm1.23-1.23l-1.22-1.26.61-.61 1.23 1.23zm1.22-1.23l-1.22-1.26.61-.62 1.23 1.23zM613.34 372l-1.18-1.23.61-.61 1.23 1.23zm1.22-1.23l-1.22-1.22.61-.62 1.23 1.23zm1.23-1.22l-1.23-1.23.62-.61 1.23 1.22zm1.23-1.23l-1.23-1.23.62-.61 1.22 1.22zm1.23-1.23l-1.25-1.18.61-.61 1.23 1.23zm1.23-1.23l-1.23-1.22.61-.62 1.23 1.23zm1.22-1.22l-1.22-1.23.61-.62 1.23 1.23zm1.23-1.23l-1.23-1.23.62-.61 1.22 1.22zm1.23-1.23l-1.23-1.27.61-.61 1.23 1.23zm1.23-1.23l-1.23-1.23.61-.61 1.23 1.23zm1.22-1.23l-1.22-1.22.61-.62 1.23 1.23zm1.23-1.22l-1.23-1.23.62-.62 1.23 1.26zm1.23-1.23l-1.23-1.27.1-.1 1.23 1.23zm-.91-100.36l-.62-.61 1.23-1.23.61.61zm-1.23-1.23l-.61-.61 1.22-1.23.62.62zm-1.23-1.22l-.61-.62 1.23-1.23.61.62zm-1.23-1.23l-.61-.62 1.23-1.22.61.61zm-1.22-1.23l-.62-.61 1.23-1.23.61.61zm-1.25-1.23l-.62-.61 1.23-1.23.61.61zm-1.23-1.23l-.63-.63 1.22-1.23.62.62zm-1.23-1.22l-.61-.62 1.23-1.23.61.62zm-1.23-1.23l-.61-.62 1.23-1.22.61.61zm-1.17-1.18l-.62-.61 1.23-1.23.61.61zm-1.23-1.23l-.62-.61 1.23-1.23.62.61zm-1.23-1.23l-.61-.61 1.22-1.23.62.62zm-1.23-1.22l-.61-.62 1.23-1.23.61.62zm-1.29-1.23l-.61-.62 1.23-1.22.61.61zm-1.22-1.23l-.45-.45 1.22-1.23.45.45zM737.61 372l-.62-.61 1.23-1.23.62.61zm-1.23-1.23l-.61-.61 1.22-1.23.62.62zm-1.22-1.22l-.61-.62 1.23-1.22.61.61zm-1.23-1.23l-.61-.62 1.23-1.22.61.61zm-1.22-1.23l-.62-.61 1.23-1.23.61.61zm-1.24-1.18l-.62-.61 1.23-1.23.62.62zm-1.23-1.22l-.61-.62 1.22-1.23.62.62zm-1.24-1.23l-.61-.62 1.23-1.22.61.61zm-1.23-1.23l-.61-.61 1.23-1.23.61.61zm-1.22-1.32l-.62-.61 1.22-1.19.61.61zm-1.23-1.23l-.62-.61 1.23-1.23.62.62zm-1.23-1.22l-.61-.62 1.22-1.23.62.62zm-1.23-1.23l-.35-.35 1.23-1.23.35.35z" transform="translate(0 .07)"/><path class="cls-4" d="M788.28 346.93h-1.74v-18.67h110.93V330H788.28v16.93z"/><circle class="cls-4" cx="868.24" cy="338.31" r="2.38"/><path class="cls-4" d="M868.24 341.06a2.82 2.82 0 112.81-2.83 2.83 2.83 0 01-2.81 2.83zm0-4.77a1.95 1.95 0 102 1.95 2 2 0 00-2-1.95zm10.34 1.95a2.39 2.39 0 11-2.45-2.33 2.38 2.38 0 012.45 2.33z" transform="translate(0 .07)"/><path class="cls-4" d="M876.16 341.06a2.82 2.82 0 112.82-2.82 2.82 2.82 0 01-2.82 2.82zm0-4.77a2 2 0 102 1.95 2 2 0 00-2-1.95zm10.37 1.95a2.38 2.38 0 11-2.43-2.33h.06a2.37 2.37 0 012.37 2.33z" transform="translate(0 .07)"/><path class="cls-4" d="M884.16 341.06a2.82 2.82 0 112.82-2.82 2.82 2.82 0 01-2.82 2.82zm0-4.77a2 2 0 102 1.95 2 2 0 00-2-1.95z" transform="translate(0 .07)"/><path class="cls-4" transform="rotate(-89.4 841.052 387.331)" d="M837.58 386.27h7.91v1.74h-7.91z"/><path class="cls-4" transform="rotate(-44.13 869.63 398.302)" d="M865.88 397.4h7.33v1.74h-7.33z"/><path class="cls-4" transform="rotate(-45.67 871.098 396.369)" d="M870.15 391.29h1.74v10.09h-1.74z"/><path class="cls-4" transform="rotate(-44.37 812.94 396.372)" d="M807.81 395.47h10.09v1.74h-10.09z"/><path class="cls-4" transform="rotate(-45.84 814.813 398.29)" d="M813.86 394.59h1.74v7.32h-1.74z"/><path class="cls-7" d="M841.31 390.42zm.69.04a36.13 36.13 0 00-35.45 36.1h70.91a36.13 36.13 0 00-35.46-36.1z" transform="translate(0 .07)"/><path class="cls-4" d="M878.31 426.56h-1.73a35.31 35.31 0 00-35.27-35.27h-1.24v-1.73h1.24a37 37 0 0137 37z" transform="translate(0 .07)"/><path class="cls-4" d="M807.4 426.56h-1.73a37 37 0 0137-37h1.23v1.73h-1.23a35.32 35.32 0 00-35.27 35.27zm35.48-29.9a1.63 1.63 0 11-1.63-1.63 1.63 1.63 0 011.62 1.62z" transform="translate(0 .07)"/><path class="cls-4" d="M841.25 398.72a2.06 2.06 0 112.06-2.06 2.06 2.06 0 01-2.06 2.06zm0-3.25a1.19 1.19 0 101.2 1.19 1.19 1.19 0 00-1.2-1.19zm16.36 5.97a1.63 1.63 0 11-.61-2.22 1.62 1.62 0 01.61 2.21z" transform="translate(0 .07)"/><path class="cls-4" d="M856.16 402.69a2 2 0 01-1-.28 2 2 0 01-1-1.24 2.06 2.06 0 112.53 1.45 2.33 2.33 0 01-.53.07zm0-3.25h-.31a1.13 1.13 0 00-.72.56 1.19 1.19 0 002.06 1.19 1.21 1.21 0 00.12-.91 1.16 1.16 0 00-.56-.72 1.1 1.1 0 00-.59-.12zM868 412.91a1.62 1.62 0 11.59-2.22 1.61 1.61 0 01-.59 2.22z" transform="translate(0 .07)"/><path class="cls-4" d="M867.16 413.6a2.5 2.5 0 01-.54-.07 2.15 2.15 0 01-1.25-1 2 2 0 01.65-2.75l.1-.06a2.06 2.06 0 012.81.74 2.07 2.07 0 01-.74 2.82 2.18 2.18 0 01-1.03.32zm0-3.25a1.11 1.11 0 00-.59.16 1.13 1.13 0 00-.56.72 1.19 1.19 0 001.75 1.34 1.2 1.2 0 00.55-.73 1.18 1.18 0 00-.83-1.45 1.1 1.1 0 00-.32-.04zm2.43 16.11a1.63 1.63 0 013.25 0z" transform="translate(0 .07)"/><path class="cls-4" d="M869.16 426.91v-.44a2.07 2.07 0 012.06-2.06 2.06 2.06 0 012.06 2.06v.44zm2.06-1.63a1.19 1.19 0 00-1.11.76h2.22a1.19 1.19 0 00-1.12-.77zm-59.13 1.18a1.63 1.63 0 013.25 0z" transform="translate(0 .07)"/><path class="cls-4" d="M811.66 426.91v-.44a2.07 2.07 0 012-2.06 2 2 0 011.45.6 2.06 2.06 0 01.61 1.46v.44zm2.06-1.63a1.19 1.19 0 00-.85.35 1.36 1.36 0 00-.26.41h2.22a1.09 1.09 0 00-.27-.4 1.17 1.17 0 00-.84-.37zm2.38-14.89a1.63 1.63 0 11-2.22.61 1.63 1.63 0 012.22-.61z" transform="translate(0 .07)"/><path class="cls-4" d="M815.29 413.91a2.06 2.06 0 110-4.12 2.1 2.1 0 011 .27 2.06 2.06 0 01-1 3.85zm0-3.25a1.17 1.17 0 00-1 .6 1.19 1.19 0 00.45 1.62 1.17 1.17 0 001.61-.43 1.19 1.19 0 00-.43-1.63 1.25 1.25 0 00-.62-.19zM827.55 400a1.63 1.63 0 11-2.23-.58 1.62 1.62 0 012.23.58z" transform="translate(0 .07)"/><path class="cls-4" d="M826.16 402.85a1.88 1.88 0 01-.53-.07 2.06 2.06 0 011-4 2 2 0 011.25 1 2.06 2.06 0 01-1.77 3.1zm0-3.25a1.15 1.15 0 00-.6.16 1.19 1.19 0 00.3 2.18 1.21 1.21 0 001.46-.85 1.18 1.18 0 00-.13-.9 1.2 1.2 0 00-.72-.55 1.1 1.1 0 00-.31-.04z" transform="translate(0 .07)"/><path class="cls-4" d="M835.46 381.01h12.09v1.74h-12.09z"/><path class="cls-4" d="M845.82 426.46h-1.73a2.84 2.84 0 00-5.67 0h-1.73a4.57 4.57 0 119.13-.43 3.08 3.08 0 010 .43z" transform="translate(0 .07)"/><path class="cls-4" d="M844.96 424.06h18.14v1.74h-18.14zm-58.04-57.18h1.74v60.04h-1.74zm-1.18-20.82h113.33v1.74H785.74zm-23.49 12.87h77.38v1.74h-77.38zm35.81 10.46h41.57v1.74h-41.57z"/><path class="cls-4" d="M896.95 327.23h1.74v99.69h-1.74z"/><path class="cls-4" d="M186.62 151.42h-25.89a15.89 15.89 0 01-15.87-15.87v-2.37a15.89 15.89 0 0115.87-15.87h25.89a15.87 15.87 0 016.26 1.29l-.69 1.6a13.86 13.86 0 00-5.57-1.15h-25.89a14.16 14.16 0 00-14.14 14.13v2.37a14.16 14.16 0 0014.14 14.13h25.89a14.07 14.07 0 006.72-1.71l.83 1.53a15.81 15.81 0 01-7.55 1.92zm0-9.63h-25.89a6.33 6.33 0 01-6.25-6.24v-2.37a6.33 6.33 0 016.25-6.24h25.89v1.73h-25.89a4.58 4.58 0 00-4.51 4.51v2.37a4.58 4.58 0 004.51 4.51h25.89z" transform="translate(0 .07)"/><path class="cls-4" d="M189.39 140.37h-7.89a4.59 4.59 0 01-4.59-4.58v-2.88a4.59 4.59 0 014.59-4.58h7.89v1.73h-7.89a2.87 2.87 0 00-2.85 2.85v2.85a2.87 2.87 0 002.85 2.85h7.89zm55.77 11.05H219.3a15.81 15.81 0 01-7.55-1.92l.83-1.53a14.07 14.07 0 006.72 1.71h25.86a14.16 14.16 0 0014.14-14.13v-2.37a14.16 14.16 0 00-14.14-14.13H219.3a13.86 13.86 0 00-5.57 1.15l-.69-1.6a15.87 15.87 0 016.26-1.29h25.86A15.89 15.89 0 01261 133.18v2.37a15.89 15.89 0 01-15.84 15.87zm0-9.63H219.3v-1.73h25.86a4.58 4.58 0 004.51-4.51v-2.37a4.58 4.58 0 00-4.51-4.51H219.3v-1.76h25.86a6.33 6.33 0 016.25 6.24v2.37a6.33 6.33 0 01-6.25 6.27z" transform="translate(0 .07)"/><path class="cls-4" d="M225.81 140.37h-7.89v-1.73h7.89a2.85 2.85 0 002.84-2.85v-2.88a2.85 2.85 0 00-2.84-2.85h-7.89v-1.73h7.89a4.58 4.58 0 014.58 4.58v2.85a4.58 4.58 0 01-4.55 4.61z" transform="translate(0 .07)"/><path class="cls-7" d="M218.57 134a15.17 15.17 0 11-15.17-15.17A15.17 15.17 0 01218.57 134z" transform="translate(0 .07)"/><path class="cls-4" d="M203.4 150a16 16 0 1116-16 16 16 0 01-16 16zm0-30.33A14.3 14.3 0 10217.7 134a14.31 14.31 0 00-14.3-14.31z" transform="translate(0 .07)"/><path class="cls-4" d="M202.26 140.21v-4.71h-4.74v-2.32h4.74v-4.66h2.23v4.66h4.73v2.32h-4.73v4.71z" transform="translate(0 .07)"/><path class="cls-4" d="M204.92 140.65h-3.1v-4.74h-4.73v-3.2h4.73v-4.66h3.1v4.66h4.73v3.2h-4.73zm-2.23-.87h1.36v-4.71h4.73v-1.46h-4.73v-4.7h-1.36v4.66H198V135h4.73z" transform="translate(0 .07)"/><path class="cls-4" transform="rotate(-.13 233.475 101.634)" d="M202.55 94.64h1.74v15.04h-1.74z"/><path class="cls-4" transform="rotate(-15.2 196.113 105.804)" d="M194.96 100.88h1.74v9.8h-1.74z"/><path class="cls-4" transform="rotate(-30.38 190.064 110.686)" d="M189.06 108.01h1.74v5.28h-1.74z"/><path class="cls-4" transform="rotate(-45.5 184.859 115.415)" d="M183.9 113.34h1.74v4.08h-1.74z"/><path class="cls-4" transform="rotate(-45.63 222.096 115.35)" d="M219.95 114.44h4.14v1.74h-4.14z"/><path class="cls-4" transform="rotate(-60.52 216.853 110.663)" d="M214.19 109.76h5.22v1.74h-5.22z"/><path class="cls-4" transform="rotate(-75.55 210.362 104.619)" d="M205.42 103.71h9.82v1.74h-9.82z"/><path class="cls-4" transform="rotate(-89.86 203.442 166.555)" d="M195.89 165.65h15.04v1.74h-15.04z"/><path class="cls-4" transform="rotate(-74.8 195.88 162.932)" d="M190.93 162.02h9.8v1.74h-9.8z"/><path class="cls-4" transform="rotate(-59.6 189.998 158.076)" d="M187.29 157.17h5.28v1.74h-5.28z"/><path class="cls-4" transform="rotate(-44.51 184.858 153.303)" d="M182.74 152.4h4.08v1.74h-4.08z"/><path class="cls-4" transform="rotate(-44.38 222.099 153.43)" d="M221.14 151.33h1.74v4.14h-1.74z"/><path class="cls-4" transform="rotate(-29.47 216.939 158.077)" d="M215.93 155.44h1.74v5.22h-1.74z"/><path class="cls-4" transform="rotate(-14.45 211.488 164.266)" d="M210.28 159.31h1.74v9.82h-1.74z"/><path class="cls-4" d="M330.93 426.91h-1.77a55.3 55.3 0 00-41.62-53.65l.44-1.68a57 57 0 0142.95 55.33zm-112.49 0h-1.73a57.3 57.3 0 0141.54-55l.47 1.67a55.58 55.58 0 00-40.28 53.33z" transform="translate(0 .07)"/><path class="cls-4" d="M308.16 426.71h-1.73c0-19.38-4.82-37.87-13.58-52l1.48-.91c8.91 14.4 13.83 33.2 13.83 52.91zm-65.52 0h-1.73c0-19.69 4.92-38.5 13.85-53l1.48.91c-8.77 14.29-13.6 32.72-13.6 52.09z" transform="translate(0 .07)"/><path class="cls-4" d="M272.95 388.28h1.74v38.53h-1.74z"/><path class="cls-4" d="M226.23 399.34h97.13v1.74h-97.13z"/><path class="cls-4" d="M247 356.52h-42l-.26-.42a7.85 7.85 0 01-1.23-4.05 8 8 0 017.95-8.05 7.83 7.83 0 012.2.29 8.75 8.75 0 019.13-5.6 12.4 12.4 0 0111.65-8.33v1.74a10.64 10.64 0 00-10.21 7.81l-.22.77-.79-.15a7 7 0 00-8.17 5.1l-.25 1-.91-.36a6.25 6.25 0 00-8.65 5.84 5.86 5.86 0 00.75 2.74H247z" transform="translate(0 .07)"/><path class="cls-4" d="M309.66 346.95h43.74v1.74h-43.74zm-5.85-9.22h23.45v1.74h-23.45zm-78.46-30.27H237v1.74h-11.65zm-11.65-10.71h35.04v1.74H213.7zm-14.26 10.71h22.03v1.74h-22.03z"/><path class="cls-7" d="M295.3 297.79c-5.07-5.86-13.63-7.92-22-7.92a34.47 34.47 0 00-34.47 34.47c0 19 34.47 57.92 34.47 57.92s34.47-38.88 34.47-57.92c0-2.48.12-5-.76-7.24a91.21 91.21 0 00-11.71-19.31zm-22 43.15a20 20 0 1120-20 20 20 0 01-20 20z" transform="translate(0 .07)"/><path class="cls-4" d="M273.31 383.57l-.65-.73c-1.41-1.6-34.68-39.35-34.68-58.5a35.33 35.33 0 0157.87-27.22l-1.11 1.34a33.6 33.6 0 00-55 25.88c0 17.07 28.87 51.14 33.6 56.6 4.73-5.47 33.6-39.54 33.6-56.6a32.78 32.78 0 00-.74-7l1.7-.37a35.62 35.62 0 01.78 7.42c0 8.08-5.85 20.4-17.4 36.61-8.54 12-17.2 21.79-17.29 21.89zm0-41.76a20.86 20.86 0 1120.85-20.9 20.86 20.86 0 01-20.85 20.9zm0-40a19.13 19.13 0 1019.13 19.13 19.14 19.14 0 00-19.13-19.09z" transform="translate(0 .07)"/><path class="cls-4" d="M348.69 312.54h-52.91l-.26-.42a6.91 6.91 0 01-1.09-3.61 7.18 7.18 0 017.17-7.18 6.7 6.7 0 011.78.24 7.81 7.81 0 018-4.9 10.92 10.92 0 0121 1.41 6.29 6.29 0 019.36 5.56 2.54 2.54 0 010 .39 5.42 5.42 0 012.6 2 3.77 3.77 0 011-.14 4.19 4.19 0 014.18 4.17 4 4 0 01-.59 2zm-51.91-1.74h50.86a1.83 1.83 0 00.15-.73 2.44 2.44 0 00-2.44-2.44 2.32 2.32 0 00-1 .26l-.78.36-.38-.77a3.75 3.75 0 00-2.64-2l-.83-.18.15-.84a2 2 0 01.1-.41 1.43 1.43 0 00.09-.41 4.65 4.65 0 00-4.63-4.63 4.56 4.56 0 00-3.11 1.26l-1.32 1.22-.13-1.8a9.18 9.18 0 00-18-1.82l-.21.78-.79-.16a6.13 6.13 0 00-1.21-.12 6.05 6.05 0 00-5.84 4.52l-.25.95-.91-.36a5.39 5.39 0 00-7 2.92 5.51 5.51 0 00-.41 2.08 4.93 4.93 0 00.53 2.32z" transform="translate(0 .07)"/><path class="cls-4" d="M368 280.53h-1.74V164.84h14.57v23.33h-1.73v-21.59H368v113.95z"/><path class="cls-4" d="M359.44 122.45l-2.23 5h-4l9.79-22.17h4l9.79 22.22h-4l-2.23-5zM369 119l-4-9.15-4 9.15zm24.07 8.5h-3.24v-2.26a7 7 0 01-5.63 2.51 6.44 6.44 0 01-4.37-1.49 5 5 0 01-1.73-4 4.19 4.19 0 011.84-3.73 8.87 8.87 0 015-1.24h4.61v-.64q0-3.37-3.75-3.37a8.83 8.83 0 00-4.9 1.72l-1.59-2.23a11 11 0 017-2.44 7.58 7.58 0 014.88 1.5 5.74 5.74 0 011.89 4.76zm-3.56-6.29v-1.43h-4q-3.84 0-3.84 2.41a2.14 2.14 0 00.95 1.89 4.57 4.57 0 002.65.65 4.81 4.81 0 003-1 3.05 3.05 0 001.24-2.52zm-3.59 54.86l-.36-1.7c.56-.11 1.12-.24 1.67-.37l.41 1.68c-.57.14-1.14.23-1.72.39zm-24.65-.16l-1.71-.42.43-1.68c.56.14 1.11.28 1.67.4zm28.07-.66l-.46-1.67c.55-.15 1.1-.31 1.64-.48l.52 1.66zm-31.48-.25c-.57-.16-1.13-.34-1.69-.52l.53-1.65c.55.18 1.09.34 1.64.5zm34.85-.81l-.56-1.64 1.6-.58.61 1.62c-.54.2-1.09.4-1.65.59zm-38.22-.3q-.83-.3-1.65-.63l.64-1.61c.53.21 1.06.41 1.6.6zm41.51-1l-.67-1.61c.53-.22 1.05-.44 1.57-.68l.71 1.59zm-44.79-.34l-1.61-.73.74-1.57c.51.24 1 .47 1.56.7zm48-1.11l-.77-1.56 1.53-.77.8 1.53a15.89 15.89 0 01-1.56.85zm-51.2-.39l-1.56-.83.83-1.52 1.52.8zm54.31-1.16l-.86-1.51c.5-.28 1-.57 1.47-.86l.91 1.48zm-57.41-.45l-1.51-.91.93-1.47 1.46.89zm60.42-1.38l-.95-1.45c.48-.31.95-.63 1.42-1l1 1.43-1.47 1zm-63.4-.5l-1.45-1 1-1.41 1.41 1zm66.29-1.5l-1-1.4c.46-.34.92-.69 1.36-1l1.08 1.36a15.44 15.44 0 00-1.44 1zm-69.16-.56c-.47-.35-.93-.72-1.38-1.09l1.1-1.34c.44.36.88.71 1.34 1.06zm71.94-1.61l-1.11-1.33c.43-.36.86-.74 1.29-1.12l1.16 1.3c-.44.35-.89.73-1.34 1.11zm-74.65-.59c-.45-.39-.88-.78-1.32-1.18l1.15-1.31 1.28 1.14zm77.28-1.76l-1.19-1.25 1.22-1.2 1.23 1.22c-.41.4-.83.8-1.26 1.19zm-79.87-.63c-.42-.41-.84-.83-1.24-1.26l1.25-1.2c.39.41.8.82 1.2 1.22zm82.33-1.91l-1.27-1.18c.39-.42.77-.84 1.15-1.27l1.31 1.14-1.19 1.31zm-84.79-.67c-.4-.44-.78-.88-1.16-1.33l1.32-1.13c.37.43.74.86 1.13 1.28zm87.12-2l-1.34-1.1c.36-.44.72-.89 1.07-1.34l1.37 1.06c-.36.45-.73.92-1.1 1.36zm-89.4-.71c-.37-.46-.73-.92-1.08-1.39l1.39-1.05c.34.46.69.91 1 1.36zm91.56-2.08l-1.41-1c.34-.46.67-.93 1-1.4l1.43 1c-.34.43-.68.91-1 1.38zm-93.68-.74c-.33-.48-.67-1-1-1.45l1.45-1c.32.48.65 1 1 1.41zm95.66-2.17l-1.46-.94c.31-.48.6-1 .9-1.45l1.49.88c-.33.49-.61 1-.93 1.49zm-97.56-.72c-.31-.5-.61-1-.9-1.51l1.5-.87c.29.5.58 1 .88 1.47zm99.4-2.27l-1.52-.84c.27-.5.54-1 .8-1.51l1.55.8-.83 1.52zm-101.15-.78c-.28-.52-.55-1-.81-1.57l1.56-.77c.25.51.51 1 .78 1.52zM426 144.5l-1.56-.74c.24-.52.48-1 .71-1.56l1.59.7-.74 1.57zm-104.32-.8c-.25-.53-.48-1.07-.71-1.61l1.6-.67c.22.53.45 1.05.68 1.56zm105.74-2.43l-1.61-.65c.21-.53.42-1.06.62-1.6l1.62.6q-.3.8-.63 1.62zm-107.11-.81c-.21-.54-.41-1.09-.61-1.65l1.64-.57c.19.54.39 1.07.59 1.6zm108.33-2.55l-1.65-.55c.18-.54.35-1.08.52-1.63l1.66.49c-.17.58-.37 1.14-.55 1.69zm-109.46-.8c-.18-.56-.34-1.12-.5-1.69l1.67-.47c.15.55.32 1.09.49 1.64zm110.5-2.58l-1.68-.44c.15-.55.28-1.11.41-1.66l1.69.39c-.16.57-.3 1.15-.45 1.71zm-111.5-.81c-.14-.57-.27-1.15-.4-1.72l1.7-.37c.12.56.25 1.12.39 1.67zm112.25-2.62l-1.7-.34c.11-.56.22-1.12.31-1.68l1.71.28c-.08.55-.19 1.16-.31 1.74zm-113-.83c-.11-.58-.21-1.15-.29-1.74l1.71-.26c.09.57.18 1.13.29 1.69zM431 127.62l-1.72-.23c.07-.57.14-1.13.2-1.7l1.73.18c0 .59-.11 1.17-.19 1.75zm-114.11-.83c-.08-.58-.14-1.17-.19-1.76l1.73-.15c.05.57.11 1.13.18 1.7zm114.48-2.67l-1.74-.14c0-.56.08-1.13.11-1.7l1.73.08c0 .55 0 1.17-.08 1.76zm-114.8-.84c0-.59-.07-1.17-.08-1.76l1.73-.06c0 .58.05 1.15.08 1.71zm115-2.68h-1.73v-1.71h1.74v1.71zm-113.32-.85h-1.75V118h1.74v1.76zm111.53-2.6c0-.57-.06-1.14-.1-1.71l1.73-.13c0 .59.08 1.17.11 1.76zm-111.43-.81l-1.73-.11c0-.59.08-1.17.13-1.76l1.73.16c-.08.57-.12 1.14-.16 1.71zm111.17-2.6c-.06-.57-.13-1.13-.21-1.69l1.72-.24c.08.58.15 1.16.22 1.75zm-110.89-.83l-1.72-.21c.07-.58.15-1.17.24-1.75l1.72.27c-.1.58-.18 1.15-.25 1.69zM429 110.34c-.1-.57-.2-1.13-.31-1.68l1.7-.35c.12.58.22 1.16.32 1.74zm-109.85-.79l-1.7-.31c.1-.58.22-1.16.34-1.73l1.7.37c-.13.55-.24 1.12-.33 1.67zm109.2-2.55c-.13-.56-.26-1.11-.41-1.66l1.68-.45q.22.85.42 1.71zm-108.46-.8l-1.69-.42c.15-.57.3-1.14.46-1.7l1.67.47c-.17.55-.32 1.1-.46 1.65zm107.58-2.51c-.16-.54-.33-1.09-.51-1.63l1.64-.55q.28.84.54 1.68zm-106.67-.79l-1.66-.52c.18-.56.37-1.12.56-1.68l1.64.58q-.29.84-.54 1.63zm105.57-2.46c-.2-.53-.4-1.06-.62-1.59l1.61-.65c.22.54.43 1.09.64 1.64zm-104.44-.77l-1.62-.63c.22-.55.44-1.09.67-1.64l1.6.68c-.23.54-.42 1.07-.65 1.6zm103.16-2.39c-.23-.52-.47-1-.71-1.55l1.56-.75c.26.53.5 1.06.74 1.6zm-101.82-.77l-1.58-.72c.24-.54.5-1.07.76-1.6L324 95c-.25.52-.5 1-.73 1.55zm100.35-2.31q-.39-.75-.81-1.5l1.52-.84c.29.51.56 1 .83 1.55zm-98.83-.76l-1.53-.82.86-1.54 1.5.87c-.28.5-.56 1-.83 1.5zM422 91.23c-.29-.49-.59-1-.89-1.45l1.46-.94c.32.5.62 1 .92 1.5zm-95.46-.74l-1.54-.91c.31-.51.63-1 1-1.49l1.45 1c-.26.44-.62.92-.92 1.41zm93.66-2.13c-.32-.47-.65-.93-1-1.39l1.41-1c.34.47.68 1 1 1.44zm-91.74-.72l-1.42-1c.34-.48.68-1 1-1.43l1.38 1c-.33.5-.67 1-1 1.43zm89.73-2c-.35-.45-.71-.89-1.07-1.33l1.34-1.11c.37.46.74.91 1.1 1.38zm-87.71-.73l-1.35-1.09c.36-.46.74-.91 1.12-1.36l1.32 1.13c-.41.41-.77.87-1.13 1.32zM415.94 83c-.38-.43-.76-.85-1.15-1.27l1.27-1.18c.4.43.8.86 1.19 1.3zm-83.28-.66l-1.28-1.17c.39-.44.79-.86 1.2-1.29l1.25 1.21c-.4.41-.79.85-1.17 1.25zm81-1.84c-.4-.4-.81-.8-1.23-1.19l1.2-1.26q.64.6 1.26 1.23zm-78.58-.63l-1.21-1.24c.42-.41.85-.81 1.28-1.21l1.18 1.28c-.47.38-.89.78-1.3 1.17zm76.1-1.72l-1.3-1.15 1.12-1.33 1.33 1.15zm-73.58-.59l-1.13-1.31c.44-.39.89-.76 1.35-1.13l1.09 1.35c-.49.35-.93.72-1.36 1.09zm71-1.61l-1.44-1 1-1.39c.47.35.94.7 1.4 1.07zm-68.44-.54l-1-1.38a16 16 0 011.42-1l1 1.42c-.42.25-.92.55-1.42.93zm65.6-1.47c-.47-.33-1-.65-1.43-1l.95-1.45c.49.32 1 .64 1.46 1zM343 73.41L342 72c.49-.33 1-.65 1.48-1l.92 1.47zM402.88 72l-1.47-.86.85-1.51 1.52.89zm-57-.44L345 70.1c.5-.29 1-.58 1.53-.86l.83 1.52c-.51.25-1 .53-1.5.82zm54-1.24c-.5-.27-1-.52-1.53-.77l.81-1.58c.53.25 1.06.52 1.58.79zm-51-.39l-.79-1.55c.53-.27 1.05-.52 1.59-.77l.73 1.57c-.52.22-1 .47-1.54.69zm48-1.11l-1.57-.68.66-1.6c.54.22 1.09.46 1.62.7zm-44.88-.3l-.75-1.61 1.62-.67.64 1.62c-.53.2-1 .42-1.57.64zm41.69-1c-.53-.21-1.07-.4-1.61-.58l.56-1.65c.56.19 1.11.39 1.66.6zm-38.55-.27l-.59-1.63c.55-.2 1.11-.39 1.67-.57l.54 1.65c-.55.21-1.09.36-1.6.55zm35.28-.82c-.55-.17-1.09-.33-1.64-.48l.45-1.67c.57.15 1.14.32 1.7.49zm-32-.23l-.42-1.67c.56-.17 1.13-.32 1.7-.47l.43 1.68zm28.72-.67c-.55-.14-1.11-.26-1.67-.38l.36-1.7c.57.12 1.15.25 1.72.39zm-25.42-.19l-.38-1.69c.57-.13 1.15-.25 1.72-.36l.33 1.7zm22.07-.51q-.84-.15-1.68-.27l.25-1.72c.58.08 1.16.18 1.74.28zm-18.71-.14l-.26-1.69c.58-.09 1.16-.18 1.74-.25l.23 1.72c-.63.07-1.18.15-1.74.24zm15.33-.35c-.56-.07-1.13-.12-1.7-.17l.14-1.73 1.76.17zm-11.94-.09l-.18-1.73 1.76-.14.09 1.73zm8.53-.19l-1.7-.07v-1.73q.89 0 1.77.06zm-5.12 0l-.07-1.74h1.76v1.74z" transform="translate(0 .07)"/><path class="cls-7" d="M374 73.91a45.87 45.87 0 1045.86 45.88A45.86 45.86 0 00374 73.91zm0 85.09a39.22 39.22 0 1139.21-39.23A39.23 39.23 0 01374 159z" transform="translate(0 .07)"/><path class="cls-4" d="M374 166.51a46.74 46.74 0 1146.73-46.75A46.79 46.79 0 01374 166.51zm0-91.73a45 45 0 1045 45 45 45 0 00-45-45zm0 85.08a40.09 40.09 0 1140.08-40.1A40.14 40.14 0 01374 159.91zm0-78.43a38.35 38.35 0 1038.34 38.36A38.39 38.39 0 00374 81.43z" transform="translate(0 .07)"/><path class="cls-4" d="M407.27 119.78h-1.73A31.58 31.58 0 00374 88.24v-1.73a33.31 33.31 0 0133.27 33.27zm116.16 96.01h-89.5v-53.08h89.51l16.82 26.95zm-87.76-1.73h86.81l15.68-24.41-15.73-25.21h-86.8zm90.55-19.47a5 5 0 115-5.05 5.06 5.06 0 01-5 5.05zm0-8.36a3.31 3.31 0 103.31 3.31 3.31 3.31 0 00-3.31-3.31z" transform="translate(0 .07)"/><path class="cls-4" d="M545.09 241.67h-84.3v-1.74h82.57v-49.34l-12.97-.11.01-1.74 14.69.13v52.8z"/><path class="cls-4" d="M458 180.82a4.79 4.79 0 00-2.61.65 2.17 2.17 0 00-1 2 2.27 2.27 0 001 2 15.63 15.63 0 004.34 1.5 11.88 11.88 0 015 2.25 5.34 5.34 0 011.68 4.28 5.65 5.65 0 01-2.13 4.58 8.54 8.54 0 01-5.59 1.76 13.12 13.12 0 01-9-3.49l2.31-2.75a10.29 10.29 0 006.8 2.84 4.67 4.67 0 002.79-.75 2.37 2.37 0 001-2 2.22 2.22 0 00-1-1.94 10.1 10.1 0 00-3.35-1.27 28.62 28.62 0 01-3.61-1 8.34 8.34 0 01-2.19-1.25 5.22 5.22 0 01-1.92-4.45 5.42 5.42 0 012.18-4.61 8.73 8.73 0 015.39-1.62 12.73 12.73 0 014.1.68 10.76 10.76 0 013.52 1.91l-1.94 2.75a7.38 7.38 0 00-2.59-1.42 9.94 9.94 0 00-3.18-.65zm28.06-2.82v3.43h-11.51v5.71h10.34v3.24h-10.34v5.77h11.89v3.43h-15.53V178zm22.79 18.58a11.84 11.84 0 01-16.18 0 11.34 11.34 0 010-15.93 11.86 11.86 0 0116.18 0 11.34 11.34 0 010 15.93zm-2.69-13.5a7.56 7.56 0 00-10.69-.15l-.15.15a8 8 0 000 11.08 7.58 7.58 0 0010.72.12l.12-.12a8 8 0 000-11.08z" transform="translate(0 .07)"/><path class="cls-4" d="M72.89 197.07h29.14v1.74H72.89zm-17.32 9.17h34.21v1.74H55.57zm19.73 11.2h29.05v1.74H75.3zm-27.06 0h19.58v1.74H48.24zm113.56-11.2h64.81v1.74H161.8zm23.56 11.2h53.92v1.74h-53.92zm-21.25 0h14.36v1.74h-14.36zm21.25-23.23h19v1.74h-19zm-60.38 0h21.54v1.74h-21.54zm-99.81 2.86h40.54v1.74H25.17zm105.2 35.36h1.74v7.8h-1.74z"/><path class="cls-7" d="M131.24 240.16H126v35.35a5.27 5.27 0 1010.54 0v-35.35z" transform="translate(0 .07)"/><path class="cls-4" d="M131.24 281.65a6.15 6.15 0 01-6.14-6.14V239.3h12.28v36.21a6.15 6.15 0 01-6.14 6.14zM126.83 241v34.48a4.41 4.41 0 008.81 0V241z" transform="translate(0 .07)"/><path class="cls-4" d="M125.71 246.95h11.06v1.74h-11.06zm0 6.78h11.06v1.74h-11.06z"/><path class="cls-4" d="M131.24 233.16a25.7 25.7 0 1125.69-25.71 25.73 25.73 0 01-25.69 25.71zm0-49.65a24 24 0 1023.95 24.05v-.05a24 24 0 00-23.95-24z" transform="translate(0 .07)"/><path class="cls-4" d="M113 206.24h36.58v1.74H113zm49.02-12.03H181v1.74h-18.98zm-32.77 23.23h14.36v1.74h-14.36zM562.8 97.75h-19.87l4.14-10.17-4.14-10.18h19.87v1.74h-17.29l3.43 8.44-3.43 8.43h17.29v1.74zm78.2 0h-19.87v-1.74h17.29L635 87.58l3.42-8.44h-17.29V77.4H641l-4.13 10.18L641 97.75z"/><path class="cls-4" d="M591.16 116.91a7 7 0 01-3.93-1.21l-5.18-3.48a5.34 5.34 0 00-1.94-.81l-6.14-1.2a7 7 0 01-5.55-5.55l-1.19-6.13a5.34 5.34 0 00-.81-1.94l-3.49-5.19a7 7 0 010-7.85l3.49-5.18a5.34 5.34 0 00.81-1.94l1.19-6.13a7 7 0 015.58-5.55l6.13-1.2a5.34 5.34 0 001.94-.81l5.18-3.49a7 7 0 017.85 0l5.18 3.49a5.32 5.32 0 002 .81l6.13 1.2a7 7 0 015.55 5.55l1.2 6.13a5.32 5.32 0 00.8 1.94l3.49 5.18a7 7 0 010 7.85l-3.49 5.19a5.32 5.32 0 00-.8 1.94l-1.2 6.13a7 7 0 01-5.55 5.55l-6.13 1.2a5.32 5.32 0 00-2 .81l-5.18 3.48a7 7 0 01-3.94 1.21zm0-57.12a5.25 5.25 0 00-3 .91L583 64.19a7.12 7.12 0 01-2.58 1.06l-6.13 1.2a5.28 5.28 0 00-4.11 4.21L569 76.79a7 7 0 01-1.07 2.58l-3.49 5.18a5.28 5.28 0 000 5.92l3.49 5.18a7 7 0 011.07 2.58l1.2 6.13a5.27 5.27 0 004.18 4.18l6.13 1.2a7.12 7.12 0 012.58 1.06l5.18 3.49a5.26 5.26 0 005.91 0l5.18-3.49a7.12 7.12 0 012.58-1.06l6.14-1.2a5.3 5.3 0 004.18-4.18l1.19-6.13a7 7 0 011.07-2.58l3.48-5.18a5.28 5.28 0 000-5.92l-3.49-5.18a7 7 0 01-1.07-2.58l-1.25-6.13a5.3 5.3 0 00-4.19-4.18l-6.14-1.2a7.12 7.12 0 01-2.58-1.06l-5.1-3.49a5.25 5.25 0 00-3-.91z" transform="translate(0 .07)"/><path class="cls-4" d="M591.16 107.85a20.34 20.34 0 1120.34-20.34 20.34 20.34 0 01-20.34 20.34zm0-38.94a18.61 18.61 0 1018.61 18.61 18.63 18.63 0 00-18.61-18.61z" transform="translate(0 .07)"/><path class="cls-7" d="M599.57 100.81l-8-4.07a.55.55 0 00-.5 0l-7.91 4.26a.54.54 0 01-.73-.23.55.55 0 010-.33l1.4-8.87a.52.52 0 00-.16-.47l-6.46-6.22a.53.53 0 010-.75.49.49 0 01.3-.16l8.87-1.41a.56.56 0 00.4-.3l3.87-8.1a.53.53 0 01.68-.32.51.51 0 01.32.32l4.08 8a.52.52 0 00.41.29l8.9 1.17a.54.54 0 01.46.61.57.57 0 01-.15.3l-6.43 6.35a.52.52 0 00-.15.47l1.63 8.83a.53.53 0 01-.38.64.5.5 0 01-.45-.01z" transform="translate(0 .07)"/><path class="cls-4" d="M582.92 102a1.39 1.39 0 01-.81-.26 1.36 1.36 0 01-.57-1.36l1.37-8.7-6.38-6.06a1.39 1.39 0 01-.37-1.43 1.42 1.42 0 011.12-1l8.72-1.42 3.79-7.86a1.41 1.41 0 011.25-.8 1.44 1.44 0 011.27.76l4 7.85 8.69 1.15a1.4 1.4 0 01.81 2.38l-6.22 6.23 1.6 8.65a1.41 1.41 0 01-1.15 1.63 1.38 1.38 0 01-.85-.12l-7.84-4-7.74 4.2a1.37 1.37 0 01-.69.16zm-4.7-17.17l6 5.72a1.42 1.42 0 01.42 1.23l-1.3 8.2 7.3-4a1.36 1.36 0 011.3 0l7.4 3.77-1.51-8.16a1.41 1.41 0 01.38-1.25l5.87-5.87-8.23-1.08a1.42 1.42 0 01-1.06-.76L591 75.2l-3.58 7.49a1.42 1.42 0 01-1 .78z" transform="translate(0 .07)"/><path class="cls-4" d="M590.3 50.29h1.74v5.55h-1.74z"/><path class="cls-4" transform="rotate(-74.95 598.846 54.022)" d="M596.02 53.12h5.55v1.74h-5.55z"/><path class="cls-4" transform="matrix(.5 -.87 .87 .5 252.76 552.79)" d="M603.24 56.15h5.55v1.74h-5.55z"/><path class="cls-4" transform="rotate(-44.84 612.177 61.755)" d="M609.32 60.85h5.55v1.74h-5.55z"/><path class="cls-4" transform="rotate(-29.81 616.892 67.846)" d="M613.99 66.94h5.55v1.74h-5.55z"/><path class="cls-4" transform="rotate(-14.77 619.956 75.019)" d="M616.93 74.12h5.55v1.74h-5.55z"/><path class="cls-4" transform="rotate(-74.13 562.866 74.486)" d="M561.95 71.68h1.74v5.55h-1.74z"/><path class="cls-4" transform="rotate(-59.1 565.86 67.335)" d="M564.93 64.53h1.74v5.55h-1.74z"/><path class="cls-4" transform="rotate(-44.05 570.7 61.297)" d="M569.75 58.48h1.74v5.55h-1.74z"/><path class="cls-4" transform="rotate(-29 577.003 56.733)" d="M575.99 53.91h1.74v5.55h-1.74z"/><path class="cls-4" transform="rotate(-13.96 584.344 53.841)" d="M583.17 51.03h1.74v5.55h-1.74z"/><path class="cls-4" d="M590.3 119.68h1.74v5.55h-1.74z"/><path class="cls-4" transform="rotate(-15.05 599.111 121.388)" d="M597.97 118.59h1.74v5.55h-1.74z"/><path class="cls-4" transform="rotate(-30.09 606.096 118.414)" d="M605.09 115.61h1.74v5.55h-1.74z"/><path class="cls-4" transform="rotate(-45.14 612.174 113.709)" d="M611.21 110.9h1.74v5.55h-1.74z"/><path class="cls-4" transform="rotate(-60.18 616.865 107.6)" d="M615.93 104.79h1.74v5.55h-1.74z"/><path class="cls-4" transform="rotate(-75 623.693 98.868)" d="M622.82 96.03h1.75v5.57h-1.75z"/><path class="cls-4" transform="rotate(-15.87 563.022 100.966)" d="M559.99 100.07h5.55v1.74h-5.55z"/><path class="cls-4" transform="rotate(-30.67 566.793 110.83)" d="M563.92 109.93h5.55v1.74h-5.55z"/><path class="cls-4" transform="rotate(-45.95 570.73 114.13)" d="M567.87 113.22h5.55v1.74h-5.55z"/><path class="cls-4" transform="rotate(-61.01 576.903 118.718)" d="M574.07 117.81h5.55v1.74h-5.55z"/><path class="cls-4" transform="rotate(-76.05 584.044 121.53)" d="M581.22 120.62h5.55v1.74h-5.55z"/><path class="cls-4" transform="rotate(-45 381.168 332.795)" d="M380.22 328.04h1.74v9.43h-1.74z"/><path class="cls-4" transform="rotate(-45 381.166 332.766)" d="M376.37 331.86h9.43v1.74h-9.43z"/><path class="cls-4" transform="rotate(-45 429.903 343.308)" d="M428.95 338.56h1.74v9.42h-1.74z"/><path class="cls-4" transform="rotate(-45 429.903 343.308)" d="M425.11 342.4h9.42v1.74h-9.42z"/><path class="cls-4" d="M387.44 387.12h-1.73c0-.81-.95-1.34-2.4-2s-3.36-1.65-3.36-3.61 1.79-2.83 3.36-3.61 2.4-1.23 2.4-2-.95-1.33-2.39-2-3.37-1.65-3.37-3.6 1.79-2.83 3.37-3.61 2.39-1.23 2.39-2h1.73c0 1.95-1.78 2.83-3.36 3.6s-2.39 1.24-2.39 2.05 1 1.33 2.39 2 3.36 1.65 3.36 3.6-1.86 2.88-3.36 3.61-2.39 1.24-2.39 2.05 1 1.34 2.39 2.05 3.36 1.51 3.36 3.47zm25.26-34.48H411c0-.82-.95-1.34-2.39-2.05s-3.36-1.66-3.36-3.61 1.78-2.83 3.36-3.61 2.39-1.24 2.39-2-.95-1.33-2.39-2-3.36-1.65-3.36-3.61 1.78-2.83 3.36-3.6 2.39-1.23 2.39-2h1.74c0 1.95-1.79 2.83-3.37 3.6s-2.39 1.23-2.39 2 1 1.34 2.39 2.05 3.37 1.65 3.37 3.6-1.87 2.87-3.37 3.61-2.39 1.24-2.39 2.05 1 1.34 2.4 2.05 3.32 1.56 3.32 3.52zM394.78 427h-20.36v-19.36h20.36zm-18.62-1.74h16.89v-15.88h-16.89zm44.45 1.74h-20.36v-46.09h20.36zM402 425.29h16.88v-42.6H402z" transform="translate(0 .07)"/><path class="cls-7" d="M426.06 358.04h18.62v68.18h-18.62z"/><path class="cls-4" d="M445.55 427h-20.39v-69.9h20.36zm-18.62-1.74h16.88v-66.42h-16.88z" transform="translate(0 .07)"/><path class="cls-4" d="M357.84 425.47h105.63v1.74H357.84z"/><path class="cls-4" d="M365.49 323.49h1.74v103.43h-1.74zm85.05 20.46l-1.24-1.22 8.35-8.43 8.13 8.44-1.26 1.2-6.89-7.16-7.09 7.17z"/><path class="cls-4" d="M456.67 336.66h1.74v84.23h-1.74z"/><path class="cls-7" d="M804.46 214.74h-6a27.41 27.41 0 00-3.57-8.6l4.27-4.23a3.84 3.84 0 000-5.43L796 193.3a3.87 3.87 0 00-5.46 0l-4.23 4.23a27.35 27.35 0 00-8.59-3.57v-6a3.86 3.86 0 00-3.86-3.86h-4.47a3.86 3.86 0 00-3.86 3.86v6a27.43 27.43 0 00-8.47 3.49l-4.2-4.24a3.86 3.86 0 00-5.46 0l-3.18 3.14a3.87 3.87 0 000 5.46l4.19 4.25a27.37 27.37 0 00-3.6 8.58h-6a3.85 3.85 0 00-3.87 3.83V223a3.87 3.87 0 003.84 3.88h6a27.13 27.13 0 003.55 8.6l-4.25 4.23a3.86 3.86 0 000 5.45l3.14 3.16a3.84 3.84 0 005.43 0l4.24-4.2a27.47 27.47 0 008.6 3.6v5.95a3.86 3.86 0 003.84 3.88h4.47a3.85 3.85 0 003.87-3.83v-6a27.57 27.57 0 008.62-3.55l4.21 4.24a3.89 3.89 0 005.47 0l3.15-3.15a3.84 3.84 0 000-5.43l-4.12-4.29a27.25 27.25 0 003.58-8.61h6a3.88 3.88 0 003.87-3.86v-4.47a3.84 3.84 0 00-3.82-3.86zM771.63 233a12.24 12.24 0 1112.24-12.25A12.24 12.24 0 01771.63 233z" transform="translate(0 .07)"/><path class="cls-4" d="M773.75 258.32h-4.47a4.73 4.73 0 01-4.71-4.75v-5.27a28.41 28.41 0 01-7.61-3.18l-3.75 3.72a4.64 4.64 0 01-3.32 1.37 4.74 4.74 0 01-3.35-1.4l-3.13-3.16a4.72 4.72 0 010-6.68l3.76-3.74a28.31 28.31 0 01-3.14-7.61h-5.27a4.75 4.75 0 01-4.71-4.75v-4.47a4.69 4.69 0 014.74-4.71h5.28a28 28 0 013.18-7.59l-3.71-3.76a4.72 4.72 0 010-6.68l3.18-3.14a4.63 4.63 0 013.31-1.38 4.74 4.74 0 013.37 1.41l3.71 3.75a28.49 28.49 0 017.47-3.07v-5.32a4.75 4.75 0 014.73-4.73h4.46a4.75 4.75 0 014.74 4.73v5.29a27.89 27.89 0 017.59 3.15l3.75-3.74a4.73 4.73 0 016.68 0l3.16 3.17a4.72 4.72 0 010 6.68L796 206.2a28.36 28.36 0 013.16 7.61h5.28a4.71 4.71 0 014.71 4.71V223a4.75 4.75 0 01-4.74 4.73h-5.28a28 28 0 01-3.16 7.61l3.71 3.75a4.64 4.64 0 011.32 3.31 4.72 4.72 0 01-1.4 3.36l-3.09 3.15a4.76 4.76 0 01-6.7 0l-3.68-3.72a28.31 28.31 0 01-7.61 3.14v5.29a4.72 4.72 0 01-4.74 4.7zm-17-15.41l.58.37a26.89 26.89 0 008.33 3.48l.68.16v6.65a3 3 0 00.88 2.12 3 3 0 002.1.88h4.47a3 3 0 003-3v-6.67l.67-.15a26.54 26.54 0 008.34-3.45l.59-.37 4.7 4.74a3 3 0 004.24 0l3.15-3.14a3 3 0 00.88-2.12 2.91 2.91 0 00-.88-2.1l-4.68-4.73.37-.59a26.6 26.6 0 003.46-8.33l.16-.68h6.65a3 3 0 003-3v-4.47a3 3 0 00-3-3h-6.66l-.15-.67a26.56 26.56 0 00-3.46-8.34l-.37-.58 4.71-4.72a3 3 0 000-4.23l-3.15-3.06a3 3 0 00-4.22 0l-4.73 4.71-.58-.37a26.53 26.53 0 00-8.32-3.45l-.68-.16v-6.73a3 3 0 00-3-3h-4.46a3 3 0 00-3 3v6.67l-.68.15a26.85 26.85 0 00-8.2 3.37l-.59.37-4.69-4.73a3 3 0 00-2.07-.83 2.88 2.88 0 00-2.09.87l-3.24 3.13a3 3 0 000 4.23l4.69 4.74-.38.58a26.44 26.44 0 00-3.48 8.31l-.16.68h-6.66a2.84 2.84 0 00-2.11.86 3 3 0 00-.88 2.13v4.47a3 3 0 003 3h6.64l.15.68a26.5 26.5 0 003.44 8.32l.37.59-4.73 4.72a3 3 0 00-.88 2.1 3 3 0 00.87 2.12l3.13 3.17a3 3 0 002.13.89 3 3 0 002.1-.87zm14.89-9a13.11 13.11 0 1113.1-13.12 13.14 13.14 0 01-13.11 13.12zm0-24.48A11.38 11.38 0 10783 220.82a11.38 11.38 0 00-11.37-11.39zm84.59 80.38h-5.81a5.89 5.89 0 01-5.87-5.91v-7a36.66 36.66 0 01-10.19-4.27l-5 5a5.8 5.8 0 01-4.14 1.72 5.92 5.92 0 01-4.17-1.75l-4.05-4.16a5.9 5.9 0 010-8.32l5-5a36 36 0 01-4.17-10.21h-7a5.91 5.91 0 01-5.87-5.91v-5.81a5.87 5.87 0 015.85-5.88h7.12a36.28 36.28 0 014.26-10.18l-5-5a5.91 5.91 0 01.05-8.32l4.13-4.08a5.77 5.77 0 014.13-1.71 5.87 5.87 0 014.19 1.75l5 5a36.9 36.9 0 0110-4.12v-7.07a5.91 5.91 0 015.9-5.89h5.8a5.91 5.91 0 015.9 5.89v7.07a36.28 36.28 0 0110.18 4.26l5-5a5.9 5.9 0 018.32 0l4.11 4.12a5.86 5.86 0 010 8.3l-5 5a36.77 36.77 0 014.24 10.2h7.07a5.88 5.88 0 015.86 5.86v5.82a5.91 5.91 0 01-5.9 5.88h-7.07a36.53 36.53 0 01-4.24 10.2l5 5a5.84 5.84 0 010 8.26v.05l-4.09 4.1a5.93 5.93 0 01-8.35 0l-5-5a36.83 36.83 0 01-10.23 4.19V284a5.88 5.88 0 01-5.96 5.81zm-22.07-19.45l.58.37a35 35 0 0010.92 4.57l.67.15v8.44a4.18 4.18 0 001.21 2.95 4.1 4.1 0 002.92 1.22h5.81a4.15 4.15 0 004.16-4.12v-8.47l.67-.15a35 35 0 0010.9-4.51l.59-.37 6 6a4.21 4.21 0 005.9 0l4.09-4.09a4.11 4.11 0 000-5.83l-5.94-6 .37-.58a35 35 0 004.57-10.94l.16-.68h8.44a4.17 4.17 0 004.16-4.15v-5.82a4.15 4.15 0 00-4.12-4.13h-8.45l-.16-.67a34.67 34.67 0 00-4.53-10.92l-.37-.59 6-6a4.13 4.13 0 000-5.84l-4.11-4.12a4.15 4.15 0 00-5.87 0l-6 6-.59-.37a34.84 34.84 0 00-10.89-4.53l-.68-.15v-8.45a4.17 4.17 0 00-4.16-4.15h-5.8a4.17 4.17 0 00-4.16 4.15V207l-.68.15a35.26 35.26 0 00-10.77 4.44l-.58.36-6-6a4.11 4.11 0 00-3-1.23 4 4 0 00-2.9 1.2L818.4 210a4.14 4.14 0 000 5.85l5.94 6-.37.58a34.5 34.5 0 00-4.57 10.89l-.16.68h-8.45a4.13 4.13 0 00-4.15 4.11V244a4.17 4.17 0 004.14 4.17h8.43l.15.68a34.59 34.59 0 004.5 10.9l.38.59-6 6a4.14 4.14 0 000 5.85l4.08 4.12a4.14 4.14 0 002.95 1.23 4 4 0 002.89-1.22zm19.33-2.3a26.82 26.82 0 1126.8-26.85 26.82 26.82 0 01-26.8 26.85zm0-51.89a25.08 25.08 0 1025.07 25.09v-.09a25.1 25.1 0 00-25.08-25z" transform="translate(0 .07)"/><path class="cls-7" d="M492.51 266.07l-16.94-9.78v19.56l16.94-9.78-16.94-9.78v19.56l16.94-9.78z"/><path class="cls-4" d="M453.13 301.5h1.74v7.5h-1.74z"/><path class="cls-4" d="M437.25 304.38h81.34v1.74h-81.34z"/><path class="cls-4" d="M532.86 315H424.48v-19.66h108.38zm-106.64-1.74h104.94v-16.19H426.22z" transform="translate(0 .07)"/><path class="cls-4" transform="rotate(-45 889.266 276.634)" d="M888.31 274.04h1.74v5.11h-1.74z"/><path class="cls-4" d="M866.56 229.91a18.66 18.66 0 00-26.39 0l-1.23-1.22a20.39 20.39 0 0128.82 0z" transform="translate(0 .07)"/><path class="cls-7" d="M926.43 305.91L895 274.42l-4 4-4 4 31.54 31.49a5.61 5.61 0 107.94-7.93z" transform="translate(0 .07)"/><path class="cls-4" d="M922.46 316.37a6.48 6.48 0 01-4.58-1.89l-32.1-32.1 9.17-9.17 32.05 32.1a6.48 6.48 0 01-4.58 11.06zm-34.22-34l30.92 30.88a4.74 4.74 0 006.71-6.71L895 275.67z" transform="translate(0 .07)"/><path class="cls-4" transform="rotate(-45 896.771 284.155)" d="M890.8 283.25h11.77v1.74H890.8z"/><path class="cls-4" transform="rotate(-45 900.233 287.611)" d="M894.26 286.71h11.77v1.74h-11.77z"/><path class="cls-4" d="M843.16 128.63a10.66 10.66 0 00-14.39-3.38l-.88-1.49a12.39 12.39 0 0116.72 3.93z" transform="translate(0 .07)"/><path class="cls-4" d="M863.34 150.57h-55.77a8 8 0 01-8-8v-.52a8 8 0 018-8h.84a10.27 10.27 0 0112-7.83 14.72 14.72 0 0128.1 1.66 11 11 0 0115.19 6.18 8 8 0 017.61 8v.52a8 8 0 01-7.97 7.99zm-55.77-14.73a6.25 6.25 0 00-6.23 6.24v.52a6.25 6.25 0 006.23 6.24h55.77a6.26 6.26 0 006.24-6.24v-.52a6.26 6.26 0 00-6.24-6.24h-.93l-.18-.63a9.23 9.23 0 00-13.87-5.2l-1.13.72-.2-1.32a13 13 0 00-25.22-1.86l-.25.79-.8-.21a8.59 8.59 0 00-10.78 7l-.12.73z" transform="translate(0 .07)"/><path class="cls-4" d="M824.09 133.91l-1.62-.62a4.51 4.51 0 00.17-.52l1.69.4a6.39 6.39 0 01-.24.74zm.4-2.07h-1.74a4.06 4.06 0 00-4.06-4.06V126a5.82 5.82 0 015.8 5.84zM170.16 415.91h-1.73v-69.83a2.34 2.34 0 00-2.34-2.33h-4.62V342h4.62a4.07 4.07 0 014.07 4.07zm-128.88 0h-1.74v-69.83a4.08 4.08 0 014.08-4.08h3.7v1.74h-3.7a2.34 2.34 0 00-2.34 2.33z" transform="translate(0 .07)"/><path class="cls-4" d="M163.19 415.77h-1.74V351.1h-1.56v-1.73h3.3v66.4zm-115.65 0h-1.73v-66.4h3.24v1.73h-1.51v64.67z"/><path class="cls-4" d="M167.67 427.72H41.89a7 7 0 01-6.89-5.89l-1.06-6.47H176.4l-1 5.76a7.86 7.86 0 01-7.73 6.6zM35.94 417.09l.73 4.46a5.29 5.29 0 005.22 4.45h125.78a6.13 6.13 0 006.07-5.15l.61-3.75z" transform="translate(0 .07)"/><path class="cls-7" d="M52.75 329.73h8.05v82.86h-8.05zm27.64 12.17h8.05v70.69h-8.05zm27.64 10.54h8.05v60.15h-8.05zm27.64-16.59h8.05v76.74h-8.05z"/><path class="cls-4" d="M61.67 413.39h-9.79V328.8h9.79zm-8-1.73H60v-81.13h-6.33zm21.82 1.73H65.7v-90.48h9.79zm-8-1.73h6.31v-87h-6.36zm21.82 1.73h-9.79V341h9.79zm-8-1.73h6.31v-69h-6.36zm21.85 1.73h-9.79v-76h9.79zm-8-1.73h6.31v-72.53h-6.36zm21.84 1.73h-9.79v-61.88H117zm-8-1.73h6.31v-58.42H109zm21.77 1.73H121v-57.18h9.79zm-8.05-1.73H129v-53.75h-6.31zm21.86 1.73h-9.78v-78.48h9.78zm-8-1.73h6.31v-75h-6.31zm21.82 1.73h-9.78v-76h9.78zm-8-1.73h6.31v-72.53h-6.35z" transform="translate(0 .07)"/><path class="cls-4" d="M105.15 342.08h27.82v1.74h-27.82zm13.9 6.67h13.91v1.74h-13.91z"/></svg>