<svg id="Layer_1" data-name="Layer 1" xmlns="http://www.w3.org/2000/svg" viewBox="0 0 70 70"><defs><style>.cls-4{fill:#1b2c38}</style></defs><path d="M68.58 36.36a4.25 4.25 0 00-4.26-4.24H52.66a2.13 2.13 0 01-2-2.84 22.2 22.2 0 001.25-8.52 6.17 6.17 0 00-12.13-1.19 22.88 22.88 0 01-2 5.15 14 14 0 01-12.39 7.4H17.9v29.5A15.92 15.92 0 0031 68.45h28.36a4.64 4.64 0 100-9.28h4.57a4.64 4.64 0 100-9.28 4.64 4.64 0 100-9.28h.39a4.25 4.25 0 004.26-4.25z" transform="translate(.02 .08)" fill="#fed2a4"/><path d="M15.09 68.52H4.19a2.79 2.79 0 01-2.8-2.79V32a2.79 2.79 0 012.8-2.79h10.9A2.8 2.8 0 0117.9 32v33.73a2.8 2.8 0 01-2.81 2.79z" transform="translate(.02 .08)" fill="#95d133"/><path d="M13.8 56.77a4.16 4.16 0 11-4.16-4.15 4.15 4.15 0 014.16 4.15z" transform="translate(.02 .08)" fill="#fff5f5"/><path class="cls-4" d="M9.64 51.23a5.54 5.54 0 105.56 5.54 5.56 5.56 0 00-5.56-5.54zm0 8.29a2.75 2.75 0 112.76-2.75 2.76 2.76 0 01-2.76 2.75z" transform="translate(.02 .08)"/><path d="M33.94 12a11 11 0 11-11-11 11 11 0 0111 11z" transform="translate(.02 .08)" fill="#ffcb05"/><path class="cls-4" d="M70 36.36a5.66 5.66 0 00-5.66-5.64H52.66a.73.73 0 01-.69-1 23.5 23.5 0 001.33-9.06 7.57 7.57 0 00-14.89-1.46 21.93 21.93 0 01-1.87 4.83 12.58 12.58 0 01-11.16 6.66h-6.27a4.22 4.22 0 00-4-2.94H4.19A4.21 4.21 0 000 32v33.73a4.21 4.21 0 004.21 4.19h10.9a4.21 4.21 0 004.21-4.19v-.41A17.33 17.33 0 0031 69.84h2.84a1.4 1.4 0 100-2.79H31a14.53 14.53 0 01-11.7-5.88V33.51h6.08A15.37 15.37 0 0039 25.37a24.71 24.71 0 002.12-5.45 4.76 4.76 0 019.37.91 20.69 20.69 0 01-1.17 8 3.52 3.52 0 003.33 4.7h11.67a2.85 2.85 0 110 5.7H48.64a1.4 1.4 0 000 2.8h15.29a3.24 3.24 0 110 6.48H48.64a1.4 1.4 0 100 2.79h15.29a3.25 3.25 0 110 6.49H48.64a1.4 1.4 0 100 2.79h10.72a3.25 3.25 0 110 6.49h-19a1.4 1.4 0 100 2.79h19a6 6 0 005.09-9.3 6 6 0 003.35-10.67 6 6 0 002.2-4.64 6 6 0 00-2.06-4.53A5.64 5.64 0 0070 36.36zm-53.5-4.24v33.61a1.41 1.41 0 01-1.41 1.4H4.19a1.4 1.4 0 01-1.4-1.4V32a1.4 1.4 0 011.4-1.4h10.9A1.41 1.41 0 0116.5 32z" transform="translate(.02 .08)"/><path class="cls-4" d="M22.91 24.12A12.1 12.1 0 1010.77 12a12.14 12.14 0 0012.14 12.12zm0-22A9.87 9.87 0 1113 12a9.9 9.9 0 019.91-9.85z" transform="translate(.02 .08)"/><path class="cls-4" d="M19.15 16.23a4.31 4.31 0 007.53 0 1.12 1.12 0 00-.44-1.52 1.13 1.13 0 00-1.53.44 2.06 2.06 0 01-1.8 1.06 2.09 2.09 0 01-1.8-1.06 1.12 1.12 0 00-2 1.08zm-.29-3.75A1.12 1.12 0 0020 11.36V9.52a1.12 1.12 0 00-2.24 0v1.84a1.12 1.12 0 001.1 1.12zm8.14 0a1.12 1.12 0 001.12-1.12V9.52a1.12 1.12 0 00-2.24 0v1.84A1.12 1.12 0 0027 12.48z" transform="translate(.02 .08)"/></svg>