<svg id="Layer_1" data-name="Layer 1" xmlns="http://www.w3.org/2000/svg" viewBox="0 0 70 59.12"><defs><style>.cls-5{fill:#1b2c38}</style></defs><path d="M284.39 284.25h-50.54a4.09 4.09 0 01-4.08-4.09v-36.73a4.09 4.09 0 014.09-4.09h50.53a4.09 4.09 0 014.09 4.09v36.73a4.09 4.09 0 01-4.09 4.09z" transform="translate(-219.5 -226.15)" fill="#e8e9e1"/><path d="M276.92 273.55h-52.17a4.22 4.22 0 01-4.22-4.22V231.4a4.22 4.22 0 014.22-4.22h52.17a4.22 4.22 0 014.22 4.22v37.93a4.22 4.22 0 01-4.22 4.22z" transform="translate(-219.5 -226.15)" fill="#f1f2ec"/><path d="M281.14 236.47h-60.61v-5.07a4.22 4.22 0 014.22-4.22h52.17a4.22 4.22 0 014.22 4.22z" transform="translate(-219.5 -226.15)" fill="#ffcb05"/><path d="M274.63 267.8h-12.79a1.13 1.13 0 01-1.14-1.13v-22a1.14 1.14 0 011.14-1.13h12.79a1.13 1.13 0 011.13 1.13v22a1.12 1.12 0 01-1.13 1.13z" transform="translate(-219.5 -226.15)" fill="#fc3e59"/><path class="cls-5" d="M229.31 231.82a1.2 1.2 0 11-1.2-1.2 1.21 1.21 0 011.2 1.2zm4.29 0a1.21 1.21 0 11-1.2-1.2 1.21 1.21 0 011.2 1.2zm4.29 0a1.21 1.21 0 11-1.2-1.2 1.21 1.21 0 011.2 1.2z" transform="translate(-219.5 -226.15)"/><path class="cls-5" d="M284.39 238.32h-2.22v-6.92a5.26 5.26 0 00-5.25-5.25h-52.17a5.26 5.26 0 00-5.25 5.25v37.93a5.25 5.25 0 005.25 5.24h4v5.59a5.13 5.13 0 005.11 5.12h37.08a1 1 0 100-2.06h-37.09a3.07 3.07 0 01-3.06-3.06v-5.59h46.13a5.25 5.25 0 005.25-5.24v-29h2.22a3.06 3.06 0 013.06 3.06v36.73a3.06 3.06 0 01-3.06 3.06h-8.7a1 1 0 000 2.06h8.7a5.12 5.12 0 005.11-5.12v-36.69a5.11 5.11 0 00-5.11-5.11zm-4.27 31a3.19 3.19 0 01-3.2 3.19h-52.17a3.2 3.2 0 01-3.2-3.19v-31.83h58.57zm0-33.89h-58.57v-4a3.21 3.21 0 013.2-3.2h52.17a3.21 3.21 0 013.2 3.2z" transform="translate(-219.5 -226.15)"/><path class="cls-5" d="M261.84 268.83h12.79a2.16 2.16 0 002.16-2.16v-22a2.16 2.16 0 00-2.16-2.15h-12.79a2.15 2.15 0 00-2.16 2.15v6.4a1 1 0 002.05 0v-6.4a.11.11 0 01.11-.1h12.79a.11.11 0 01.11.1v22a.11.11 0 01-.11.11h-12.79a.11.11 0 01-.11-.11v-10.81a1 1 0 00-2.05 0v10.81a2.16 2.16 0 002.16 2.16zm-9.3-9.01h2.67a1 1 0 000-2.05h-2.67a1 1 0 100 2.05zm-25.63 0h19a1 1 0 000-2.05h-19a1 1 0 100 2.05zm9.01 6.96h-9a1 1 0 100 2.05h9a1 1 0 000-2.05zm8.79 0h-2.2a1 1 0 100 2.05h2.2a1 1 0 100-2.05zm10.5-4.51h-28.3a1 1 0 100 2.05h28.3a1 1 0 000-2.05zm-30-9.56v-.15l2.77-9a1.45 1.45 0 012.39 0l2.77 9a1 1 0 010 .15c0 .44-.68.77-1.18.77-.31 0-.56-.1-.63-.37l-.54-1.91h-3.29l-.54 1.91c-.07.27-.32.37-.63.37-.44 0-1.12-.32-1.12-.77zm5.23-3l-1.24-4.4-1.25 4.4zm7.1-6.71c1.89 0 3.36.88 3.36 3.28v3.91c0 2.39-1.47 3.28-3.36 3.28H235c-.49 0-.82-.27-.82-.57v-9.33c0-.3.33-.57.82-.57zm-1.49 1.63v7.21h1.49c.94 0 1.5-.53 1.5-1.65v-3.91c0-1.12-.56-1.65-1.5-1.65zm10.79 6.06c0-2.15-4.6-1.49-4.6-4.89 0-2.14 1.83-2.87 3.48-2.87.84 0 2.72.2 2.72 1.15 0 .33-.23 1-.74 1s-.78-.55-2-.55c-1 0-1.62.42-1.62 1.11 0 1.77 4.6 1.16 4.6 4.87 0 2.05-1.43 3.11-3.41 3.11s-3.31-1-3.31-1.78c0-.4.37-1 .82-1s1 1.1 2.43 1.1c.88-.01 1.63-.39 1.63-1.25z" transform="translate(-219.5 -226.15)"/></svg>