<svg id="Icon_Set" data-name="Icon Set" xmlns="http://www.w3.org/2000/svg" viewBox="0 0 130 130"><defs><style>.cls-1{fill:#263238}</style></defs><path class="cls-1" d="M32 78.76A10.26 10.26 0 1142.26 68.5 10.27 10.27 0 0132 78.76zm0-18.24a8 8 0 108 8 8 8 0 00-8-8z" transform="translate(33 -3.5)"/><path d="M56.19 44.31L29.48 59.77A9 9 0 0140.73 71z" transform="translate(33 -3.5)" fill="#fc3e59"/><path class="cls-1" d="M40.73 72.16a1.17 1.17 0 01-.45-.09 1.15 1.15 0 01-.65-1.37 7.71 7.71 0 00.37-2.2 8 8 0 00-8-8 7.88 7.88 0 00-2.21.35 1.14 1.14 0 01-1.36-.65 1.13 1.13 0 01.48-1.43l26.71-15.45a1.12 1.12 0 011.38.18 1.14 1.14 0 01.18 1.38L41.71 71.59a1.14 1.14 0 01-.98.57zm-6.68-13.72a10.3 10.3 0 018 8l11-19z" transform="translate(33 -3.5)"/><path d="M32 77.62a9.12 9.12 0 01-9.12-9.12 8.86 8.86 0 01.4-2.53L7.81 92.69l26.71-15.47a8.74 8.74 0 01-2.52.4z" transform="translate(33 -3.5)" fill="#ffcb05"/><path class="cls-1" d="M7.81 93.83A1.2 1.2 0 017 93.5a1.15 1.15 0 01-.18-1.38L22.29 65.4a1.14 1.14 0 012.08.89A7.88 7.88 0 0024 68.5a7.87 7.87 0 0010.19 7.63 1.14 1.14 0 01.88 2.08L8.38 93.68a1.18 1.18 0 01-.57.15zm14.13-23.28l-11 19 19-11a10.28 10.28 0 01-8-8zm-53.8-.91A1.14 1.14 0 01-33 68.5a65.08 65.08 0 0165-65 1.14 1.14 0 110 2.28A62.8 62.8 0 00-30.72 68.5a1.14 1.14 0 01-1.14 1.14zm70.7-63.86h-2.28a1.14 1.14 0 010-2.28h2.28a1.14 1.14 0 110 2.28zM32 133.5a1.14 1.14 0 010-2.28A62.8 62.8 0 0094.72 68.5a1.14 1.14 0 012.28 0 65.08 65.08 0 01-65 65zm-4.56 0h-2.28a1.14 1.14 0 010-2.28h2.28a1.14 1.14 0 110 2.28z" transform="translate(33 -3.5)"/><path d="M32 13.76A54.74 54.74 0 1086.74 68.5 54.74 54.74 0 0032 13.76zm0 98.07A43.33 43.33 0 1175.33 68.5 43.33 43.33 0 0132 111.83z" transform="translate(33 -3.5)" fill="#27c7cd"/><path class="cls-1" d="M32 124.38A55.88 55.88 0 1187.88 68.5 55.95 55.95 0 0132 124.38zM32 14.9a53.6 53.6 0 1053.6 53.6A53.67 53.67 0 0032 14.9zm0 98.1a44.47 44.47 0 1144.47-44.5A44.52 44.52 0 0132 113zm0-86.66A42.19 42.19 0 1074.19 68.5 42.23 42.23 0 0032 26.31zm47.89-16h-9.12a1.14 1.14 0 010-2.28h9.12a1.14 1.14 0 110 2.28z" transform="translate(33 -3.5)"/><path class="cls-1" d="M75.33 14.9a1.14 1.14 0 01-1.14-1.14V4.64a1.14 1.14 0 012.28 0v9.12a1.14 1.14 0 01-1.14 1.14zm20.53 10.27h-9.12a1.15 1.15 0 010-2.29h9.12a1.15 1.15 0 010 2.29z" transform="translate(33 -3.5)"/><path class="cls-1" d="M91.3 29.73a1.14 1.14 0 01-1.14-1.14v-9.13a1.14 1.14 0 012.28 0v9.13a1.14 1.14 0 01-1.14 1.14z" transform="translate(33 -3.5)"/></svg>