<svg id="Layer_1" data-name="Layer 1" xmlns="http://www.w3.org/2000/svg" viewBox="0 0 70 70"><defs><style>.cls-1{fill:#27c7cd}.cls-2{fill:#20afab}.cls-5{fill:#1b2c38}</style></defs><path class="cls-1" d="M68.87 18.17v50.7l-16.93-6.02-4.52-25.35 4.52-25.35 16.93 6.02z"/><path class="cls-2" d="M51.94 12.15v50.7L35 68.87l-3.01-25.35L35 18.17l16.94-6.02z"/><path class="cls-1" d="M35 18.17v50.7l-16.94-6.02-4.51-25.35 4.51-25.35L35 18.17z"/><path class="cls-2" d="M18.06 12.15v50.7L1.13 68.87v-50.7l16.93-6.02z"/><path d="M58.77 16.43C58.77 28.67 44.94 40 44.94 40A2.43 2.43 0 0142 40S28.17 28.67 28.17 16.43a15.3 15.3 0 0130.6 0z" fill="#fc3e59"/><path d="M43.47 24.12a7.7 7.7 0 117.7-7.69 7.71 7.71 0 01-7.7 7.69z" fill="#fff"/><path class="cls-5" d="M69.25 17.11l-5.51-2a1.13 1.13 0 10-.74 2.17L67.74 19v48.3l-14.67-5.25V39.58a1.13 1.13 0 00-2.26 0v22.47l-14.68 5.22V39.59a1.13 1.13 0 00-2.26 0v27.68L19.2 62.05V22.69a1.13 1.13 0 10-2.26 0v39.36L2.26 67.27V19l14.68-5.22v4.42a1.13 1.13 0 002.26 0v-4.45l4.21 1.5a1.13 1.13 0 00.75-2.13l-5.72-2h-.68l-16.94 6A1.12 1.12 0 000 18.17v50.7a1.13 1.13 0 001.51 1.06l16.56-5.88 16.55 5.88h.74l16.56-5.88 16.55 5.88a1.06 1.06 0 00.38.07 1.1 1.1 0 00.65-.21 1.12 1.12 0 00.48-.92v-50.7a1.12 1.12 0 00-.73-1.06z"/><path class="cls-5" d="M41.28 40.89a3.48 3.48 0 002.19.75 3.43 3.43 0 002.18-.75 51.71 51.71 0 007.09-7.38c4.75-6 7.15-11.74 7.15-17.08a16.43 16.43 0 10-32.85 0c0 5.34 2.41 11.09 7.16 17.08a52.61 52.61 0 007.08 7.38zm2.19-38.63a14.18 14.18 0 0114.17 14.17C57.64 28 44.36 39 44.22 39.14a1.26 1.26 0 01-1.5 0C42.58 39 29.3 28 29.3 16.43A14.18 14.18 0 0143.47 2.26z"/><path class="cls-5" d="M52.29 16.43a8.83 8.83 0 10-8.82 8.82 8.83 8.83 0 008.82-8.82zm-15.39 0A6.57 6.57 0 1143.47 23a6.57 6.57 0 01-6.57-6.57z"/></svg>