<svg id="Layer_1" data-name="Layer 1" xmlns="http://www.w3.org/2000/svg" viewBox="0 0 70 70"><defs><style>.cls-3{fill:#1b2c38}</style></defs><path d="M240 206.17A33.83 33.83 0 10273.83 240 33.82 33.82 0 00240 206.17zm0 56A22.17 22.17 0 11262.17 240 22.18 22.18 0 01240 262.17z" transform="translate(-205 -205)" fill="#fc3e59"/><path d="M262.17 240A22.17 22.17 0 11240 217.83 22.18 22.18 0 01262.17 240z" transform="translate(-205 -205)" fill="#ffcb05"/><path class="cls-3" d="M240 205a35 35 0 1035 35 35 35 0 00-35-35zm0 67.67A32.67 32.67 0 11272.67 240 32.67 32.67 0 01240 272.67z" transform="translate(-205 -205)"/><path class="cls-3" d="M245.83 234.17h2.34c0-3.52-3-6.44-7-6.92v-2.42h-2.34v2.42c-4 .48-7 3.4-7 6.92s3 6.43 7 6.92v9.32c-2.66-.44-4.66-2.32-4.66-4.58h-2.34c0 3.52 3 6.44 7 6.92v2.42h2.34v-2.42c4-.48 7-3.4 7-6.92s-3-6.43-7-6.92v-9.32c2.66.41 4.66 2.32 4.66 4.58zm-11.66 0c0-2.26 2-4.14 4.66-4.58v9.15c-2.66-.44-4.66-2.32-4.66-4.57zm11.66 11.66c0 2.26-2 4.14-4.66 4.58v-9.15c2.66.44 4.66 2.32 4.66 4.57z" transform="translate(-205 -205)"/><path class="cls-3" d="M265.67 238.83h-2.4a23.29 23.29 0 00-22.1-22.1v-2.4h-2.34v2.4a23.29 23.29 0 00-22.1 22.1h-2.4v2.34h2.4a23.29 23.29 0 0022.1 22.1v2.4h2.34v-2.4a23.29 23.29 0 0022.1-22.1h2.4zm-24.5 22.11v-2.27h-2.34v2.27a21 21 0 01-19.77-19.77h2.27v-2.34h-2.27a21 21 0 0119.77-19.77v2.27h2.34v-2.27a21 21 0 0119.77 19.77h-2.27v2.34h2.27a21 21 0 01-19.77 19.77z" transform="translate(-205 -205)"/></svg>