<svg id="Capa_1" data-name="Capa 1" xmlns="http://www.w3.org/2000/svg" viewBox="0 0 70 70"><defs><style>.cls-1{fill:#27c7cd}.cls-2{fill:#fc3e59}.cls-3{fill:#ffcb05}.cls-4{fill:#b3e59f}</style></defs><path class="cls-1" d="M286.61 282.22a4.39 4.39 0 104.39 4.39 4.4 4.4 0 00-4.39-4.39z" transform="translate(-221 -221)"/><path class="cls-2" d="M231.08 237.89a4.39 4.39 0 104.39 4.39 4.4 4.4 0 00-4.39-4.39z" transform="translate(-221 -221)"/><path class="cls-3" d="M250.73 221a4.39 4.39 0 104.39 4.39 4.4 4.4 0 00-4.39-4.39z" transform="translate(-221 -221)"/><path class="cls-4" d="M283.56 249.34a4.39 4.39 0 104.39 4.39 4.4 4.4 0 00-4.39-4.39z" transform="translate(-221 -221)"/><path class="cls-2" d="M277.53 226.61a4.39 4.39 0 104.39 4.39 4.4 4.4 0 00-4.39-4.39z" transform="translate(-221 -221)"/><path class="cls-3" d="M248.41 275.33a4.39 4.39 0 104.39 4.39 4.4 4.4 0 00-4.39-4.39z" transform="translate(-221 -221)"/><path class="cls-4" d="M225.39 266.08a4.39 4.39 0 104.39 4.39 4.4 4.4 0 00-4.39-4.39z" transform="translate(-221 -221)"/><circle class="cls-1" cx="34.85" cy="34.97" r="13.51"/><path d="M261.52 253a5.63 5.63 0 11-5.62-5.62 5.62 5.62 0 015.62 5.62z" transform="translate(-221 -221)" fill="#f1f2ec"/><path class="cls-2" d="M247.92 266.91c.18-4.73 3.5-8.29 8-8.29a8.1 8.1 0 018 8.19 12.88 12.88 0 01-8.06 2.67 13.07 13.07 0 01-7.94-2.57z" transform="translate(-221 -221)"/><path class="cls-3" d="M255.9 247.39a5.62 5.62 0 00-5.63 5.62 5.87 5.87 0 00.15 1.26l7.48-2.46 3.48 2.44a5.68 5.68 0 00.14-1.24 5.62 5.62 0 00-5.62-5.62z" transform="translate(-221 -221)"/><path d="M286.61 282.22a4.34 4.34 0 00-2.23.61l-17.19-17.75a14.63 14.63 0 003.2-9.11l9-.83a4.38 4.38 0 10-.19-2l-9 .82a14.65 14.65 0 00-4.4-8.51l9.6-10.54a4.39 4.39 0 10-2.31-3.87 4.32 4.32 0 00.79 2.5l-9.67 10.6a14.6 14.6 0 00-9.69-2.62l-2.1-12.06a4.39 4.39 0 10-2 .35l2.1 12a14.69 14.69 0 00-8.63 5.85l-8.57-4.35a4.17 4.17 0 00.12-.94 4.39 4.39 0 10-1.05 2.77l8.45 4.28a14.64 14.64 0 00-.74 11.33l-13.41 6.87a4.35 4.35 0 10.94 1.83l13.28-6.81a14.55 14.55 0 007.47 6.82l-1.76 5.89h-.24a4.41 4.41 0 102.2.6l1.75-5.85a14.65 14.65 0 004.42.4 1 1 0 00-.13-2.05 12.5 12.5 0 01-7.68-2.05 6.95 6.95 0 0113.89-.07 13.65 13.65 0 01-1.54.88 1 1 0 00.89 1.85 14.65 14.65 0 003.58-2.45l17.11 17.67a4.39 4.39 0 103.71-2zm-9.08-53.56a2.34 2.34 0 11-2.34 2.34 2.34 2.34 0 012.34-2.34zm-29.14-3.27a2.34 2.34 0 112.34 2.34 2.34 2.34 0 01-2.34-2.34zM231 244.62a2.34 2.34 0 112.38-2.3 2.34 2.34 0 01-2.38 2.3zm-5.65 28.19a2.34 2.34 0 112.34-2.34 2.34 2.34 0 01-2.3 2.34zm23 9.25a2.34 2.34 0 112.34-2.34 2.34 2.34 0 01-2.28 2.34zm35.15-30.67a2.34 2.34 0 11-2.34 2.34 2.34 2.34 0 012.4-2.34zm-31.84 3.53l6-2 2.45 1.71a4.63 4.63 0 01-8.39.29zm6.77-3.95c-.63-.44-1.6.1-2.23.31l-5 1.62a4.59 4.59 0 019.14-.56zm1.21 7.48a6.64 6.64 0 10-7.6 0 9.25 9.25 0 00-5 6.43 12.62 12.62 0 01-3.04-12.83 12.48 12.48 0 1120.68 12.75 9.24 9.24 0 00-4.98-6.35zM286.61 289a2.34 2.34 0 112.34-2.34 2.34 2.34 0 01-2.34 2.34z" transform="translate(-221 -221)" fill="#1b2c38"/></svg>