<svg xmlns="http://www.w3.org/2000/svg" viewBox="0 0 130 130"><defs><style>.cls-1{fill:#fc3e59}.cls-2{fill:#ffcb05}.cls-5{fill:#1b2c38}</style></defs><circle class="cls-1" cx="65" cy="65" r="65" id="Layer_1" data-name="Layer 1"/><g id="Layer_2" data-name="Layer 2"><path class="cls-2" d="M98.97 98.97H31.03V56.23L65 31.03l33.97 25.2v42.74z"/><path fill="#e8e9e1" d="M35.41 58.42h59.18v26.3H35.41z"/><path fill="#f1f2ec" d="M35.41 35.41h59.18v26.3H35.41z"/><path class="cls-2" d="M98.97 98.97H31.03l67.94-42.74v42.74z"/><path class="cls-2" d="M98.97 98.97H31.03V56.23l67.94 42.74z"/><path class="cls-1" d="M78.15 43.08h8.77v10.96h-8.77z"/><path class="cls-5" d="M370.74 407.59a.49.49 0 000-.12v-42.74a1 1 0 00-.42-.82l-4-3v-17a1 1 0 00-1-1H342l-5.61-4.18a1 1 0 00-1.22 0l-5.64 4.18h-23.37a1 1 0 00-1 1v17l-4 3a1 1 0 00-.42.82v42.74a1 1 0 001 1h67.94a1 1 0 001.06-.88zm-33.06-21.49l31-19.51v39zm30.22-21.44l-1.53 1v-2.11zm-32.15-23.85l2.8 2.07H333zm28.56 4.13v22l-3.59 2.26h-10a1 1 0 100 2.06h6.7l-21.7 13.65-21.7-13.65h31.77a1 1 0 100-2.06h-35l-3.59-2.26v-22zm-59.18 20.69l-1.53-1 1.53-1.14zm-2.33 40.82v-39.86l63.36 39.86z" transform="translate(-270.75 -308.5)"/><path class="cls-5" d="M348.9 363.57h8.77a1 1 0 001-1v-11a1 1 0 00-1-1h-8.77a1 1 0 00-1 1v11a1 1 0 001 1zm1-11h6.71v8.9h-6.71zm-36.07.04h30.69a1 1 0 000-2.06h-30.69a1 1 0 100 2.06zm0 5.48h16.51a1 1 0 000-2.06h-16.51a1 1 0 000 2.06zm30.69-2.09h-9.87a1 1 0 000 2.06h9.87a1 1 0 000-2.06zm-30.69 7.57h22a1 1 0 000-2.06h-22a1 1 0 000 2.06zm30.69-2.06h-4.39a1 1 0 000 2.06h4.39a1 1 0 000-2.06zm-3.29 12.06a1 1 0 100 2.05h5.48a1 1 0 100-2.05zm-3.36 1.03a1 1 0 00-1-1h-12.08a1 1 0 100 2.05h12.06a1 1 0 001.02-1.05zm-4.24 4.45h-3.36a1 1 0 100 2.05h3.36a1 1 0 000-2.05zm6.5 0h-2.19a1 1 0 100 2.05h2.19a1 1 0 100-2.05z" transform="translate(-270.75 -308.5)"/></g></svg>