<svg id="Layer_1" data-name="Layer 1" xmlns="http://www.w3.org/2000/svg" viewBox="0 0 70 55.2"><defs><style>.cls-6{fill:#1b2c38}</style></defs><path d="M290 108.17h-68a34 34 0 1167.94 0z" transform="translate(-221 -54)" fill="#27c7cd"/><path d="M264.47 91.39c0-1.32-3.79-2.4-8.47-2.4s-8.47 1.08-8.47 2.4 3.79 2.4 8.47 2.4 8.47-1.07 8.47-2.4z" transform="translate(-221 -54)" opacity=".18" fill="#1b2c38"/><path d="M258.87 99.73a3.58 3.58 0 01-3.58 3.58h-32.92A33.75 33.75 0 01228 89h12.44a3.58 3.58 0 013.56 3.57 3.58 3.58 0 003.58 3.58h7.74a3.58 3.58 0 013.58 3.58zm31.13 8.44h-13.71a4.16 4.16 0 010-8.32H289a34 34 0 011 8.32zm-6.3-19.68h-25.21a3.72 3.72 0 110-7.43h18a34.2 34.2 0 017.21 7.43z" transform="translate(-221 -54)" fill="#95d133"/><path d="M270 69c0 6.44-9.74 17.59-12.94 21.08a1.37 1.37 0 01-2 0c-3.2-3.49-12.94-14.64-12.94-21.08A14 14 0 01270 69z" transform="translate(-221 -54)" fill="#fc3e59"/><path d="M263.59 68.68a7.59 7.59 0 11-7.59-7.59 7.58 7.58 0 017.59 7.59z" transform="translate(-221 -54)" fill="#f1f2ec"/><path class="cls-6" d="M284.55 87.92a35 35 0 00-15.61-12.28A15.54 15.54 0 00271 69a15 15 0 00-30 0 15.35 15.35 0 002 6.68 33.9 33.9 0 00-5.29 2.64 1 1 0 00-.34 1.41 1 1 0 00.88.49 1 1 0 00.53-.15 32.36 32.36 0 015.21-2.58 64 64 0 004.39 6.4 1 1 0 101.62-1.25c-4.56-6-7-10.66-7-13.64a12.92 12.92 0 0125.84 0c0 2.51-1.76 6.33-5.08 11.06a98.56 98.56 0 01-7.59 9.33.34.34 0 01-.5 0c-.62-.68-1.6-1.77-2.73-3.1a1 1 0 00-1.57 1.32c1.15 1.36 2.15 2.47 2.79 3.17a2.4 2.4 0 003.52 0c.34-.37.71-.78 1.11-1.24h24.29a32.82 32.82 0 014.45 9.31h-2.87a1 1 0 000 2.05h3.4a32.9 32.9 0 01.79 6.28h-12.56a3.14 3.14 0 010-6.27h3a1 1 0 100-2.05h-3a5.2 5.2 0 00-4.13 8.33h-49.09c0-1 .1-1.88.2-2.81h32a4.61 4.61 0 100-9.21h-7.74a2.56 2.56 0 01-2.53-2.6 4.6 4.6 0 00-4.6-4.6H230a32.72 32.72 0 015.09-5.24 1 1 0 00-1.3-1.58 34.9 34.9 0 00-12.76 27 1 1 0 001 1H290a1 1 0 001-1 34.77 34.77 0 00-6.45-20.23zM273.16 80h-6.83c.57-.85 1.11-1.72 1.62-2.58a33.66 33.66 0 015.21 2.58zm-8.26 2h11.24a33.65 33.65 0 015.49 5.38h-21c1.37-1.5 2.85-3.38 4.27-5.3zm-24.51 8a2.55 2.55 0 012.55 2.55 4.62 4.62 0 004.61 4.61h7.74a2.56 2.56 0 012.56 2.55 2.56 2.56 0 01-2.56 2.56h-31.71A32.68 32.68 0 01228.5 90z" transform="translate(-221 -54)"/><path class="cls-6" d="M264.61 68.68a8.61 8.61 0 10-8.61 8.61 8.63 8.63 0 008.61-8.61zm-15.17 0a6.56 6.56 0 116.56 6.56 6.57 6.57 0 01-6.56-6.56zm27.46-2.95a1 1 0 00-1 1 1 1 0 001 1h1.53a1 1 0 100-2.05zm-.65-1.61a1 1 0 00.51-.13l1.33-.76a1 1 0 10-1-1.78l-1.33.76a1 1 0 00.51 1.91zm-.54 7.18l1.33.77a1 1 0 00.51.14 1 1 0 00.52-1.91l-1.33-.77a1 1 0 00-1 1.77zm-42.14-3.52h1.53a1 1 0 001-1 1 1 0 00-1-1h-1.53a1 1 0 100 2zm1.67 1.76l-1.33.76a1 1 0 00.51 1.91.94.94 0 00.51-.14l1.33-.76a1 1 0 10-1-1.77zm-1.31-6.32l1.33.77a1 1 0 00.51.14 1 1 0 00.52-1.91l-1.29-.77a1 1 0 10-1 1.77z" transform="translate(-221 -54)"/></svg>