<svg xmlns="http://www.w3.org/2000/svg" viewBox="0 0 130 130"><defs><style>.cls-1{fill:#ffcb05}.cls-2{fill:#fff5f5}.cls-5{fill:#1b2c38}</style></defs><circle class="cls-1" cx="65" cy="65" r="65" id="Layer_1" data-name="Layer 1"/><g id="Layer_2" data-name="Layer 2"><path class="cls-2" d="M312.87 352.63h64v36.9h-64z" transform="translate(-279.88 -315.4)"/><path d="M376.88 352.63h-64a2 2 0 01-2-2v-2.23a2 2 0 012-2h64a2 2 0 012 2v2.26a2 2 0 01-2 1.97zm0 43.1h-64a2 2 0 01-2-2v-2.23a2 2 0 012-2h64a2 2 0 012 2v2.27a2 2 0 01-2 1.96z" transform="translate(-279.88 -315.4)" fill="#6c6ff2"/><path class="cls-1" d="M348 401.41v-5.68h-6.2v5.68a1.66 1.66 0 01-.68 1.33 6.42 6.42 0 107.5 0 1.66 1.66 0 01-.62-1.33z" transform="translate(-279.88 -315.4)"/><path class="cls-2" d="M347.48 408a2.61 2.61 0 11-2.6-2.61 2.6 2.6 0 012.6 2.61z" transform="translate(-279.88 -315.4)"/><path d="M338.46 371.08a9.13 9.13 0 11-9.13-9.14 9.14 9.14 0 019.13 9.14z" transform="translate(-279.88 -315.4)" fill="#fc3e59"/><path class="cls-1" d="M338.46 371.08a9.13 9.13 0 11-9.13-9.14v6.79a2.35 2.35 0 002.35 2.35z" transform="translate(-279.88 -315.4)"/><path class="cls-5" d="M344.88 411.59a3.64 3.64 0 10-3.64-3.64 3.64 3.64 0 003.64 3.64zm0-5.23a1.59 1.59 0 11-1.59 1.59 1.59 1.59 0 011.59-1.59z" transform="translate(-279.88 -315.4)"/><path class="cls-5" d="M376.88 360a1 1 0 001-1v-5.47a3 3 0 002-2.82v-2.31a3 3 0 00-3-3h-64a3 3 0 00-3 3v2.26a3 3 0 002 2.82v35.21a3 3 0 00-2 2.81v2.27a3 3 0 003 3h27.9v4.65a.61.61 0 01-.26.5 7.46 7.46 0 004.08 13.49h.29a7.44 7.44 0 007.44-7.45 7.48 7.48 0 00-3.1-6.05.62.62 0 01-.24-.49v-4.65h8.48a1 1 0 100-2.05h-44.6a1 1 0 01-.94-.94v-2.28a.94.94 0 01.94-.94h64a.94.94 0 01.94.94v2.27a1 1 0 01-.94.94h-14.73a1 1 0 100 2.05h14.74a3 3 0 003-3v-2.26a3 3 0 00-2-2.81v-25a1 1 0 00-2.05 0v24.8h-62v-34.83h62V359a1 1 0 001.05 1zm-35.16 43.59a2.69 2.69 0 001.11-2.16v-4.65h4.09v4.65a2.7 2.7 0 001.1 2.16 5.39 5.39 0 01.59 8.27 5.3 5.3 0 01-3.95 1.5 5.4 5.4 0 01-2.94-9.77zm-28.85-52a.94.94 0 01-.94-.94v-2.25a.94.94 0 01.94-.94h64a.94.94 0 01.94.94v2.26a.94.94 0 01-.94.94z" transform="translate(-279.88 -315.4)"/><path class="cls-5" d="M319.17 371.08a10.16 10.16 0 0020.26 1 8.94 8.94 0 00.05-1 10.16 10.16 0 10-20.31 0zm18.18 1.14a8.07 8.07 0 01-.4 1.61 8.21 8.21 0 01-1.33 2.36 8.24 8.24 0 01-2.7 2.16 8.07 8.07 0 01-11.2-4.48 8.31 8.31 0 01-.16-5.1 8.5 8.5 0 011.39-2.69 8 8 0 013.58-2.59 8.47 8.47 0 011.78-.46c-.09 1.89 0 3.81 0 5.7a3.39 3.39 0 003.38 3.38h5.68s-.02.07-.02.11zm-7-9.19a8.13 8.13 0 017 7h-5.68a1.33 1.33 0 01-1.33-1.32V363zM343.7 367h1.95a1 1 0 000-2.06h-1.95a1 1 0 000 2.06zm25.85-2h-19.09a1 1 0 000 2.06h19.09a1 1 0 000-2.06zm0 10.15h-7.92a1 1 0 000 2.05h7.92a1 1 0 100-2.05zm-25.85 0a1 1 0 100 2.05h13.12a1 1 0 000-2.05zm25.85-5.1H343.7a1 1 0 100 2.06h25.85a1 1 0 000-2.06z" transform="translate(-279.88 -315.4)"/></g></svg>