<svg xmlns="http://www.w3.org/2000/svg" viewBox="0 0 130 130"><defs><style>.cls-1{fill:#27c7cd;}.cls-2{fill:#fff5f5;}.cls-3{fill:#fc3e59;}.cls-4{fill:#7c8388;}.cls-5{fill:#6c6ff2;}.cls-6{fill:#1b2c38;}</style></defs><title>Marketing-Strategy</title><g id="Layer_1" data-name="Layer 1"><circle class="cls-1" cx="65" cy="65" r="65"/></g><g id="Layer_2" data-name="Layer 2"><path class="cls-2" d="M326,532a34,34,0,1,1-34-34A34,34,0,0,1,326,532Z" transform="translate(-227 -467)"/><path class="cls-3" d="M317.6,532c0-13.65-11.46-24.72-25.6-24.72S266.4,518.35,266.4,532s11.46,24.72,25.6,24.72S317.6,545.65,317.6,532Z" transform="translate(-227 -467)"/><path class="cls-2" d="M308.63,532c0-8.87-7.45-16-16.63-16s-16.63,7.18-16.63,16,7.45,16,16.63,16S308.63,540.87,308.63,532Z" transform="translate(-227 -467)"/><path class="cls-3" d="M300,532a8,8,0,1,0-8,7.68A7.83,7.83,0,0,0,300,532Z" transform="translate(-227 -467)"/><path class="cls-4" d="M305.61,522.35l9.88,2.58a2.22,2.22,0,0,0,2.12-.57L324,518a2.21,2.21,0,0,0-.84-3.65l-7.09-2.42Z" transform="translate(-227 -467)"/><path class="cls-4" d="M301.78,518.52l-2.58-9.88a2.22,2.22,0,0,1,.57-2.12l6.38-6.37a2.21,2.21,0,0,1,3.65.84l2.42,7.09Z" transform="translate(-227 -467)"/><path class="cls-5" d="M312.22,508.08l3.83,3.83-21.83,21.7a2.71,2.71,0,0,1-3.83-3.83Z" transform="translate(-227 -467)"/><path class="cls-6" d="M324.49,518.93l.22-.22a3.23,3.23,0,0,0-1.24-5.35l-2.36-.81a35.3,35.3,0,0,0-9.55-9.58l-.79-2.31a3.24,3.24,0,0,0-5.35-1.24l-.17.17a34.92,34.92,0,1,0,19.24,19.34Zm-9.2-10.22a32,32,0,0,1,2.41,2.68l-1.09-.38-3.49-3.49-.39-1.12A32.74,32.74,0,0,1,315.29,508.71Zm-25.63,25.63a3.74,3.74,0,0,0,5.28,0l3.82-3.79a6.32,6.32,0,0,1,.17,1.45,6.94,6.94,0,1,1-6.93-6.65,7.71,7.71,0,0,1,1.28.11l-3.62,3.59A3.74,3.74,0,0,0,289.66,534.34ZM292,523.29a8.71,8.71,0,1,0,9,8.71,8.32,8.32,0,0,0-.59-3.08l4.86-4.83A14.57,14.57,0,0,1,307.6,532c0,8.29-7,15-15.6,15s-15.6-6.74-15.6-15,7-15,15.6-15a16,16,0,0,1,7.79,2L295,523.78A9.11,9.11,0,0,0,292,523.29Zm1.49,9.6a1.68,1.68,0,1,1-2.38-2.38l11.16-11.09a.8.8,0,0,0,.24-.18l9.71-9.71,2.38,2.38Zm14.21-32.36.28,0a1.16,1.16,0,0,1,.85.77L311,507.8l-8.73,8.68-2.12-8.1a1.18,1.18,0,0,1,.31-1.13l6.38-6.38A1.15,1.15,0,0,1,307.7,500.53Zm7.59,54.76a32.92,32.92,0,1,1-11.63-54.11l-4.61,4.61a3.36,3.36,0,0,0-.76,1.19,27.69,27.69,0,0,0-6.29-.73,27,27,0,0,0-18.26,7,1,1,0,0,0,1.39,1.52A25,25,0,0,1,292,508.31a25.66,25.66,0,0,1,6.25.78l2.06,7.84a18.08,18.08,0,0,0-8.31-2c-9.74,0-17.66,7.66-17.66,17.08s7.92,17.08,17.66,17.08,17.66-7.66,17.66-17.08a16.54,16.54,0,0,0-2.11-8.08l7.68,2a4.85,4.85,0,0,0,.55.09,23.13,23.13,0,0,1,.79,6c0,13.06-11,23.69-24.57,23.69S267.43,545.06,267.43,532a23,23,0,0,1,4.62-13.83,1,1,0,0,0-1.65-1.23,25,25,0,0,0-5,15.06c0,14.2,11.95,25.75,26.63,25.75S318.63,546.2,318.63,532a24.75,24.75,0,0,0-.86-6.47,2.7,2.7,0,0,0,.56-.45l.66-.65a1,1,0,0,0,0-1.46,1,1,0,0,0-1.45,0l-.66.66a1.18,1.18,0,0,1-1.13.31l-8.14-2.13,8.72-8.72,6.47,2.21a1.16,1.16,0,0,1,.77.85,1.14,1.14,0,0,1-.31,1.1l-2.33,2.33a1,1,0,0,0,0,1.45,1,1,0,0,0,1.46,0l.5-.51a33,33,0,0,1-7.6,34.77Z" transform="translate(-227 -467)"/></g></svg>