<svg id="Layer_1" data-name="Layer 1" xmlns="http://www.w3.org/2000/svg" viewBox="0 0 70 70"><defs><style>.cls-2{fill:#636c78}.cls-7{fill:#1b2c38}</style></defs><path d="M61.85 31.55l-2.49-7.66L65 22.07a2.14 2.14 0 012.69 1.37L68.85 27a2.13 2.13 0 01-1.37 2.69zM45.73 12.29L38 10.08l1.6-5.69a2.14 2.14 0 012.64-1.47l3.64 1a2.13 2.13 0 011.47 2.68z" transform="translate(.01 -.06)" fill="#ffcb05"/><path class="cls-2" d="M62.5 14.8l-7.63-6.75a1.92 1.92 0 01-.17-2.71l3.2-3.61a1.92 1.92 0 012.71-.16l7.63 6.75A1.9 1.9 0 0168.4 11l-3.19 3.61a1.93 1.93 0 01-2.71.19z" transform="translate(.01 -.06)"/><path class="cls-2" d="M55.49 8.6l6.39 5.65-5.65 6.38L49.84 15z" transform="translate(.01 -.06)"/><path d="M65.35 38.58A30.48 30.48 0 1134.87 8.12a30.47 30.47 0 0130.48 30.46z" transform="translate(.01 -.06)" fill="#27c7cd"/><path d="M58.77 38.58a23.9 23.9 0 11-23.9-23.88 23.89 23.89 0 0123.9 23.88z" transform="translate(.01 -.06)" fill="#f1f2ec"/><path d="M37 39.74a3.11 3.11 0 014.29-1l7.23 4.59a3.11 3.11 0 11-3.34 5.25L38 44a3.1 3.1 0 01-1-4.26z" transform="translate(.01 -.06)" fill="#949fac"/><path d="M42.58 38.58a7.71 7.71 0 11-7.71-7.7 7.71 7.71 0 017.71 7.7z" transform="translate(.01 -.06)" fill="#fc3e59"/><path class="cls-7" d="M26.15 38.58a8.72 8.72 0 0013.14 7.52L41 47.19a1 1 0 001.1-1.73l-1.1-.7a8.72 8.72 0 002.2-3.56l4.78 3a2.09 2.09 0 01-2 3.67 1 1 0 00-.84 1.87 4.14 4.14 0 003.92-7.27L43.59 39v-.44a8.73 8.73 0 00-17.45 0zm8.72-6.67a6.67 6.67 0 11-6.67 6.67 6.68 6.68 0 016.67-6.67z" transform="translate(.01 -.06)"/><path class="cls-7" d="M69.83 26.72l-1.16-3.59a3.19 3.19 0 00-4-2l-3 1a30.21 30.21 0 00-2.4-3.36l2.67-3a2.94 2.94 0 001.8.61H64a2.93 2.93 0 002-1l3.19-3.61a2.94 2.94 0 00-.25-4.15L61.29.8a3 3 0 00-4.16.25l-3.2 3.61a3 3 0 00.12 4l-2.7 3.05a32.39 32.39 0 00-3.83-2l.82-2.85A3.17 3.17 0 0046.16 3l-3.64-1a3.17 3.17 0 00-3.91 2.18l-.88 3.12c-.95-.09-1.9-.13-2.86-.13A31.48 31.48 0 0012.6 60.84a31.51 31.51 0 0053-29.41l2.23-.72a3.17 3.17 0 002-3.99zM55.47 6l3.19-3.61a.91.91 0 01.67-.3.92.92 0 01.6.23l7.63 6.74a.9.9 0 01.08 1.26L64.44 14a.89.89 0 01-1.26.08l-7.63-6.8A.89.89 0 0155.47 6zm.11 4l4.85 4.28-2.49 2.82c-.26-.28-.52-.56-.79-.83a32.23 32.23 0 00-4.07-3.44zm-15-5.38A1.11 1.11 0 0142 3.91l3.64 1a1.11 1.11 0 01.76 1.37L45.61 9a31.26 31.26 0 00-5.82-1.49zM55.7 59.39a29.43 29.43 0 118.62-20.81 29.28 29.28 0 01-8.62 20.81zM67.81 28.2a1.12 1.12 0 01-.65.56l-2.16.68a31 31 0 00-2.29-5.56l2.6-.88a1.14 1.14 0 01.85.07 1.1 1.1 0 01.55.65l1.17 3.6a1.07 1.07 0 01-.07.88z" transform="translate(.01 -.06)"/><path class="cls-7" d="M35.9 21.21v-2.6a1 1 0 10-2 0v2.6a1 1 0 002 0zM33.85 56v2.6a1 1 0 102 0V56a1 1 0 00-2 0z" transform="translate(.01 -.06)"/><path class="cls-7" d="M34.87 13.67a24.76 24.76 0 00-8.74 1.58 1 1 0 00.72 1.92A22.85 22.85 0 1115 27.31a23.15 23.15 0 017.83-8.15 1 1 0 10-1.08-1.74 25.11 25.11 0 00-8.53 8.88 24.93 24.93 0 1021.65-12.63z" transform="translate(.01 -.06)"/><path class="cls-7" d="M54.86 39.61a1 1 0 000-2.06h-2.6a1 1 0 000 2.06zm-39.97-2.06a1 1 0 000 2.06h2.6a1 1 0 000-2.06zM3.34 13.93v-2.6a1 1 0 00-2.06 0v2.6a1 1 0 002.06 0z" transform="translate(.01 -.06)"/><path class="cls-7" d="M1 13.66h2.6a1 1 0 100-2.06H1a1 1 0 000 2.06zm9.38-5.77v-2.6a1 1 0 00-2.06 0v2.6a1 1 0 002.06 0z" transform="translate(.01 -.06)"/><path class="cls-7" d="M8.05 7.62h2.6a1 1 0 000-2h-2.6a1 1 0 100 2.05z" transform="translate(.01 -.06)"/></svg>