<svg id="Layer_1" data-name="Layer 1" xmlns="http://www.w3.org/2000/svg" viewBox="0 0 130 130"><defs><style>.cls-1{fill:#fc3e59}.cls-2{fill:#263238}.cls-3{fill:#ffcb05}</style></defs><path class="cls-1" d="M76.61 36.79L68.4 45a43.33 43.33 0 11-12.9-12.9l8.21-8.21a54.74 54.74 0 1012.9 12.9z" transform="translate(33 -3.5)"/><path class="cls-2" d="M-31.86 69.64A1.14 1.14 0 01-33 68.5a65.08 65.08 0 0165-65 1.14 1.14 0 110 2.28A62.8 62.8 0 00-30.72 68.5a1.14 1.14 0 01-1.14 1.14zm70.7-63.86h-2.28a1.14 1.14 0 010-2.28h2.28a1.14 1.14 0 110 2.28zM32 133.5a1.14 1.14 0 010-2.28A62.8 62.8 0 0094.72 68.5a1.14 1.14 0 012.28 0 65.08 65.08 0 01-65 65zm-4.56 0h-2.28a1.14 1.14 0 010-2.28h2.28a1.14 1.14 0 110 2.28zM68.49 10.34h-9.12a1.14 1.14 0 010-2.28h9.12a1.14 1.14 0 110 2.28z" transform="translate(33 -3.5)"/><path class="cls-2" d="M63.93 14.9a1.14 1.14 0 01-1.14-1.14V4.64a1.14 1.14 0 112.28 0v9.12a1.14 1.14 0 01-1.14 1.14zm31.93 23.95h-9.12a1.14 1.14 0 110-2.28h9.12a1.14 1.14 0 010 2.28z" transform="translate(33 -3.5)"/><path class="cls-2" d="M91.3 43.41a1.14 1.14 0 01-1.14-1.14v-9.12a1.14 1.14 0 012.28 0v9.12a1.14 1.14 0 01-1.14 1.14z" transform="translate(33 -3.5)"/><path class="cls-3" d="M127.89 15.01l-12.9 12.9-11.28-1.62-1.62-11.28 12.9-12.91 1.62 11.29 11.28 1.62z"/><path class="cls-2" d="M82 32.55h-.16l-11.3-1.63a1.15 1.15 0 01-1-1L68 18.67a1.13 1.13 0 01.33-1L81.19 4.8a1.12 1.12 0 011.16-.28 1.14 1.14 0 01.77.92l1.49 10.44 10.44 1.5a1.13 1.13 0 01.65 1.93l-12.9 12.9a1.14 1.14 0 01-.8.34zm-10.29-3.76l9.88 1.41 10.89-10.89-9-1.29a1.15 1.15 0 01-1-1L81.19 8 70.3 18.91z" transform="translate(33 -3.5)"/><path class="cls-3" d="M70.71 29.79l-.81-5.64-41.12 41.12a4.56 4.56 0 106.44 6.45L76.35 30.6z" transform="translate(33 -3.5)"/><path class="cls-2" d="M32 74.2a5.7 5.7 0 01-4-9.73l41.09-41.13A1.15 1.15 0 0171 24l.68 4.8 4.8.68a1.15 1.15 0 01.65 1.94L36 72.53a5.69 5.69 0 01-4 1.67zm37.09-47.63L29.58 66.08a3.42 3.42 0 004.84 4.84l39.51-39.51-3.39-.49a1.15 1.15 0 01-1-1z" transform="translate(33 -3.5)"/><path class="cls-1" d="M60.08 53.32L51.44 62a20.88 20.88 0 011 5.51A20.53 20.53 0 0150 78.33 20 20 0 0146.51 83a20.53 20.53 0 11-8-33.95l8.65-8.64a31.93 31.93 0 1012.9 12.9z" transform="translate(33 -3.5)"/><path d="M68.4 45l-8.32 8.32a31.93 31.93 0 11-12.9-12.9l8.32-8.32A43.33 43.33 0 1068.4 45z" transform="translate(33 -3.5)" fill="#fff"/><path class="cls-2" d="M32 124.35A55.86 55.86 0 1164.37 23a1.14 1.14 0 11-1.32 1.86 53.6 53.6 0 1012.63 12.59 1.14 1.14 0 111.86-1.32A55.84 55.84 0 0132 124.35z" transform="translate(33 -3.5)"/><path class="cls-2" d="M32 113a44.46 44.46 0 1124.12-81.86 1.14 1.14 0 01-1.24 1.92 42.36 42.36 0 00-52.71 5.6 42.19 42.19 0 0059.66 59.68 42.38 42.38 0 005.61-52.72 1.14 1.14 0 111.91-1.23A44.65 44.65 0 0163.44 100 44.29 44.29 0 0132 113z" transform="translate(33 -3.5)"/><path class="cls-2" d="M32 101.57A33.06 33.06 0 018.62 45.12a33.27 33.27 0 0139.1-5.71 1.14 1.14 0 01-1.09 2 31 31 0 00-36.4 5.31 30.79 30.79 0 1043.54 43.55 31 31 0 005.31-36.41 1.14 1.14 0 112-1.08 33.26 33.26 0 01-5.7 39.1A32.83 32.83 0 0132 101.57z" transform="translate(33 -3.5)"/><path class="cls-2" d="M32 90.16A21.66 21.66 0 1138.9 48a1.14 1.14 0 11-.73 2.16 19.38 19.38 0 1012.19 12.17 1.14 1.14 0 112.15-.73A21.63 21.63 0 0132 90.16zm38.71-59.23A1.14 1.14 0 0169.9 29l12.9-12.9a1.14 1.14 0 011.61 1.61L71.51 30.6a1.13 1.13 0 01-.8.33z" transform="translate(33 -3.5)"/></svg>