<svg id="Layer_1" data-name="Layer 1" xmlns="http://www.w3.org/2000/svg" viewBox="0 0 70 70"><defs><style>.cls-2{fill:#ffcb05}</style></defs><path d="M278.72 49a11.69 11.69 0 100 16.54 11.68 11.68 0 000-16.54z" transform="translate(-221)" fill="#95d133"/><path class="cls-2" d="M260.8 50.57a18.54 18.54 0 01-13.19-5.46l-1.71-1.72a4.74 4.74 0 116.71-6.7l1.71 1.71a9.16 9.16 0 0012.95 0l10.54-10.54a9.16 9.16 0 000-12.95l-1.71-1.71a9.15 9.15 0 00-13 0 4.74 4.74 0 11-6.7-6.71 18.65 18.65 0 0126.37 0l1.71 1.71a18.67 18.67 0 010 26.37L274 45.11a18.52 18.52 0 01-13.2 5.46z" transform="translate(-221)"/><path d="M242.37 69a18.56 18.56 0 01-13.18-5.46l-1.72-1.71a18.67 18.67 0 010-26.37L238 24.9a18.67 18.67 0 0126.37 0l1.71 1.72a18.65 18.65 0 010 26.37l-10.52 10.53A18.59 18.59 0 01242.37 69zm8.82-40.05a9.09 9.09 0 00-6.47 2.68l-10.54 10.52a9.17 9.17 0 000 13l1.71 1.71a9.15 9.15 0 0013 0l10.53-10.53a9.15 9.15 0 000-13l-1.71-1.71a9.1 9.1 0 00-6.52-2.69z" transform="translate(-221)" fill="#27c7cd"/><path d="M229.14 44.28a1 1 0 01-1-1v-2.93a1 1 0 112.06 0v2.91a1 1 0 01-1.06 1.02zm-2.63 5.45a1 1 0 01-1-1v-1.62a1 1 0 112.05 0v1.59a1 1 0 01-1.05 1.03z" transform="translate(-221)" fill="#8eafe2"/><path class="cls-2" d="M249.25 44.78a4.72 4.72 0 01-3.35-1.39 18.67 18.67 0 010-26.37l10.54-10.53a4.74 4.74 0 016.7 6.71l-10.53 10.53a9.18 9.18 0 000 13 4.74 4.74 0 01-3.36 8.09z" transform="translate(-221)"/><path d="M274.79 56.26h-8.67a1 1 0 000 2.05h8.67a1 1 0 000-2.05zm10.45-48.79l-1.71-1.71A19.68 19.68 0 00258 3.82a1 1 0 00-.22 1.43 1 1 0 001.44.22 17.62 17.62 0 0122.89 1.74l1.71 1.71a17.65 17.65 0 010 24.93l-10.56 10.53a18 18 0 01-1.61 1.42 19.86 19.86 0 00.35-10.69l6.52-6.52a10.2 10.2 0 000-14.41l-1.72-1.71a10.19 10.19 0 00-14.4 0L251.88 23a10.19 10.19 0 000 14.39l1.71 1.71a10.1 10.1 0 007.12 3 8 8 0 01-2 3.45l-3.18 3.18a17.61 17.61 0 01-7.14-4.35l-1.72-1.71a17.56 17.56 0 01-4.51-7.75 17.62 17.62 0 014.51-17.16l9.11-9.11a1 1 0 00-1.45-1.45l-9.11 9.11a19.66 19.66 0 00-3.37 4.51 19.72 19.72 0 00-4.52 3.37l-10.58 10.52a19.71 19.71 0 000 27.83l1.71 1.71a1 1 0 001.45-1.45l-1.71-1.71a17.65 17.65 0 010-24.93l10.53-10.53a18.33 18.33 0 011.63-1.43 19.85 19.85 0 00-.36 10.7l-6.52 6.52a10.2 10.2 0 000 14.41l1.71 1.71a10.19 10.19 0 0014.4 0l6.94-6.94 3.59-3.6a10.19 10.19 0 000-14.4l-1.71-1.71a10.1 10.1 0 00-7.12-3 8.07 8.07 0 012.05-3.45l3.17-3.17a17.63 17.63 0 017.16 4.34l1.71 1.71a17.62 17.62 0 010 24.92L254.83 62.8a17.66 17.66 0 01-21.23 2.82 1 1 0 00-1.4.38 1 1 0 00.38 1.4 19.71 19.71 0 0023.7-3.15l2.33-2.33a12.72 12.72 0 1016.49-16.48l10.14-10.14a19.71 19.71 0 000-27.83zm-37.12 48.62a8.14 8.14 0 01-11.5 0l-1.71-1.71a8.15 8.15 0 010-11.51l5.76-5.76a19.48 19.48 0 004.5 7l1.72 1.71a19.74 19.74 0 007 4.51zM257 32.34l1.71 1.71A8.07 8.07 0 01261 39.8v.25h-.24a8.08 8.08 0 01-5.76-2.38l-1.7-1.7a8.09 8.09 0 01-2.3-5.76V30h.23a8.09 8.09 0 015.77 2.34zm9.87-6.45l-1.71-1.71a19.62 19.62 0 00-7-4.5l5.76-5.76a8.14 8.14 0 0111.5 0l1.72 1.71a8.15 8.15 0 010 11.51l-5.76 5.75a19.54 19.54 0 00-4.56-7zm12 24.72a10.57 10.57 0 012.34 6.67 10.67 10.67 0 01-20.9 3l5.53-5.53a1.16 1.16 0 00.37.07h8.67a1 1 0 000-2.05h-7.12a19.54 19.54 0 002.52-3.59A19.36 19.36 0 00273.4 47a10.79 10.79 0 015.38 3.61zm-4 9.1h-8.67a1 1 0 000 2h8.67a1 1 0 000-2z" transform="translate(-221)" fill="#1b2c38"/></svg>