<svg xmlns="http://www.w3.org/2000/svg" viewBox="0 0 130 130"><defs><style>.cls-3{fill:#95d133}</style></defs><circle cx="65" cy="65" r="65" fill="#ffcb05" id="Layer_2" data-name="Layer 2"/><g id="Layer_1" data-name="Layer 1"><path d="M284.6 268.17a10 10 0 100 14.18 10 10 0 000-14.18z" transform="translate(-200.12 -191.16)" fill="#f1f2ec"/><path class="cls-3" d="M269.24 269.5a15.89 15.89 0 01-11.31-4.68l-1.46-1.47a4.07 4.07 0 015.75-5.75l1.46 1.47a7.86 7.86 0 0011.11 0l9-9a7.85 7.85 0 000-11.1l-1.47-1.47a7.85 7.85 0 00-11.1 0 4.07 4.07 0 01-5.75-5.75 16 16 0 0122.6 0l1.47 1.47a16 16 0 010 22.6l-9 9a15.87 15.87 0 01-11.3 4.68z" transform="translate(-200.12 -191.16)"/><path d="M253.44 285.28a16 16 0 01-11.3-4.67l-1.47-1.47a16 16 0 010-22.6l9-9a16 16 0 0122.61 0l1.47 1.46a16 16 0 010 22.61l-9 9a16 16 0 01-11.31 4.67zM261 251a7.8 7.8 0 00-5.56 2.3l-9 9a7.86 7.86 0 000 11.1l1.47 1.47a7.86 7.86 0 0011.11 0l9-9a7.86 7.86 0 000-11.11l-1.47-1.46A7.77 7.77 0 00261 251z" transform="translate(-200.12 -191.16)" fill="#fc3e59"/><path class="cls-3" d="M259.34 264.55a4 4 0 01-2.87-1.2 16 16 0 010-22.6l9-9a4.07 4.07 0 015.75 5.75l-9 9a7.86 7.86 0 000 11.1 4.08 4.08 0 01-2.88 6.95z" transform="translate(-200.12 -191.16)"/><path d="M281.23 274.38h-7.43a.88.88 0 100 1.76h7.43a.88.88 0 000-1.76zm9-41.81l-1.47-1.47a16.87 16.87 0 00-21.91-1.67.88.88 0 00-.18 1.23.89.89 0 001.23.19 15.11 15.11 0 0119.62 1.49l1.47 1.47a15.12 15.12 0 010 21.36l-9 9a15.84 15.84 0 01-1.38 1.22 16.87 16.87 0 00.31-9.17l5.59-5.59a8.72 8.72 0 000-12.34l-1.51-1.44a8.72 8.72 0 00-12.34 0l-9 9a8.73 8.73 0 000 12.34l1.46 1.46a8.65 8.65 0 006.1 2.56 6.93 6.93 0 01-1.76 3l-2.72 2.72a15.1 15.1 0 01-6.12-3.73l-1.47-1.47a15 15 0 01-3.87-6.64 15.1 15.1 0 013.87-14.71l7.81-7.81a.88.88 0 000-1.24.89.89 0 00-1.25 0l-7.8 7.81A16.57 16.57 0 00253 244a16.59 16.59 0 00-3.88 2.9l-9 9a16.88 16.88 0 000 23.84l1.47 1.47a.89.89 0 00.62.26.88.88 0 00.62-1.5l-1.47-1.47a15.14 15.14 0 010-21.36l9-9a13.57 13.57 0 011.39-1.23 16.92 16.92 0 00-.32 9.17l-5.6 5.6a8.74 8.74 0 000 12.34l1.47 1.47a8.73 8.73 0 0012.35 0l5.95-6 3.08-3.08a8.75 8.75 0 000-12.35l-1.47-1.47a8.66 8.66 0 00-6.1-2.55 7 7 0 011.76-3l2.71-2.71a15 15 0 016.14 3.72l1.46 1.47a15.09 15.09 0 010 21.36l-9 9a15 15 0 01-10.68 4.41 15.21 15.21 0 01-7.52-2 .88.88 0 10-.87 1.52 16.9 16.9 0 0020.32-2.7l2-2a10.91 10.91 0 0021.06-4 10.91 10.91 0 00-6.93-10.15l8.7-8.7a16.86 16.86 0 00-.07-23.69zm-31.82 41.67a7 7 0 01-9.86 0l-1.46-1.47a7 7 0 010-9.86L252 258a16.84 16.84 0 003.87 6l1.46 1.46a16.93 16.93 0 006 3.87zm7.57-20.36l1.46 1.47a6.9 6.9 0 012.05 4.93v.21h-.2a6.89 6.89 0 01-4.93-2l-1.51-1.49a6.89 6.89 0 01-2-4.93 1.48 1.48 0 010-.21h.2a6.92 6.92 0 014.89 2.02zm8.46-5.53l-1.47-1.46a16.68 16.68 0 00-6-3.86l4.94-4.94a7 7 0 019.86 0l1.47 1.47a7 7 0 010 9.86l-4.93 4.93a16.87 16.87 0 00-3.91-6zm10.25 21.19a9 9 0 012 5.72 9.15 9.15 0 01-17.92 2.59l4.74-4.74a.87.87 0 00.32.06h7.43a.88.88 0 100-1.75h-6.1a17.45 17.45 0 002.16-3.08 17.54 17.54 0 002.75-1.87 9.16 9.16 0 014.58 3.07zm-3.42 7.8h-7.47a.88.88 0 000 1.76h7.43a.88.88 0 100-1.76z" transform="translate(-200.12 -191.16)" fill="#1b2c38"/></g></svg>