<svg id="Capa_1" data-name="Capa 1" xmlns="http://www.w3.org/2000/svg" viewBox="0 0 70 70"><defs><style>.cls-1{fill:#ffcb05}.cls-5{fill:#1b2c38}</style></defs><path class="cls-1" d="M68.97 68.97H1.03V26.23L35 1.03l33.97 25.2v42.74z"/><path fill="#e8e9e1" d="M5.41 28.42h59.18v26.3H5.41z"/><path fill="#f1f2ec" d="M5.41 5.41h59.18v26.3H5.41z"/><path class="cls-1" d="M68.97 68.97H1.03l67.94-42.74v42.74z"/><path class="cls-1" d="M68.97 68.97H1.03V26.23l67.94 42.74z"/><path fill="#fc3e59" d="M48.15 13.08h8.77v10.96h-8.77z"/><path class="cls-5" d="M70 69.09a.49.49 0 000-.09V26.23a1 1 0 00-.42-.82l-4-2.95v-17a1 1 0 00-1-1H41.22L35.61.2a1 1 0 00-1.22 0l-5.64 4.18H5.41a1 1 0 00-1 1v17.08l-4 2.95a1 1 0 00-.42.82V69a1 1 0 001 1H69a1 1 0 001-.91zM36.93 47.6L68 28.09v39zm30.22-21.44l-1.53 1V25zM35 2.31l2.8 2.07h-5.6zm28.56 4.13v22L60 30.68H50a1 1 0 000 2.06h6.7L35 46.39 13.3 32.74h31.77a1 1 0 000-2.06H10l-3.56-2.26v-22zM4.38 27.13l-1.53-1L4.38 25zM2.05 67.94V28.09l63.36 39.85z"/><path class="cls-5" d="M48.15 25.07h8.77a1 1 0 001-1v-11a1 1 0 00-1-1h-8.77a1 1 0 00-1 1V24a1 1 0 001 1.07zm1-11h6.71V23h-6.68zm-36.07.04h30.69a1 1 0 000-2.06H13.08a1 1 0 000 2.06zm0 5.48h16.51a1 1 0 100-2.06H13.08a1 1 0 100 2.06zm30.69-2.06H33.9a1 1 0 000 2.06h9.87a1 1 0 000-2.06zm-30.69 7.54h22a1 1 0 100-2.06h-22a1 1 0 100 2.06zM43.77 23h-4.39a1 1 0 000 2.06h4.39a1 1 0 000-2.06zm-3.29 12.07a1 1 0 100 2H46a1 1 0 100-2zm-3.36 1.02a1 1 0 00-1-1H24a1 1 0 100 2h12.1a1 1 0 001.02-1zm-4.24 4.46h-3.36a1 1 0 100 2.05h3.36a1 1 0 000-2.05zm6.5 0h-2.19a1 1 0 100 2.05h2.19a1 1 0 100-2.05z"/></svg>