<svg id="Layer_1" data-name="Layer 1" xmlns="http://www.w3.org/2000/svg" viewBox="0 0 70 64.43"><defs><style>.cls-5{fill:#1b2c38}</style></defs><path fill="#949fac" d="M68.87 51.26V63.3H1.13V51.26L35 46.74l33.87 4.52z"/><path fill="#f1f2ec" d="M1.13 1.13h67.74v50.13H1.13z"/><circle cx="34.92" cy="26.19" r="16.43" fill="#fc3e59"/><path fill="#fff" d="M29.49 16.77l16.33 9.42-16.33 9.43V16.77z"/><path class="cls-5" d="M250.49 260.54a1.16 1.16 0 00.57-.15l16.33-9.39a1.14 1.14 0 00.56-1 1.13 1.13 0 00-.56-1l-16.33-9.43a1.14 1.14 0 00-1.7 1v18.86a1.15 1.15 0 00.57 1 1.12 1.12 0 00.56.11zm1.13-18l12.94 7.46-12.94 7.47v-14.96z" transform="translate(-221 -223.78)"/><path class="cls-5" d="M255.92 232.42a17.55 17.55 0 00-17.39 15.15 1.13 1.13 0 102.23.3 15.31 15.31 0 110 4.21 1.13 1.13 0 00-2.23.31 17.56 17.56 0 1017.39-20zm27.93 47.52h-55.7a1.13 1.13 0 100 2.25h55.7a1.13 1.13 0 100-2.25z" transform="translate(-221 -223.78)"/><path class="cls-5" d="M289.87 223.78h-67.74a1.14 1.14 0 00-1.13 1.13v62.18a1.14 1.14 0 001.13 1.13h67.74a1.14 1.14 0 001.13-1.13v-62.18a1.14 1.14 0 00-1.13-1.13zM223.26 226h65.48v47.87h-65.48zm0 59.92v-9.79h65.48V286z" transform="translate(-221 -223.78)"/></svg>