<svg id="Layer_1" data-name="Layer 1" xmlns="http://www.w3.org/2000/svg" viewBox="0 0 70 70"><defs><style>.cls-3{fill:#fc3e59}.cls-5{fill:#ffcb05}.cls-7{fill:#1b2c38}</style></defs><path d="M286.49 69h-61a3.48 3.48 0 01-3.49-3.51v-61A3.48 3.48 0 01225.51 1h61A3.48 3.48 0 01290 4.51v61a3.48 3.48 0 01-3.51 3.49z" transform="translate(-221)" fill="#f1f2ec"/><path d="M280.54 37h-12.45a3.68 3.68 0 01-3.68-3.68V22.54a3.68 3.68 0 013.68-3.68h12.45a3.68 3.68 0 013.68 3.68v10.8a3.68 3.68 0 01-3.68 3.66z" transform="translate(-221)" fill="#27c7cd"/><path class="cls-3" d="M280.54 62.55h-12.45a3.68 3.68 0 01-3.68-3.68v-10.8a3.68 3.68 0 013.68-3.68h12.45a3.68 3.68 0 013.68 3.68v10.8a3.68 3.68 0 01-3.68 3.68z" transform="translate(-221)"/><path d="M290 12.93h-68V4.51A3.48 3.48 0 01225.51 1h61A3.48 3.48 0 01290 4.51z" transform="translate(-221)" fill="#e6e7e8"/><path class="cls-3" d="M230.47 7a2 2 0 11-2-2 2 2 0 012 2z" transform="translate(-221)"/><path class="cls-5" d="M238.13 7a2 2 0 11-2-2 2 2 0 012 2z" transform="translate(-221)"/><path d="M245.8 7a2 2 0 11-2-2 2 2 0 012 2z" transform="translate(-221)" fill="#95d133"/><path class="cls-7" d="M222 14a1 1 0 01-1-1V4.51A4.51 4.51 0 01225.51 0h21.65a1 1 0 010 2.05h-21.65a2.47 2.47 0 00-2.46 2.46v8.42A1 1 0 01222 14z" transform="translate(-221)"/><path class="cls-5" d="M255.06 62.55h-24.88a3.68 3.68 0 01-3.68-3.68V22.54a3.68 3.68 0 013.68-3.68h24.88a3.67 3.67 0 013.67 3.68v36.33a3.67 3.67 0 01-3.67 3.68z" transform="translate(-221)"/><path class="cls-7" d="M286.49 0h-32.86a1 1 0 100 2.05h32.86A2.47 2.47 0 01289 4.51v7.39h-65.9V4.51a2.47 2.47 0 012.46-2.46h21.65a1 1 0 000-2h-21.7A4.51 4.51 0 00221 4.51v61a4.51 4.51 0 004.51 4.49h61a4.51 4.51 0 004.49-4.51v-61A4.51 4.51 0 00286.49 0zM289 65.49a2.47 2.47 0 01-2.51 2.51h-61a2.47 2.47 0 01-2.46-2.46V14H289z" transform="translate(-221)"/><path class="cls-7" d="M226.5 25.07a1 1 0 001-1v-1.5a2.65 2.65 0 01.43-1.45 1 1 0 00-1.68-1.12 4.65 4.65 0 00-.77 2.58V24a1 1 0 001.02 1.07zm2.93 38.44a4.74 4.74 0 00.75.06h3a1 1 0 000-2h-3.42a1 1 0 10-.33 2zm.75-43.62h3.63a1 1 0 100-2.05h-3.64a1 1 0 00-1 1 1 1 0 001.01 1.05zm6.69 43.68h3.63a1 1 0 100-2h-3.63a1 1 0 100 2zm.58-43.68h3.64a1 1 0 000-2.05h-3.64a1 1 0 100 2.05zM226.5 32.34a1 1 0 001-1v-3.66a1 1 0 00-2.05 0v3.64a1 1 0 001.05 1.02zm.33 29.06a1 1 0 00.41-.09 1 1 0 00.52-1.35 2.73 2.73 0 01-.23-1.09v-2.09a1 1 0 00-2.05 0v2.09a4.74 4.74 0 00.41 1.93 1 1 0 00.94.6zm17.31 2.17h3.64a1 1 0 100-2h-3.64a1 1 0 000 2zM226.5 39.62a1 1 0 001-1V35a1 1 0 10-2.05 0v3.63a1 1 0 001.05.99zm0 14.55a1 1 0 001-1v-3.66a1 1 0 10-2.05 0v3.64a1 1 0 001.05 1.02zm0-7.27a1 1 0 001-1v-3.67a1 1 0 00-2.05 0v3.64a1 1 0 001.05 1.03zm32.23-12.39a1 1 0 00-1 1v3.64a1 1 0 102.05 0v-3.62a1 1 0 00-1.05-1.02zm0-7.28a1 1 0 00-1 1v3.67a1 1 0 002.05 0v-3.64a1 1 0 00-1.05-1.03zm0 14.55a1 1 0 00-1 1v3.64a1 1 0 002.05 0v-3.61a1 1 0 00-1.05-1.03zm-1.02-19.24v2.08a1 1 0 102.05 0v-2.08a4.6 4.6 0 00-.42-1.93 1 1 0 10-1.86.84 2.7 2.7 0 01.23 1.09zm1.02 26.52a1 1 0 00-1 1v3.64a1 1 0 102.05 0v-3.62a1 1 0 00-1.05-1.02zM252 19.89h3.06a3 3 0 01.42 0h.16a1 1 0 001-.86 1 1 0 00-.85-1.17 4.71 4.71 0 00-.74-.06H252a1 1 0 000 2.05zm-7.27 0h3.63a1 1 0 100-2.05h-3.63a1 1 0 100 2.05zm6.69 43.68h3.65a1 1 0 100-2h-3.65a1 1 0 100 2zm6.16-1.83a1 1 0 001.41-.3 4.67 4.67 0 00.77-2.57v-1.51a1 1 0 10-2.05 0v1.51a2.65 2.65 0 01-.43 1.45 1 1 0 00.3 1.42zm7.03-25.2a1.06 1.06 0 00.2.17 4.69 4.69 0 003.28 1.34h2.82a1 1 0 000-2.06h-2.82a2.73 2.73 0 01-1.07-.22l7.28-6.44 7.29 6.45a2.66 2.66 0 01-1 .21H277a1 1 0 100 2.06h3.5a4.73 4.73 0 003.38-1.44.46.46 0 01.07-.07 4.68 4.68 0 001.24-3.18V22.54a4.71 4.71 0 00-4.7-4.7h-12.4a4.7 4.7 0 00-3.41 1.46l-.07.08a4.72 4.72 0 00-1.2 3.13v10.8a4.68 4.68 0 001.09 3 .85.85 0 00.11.23zm18.58-14v10.8a2.77 2.77 0 01-.18 1L275.84 28l7.16-6.39a2.6 2.6 0 01.19.93zm-15.1-2.65h12.45a2.57 2.57 0 011.07.23l-7.31 6.47-7.3-6.46a2.49 2.49 0 011.09-.24zm-2.65 2.65a2.72 2.72 0 01.16-.91l7.15 6.37-7.14 6.32a2.66 2.66 0 01-.17-.94zm-.82 39.51l.07.07a4.67 4.67 0 003.4 1.45h12.45a4.65 4.65 0 003.39-1.45l.07-.07a4.66 4.66 0 001.22-3.16V48.07a4.66 4.66 0 00-1.22-3.16l-.07-.08a4.7 4.7 0 00-3.39-1.45h-12.45a4.69 4.69 0 00-3.39 1.45.6.6 0 00-.08.08 4.67 4.67 0 00-1.23 3.16v10.8a4.67 4.67 0 001.22 3.13zm15.92-.53h-12.45a2.73 2.73 0 01-1.09-.22l7.29-6.46 7.3 6.46a2.73 2.73 0 01-1.05.22zm2.65-13.45v10.8a2.6 2.6 0 01-.17.93l-7.16-6.33 7.14-6.33a2.6 2.6 0 01.19.93zm-15.1-2.65h12.45a2.73 2.73 0 011.07.22l-7.3 6.46-7.31-6.46a2.73 2.73 0 011.09-.22zm-2.65 2.65a2.6 2.6 0 01.17-.93l7.16 6.33-7.16 6.33a2.6 2.6 0 01-.17-.93z" transform="translate(-221)"/></svg>