<svg xmlns="http://www.w3.org/2000/svg" viewBox="0 0 130 130"><defs><style>.cls-2{fill:#f1f2ec}.cls-7{fill:#27c7cd}.cls-9{fill:#1b2c38}</style></defs><circle cx="65" cy="65" r="65" fill="#6c6ff2" id="Layer_2" data-name="Layer 2"/><g id="Layer_1" data-name="Layer 1"><path class="cls-2" d="M289.18 285h-52.27a3 3 0 01-3-3v-52.27a3 3 0 013-3h52.27a3 3 0 013 3V282a3 3 0 01-3 3z" transform="translate(-198.04 -190.86)"/><path d="M292.17 236.94h-58.25v-7.21a3 3 0 013-3h52.27a3 3 0 013 3z" transform="translate(-198.04 -190.86)" fill="#95d133"/><path class="cls-2" d="M241.16 231.81a1.7 1.7 0 11-1.7-1.7 1.7 1.7 0 011.7 1.7zm6.57 0a1.7 1.7 0 11-1.7-1.7 1.7 1.7 0 011.7 1.7zm6.57 0a1.7 1.7 0 11-1.7-1.7 1.7 1.7 0 011.7 1.7z" transform="translate(-198.04 -190.86)"/><path d="M258.62 278.65h-17a1.9 1.9 0 01-1.9-1.9v-8.62a1.9 1.9 0 011.9-1.9h17a1.9 1.9 0 011.9 1.9v8.62a1.9 1.9 0 01-1.9 1.9z" transform="translate(-198.04 -190.86)" fill="#fc3e59"/><path d="M284.35 278.65h-17a1.9 1.9 0 01-1.9-1.9v-8.62a1.9 1.9 0 011.9-1.9h17a1.9 1.9 0 011.89 1.9v8.62a1.9 1.9 0 01-1.89 1.9z" transform="translate(-198.04 -190.86)" fill="#ffcb05"/><path d="M284.34 262h-42.73a1.9 1.9 0 01-1.9-1.9V244a1.9 1.9 0 011.9-1.9h42.73a1.9 1.9 0 011.9 1.9v16.09a1.9 1.9 0 01-1.9 1.91z" transform="translate(-198.04 -190.86)" fill="#c9f0ff"/><path class="cls-7" d="M244.88 261.89l12.9-12.9a.57.57 0 01.82 0l11.4 12.9z" transform="translate(-198.04 -190.86)"/><path class="cls-7" d="M260.72 261.89l10.37-10.36a.56.56 0 01.82 0l9.17 10.33z" transform="translate(-198.04 -190.86)"/><path d="M280.13 247.75a2.47 2.47 0 11-2.47-2.47 2.47 2.47 0 012.47 2.47z" transform="translate(-198.04 -190.86)" fill="#ffd86e"/><path class="cls-9" d="M239.46 229.23a2.58 2.58 0 102.58 2.58 2.59 2.59 0 00-2.58-2.58zm0 3.41a.83.83 0 010-1.65.83.83 0 010 1.65zm6.54-3.41a2.58 2.58 0 102.58 2.58 2.59 2.59 0 00-2.58-2.58zm0 3.41a.83.83 0 11.82-.83.83.83 0 01-.82.83zm6.6-3.41a2.58 2.58 0 102.58 2.58 2.59 2.59 0 00-2.58-2.58zm0 3.41a.83.83 0 11.82-.83.83.83 0 01-.82.83z" transform="translate(-198.04 -190.86)"/><path class="cls-9" d="M289.18 225.86h-52.27a3.88 3.88 0 00-3.87 3.87V282a3.88 3.88 0 003.87 3.87h52.27A3.87 3.87 0 00293 282v-13.33a.88.88 0 00-1.75 0V282a2.11 2.11 0 01-2.11 2.11h-52.23a2.11 2.11 0 01-2.11-2.11v-44.18h56.49v25.42a.88.88 0 101.75 0v-33.51a3.87 3.87 0 00-3.86-3.87zm2.11 10.2H234.8v-6.33a2.12 2.12 0 012.11-2.11h52.27a2.12 2.12 0 012.11 2.11z" transform="translate(-198.04 -190.86)"/><path class="cls-9" d="M287.12 244a2.77 2.77 0 00-2.78-2.78h-42.73a2.78 2.78 0 00-2.78 2.78v5.16a.88.88 0 001.76 0V244a1 1 0 011-1h42.73a1 1 0 011 1v16.09a1 1 0 01-1 1h-2.76l-9-10.16a1.47 1.47 0 00-1-.48 1.44 1.44 0 00-1.06.42l-4.78 4.77-6.43-7.24a1.42 1.42 0 00-1-.49 1.46 1.46 0 00-1.07.42l-12.82 12.8h-2.79a1 1 0 01-1-1v-5.38a.88.88 0 00-1.76 0v5.38a2.79 2.79 0 002.78 2.78h42.73a2.78 2.78 0 002.78-2.78zm-40.23 17.11l11.28-11.28 8.55 9.64a.88.88 0 001.32-1.16l-1.18-1.31 4.61-4.61 7.76 8.74zm-5.28 4.24a2.79 2.79 0 00-2.78 2.78v8.62a2.79 2.79 0 002.78 2.78h17a2.79 2.79 0 002.78-2.78v-8.62a2.79 2.79 0 00-2.78-2.78zm18 2.78v8.62a1 1 0 01-1 1h-17a1 1 0 01-1-1v-8.62a1 1 0 011-1h17a1 1 0 011.03 1zm7.73-2.78a2.79 2.79 0 00-2.78 2.78v8.62a2.79 2.79 0 002.78 2.78h17a2.78 2.78 0 002.77-2.78v-8.62a2.78 2.78 0 00-2.77-2.78zm18 2.78v8.62a1 1 0 01-1 1h-17a1 1 0 01-1-1v-8.62a1 1 0 011-1h17a1 1 0 011.03 1z" transform="translate(-198.04 -190.86)"/><path class="cls-9" d="M243.32 270.42h2.37a.88.88 0 100-1.75h-2.37a.88.88 0 100 1.75zm0 2.98h1.23a.88.88 0 000-1.76h-1.23a.88.88 0 100 1.76zm13.59-1.76h-3.28a.88.88 0 000 1.76h3.28a.88.88 0 100-1.76zm-8.2-1.22h8a.88.88 0 100-1.75h-8a.88.88 0 100 1.75zm7.97 4.04h-2.38a.88.88 0 100 1.76h2.38a.88.88 0 000-1.76zm-5.39 0h-8a.88.88 0 000 1.76h8a.88.88 0 000-1.76zm-4.01-1.06h3.42a.88.88 0 100-1.76h-3.42a.88.88 0 100 1.76zm21.72-2.98h2.38a.88.88 0 100-1.75H269a.88.88 0 000 1.75zm0 2.98h1.24a.88.88 0 000-1.76H269a.88.88 0 000 1.76zm13.64-1.76h-3.28a.88.88 0 000 1.76h3.28a.88.88 0 000-1.76zm-8.2-1.22h8a.88.88 0 100-1.75h-8a.88.88 0 100 1.75zm7.97 4.04H280a.88.88 0 000 1.76h2.38a.88.88 0 000-1.76zm-5.41 0h-8a.88.88 0 000 1.76h8a.88.88 0 000-1.76zm-4-1.06h3.42a.88.88 0 100-1.76H273a.88.88 0 000 1.76zm8-25.65a3.35 3.35 0 10-3.35 3.35 3.35 3.35 0 003.35-3.35zm-4.93 0a1.59 1.59 0 111.58 1.59 1.59 1.59 0 01-1.57-1.59z" transform="translate(-198.04 -190.86)"/></g></svg>