<svg id="Layer_1" data-name="Layer 1" xmlns="http://www.w3.org/2000/svg" viewBox="0 0 70 70"><defs><style>.cls-3{fill:#1b2c38}</style></defs><path d="M35 1.13a33.87 33.87 0 00-28 53l-4.43 13.3L15.91 63A33.87 33.87 0 1035 1.13z" fill="#6c6ff2"/><path d="M50.84 45.13a66.1 66.1 0 00-5.29-4.71l-4 4-16-16 4-4a66.1 66.1 0 00-4.71-5.29 68.14 68.14 0 00-5.29-4.71s-4.78 4.4-5.11 7.88C14 27 19 35.49 26.75 43.25S43 56 47.67 55.53c3.48-.33 7.88-5.11 7.88-5.11a68.14 68.14 0 00-4.71-5.29z" fill="#ffcb05"/><path class="cls-3" d="M51.64 44.33a67.51 67.51 0 00-5.39-4.8 1.14 1.14 0 00-1.5.09l-3.19 3.19L33 34.24a1.13 1.13 0 00-1.6 1.6l9.37 9.37a1.13 1.13 0 001.6 0l3.27-3.27c1 .81 2.75 2.32 4.42 4s3.18 3.44 4 4.42c-1.51 1.48-4.36 3.86-6.48 4-4.35.4-12.58-4.51-20-11.94s-12.35-15.67-12-20c.19-2.12 2.57-5 4-6.48 1 .81 2.75 2.32 4.42 4s3.18 3.43 4 4.41l-3.27 3.27a1.15 1.15 0 00-.33.8 1.14 1.14 0 00.33.8l3.41 3.41a1.13 1.13 0 101.6-1.6l-2.61-2.61 3.19-3.19a1.13 1.13 0 00.09-1.49 64.86 64.86 0 00-4.8-5.4 64.86 64.86 0 00-5.4-4.8 1.12 1.12 0 00-1.46.06c-.52.48-5.11 4.8-5.46 8.61C12.88 27.28 18 36.05 26 44.05c7.66 7.66 16 12.63 21.16 12.63h.66c3.81-.35 8.13-4.94 8.61-5.46a1.12 1.12 0 00.06-1.46 64.86 64.86 0 00-4.85-5.43z"/><path class="cls-3" d="M59.75 10.25a35 35 0 00-54 44L1.5 67.08a1.12 1.12 0 001.42 1.42l12.83-4.27a35 35 0 0044-54zM35 67.74a32.6 32.6 0 01-18.45-5.69 1.13 1.13 0 00-.64-.2 1 1 0 00-.35.06L4.35 65.65l3.74-11.21a1.12 1.12 0 00-.14-1A32.74 32.74 0 1135 67.74z"/></svg>