<svg id="Layer_1" data-name="Layer 1" xmlns="http://www.w3.org/2000/svg" viewBox="0 0 70 70"><defs><style>.cls-3{fill:#1b2c38}</style></defs><path d="M273.83 240A33.83 33.83 0 11240 206.17 33.82 33.82 0 01273.83 240z" transform="translate(-205 -205)" fill="#27c7cd"/><path d="M262.17 240A22.17 22.17 0 11240 217.83 22.18 22.18 0 01262.17 240z" transform="translate(-205 -205)" fill="#ffcb05"/><path class="cls-3" d="M240 205a35 35 0 1035 35 35 35 0 00-35-35zm0 67.67A32.67 32.67 0 11272.67 240 32.67 32.67 0 01240 272.67z" transform="translate(-205 -205)"/><path class="cls-3" d="M260 228.05a23.33 23.33 0 10-20 35.28V261a21 21 0 1117.69-32.31l-5.43 1.48 9.91 9.83 3.56-13.5z" transform="translate(-205 -205)"/><path class="cls-3" d="M241.17 255.17v-2.42c4-.48 7-3.4 7-6.92s-3-6.43-7-6.92v-9.32c2.66.44 4.66 2.32 4.66 4.58h2.34c0-3.52-3-6.44-7-6.92v-2.42h-2.34v2.42c-4 .48-7 3.4-7 6.92s3 6.43 7 6.92v9.32c-2.66-.44-4.66-2.32-4.66-4.58h-2.34c0 3.52 3 6.44 7 6.92v2.42zm4.66-9.34c0 2.26-2 4.14-4.66 4.58v-9.15c2.66.44 4.66 2.32 4.66 4.57zm-11.66-11.66c0-2.26 2-4.14 4.66-4.58v9.15c-2.66-.44-4.66-2.32-4.66-4.57zM258.49 250l2.06 1.1a23.13 23.13 0 001.75-4.17l-2.23-.69a20.65 20.65 0 01-1.58 3.76zm-12.28 10.07l.69 2.23a24.2 24.2 0 004.17-1.75l-1.07-2.06a20.55 20.55 0 01-3.79 1.58zm7.13-3.85l1.48 1.8a23.6 23.6 0 003.2-3.2l-1.8-1.48a21.77 21.77 0 01-2.88 2.88z" transform="translate(-205 -205)"/></svg>