<svg xmlns="http://www.w3.org/2000/svg" viewBox="0 0 130 130"><defs><style>.cls-6{fill:#1b2c38}.cls-7{fill:#fc3e59}.cls-8{fill:#ffcb05}</style></defs><circle cx="65" cy="65" r="65" fill="#95d133" id="Layer_1" data-name="Layer 1"/><g id="Layer_2" data-name="Layer 2"><path d="M319.58 382s-5.13 7.38-4.64 14.81a3.12 3.12 0 003.65 2.87l8.73-1.52zm24.57 0s5.13 7.38 4.64 14.81a3.13 3.13 0 01-3.66 2.87l-8.73-1.52z" transform="translate(-268.36 -315.7)" fill="#27c7cd"/><path d="M333.32 347a3.39 3.39 0 00-2.82 0 23 23 0 00-14 22.49s.46 14.07 9.11 25.94h12.49c8.65-11.87 9.11-25.94 9.11-25.94A23 23 0 00333.32 347z" transform="translate(-268.36 -315.7)" fill="#f1f2ec"/><path d="M340.62 371a8.73 8.73 0 11-8.73-8.73 8.73 8.73 0 018.73 8.73z" transform="translate(-268.36 -315.7)" fill="#ffb541"/><path d="M336.43 371a4.54 4.54 0 11-4.54-4.54 4.54 4.54 0 014.54 4.54z" transform="translate(-268.36 -315.7)" fill="#e8e9e1"/><path class="cls-6" d="M322.16 354.68h19.46a23.66 23.66 0 00-8.72-6.68 2.46 2.46 0 00-2 0 23.79 23.79 0 00-8.74 6.68z" transform="translate(-268.36 -315.7)"/><path class="cls-7" d="M343.62 355.71h-23.46a24.49 24.49 0 0110.33-8.71 3.41 3.41 0 012.83 0 24.41 24.41 0 0110.3 8.71z" transform="translate(-268.36 -315.7)"/><path class="cls-8" d="M327.27 409.7l3.27 4.32a1.66 1.66 0 002.65 0l3.27-4.32c3.43-4.47-.69-8.93-.69-8.93H328s-4.17 4.46-.73 8.93z" transform="translate(-268.36 -315.7)"/><path class="cls-8" d="M329.74 404.89l1.51 2a.77.77 0 001.22 0l1.51-2c1.58-2.06-.32-4.12-.32-4.12h-3.6s-1.9 2.06-.32 4.12z" transform="translate(-268.36 -315.7)"/><path class="cls-7" d="M336.07 400.77h-8.41a2.09 2.09 0 01-2.09-2.09v-3.22h12.59v3.22a2.1 2.1 0 01-2.09 2.09z" transform="translate(-268.36 -315.7)"/><path class="cls-8" d="M308.39 399.6a13.84 13.84 0 01-6.55 6.14.67.67 0 000 1.21 13.79 13.79 0 016.55 6.14.67.67 0 001.19 0 13.83 13.83 0 016.56-6.14.68.68 0 000-1.21 13.87 13.87 0 01-6.56-6.14.67.67 0 00-1.19 0zm49.72-4.25a12.21 12.21 0 01-5.77 5.41.58.58 0 000 1.06 12.21 12.21 0 015.77 5.41.59.59 0 001.05 0 12.16 12.16 0 015.77-5.41.58.58 0 000-1.06 12.16 12.16 0 01-5.77-5.41.59.59 0 00-1.05 0zm-2.7-14.26a10.27 10.27 0 01-4.86 4.55.5.5 0 000 .9 10.24 10.24 0 014.86 4.56.5.5 0 00.89 0 10.19 10.19 0 014.86-4.56.5.5 0 000-.9 10.22 10.22 0 01-4.86-4.55.5.5 0 00-.89 0z" transform="translate(-268.36 -315.7)"/><path class="cls-6" d="M322.13 371a9.76 9.76 0 109.76-9.75 9.77 9.77 0 00-9.76 9.75zm17.46 0a7.71 7.71 0 11-7.7-7.7 7.71 7.71 0 017.7 7.7z" transform="translate(-268.36 -315.7)"/><path class="cls-6" d="M326.32 371a5.57 5.57 0 105.57-5.56 5.57 5.57 0 00-5.57 5.56zm9.08 0a3.52 3.52 0 11-3.51-3.51 3.52 3.52 0 013.51 3.51z" transform="translate(-268.36 -315.7)"/><path class="cls-6" d="M346.92 378.28a47.11 47.11 0 001.34-8.73 27.45 27.45 0 00-.48-6.21 1 1 0 10-2 .4 25.62 25.62 0 01.43 5.75c0 .13-.53 13.55-8.6 24.95h-11.45c-8.06-11.38-8.6-24.82-8.6-24.95a22.43 22.43 0 013.16-12.76h22.33a19.76 19.76 0 011.38 2.63 1 1 0 001.34.54 1 1 0 00.54-1.35 22.29 22.29 0 00-1.81-3.36 25.4 25.4 0 00-10.74-9.06c-.22-.09-.44-.17-.67-.24a4.52 4.52 0 00-2.55.07l-.45.17a24.3 24.3 0 00-13.33 14.35 26.31 26.31 0 00-1.23 9.11 47.11 47.11 0 001.34 8.73c.3 1.25.69 2.67 1.18 4.2-1.44 2.39-4.51 8.29-4.12 14.35a4.16 4.16 0 004.15 3.87 4.25 4.25 0 00.71-.06l5.92-1a3.14 3.14 0 001.52 1.83 10.85 10.85 0 00-.85 1.77 7.2 7.2 0 001.09 7.11l3.27 4.32a2.67 2.67 0 002.14 1.06 2.7 2.7 0 002.15-1.06l3.26-4.32a7.18 7.18 0 001.1-7.11 10.08 10.08 0 00-.86-1.77 3.16 3.16 0 001.53-1.83l5.92 1a4.15 4.15 0 004.85-3.81c.4-6-2.63-11.88-4.08-14.3.48-1.57.87-3.02 1.17-4.29zm-24.62-23.77v-.05l.32-.38a24.16 24.16 0 018.25-6.12l.24-.09a2.44 2.44 0 011.51 0l.24.09a24 24 0 018.71 6.72h-19.41c.05-.05.09-.11.14-.17zm2.25 43.05l-6.13 1.06a2.11 2.11 0 01-2.46-1.93c-.29-4.44 1.57-8.93 3-11.63a47.63 47.63 0 005.61 10.63zm11.09 11.52l-3.27 4.32a.62.62 0 01-.51.25.63.63 0 01-.51-.25l-3.26-4.32a5.74 5.74 0 01.15-7 3.84 3.84 0 00.7 3.44l1.51 2a1.79 1.79 0 002.85 0l1.5-2a3.82 3.82 0 00.7-3.43 5.71 5.71 0 01.14 6.99zm-5.07-7.29h2.59a2.07 2.07 0 010 2.48l-1.3 1.72-1.3-1.72a2.05 2.05 0 01.01-2.48zm6.56-3.11a1.05 1.05 0 01-1.06 1.06h-8.41a1.06 1.06 0 01-1.07-1.06v-2.2h10.54zm10.64-2a2.11 2.11 0 01-2.46 1.93l-6.13-1.06v-1.81a47.18 47.18 0 005.63-10.64c1.41 2.71 3.25 7.17 2.96 11.59zm-31.19 8.14a16.49 16.49 0 01-1.75-1 1 1 0 10-1.12 1.72c.43.28.89.54 1.35.79A14.72 14.72 0 00309 412a14.82 14.82 0 00-6.08-5.7 14.81 14.81 0 006.08-5.69 12.72 12.72 0 001 1.48 1 1 0 101.62-1.25 11.24 11.24 0 01-1.1-1.74 1.69 1.69 0 00-3 0 12.67 12.67 0 01-6.08 5.68 1.69 1.69 0 000 3.05 12.67 12.67 0 016.08 5.68 1.7 1.7 0 003 0 12.72 12.72 0 016.08-5.68 1.69 1.69 0 000-3.05zm48.8-4.98a11.08 11.08 0 01-5.3-4.95 1.62 1.62 0 00-2.89 0 11.08 11.08 0 01-5.3 4.95 1.61 1.61 0 000 2.9 11.08 11.08 0 015.3 4.95 1.62 1.62 0 002.89 0 11.08 11.08 0 015.3-4.95 1.61 1.61 0 000-2.9zm-6.36-4zm-.39 10.25a13.16 13.16 0 00-5.09-4.77 13.16 13.16 0 005.09-4.77 13.12 13.12 0 005.1 4.77 13.12 13.12 0 00-5.1 4.74z" transform="translate(-268.36 -315.7)"/><path class="cls-6" d="M354.5 391.55a1.48 1.48 0 001.35.84 1.51 1.51 0 001.36-.84 9.23 9.23 0 014.39-4.09 1.52 1.52 0 000-2.74 9.19 9.19 0 01-4.39-4.09 1.51 1.51 0 00-1.36-.84 1.48 1.48 0 00-1.35.84 9.17 9.17 0 01-4.4 4.09 1.52 1.52 0 000 2.74 9.22 9.22 0 014.4 4.09zm1.35-9.17a11.28 11.28 0 004 3.71 11.28 11.28 0 00-4 3.71 11.11 11.11 0 00-4-3.71 11.11 11.11 0 004-3.71z" transform="translate(-268.36 -315.7)"/></g></svg>