<svg id="Capa_1" data-name="Capa 1" xmlns="http://www.w3.org/2000/svg" viewBox="0 0 70 80.77"><defs><style>.cls-1{fill:#1b2c38}.cls-3{fill:#ffcb05}</style></defs><path class="cls-1" d="M206.35 253.46h5.38a1.35 1.35 0 100-2.69h-5.38a1.35 1.35 0 100 2.69zm5.9 2.92l-5.06 1.84a1.35 1.35 0 00.87 2.55h.05l5.06-1.84a1.35 1.35 0 00-.82-2.57h-.1zm.92-11.05l-5.06-1.84a1.35 1.35 0 00-1 2.51h.05l5.06 1.84a1.44 1.44 0 00.46.08 1.35 1.35 0 00.46-2.61zm61.83 6.79a1.34 1.34 0 00-1.34-1.35h-5.39a1.35 1.35 0 000 2.69h5.39a1.34 1.34 0 001.34-1.34zm-7.7-4.18a1.07 1.07 0 00.46-.08l5.06-1.84a1.35 1.35 0 00-.87-2.55h-.05l-5.06 1.84a1.34 1.34 0 00-.8 1.73 1.33 1.33 0 001.26.88zm-.46 10.97l5.06 1.84a1.35 1.35 0 101-2.51h-.05l-5.06-1.84a1.35 1.35 0 10-1 2.49h.1z" transform="translate(-205 -199.62)"/><path d="M227.89 241.35h24.23a10.77 10.77 0 0110.77 10.77 10.77 10.77 0 01-10.77 10.77h-24.23a10.77 10.77 0 01-10.77-10.77 10.77 10.77 0 0110.77-10.77z" transform="translate(-205 -199.62)" fill="#27c7cd"/><circle class="cls-3" cx="16.15" cy="21.54" r="14.81"/><circle class="cls-3" cx="53.85" cy="16.15" r="14.81"/><path d="M240 276.35l5.39-5.39 4 8.08 5.38-2.69-4-8.08h8.08L240 249.43v26.92z" transform="translate(-205 -199.62)" fill="#f1f2ec"/><path class="cls-1" d="M264.23 252.12A12.12 12.12 0 00252.12 240h-24.23a12.12 12.12 0 100 24.23h10.77v12.12a1.34 1.34 0 002.29.95l4.07-4.06 3.19 6.4a1.35 1.35 0 001.81.61l5.39-2.7a1.35 1.35 0 00.6-1.8l-3.01-6.13h5.9a1.35 1.35 0 00.95-2.3l-3.75-3.75a12.11 12.11 0 008.18-11.45zm-13.46 14.81a1.33 1.33 0 00-1.35 1.33 1.4 1.4 0 00.14.61l3.44 6.88-3 1.48-3.42-6.87a1.3 1.3 0 00-1-.72.82.82 0 00-.22 0 1.34 1.34 0 00-.95.39l-3.09 3.09v-20.44l14.25 14.25zm3.08-5.56L241 248.47a1.35 1.35 0 00-1.9 0 1.38 1.38 0 00-.39 1v12.11h-10.82a9.43 9.43 0 110-18.85h24.23a9.42 9.42 0 011.73 18.68zm-32.69-24.06A16.16 16.16 0 10205 221.16a16.15 16.15 0 0016.16 16.15zm0-29.62a13.47 13.47 0 11-13.46 13.47 13.47 13.47 0 0113.46-13.47zm37.69 24.24a16.16 16.16 0 10-16.15-16.16 16.16 16.16 0 0016.15 16.16zm0-29.62a13.46 13.46 0 11-13.46 13.46 13.46 13.46 0 0113.46-13.46z" transform="translate(-205 -199.62)"/><path class="cls-1" d="M222.5 226.54h-2.69a1.35 1.35 0 01-1.35-1.35 1.35 1.35 0 00-2.69 0 4 4 0 004 4v1.35a1.35 1.35 0 102.69 0v-1.35a4 4 0 004-4v-1.34a4 4 0 00-4-4h-2.69a1.35 1.35 0 01-1.35-1.35v-1.34a1.35 1.35 0 011.35-1.35h2.69a1.34 1.34 0 011.35 1.35 1.35 1.35 0 002.69 0 4 4 0 00-4-4v-1.35a1.35 1.35 0 00-2.69 0v1.35a4 4 0 00-4 4v1.34a4 4 0 004 4h2.69a1.35 1.35 0 011.35 1.35v1.34a1.34 1.34 0 01-1.35 1.35zm37.7-5.38h-2.7a1.35 1.35 0 01-1.34-1.35 1.35 1.35 0 00-2.7 0 4 4 0 004 4v1.34a1.35 1.35 0 102.7 0v-1.34a4 4 0 004-4v-1.35a4 4 0 00-4-4h-2.7a1.35 1.35 0 01-1.34-1.35v-1.35a1.34 1.34 0 011.34-1.34h2.7a1.34 1.34 0 011.34 1.34 1.35 1.35 0 102.69 0 4 4 0 00-4-4v-1.34a1.35 1.35 0 10-2.7 0v1.34a4 4 0 00-4 4v1.35a4 4 0 004 4h2.7a1.34 1.34 0 011.34 1.34v1.35a1.35 1.35 0 01-1.33 1.36z" transform="translate(-205 -199.62)"/></svg>