<svg id="Layer_1" data-name="Layer 1" xmlns="http://www.w3.org/2000/svg" viewBox="0 0 70 60.16"><defs><style>.cls-3{fill:#f1f2ec}.cls-6{fill:#1b2c38}</style></defs><path d="M290 45.49v40.76a1.36 1.36 0 01-.91 1.29l-21.28 7.52a1.33 1.33 0 01-.91 0l-21.74-7.68a1.33 1.33 0 00-.91 0l-20.37 7.2a1.37 1.37 0 01-1.88-1.29V52.53a1.36 1.36 0 01.91-1.29l21.28-7.52a1.33 1.33 0 01.91 0l3.28 1.16 18.46 6.52a1.33 1.33 0 00.91 0l8.12-2.87 12.25-4.33a1.37 1.37 0 011.88 1.29z" transform="translate(-221 -36)" fill="#ffcb05"/><path d="M244.68 43.64V87.3a1.44 1.44 0 00-.46.08l-20.37 7.2a1.37 1.37 0 01-1.85-1.29V52.53a1.36 1.36 0 01.91-1.29l21.28-7.52a1.44 1.44 0 01.49-.08z" transform="translate(-221 -36)" fill="#27c7cd"/><path class="cls-3" d="M222 84.54l22.65-8V65.45l-22.65 8zm0-18.65l22.65-8v-4.45l-22.65 8z" transform="translate(-221 -36)"/><path d="M267.32 51.48v43.66a1.42 1.42 0 01-.45-.08l-21.74-7.68a1.42 1.42 0 00-.45-.08V43.64a1.42 1.42 0 01.45.08l3.28 1.16 18.46 6.52a1.42 1.42 0 00.45.08z" transform="translate(-221 -36)" fill="#95d133"/><path d="M274.15 49.37c0 5.69-8.62 15.56-11.46 18.66a1.21 1.21 0 01-1.78 0c-2.83-3.1-11.45-13-11.45-18.66a12.35 12.35 0 0124.69 0z" transform="translate(-221 -36)" fill="#fc3e59"/><path class="cls-3" d="M267.37 49a5.57 5.57 0 11-5.57-5.57 5.56 5.56 0 015.57 5.57z" transform="translate(-221 -36)"/><path class="cls-6" d="M290 52.33a1 1 0 001-1v-5.84a2.39 2.39 0 00-3.19-2.25l-12.74 4.5a13.37 13.37 0 00-25.58-3.57l-4-1.42a2.41 2.41 0 00-1.59 0l-21.3 7.52a2.39 2.39 0 00-1.6 2.26v40.76a2.41 2.41 0 001 1.95 2.38 2.38 0 001.38.44 2.21 2.21 0 00.8-.14l7.05-2.49a1 1 0 10-.68-1.93l-7.05 2.49a.33.33 0 01-.31 0 .33.33 0 01-.15-.28v-8L243.65 78v8.5L235 89.55a1 1 0 00.68 1.93l8.87-3.13a.3.3 0 01.23 0L266.53 96a2.5 2.5 0 001.59 0l21.28-7.52a2.4 2.4 0 001.6-2.26V56a1 1 0 10-2 0v30.25a.32.32 0 01-.23.32l-20.37 7.2V62.92c.66-.85 1.33-1.74 2-2.66 3-4.28 4.64-7.77 4.83-10.38l13.34-4.71a.33.33 0 01.31 0 .33.33 0 01.15.28v5.82a1 1 0 00.97 1.06zm-66.95 14.29l20.6-7.28v5.38L223.05 72zm20.6-9.46l-20.6 7.28v-2.27l20.6-7.28zm-20.6 17l20.6-7.28v3l-20.6 7.27zm.23-22L243.65 45v7.7l-20.6 7.3v-7.47a.32.32 0 01.23-.32zm-.23 30.88v-3.73l20.6-7.31v3.78zm38.89-15.76a.19.19 0 01-.14.06.17.17 0 01-.13-.06 91.72 91.72 0 01-5.45-6.52 1 1 0 00-1.64 1.24c2.2 2.91 4.44 5.43 5.58 6.67a2.24 2.24 0 003.29 0c.7-.77 1.71-1.9 2.85-3.25v28.3l-20.6-7.28V45l3.14 1.11a12.92 12.92 0 00-.4 3.25c0 2.21 1.13 5.12 3.36 8.67a1 1 0 101.73-1.1c-2-3.16-3-5.78-3-7.57a11.32 11.32 0 1122.63 0c-.04 4.26-5.82 12.08-11.22 17.97z" transform="translate(-221 -36)"/><path class="cls-6" d="M261.8 42.36a6.6 6.6 0 106.59 6.6 6.6 6.6 0 00-6.59-6.6zm0 11.14a4.54 4.54 0 114.54-4.5 4.55 4.55 0 01-4.54 4.5zm-12.14 16.84l3 1.07a1 1 0 00.34.06 1 1 0 001-.69 1 1 0 00-.63-1.31l-3-1.06a1 1 0 10-.69 1.93zm-.66 5.27a1 1 0 00.62 1.31l10.88 3.84a1 1 0 00.34.06 1 1 0 00.34-2L250.35 75a1 1 0 00-1.35.61zm12.22 7.58l-10.88-3.84A1 1 0 00249 80a1 1 0 00.62 1.31l10.88 3.84a1 1 0 00.34.06 1 1 0 00.34-2zm18.92-23.61h-.33v-.34a1 1 0 00-2.05 0v.34h-.33a1 1 0 100 2.05h.33V62a1 1 0 002.05 0v-.33h.33a1 1 0 100-2.05zm0 9.58h-.33v-.33a1 1 0 10-2.05 0v.33h-.33a1 1 0 100 2h.33v.33a1 1 0 102.05 0v-.33h.33a1 1 0 100-2zm-1.35 12.99a1 1 0 001-1v-.35h.33a1 1 0 100-2h-.33v-.34a1 1 0 00-2.05 0v.34h-.33a1 1 0 100 2h.33v.33a1 1 0 001.05 1.02z" transform="translate(-221 -36)"/></svg>