<svg id="Icon_Set" data-name="Icon Set" xmlns="http://www.w3.org/2000/svg" viewBox="0 0 130 130"><defs><style>.cls-1{fill:#ff5252}.cls-2{fill:#263238}</style></defs><path class="cls-1" d="M33.2 120.56a49.32 49.32 0 01-12.76-1.68l3.1-11.63a38.46 38.46 0 004.8 1 37.62 37.62 0 0014.53-1L46 118.88a49 49 0 01-6.34 1.26 51.09 51.09 0 01-6.46.42z" transform="translate(33 -5)"/><path class="cls-2" d="M33.2 121.76a52 52 0 01-6.58-.43 51.52 51.52 0 01-6.5-1.28 1.21 1.21 0 01-.85-1.48l3.1-11.63a1.18 1.18 0 01.56-.73 1.21 1.21 0 01.91-.12 37.65 37.65 0 004.66.92 36.67 36.67 0 009.42 0 39.24 39.24 0 004.64-.92 1.2 1.2 0 011.47.85l3.1 11.63a1.2 1.2 0 01-.85 1.47 50.68 50.68 0 01-6.49 1.29 51.48 51.48 0 01-6.59.43zM21.91 118c1.64.39 3.33.7 5 .93a48.29 48.29 0 0012.54 0 47.18 47.18 0 005-.93L42 108.71a37.93 37.93 0 01-3.78.68 38.78 38.78 0 01-10 0c-1.28-.17-2.55-.4-3.8-.69z" transform="translate(33 -5)"/><path class="cls-1" d="M57.89 114l-6-10.42a36.85 36.85 0 004.06-2.72 37.25 37.25 0 003.67-3.22l8.51 8.51a50.32 50.32 0 01-4.84 4.26 49.71 49.71 0 01-5.4 3.59z" transform="translate(33 -5)"/><path class="cls-2" d="M57.89 115.16a1.19 1.19 0 01-1-.61l-6-10.42a1.2 1.2 0 01.44-1.64 35.64 35.64 0 007.47-5.75 1.21 1.21 0 011.71 0l8.51 8.5a1.21 1.21 0 01.35.86 1.19 1.19 0 01-.37.9 51.39 51.39 0 01-5 4.36 50.67 50.67 0 01-5.5 3.68 1.21 1.21 0 01-.61.12zM53.5 104l4.82 8.34a47.57 47.57 0 004.21-2.89 50.64 50.64 0 003.86-3.31l-6.82-6.81a36.38 36.38 0 01-2.91 2.49c-1.02.73-2.08 1.46-3.16 2.18z" transform="translate(33 -5)"/><path class="cls-1" d="M8.71 114.06a49.72 49.72 0 01-5.41-3.59 51.45 51.45 0 01-5-4.37l8.52-8.51a36.85 36.85 0 003.78 3.31 35.2 35.2 0 004.08 2.71z" transform="translate(33 -5)"/><path class="cls-2" d="M8.71 115.27a1.2 1.2 0 01-.6-.16A50.13 50.13 0 01-2.55 107a1.2 1.2 0 010-1.7L6 96.74a1.21 1.21 0 011.71 0 35.79 35.79 0 007.61 5.83 1.22 1.22 0 01.45 1.64l-6 10.45a1.22 1.22 0 01-1.06.61zM0 106.09a48 48 0 004 3.42 50.4 50.4 0 004.24 2.9l4.81-8.41a38.16 38.16 0 01-3.18-2.19 36.89 36.89 0 01-3-2.57zm-5.31-93.87h-9.63A1.21 1.21 0 01-16.15 11a1.21 1.21 0 011.21-1.21h9.63A1.21 1.21 0 01-4.11 11a1.2 1.2 0 01-1.2 1.22z" transform="translate(33 -5)"/><path class="cls-2" d="M-10.13 17a1.21 1.21 0 01-1.2-1.21V6.2a1.2 1.2 0 011.2-1.2 1.2 1.2 0 011.2 1.2v9.63a1.21 1.21 0 01-1.2 1.17zm-12.04 10.87h-9.63a1.2 1.2 0 01-1.2-1.2 1.21 1.21 0 011.2-1.21h9.63A1.21 1.21 0 01-21 26.67a1.21 1.21 0 01-1.17 1.2z" transform="translate(33 -5)"/><path class="cls-2" d="M-27 32.69a1.21 1.21 0 01-1.21-1.21v-9.63a1.21 1.21 0 011.21-1.2 1.2 1.2 0 011.2 1.2v9.63a1.21 1.21 0 01-1.2 1.21zM33.2 135a63.51 63.51 0 01-50.13-24.33A63.17 63.17 0 01-30.59 71.2a1.2 1.2 0 011.2-1.2 1.2 1.2 0 011.2 1.2 60.81 60.81 0 0013.15 38 61.1 61.1 0 0048.24 23.39 1.21 1.21 0 110 2.41zm62.6-62.59a1.21 1.21 0 01-1.21-1.21A61.46 61.46 0 0033.2 9.81a1.2 1.2 0 010-2.4A63.87 63.87 0 0197 71.2a1.21 1.21 0 01-1.2 1.21zM28.39 9.81H26a1.2 1.2 0 110-2.4h2.41a1.2 1.2 0 010 2.4zM40.43 135H38a1.21 1.21 0 110-2.41h2.41a1.21 1.21 0 010 2.41z" transform="translate(33 -5)"/><path d="M81.05 83.24a49.65 49.65 0 001.51-12A49.37 49.37 0 0033.2 21.85a49.37 49.37 0 00-42.74 74l10.42-6a37.32 37.32 0 1167.65-6.62h-6l13.22 13.25L89 83.24z" transform="translate(33 -5)" fill="#fc3e59"/><path class="cls-2" d="M75.75 97.69a1.19 1.19 0 01-.85-.36L61.66 84.09a1.18 1.18 0 01-.26-1.31 1.21 1.21 0 011.11-.78h5.15a36.12 36.12 0 10-65.75 7.26 1.17 1.17 0 01.12.91 1.22 1.22 0 01-.56.74l-10.42 6a1.21 1.21 0 01-1.64-.44A50.58 50.58 0 1182.57 82H89a1.2 1.2 0 01.86 2L76.6 97.33a1.17 1.17 0 01-.85.36zM65.42 84.44l10.33 10.34 10.34-10.34h-5a1.21 1.21 0 01-1-.46 1.19 1.19 0 01-.22-1 48.15 48.15 0 10-89 11.28l8.34-4.82a38.52 38.52 0 1170.43-5.78 1.21 1.21 0 01-1.14.81z" transform="translate(33 -5)"/><path d="M48.1 74.75a16 16 0 000-7.1l.67-.38 1.66-1.45a2.4 2.4 0 00.5-3l-2.14-3.67a2.41 2.41 0 00-2.86-1.07l-2.11.71-.68.38A16.43 16.43 0 0037 55.59v-.76l-.44-2.16a2.4 2.4 0 00-2.36-1.93h-4.3a2.42 2.42 0 00-2.37 1.93l-.43 2.16v.75a16.58 16.58 0 00-6.19 3.57l-.68-.39-2.12-.71a2.43 2.43 0 00-2.86 1.08l-2.18 3.67a2.41 2.41 0 00.49 3l1.67 1.45.66.38a16 16 0 000 7.1l-.66.38-1.67 1.45a2.4 2.4 0 00-.5 3l2.14 3.67a2.43 2.43 0 002.86 1.08l2.12-.71.67-.39a16.55 16.55 0 006.2 3.57v.75l.43 2.16a2.42 2.42 0 002.37 1.94h4.29a2.4 2.4 0 002.37-1.94l.49-2.12v-.75a16.58 16.58 0 006.19-3.57l.68.39 2.11.71a2.41 2.41 0 002.86-1.07l2.14-3.68a2.4 2.4 0 00-.5-3l-1.66-1.45zm-16 4.88a8.43 8.43 0 118.42-8.43 8.42 8.42 0 01-8.45 8.43z" transform="translate(33 -5)" fill="#ffcb05"/><path class="cls-2" d="M34.15 92.87h-4.3A3.64 3.64 0 0126.3 90l-.43-2.28a17.34 17.34 0 01-5.17-3l-2.25.77a3.65 3.65 0 01-4.29-1.6L12 80.21a3.61 3.61 0 01.74-4.53l1.78-1.52a16.92 16.92 0 010-5.91l-1.78-1.52A3.61 3.61 0 0112 62.2l2.13-3.68a3.68 3.68 0 014.29-1.61l2.25.79a17.16 17.16 0 015.17-3l.43-2.28a3.63 3.63 0 013.55-2.9h4.29a3.63 3.63 0 013.55 2.9l.44 2.28a17.59 17.59 0 015.17 3l2.25-.78a3.63 3.63 0 014.28 1.61l2.2 3.66a3.62 3.62 0 01-.75 4.54l-1.77 1.52a16.92 16.92 0 010 5.91l1.77 1.52a3.6 3.6 0 01.75 4.53l-2.13 3.68a3.66 3.66 0 01-4.29 1.61l-2.25-.79a17.16 17.16 0 01-5.17 3L37.7 90a3.64 3.64 0 01-3.55 2.87zM20.86 82.05a1.24 1.24 0 01.81.31 15 15 0 005.73 3.31 1.21 1.21 0 01.85 1.15v.76l.41 1.92a1.21 1.21 0 001.19 1h4.3a1.22 1.22 0 001.19-1l.43-2.16v-.52a1.21 1.21 0 01.85-1.15 15 15 0 005.73-3.31 1.21 1.21 0 011.41-.15l.68.39 1.9.61a1.22 1.22 0 001.44-.54L49.89 79a1.2 1.2 0 00-.25-1.51L48 76.05l-.47-.25a1.22 1.22 0 01-.58-1.31 14.77 14.77 0 000-6.57 1.21 1.21 0 01.58-1.31l.66-.38 1.47-1.31a1.2 1.2 0 00.25-1.51l-2.13-3.67a1.21 1.21 0 00-1.44-.54l-2.12.71-.45.29a1.22 1.22 0 01-1.41-.15 15.16 15.16 0 00-5.74-3.31 1.22 1.22 0 01-.85-1.15v-.76l-.41-1.92a1.21 1.21 0 00-1.19-1h-4.31a1.21 1.21 0 00-1.19 1l-.44 2.16v.51a1.22 1.22 0 01-.84 1.16A15 15 0 0021.67 60a1.19 1.19 0 01-1.41.15l-.68-.38-1.9-.62a1.22 1.22 0 00-1.43.54l-2.14 3.68a1.19 1.19 0 00.25 1.5L16 66.36l.47.25a1.21 1.21 0 01.58 1.31 14.77 14.77 0 000 6.57 1.22 1.22 0 01-.57 1.31l-.67.38-1.47 1.31a1.21 1.21 0 00-.23 1.51l2.14 3.67a1.21 1.21 0 001.44.54l2.11-.71.46-.29a1.15 1.15 0 01.6-.16zm11.21-1.22a9.63 9.63 0 119.62-9.63 9.63 9.63 0 01-9.62 9.63zm0-16.85a7.23 7.23 0 107.22 7.22 7.23 7.23 0 00-7.22-7.2z" transform="translate(33 -5)"/></svg>