<svg id="Layer_1" data-name="Layer 1" xmlns="http://www.w3.org/2000/svg" viewBox="0 0 80 80"><defs><style>.cls-6{fill:#1b2c38}</style></defs><path d="M233.87 294.85H276a3.75 3.75 0 003.75-3.75v-59.37A3.75 3.75 0 00276 228h-41.5a3.75 3.75 0 00-3.75 3.75v60a3.12 3.12 0 003.12 3.1z" transform="translate(-214.5 -226.41)" fill="#fc3e59"/><path d="M266.05 238h-46.24a3.75 3.75 0 00-3.75 3.75v59.35a3.75 3.75 0 003.75 3.75h46.24a3.75 3.75 0 003.75-3.75v-59.37a3.75 3.75 0 00-3.75-3.73z" transform="translate(-214.5 -226.41)" fill="#e8e9e1"/><path d="M279.48 276.81L291.67 289a4.34 4.34 0 11-6.14 6.14L273.34 283z" transform="translate(-214.5 -226.41)" fill="#6c6ff2"/><path d="M281.78 267.7a17.54 17.54 0 11-17.54-17.54 17.54 17.54 0 0117.54 17.54z" transform="translate(-214.5 -226.41)" fill="#f1f2ec"/><path d="M269.15 260.16l-6.58 6.59-3.24-3.24-4.25 4.24 3.24 3.24 4.25 4.25 10.83-10.83z" transform="translate(-214.5 -226.41)" fill="#95d133"/><path class="cls-6" d="M292.78 287.89l-11.52-11.52a19.2 19.2 0 00.1-17.15v-27.49a5.33 5.33 0 00-5.32-5.32H234.5a5.33 5.33 0 00-5.32 5.32v4.68h-9.37a5.32 5.32 0 00-5.31 5.32v59.37a5.31 5.31 0 005.31 5.31h46.24a5.31 5.31 0 005.31-5.31v-4.69H276a5.32 5.32 0 005-3.54l3.37 3.38a5.91 5.91 0 108.36-8.36zm-60.47-56.16a2.19 2.19 0 012.19-2.19H276a2.19 2.19 0 012.19 2.19v23l-.49-.51a19 19 0 00-6.38-4.21v-8.25a5.32 5.32 0 00-5.31-5.32h-33.7zm-.08 4.68s-.01-.01 0 0zm-2.95 0s0-.02 0 0zm39 64.69a2.19 2.19 0 01-2.18 2.19h-46.29a2.19 2.19 0 01-2.18-2.19v-59.37a2.19 2.19 0 012.18-2.19h46.24a2.19 2.19 0 012.18 2.19V249a19.09 19.09 0 00-17.49 5.16 18.84 18.84 0 00-3.28 4.39h-23a1.57 1.57 0 000 3.13h21.61a19.23 19.23 0 00-.84 8.14H224.5a1.57 1.57 0 000 3.13h21.39a19.09 19.09 0 0018.35 13.82 19.11 19.11 0 004-.42zM252.94 279a16 16 0 1122.6 0 16 16 0 01-22.6 0zm25.29 12.1a2.19 2.19 0 01-2.19 2.19h-4.68v-7.86c.52-.21 1-.44 1.55-.7l5.32 5.32zm12.34 2.9a2.8 2.8 0 01-3.94 0l-11-11a17.2 17.2 0 002.11-1.82 19.07 19.07 0 001.83-2.11l11 11a2.8 2.8 0 010 3.93z" transform="translate(-214.5 -226.41)"/><path class="cls-6" d="M270.25 259.06a1.55 1.55 0 00-2.2 0l-5.48 5.48-2.14-2.14a1.55 1.55 0 00-2.2 0l-4.23 4.25a1.57 1.57 0 00-.46 1.1 1.59 1.59 0 00.46 1.11l7.49 7.49a1.57 1.57 0 002.2 0l10.83-10.83a1.59 1.59 0 00.46-1.11 1.57 1.57 0 00-.46-1.1zm-7.68 14l-5.28-5.28 2-2 2.14 2.13a1.55 1.55 0 002.2 0l5.48-5.48 2 2zm-38.07 11.15h21.85a1.57 1.57 0 100-3.13H224.5a1.57 1.57 0 000 3.13zm30.01 8.14a1.57 1.57 0 00-1.1.46 1.56 1.56 0 000 2.21 1.56 1.56 0 101.1-2.67zm-6.28 0H224.5a1.57 1.57 0 000 3.13h23.73a1.57 1.57 0 000-3.13zm-23.73-41.87h23.69a1.57 1.57 0 000-3.13H224.5a1.57 1.57 0 000 3.13z" transform="translate(-214.5 -226.41)"/></svg>