<svg xmlns="http://www.w3.org/2000/svg" viewBox="0 0 130 130"><defs><style>.cls-2{fill:#ffcb05}.cls-7{fill:#1b2c38}</style></defs><circle cx="65" cy="65" r="65" fill="#27c7cd" id="Layer_2" data-name="Layer 2"/><g id="Layer_3" data-name="Layer 3"><path class="cls-2" d="M48 82.27A8.42 8.42 0 0144 86a.4.4 0 000 .73 8.42 8.42 0 014 3.76.42.42 0 00.74 0 8.42 8.42 0 014-3.76.4.4 0 000-.73 8.42 8.42 0 01-4-3.76.42.42 0 00-.74.03zm39.45-37.45a8.46 8.46 0 01-4 3.76.41.41 0 000 .74 8.45 8.45 0 014 3.75.41.41 0 00.73 0 8.41 8.41 0 014-3.75.41.41 0 000-.74 8.42 8.42 0 01-4-3.76.41.41 0 00-.73 0z" transform="translate(.98 -3.35)"/><path d="M81.44 76.11l-6.75 6.75a2.35 2.35 0 01-3.31 0l-3-3a2.35 2.35 0 010-3.31l6.75-6.75a2.35 2.35 0 013.31 0l3 3a2.35 2.35 0 010 3.31z" transform="translate(.98 -3.35)" fill="#7c8388"/><path d="M91.83 93.25a4.78 4.78 0 01-6.75 0L74.75 82.92l6.75-6.75L91.83 86.5a4.78 4.78 0 010 6.75z" transform="translate(.98 -3.35)" fill="#636c78"/><path d="M80.57 62a20 20 0 11-20-20 20 20 0 0120 20z" transform="translate(.98 -3.35)" fill="#fc3e59"/><path class="cls-2" d="M82.74 54.61a10.86 10.86 0 01-5.16 4.83.53.53 0 000 1 10.86 10.86 0 015.16 4.84.53.53 0 00.94 0 10.82 10.82 0 015.16-4.84.53.53 0 000-1 10.86 10.86 0 01-5.16-4.83.52.52 0 00-.94 0z" transform="translate(.98 -3.35)"/><path d="M75.86 62A15.26 15.26 0 1160.6 46.76 15.26 15.26 0 0175.86 62z" transform="translate(.98 -3.35)" fill="#e8e9e1"/><path class="cls-7" d="M53.11 85.31a7.55 7.55 0 01-3.64-3.4 1.21 1.21 0 00-2.16 0 4.6 4.6 0 01-.37.64.8.8 0 001.33.88l.12-.19a9.13 9.13 0 003.36 3.15 9.3 9.3 0 00-3.36 3.15A9.22 9.22 0 0045 86.39l.37-.21a.8.8 0 00-.84-1.36 8.45 8.45 0 01-.89.49 1.21 1.21 0 000 2.17 7.55 7.55 0 013.64 3.4 1.21 1.21 0 002.16 0 7.55 7.55 0 013.64-3.4 1.21 1.21 0 000-2.17zM83.09 50a7.63 7.63 0 013.65 3.4 1.18 1.18 0 001.07.66 1.2 1.2 0 001.08-.66 7.6 7.6 0 013.64-3.4 1.18 1.18 0 00.68-1 1.21 1.21 0 00-.68-1.09 7.63 7.63 0 01-3.64-3.39 1.21 1.21 0 00-1.08-.67 1.19 1.19 0 00-1.07.67 7.66 7.66 0 01-3.65 3.39 1.21 1.21 0 00-.68 1.09 1.18 1.18 0 00.68 1zm4.72-4.23A9.3 9.3 0 0091.17 49a9.22 9.22 0 00-3.36 3.15A9.13 9.13 0 0084.45 49a9.22 9.22 0 003.36-3.2zm4.58 40.17L82.49 76a3.13 3.13 0 00-.49-3.8L79.78 70a20.87 20.87 0 001.46-5.7 9.08 9.08 0 01.76 1.28 1.32 1.32 0 002.36 0 10 10 0 014.79-4.47 1.31 1.31 0 00.75-1.19 1.33 1.33 0 00-.75-1.2 10 10 0 01-4.79-4.47 1.32 1.32 0 00-2.36 0 9.28 9.28 0 01-1.45 2.07 20.74 20.74 0 10-12 24.88l2.23 2.22a3.13 3.13 0 003.8.49l9.9 9.9a5.56 5.56 0 107.87-7.87zm-9.18-30.53A11.59 11.59 0 0088 59.92a11.57 11.57 0 00-4.8 4.5 11.64 11.64 0 00-4.8-4.5 11.65 11.65 0 004.81-4.51zM60.6 81.19a19.17 19.17 0 1118.64-23.68 11.77 11.77 0 01-2 1.21 1.33 1.33 0 00-.75 1.08A16 16 0 0072 50.66a16.9 16.9 0 00-3-2.38.8.8 0 00-1.1.27.81.81 0 00.27 1.09 14.5 14.5 0 11-3.22-1.44.8.8 0 10.47-1.53 16.07 16.07 0 1011.14 13.67 1.32 1.32 0 00.68.77 11.66 11.66 0 012.52 1.62A19.16 19.16 0 0160.6 81.19zm13.53 1.1a1.53 1.53 0 01-2.19 0l-1.81-1.81a21.06 21.06 0 008.93-8.93l1.82 1.81a1.56 1.56 0 010 2.19zm17.13 10.39a3.95 3.95 0 01-5.61 0l-9.77-9.76 5.62-5.62 9.76 9.77a3.95 3.95 0 010 5.61z" transform="translate(.98 -3.35)"/><path class="cls-7" d="M56 69.43a.42.42 0 01-.24-.09l-12.51-9.88-8.5 9.54a.39.39 0 01-.61 0 .54.54 0 010-.7l8.75-9.85a.4.4 0 01.55-.06L56 68.29 68.85 53.8a.39.39 0 01.61 0 .56.56 0 010 .7L56.32 69.28a.38.38 0 01-.32.15z" transform="translate(.98 -3.35)"/></g></svg>