<svg id="Layer_1" data-name="Layer 1" xmlns="http://www.w3.org/2000/svg" viewBox="0 0 70 69.99"><defs><style>.cls-1{fill:#ffcb05}.cls-6{fill:#1b2c38}</style></defs><path class="cls-1" d="M231.59 53a10.94 10.94 0 01-5.18 4.85.53.53 0 000 1 10.9 10.9 0 015.18 4.86.53.53 0 00.94 0 10.85 10.85 0 015.18-4.86.53.53 0 000-1 10.89 10.89 0 01-5.18-4.85.52.52 0 00-.94 0zm50.92-48.4a10.85 10.85 0 01-5.18 4.86.53.53 0 000 .95 10.89 10.89 0 015.18 4.85.52.52 0 00.94 0 10.94 10.94 0 015.18-4.85.53.53 0 000-.95 10.9 10.9 0 01-5.18-4.86.53.53 0 00-.94 0z" transform="translate(-221)"/><path d="M274.75 45L266 53.74a3 3 0 01-4.29 0l-3.85-3.86a3 3 0 010-4.28l8.71-8.72a3 3 0 014.28 0l3.86 3.86a3 3 0 01.04 4.26z" transform="translate(-221)" fill="#7c8388"/><path d="M288.17 67.16a6.17 6.17 0 01-8.71 0l-13.35-13.35 8.71-8.71 13.35 13.35a6.17 6.17 0 010 8.71z" transform="translate(-221)" fill="#27c7cd"/><path d="M273.63 26.82A25.8 25.8 0 11247.83 1a25.8 25.8 0 0125.8 25.82z" transform="translate(-221)" fill="#fc3e59"/><path class="cls-1" d="M276.43 17.24a14.06 14.06 0 01-6.66 6.25.67.67 0 000 1.22 14.06 14.06 0 016.66 6.29.68.68 0 001.21 0 14.06 14.06 0 016.66-6.25.67.67 0 000-1.22 14.06 14.06 0 01-6.66-6.25.68.68 0 00-1.21-.04z" transform="translate(-221)"/><path d="M267.54 26.82A19.72 19.72 0 11247.83 7.1a19.72 19.72 0 0119.71 19.72z" transform="translate(-221)" fill="#f1f2ec"/><path class="cls-6" d="M251.23 27.9a16.05 16.05 0 00-2.88-1.9 15.18 15.18 0 01-2.52-1.69 2.65 2.65 0 01-.45-3.45 2.88 2.88 0 012.35-1.29 3.08 3.08 0 012.21.91 1.91 1.91 0 01.61 1.43 1 1 0 102 .15 3.87 3.87 0 00-1.19-3 5.32 5.32 0 00-2.53-1.41v-1.9a1 1 0 10-2.05 0v1.83a4.85 4.85 0 00-3.19 2.16 4.71 4.71 0 00.83 6 16.35 16.35 0 002.87 1.95 14.33 14.33 0 012.53 1.7 2.67 2.67 0 01.46 3.45 2.94 2.94 0 01-2.28 1.32 3 3 0 01-2.21-.91 1.85 1.85 0 01-.6-1.43 1 1 0 00-2.05-.15 3.91 3.91 0 001.19 3 5.32 5.32 0 002.53 1.41v1.83a1 1 0 102.05 0v-1.8a4.88 4.88 0 003.2-2.16 4.74 4.74 0 00-.88-6.05zm-13.08 29a9.81 9.81 0 01-4.7-4.38 1.55 1.55 0 00-1.39-.86 1.53 1.53 0 00-1.39.86 8.72 8.72 0 01-.48.82 1 1 0 001.72 1.13l.15-.23a11.88 11.88 0 004.34 4.07 11.72 11.72 0 00-4.34 4.07 11.76 11.76 0 00-4.35-4.07l.48-.29a1 1 0 10-1.08-1.74 12.54 12.54 0 01-1.15.62 1.56 1.56 0 000 2.81 9.85 9.85 0 014.71 4.39 1.54 1.54 0 001.39.85 1.56 1.56 0 001.39-.85 9.82 9.82 0 014.7-4.39 1.56 1.56 0 000-2.81zm38.74-45.56a9.81 9.81 0 014.7 4.38 1.55 1.55 0 001.39.86 1.53 1.53 0 001.39-.86 9.84 9.84 0 014.71-4.38 1.56 1.56 0 000-2.81 9.85 9.85 0 01-4.71-4.39 1.54 1.54 0 00-1.37-.85 1.56 1.56 0 00-1.39.85 9.82 9.82 0 01-4.7 4.39 1.56 1.56 0 000 2.81zM283 5.86a11.76 11.76 0 004.35 4.07A11.92 11.92 0 00283 14a11.88 11.88 0 00-4.34-4.07A11.72 11.72 0 00283 5.86z" transform="translate(-221)"/><path class="cls-6" d="M288.9 57.72l-12.79-12.79a4 4 0 00.55-2 4 4 0 00-1.19-2.93l-2.87-2.88a26.41 26.41 0 001.89-7.36 10.42 10.42 0 011 1.64 1.71 1.71 0 003.05 0 12.93 12.93 0 016.19-5.78 1.71 1.71 0 000-3.08 12.93 12.93 0 01-6.19-5.78 1.71 1.71 0 00-3.05 0 11.18 11.18 0 01-1.88 2.67 26.83 26.83 0 10-44.77 26.33 26.88 26.88 0 0029.29 5.81l2.87 2.89a4.06 4.06 0 004.91.64l12.79 12.78a7.19 7.19 0 0010.2-10.16zM277 18.29a15.05 15.05 0 006.21 5.81 15 15 0 00-6.21 5.82 14.9 14.9 0 00-6.2-5.82 14.89 14.89 0 006.2-5.81zm-29.2 33.3A24.77 24.77 0 11265.34 9.3a24.5 24.5 0 016.57 11.7 15.29 15.29 0 01-2.59 1.56 1.7 1.7 0 00-1 1.4 20.76 20.76 0 00-9.79-14.89 1 1 0 00-1.06 1.76A19.15 19.15 0 01261 13.6a18.68 18.68 0 11-7.65-4.6 1 1 0 10.6-2 20.75 20.75 0 1014.49 17.65 1.72 1.72 0 00.88 1 15.3 15.3 0 013.26 2.1 24.78 24.78 0 01-24.75 23.85zM265.31 53a2 2 0 01-2.83 0l-2.34-2.35a26.94 26.94 0 0011.54-11.54l2.32 2.36a2 2 0 010 2.83zm22.13 13.42a5.14 5.14 0 01-7.26 0l-12.61-12.61 7.25-7.26 12.62 12.62a5.14 5.14 0 010 7.26z" transform="translate(-221)"/></svg>