<svg id="Layer_1" data-name="Layer 1" xmlns="http://www.w3.org/2000/svg" viewBox="0 0 70 70"><defs><style>.cls-4{fill:#1b2c38}.cls-5{fill:#ffcb05}</style></defs><path d="M253.9 223.69a33.09 33.09 0 00-32.27 32.82c0 18 15.08 33 33.27 33a33.36 33.36 0 0022.84-9 1 1 0 000-1.39L256.34 258a4.81 4.81 0 01-1.43-3.42v-29.9a1 1 0 00-1.01-.99z" transform="translate(-220.59 -220.5)" fill="#fc3e59"/><path d="M283.06 276.69a30.36 30.36 0 006.39-20.47 1 1 0 00-1.14-.91l-22.46 3.48a1 1 0 00-.55 1.65l16.28 16.34a1 1 0 001.48-.09z" transform="translate(-220.59 -220.5)" fill="#95d133"/><path d="M260.21 255.34l28.5-4.23a1 1 0 00.83-1.09 33.22 33.22 0 00-29.49-28.49 1 1 0 00-1.1 1l.13 31.87a1 1 0 001.13.94z" transform="translate(-220.59 -220.5)" fill="#27c7cd"/><path class="cls-4" d="M290.49 256.16a2 2 0 00-2.34-1.87l-22.46 3.49a2 2 0 00-1.13 3.38l9.21 9.24a1.05 1.05 0 001.47 0 1 1 0 000-1.46l-9.13-9.16 22.29-3.46a29.4 29.4 0 01-6.12 19.68l-3.61-3.61a1 1 0 00-1.47 0 1 1 0 000 1.45l3.65 3.66a2 2 0 001.44.6h.12a2 2 0 001.49-.78 31.47 31.47 0 006.59-21.16zm-51.21-2.95a4 4 0 10-4 3.94 4 4 0 004-3.94zm-5.9 0a1.92 1.92 0 111.92 1.89 1.91 1.91 0 01-1.92-1.89zm11.78 5.79a3.94 3.94 0 104 3.94 4 4 0 00-4-3.94zm0 5.83a1.89 1.89 0 111.91-1.89 1.9 1.9 0 01-1.91 1.91zm.4-14.95a1.05 1.05 0 00-1.43.31l-9.55 14.68a1 1 0 00.31 1.41 1.07 1.07 0 00.56.17 1 1 0 00.87-.47l9.55-14.68a1 1 0 00-.31-1.42z" transform="translate(-220.59 -220.5)"/><path class="cls-5" d="M278.74 223.84a12.5 12.5 0 01-6 5.54.6.6 0 000 1.09 12.56 12.56 0 016 5.55.62.62 0 001.09 0 12.56 12.56 0 016-5.55.6.6 0 000-1.09 12.5 12.5 0 01-6-5.54.62.62 0 00-1.09 0z" transform="translate(-220.59 -220.5)"/><path class="cls-4" d="M290.57 249.89a33.77 33.77 0 00-7.16-16.69 14.28 14.28 0 012.85-1.8 1.62 1.62 0 000-2.94 11.53 11.53 0 01-5.5-5.08 1.66 1.66 0 00-2.95 0 10 10 0 01-2.1 2.77 34.61 34.61 0 00-15.55-5.64 2 2 0 00-1.58.51 2 2 0 00-.67 1.49l.13 31.88a2 2 0 00.7 1.51 2.06 2.06 0 001.32.48 1.51 1.51 0 00.3 0l28.51-4.24a2 2 0 001.7-2.25zM279.28 225a13.53 13.53 0 005.33 4.94 13.59 13.59 0 00-5.33 4.93 13.48 13.48 0 00-5.32-4.93 13.42 13.42 0 005.32-4.94zm-19.16 29.33l-.12-31.77a32.59 32.59 0 0114 4.94 13.7 13.7 0 01-1.71 1 1.63 1.63 0 000 2.94 11.42 11.42 0 015.51 5.08 1.66 1.66 0 002.95 0 9.47 9.47 0 011.18-1.8 31.77 31.77 0 016.56 15.42z" transform="translate(-220.59 -220.5)"/><path class="cls-5" d="M247.91 270.54a10.32 10.32 0 01-4.94 4.57.5.5 0 000 .9 10.38 10.38 0 014.94 4.58.51.51 0 00.9 0 10.38 10.38 0 014.94-4.58.5.5 0 000-.9 10.32 10.32 0 01-4.94-4.57.5.5 0 00-.9 0zm-15.98 3.55a13.9 13.9 0 01-6.65 6.16.68.68 0 000 1.22 13.9 13.9 0 016.65 6.16.68.68 0 001.22 0 13.9 13.9 0 016.65-6.16.67.67 0 000-1.22 13.9 13.9 0 01-6.65-6.16.69.69 0 00-1.22 0z" transform="translate(-220.59 -220.5)"/><path class="cls-4" d="M278.49 278.38l-21.42-21.12a3.83 3.83 0 01-1.12-2.69v-29.9a2 2 0 00-.62-1.44 2 2 0 00-1.46-.57 34.35 34.35 0 00-23.55 10.24 33.58 33.58 0 00-9.73 23.61 33.93 33.93 0 007.34 20.87 15 15 0 01-3.1 1.95 1.69 1.69 0 000 3.06 12.92 12.92 0 016.18 5.7 1.72 1.72 0 003.07 0 11.5 11.5 0 012.3-3.07 32.29 32.29 0 003.34 1.9 1.05 1.05 0 001.4-.45 1 1 0 00-.47-1.38c-.88-.44-1.74-.93-2.58-1.44a15.85 15.85 0 012.18-1.26 1.68 1.68 0 000-3.06 12.88 12.88 0 01-6.17-5.7 1.72 1.72 0 00-3.07 0 11.78 11.78 0 01-1.58 2.31c-.62-.8-1.21-1.63-1.76-2.48a31.36 31.36 0 014.14-39.12 32.25 32.25 0 0122.06-9.62v29.85a5.85 5.85 0 001.73 4.14L277 279.8a32.3 32.3 0 01-22.07 8.64 31.87 31.87 0 01-9.92-1.58 1 1 0 00-1.32.65 1 1 0 00.66 1.3 33.94 33.94 0 0010.58 1.69 34.39 34.39 0 0023.55-9.25 2 2 0 000-2.87zm-46-3.24a14.93 14.93 0 006.17 5.72 14.93 14.93 0 00-6.17 5.72 14.93 14.93 0 00-6.17-5.72 14.93 14.93 0 006.22-5.72z" transform="translate(-220.59 -220.5)"/><path class="cls-4" d="M247 281.05a1.55 1.55 0 002.76 0 9.2 9.2 0 014.46-4.11 1.52 1.52 0 00.87-1.38 1.5 1.5 0 00-.87-1.37 9.29 9.29 0 01-4.46-4.11 1.55 1.55 0 00-2.76 0 9.29 9.29 0 01-4.46 4.11 1.5 1.5 0 00-.87 1.37 1.52 1.52 0 00.87 1.38 9.2 9.2 0 014.46 4.11zm1.38-9.21a11.3 11.3 0 004 3.72 11.31 11.31 0 00-4 3.73 11.4 11.4 0 00-4-3.73 11.38 11.38 0 003.98-3.72z" transform="translate(-220.59 -220.5)"/></svg>