<svg id="Layer_1" data-name="Layer 1" xmlns="http://www.w3.org/2000/svg" viewBox="0 0 70 70"><defs><style>.cls-4{fill:#1b2c38}</style></defs><path d="M273.83 240A33.83 33.83 0 11240 206.17 33.82 33.82 0 01273.83 240z" transform="translate(-205 -205)" fill="#95d133"/><path d="M243.5 221.33v7h-5.83v1.17h-5.84v3.5h-4.66v13l1.16 4.52h21v-29.19zm5.83 14v15.17l4.67-5.83v-10.5h-4.67z" transform="translate(-205 -205)" fill="#f1f2ec"/><path d="M226 250.5v8.17h26.83v-8.17z" transform="translate(-205 -205)" fill="#949fac"/><path class="cls-4" d="M240 205a35 35 0 1035 35 35 35 0 00-35-35zm0 67.67A32.67 32.67 0 11272.67 240 32.67 32.67 0 01240 272.67z" transform="translate(-205 -205)"/><path class="cls-4" d="M254 233h-3.5v-11.67a1.16 1.16 0 00-1.17-1.16h-5.83a1.17 1.17 0 00-1.17 1.16v5.84h-4.66a1.16 1.16 0 00-1.17 1.16h-4.67a1.17 1.17 0 00-1.16 1.17v2.33h-3.5A1.17 1.17 0 00226 233v13a.92.92 0 000 .29l.79 3.06H226a1.18 1.18 0 00-1.17 1.17v8.17a1.17 1.17 0 001.17 1.16h26.83a1.16 1.16 0 001.17-1.16v-8.19a1.17 1.17 0 00-1.17-1.17h-1.07l3.15-3.93a1.16 1.16 0 00.26-.73v-10.5A1.17 1.17 0 00254 233zm-25.67 12.83v-11.66h2.34v2.33H233v-5.83h3.5v5.83h2.33v-7h3.5v7h2.34v-14h3.5v26.83h-18.93zm23.34 11.67h-24.5v-5.83h24.5zm1.16-13.24l-2.33 2.91v-11.84h2.33z" transform="translate(-205 -205)"/></svg>