<svg data-name="Capa 1" xmlns="http://www.w3.org/2000/svg" viewBox="0 0 70 70"><path d="M6.77 37.46H3.49A2.46 2.46 0 011 35a2.46 2.46 0 012.46-2.46h3.28A2.46 2.46 0 019.2 35a2.46 2.46 0 01-2.43 2.46zm59.74 0h-3.28A2.46 2.46 0 0160.77 35a2.46 2.46 0 012.46-2.46h3.28A2.46 2.46 0 0169 35a2.46 2.46 0 01-2.49 2.46z" fill="#546e7a"/><path d="M35 6.49A28.51 28.51 0 1063.51 35 28.52 28.52 0 0035 6.49zm0 41.34A12.83 12.83 0 1147.83 35 12.84 12.84 0 0135 47.83z" fill="#f1f2ec"/><path d="M41.84 7.32v16.82a12.84 12.84 0 00-14.91.89V7.65a28.63 28.63 0 0114.91-.33zm0 38.54v16.82a28.63 28.63 0 01-14.91-.33V45a12.84 12.84 0 0014.91.89zM63.51 35a28.27 28.27 0 01-.9 7.11H45.68a12.82 12.82 0 00-.49-14.9h17.24A28.57 28.57 0 0163.51 35zm-41.34 0a12.76 12.76 0 002.15 7.11H7.39a28.27 28.27 0 01-.9-7.11 28.57 28.57 0 011.08-7.79h17.24A12.8 12.8 0 0022.17 35z" fill="#fc3e59"/><path d="M70 35a3.49 3.49 0 00-3.49-3.49 34 34 0 00.94-8.87A21.53 21.53 0 0063.26 10C58.2 3.37 48.8 0 35.34 0s-23 3.38-28.25 10.06a22.17 22.17 0 00-4.51 12.59 34.56 34.56 0 00.69 8.87 3.502 3.502 0 00.22 7c-1 4.38-1.9 11.55 1.13 18a1 1 0 00.92.59 1 1 0 00.44-.1 1 1 0 00.49-1.36c-1.28-2.73-3.05-8.52-.88-17.13h.08a29.54 29.54 0 0058.66 0h.3a32.07 32.07 0 01.74 8.74 20.25 20.25 0 01-4.07 11.45c-4.84 6.15-13.8 9.27-26.64 9.27-12.53 0-21.28-3-26-8.83a1.02 1.02 0 10-1.59 1.28c5.13 6.37 14.42 9.6 27.6 9.6 13.51 0 23-3.38 28.25-10.06a22.17 22.17 0 004.51-12.59 34.56 34.56 0 00-.69-8.87A3.49 3.49 0 0070 35zM35 46.8A11.8 11.8 0 1146.8 35 11.81 11.81 0 0135 46.8zm0-39.28a27.35 27.35 0 015.81.61v14.3a13.85 13.85 0 00-12.85.64V8.43A27.73 27.73 0 0135 7.52zm-9.09 17a14.32 14.32 0 00-1.59 1.62H9A27.61 27.61 0 0125.94 9.03zM7.52 35a27.53 27.53 0 01.84-6.77h14.56a13.82 13.82 0 00-.36 12.85H8.2A27 27 0 017.52 35zm39.56-6.77h14.56a27.84 27.84 0 01.84 6.77 27 27 0 01-.68 6.08H47.44a13.82 13.82 0 00-.36-12.85zM4.63 22.77A20.25 20.25 0 018.7 11.32c4.84-6.15 13.8-9.27 26.64-9.27s21.63 3.09 26.29 9.2a19.51 19.51 0 013.78 11.46 32.5 32.5 0 01-1 8.8h-.07a29.48 29.48 0 00-7.59-16.5 1.026 1.026 0 00-1.51 1.39 27.4 27.4 0 015.8 9.78H45.68a14.4 14.4 0 00-2.82-2.58v-15a27.26 27.26 0 019.29 4.87 1 1 0 001.44-.16 1 1 0 00-.16-1.44 29.56 29.56 0 00-26.7-5.27l-.17.05A29.62 29.62 0 005.67 31.46h-.3a32.07 32.07 0 01-.74-8.69zM2.05 35a1.44 1.44 0 011.44-1.44h2v2.88h-2A1.44 1.44 0 012.05 35zm6.7 8.13h15a13.69 13.69 0 002.12 2.31v15.49a27.59 27.59 0 01-17.12-17.8zm34.11 18.2v-.11a1.025 1.025 0 10-2.05 0v.64a27.14 27.14 0 01-5.81.62 27.73 27.73 0 01-7-.91V46.93a13.85 13.85 0 0012.85.64v9.24a1.025 1.025 0 002.05 0V46.4a14.06 14.06 0 003.35-3.27h15a27.56 27.56 0 01-18.39 18.2zm23.65-24.89h-2v-2.88h2a1.44 1.44 0 010 2.88z" fill="#1b2c38"/></svg>