<svg id="Layer_1" data-name="Layer 1" xmlns="http://www.w3.org/2000/svg" viewBox="0 0 100.58 100"><defs><style>.cls-1{fill:#1b2c38}.cls-2{fill:#ffcb05}</style></defs><path class="cls-1" d="M17.55 101.5a.82.82 0 01-.82-.75L13.6 64.28 3.21 68.73a11.47 11.47 0 00-7 10.55v21.4a.82.82 0 01-.82.82.82.82 0 01-.82-.82v-21.4a13.12 13.12 0 018-12.06L14 62.33a.78.78 0 01.74.05.81.81 0 01.39.63l3.24 37.6a.83.83 0 01-.75.89zm23.79-8.2a.81.81 0 01-.82-.82v-4.91a.82.82 0 111.64 0v4.91a.82.82 0 01-.82.82zm-16.4-32.78A18.76 18.76 0 016.75 46.58a4.92 4.92 0 010-9.83 18.84 18.84 0 0136.38 0 4.92 4.92 0 010 9.83 18.74 18.74 0 01-18.19 13.94zM7.26 44.91a.93.93 0 01.92.62 17.2 17.2 0 0033.52 0 .8.8 0 01.9-.63h.38a3.28 3.28 0 000-6.55h-.24a1 1 0 01-1-.61 17.2 17.2 0 00-33.52 0 .82.82 0 01-.89.63h-.38a3.28 3.28 0 100 6.55h.23z" transform="translate(18.5 -1.5)"/><path class="cls-2" d="M8.55 40h-.82V29.37h4.92v6.56A4.1 4.1 0 018.55 40z" transform="translate(18.5 -1.5)"/><path class="cls-1" d="M8.55 40.84h-.82a.82.82 0 01-.82-.84V29.37a.82.82 0 01.82-.82h4.92a.82.82 0 01.82.82v6.56a4.92 4.92 0 01-4.92 4.91zm0-1.64zm0-9v9a3.28 3.28 0 003.28-3.27v-5.74z" transform="translate(18.5 -1.5)"/><path class="cls-2" d="M37.24 29.29v6.64a4.09 4.09 0 004.1 4.07h.82V27a8.23 8.23 0 01-4.92 2.29z" transform="translate(18.5 -1.5)"/><path class="cls-1" d="M42.16 40.84h-.82a4.91 4.91 0 01-4.92-4.91v-6.64a.82.82 0 01.74-.82 7.36 7.36 0 004.42-2A.83.83 0 0143 27v13a.82.82 0 01-.84.84zM38.06 30v5.93a3.28 3.28 0 003.28 3.27V28.71A9.34 9.34 0 0138.06 30zM24.94 50.68A9 9 0 0118.57 48a.82.82 0 111.16-1.16 7.38 7.38 0 0010.43 0A.82.82 0 1131.32 48a9 9 0 01-6.38 2.68z" transform="translate(18.5 -1.5)"/><path class="cls-2" d="M36.42 29.37H7.73A12.3 12.3 0 0120 17.07h8.54a24.57 24.57 0 0010.3-2.26l5.75-2.65v9a8.2 8.2 0 01-8.17 8.21z" transform="translate(18.5 -1.5)"/><path class="cls-1" d="M36.42 30.19H7.73a.82.82 0 01-.82-.82A13.13 13.13 0 0120 16.25h8.54a24 24 0 0010-2.18l5.75-2.66a.82.82 0 011.16.75v9a9 9 0 01-9.03 9.03zM8.58 28.55h27.84a7.39 7.39 0 007.38-7.38v-7.73l-4.59 2.11a25.62 25.62 0 01-10.65 2.34H20A11.49 11.49 0 008.58 28.55z" transform="translate(18.5 -1.5)"/><path fill="#27c7cd" d="M47.54 94.37l-4.1 4.81-4.1-4.81 2.46-24.7h3.28l2.46 24.7z"/><path class="cls-1" d="M24.94 101.5a.78.78 0 01-.62-.29l-4.1-4.81a.88.88 0 01-.19-.62l2.46-24.69a.81.81 0 01.81-.74h3.28a.82.82 0 01.82.74l2.46 24.69a.88.88 0 01-.19.62l-4.1 4.81a.82.82 0 01-.63.29zm-3.24-5.9l3.24 3.81 3.25-3.81L25.84 72H24zm-13.15 5.9a.82.82 0 01-.82-.82V84.29a.82.82 0 111.64 0v16.39a.82.82 0 01-.82.82zm32.79 0a.82.82 0 01-.82-.82V83.47a.8.8 0 01.37-.69.81.81 0 01.77-.07l11.53 4.94a7.38 7.38 0 0010.28-6.78V65.43H52v9.84a.82.82 0 11-1.64 0V64.61a.82.82 0 01.82-.81h13.11a.82.82 0 01.82.81v16.26a9 9 0 01-12.57 8.29l-10.38-4.45v16a.82.82 0 01-.82.79zM15 72a.8.8 0 01-.34-.07.83.83 0 01-.48-.68l-.68-8.09a.81.81 0 01.49-.82l4.07-1.75a.82.82 0 011 .3l3.28 4.92a.81.81 0 01-.19 1.11l-6.67 4.92A.77.77 0 0115 72zm.18-8.39l.51 6 4.86-3.58-2.47-3.7zM34.87 72a.77.77 0 01-.48-.16l-6.66-4.92a.82.82 0 01-.19-1.11l3.28-4.92a.82.82 0 011-.3l4.07 1.75a.83.83 0 01.5.82l-.7 8.09a.83.83 0 01-.48.68.8.8 0 01-.34.07zm-5.53-5.93l4.84 3.58.52-6-2.9-1.24z" transform="translate(18.5 -1.5)"/><path class="cls-1" d="M26.58 72H23.3a2.46 2.46 0 01-2.46-2.46v-1.65a2.47 2.47 0 012.46-2.46h3.28A2.46 2.46 0 0129 67.89v1.64A2.46 2.46 0 0126.58 72zm-3.28-4.93a.82.82 0 00-.82.82v1.64a.82.82 0 00.82.82h3.28a.82.82 0 00.82-.82v-1.64a.82.82 0 00-.82-.82z" transform="translate(18.5 -1.5)"/><path class="cls-1" d="M27.82 67.67a.82.82 0 01-.63-.29.81.81 0 00-.61-.31H23.3a.83.83 0 00-.61.31.85.85 0 01-.67.29.81.81 0 01-.64-.36l-3.68-5.52a.79.79 0 01-.13-.45v-2.89a.84.84 0 01.35-.68.82.82 0 01.76-.08 17.13 17.13 0 0012.52 0 .82.82 0 011.12.76v2.89a.8.8 0 01-.14.45l-3.68 5.52a.81.81 0 01-.63.36zm-4.52-2.24h3.28a2.34 2.34 0 011 .25l3.06-4.59v-1.48a18.75 18.75 0 01-11.48 0v1.48l3.06 4.59a2.38 2.38 0 011.08-.25zM-.47 59.7h-12.29a.82.82 0 01-.82-.82.82.82 0 01.82-.82H-.47a.81.81 0 01.82.82.82.82 0 01-.82.82zm-15.53 0h-1.64a.82.82 0 01-.82-.82.82.82 0 01.82-.82H-16a.82.82 0 01.82.82.82.82 0 01-.82.82zm91.76 36.88H63.47a.82.82 0 010-1.64h12.29a.82.82 0 110 1.64zm4.92 0H79a.82.82 0 110-1.64h1.64a.82.82 0 110 1.64zM52 56h-3.29a2.47 2.47 0 01-2.46-2.46v-.82a2.46 2.46 0 012.46-2.46H52a2.46 2.46 0 012.46 2.46v.82A2.46 2.46 0 0152 56zm-3.28-4.1a.82.82 0 00-.82.82v.82a.82.82 0 00.82.82H52a.82.82 0 00.82-.82v-.82a.82.82 0 00-.82-.82zM64.29 54h-.82A2.46 2.46 0 0161 51.5v-4.92a2.46 2.46 0 012.46-2.46h.82a2.47 2.47 0 012.46 2.46v4.92a2.46 2.46 0 01-2.45 2.5zm-.82-8.2a.82.82 0 00-.82.82v4.88a.82.82 0 00.82.82h.82a.82.82 0 00.82-.82v-4.92a.82.82 0 00-.82-.82z" transform="translate(18.5 -1.5)"/><path class="cls-1" d="M60.19 54h-.82a2.46 2.46 0 01-2.46-2.46v-4.96a2.46 2.46 0 012.46-2.46h.82a2.47 2.47 0 012.46 2.46v4.92a2.46 2.46 0 01-2.46 2.5zm-.82-8.2a.82.82 0 00-.82.82v4.88a.82.82 0 00.82.82h.82a.82.82 0 00.81-.82v-4.92a.82.82 0 00-.82-.82z" transform="translate(18.5 -1.5)"/><path class="cls-1" d="M56.09 54h-.82a2.46 2.46 0 01-2.46-2.46v-4.96a2.46 2.46 0 012.46-2.46h.82a2.46 2.46 0 012.46 2.46v4.92a2.46 2.46 0 01-2.46 2.5zm-.82-8.2a.82.82 0 00-.82.82v4.88a.82.82 0 00.82.82h.82a.82.82 0 00.82-.82v-4.92a.82.82 0 00-.82-.82zm6.56 16.36a.82.82 0 110-1.64 3.28 3.28 0 003.28-3.28v-4.1a.82.82 0 011.64 0v4.1a4.93 4.93 0 01-4.92 4.92zm-8.2 0a4.93 4.93 0 01-4.92-4.92v-2.05a.82.82 0 011.64 0v2.05a3.28 3.28 0 003.28 3.28.82.82 0 010 1.64z" transform="translate(18.5 -1.5)"/><path class="cls-1" d="M53.63 54a.82.82 0 01-.82-.82V38.39a.82.82 0 00-.82-.82h-.82a.82.82 0 00-.82.82v12.7a.82.82 0 01-1.64 0v-12.7a2.46 2.46 0 012.46-2.46H52a2.46 2.46 0 012.46 2.46v14.75a.82.82 0 01-.83.86zm-21.3 47.5h-.07a.82.82 0 01-.74-.89L34.75 63a.82.82 0 01.4-.63.81.81 0 01.74-.06L51.5 69a.82.82 0 01-.65 1.51l-14.56-6.23-3.14 36.47a.82.82 0 01-.82.75zM74.7 16.25h6.56a.82.82 0 100-1.64H74.7a.82.82 0 000 1.64zM63.23 6.42h6.56a.82.82 0 100-1.64h-6.56a.82.82 0 000 1.64z" transform="translate(18.5 -1.5)"/><path class="cls-1" d="M66.51 9.7a.82.82 0 00.82-.82V2.32a.82.82 0 00-1.64 0v6.56a.82.82 0 00.82.82zM78 19.53a.81.81 0 00.82-.82v-6.55a.82.82 0 00-1.64 0v6.55a.82.82 0 00.82.82z" transform="translate(18.5 -1.5)"/></svg>