<svg id="Layer_1" data-name="Layer 1" xmlns="http://www.w3.org/2000/svg" viewBox="0 0 100 100"><defs><style>.cls-1{fill:#1b2c38}.cls-2{fill:#ffcb05}</style></defs><path class="cls-1" d="M-2.43 47.4h-8.19a.82.82 0 01-.82-.82.82.82 0 01.82-.82h8.19a.82.82 0 01.82.82.82.82 0 01-.82.82zm-11.47 0h-1.64a.82.82 0 01-.82-.82.82.82 0 01.82-.82h1.64a.82.82 0 01.82.82.82.82 0 01-.82.82zm59.83-6.56h-8.19a.82.82 0 010-1.64h8.19a.82.82 0 010 1.64zm4.92 0h-1.64a.82.82 0 010-1.64h1.64a.82.82 0 010 1.64zm30.33 60.66a.82.82 0 01-.82-.82v-5.74a3.28 3.28 0 00-3.28-3.28h-90.16a3.28 3.28 0 00-3.28 3.28v5.74a.82.82 0 01-.82.82.82.82 0 01-.82-.82v-5.74A4.93 4.93 0 01-13.08 90h90.16A4.93 4.93 0 0182 94.94v5.74a.82.82 0 01-.82.82zM15.61 47.4A17.18 17.18 0 01-.87 35.11a4.92 4.92 0 01-4.83-4.92 4.92 4.92 0 014.83-4.92 17.19 17.19 0 0133 0 4.92 4.92 0 010 9.84A17.2 17.2 0 0115.61 47.4zm-16-14a.92.92 0 01.89.6 15.55 15.55 0 0030.15 0 .81.81 0 01.9-.61 3.64 3.64 0 00.42 0 3.28 3.28 0 000-6.56h-.3a1 1 0 01-1-.59 15.55 15.55 0 00-30.15 0 .82.82 0 01-.9.62 3.21 3.21 0 00-.42-.05 3.28 3.28 0 00-3.28 3.28 3.28 3.28 0 003.29 3.38 3 3 0 00.31 0zM32 88.39a.82.82 0 01-.82-.82v-5.74a.82.82 0 111.64 0v5.74a.82.82 0 01-.82.82zM5.66 58.88a.84.84 0 01-.34-.08.83.83 0 01-.48-.67l-.65-7.82a.82.82 0 01.45-.8l4-2a.81.81 0 011.05.28l3.31 4.9a.81.81 0 01-.2 1.11l-6.65 4.92a.87.87 0 01-.49.16zm.21-8.15l.49 5.8 4.85-3.59-2.44-3.66zm19.66 8.15a.84.84 0 01-.48-.16L18.4 53.8a.83.83 0 01-.2-1.12l3.28-4.91a.81.81 0 011.05-.28l4 2a.81.81 0 01.44.8l-.67 7.82a.83.83 0 01-.48.67.81.81 0 01-.29.1zM20 52.94l4.84 3.59.5-5.8-2.89-1.45z" transform="translate(18 -1.5)"/><path class="cls-1" d="M17.25 58.88H14a2.46 2.46 0 01-2.46-2.46v-1.64A2.46 2.46 0 0114 52.32h3.28a2.46 2.46 0 012.45 2.46v1.64a2.46 2.46 0 01-2.48 2.46zM14 54a.82.82 0 00-.82.82v1.64a.82.82 0 00.82.82h3.28a.82.82 0 00.82-.82v-1.68a.82.82 0 00-.82-.82zm1.61-14.8a8.93 8.93 0 01-6.38-2.64.82.82 0 010-1.16.84.84 0 011.16 0 7.35 7.35 0 0010.43 0 .84.84 0 011.16 0 .82.82 0 010 1.16 8.92 8.92 0 01-6.37 2.64z" transform="translate(18 -1.5)"/><path class="cls-1" d="M18.49 54.56a.82.82 0 01-.63-.29.81.81 0 00-.61-.31H14a.82.82 0 00-.62.31.79.79 0 01-.67.29.86.86 0 01-.71-.36l-3.63-5.52a.86.86 0 01-.14-.46v-3a.81.81 0 011.15-.75 15.61 15.61 0 0012.46 0 .82.82 0 011.15.75v3a.86.86 0 01-.14.46l-3.68 5.51a.82.82 0 01-.64.37zM14 52.32h3.28a2.37 2.37 0 011 .24L21.34 48v-1.59a17.11 17.11 0 01-11.47 0V48l3.06 4.59a2.3 2.3 0 011.07-.27z" transform="translate(18 -1.5)"/><path class="cls-2" d="M0 30.19h-.79V22h4.92v4.1A4.1 4.1 0 010 30.19z" transform="translate(18 -1.5)"/><path class="cls-1" d="M0 31h-.79a.82.82 0 01-.82-.82V22a.82.82 0 01.82-.82h4.92A.82.82 0 015 22v4.1A4.93 4.93 0 010 31zm0-1.64zm0-6.56v6.56a3.28 3.28 0 003.28-3.28v-3.27z" transform="translate(18 -1.5)"/><path class="cls-2" d="M27.08 22H-.79v-.82a12.3 12.3 0 0112.3-12.3h8.76a24.51 24.51 0 0012.65-3.51L35.28 4v9.8a8.2 8.2 0 01-8.2 8.2z" transform="translate(18 -1.5)"/><path class="cls-1" d="M27.08 22.81H-.79a.82.82 0 01-.82-.81v-.82A13.13 13.13 0 0111.51 8.06h8.76A23.72 23.72 0 0032.5 4.67l2.36-1.41a.78.78 0 01.82 0 .8.8 0 01.42.74v9.8a9 9 0 01-9.02 9.01zM0 21.17h27.08a7.39 7.39 0 007.38-7.37V5.41l-1.12.67A25.48 25.48 0 0120.27 9.7h-8.76A11.49 11.49 0 000 21.17z" transform="translate(18 -1.5)"/><path class="cls-2" d="M27.08 22v4.1a4.11 4.11 0 004.1 4.1H32v-9.89A8.1 8.1 0 0127.08 22z" transform="translate(18 -1.5)"/><path class="cls-1" d="M32 31h-.82a4.93 4.93 0 01-4.92-4.92V22a.82.82 0 01.82-.82 7.3 7.3 0 004.43-1.51.81.81 0 01.86-.08.83.83 0 01.45.73v9.88a.82.82 0 01-.82.8zm-4.1-8.24v3.32a3.28 3.28 0 003.28 3.28V21.8a8.64 8.64 0 01-3.28.97zm31.97 65.63a.82.82 0 01-.82-.82V73.63h-8.2v13.94a.82.82 0 01-1.64 0V72.81A.82.82 0 0150 72h9.84a.82.82 0 01.82.82v14.75a.82.82 0 01-.79.82z" transform="translate(18 -1.5)"/><path class="cls-1" d="M73.8 80.19H63.15a.82.82 0 010-1.64H73.8a3.28 3.28 0 003.28-3.28V50.68a3.28 3.28 0 00-3.28-3.28H36.1a3.28 3.28 0 00-3.28 3.28v24.59a3.28 3.28 0 003.28 3.28h10.65a.82.82 0 110 1.64H36.1a4.93 4.93 0 01-4.92-4.92V50.68a4.93 4.93 0 014.92-4.92h37.7a4.93 4.93 0 014.92 4.92v24.59a4.93 4.93 0 01-4.92 4.92zM28.72 52.32a.77.77 0 01-.36-.09L21.8 49a.82.82 0 11.73-1.46l6.56 3.28a.83.83 0 01.37 1.1.85.85 0 01-.74.4zm13.12 36.07a.82.82 0 01-.82-.82v-5.86a.82.82 0 111.64 0v5.86a.82.82 0 01-.82.82z" transform="translate(18 -1.5)"/><path class="cls-1" d="M55 67.07A4.1 4.1 0 1159.13 63 4.1 4.1 0 0155 67.07zm0-6.55A2.46 2.46 0 1057.49 63 2.46 2.46 0 0055 60.52zM17.25 88.39a.82.82 0 01-.82-.82v-5.74H-.79a.82.82 0 01-.82-.83V69.53a.82.82 0 01.82-.82.82.82 0 01.82.82v10.66h17.22a.82.82 0 01.82.82v6.56a.82.82 0 01-.82.82z" transform="translate(18 -1.5)"/><path fill="#27c7cd" d="M37.86 76.23l-2.61-19.67h-3.28l-2.61 19.67"/><path class="cls-1" d="M19.86 78.55a.81.81 0 01-.81-.71l-2.52-19h-1.84l-2.52 19a.82.82 0 01-1.63-.22L13.15 58a.83.83 0 01.82-.71h3.28a.82.82 0 01.81.71l2.61 19.67a.82.82 0 01-.7.92zm-28.81 9.84a.83.83 0 01-.65-.33 9 9 0 01-1.84-5.41V63.12a9 9 0 015-8.06l15.12-7.57a.81.81 0 011.1.37.82.82 0 01-.36 1.14l-15.14 7.53a7.31 7.31 0 00-4.08 6.59v19.53a7.29 7.29 0 001.51 4.42.83.83 0 01-.16 1.15.84.84 0 01-.5.17zm36.03 0a.82.82 0 01-.82-.82v-2.46A3.28 3.28 0 0023 81.83h-2.48a.82.82 0 110-1.64H23a4.92 4.92 0 014.92 4.92v2.46a.82.82 0 01-.84.82zM73 60.52a.82.82 0 01-.82-.82v-6.56a.82.82 0 00-.82-.82h-6.57a.82.82 0 110-1.64h6.55a2.46 2.46 0 012.46 2.46v6.56a.82.82 0 01-.8.82zm-8.21-44.27h-6.56a.82.82 0 010-1.64h6.56a.82.82 0 110 1.64zm11.47-9.83H69.7a.82.82 0 010-1.64h6.56a.82.82 0 110 1.64z" transform="translate(18 -1.5)"/><path class="cls-1" d="M73 9.7a.82.82 0 01-.82-.82V2.32a.82.82 0 011.64 0v6.56a.82.82 0 01-.82.82zm-11.49 9.83a.82.82 0 01-.82-.82v-6.55a.82.82 0 011.64 0v6.55a.82.82 0 01-.82.82z" transform="translate(18 -1.5)"/></svg>