<svg id="Digital_Marketing" data-name="Digital Marketing" xmlns="http://www.w3.org/2000/svg" viewBox="0 0 470.26 310.58"><defs><style>.cls-13,.cls-2,.cls-7{stroke:#1b2c38;stroke-miterlimit:10}.cls-7{stroke-width:2px}.cls-13,.cls-2,.cls-7{fill:none}.cls-3{fill:#f1f2ec}.cls-6{fill:#fc3e59}.cls-9{fill:#1b2c38}.cls-10{fill:#ffcb05}.cls-13{stroke-linecap:round}.cls-16{fill:#f5ab35}</style></defs><path stroke-width="2" stroke="#1b2c38" stroke-miterlimit="10" fill="#27c7cd" d="M222.77 222.25l-10.76 10.77-33.35-33.35 13.99-13.98 30.12 36.56z"/><path class="cls-2" d="M222.77 222.25l-10.76 10.77-33.35-33.35 13.99-13.98 30.12 36.56z"/><path class="cls-3" d="M203.94 178.52l61.49-30.36-63.53-63.53-29.81 62.04 31.85 31.85z"/><path fill="#fc3e59" stroke-width="2" stroke="#1b2c38" stroke-miterlimit="10" d="M136.011 183.459l36.437-36.437 31.297 31.296-36.437 36.437z"/><path class="cls-3" d="M155.69 220.15l11.03-4.52-31.59-31.59-4.52 11.03 25.08 25.08z"/><path class="cls-3" transform="rotate(-45 48.986 249.38)" d="M131.16 268.69h13.96v35.23h-13.96z"/><path class="cls-2" d="M124.71 205.06l6.03-6.03m-.96 11.11l6.03-6.03m-.96 11.1l6.03-6.03m-.96 11.1l6.03-6.03m-.96 11.1l6.03-6.03"/><path transform="rotate(-45 80.73 217.81)" fill="none" d="M144.11 232.61h51.53v44.26h-51.53z"/><path class="cls-6" transform="rotate(-45 148.156 149.502)" d="M232.04 142.74h10.53v87.39h-10.53z"/><path class="cls-7" transform="rotate(-45 148.156 149.502)" d="M232.04 142.74h10.53v87.39h-10.53z"/><path d="M228.33 302.17a5.64 5.64 0 00-8 0l4.18-4.18a5.64 5.64 0 00-8-8l4.18-4.18a5.63 5.63 0 10-8-8l-4.18 4.18a5.64 5.64 0 00-8-8l-8.24 8.24-5.61-5.62a3.81 3.81 0 00-5.39 0l-17.74 17.74a5.15 5.15 0 00-1.19 5.43l1.76 4.78a5.18 5.18 0 01-1.2 5.44l-7.68 7.68 26.51 26.5 8.67-8.66a4.57 4.57 0 013.26-1.33l8 .09a5.44 5.44 0 003.87-1.58l22.65-22.66a5.64 5.64 0 00.15-7.87z" transform="translate(0 -73.85)" fill="#fff"/><path class="cls-7" d="M228.33 302.17a5.64 5.64 0 00-8 0l4.18-4.18a5.64 5.64 0 00-8-8l4.18-4.18a5.63 5.63 0 10-8-8l-4.18 4.18a5.64 5.64 0 00-8-8l-8.24 8.24-5.61-5.62a3.81 3.81 0 00-5.39 0l-17.74 17.74a5.15 5.15 0 00-1.19 5.43l1.76 4.78a5.18 5.18 0 01-1.2 5.44l-7.68 7.68 26.51 26.5 8.67-8.66a4.57 4.57 0 013.26-1.33l8 .09a5.44 5.44 0 003.87-1.58l22.65-22.66a5.64 5.64 0 00.15-7.87z" transform="translate(0 -73.85)"/><path class="cls-9" d="M192.68 267.5l-43.08 43.08H80.83l77.56-77.37 34.29 34.29z"/><path class="cls-10" d="M252.15 178.53l3.42-18.5A35.19 35.19 0 11269 175.44z" transform="translate(0 -73.85)"/><path class="cls-2" d="M322.67 145.73A35 35 0 01269 175.44l-16.83 3.09" transform="translate(0 -73.85)"/><ellipse class="cls-3" cx="287.41" cy="71.88" rx="25.46" ry="24.87"/><path class="cls-9" d="M285.91 160.54v-2.63a16.43 16.43 0 01-8.42-4.14l3.35-4.06a14.63 14.63 0 005.07 3.13v-5.37a12.77 12.77 0 01-5.54-2.6 6.16 6.16 0 01-1.76-4.72 6.84 6.84 0 012-5.07 8.76 8.76 0 015.29-2.39v-1.77h3.82v1.84a16.54 16.54 0 017.16 3l-2.94 4.24a13.82 13.82 0 00-4.21-2.16V143a13.53 13.53 0 015.74 2.7 6.19 6.19 0 011.85 4.79 6.84 6.84 0 01-2.07 5.11 9.14 9.14 0 01-5.52 2.41v2.52zm0-22.85a2 2 0 00-1.54 2 2.37 2.37 0 001.54 2.19zm5.65 13.09a2 2 0 00-.39-1.26 3.72 3.72 0 00-1.44-.93V153a2.25 2.25 0 001.83-2.22z" transform="translate(0 -73.85)"/><path fill="#95d133" d="M203.42 24.52h-53.77l7.23 24.28h42.4l4.14-24.28z"/><path class="cls-2" d="M135.09 21.91l13.36 1.01 11.45 35.81h36.91m-42.49-28.97h46.55m-44.61 5.63h43.24m-41.35 5.63h40.4m-41.67 7.78h42.41"/><path class="cls-10" d="M172.68 132.58a4.44 4.44 0 11-4.44-4.44 4.43 4.43 0 014.44 4.44z" transform="translate(0 -73.85)"/><path class="cls-9" d="M169.93 132.58a1.69 1.69 0 11-1.69-1.69 1.69 1.69 0 011.69 1.69z" transform="translate(0 -73.85)"/><path class="cls-2" d="M172.68 132.58a4.44 4.44 0 11-4.44-4.44 4.43 4.43 0 014.44 4.44z" transform="translate(0 -73.85)"/><path class="cls-10" d="M193.92 132.58a4.44 4.44 0 11-4.44-4.44 4.43 4.43 0 014.44 4.44z" transform="translate(0 -73.85)"/><path class="cls-9" d="M191.17 132.58a1.69 1.69 0 11-1.69-1.69 1.69 1.69 0 011.69 1.69z" transform="translate(0 -73.85)"/><path class="cls-2" d="M193.92 132.58a4.44 4.44 0 11-4.44-4.44 4.43 4.43 0 014.44 4.44z" transform="translate(0 -73.85)"/><path transform="rotate(4.32 1117.5 59.01)" fill="#f1f2ec" stroke="#1b2c38" stroke-miterlimit="10" d="M131.74 93.97h13.43v3.9h-13.43z"/><path class="cls-6" d="M141.03 132.8l-3.01 7.4 3.01 7.41h-23.14V132.8h23.14z"/><path class="cls-13" d="M141.03 132.8l-3.01 7.4 3.01 7.41h-23.14V132.8h23.14z"/><path class="cls-6" d="M65.4 132.8l3.01 7.4-3.01 7.41h23.13V132.8H65.4z"/><path class="cls-13" d="M65.4 132.8l3.01 7.4-3.01 7.41h23.13V132.8H65.4z"/><path class="cls-10" d="M124.66 216.79l-2.78 4.13a4.85 4.85 0 00-.75 1.8l-.95 4.88a4.89 4.89 0 01-3.87 3.87l-4.89 1a4.7 4.7 0 00-1.79.74L105.5 236a4.93 4.93 0 01-5.48 0l-4.12-2.78a4.81 4.81 0 00-1.8-.74l-4.89-1a4.9 4.9 0 01-3.87-3.87l-1-4.88a4.85 4.85 0 00-.75-1.8l-2.77-4.13a4.89 4.89 0 010-5.48l2.77-4.12a5 5 0 00.75-1.8l1-4.88a4.92 4.92 0 013.88-3.88l4.88-.95a5.16 5.16 0 001.8-.74l4.12-2.78a4.89 4.89 0 015.48 0l4.13 2.78a5 5 0 001.79.74l4.89.95a4.91 4.91 0 013.87 3.88l.95 4.88a5 5 0 00.75 1.8l2.78 4.12a4.93 4.93 0 010 5.47z" transform="translate(0 -73.85)"/><path class="cls-3" d="M118.27 214.05a15.51 15.51 0 11-15.51-15.5 15.51 15.51 0 0115.51 15.5z" transform="translate(0 -73.85)"/><path class="cls-9" d="M109.46 224.64l-6.37-3.24a.47.47 0 00-.4 0l-6.28 3.41a.42.42 0 01-.62-.44l1.11-7.06a.39.39 0 00-.12-.37L91.59 212a.43.43 0 01.23-.73l7.06-1.12a.42.42 0 00.32-.24l3.08-6.45a.43.43 0 01.76 0l3.24 6.37a.44.44 0 00.33.23l7.08.94a.42.42 0 01.25.72l-5.06 5.05a.41.41 0 00-.11.38l1.3 7a.42.42 0 01-.61.49z" transform="translate(0 -73.85)"/><path class="cls-2" d="M102.77 110.52v4.42m6.67-3.53l-1.14 4.26m7.36-1.68l-2.22 3.82m7.55.29l-3.13 3.12m7.21 2.23l-3.84 2.2m6.39 4.03l-4.27 1.13m-45.31-1.62l4.25 1.21m-1.58-7.38l3.79 2.26m.4-7.54l3.07 3.18m2.34-7.18l2.14 3.86m4.12-6.32l1.07 4.28m5.13 54.62v-4.42m6.67 3.54l-1.14-4.27m7.36 1.68l-2.22-3.82m7.55-.29l-3.13-3.11m7.21-2.24l-3.84-2.2m6.39-4.03l-4.27-1.13m-45.31 1.62l4.25-1.21m-1.58 7.39l3.79-2.27m.4 7.54l3.07-3.18m2.34 7.18l2.14-3.86m4.12 6.32l1.07-4.28M257.62 12.66l-12.05 6.96V5.71l12.05 6.95-12.05 6.96V5.71l12.05 6.95zm117.64 180.08l-12.05 6.96v-13.92l12.05 6.96-12.05 6.96v-13.92l12.05 6.96zM260.63 4.76l6.75 3.89V.87l-6.75 3.89 6.75 3.89V.87l-6.75 3.89zm-98.84 112.43l6.75 3.9v-7.79l-6.75 3.89 6.75 3.9v-7.79l-6.75 3.89zm116.78 42.06h64.64m8.34 0h-5.58m13.85 0h-5.58M265.95 22.07h60.4m7.79 0h-5.22m12.95 0h-5.22M185.63 7.43h-64.64m-8.34 0h5.58m-13.85 0h5.58"/><path class="cls-2" d="M313.59 201.06a2.63 2.63 0 11-2.63-2.63 2.63 2.63 0 012.63 2.63zm-205.11-68.48a2.64 2.64 0 11-2.63-2.64 2.63 2.63 0 012.63 2.64z" transform="translate(0 -73.85)"/><path class="cls-2" d="M113.99 81.98h3.42m2.77 0h3.41m2.77 0h3.41m2.77 0h3.42m2.77 0h3.41m2.77 0h3.41m2.77 0h3.42m2.77 0h3.41m2.77 0h3.41m2.77 0h3.42"/><path d="M375.25 127.21a38.31 38.31 0 010-76.61" stroke-dasharray="4" fill="none" stroke-width="2" stroke="#1b2c38" stroke-miterlimit="10"/><path class="cls-7" d="M375.25 124.45a38.31 38.31 0 110 76.61m16.68-41.36h-3a14.12 14.12 0 00-1.81-4.36l2.14-2.15a2 2 0 000-2.77l-1.6-1.6a2 2 0 00-2.77 0l-2.15 2.15a13.8 13.8 0 00-4.36-1.82v-3a2 2 0 00-2-2h-2.27a2 2 0 00-2 2v3a14.15 14.15 0 00-4.3 1.77l-2.13-2.15a2 2 0 00-2.77 0l-1.61 1.59a2 2 0 000 2.77l2.13 2.16a14.1 14.1 0 00-1.83 4.35h-3a2 2 0 00-2 2v2.27a2 2 0 001.95 2h3a13.84 13.84 0 001.81 4.37l-2.16 2.15a2 2 0 000 2.76l1.59 1.61a2 2 0 002.77 0l2.15-2.13a14.09 14.09 0 004.37 1.82v3a2 2 0 001.95 2h2.27a2 2 0 002-1.95v-3a13.91 13.91 0 004.37-1.8l2.14 2.15a2 2 0 002.78 0l1.6-1.6a1.94 1.94 0 000-2.76l-2.13-2.16a13.9 13.9 0 001.82-4.36h3a2 2 0 002-2v-2.27a2 2 0 00-1.95-2.04zm-16.67 9.3a6.21 6.21 0 116.21-6.22 6.21 6.21 0 01-6.21 6.22z" transform="translate(0 -73.85)"/><path class="cls-2" d="M333.26 147.06l137 .01M0 182.67h104m-13.76-86.2h54.33m208.9-74.56h8.62m-4.31 4.31V17.6m5.97 141.65h8.62m-4.31 4.31v-8.62m-262.41 48.38h8.62m-4.31 4.3v-8.61M73.31 96.47h8.61m-4.31 4.31v-8.62"/><path fill="#b88028" d="M257.15 213.82h79.3v46.44h-79.3z"/><path class="cls-16" d="M338.05 288.57a6.35 6.35 0 01-2.42.24h-79.41a6.32 6.32 0 01-2.41-.24 8.49 8.49 0 012.09-1.46L293.84 265a4.6 4.6 0 014.18 0L336 287.11a8.49 8.49 0 012.05 1.46z" transform="translate(0 -73.85)"/><path class="cls-3" d="M260.65 180.7h70.34v64.17h-70.34z"/><path class="cls-10" d="M253.81 288.72v44.14c0 1.34.93 1.87 2.08 1.2L293.74 312a1.28 1.28 0 000-2.42l-37.85-22.06c-1.15-.67-2.08-.14-2.08 1.2zm44.1 23.17l38 22.17c1.15.68 2.09.14 2.09-1.2v-44.38c0-1.34-.94-1.87-2.09-1.2l-38 22.17a1.29 1.29 0 000 2.44z" transform="translate(0 -73.85)"/><path class="cls-16" d="M253.8 334.11a6.4 6.4 0 002.42.24h79.21a6.32 6.32 0 002.41-.24 8.67 8.67 0 00-2.08-1.45L295.82 307l-39.93 25.63a8.84 8.84 0 00-2.09 1.48z" transform="translate(0 -73.85)"/><path class="cls-7" d="M331.35 210.6l6.7 4.03-.21 45.63h-84.03v-45.39l6.44-4.07"/><path class="cls-2" d="M234.14 194.72h81.71m-69.02 6.24h69.02m-58.7 6.23h58.7m-43.44 5.59h43.44"/></svg>