<svg id="OBJECTS" xmlns="http://www.w3.org/2000/svg" viewBox="0 0 570 510.11"><defs><style>.cls-2{fill:#fc3e59}.cls-10,.cls-2,.cls-4,.cls-5,.cls-6,.cls-8{fill-rule:evenodd}.cls-4{fill:#27c7cd}.cls-5{fill:#c12b48}.cls-6{fill:#fff}.cls-8{fill:#c2c2c2}</style></defs><path d="M567.77 536.16c-3.91-9.58-13.22-18.27-21.21-24.46l-.74-.53a23.23 23.23 0 00-8.46-13.63c-5.43-4.14-13.61-4.32-20.08-4.1-11.41.41-22.75 2.41-34.21 2.86-29.09 1.14-58.23-.7-87.33.69-28.21 1.35-56.22 5.81-84.11 10-29.43 4.45-58.89 8.7-88.69 9.47-34.87.9-73.82-11.1-107.86-4.1-20.88 4.29-46 9-64 21.1-7.66 5.15-9.86 13.83-3.68 21.2 11.84 14.11 31.78 11 48.05 9a232.73 232.73 0 0136.76-1.59c15 .51 29.64 5 44.63 6.13 14 1.11 28 1.11 42 2.3 15.48 1.33 30 5.86 44.94 10 25.33 7 51.12 12.91 77.44 14.23 11.45.57 21.18-.58 31.6-5.43a62.31 62.31 0 0013-8.28c6.75-5.43 11-8.3 19.83-8.45 11.89-.21 23.55-2.3 35.48-1.46 13.24.94 26.34 4.71 39.7 3a61.21 61.21 0 0020.17-6.37c16.83.6 33.62 4.63 50.22-.63 14.45-4.59 22.53-16.28 16.55-30.95z" transform="translate(-43.79 -84.75)" fill="#dbdbd7"/><path class="cls-2" d="M308 462.4a32.91 32.91 0 014.13 3.79c1 .93 1.78 2.13 3.28 2.49.55.13 1 .78 1.44 1.23 1.27 1.31 2.49 2.68 3.81 3.95.92.88 2 1.61 3 2.43 1.39 1.18 2.79 2.34 4.13 3.57 1.5 1.38 2.93 2.83 4.29 4.15a1.81 1.81 0 002.23-1.57c.33-2.43 1.34-4.68 1.43-7.21.11-2.86 1-5.69 1.48-8.54a19.8 19.8 0 00.29-2.87 28.05 28.05 0 01.66-6.36 81.61 81.61 0 001.36-8.86c0-.19.21-.34.32-.51.51-.21.8.09 1 .5 3.08 6.61 6.92 12.86 9.16 19.88a45.85 45.85 0 003.26 6.64 2.4 2.4 0 004.36-.1c.36-.89.84-1.74 1.14-2.65a14.62 14.62 0 013.57-6.37 3.3 3.3 0 00.82-1c1.47-3.31 4.15-5.71 6.3-8.51a7 7 0 01.87-.94c1.17-1.06 2.36-2.11 3.7-3.3a5.19 5.19 0 01.27 1.1v5.81a29.83 29.83 0 00.59 7 19.29 19.29 0 01.29 4.17v24.51a8.37 8.37 0 00.59 4.1 2.2 2.2 0 01.24 1.25 14.72 14.72 0 00.62 6 8.33 8.33 0 01.11 2.24c-.06 3.22-.14 6.45-.23 9.67a5 5 0 01-.17 1.6c-.93 2.38-.82 4.86-.72 7.32a30.82 30.82 0 01-1.47 10.79 11.71 11.71 0 00-.35 2.85c-.07 1.39-.08 2.79-.06 4.19a4.73 4.73 0 01-1.7 4 6.8 6.8 0 00-1.81 2.61c-.84 1.74-1.64 3.51-2.61 5.17a14.12 14.12 0 01-6 5.55c-.77.39-1.58.68-2.33 1.1a5.79 5.79 0 01-3.1.69 8.65 8.65 0 00-1.61 0c-4 .5-7.64-.64-11.27-2a12.2 12.2 0 01-2.49-1.44c-2.2-1.51-4.38-3.06-6.56-4.61a24.53 24.53 0 00-2.58-1.91 6.79 6.79 0 01-2.82-2.54 7.57 7.57 0 00-3.26-2.82 1.11 1.11 0 00-.76 1.62c.22.57.52 1.12.85 1.82a19.55 19.55 0 01-8.41-1.06 11.32 11.32 0 00-3.41-.8 9.34 9.34 0 01-2.18-.47 6.65 6.65 0 00-1.53-.46c-3.56.07-6.66-1.55-9.93-2.55-2.26-.69-4.45-1.63-6.89-1.49a4 4 0 01-1.26-.22c-4.64-1.34-9.28-2.69-13.93-4-1.24-.36-2.49-.65-3.72-1a32 32 0 01-4.85-1.7 38.85 38.85 0 00-7.89-2.75c-2-.51-3.87-1.24-5.8-1.91-2.33-.81-4.69-1.54-7-2.51-4.72-2-9.67-3.56-13.85-6.73-1.71-1.3-3.59-2.38-5.25-3.73a85.4 85.4 0 00-9.08-6.59 19 19 0 01-6.45-6.21 8.57 8.57 0 00-1.53-1.66c-5.32-5-9.19-11.05-13.16-17.05-1.89-2.87-3.67-5.81-5.6-8.65a11.38 11.38 0 01-2-4 24.18 24.18 0 00-2.13-5.35 29.15 29.15 0 01-2.46-7 106.56 106.56 0 01-1.85-18.19c-.12-5.91-.17-11.83 0-17.74.1-3.31.67-6.61 1.1-9.91.36-2.77.79-5.53 1.27-8.28a37.14 37.14 0 011.16-5c.79-2.46 1.31-5 1.87-7.49 1-4.72 2.24-9.4 3.41-14.08a18.15 18.15 0 01.81-1.74c.42-1.18 1-2.26.44-3.69-.46-1.2.11-2.51.79-3.67 1.76-3 2.37-6.38 3-9.76a7.48 7.48 0 01.13-.95c1.43-4.61 2.11-9.4 3.38-14.06a169.93 169.93 0 018.87-25.19c.48-1.08 1-2.13 1.61-3.16a181.22 181.22 0 009.25-19.14c2.12-5.05 4.54-10 6.62-15 1.66-4.07 3.08-8.24 4.47-12.41 1.73-5.2 3.73-10.3 5.9-15.32a16 16 0 001.41-4.6 21.92 21.92 0 011.51-5.57 22.65 22.65 0 001.62-7.18 31 31 0 012.13-9c.86-2.42 1.93-4.77 2.82-7.18a7.16 7.16 0 00.88-3.06 8.34 8.34 0 01.63-2.8q2.28-7.39 4.62-14.76a8.35 8.35 0 011-2.35 21.26 21.26 0 002.6-5.87l3.71-11.66a12.48 12.48 0 01.41-1.22c1.79-4.13 3.68-8.23 5.38-12.4a39.58 39.58 0 015.43-9.09 64.75 64.75 0 0115-14.92 50.45 50.45 0 006.34-5.37 52.44 52.44 0 0110.74-7.62 10.12 10.12 0 012.42-.87c2.37-.62 4.47-2.07 7-2.24a2.56 2.56 0 00.88-.4 9.84 9.84 0 015.14-1.54 7.83 7.83 0 003.29-1.19 9.4 9.4 0 014.59-1.28 7.59 7.59 0 002.48-.55 18.68 18.68 0 013-1c2.88-.35 5.54-1.78 8.5-1.66a4.43 4.43 0 001.25-.29 23.93 23.93 0 016.69-.83c1.29 0 2.58-.07 3.87 0a69.88 69.88 0 0012.55-.91c2.65-.4 5.35-.47 8-.61a7.42 7.42 0 012.87.2 19.5 19.5 0 006.7.68h6.77c1.82 0 3.67-.14 5.35.81a1.14 1.14 0 00.61.18c2.75-.13 5.26 1 7.88 1.53s5 1.21 7.46 1.86a6.63 6.63 0 011.79.71 11.73 11.73 0 006 2.22 3 3 0 011.14.53c1.22.67 2.42 1.38 3.65 2 4.63 2.49 9.3 4.91 13.9 7.46a108.57 108.57 0 0114 9.13 43.9 43.9 0 0115 21.26 135.32 135.32 0 015 21.29 152.87 152.87 0 012 28.27c-.07 2.68 0 5.37-.07 8.06-.05 1.71-.29 3.41-.46 5.12 0 .32-.15.63-.15 1 .06 6.11-2.4 11.73-3.27 18a8.17 8.17 0 01-1.45-.85c-1-1.07-2.08-2.17-3.07-3.31a8.39 8.39 0 00-4.14-2.68 42.35 42.35 0 00-6.35 5.13c-2 1.84-2.95 4.43-4.72 6.44a7.27 7.27 0 01-3.71-2.17l-8-8.42c-.37-.39-.72-.81-1.08-1.2-2.12-2.35-4.46-4.36-8.3-4.69a135.48 135.48 0 00-18.66 17.71 6.27 6.27 0 01-3.42-2c-2-1.92-4-3.9-6-5.85-2.16-2.1-4.29-4.22-6.5-6.25a20.3 20.3 0 00-2.57-1.77 23.3 23.3 0 00-4.84 3.38 94.67 94.67 0 00-13.93 14.72c-.66.83-1.44 1.56-2.12 2.29a28.85 28.85 0 01-8.45-5.48c-2.57-2.43-5.09-4.94-7.63-7.41-.85-.82-1.69-1.65-2.6-2.42a6.86 6.86 0 00-8.34-.66 16.92 16.92 0 00-3 2.43 54 54 0 00-11.59 15.76 10 10 0 01-.71 1.09 5.92 5.92 0 01-2.55-2c-1.85-2.1-3.65-4.24-5.45-6.37-1.4-1.63-2.76-3.3-4.17-4.92a10 10 0 00-1.63-1.55 1.47 1.47 0 00-1.8 0 1.52 1.52 0 00-.62 1.7 4.54 4.54 0 00.81 1.72q5.26 6.53 10.59 13a10.38 10.38 0 002.39 2.15 6.87 6.87 0 002.67 1 2.78 2.78 0 003.14-1.72c.32-.68.65-1.36.92-2.06 2.41-6.26 6.57-11.29 11.32-15.89a7.32 7.32 0 011.54-1.16 2.85 2.85 0 013.8.49c.71.65 1.34 1.38 2.07 2.14a31.19 31.19 0 01-1.36 6.57 123.38 123.38 0 01-5.81 14.68c-1.15 2.42-2.28 4.86-3.49 7.26a154.39 154.39 0 00-8.9 21.05 44.38 44.38 0 01-3 6.78c-4.1 7.81-8.85 15.24-13.69 22.6a15.75 15.75 0 01-4.23 3.91 30.25 30.25 0 00-3.63 3.15 5.14 5.14 0 00-1.34 3.22 5 5 0 001.63 4.34 70.41 70.41 0 0012 9.73c5.27 3.33 10.59 6.57 15.89 9.85.54.33 1.08.68 1.6 1-.06.28 0 .55-.15.62-2.62 1.66-5.22 3.37-7.91 4.93a10.21 10.21 0 00-3.3 2.53c-2.76 3.7-6.83 5.45-10.79 7.38-1.25.6-2.56 1.09-3.93 1.66a3.43 3.43 0 01-2.44-1.21c-2.09-2.3-4.32-4.43-6.22-6.93a73.82 73.82 0 01-5.44-7.94c-.78-1.39-1.92-2.58-2.77-3.93-.74-1.18-1.3-2.46-1.93-3.7-.3-.57-.56-1.16-.89-1.71-1.61-2.67-3.18-5.35-4.86-8a76.42 76.42 0 01-5.85-11.47c-1.27-3-2.69-5.86-3.94-8.83-.87-2.07-1.57-4.22-2.36-6.33a18.75 18.75 0 00-.88-2.06c-.85-1.61-1.73-3.2-2.6-4.8a10.15 10.15 0 00-.82-1.39c-.42-.53-1-.94-1.67-.57a3.26 3.26 0 00-1.16 1.4 1.81 1.81 0 00.06 1.25 36.87 36.87 0 001.9 4.78 23.79 23.79 0 011.58 3.85c.84 2.55 1.66 5.11 2.73 7.57 2.3 5.32 4.61 10.65 7.17 15.85 1.71 3.45 3.86 6.69 5.81 10a23.93 23.93 0 011.38 2.54 34.36 34.36 0 004.6 7.7c1.24 1.6 2.08 3.51 3.26 5.16 1.56 2.17 3.25 4.24 4.94 6.31a49.52 49.52 0 003.37 3.86c1.26 1.28 2.66 2.42 3.79 3.44.55.09.76.14 1 .15a9.52 9.52 0 007.79-3.09 17.86 17.86 0 013.71-2.53c2.58-1.54 5.21-3 7.8-4.53.92-.55 1.76-1.23 2.62-1.86 2.26-1.65 4.48-3.33 6.76-4.94a27.28 27.28 0 004.78-3.79 6.21 6.21 0 011.9-1.09 36.48 36.48 0 004-2c2.34-1.57 5-2.4 7.48-3.67 1.31-.68 2.71-1.18 4-1.75.66.54.3 1 0 1.44-1.18 1.91-2.35 3.83-3.55 5.79l3 2.5a12.72 12.72 0 002.57-1 37 37 0 018.52-3.59 2.69 2.69 0 01.93.05 17.85 17.85 0 01-2.16 6.15 6.93 6.93 0 00-.91 1.69 17.46 17.46 0 01-2.12 4.31 4.87 4.87 0 00-.8 3.38 2.75 2.75 0 004.14 2c1.65-1 3.27-2 4.88-3.08a13.15 13.15 0 011.86-1.25c1.07-.45 2.22-.71 3.46-1.09a4.18 4.18 0 01.37 3.44 58 58 0 01-1.86 7.14c-1.23 3.44-2.76 6.76-6.06 8.82a5.6 5.6 0 00-1 .82 40.86 40.86 0 01-8.65 7.18 3.91 3.91 0 00-1.38 1.33 11.47 11.47 0 01-4 3.61c-2.53 1.62-4.64 3.83-7.36 5.2a5.75 5.75 0 00-1.36 1.34c-.3.3-.53.74-.88.92-3.71 1.86-6.36 5.07-9.62 7.5-.86.63-1.77 1.2-2.62 1.86-2 1.57-4.13 3.07-6 4.81a17.33 17.33 0 01-4.58 2.93c-2.41 1.13-4.85 2.23-7.35 3.37a12.23 12.23 0 01-2.29-3.44c-.74-1.3-1.35-2.68-2.06-4a51.2 51.2 0 00-5.93-9.2c-1.18-1.39-2.29-2.84-3.44-4.27-6.38-7.92-6.38-7.92-14.35-14.22a85.3 85.3 0 00-12-7.46c-1.76-1-3.84-1.35-5.75-2.06a66 66 0 00-14.4-3.37c-1.81-.25-3.6-.57-5.67-.89-1.27-1.92-2.61-4-4-6-2.27-3.39-4.56-6.76-6.83-10.16a22.15 22.15 0 01-1.7-2.73 30 30 0 00-4.18-5.7 2.45 2.45 0 00-.46-.45 1.93 1.93 0 00-3.09 2.26 12.69 12.69 0 001 1.64c2.18 3.31 4.4 6.6 6.54 9.94s4.08 6.56 6.11 9.85a1.11 1.11 0 01.09.31c-.21.72-.8.55-1.3.56l-11 .14c-3 0-5.66 1.33-8.18 2.71-1.32.73-2.21 2.28-3.21 3.52-.15.18.09.8.31 1.1a.92.92 0 00.87.18 2.9 2.9 0 001.05-.72c2.35-2.45 5.43-3 8.57-3 4.39 0 8.8.3 13.2.43a8.65 8.65 0 002.54-.28 12.55 12.55 0 018.47 1 36.91 36.91 0 005.5 1.73c6.14 1.55 12.16 3.37 17.68 6.7a121.91 121.91 0 0113.45 10A15.24 15.24 0 01297 413c2.63 3.27 5.27 6.53 7.81 9.86a50.21 50.21 0 014 5.85 54.18 54.18 0 006.47 9.55 5.72 5.72 0 011.43 3.86c-.06 3.48.9 6.8 1.31 10.2.45 3.84 1.1 7.66.87 11.55 0 .43-.07.86-.12 1.28 0 .08-.13.14-.34.37a5.56 5.56 0 01-.95-.57c-1.24-1.19-2.45-2.41-3.67-3.62a17 17 0 00-4-3.23 10.92 10.92 0 01-2-1.65 11.58 11.58 0 00-1.49-1.23 3.08 3.08 0 00-3.33.26 2.52 2.52 0 00-.64 3 59.83 59.83 0 012.25 9c1 4.31 2.29 8.5 3.49 12.73a10.26 10.26 0 00.78 2.11c1.9 3.55 2.75 7.43 3.61 11.32.58 2.62 1.28 5.21 1.92 7.82.15.63.31 1.25.4 1.89.34 2.33.62 4.66 1 7a8.21 8.21 0 00.66 1.81 12 12 0 011.21 4.31 2.89 2.89 0 002 2.68 1.57 1.57 0 002.33-1.63 35.71 35.71 0 00-1.42-5.92 43.12 43.12 0 01-1.87-8.11c-.14-.85-.23-1.71-.45-2.53-1.08-3.94-2.17-7.87-3.31-11.79-.48-1.65-1.08-3.26-1.62-4.89-.61-1.8-1.59-3.46-1.12-5.56.18-.8-.54-1.81-.89-2.7A65.49 65.49 0 01308 462.4zm5.66-280.52l-.8.1c-1.34.16-1.87 1.16-1.09 2.29a11.71 11.71 0 001.79 1.8c1 .94 2.19 1.76 2.67 3.15 1.26 3.68 3.31 7 5.06 10.4a44.86 44.86 0 005.58 8.61 14.58 14.58 0 011.92 2.94 42.06 42.06 0 009.5 13.22 5.09 5.09 0 004.12 1.4 7 7 0 005.37-3.12c.84-1.23 1.85-2.34 2.78-3.52.53-.67 1.06-1.34 1.56-2 1-1.49 2-3 3.1-4.49.7-.95 1.61-1.76 2.21-2.76a18.27 18.27 0 015.87-6.27 8.39 8.39 0 001.85-1.77 2.39 2.39 0 00-.26-3.47 11.39 11.39 0 00-2.11-1.44 44.76 44.76 0 00-13.56-4.95 24.16 24.16 0 01-6.38-2.11 8.71 8.71 0 00-2.14-.66 104.14 104.14 0 01-16.07-4.5 5.9 5.9 0 00-1.26-.28 26.51 26.51 0 01-8.32-2.22 6 6 0 00-1.4-.35zm136.5-8.58a12 12 0 00-4.9 2 84.7 84.7 0 01-8.63 5.52c-3.38 1.87-6.57 4.09-9.88 6.08a21.73 21.73 0 01-4.61 2.28c-2 .62-3.22 2-4.41 3.56a2.44 2.44 0 00-.24 3 42.92 42.92 0 002.74 4c1.65 2.1 3.48 4.06 4.43 6.63a8 8 0 00.81 1.38c1 1.64 2.09 3.25 3.05 4.92a12.47 12.47 0 003.42 3.8c1.72 1.29 3.6.62 4.28-1.46s1.7-4.11 2.32-6.28c1-3.28 2.3-6.46 3.51-9.67a20.83 20.83 0 011.56-3.51 26.79 26.79 0 002.69-5.83 7.68 7.68 0 011.22-2.58 15 15 0 002-3.63c1.13-2.42 1.59-5.1 3.08-7.37a1.5 1.5 0 00-.51-2 13.57 13.57 0 00-1.94-.84zM367 533.36a34.16 34.16 0 00-2.49-13.49c-.7-1.9-2.29-3.08-3.29-4.71a7.61 7.61 0 00-5.9-3.45 36.24 36.24 0 00-7.05.21 4.11 4.11 0 00-3 1.64c-.86 1.08-1.87 2-2.75 3.1a5.2 5.2 0 00-.68 1.4c-.39 1-.67 2-1.12 3-.68 1.45-1.47 2.85-2.23 4.27a8.18 8.18 0 00-.89 3.71 38.78 38.78 0 001 9.22 25.9 25.9 0 005 10.62 10.17 10.17 0 003.86 2.82c3.14 1.47 6.45 1.46 9.77 1.16a6.94 6.94 0 002.67-1.05 9.23 9.23 0 003.66-3.94c2.24-4.61 3.79-9.35 3.44-14.51zm-72.9-263.82h.17v1.61c.13 2.12.88 2.8 3.07 2.76a11.76 11.76 0 005.44-1.71 15.06 15.06 0 014-1.9c1.73-.41 3.19-1.59 5-2 1.64-.37 1.75-2.38.43-3.48-.56-.47-1-1.06-1.56-1.53a7.58 7.58 0 00-2.25-1.76c-3.43-1.13-6.91-2.14-10.41-3.05a2.32 2.32 0 00-2.95 2.18c-.08.63 0 1.28-.07 1.93-.07 1.06-.13 2.13-.27 3.18-.12 1.23-.38 2.52-.6 3.77zm17.18 17.13h-2.12c-2.51.1-3.59 1-3.66 3.46-.09 2.89-.08 5.78 0 8.67a6.4 6.4 0 00.64 2.44 3.57 3.57 0 005.09 1.67 15.19 15.19 0 003.64-2.56 61.08 61.08 0 005.13-6.15 3.8 3.8 0 00-1.48-5.73c-2.41-.9-4.71-2.27-7.24-1.8zM389.85 220a5.58 5.58 0 002.6 4.38 2.37 2.37 0 003.69-2.24 4.6 4.6 0 00-.66-1.75c-.52-.79-1.18-1.48-1.78-2.22a2.3 2.3 0 00-2.52-.94c-.89.19-1.32.97-1.33 2.77zm15.83-2a5.82 5.82 0 00-.76-1.18 2.57 2.57 0 00-3.71.1 15.94 15.94 0 00-2 3.2 2.37 2.37 0 001.2 3 2.89 2.89 0 003.89-1.05 31.21 31.21 0 001.34-3.22 3 3 0 00.04-.85z" transform="translate(-43.79 -84.75)"/><path d="M425.76 250.9c.93.59 1.94 1.2 2.92 1.84a197.25 197.25 0 0118.86 14.06 180 180 0 0020.14 14.47c2.64 1.64 5.44 3 8.22 4.43 6.05 3 12.22 5.83 18.16 9.06a142.1 142.1 0 0112.81 8.08A139.42 139.42 0 00529.36 316c3.33 1.48 6.54 3.25 9.79 4.9a5.8 5.8 0 011.65 1c2.5 2.57 5.66 4.26 8.39 6.52 2.13 1.77 4 3.8 6.1 5.75-.28.72-.46 1.33-.73 1.9-4.32 8.67-7.81 17.68-11.34 26.68-3.46 8.8-7 17.57-10.41 26.37-1.09 2.81-1.94 5.7-3 8.52-.84 2.32-1.81 4.59-2.68 6.9a13.78 13.78 0 00-1 3.37 12.17 12.17 0 01-2.22 5.27c-3.64 5.82-8 11.18-11.23 17.27a7.56 7.56 0 01-1.14 1.55 14.85 14.85 0 00-3.54 6.77 11 11 0 01-1.28 3.18c-.91-.21-.64-.86-.7-1.31-.26-1.81-.44-3.63-.72-5.42a9.39 9.39 0 00-.66-2.15c-.77-1.78-2.13-2.41-3.92-1.58a20.66 20.66 0 00-6 4.43 10.74 10.74 0 01-1.18-.48c-2.16-1.19-4.33-2.35-6.46-3.6a12.51 12.51 0 01-2.56-1.88 26.53 26.53 0 00-7.55-5.42 28.28 28.28 0 01-7.48-5c-1.3-1.22-3.08-1.93-4.62-2.89-2-1.26-4-2.57-6-3.8-1.09-.66-2.28-1.16-3.37-1.83q-8.64-5.32-17.26-10.7a109.2 109.2 0 00-18.39-9.26c-6.31-2.45-12.68-4.72-19-7.12-3.91-1.49-7.79-3.07-11.68-4.63-.78-.32-1.52-.74-2.45-1.2 0-1.29-.07-2.56-.15-3.83-.14-2.46-.94-3.27-3.42-3.19a9.35 9.35 0 00-2.77.63 16 16 0 01-5.44 1.12c.9-2.35 1.63-4.56 2.6-6.68a7 7 0 00.38-4.39 2.44 2.44 0 00-2.83-2.06 9.76 9.76 0 00-1.56.36l-7.16 1.95c-.6-.94-.11-1.73.15-2.47s.72-1.07 1-1.65a2.16 2.16 0 00-1.63-3.17 7.54 7.54 0 00-4.13.26c-3.25 1.42-6.5 2.81-9.69 4.34a34.77 34.77 0 00-3.8 2.42 5.38 5.38 0 01-6 .19 222.62 222.62 0 01-23.17-14.59 60.77 60.77 0 01-6.29-5.71 11.28 11.28 0 01.93-1.67 4.21 4.21 0 011.24-1 22 22 0 008.16-8.5c3.63-6.08 7.41-12.08 10.94-18.23a48.55 48.55 0 004-8.76c3.05-9.09 7-17.78 10.92-26.5 1.4-3.14 2.73-6.31 3.93-9.53a39 39 0 002.35-10c.07-.85.24-1.69.36-2.52.28 0 .57-.09.67 0 2.9 2.85 5.77 5.72 8.73 8.65-1.23 1.59-2.43 3.2-3.7 4.77a2.61 2.61 0 00-.61 2.38 1.38 1.38 0 002.28.76 27.6 27.6 0 002.82-3.49 11.35 11.35 0 012.51-3c.78.38 1.52.79 2.3 1.11a4.59 4.59 0 005.6-1c1.24-1.35 2.4-2.76 3.59-4.14a13.17 13.17 0 012.26-2.48c.73.25.61.74.59 1.13 0 1.61-.26 3.23-.15 4.83.24 3.6-1.36 6.45-3.57 9a19.25 19.25 0 00-3.84 7.71 5.49 5.49 0 00.25 4.08 1.73 1.73 0 001.19.9c.41 0 .91-.46 1.22-.85a3 3 0 00.4-1.2 19.3 19.3 0 014.27-8.53 31.68 31.68 0 003.2-4.42 5.86 5.86 0 00.66-2.43c.12-1.15.07-2.32.1-3.65 1.64.48 3.05.7 4.31 1.67a13 13 0 003.5 1.55 1.07 1.07 0 001.37-.55 1.05 1.05 0 00-.26-1.44c-2.69-1.91-5.17-4.17-8.56-4.85-1.3-2.05-.79-4.43-1.43-6.65 2.06-3.12 5.29-5 7.71-7.63a10.09 10.09 0 013.35 2.77c2.71 2.77 5.38 5.57 8.11 8.31a32 32 0 002.93 2.51 7.09 7.09 0 006.67 1.33l1.25-.36a7.78 7.78 0 01.74 1.15c.87 2.18 1.7 4.38 2.57 6.56.47 1.19.84 1.46 3.38 2.76a1.33 1.33 0 00.81-2c-1-1.76-1.28-3.81-2.48-5.55a23.21 23.21 0 01-2.21-5.32 2.08 2.08 0 01.18-1.52c.58-1.08 5.86-5.9 7.41-6.9zm21.65 114.41h-.14v-4.19a10.64 10.64 0 00-3.62-8.57c-.49-.42-.92-.91-1.37-1.36-2-2-3.77-4.15-6.62-5-.48-.14-.84-.65-1.28-1a2.81 2.81 0 00-1.11-.62c-2.42-.36-4.68-1.58-7.24-1.28a22.66 22.66 0 01-4.51 0c-3.52-.28-6.83.8-10.07 1.76-3.58 1.07-7 2.81-10.44 4.23-3.27 1.34-4.62 4.17-5.11 7.3-.94 6 1.1 11.23 4.86 15.82a15.82 15.82 0 004 3.74c4 2.35 8 4.55 12.19 6.53 2.67 1.27 5.32 2.88 8.49 2.7a.84.84 0 01.3.11c2.65 1.3 5.56 1.13 8.24.71a21.39 21.39 0 007.38-2.86 6.22 6.22 0 003.44-4.81c0-.49.48-.94.7-1.43a17.47 17.47 0 001.95-8.34c-.09-1.08-.04-2.26-.04-3.44zm-64.76-52v2.23a24.86 24.86 0 003.29 12 21 21 0 006.13 6.95 6.58 6.58 0 003.83 1.51 24.73 24.73 0 0011.56-2.34 35.4 35.4 0 0015.36-15.13 18.84 18.84 0 002.69-10.53c-.06-1 0-1.93 0-2.9a17.24 17.24 0 00-6.51-13.42 21.61 21.61 0 00-10.06-4.84c-3.83-.7-7.74-.68-11.28 1.36A28.69 28.69 0 00390 294c-4.72 5.42-7.94 11.44-7.35 19.29zM454.08 347a11.1 11.1 0 010 1.29c-.57 5.19 2.17 9 5.2 12.74a5 5 0 001.27 1c1 .63 2 1.21 3 1.85a5.26 5.26 0 003 .9h6.77a9.13 9.13 0 002.2-.37 12.28 12.28 0 006.44-3.44 6 6 0 011.34-.88 10.06 10.06 0 004.68-6.29 13.62 13.62 0 011.32-3.95 16.53 16.53 0 002.38-10.85 1.71 1.71 0 010-.32c.2-3.59-1.1-6.71-3-9.67-1.33-2.14-3.3-3.67-5-5.47a5.18 5.18 0 00-4.18-2 5.76 5.76 0 01-1.82-.55 9.69 9.69 0 00-1.81-.62 13.65 13.65 0 00-7.84 1.18 4 4 0 00-1.19 1c-.34.4-.5 1-.87 1.34a36.15 36.15 0 00-5.2 7.32 21.51 21.51 0 01-2.08 2.86c-3 3.53-5.1 7.41-4.67 12.25.08.21.06.43.06.68zm40.05 10.83c-.9.61-1.49.8-1.7 1.19a15.85 15.85 0 01-3.15 3.53 26.89 26.89 0 01-5.75 4.5 7.9 7.9 0 00-1.6 1.05 1.35 1.35 0 00-.4 1.1 1.21 1.21 0 00.88.71 6.26 6.26 0 005.08-1.48c1.58-1.4 3.24-2.69 4.73-4.24 1.7-1.8 2.03-3.63 1.91-6.4zm-116.3-41.23c-.28.11-.44.12-.47.19-2.57 5.53-.56 10.09 3.05 14.29a.61.61 0 00.28.16c.39.07.87.29 1.16.14a1.71 1.71 0 00.56-1 3.11 3.11 0 00-.63-2.39c-1.44-2.38-2.72-4.8-2.67-7.73a10 10 0 00-.61-2.8c-.1-.41-.5-.66-.67-.9zm-7.56 3.31c-.33.23-.6.32-.66.47-.71 2.06-1.05 4.11.09 6.17.88 1.58 1.62 3.24 2.46 4.84a4.86 4.86 0 003.33 2.78 1.13 1.13 0 001.52-1c-1.56-1.73-2.48-4-3.76-6.09a12.4 12.4 0 01-2.23-5.91c-.02-.47-.49-.88-.75-1.3zm111.55 56.69c2 1.05 2 1.15 3 .69 1.45-.7 2.81-1.56 4.21-2.32 2.33-1.27 3.9-3.31 5.54-5.28a1.41 1.41 0 00.16-1.81 4.18 4.18 0 00-2.63 1.62c-2 2.3-4.71 3.67-7.19 5.33-.91.55-1.85 1.02-3.09 1.73z" transform="translate(-43.79 -84.75)" fill="#f1f2ec" fill-rule="evenodd"/><path class="cls-2" d="M386.19 383.48c.88.31 1.59.53 2.28.8q7.36 2.82 14.74 5.64c8 3.06 16.19 5.79 23.88 9.67 1.73.87 3.42 1.81 5.11 2.75a5.83 5.83 0 01.94.89c-4.37.91-8.57 1.68-12.7 2.69a16.13 16.13 0 00-8.59 4.79c-.57.64-1.35 1.09-1.87 1.76a1.82 1.82 0 00-.21 1.46 1 1 0 001.38.44 17.62 17.62 0 003.13-1.57 18.87 18.87 0 018.57-3.43c2.32-.3 4.6-.94 6.89-1.46a8.51 8.51 0 015.07.08 4.87 4.87 0 003.44.16 5 5 0 014 .53c4.19 2.18 8.47 4.2 12.2 7.15.5.39 1.18.69 1.46 1.21a10 10 0 003 2.85 25.4 25.4 0 005.32 3.51 9.57 9.57 0 014.25 3.79c1.51 2.44 3.47 4.61 4.46 7.36.25.7.47 1.41.68 2.12q.72 2.46 1.41 4.94a7.64 7.64 0 01.42 1.84 13.23 13.23 0 00.43 4.46c.18.52-.16 1.22-.31 2.14a3.75 3.75 0 01-1.28-1.89c-1.89-4.33-3.76-8.67-5.65-13a13.15 13.15 0 00-1-2 2.42 2.42 0 00-3.88-.47 7.85 7.85 0 00-2.72 4.63 8 8 0 01-1.41 3.54 8.29 8.29 0 00-.85 2.36 7 7 0 01-.3 1.57c-2.06 3.77-1.83 8.11-3 12.12a124.25 124.25 0 00-2.45 12.32l-3 16.81c-1.11 6.18-1 12.42-.8 18.65a8.75 8.75 0 00.43 2.2 1.74 1.74 0 002 1.29 1.68 1.68 0 001.44-1.82c0-2.58-.05-5.16 0-7.73a95.31 95.31 0 012.7-20.73c.16-.73.37-1.46.49-2.2.89-5.41 1.71-10.82 2.66-16.21.35-2 1.26-3.93 1.43-5.94.29-3.48 1.88-6.58 2.56-9.94.35-1.71 1.6-3.24 2.44-4.85.77 0 .84.62 1 1 2.33 6 4.69 12 6.91 18.05.7 1.9 1 3.95 1.52 5.92a4.71 4.71 0 00.76 1.74 2.78 2.78 0 004.59-.55c.74-1.42 1.24-3 1.95-4.41a36 36 0 012.79-5.06c3.77-5.23 7.65-10.38 11.54-15.52a13.25 13.25 0 014.25-4.09c.92.23.83.87.89 1.34.19 1.71.41 3.42.43 5.13v12.58a43.15 43.15 0 01-.13 4.83 40.58 40.58 0 01-.95 4.33 1.25 1.25 0 002 .36 17.31 17.31 0 002.68-2.3c4.23-4.41 9.49-7.31 14.66-10.32.88.8.27 1.48.08 2.12-2.92 10-5.91 20-8.79 30-1.46 5.05-2.8 10.15-4.11 15.24a117 117 0 01-6.86 19.76q-2.14 4.7-4.11 9.46a15.29 15.29 0 01-6.76 7.93c-.93.52-1.81 1.15-2.7 1.76a19 19 0 01-7 3c-3.47.73-6.92 1.53-10.4 2.2-8.68 1.66-17.1.52-25.32-2.53a124.65 124.65 0 01-14.33-6.6c-3-1.54-5.84-3.21-8.78-4.78a67.82 67.82 0 00-24.45-7.69 71.23 71.23 0 00-11.59.07 24.87 24.87 0 00-4.64 1.12c-.1-.21-.31-.43-.26-.57.79-2.74.6-5.54.53-8.32-.09-3.42.28-6.89-.88-10.23a2.54 2.54 0 010-.95c.1-1.82.3-3.63.3-5.45q0-13.86-.05-27.73a28 28 0 00-.45-4.47 35.28 35.28 0 01-.59-6.4c.05-3.34-.06-6.67 0-10a4.08 4.08 0 00-4.9-3.85 4.57 4.57 0 00-2.22 1.15 12.86 12.86 0 00-1.69 2.33c-.89 1.32-1.51 2.88-3.2 3.48a1.57 1.57 0 00-.73.62c-1.89 3.13-5 5.35-6.57 8.72a8 8 0 01-1.08 1.58c-1.14 1.41-2.31 2.78-3.54 4.26-.12-.09-.51-.21-.57-.43-1.94-6.43-5.51-12.11-8.36-18.11-.74-1.55-1.42-3.13-2.13-4.69-.91-2-2.95-4.13-5.8-3.71-1.44.22-2.53 1-2.47 2.47.07 2-1.09 3.71-1 5.65s-.68 3.58-.89 5.37c-.42 3.49-1.6 6.91-1.13 10.5a2.84 2.84 0 01-.08 1c-.95 3.53-1.22 7.18-1.86 10.77a5.23 5.23 0 01-.45 1 4.91 4.91 0 01-1.46-.64c-1.48-1.39-2.9-2.86-4.34-4.3a48.57 48.57 0 01-.28-5.1c.34-6.82-.71-13.51-1.72-20.2-.19-1.26-.63-2.49-.93-3.75-.11-.5-.15-1-.26-1.71A32.84 32.84 0 01325 439a49.41 49.41 0 0010.26-5.31c.53-.37 1.06-.71 1.56-1.12 2.49-2 5-4.06 7.46-6.09 1.24-1 2.53-2 3.69-3.09a13.54 13.54 0 013.85-2.87 4.61 4.61 0 001.58-1.09c2.64-3 6.15-4.94 9.24-7.4a16.91 16.91 0 003.77-3.45 8.36 8.36 0 012.39-2.1 33 33 0 005.67-4.73c1.05-1.07 2.26-2 3.4-2.94a19.44 19.44 0 004.35-5.93c.65-1.22 1.46-2.36 2.1-3.59a14.63 14.63 0 00.89-2.37c.32-1.07.62-2.2.98-3.44zm106.58 129.11c0-2.25.06-4.5 0-6.75a10.78 10.78 0 00-4.27-8 3.54 3.54 0 00-2-.82 10.3 10.3 0 00-3.81.38c-2.27.85-4.93.74-6.78 2.66a.39.39 0 01-.29.12c-2.15-.82-2.93 1-4.11 2.11-2 1.82-3.84 3.73-4.59 6.44a6.07 6.07 0 01-.86 1.36 12.19 12.19 0 00-2 6.66c0 1.61-.19 3.22-.14 4.83.1 3.49.7 6.82 3.34 9.45a6.25 6.25 0 011.07 1.59 3.89 3.89 0 002.42 2c1.13.35 2.28.64 3.38 1 3.14 1.16 6.15.39 9.09-.65a11 11 0 003-1.86c.83-.66 1.51-1.52 2.3-2.25a7.43 7.43 0 001.87-3c2.61-7.05 2.61-7.41 2.38-15.27zM103.37 317.6c0 5.69-.05 11.38 0 17.07 0 2.15.41 4.28.61 6.42a164.35 164.35 0 002.66 19.14c.43 2 .9 4 1.47 5.95a133.46 133.46 0 013 13.86 33.09 33.09 0 001.35 5.29c2.67 7.6 5.45 15.16 8.15 22.76a13.13 13.13 0 002.55 4.42c2.07 2.33 4 4.77 6 7.14a11.58 11.58 0 002.05 2 26.11 26.11 0 016 6.21 8.92 8.92 0 002.21 2.29 14.44 14.44 0 013.41 3.39 22.88 22.88 0 006.42 6.25 5.85 5.85 0 011.23 1 18.63 18.63 0 006.61 5c2.31 2.34 5.36 3.51 8.13 5.14a74.57 74.57 0 0012.94 6.34 5.44 5.44 0 013.95 4.61 42.43 42.43 0 002.22 8.72 5.61 5.61 0 001.72 2.64 6 6 0 012.35 4.43c.19 3.56 2.16 6.26 4.37 8.76a13.53 13.53 0 012.6 4 24.87 24.87 0 004 6.5q1.65 2 3.28 4a4.93 4.93 0 00.81 1c3.22 2.25 5.17 5.72 8.06 8.29a8.15 8.15 0 011.69 1.93 11.24 11.24 0 003.26 3.47 14.13 14.13 0 013 3.68 11.1 11.1 0 004 3.53c3.41 2 6.63 4.32 9.91 6.54.24.16.36.51.57.82a6 6 0 01-4.16 1.48c-1.51-.07-3 0-4.52 0a7.92 7.92 0 00-2.24.11c-3.37 1-6.82.69-10.25.73-1.72 0-3.45.06-5.16 0s-3.42-.29-5.13-.46a17.36 17.36 0 00-2.23-.32 26.79 26.79 0 01-8.81-1.68 19.45 19.45 0 00-3.79-.77c-6.33-.72-12.35-2.83-18.52-4.23a8.63 8.63 0 01-1.78-.75q-16.11-7.82-31.39-17.15c-4.85-3-9.29-6.58-13.89-9.94-.86-.63-1.59-1.45-2.39-2.16-1.76-1.58-3.47-3.21-5.29-4.71a59 59 0 01-7.31-7.26c-5.2-6.07-9.42-12.8-13.62-19.56-1.3-2.09-2.73-4.12-4.22-6.08a12.82 12.82 0 01-2.26-4.23 24.72 24.72 0 00-2.45-5.58 50.6 50.6 0 01-6.44-17.43c-.38-2.33-.81-4.66-1.2-7a40.72 40.72 0 01-.62-7.06c0-6.66.13-13.33 0-20a94 94 0 011.2-14.43 96.79 96.79 0 014.59-20.39c.62-1.72 1.31-3.41 2-5.12 1-2.5 1.91-5 2.88-7.51.55-1.4 1.08-2.81 1.68-4.18 1-2.37 2.09-4.72 3.14-7.07.35-.78.67-1.59 1.08-2.34 2.65-4.8 5.27-9.61 8-14.36.66-1.14 1.09-2.55 2.49-3.15zm397.86-30.5c-.45-2.88-.73-5.31-1.23-7.69a19.12 19.12 0 00-2.77-6.1.91.91 0 00-1.59.13 13 13 0 01-3.85 4.67 9.71 9.71 0 01-2.18 1 36.45 36.45 0 01-1.17-5.81 24.65 24.65 0 00-1.18-5.31 2.45 2.45 0 00-2.93-1.9 8.18 8.18 0 00-4.09 1.77c-1.19.86-2.39 1.72-3.69 2.56a20 20 0 01-.41-8.05 27.71 27.71 0 00.09-9.61 9.18 9.18 0 01.59-4.56 18.63 18.63 0 016.2-1c1.94.08 3.88 0 5.81 0a6.85 6.85 0 015.5 2.17 12.1 12.1 0 001.76 1.39 11.39 11.39 0 011.71 1.45c1.7 2.06 3.27 4.23 5 6.24a19.86 19.86 0 003.51 3.22c1.86 1.34 2.32 3.33 2.72 5.3a18.57 18.57 0 01.42 5.45A11.13 11.13 0 01507 279a11.2 11.2 0 00-1.71 2.68 13.75 13.75 0 01-4.06 5.42z" transform="translate(-43.79 -84.75)"/><path class="cls-4" d="M501.16 294.8c2.89-3.92 6.06-7.56 8.14-11.95a3 3 0 01.76-1c.71-.6 1.47-1.13 2.34-1.79.59.25 1.3.48 2 .82 7.9 4.12 15.84 8.15 23.66 12.41a184.31 184.31 0 0120.7 13.63c2.33 1.72 4.69 3.41 7 5.17a6 6 0 012.63 3.74c-.8 1.68-2.62 2.61-3.76 4.13s-2.51 3.22-3.67 4.89-2.07 3.25-3.21 5c-.5-.28-1.06-.43-1.33-.79a12.83 12.83 0 00-3.36-3c-1.68-1.16-3.37-2.29-5-3.46a13.37 13.37 0 01-2.58-1.91c-2-2.25-4.6-3.45-7.22-4.69-3.49-1.66-6.94-3.41-10.44-5a111.57 111.57 0 01-14.08-7.78q-5.78-3.82-11.51-7.69c-.46-.19-.77-.53-1.07-.73zm29.33 11.06c3.1.23 5.1-3.73 4-6.07-1.66-3.46-3.82-4.32-7-2.36-1.74 1.06-2.23 2.59-1.46 4.66.19.5.45 1 .66 1.45a3.71 3.71 0 003.8 2.32zm9.64 1.42v.65a5.11 5.11 0 004.67 4.44 2.83 2.83 0 001.51-.44c1.79-1.25 3.12-3.54 1.43-6.16a7.32 7.32 0 00-2.28-2.22 3.36 3.36 0 00-5.33 2.77c.01.32 0 .68 0 .96zm15.1 12.89h1.31c2.08-.12 3.26-1 3.54-2.61a3.92 3.92 0 00-2.54-4.64 5.3 5.3 0 00-3.47-.15 3.18 3.18 0 00-2.34 3.1c-.12 1.58.1 3.08 1.68 3.86a5.72 5.72 0 001.82.44zm-71.49-49.27c.21.46.63.93.6 1.38-.16 2.3.83 4.41 1 6.65.13 1.48.45 2.95.6 4.44a2.64 2.64 0 004.84 1.47c1-1.94 3-2.65 4.39-4.13.11-.12.38-.09.58-.12a31.57 31.57 0 01-.16 10.67c-.68.38-1.22-.09-1.76-.35q-9.27-4.49-18.53-9c-1.73-.86-3.44-1.77-5.08-2.78a171.82 171.82 0 01-19.67-14 173 173 0 00-21.85-15.92 4.23 4.23 0 01-.62-.56c1-1.77 2.63-2.88 4.24-4.25a16.84 16.84 0 011.31 1.08c4.38 4.42 8.74 8.86 13.13 13.28a10.25 10.25 0 001.69 1.47 3.68 3.68 0 004 .15 6.05 6.05 0 002.88-2.47c1.36-2.8 3.66-4.72 6-6.61l2.08-1.71c.54.52 1 .92 1.42 1.38.86 1 1.67 2 2.53 2.92 1.94 2.16 2 2.17 5 3.51a7.51 7.51 0 01-.28 3.41 13.36 13.36 0 00-.47 2.85c-.07 3.86-.07 7.73-.09 11.6v.32c0 1.25.29 2.37 1.64 2.84a2.94 2.94 0 003.23-.86 29.14 29.14 0 002.46-3c1.35-1.8 2.06-2.38 4.89-3.66z" transform="translate(-43.79 -84.75)"/><path class="cls-5" d="M356.05 118.09a23.87 23.87 0 01-5.19.27c-1.71 0-3.44-.17-5 .83a4.32 4.32 0 01-1.57.24l-3.79.62a2.86 2.86 0 01-.62.13c-3.67-.3-6.86 1.55-10.28 2.34a18.81 18.81 0 01-2.19.52 26.44 26.44 0 00-10.09 3 2.9 2.9 0 01-.63.16c-.59-.47-.21-.93 0-1.39 1.28-2.71 2.45-5.47 3.91-8.11 1.55-2.8 2.67-5.85 4.06-8.75.78-1.65 1.8-3.18 2.6-4.81a37.51 37.51 0 001.86-4.44 9.25 9.25 0 012.07-3.94 9.07 9.07 0 001.2-1.89c.73-1.18 1.45-2.37 2.21-3.61a4.93 4.93 0 012.74 2.23c1.35 1.8 2.51 3.73 3.9 5.49a13 13 0 012.79 4.64 2.2 2.2 0 00.52.81c3.53 3.93 6.29 8.41 9.14 12.83a33 33 0 002.36 2.83zM307.14 130c-1.32.62-2.38 1-3.37 1.6s-2 1.27-3 1.93-2.13 1.44-3.19 2.16a11.28 11.28 0 01-1.59 1.1c-3.81 1.84-6.93 4.58-10.16 7.25a55.84 55.84 0 00-6.31 5.71c-.91-.28-.79-.87-.79-1.38v-15.15a14.12 14.12 0 00-.56-4.12 49.71 49.71 0 01-1.9-15.91 4.28 4.28 0 01.1-1 2 2 0 013-1.25c2.22 1.31 4.44 2.62 6.61 4a25.86 25.86 0 015.47 3.94 4.39 4.39 0 001.31.93c3.54 1.83 6.59 4.39 9.8 6.71.78.56 1.45 1.28 2.2 1.87s1.46.96 2.38 1.61zm-50.97 60.52c-.49 2.95-2 7.61-3.11 9.36a17.67 17.67 0 00-2.06 5c-1 3.73-2 7.46-3.14 11.14a26.83 26.83 0 01-2.09 4.09 30.22 30.22 0 01-7.78-5.62 48.11 48.11 0 00-4.25-3.94c-2.42-2.12-4.88-4.19-7.3-6.3-.4-.35-.69-.82-1.06-1.2-.81-.85-1.67-1.65-2.46-2.51s-1.36-1.59-2.23-2.62a24.13 24.13 0 012.83-1.15q5.13-1.37 10.28-2.62 3.28-.8 6.6-1.42c4-.78 8-1.54 12-2.21a24.58 24.58 0 013.77 0zm17.94-35.21c-.54.82-1 1.53-1.47 2.2-1.31 1.83-2.67 3.63-4 5.46a58.88 58.88 0 00-6.53 12.88 42.9 42.9 0 01-3.11 6.41 8.66 8.66 0 01-3.23-3.66c-1.07-2-2.2-3.92-3.27-5.9-.61-1.13-1.19-2.29-1.72-3.46q-4-8.78-8-17.58a14.1 14.1 0 01-1.44-4.76 5.53 5.53 0 011.87-.09c6.9 2.43 14.19 3.36 21.18 5.45 3.22.94 6.35 1.99 9.72 3.05zm-73.47 185.1c-6.32-8.44-11.78-16.76-18.22-24.81 3.28-1.15 6.09-2.12 8.89-3.11s5.64-2.07 8.5-3 5.59-1.56 8.38-2.33l8.88-2.45a19.07 19.07 0 01-.78 2.22c-1.6 3.16-3.11 6.38-4.89 9.44a124.93 124.93 0 00-9.56 21.08c-.28.82-.63 1.55-1.2 2.96zM234.4 263a34.43 34.43 0 01-5.54-5.6 17.2 17.2 0 00-1.33-1.81c-4.08-4-7.24-8.76-11.53-12.53a6.06 6.06 0 01-2.35-3.52c5.89-2.6 11.23-6.24 17.54-7.86 2.69-.69 5.26-1.84 7.88-2.79l4.13-1.51a6.48 6.48 0 01.1 1.63 24.3 24.3 0 01-1.19 4.33 22 22 0 00-1.58 6.54 37.73 37.73 0 01-2.42 10.25 7.85 7.85 0 00-.55 2.18c-.32 3.43-1.79 6.56-2.57 9.88.01.2-.24.35-.59.81zm-15.18 36.57c-2.41-2.56-14.64-19.9-16.41-23.22.15-.69.75-.64 1.25-.73a107.88 107.88 0 0019.27-5.16c2.11-.78 4.16-1.74 6.24-2.59.68-.28 1.38-.48 2.37-.82a24.82 24.82 0 01-1.17 5.51c-1.78 4.83-3.42 9.73-5.36 14.49-1.67 4.07-3.68 8-5.55 12-.08.15-.32.25-.64.52zm-46.7 58.14a2.23 2.23 0 011.63-2c1.51-.53 3-1 4.6-1.39 2-.53 3.94-1 5.9-1.47a12.5 12.5 0 001.2-.48c3.21-1.19 6.27-2.77 9.7-3.36a12.74 12.74 0 002.54-1.1c.24 2.66.51 5-.54 7.53a31.86 31.86 0 00-1.82 8.43 19.42 19.42 0 01-2.78 8.78 14.77 14.77 0 00-.94 2.14 8.56 8.56 0 01-3.67-2.45 34.22 34.22 0 00-5.36-4.61 21.13 21.13 0 01-2.83-2.62 16.87 16.87 0 00-3.94-3.29 4.83 4.83 0 01-1.35-1.32c-.77-.87-1.5-1.77-2.34-2.79zM183 411.45a2.88 2.88 0 01-2.68-1.06l-3-3a57.18 57.18 0 00-5.32-4.62 30.19 30.19 0 01-5.49-4.88 19.08 19.08 0 00-3.06-2.53c.36-.39.57-.83.89-.94 5.4-1.76 10.6-4 15.85-6.16 3.27-1.32 6.53-2.67 10-4.07a8.83 8.83 0 01-.1 1.48q-1.12 5-2.29 10a14.17 14.17 0 00-.51 2.19 7.16 7.16 0 01-1.66 4.1 10.47 10.47 0 00-1.79 4.76c-.25 1.62-.52 3.18-.84 4.73zm-2.38 41.28c-1-1.12-1.91-2.23-2.83-3.37a28.48 28.48 0 01-2.11-2.8c-2.12-3.38-5.42-5.78-7.47-9.21a7.61 7.61 0 00-1.75-1.88A3.94 3.94 0 01165 431a55.47 55.47 0 017.29-4.89c2.54-1.36 5.24-2.46 7.28-4.63a2.25 2.25 0 01.82-.48 2.11 2.11 0 01.62-.09c.45 1.5.41 1.5.18 3.59-.15 1.38-.21 2.77-.25 4.16s0 2.57 0 3.86v16.09c0 1.39.16 2.56.25 3.83zm-45.9-88.31c-1.94 1.9-2.94 4-5 5.4a25.14 25.14 0 00-4.49 4.55c-1.74 2-3.28 4.23-5 6.25a39.39 39.39 0 01-3.45 3.23c-.79-.38-.86-1.18-1-1.84-.33-1.24-.55-2.51-.77-3.78a107.27 107.27 0 00-2.89-12.5 8.36 8.36 0 01-.68-3.49c.58 0 1.11-.1 1.63-.1 2.9 0 5.8.22 8.68.05 4.32-.27 8.41.81 12.97 2.23zm5.17 23.78a5.09 5.09 0 01-2.82 4 7 7 0 00-2.33 2.15c-2.1 2.56-3.92 5.34-6.29 7.68a12.73 12.73 0 00-1.32 1.81c-.6.87-1.06 1.87-2.1 2.34-1.24-1.9-5.25-12.44-6.59-17.27a2.42 2.42 0 012.64-1.82c4.93.12 9.86.1 14.79.11a6.11 6.11 0 014.02 1zm-30.14-33.35c-1.14-2.93-2.5-12.19-2.43-16.37a10.53 10.53 0 011.54-.83c2.09-.75 4.28-1.26 6.16-2.53a3.78 3.78 0 011.22-.38c.73-.18 1.46-.36 2.19-.48s1.7-.22 2.54-.35 1.33-.65 2.27-.41a20.85 20.85 0 01-2.75 4.8 29.88 29.88 0 00-2.72 4.68 97.62 97.62 0 01-5.37 8.72 34.06 34.06 0 01-2.65 3.15zm36.8 56.77a16.12 16.12 0 01-2.44 6.22 12.29 12.29 0 00-2 4.66c-.21.93-.26 1.92-1.41 2.56-4.15-4.44-8.87-8.38-12.46-13.42.32-.22.48-.43.64-.43q8.34 0 16.7.1a4.26 4.26 0 01.97.31z" transform="translate(-43.79 -84.75)"/><path class="cls-2" d="M103.44 317.65v-.54l.35.17-.42.32z" transform="translate(-43.79 -84.75)"/><path class="cls-6" d="M527.39 254.59c.39 1.82 1.72 3.56.85 5.71a4.32 4.32 0 01-1 .26l-9.65.18c-1 0-1.7-.26-1.65-1.62 1.26-.61 2.6-1.25 3.93-1.91 1.54-.76 3.1-1.48 4.59-2.33a3 3 0 012.93-.29z" transform="translate(-43.79 -84.75)"/><path d="M362.12 200.44c-1.17.91-2.29 1.69-3.31 2.59-3.62 3.22-6.59 7-9.68 10.74l-2.89 3.44c-.82 1-1.6 2-2.43 3a1.7 1.7 0 01-2.56.28 22.22 22.22 0 01-3.75-4c-1.62-2.64-3.74-5-4.72-8a6.33 6.33 0 00-1.45-2.11 40.45 40.45 0 01-6.6-9.49 31.38 31.38 0 00-2.18-3.58 6.42 6.42 0 01-1.2-4.64 7 7 0 015.55.68c3.82 1.9 8 2.54 12 3.57a13.39 13.39 0 012.77.8 24.58 24.58 0 006.43 2 62.36 62.36 0 0110.57 2.8 8.05 8.05 0 013.45 1.92zm83.61-21.14a8.5 8.5 0 01-1.78 5.23 10.88 10.88 0 00-1.67 3.44 24.57 24.57 0 01-2.56 5.53 18.16 18.16 0 00-1.57 3.51c-1.29 3.53-2.21 7.19-3.93 10.56a19.23 19.23 0 00-.7 2.45 5.93 5.93 0 01-.92 1.21c-1.28-3.16-3.54-5.35-4.86-8.21-.92-2-2.57-3.66-3.91-5.45-.26-.34-.61-.61-.9-.93-1.62-1.75-1.62-2.76.74-3.75 4.78-2 9-5 13.31-7.84a22.58 22.58 0 014.73-2.71 8.74 8.74 0 002.11-1.43c.66-.5 1.27-1.07 1.91-1.61z" transform="translate(-43.79 -84.75)" fill="#ffcb05" fill-rule="evenodd"/><path class="cls-5" d="M363.14 532.64a22.7 22.7 0 01-3 12.51 10.93 10.93 0 01-2 2.51 2.82 2.82 0 01-1.69.8 15.42 15.42 0 01-5.73-.37 8 8 0 01-4.71-3.62 24.61 24.61 0 01-3.06-7.68 23.55 23.55 0 01-.86-7 9 9 0 01.57-2.79 57.54 57.54 0 003.48-8.62c.55-2.12 2.45-2.52 4.26-2.81 1.58-.24 3.18-.32 4.77-.5a2.73 2.73 0 012.58 1.06c1.5 2.18 3.65 4.06 4.06 6.82.55 3.3 1.86 6.46 1.33 9.69z" transform="translate(-43.79 -84.75)"/><path class="cls-6" d="M298.89 263c3.48-.23 6 1.32 9.11 1.93-.39.57-.6 1.2-.93 1.29-2.61.64-4.78 2.24-7.23 3.22a8.62 8.62 0 01-1.44.29c-.58-2.34.99-4.32.49-6.73zm9.81 26.94c3-.23 5.86-.83 8.07 2.14-2 3.14-4 6.09-7.57 7.77-.26-.38-.57-.63-.58-.89a61.89 61.89 0 01.08-9.02z" transform="translate(-43.79 -84.75)"/><path class="cls-4" d="M443.14 365.27v2.58a5.94 5.94 0 01-.75 3.71c0 2.46-2 4.2-2.48 6.51a3 3 0 01-2.05 1.9 40.18 40.18 0 01-4.19 1.61 11.43 11.43 0 01-5.72 0 11.73 11.73 0 00-1.83-.58c-4.22-.24-7.76-2.17-11.28-4.26-1.93-1.15-4-2.11-6-3.09a14.42 14.42 0 01-6-5.61c-.51-.83-1.05-1.63-1.52-2.47-1.73-3-2-8.53-.26-11.46a8.79 8.79 0 017.46-4.82 9.12 9.12 0 002.22-.27c5.2-1.65 10.56-1.76 15.93-1.62a12.47 12.47 0 016.29 2 3 3 0 00.8.52c3.52.84 5.4 3.79 7.63 6.15a8 8 0 011.89 5.31v3.86z" transform="translate(-43.79 -84.75)"/><path class="cls-6" d="M386.31 312.58c-.34-4.68 1.49-8.63 3.85-12.43a34.11 34.11 0 016.62-7.41 9.91 9.91 0 015.53-2.28 18 18 0 0114.59 4.45 14.58 14.58 0 015.19 10.36c.06.85 0 1.72.11 2.57a15.5 15.5 0 01-2.73 10.36c-3.2 5.07-7.13 9.36-12.63 12.05a20.08 20.08 0 01-9 2 6.56 6.56 0 01-4.63-1.87 19.57 19.57 0 01-5.95-10.46 71.22 71.22 0 01-.95-7.34zm14.39-11v1.28a5.3 5.3 0 001.53 3.45 3.54 3.54 0 003.86.83 2.84 2.84 0 001.9-3 24.89 24.89 0 00-.48-4.14 2.9 2.9 0 00-2.59-2.49c-2.61-.36-4.1.82-4.25 3.46.02.19.03.41.03.62zm57.06 45.2c-.49-3.9 1.38-7.15 3.87-10.27 1.8-2.26 3.22-4.82 4.92-7.16a32.51 32.51 0 013.54-4.14 4.11 4.11 0 012.28-1 19.68 19.68 0 017.63.64 2.61 2.61 0 011.07.68c2.83 2.69 5.32 5.55 6.32 9.52a26.64 26.64 0 01.46 4.76 12.84 12.84 0 01-1.76 7.7 18.83 18.83 0 00-1.67 4.5 7.13 7.13 0 01-3.74 5 5 5 0 00-1.31.93 10.79 10.79 0 01-8.2 3 13.11 13.11 0 00-2.26 0c-2.75.46-5-.94-6.66-2.6-2.6-2.56-4.74-5.6-4.5-9.62.03-.59.01-1.13.01-1.94zm13.1-12.65h.07a12.19 12.19 0 000 1.6 2.79 2.79 0 003.15 2.52 2.61 2.61 0 002.78-2.52 11.75 11.75 0 00-.21-3.19 2.72 2.72 0 00-3.16-2.1 2.57 2.57 0 00-2.55 2.41c-.05.42-.05.85-.08 1.28z" transform="translate(-43.79 -84.75)"/><path class="cls-5" d="M488.69 512v1.61c0 6.41.05 6.44-2.17 12.21a9.33 9.33 0 01-10.24 6 19.72 19.72 0 01-3.11-.8 2.5 2.5 0 01-1.12-.61c-2.27-2.46-4.34-5.06-4.58-8.6-.12-1.93-.18-3.86-.22-5.79a7.84 7.84 0 011.36-4.23 12.53 12.53 0 001.41-2.51c.82-2.66 2.79-4.23 5-5.62.18-.12.44-.15.56-.3 1.85-2.25 4.57-2.59 7.13-3.21a7 7 0 012.53-.16 2.55 2.55 0 011.61.89 8.58 8.58 0 012 5.31v5.8zm9.58-240.14c-3.3-1.72-5.77-.7-7.79 1.36-1-3.56-1.56-7.12-4.92-9.62-2.35-1.75-5-.89-7.36.69.31-4.66.11-9.91-3.66-11.2a.75.75 0 00-.61.08 2.15 2.15 0 00-.16-2.34 14.06 14.06 0 01-.83-1.33 1.54 1.54 0 00-1.44-.74c-3.37-3.16-7.52-8.46-12.16-6.75-3.63 1.34-6.79 5.8-7.9 9.93-4.18-5.85-8-15.91-15.64-16.57-10-.86-17.48 11-23.06 18.51-5.1-3.46-8.73-8.73-14.43-11.44-3.29-1.55-6.65-.66-9.67 1-2.87.83-4.95 2.7-7.34 5.1s-4.5 5.09-6.85 7.55c-3.51 3.66-4.8 1.93-7.37-.8-4.3-4.56-9.58-14.93-17.48-12.89-4 1-7 3.86-9.33 7.11-1.81 2.46-3.46 5-5.13 7.55-4.05 6.17-3.65 6.12-9.08 2.18-2.15-1.55-11.26-11.9-14.36-7.58a1 1 0 00.15 1.19c4.38 5.36 9.71 14.75 17 16.75 10.8 3 16.75-25.69 25-19.18 4.93 3.88 9.58 15.57 17.27 14.76 5.13-.54 8.24-4.32 11.51-8 3.13-3.54 8.16-6.45 10.27-10.61 2.54 0 5 1 7.81 3.69 3.71 3.49 6.79 7.28 11.29 9.8a2.81 2.81 0 003.4-.44c5.15-6.2 9.72-13.16 16.59-17.61a3.57 3.57 0 013-.44c.13 2.47 1.67 4.56 3.24 6.35 1.31 1.49 4.07 5 6.42 4.12a59.63 59.63 0 003.91 5.89c1.95 2.2 4.76.31 4.95-2a1.25 1.25 0 00.24-.27c.38-.62 1.36-2.6 2.52-4.59a1.86 1.86 0 01.12.38c.1.66 1.13.61 1.27 0 .08-.33.81-.93 1-1.21a6.85 6.85 0 011.3-1.28 2.53 2.53 0 011.41-.51c.16 0 .71.12 1 .11a2.26 2.26 0 001.13-.36c2.23 2.09 3.92 5 6.79 6.18a3.05 3.05 0 003.18-.57.78.78 0 000 .43c1.33 5-.54 11-.75 16.12a2.52 2.52 0 004.27 1.77c2.83-2.89 6.56-5.93 8.32.37.7 2.51 1.07 5 2.25 7.33.89 1.77 3.46 1.54 4.4 0 3.47-5.64 6.48-1.29 8 3.46-.2 2.27.42 4.38 1 6.82.76 2.95 4.62 2 4.93-.66.66-5.63-2.26-14.79-7.62-17.59zM382.52 375a42 42 0 00-9.23 1.91c.49-4.36 2.39-8.55 2.6-13a2.48 2.48 0 00-2.46-2.45c-3.93-.25-7.28 1.32-10.72 2.82a9.32 9.32 0 00.91-5.46 2.09 2.09 0 00-2.55-1.45c-5.69 1.11-11.11 4.28-16.35 7v-.39a3.19 3.19 0 00-4.66-1.9l-.45.3a3.71 3.71 0 00-2.38-2.14 54.76 54.76 0 01-12.83-5.81c-4.36-2.8-7.39-6.86-11.38-10-1.15-.91-3.39-.5-3.24 1.34.73 8.92 9.62 15.6 18.19 19.33-4 2.3-7.79 5.06-11.89 7.31-9.05 5-14.29-5-18.53-11.21-3.66-5.4-7.6-11-11.18-16.9-3-6.17-6.08-12.29-9.05-18.48-.35-1-.68-2-1-3a1 1 0 00-.81-.74c-.6-1.27-1.21-2.54-1.79-3.82-1.18-2.6-4.86-.66-4.36 1.84 2.94 14.7 11.13 28.76 17.36 42.29 3.26 7.08 7.66 13.19 12.17 19.48 2.24 3.13 5.37 8.19 9.43 9.12 8.92 2.05 14.33-9.37 21.15-13 3.64-1.95 12.19-5.4 14.66-10.18 5.27-.24 10-3.75 15.05-5.52-.53 1.46-1.42 2.83-2.05 4.29a1.55 1.55 0 00-.42 1.73c.19 1.4 2 2 3.24 1.23 3.64.25 7-2.09 10.66-2.85-.87 4.58-2.86 8.88-2.41 13.69a2.56 2.56 0 003.18 2.43c3.69-1 7.31-2.41 11.15-2.62 3.24-.31 3.25-5.39-.01-5.19zm-151.76-6.65a.09.09 0 000 .18.09.09 0 000-.18zM415.23 412a.09.09 0 000 .18.09.09 0 100-.18z" transform="translate(-43.79 -84.75)"/><path class="cls-5" d="M496.52 525.64c-3.63 1.18-5.69 3.42-8.82 5.71-4 2.91-8.88 4.35-13.59 5.58-11 2.88-21.13.92-31.8-2.07a2.54 2.54 0 00-1.42 0c-8.84-5.18-16.8-11.85-26.65-15.38l-.52-.17c-6-4.68-12.62-8.66-17.25-15a60.75 60.75 0 01-11.8-33.18c-.37-9.17-1-18.32-3.28-27.26-.63-2.42-3.16-3-5.19-2.11-8.71 3.73-14.8 10.82-20.34 18.25A93 93 0 00343.54 441a2.28 2.28 0 00-2.21-.8 28.54 28.54 0 014.53-6.58c.18-.21.39-.41.58-.62 6.65-4 13.05-9.12 18.95-13.73 11.31-8.83 19-19.24 21.45-32.87 4.42 4.48 10.37 8.24 16.8 11.26a2.3 2.3 0 00.42 2.92 9.26 9.26 0 005.86 2.42 32.09 32.09 0 00-1.57 4.74 2.57 2.57 0 00.9 2.44 2.54 2.54 0 002.73 1.6c-.41 1.57.1 3.32 2.08 3.66 3.67.63 7.29.09 11-.48a104.21 104.21 0 0114.34 1 1.43 1.43 0 00.94 1c5.76 1.79 10.13 5.87 14.7 9.63a66.76 66.76 0 001.21 10.05 122.64 122.64 0 011 13.27c-1.41 7.44-2.33 15.06-4 22.12-2.12 8.65-7.74 24.34-3.43 32.81a2.17 2.17 0 003.71 0c2.31-4.05 1.89-8.85 2.56-13.41 1-6.88 2.58-13.68 4.24-20.42a248.59 248.59 0 005.32-31.4c1.35 2.74 2.5 5.6 3.57 8.26 1.3 3.24 2 8.48 4.65 11.29.11.77.32 1.56.38 2.11a35 35 0 01.17 5.22c-.11 3.49 5.57 3.47 5.4 0v-.35c.07-.44.27-1.73 0-1a1.74 1.74 0 00-.47-1.79 23.36 23.36 0 00-1.19-3.63 7.49 7.49 0 00-.38-.74 11 11 0 00-.31-6 2.62 2.62 0 00.2-1.7c-.26-1.37-.62-2.73-1-4.09a1.62 1.62 0 00.24-.71c.76-11.49-7-20.9-15.27-27.79-5.79-4.82-12.09-9.7-19-13.16a3.36 3.36 0 00-3.69-3.8 47.32 47.32 0 01-5.27-.06 3.29 3.29 0 00-2.79-3.46 117.67 117.67 0 01-24.88-8.68c-6-2.75-11.92-6.33-18.48-7.48v-.09c.1-1-1.15-1.54-1.95-1.12-5.19 2.7-6.71 12-9.72 16.89-4.72 1.86-8.52 7.65-11.82 11a157.88 157.88 0 01-12.84 11.74c-1.08.75-2.16 1.5-3.24 2.23-.59.41-1.21.79-1.83 1.17a2.79 2.79 0 00-.79-.12 2.49 2.49 0 00-2.55 2.09c-5.58 3.09-11.56 5.74-16.42 9.6a19.45 19.45 0 00-2.76 2.68c-2.64-7.85-5.4-14.95-11.13-21.5-7.2-8.24-16-13.24-25.34-18.6-8.62-5-23.06-13.35-34.67-12a2.52 2.52 0 00-.22-.5 152.78 152.78 0 00-13.77-19.41c-.85-2.23-2-4.13-4.44-5a2.24 2.24 0 00-3.54 2.32 38.83 38.83 0 003.63 8.06c.51 1.7.92 3.43 1.26 5.16.65 3.4.69 5.54-1.87 7.92a29 29 0 00-2.15 2.13 47.65 47.65 0 00-10.44 4.07c-2.93 1.54-1.69 6.7 1.73 6.39.52 0 1-.13 1.54-.22 8.88 1.23 17.85.73 26.78 1.2 11.27.6 20.6 4.59 30.11 10.35a152.25 152.25 0 0122.7 16.64 52.32 52.32 0 016.7 7.49c1.32 5.23 2.75 10.42 4 15.68 1.51 6.52 1.22 13.75 4.18 19.77a1.49 1.49 0 001.67.67v1.11c-.54-.42-1.07-.84-1.61-1.28-4.08-3.35-7.9-7.36-12.42-10.12a1.89 1.89 0 00-2.56 2.57c5.61 9.2 17.52 20 28.06 22.91 3.29.92 5.46-3.91 2.42-5.57 1.94-7 4-13.93 5.76-21a48.14 48.14 0 001.79-9.19 193.33 193.33 0 0110.59 20c1.18 2.64 4.58 1.81 6 0 5.16-6.8 10.1-13.78 17.29-18.25 2.18 11.42 1.8 23.08 2.49 34.69.14 2.43.3 4.88.45 7.33a3.06 3.06 0 00-.28 1.76c0 .31.11.6.17.9h-.05l.09.22c.08.46.16.91.28 1.36q.15 3.36.14 6.72a3.16 3.16 0 00-.44 1.2 34.2 34.2 0 00-2.41 7.57c-.31 1.36-.62 2.78-.81 4.21-1.78 4.07-1.89 9-2.69 13.31a71 71 0 01-6.01 18.81c-6.57 13.19-17 9.51-27.57 5-6.16-6.49-20.86-9.54-27.91-11.14-16.45-3.72-32.62-7-48.44-13-15-5.73-29-13.3-41.27-23.75l-4.1-3.51c-4.12-4.34-7.88-9.06-11.59-13.73-3.86-4.86-8.13-9.28-11.82-14 0-.11-.11-.2-.15-.3a2.15 2.15 0 00-.86-1q-1.51-2-2.84-4.18a34.1 34.1 0 01-1.88-6.84 1.77 1.77 0 00-2-1.42c-.2-.62-.39-1.25-.56-1.89 1.07-1.58.37-4.32-2.12-4.32s-3.27 3.07-1.93 4.58v.79a1.88 1.88 0 00-1.08 1.3c-3.22 14.5 8.18 30.41 15.77 42.61.11.77.2 1.54.26 2.29.53 6.36-2.69 17.16-10.3 17.69a135.35 135.35 0 01-16.72-5.07c-22.74-8.48-47.1-25.41-61.6-45-14-18.94-27.72-42.72-31.43-66.11-.32-2-3.65-2-4 0-2.43 12.92 3.41 25.18 9 36.47 6.3 12.64 12.92 25.91 22 36.86 18.4 22.26 44.76 39.65 72.07 48.67 13 4.29 25.76 4.5 39.21 5.54 6 .47 15.93 2.76 21.24-1.64a56.78 56.78 0 007.08 2.41c4.6 1.29 12.9 3.73 18 1.7a217.51 217.51 0 0035.3 10.25c8.14 1.64 16.43 3.08 24.21 6.06 3 1.16 6.25 2.94 9.55 4.4 12 8.12 29.73 10.79 39.41-.37 5.16-5.95 7.77-14.36 9.16-21.95.48-2.66 1.07-5.73 1.35-8.82a3.39 3.39 0 001.63-.47c7.6-4.41 18.83-3.21 28.13-.45 2.53 1.84 5.07 3.63 7.54 5.44a2.55 2.55 0 003.91-.82c9.44 5.1 17 12.89 27.63 16a3.11 3.11 0 004.06-2.16 36.16 36.16 0 004.89 1.27c5.9 1 12.45-.25 18.27-1.36 8.47-1.61 21.89-6.7 22.86-16.55a1.9 1.9 0 00-2.43-1.84zm-257.78 2.45a5.94 5.94 0 000-1.46c1.82 1 3.68 2 5.58 3-1.88-.43-3.74-.93-5.58-1.54z" transform="translate(-43.79 -84.75)"/><path class="cls-8" d="M458.91 273.87c-3.76-4.05-8.71-6.7-13.26-9.75-5.84-3.9-10.35-8.64-15.39-13.39-.38-.36-1.17-.16-1.16.43a39.5 39.5 0 01-2.05-1.77 2.62 2.62 0 00-3.12-.4c-3.88 2.21-9.56 7.24-9.3 12.31-3.58 3.39-16.38-13.32-19.85-15.13a2.71 2.71 0 00-3.67 1c-2.29 4-5.69 6.65-8.74 9.88a2.21 2.21 0 00-2.55.58c-4 4.76-7.45 9.18-13.89 7.69a2.78 2.78 0 00-.69-1.34c-3-3.11-4.95-7-8.87-9.19a2.22 2.22 0 00-3.25 1.32c-.72 3.52-1.43 7.05-2.36 10.52-.07.24-.13.51-.19.76a16.44 16.44 0 00-1 1.73 2.42 2.42 0 00.07 2.37c-.23 1-.49 1.94-.78 2.89a11.91 11.91 0 00-2.49 4.84c-.17.7.74 1.34 1.28.74a38.49 38.49 0 003.28-4.41 15.55 15.55 0 001.07-1.33 1.49 1.49 0 001.86 1.18 15.88 15.88 0 005.46-3.92 2.7 2.7 0 004.55.15 10.15 10.15 0 001.09-2.28c4.43 2.79 9.79 1.23 13.83-2.1a25.76 25.76 0 01-2.22 7.69c-1.69 3.53-5.09 6.21-3.93 10.41a1.81 1.81 0 003 .79 30.78 30.78 0 006.36-10.32 38.61 38.61 0 001.84-9.86l.8.67a64.42 64.42 0 005.29 3.86c2.88 1.83 5.43-2.66 2.65-4.54-1.49-1-3.08-1.81-4.63-2.7-.78-.45-1.57-.85-2.36-1.26-.33-.17-1-.44-1.5-.65v-.63c4.11-1.3 7.52-4.79 10.05-8.42 6.11 5.23 15.5 18.86 22.32 15.29a13.85 13.85 0 004 5.64c2.77 2.34 6.69-1.41 4-4a10.42 10.42 0 01-3.68-8 3.23 3.23 0 00-.81-1.88 20.84 20.84 0 014.86-4.88 43.25 43.25 0 0010.8 7.65c1.49 1.38 3.07 2.65 4.53 3.78 5.3 4.1 11 8 17.36 10.28 1.42.46 2.26-1.36 1.39-2.3zm-38.77 45.32c-3.58.77-6.07 4.25-8.6 6.7-3.88 3.77-8.82 8.05-14.47 8.39-6.37.39-9.13-9.61-10.23-14.22-1.44-6.06-.91-12.69-.7-18.87a.9.9 0 00-1.53-.63c-2.67 3.07-4.2 7.62-4.64 12.56a.77.77 0 00-.39 0c-7 2.59-3.6 15.09 1.3 18.37a1.37 1.37 0 002.08-.91c2.06 4.28 5.12 7.73 9.15 9.34 6.48 2.57 12.77-.4 18.08-4.19 4.56-3.25 11.86-8.62 12.56-14.58.17-1.38-1.43-2.21-2.61-1.96zm-40.28-4a35.94 35.94 0 001.49 11.25c-1.56-3.54-3.02-8.34-1.49-11.23z" transform="translate(-43.79 -84.75)"/><path class="cls-8" d="M380 336c-1.28-3-4-5.45-5.73-8.18s-4.32-7.53-2-10.56a.9.9 0 00-.87-1.49c-9.62 2.65.2 22.16 7.5 22.09A1.26 1.26 0 00380 336zm113.4 6.59a1.69 1.69 0 00-2.49-1c-2.88 1.58-4.36 4.82-6 7.63-2.73 4.69-6 8.92-10.62 11.67-12.63 7.5-17.3-9.46-17.64-18.74 0-.34-.43-.69-.74-.44-4.26 3.4-4.21 9.41-2.84 14.38 1.94 7.08 7.27 11.29 14.1 12.41s12.91-2.91 17.48-7.84c4.02-4.39 9.61-11.74 8.75-18.07zm.9 16.41c-5-.26-8 6.57-11.59 9.19a1.16 1.16 0 00-1.24 1.71c.26.42.25.77.93 1.2a2.6 2.6 0 001.75.44 9.25 9.25 0 004.58-2.3c2.82-2.21 5.76-5.28 6.74-8.7a1.24 1.24 0 00-1.17-1.54zm-1.53 8.72c-1.86.94-3.28 2.9-4.82 4.28a23.88 23.88 0 01-5.4 3.18c-1.42.73-.81 2.55.4 3 2.38 1 5.13-.12 7.13-1.46s4.76-3.55 5.84-5.89a2.32 2.32 0 00-3.15-3.11zm-50.84 11.39c-4.05 1-7.33 3.26-11.54 3.76-5.54.65-11.47-2.11-16.26-4.49-7-3.48-12.86-6.38-17.34-13a.74.74 0 00-1.28 0c-8.27 13.09 39 35.91 48.82 16.9a2.15 2.15 0 00-2.4-3.17zM342.52 287c-3.84 7-6.91 14.37-10.58 21.49-2.57 5-5.54 9.86-4.71 15.61.13.86 1.28.63 1.52 0 4.84-12.6 13.47-22.61 15.72-36.28.18-1.1-1.33-1.93-1.95-.82z" transform="translate(-43.79 -84.75)"/><path class="cls-8" d="M519.12 419.17c-3.18 1.71-5.32 4.89-7.44 7.72a56.78 56.78 0 00-3.37 5.09 16 16 0 00-1-4.15 2.26 2.26 0 00-3.71-1 25.82 25.82 0 01-7.53 4.75 1 1 0 00-.62-.53c-1.53-.5-3.33 0-4.93-.23h-.13a1 1 0 00-.23-1.34c-9.87-7-20.53-13-30.57-19.85-10.4-7-23.51-9.61-33.14-17.91a.49.49 0 00-.73.09 155.11 155.11 0 00-17.6-7.09c-5.87-2-11.81-5.74-18-6.81v-.07a13.08 13.08 0 01-.83-5.77 2.24 2.24 0 00-2.22-2.21 25.47 25.47 0 00-7.68 1.06 60.66 60.66 0 001.67-10.66 2.19 2.19 0 00-2.17-2.16 30.68 30.68 0 00-9.32.83c.43-.68.85-1.37 1.24-2.1a2.23 2.23 0 00-2.5-3.25c-3.5 1-7 1.93-10.53 2.93a.77.77 0 00-.88-.56 20.81 20.81 0 00-5.76 2.23c-1.89.95-4 1.37-5.87 2.23a2.19 2.19 0 00-.85-.52c-8.13-2.85-14.34-10.41-22.63-12.89a.55.55 0 00-.68.68c1.32 3.67 6 6.47 9 8.64 4 2.88 8.37 6.21 13.07 7.88a1.84 1.84 0 002.34-.8c5.79 1 12.63-1.71 18.67-3.85-.27.48-.53 1-.79 1.47a2.12 2.12 0 002.37 3.08 50.66 50.66 0 0110.69-1.76 90 90 0 01-2.46 11.87 2.24 2.24 0 003.26 2.5 16.76 16.76 0 017.66-2.4 18.27 18.27 0 00.59 3.7.77.77 0 00.22 1.12l.19.12a2.2 2.2 0 002.16 1.29c11.58 6.9 24.58 11 37.8 13.3a1 1 0 001-.42c9.14 8.65 20 13.3 30.37 20.31 6.85 4.62 13.55 10.45 21.09 14.08 2.23 3.68 10.66 13.19 15.66 9.92a3 3 0 00.26-.22q.48-.06.93-.15a20.27 20.27 0 008.67-4.11 21.12 21.12 0 00.73 5.92c-1.37 3.75 4.66 5.35 5.15 1.06.94-8.1 8.82-12.34 11.21-19.66a1.25 1.25 0 00-1.83-1.4z" transform="translate(-43.79 -84.75)"/><path d="M498.69 283c0-1.83-2.23-3.36-3.88-2.22s-3.28 2.54-5 3.69c-3.08-2.79-3.13-9-4.62-12.51a2.07 2.07 0 00-2.35-1 5.42 5.42 0 00-3 1.81 20.67 20.67 0 00-2.79 2.82 13.93 13.93 0 01-1.14 1.16 3.94 3.94 0 00-.67.08 6.77 6.77 0 01-1.24.17 4.94 4.94 0 01-.94-.1c.93-2 .55-4.38.52-6.69 0-.63 0-1.23-.06-1.85a8.76 8.76 0 00-.33-7.51 2.58 2.58 0 000-3c-2.79-4.27-5.58-9.15-10.85-10.43a2.94 2.94 0 00-3.43 4 13.7 13.7 0 00-3.4 2c-4.28 3.38-7.13 6.3-11.88 1.4-3.18-3.27-6-6.87-9.13-10.25a2.86 2.86 0 00-4 0c-.88.94-1.75 1.88-2.63 2.81-3.06 3.27 2.65 6.13 4.25 3.49 3.7 5.09 8.47 12.14 14 13.93 5.91 1.9 9-3.21 12.79-5.51a2.63 2.63 0 001 .1h1l3.81 1c2.56 1.48 3.53 4.4 4.88 7.8v.52c0 2.12-.41 4.55 0 6.67-.37.8-.61 1.64-.95 2.49a2 2 0 00.54 2 6.86 6.86 0 003.57 1.72 1.43 1.43 0 00.21.12c4.06 1.63 6.22-1.91 8.82-4.32a28.49 28.49 0 002.84 8.73c.9 1.67 3 4 5.1 4a4.08 4.08 0 001.61-.41 11.09 11.09 0 003.43 2.82 2.65 2.65 0 003.94-2.27c0-2.4-.02-4.82-.02-7.26zm14.13-3a2.46 2.46 0 00-3.51-1.43c-1.33.57-1.79 2.21-2.39 3.4a49.15 49.15 0 01-2.55 4.39 30.58 30.58 0 01-2.79 3.62c-.76.88-.93.71-1.76 1a1.79 1.79 0 00-1.28 1.69 3 3 0 003.94 2.46 10.08 10.08 0 004.74-3.64 44 44 0 003.74-5.69c.87-1.48 2.62-3.94 1.86-5.8z" transform="translate(-43.79 -84.75)" fill="#18aaaa" fill-rule="evenodd"/><path class="cls-10" d="M106.55 334.68c2-.89 3.59-1.54 5.12-2.23.49-.22.91-.61 1.41-.78 4.38-1.44 8.81-2.74 13.5-2.47 2.18.13 3 1.58 1.94 3.59-1.42 2.64-3 5.2-4.67 7.71a17.76 17.76 0 00-2.35 4.19 10.88 10.88 0 01-1.35 2.54c-1.92 2.85-3.36 6-5.8 8.51a8.43 8.43 0 00-1 2.22c.77.08 1.26.17 1.75.17 3.23 0 6.46.14 9.68-.05 2.86-.16 5.5.71 8.2 1.29 1.05.23 2.07.55 3.1.82a3.38 3.38 0 012.57 2.62 8.56 8.56 0 010 3.19 3.25 3.25 0 01-1.1 1.49c-.47.42-1.33.57-1.57 1.06-1.11 2.25-3.38 3.22-5 4.87-1.36 1.37-2.59 2.87-3.86 4.32-.92 1.05-1.82 2.12-2.71 3.2-.53.64-1.23 1.23-.93 2.37.7 0 1.43.12 2.16.12 3.44 0 6.88.07 10.32 0 2.24-.08 4.2.81 6.24 1.42a1.87 1.87 0 011.2 1.77 8.84 8.84 0 01-2.18 6.21 2.93 2.93 0 01-.68.68c-2.17 1.3-3.62 3.3-5.13 5.24s-3.23 4-4.77 6a16.73 16.73 0 00-1.29 2.42c.48.91 1.21.6 1.78.6 5.27 0 10.54-.07 15.81-.08a27.89 27.89 0 013.54.18 1.7 1.7 0 011.36 2.41 2 2 0 01-.27.58c-2.26 3.05-2.77 7-5 10a5.59 5.59 0 00-.64 1.8c-.39 1.34-.75 2.68-1.15 4a3 3 0 00.59 3c2 2.39 3.8 4.95 6.59 6.55a6.48 6.48 0 011.5 1.21 18.7 18.7 0 006.42 4.75 9.71 9.71 0 011.54 1.16c1 .67 1.92 1.34 2.93 1.95 1.56.94 3.15 1.83 4.74 2.72a8.6 8.6 0 001.44.68c.48.17 1 .24 1.93.45a17.36 17.36 0 00-3.25-4.67 22.61 22.61 0 01-3.92-4.67 13.66 13.66 0 00-2.62-2.82 4.67 4.67 0 01-1.58-3.73v-3.86a2.42 2.42 0 011.82-2.37 24.37 24.37 0 003.5-1.58c1.8-.94 3.55-2 5.35-2.93a23.08 23.08 0 005.45-3.36 28 28 0 014.18-2.73c-.54-.45-.83-.72-1.15-1a30.86 30.86 0 01-2.56-1.9c-1.5-1.39-2.87-2.92-4.37-4.31-1-.94-2.15-1.75-3.23-2.62l-1.75-1.41-3-2.42c-.33-.27-.78-.47-1-.81a11.73 11.73 0 00-3-2.87 6.8 6.8 0 01-2.41-5.1 2.7 2.7 0 011.64-2.86 19.47 19.47 0 013.6-1.29 50.25 50.25 0 007-2.3c3.72-1.4 7.42-2.84 11.09-4.36 2.18-.9 4.28-2 6.42-3l2.16-1a13.68 13.68 0 00-1.33-1.39c-.76-.59-1.65-1-2.37-1.67-3.3-2.89-6.56-5.85-9.86-8.75-1-.92-2.2-1.71-3.23-2.63-1.51-1.35-3-2.72-4.38-4.2a3.75 3.75 0 01-.7-2.07c-.46-4 .2-5.09 4.05-6.46a95.46 95.46 0 019.28-2.5c2.91-.7 5.69-1.91 8.53-2.9A6.69 6.69 0 01193 346c2.08 0 3.43-.94 4.43-2.93-.32-.46-.71-1.07-1.14-1.65-1-1.38-2.09-2.73-3.1-4.12q-6.69-9.09-13.34-18.21a8.09 8.09 0 01-1.89-4c-.2-2 .41-3.23 2.33-3.65 5.69-1.25 11-3.6 16.56-5.32a116.9 116.9 0 0114.44-3.28c1.37-.24 2.73-.56 4.28-.89a4 4 0 00-.42-1.22c-3.8-4.55-7.06-9.48-10.4-14.36-1.51-2.22-3.15-4.36-4.71-6.54a9.44 9.44 0 01-1.19-1.9c-1-2.69.24-5.78 3.15-6.28 1.91-.32 3.8-.71 5.69-1.11a151.48 151.48 0 0020.63-6.29 3.45 3.45 0 00.77-.56 69.32 69.32 0 00-4.68-5.78c-4-4-7.35-8.68-11.59-12.52a22.14 22.14 0 01-2.93-3.81 3.77 3.77 0 012.22-5.87 38.46 38.46 0 006-2.32c6-3.06 12.37-4.87 18.77-6.71 2.27-.65 4.52-1.33 7-2a5.47 5.47 0 00-2.5-2.51 30.72 30.72 0 01-6.58-5.12c-3.39-3.13-7-6.06-10.44-9.09a11.56 11.56 0 01-1.83-1.8 9.74 9.74 0 00-2.48-2.48c-1.75-1.17-2.57-3.13-3.79-4.74-.81-1.06-.57-2.49-.21-3.75a2.07 2.07 0 011.88-1.55c5.58-.52 10.88-2.35 16.32-3.52 1.89-.4 3.81-.63 5.72-.92l8-1.21c1.05-.15 2.1-.3 3.16-.43s1.92-.22 2.88-.29 1.64-.07 2.8-.11a17.1 17.1 0 00-2.35-3.69 8.9 8.9 0 01-1.37-1.78c-2.28-4.74-5.37-9-7.26-14-1.63-4.3-3.85-8.38-5.73-12.6a66.41 66.41 0 01-2.67-6.9 10.58 10.58 0 01-.3-3.81 2.18 2.18 0 013-1.93c7.47 2.78 15.33 4 23 6.12 3 .82 6 1.8 8.89 2.83a7.44 7.44 0 003.52.58c0-.54.11-1.07.11-1.59q0-8.23-.12-16.45a11.45 11.45 0 00-.19-2.88c-1.67-6.22-1.31-12.57-1.37-18.91 0-2.15 1.46-3.24 2.78-4.45a2 2 0 011.53-.3 13.34 13.34 0 013.68 1.06c3.12 1.66 6.15 3.51 9.21 5.29a3.37 3.37 0 01.8.53c2 2.15 4.62 3.48 7.12 4.95 1.19.7 2.22 1.69 3.36 2.48 2.63 1.8 4.81 4.28 8 5.36 1.76-1.28 2.45-3.22 3.3-5 1.41-3 2.7-6.06 4.12-9.06s2.85-5.78 4.3-8.66a13 13 0 011.11-2 16.91 16.91 0 002.53-5.19 12.49 12.49 0 012.48-4.45 40.34 40.34 0 003.32-5.11c.22-.36.3-.81.53-1.17a3 3 0 014.69-.76 25.3 25.3 0 013.22 3.16c1.37 1.65 2.58 3.42 3.86 5.13.57.77 1.15 1.54 1.74 2.3.26.35.68.64.77 1 .57 2.43 2.47 4 3.78 5.92 2.22 3.29 4.39 6.62 6.75 9.82 1.39 1.88 3.11 3.53 4.61 5.2a7.3 7.3 0 001.11.15q4.33-.15 8.67-.35l6.43-.36a3.14 3.14 0 011 0c4.21 1.23 8.53.52 12.8.71 2.35.1 4.74-.28 7 .79 2.84 0 5.47 1 8.19 1.64 4.8 1.08 9.62 2.13 13.95 4.66a8.21 8.21 0 002.06.9 21.32 21.32 0 017.16 3.54c4.82 3.45 10.08 6.14 15.22 9a82.11 82.11 0 0113 9 47.74 47.74 0 0113.93 20.59 145.67 145.67 0 016.3 24.63 149.07 149.07 0 012.14 26c0 3.12 0 6.23.06 9.35a25.69 25.69 0 01-.78 6.7c-.7 2.8-1.27 5.62-2 8.75a26.76 26.76 0 013.31-.5c3.23-.07 6.45-.15 9.67 0a8 8 0 016.09 2.51 17.57 17.57 0 002 1.54 34.84 34.84 0 012.81 2.62c1.08 1.18 2.08 2.44 3.06 3.71s2 2.76 3 4.16 1.71 2.73 2.73 4a9.94 9.94 0 012.49 6.45c0 2.25.12 4.5.19 6.9 1 .57 2 1.17 3.05 1.71q10.3 5.32 20.64 10.63a174.91 174.91 0 0120 12.41c2.82 2 5.63 4 8.39 6q2.46 1.83 4.76 3.86a8.69 8.69 0 012.7 4.31c.58 2.25.32 4.25-1.61 5.83-4.16 3.42-6.85 7.95-9.38 12.59a168.61 168.61 0 00-9.74 22.11c-5.29 14.31-11 28.46-16.65 42.63-.67 1.69-1.43 3.36-2.13 5-.28.69-.5 1.41-.76 2.11a11.52 11.52 0 01-1 2.64 16.25 16.25 0 00-2.22 5 12.42 12.42 0 01-2.06 4c-.88 1.21-1.62 2.52-2.45 3.77-1 1.43-1.94 2.84-2.9 4.27-1.6 2.42-3.17 4.85-4.78 7.26-.83 1.25-1.66 2.49-2.57 3.68a10.9 10.9 0 00-2.1 4.29 8.74 8.74 0 01-4.82 6.38c-.38.18-.74.4-1.08.59v8.13a15 15 0 00.22 1.8c2.24-.95 3.82-2.58 5.75-3.63s3.9-2.27 5.81-3.48 3.71-2.49 5.5-3.7c1.4.92 1.31 2.17 1.17 3.31a73 73 0 01-1.25 7.95c-1.92 7.93-4 15.84-6 23.73s-4.25 15.55-6.26 23.35a118.25 118.25 0 01-6.74 18.44c-1.14 2.55-2.31 5.09-3.39 7.66a23.88 23.88 0 01-8.37 10.08c-4.22 3.07-8.71 5.45-14 6.24-3.71.56-7.37 1.46-11.08 2.07a45.36 45.36 0 01-4.82.23c-9.62.54-18.49-2.26-27-6.29-5.05-2.39-10-5-14.89-7.69a65.91 65.91 0 00-24.6-8.24c-5.52-.63-11.14-.75-16.79 1.07 0 2.19-.07 4.32 0 6.46a31.59 31.59 0 01-2.2 11.61q-1.59 4.39-3.13 8.81a4.65 4.65 0 01-1.66 2.6c-1 .71-1.45 2.07-2.15 3.14a18.72 18.72 0 01-8 6.62 19.51 19.51 0 01-10 1.68 21.31 21.31 0 00-2.26-.05 10.11 10.11 0 01-5-1c-2.22-1-4.7-1.53-6.73-3-.34-.25-.84-.34-1.09-.65-1.78-2.19-4.31-2.7-6.87-3.14-.32-.06-.63-.15-1.1-.27a4.34 4.34 0 00-3.34-2.41c-1.78-.29-3.53-.73-5.35-.93a41.29 41.29 0 01-5.63-1.3c-.42-.1-.8-.34-1.22-.41-2.42-.41-4.85-.74-7.26-1.18a25.91 25.91 0 01-3.1-.86c-3.89-1.17-7.64-2.75-11.79-3.14-2.63-.25-5.19-1.31-7.78-2q-6.34-1.8-12.68-3.67a18.1 18.1 0 01-3.63-1.33 34.6 34.6 0 00-7.89-2.72c-1.86-.49-3.67-1.18-5.49-1.82q-3.5-1.22-7-2.51c-1.1-.41-2.19-.88-3.27-1.33s-2.17-.93-3.27-1.36a2.28 2.28 0 00-2.41.37c-.92.75-2 1.32-2.84 2.11a5 5 0 01-3.54 1.25h-4.84a20.76 20.76 0 00-5.43.56 15.79 15.79 0 01-3.84.37c-2.68.06-5.37 0-8.06.05-3 0-6-.45-9-.63-4.35-.24-8.41-1.67-12.62-2.34-6.6-1-13-2.79-19.49-4.38a18 18 0 01-3.62-1.3C154.4 524 144 518.28 133.73 512.13A104.56 104.56 0 01118.32 501c-3.3-2.91-6.58-5.86-9.87-8.78a69.06 69.06 0 01-5.68-6.15c-5.25-6-9.41-12.8-13.6-19.56a65.81 65.81 0 00-4.17-6.08 14.52 14.52 0 01-2.71-5.08 22.2 22.2 0 00-2.12-5 55.37 55.37 0 01-7-19.58c-.33-2.24-.79-4.45-1.07-6.69a57.62 57.62 0 01-.59-7.05c0-8.82.07-17.63.13-26.45a21.46 21.46 0 01.18-2.89c.88-5.63 1.6-11.29 2.76-16.86a89.29 89.29 0 014.59-14.75c1.3-3.3 2.57-6.61 3.85-9.91.12-.3.21-.61.35-.9 2.21-4.66 4.23-9.42 6.68-13.94 3-5.48 6.31-10.75 9.45-16.13 1.11-1.89 2.38-3.55 4.56-4.33.57-.21.94-.9 1.51-1.17a5.09 5.09 0 012.11-.58 2.09 2.09 0 012 2.38 5.41 5.41 0 01-.33 1.24c-.18.5-.45 1-.65 1.47a26.57 26.57 0 00-2.31 9.64c-.07 3.41.11 6.82.16 10.83zm-3.11-17c-1.4.6-1.83 2-2.49 3.15-2.74 4.75-5.36 9.56-8 14.36-.41.75-.73 1.56-1.08 2.34-1 2.35-2.12 4.7-3.14 7.07-.6 1.37-1.13 2.78-1.68 4.18-1 2.5-1.92 5-2.88 7.51-.66 1.71-1.35 3.4-2 5.12a96.79 96.79 0 00-4.59 20.39 94 94 0 00-1.2 14.43c.18 6.66.1 13.33 0 20a40.72 40.72 0 00.62 7.06c.39 2.32.82 4.65 1.2 7a50.6 50.6 0 006.44 17.43 24.72 24.72 0 012.45 5.58 12.82 12.82 0 002.26 4.23c1.49 2 2.92 4 4.22 6.08 4.2 6.76 8.42 13.49 13.62 19.56a59 59 0 007.31 7.26c1.82 1.5 3.53 3.13 5.29 4.71.8.71 1.53 1.53 2.39 2.16 4.6 3.36 9 7 13.89 9.94q15.26 9.34 31.39 17.15a8.63 8.63 0 001.78.75c6.17 1.4 12.19 3.51 18.52 4.23a19.45 19.45 0 013.79.77 26.79 26.79 0 008.81 1.68 17.36 17.36 0 012.23.32c1.71.17 3.41.38 5.13.46s3.44 0 5.16 0c3.43 0 6.88.29 10.25-.73a7.92 7.92 0 012.24-.11c1.51 0 3-.06 4.52 0a6 6 0 004.16-1.48c-.21-.31-.33-.66-.57-.82-3.28-2.22-6.5-4.53-9.91-6.54a11.1 11.1 0 01-4-3.53 14.13 14.13 0 00-3-3.68 11.24 11.24 0 01-3.26-3.47 8.15 8.15 0 00-1.69-1.93c-2.89-2.57-4.84-6-8.06-8.29a4.93 4.93 0 01-.81-1q-1.63-2-3.28-4a24.87 24.87 0 01-4-6.5 13.53 13.53 0 00-2.6-4c-2.21-2.5-4.18-5.2-4.37-8.76a6 6 0 00-2.35-4.43 5.61 5.61 0 01-1.72-2.64 42.43 42.43 0 01-2.22-8.72 5.44 5.44 0 00-3.95-4.61 74.57 74.57 0 01-12.98-6.36c-2.77-1.63-5.82-2.8-8.13-5.14a18.63 18.63 0 01-6.61-5 5.85 5.85 0 00-1.23-1 22.88 22.88 0 01-6.42-6.25 14.44 14.44 0 00-3.41-3.39 8.92 8.92 0 01-2.21-2.29 26.11 26.11 0 00-6-6.21 11.58 11.58 0 01-2.05-2c-2-2.37-4-4.81-6-7.14a13.13 13.13 0 01-2.55-4.42c-2.7-7.6-5.48-15.16-8.15-22.76a33.09 33.09 0 01-1.35-5.29 133.46 133.46 0 00-3-13.86c-.57-2-1-3.95-1.47-5.95a164.35 164.35 0 01-2.7-19.21c-.2-2.14-.58-4.27-.61-6.42-.09-5.69 0-11.38 0-17.07l.42-.32-.35-.17zM308 462.4a65.49 65.49 0 003.28 13.54c.35.89 1.07 1.9.89 2.7-.47 2.1.51 3.76 1.12 5.56.54 1.63 1.14 3.24 1.62 4.89 1.14 3.92 2.23 7.85 3.31 11.79.22.82.31 1.68.45 2.53a43.12 43.12 0 001.87 8.11 35.71 35.71 0 011.42 5.92 1.57 1.57 0 01-2.33 1.63 2.89 2.89 0 01-2-2.68 12 12 0 00-1.21-4.31 8.21 8.21 0 01-.66-1.81c-.37-2.32-.65-4.65-1-7-.09-.64-.25-1.26-.4-1.89-.64-2.61-1.34-5.2-1.92-7.82-.86-3.89-1.71-7.77-3.61-11.32a10.26 10.26 0 01-.78-2.11c-1.2-4.23-2.52-8.42-3.49-12.73a59.83 59.83 0 00-2.25-9 2.52 2.52 0 01.64-3 3.08 3.08 0 013.33-.26 11.58 11.58 0 011.49 1.23 10.92 10.92 0 002 1.65 17 17 0 014 3.23c1.22 1.21 2.43 2.43 3.67 3.62a5.56 5.56 0 00.95.57c.21-.23.33-.29.34-.37.05-.42.1-.85.12-1.28.23-3.89-.42-7.71-.87-11.55-.41-3.4-1.37-6.72-1.31-10.2a5.72 5.72 0 00-1.43-3.86 54.18 54.18 0 01-6.47-9.55 50.21 50.21 0 00-4-5.85c-2.54-3.33-5.18-6.59-7.81-9.86a15.24 15.24 0 00-2.17-2.36 121.91 121.91 0 00-13.45-10c-5.52-3.33-11.54-5.15-17.68-6.7a36.91 36.91 0 01-5.5-1.73 12.55 12.55 0 00-8.47-1 8.65 8.65 0 01-2.54.28c-4.4-.13-8.81-.44-13.2-.43-3.14 0-6.22.55-8.57 3a2.9 2.9 0 01-1.05.72.92.92 0 01-.87-.18c-.22-.3-.46-.92-.31-1.1 1-1.24 1.89-2.79 3.21-3.52 2.52-1.38 5.17-2.67 8.18-2.71l11-.14c.5 0 1.09.16 1.3-.56a1.11 1.11 0 00-.09-.31c-2-3.29-4-6.6-6.11-9.85s-4.36-6.63-6.54-9.94a12.69 12.69 0 01-1-1.64 1.93 1.93 0 013.09-2.26 2.45 2.45 0 01.46.45 30 30 0 014.18 5.7 22.15 22.15 0 001.7 2.73c2.27 3.4 4.56 6.77 6.83 10.16 1.37 2.05 2.71 4.11 4 6 2.07.32 3.86.64 5.67.89a66 66 0 0114.4 3.37c1.91.71 4 1.09 5.75 2.06a85.3 85.3 0 0112.06 7.43c8 6.3 8 6.3 14.35 14.22 1.15 1.43 2.26 2.88 3.44 4.27a51.2 51.2 0 015.93 9.2c.71 1.33 1.32 2.71 2.06 4a12.23 12.23 0 002.29 3.44c2.5-1.14 4.94-2.24 7.35-3.37a17.33 17.33 0 004.58-2.93c1.88-1.74 4-3.24 6-4.81.85-.66 1.76-1.23 2.62-1.86 3.26-2.43 5.91-5.64 9.62-7.5.35-.18.58-.62.88-.92a5.75 5.75 0 011.36-1.34c2.72-1.37 4.83-3.58 7.36-5.2a11.47 11.47 0 004-3.61 3.91 3.91 0 011.38-1.33 40.86 40.86 0 008.65-7.18 5.6 5.6 0 011-.82c3.3-2.06 4.83-5.38 6.06-8.82a58 58 0 001.86-7.14 4.18 4.18 0 00-.37-3.44c-1.24.38-2.39.64-3.46 1.09a13.15 13.15 0 00-1.86 1.25c-1.61 1-3.23 2.1-4.88 3.08a2.75 2.75 0 01-4.14-2 4.87 4.87 0 01.8-3.38 17.46 17.46 0 002.12-4.31 6.93 6.93 0 01.91-1.69 17.85 17.85 0 002.16-6.15 2.69 2.69 0 00-.93-.05 37 37 0 00-8.52 3.59 12.72 12.72 0 01-2.57 1l-3-2.5c1.2-2 2.37-3.88 3.55-5.79.27-.45.63-.9 0-1.44-1.32.57-2.72 1.07-4 1.75-2.47 1.27-5.14 2.1-7.48 3.67a36.48 36.48 0 01-4 2 6.21 6.21 0 00-1.9 1.09 27.28 27.28 0 01-4.78 3.79c-2.28 1.61-4.5 3.29-6.76 4.94-.86.63-1.7 1.31-2.62 1.86-2.59 1.54-5.22 3-7.8 4.53a17.86 17.86 0 00-3.71 2.53 9.52 9.52 0 01-7.79 3.09c-.21 0-.42-.06-1-.15-1.13-1-2.53-2.16-3.79-3.44a49.52 49.52 0 01-3.37-3.86c-1.69-2.07-3.38-4.14-4.94-6.31-1.18-1.65-2-3.56-3.26-5.16a34.36 34.36 0 01-4.6-7.7 23.93 23.93 0 00-1.38-2.54c-1.95-3.34-4.1-6.58-5.81-10-2.56-5.2-4.87-10.53-7.17-15.85-1.07-2.46-1.89-5-2.73-7.57a23.79 23.79 0 00-1.58-3.85 36.87 36.87 0 01-1.9-4.78 1.81 1.81 0 01-.06-1.25 3.26 3.26 0 011.16-1.4c.63-.37 1.25 0 1.67.57a10.15 10.15 0 01.82 1.39c.87 1.6 1.75 3.19 2.6 4.8a18.75 18.75 0 01.88 2.06c.79 2.11 1.49 4.26 2.36 6.33 1.25 3 2.67 5.87 3.94 8.83a76.42 76.42 0 005.85 11.47c1.68 2.62 3.25 5.3 4.86 8 .33.55.59 1.14.89 1.71.63 1.24 1.19 2.52 1.93 3.7.85 1.35 2 2.54 2.77 3.93a73.82 73.82 0 005.44 7.94c1.9 2.5 4.13 4.63 6.22 6.93a3.43 3.43 0 002.44 1.21c1.37-.57 2.68-1.06 3.93-1.66 4-1.93 8-3.68 10.79-7.38a10.21 10.21 0 013.3-2.53c2.69-1.56 5.29-3.27 7.91-4.93.11-.07.09-.34.15-.62-.52-.33-1.06-.68-1.6-1-5.3-3.28-10.62-6.52-15.89-9.85a70.41 70.41 0 01-12-9.73 5 5 0 01-1.63-4.34 5.14 5.14 0 011.34-3.22 30.25 30.25 0 013.63-3.15 15.75 15.75 0 004.23-3.91c4.84-7.36 9.59-14.79 13.69-22.6a44.38 44.38 0 003-6.78 154.39 154.39 0 018.9-21.05c1.21-2.4 2.34-4.84 3.49-7.26a123.38 123.38 0 005.81-14.68 31.19 31.19 0 001.36-6.57c-.73-.76-1.36-1.49-2.07-2.14a2.85 2.85 0 00-3.8-.49 7.32 7.32 0 00-1.54 1.16c-4.75 4.6-8.91 9.63-11.32 15.89-.27.7-.6 1.38-.92 2.06a2.78 2.78 0 01-3.14 1.72 6.87 6.87 0 01-2.67-1 10.38 10.38 0 01-2.39-2.15q-5.34-6.45-10.59-13a4.54 4.54 0 01-.81-1.72 1.52 1.52 0 01.62-1.7 1.47 1.47 0 011.8 0 10 10 0 011.63 1.55c1.41 1.62 2.77 3.29 4.17 4.92 1.8 2.13 3.6 4.27 5.45 6.37a5.92 5.92 0 002.55 2 10 10 0 00.71-1.09 54 54 0 0111.59-15.76 16.92 16.92 0 013-2.43 6.86 6.86 0 018.34.66c.91.77 1.75 1.6 2.6 2.42 2.54 2.47 5.06 5 7.63 7.41a28.85 28.85 0 008.45 5.48c.68-.73 1.46-1.46 2.12-2.29a94.67 94.67 0 0113.93-14.72 23.3 23.3 0 014.84-3.38 20.3 20.3 0 012.57 1.77c2.21 2 4.34 4.15 6.5 6.25 2 1.95 4 3.93 6 5.85a6.27 6.27 0 003.42 2 135.48 135.48 0 0118.66-17.71c3.84.33 6.18 2.34 8.3 4.69.36.39.71.81 1.08 1.2l8 8.42a7.27 7.27 0 003.71 2.17c1.77-2 2.72-4.6 4.72-6.44a42.35 42.35 0 016.35-5.13 8.39 8.39 0 014.14 2.68c1 1.14 2 2.24 3.07 3.31a8.17 8.17 0 001.45.85c.87-6.24 3.33-11.86 3.27-18 0-.32.12-.63.15-1 .17-1.71.41-3.41.46-5.12.08-2.69 0-5.38.07-8.06a152.87 152.87 0 00-2-28.27 135.32 135.32 0 00-5-21.29 43.9 43.9 0 00-15-21.26 108.57 108.57 0 00-14-9.13c-4.6-2.55-9.27-5-13.9-7.46-1.23-.65-2.43-1.36-3.65-2a3 3 0 00-1.14-.53 11.73 11.73 0 01-6-2.22 6.63 6.63 0 00-1.79-.71c-2.48-.65-4.95-1.36-7.46-1.86s-5.13-1.66-7.88-1.53a1.14 1.14 0 01-.61-.18c-1.68-1-3.53-.82-5.35-.81h-6.77a19.5 19.5 0 01-6.7-.68 7.42 7.42 0 00-2.87-.2c-2.68.14-5.38.21-8 .61a69.88 69.88 0 01-12.51.79c-1.29-.05-2.58.06-3.87 0a23.93 23.93 0 00-6.69.83 4.43 4.43 0 01-1.25.29c-3-.12-5.62 1.31-8.5 1.66a18.68 18.68 0 00-3 1 7.59 7.59 0 01-2.48.55 9.4 9.4 0 00-4.59 1.28 7.83 7.83 0 01-3.29 1.19 9.84 9.84 0 00-5.14 1.54 2.56 2.56 0 01-.88.4c-2.52.17-4.62 1.62-7 2.24a10.12 10.12 0 00-2.42.87 52.44 52.44 0 00-10.74 7.62 50.45 50.45 0 01-6.34 5.37 64.75 64.75 0 00-15 14.92 39.58 39.58 0 00-5.43 9.09c-1.7 4.17-3.59 8.27-5.38 12.4a12.48 12.48 0 00-.41 1.22L259 196.74a21.26 21.26 0 01-2.6 5.87 8.35 8.35 0 00-1 2.35q-2.34 7.36-4.62 14.76a8.34 8.34 0 00-.63 2.8 7.16 7.16 0 01-.88 3.06c-.89 2.41-2 4.76-2.82 7.18a31 31 0 00-2.13 9 22.65 22.65 0 01-1.62 7.18 21.92 21.92 0 00-1.51 5.57 16 16 0 01-1.41 4.6c-2.17 5-4.17 10.12-5.9 15.32-1.39 4.17-2.81 8.34-4.47 12.41-2.08 5.07-4.5 10-6.62 15a181.22 181.22 0 01-9.25 19.14c-.58 1-1.13 2.08-1.61 3.16a169.93 169.93 0 00-8.87 25.19c-1.27 4.66-2 9.45-3.38 14.06a7.48 7.48 0 00-.13.95c-.59 3.38-1.2 6.75-3 9.76-.68 1.16-1.25 2.47-.79 3.67.54 1.43 0 2.51-.44 3.69a18.15 18.15 0 00-.81 1.74c-1.17 4.68-2.38 9.36-3.41 14.08-.56 2.52-1.08 5-1.87 7.49a37.14 37.14 0 00-1.16 5c-.48 2.75-.91 5.51-1.27 8.28-.43 3.3-1 6.6-1.1 9.91-.18 5.91-.13 11.83 0 17.74a106.56 106.56 0 001.86 18.26 29.15 29.15 0 002.46 7 24.18 24.18 0 012.13 5.35 11.38 11.38 0 002 4c1.93 2.84 3.71 5.78 5.6 8.65 4 6 7.84 12.09 13.16 17.05a8.57 8.57 0 011.53 1.66 19 19 0 006.45 6.21 85.4 85.4 0 019.08 6.59c1.66 1.35 3.54 2.43 5.25 3.73 4.18 3.17 9.13 4.72 13.85 6.73 2.27 1 4.63 1.7 7 2.51 1.93.67 3.83 1.4 5.8 1.91a38.85 38.85 0 017.89 2.75 32 32 0 004.85 1.7c1.23.39 2.48.68 3.72 1 4.65 1.33 9.29 2.68 13.93 4a4 4 0 001.26.22c2.44-.14 4.63.8 6.89 1.49 3.27 1 6.37 2.62 9.93 2.55a6.65 6.65 0 011.53.46 9.34 9.34 0 002.18.47 11.32 11.32 0 013.41.8 19.55 19.55 0 008.41 1.06c-.33-.7-.63-1.25-.85-1.82a1.11 1.11 0 01.76-1.62 7.57 7.57 0 013.26 2.82 6.79 6.79 0 002.82 2.54 24.53 24.53 0 012.58 1.91c2.18 1.55 4.36 3.1 6.56 4.61a12.2 12.2 0 002.49 1.44c3.63 1.36 7.3 2.5 11.27 2a8.65 8.65 0 011.61 0 5.79 5.79 0 003.1-.69c.75-.42 1.56-.71 2.33-1.1a14.12 14.12 0 006-5.55c1-1.66 1.77-3.43 2.61-5.17a6.8 6.8 0 011.81-2.61 4.73 4.73 0 001.7-4c0-1.4 0-2.8.06-4.19a11.71 11.71 0 01.35-2.85 30.82 30.82 0 001.47-10.79c-.1-2.46-.21-4.94.72-7.32a5 5 0 00.17-1.6c.09-3.22.17-6.45.23-9.67a8.33 8.33 0 00-.11-2.24 14.72 14.72 0 01-.62-6 2.2 2.2 0 00-.24-1.25 8.37 8.37 0 01-.59-4.1v-24.51a19.29 19.29 0 00-.29-4.17 29.83 29.83 0 01-.59-7v-5.81a5.19 5.19 0 00-.27-1.1c-1.34 1.19-2.53 2.24-3.7 3.3a7 7 0 00-.87.94c-2.15 2.8-4.83 5.2-6.3 8.51a3.3 3.3 0 01-.82 1 14.62 14.62 0 00-3.57 6.37c-.3.91-.78 1.76-1.14 2.65a2.4 2.4 0 01-4.36.1 45.85 45.85 0 01-3.26-6.64c-2.24-7-6.08-13.27-9.16-19.88-.19-.41-.48-.71-1-.5-.11.17-.29.32-.32.51a81.61 81.61 0 01-1.36 8.86 28.05 28.05 0 00-.66 6.36 19.8 19.8 0 01-.29 2.87c-.5 2.85-1.37 5.68-1.48 8.54-.09 2.53-1.1 4.78-1.43 7.21A1.81 1.81 0 01332 484c-1.36-1.32-2.79-2.77-4.29-4.15-1.34-1.23-2.74-2.39-4.13-3.57-1-.82-2.05-1.55-3-2.43-1.32-1.27-2.54-2.64-3.81-3.95-.45-.45-.89-1.1-1.44-1.23-1.5-.36-2.27-1.56-3.28-2.49a32.91 32.91 0 00-4.05-3.78zm117.76-211.5c-1.55 1-6.83 5.82-7.38 6.86a2.08 2.08 0 00-.18 1.52 23.21 23.21 0 002.21 5.32c1.2 1.74 1.45 3.79 2.48 5.55a1.33 1.33 0 01-.81 2c-2.54-1.3-2.91-1.57-3.38-2.76-.87-2.18-1.7-4.38-2.57-6.56a7.78 7.78 0 00-.74-1.15l-1.25.36a7.09 7.09 0 01-6.67-1.33 32 32 0 01-2.93-2.51c-2.73-2.74-5.4-5.54-8.11-8.31a10.09 10.09 0 00-3.35-2.77c-2.42 2.66-5.65 4.51-7.71 7.63.64 2.22.13 4.6 1.43 6.65 3.39.68 5.87 2.94 8.56 4.85a1.05 1.05 0 01.26 1.44 1.07 1.07 0 01-1.37.55 13 13 0 01-3.5-1.55c-1.26-1-2.67-1.19-4.31-1.67 0 1.33 0 2.5-.1 3.65a5.86 5.86 0 01-.66 2.43 31.68 31.68 0 01-3.2 4.42 19.3 19.3 0 00-4.27 8.53 3 3 0 01-.4 1.2c-.31.39-.81.86-1.22.85a1.73 1.73 0 01-1.19-.9 5.49 5.49 0 01-.25-4.08 19.25 19.25 0 013.84-7.71c2.21-2.57 3.81-5.42 3.57-9-.11-1.6.11-3.22.15-4.83 0-.39.14-.88-.59-1.13a13.17 13.17 0 00-2.26 2.48c-1.19 1.38-2.35 2.79-3.59 4.14a4.59 4.59 0 01-5.6 1c-.78-.32-1.52-.73-2.3-1.11a11.35 11.35 0 00-2.51 3 27.6 27.6 0 01-2.82 3.49 1.38 1.38 0 01-2.28-.76 2.61 2.61 0 01.61-2.38c1.27-1.57 2.47-3.18 3.7-4.77-3-2.93-5.83-5.8-8.73-8.65-.1-.1-.39 0-.67 0-.12.83-.29 1.67-.36 2.52a39 39 0 01-2.35 10c-1.2 3.22-2.53 6.39-3.93 9.53-3.9 8.72-7.87 17.41-10.92 26.5a48.55 48.55 0 01-4 8.76c-3.53 6.15-7.31 12.15-10.94 18.23A22 22 0 01315 339a4.21 4.21 0 00-1.24 1 11.28 11.28 0 00-.93 1.67 60.77 60.77 0 006.29 5.71A222.62 222.62 0 00342.26 362a5.38 5.38 0 006-.19 34.77 34.77 0 013.8-2.42c3.19-1.53 6.44-2.92 9.69-4.34a7.54 7.54 0 014.13-.26 2.16 2.16 0 011.63 3.17c-.26.58-.77 1.06-1 1.65s-.75 1.53-.15 2.47l7.16-1.95a9.76 9.76 0 011.56-.36 2.44 2.44 0 012.83 2.06 7 7 0 01-.38 4.39c-1 2.12-1.7 4.33-2.6 6.68a16 16 0 005.44-1.12 9.35 9.35 0 012.77-.63c2.48-.08 3.28.73 3.42 3.19.08 1.27.11 2.54.15 3.83.93.46 1.67.88 2.45 1.2 3.89 1.56 7.77 3.14 11.68 4.63 6.33 2.4 12.7 4.67 19 7.12a109.2 109.2 0 0118.39 9.26q8.63 5.37 17.26 10.7c1.09.67 2.28 1.17 3.37 1.83 2 1.23 4 2.54 6 3.8 1.54 1 3.32 1.67 4.62 2.89a28.28 28.28 0 007.48 5 26.53 26.53 0 017.55 5.42 12.51 12.51 0 002.56 1.88c2.13 1.25 4.3 2.41 6.46 3.6a10.74 10.74 0 001.18.48 20.66 20.66 0 016-4.43c1.79-.83 3.15-.2 3.92 1.58a9.39 9.39 0 01.66 2.15c.28 1.79.46 3.61.72 5.42.06.45-.21 1.1.7 1.31a11 11 0 001.28-3.18 14.85 14.85 0 013.54-6.77 7.56 7.56 0 001.14-1.55c3.23-6.09 7.59-11.45 11.23-17.27a12.17 12.17 0 002.22-5.27 13.78 13.78 0 011-3.37c.87-2.31 1.84-4.58 2.68-6.9 1-2.82 1.88-5.71 3-8.52 3.43-8.8 7-17.57 10.41-26.37 3.53-9 7-18 11.34-26.68.27-.57.45-1.18.73-1.9-2.06-1.95-4-4-6.1-5.75-2.73-2.26-5.89-3.95-8.39-6.52a5.8 5.8 0 00-1.65-1c-3.25-1.65-6.46-3.42-9.79-4.9a139.42 139.42 0 01-22.49-13.17 142.1 142.1 0 00-12.81-8.08c-5.94-3.23-12.11-6-18.16-9.06-2.78-1.39-5.58-2.79-8.22-4.43a180 180 0 01-20.14-14.47 197.25 197.25 0 00-18.86-14.06c-.97-.69-1.98-1.3-2.91-1.89zm-39.57 132.58c-.36 1.24-.66 2.37-1 3.47a14.63 14.63 0 01-.89 2.37c-.64 1.23-1.45 2.37-2.1 3.59a19.44 19.44 0 01-4.35 5.93c-1.14 1-2.35 1.87-3.4 2.94a33 33 0 01-5.67 4.73 8.36 8.36 0 00-2.39 2.1 16.91 16.91 0 01-3.77 3.45c-3.09 2.46-6.6 4.38-9.24 7.4a4.61 4.61 0 01-1.58 1.09 13.54 13.54 0 00-3.85 2.87c-1.16 1.1-2.45 2.07-3.69 3.09-2.48 2-5 4.07-7.46 6.09-.5.41-1 .75-1.56 1.12A49.41 49.41 0 01325 439a32.84 32.84 0 00-3.67 2.05c.11.69.15 1.21.26 1.71.3 1.26.74 2.49.93 3.75 1 6.69 2.06 13.38 1.72 20.2a48.57 48.57 0 00.28 5.1c1.44 1.44 2.86 2.91 4.34 4.3a4.91 4.91 0 001.46.64 5.23 5.23 0 00.45-1c.64-3.59.91-7.24 1.86-10.77a2.84 2.84 0 00.08-1c-.47-3.59.71-7 1.13-10.5.21-1.79.95-3.5.89-5.37s1.1-3.65 1-5.65c-.06-1.49 1-2.25 2.47-2.47 2.85-.42 4.89 1.72 5.8 3.71.71 1.56 1.39 3.14 2.13 4.69 2.85 6 6.42 11.68 8.36 18.11.06.22.45.34.57.43 1.23-1.48 2.4-2.85 3.54-4.26a8 8 0 001.08-1.58c1.58-3.37 4.68-5.59 6.57-8.72a1.57 1.57 0 01.73-.62c1.69-.6 2.31-2.16 3.2-3.48a12.86 12.86 0 011.69-2.33 4.57 4.57 0 012.22-1.15 4.08 4.08 0 014.9 3.85c-.05 3.33.06 6.66 0 10a35.28 35.28 0 00.59 6.4 28 28 0 01.45 4.47q.09 13.86.05 27.73c0 1.82-.2 3.63-.3 5.45a2.54 2.54 0 000 .95c1.16 3.34.79 6.81.88 10.23.07 2.78.26 5.58-.53 8.32-.05.14.16.36.26.57a24.87 24.87 0 014.64-1.12 71.23 71.23 0 0111.59-.07 67.82 67.82 0 0124.45 7.69c2.94 1.57 5.82 3.24 8.78 4.78a124.65 124.65 0 0014.33 6.6c8.22 3 16.64 4.19 25.32 2.53 3.48-.67 6.93-1.47 10.4-2.2a19 19 0 007-3c.89-.61 1.77-1.24 2.7-1.76a15.29 15.29 0 006.76-7.93q2-4.77 4.11-9.46a117 117 0 006.86-19.76c1.31-5.09 2.65-10.19 4.11-15.24 2.88-10 5.87-20 8.79-30 .19-.64.8-1.32-.08-2.12-5.17 3-10.43 5.91-14.66 10.32a17.31 17.31 0 01-2.68 2.3 1.25 1.25 0 01-2-.36 40.58 40.58 0 00.95-4.33 43.15 43.15 0 00.13-4.83c0-4.19.06-8.38 0-12.58 0-1.71-.24-3.42-.43-5.13-.06-.47 0-1.11-.89-1.34a13.25 13.25 0 00-4.25 4.09c-3.89 5.14-7.77 10.29-11.54 15.52a36 36 0 00-2.79 5.06c-.71 1.44-1.21 3-1.95 4.41a2.78 2.78 0 01-4.59.55 4.71 4.71 0 01-.76-1.74c-.53-2-.82-4-1.52-5.92-2.22-6.05-4.58-12.05-6.91-18.05-.16-.4-.23-1-1-1-.84 1.61-2.09 3.14-2.44 4.85-.68 3.36-2.27 6.46-2.56 9.94-.17 2-1.08 3.93-1.43 5.94-.95 5.39-1.77 10.8-2.66 16.21-.12.74-.33 1.47-.49 2.2a95.31 95.31 0 00-2.7 20.73v7.73a1.68 1.68 0 01-1.44 1.82 1.74 1.74 0 01-2-1.29 8.75 8.75 0 01-.43-2.2c-.21-6.23-.31-12.47.8-18.65l3-16.81a124.25 124.25 0 012.45-12.32c1.16-4 .93-8.35 3-12.12a7 7 0 00.3-1.57 8.29 8.29 0 01.85-2.36 8 8 0 001.41-3.54 7.85 7.85 0 012.72-4.63 2.42 2.42 0 013.88.47 13.15 13.15 0 011 2c1.89 4.33 3.76 8.67 5.65 13a3.75 3.75 0 001.28 1.89c.15-.92.49-1.62.31-2.14a13.23 13.23 0 01-.43-4.46 7.64 7.64 0 00-.42-1.84q-.69-2.48-1.41-4.94c-.21-.71-.43-1.42-.68-2.12-1-2.75-2.95-4.92-4.46-7.36a9.57 9.57 0 00-4.25-3.79 25.4 25.4 0 01-5.32-3.51 10 10 0 01-3-2.85c-.28-.52-1-.82-1.46-1.21-3.73-2.95-8-5-12.2-7.15a5 5 0 00-4-.53 4.87 4.87 0 01-3.44-.16 8.51 8.51 0 00-5.07-.08c-2.29.52-4.57 1.16-6.89 1.46a18.87 18.87 0 00-8.57 3.43 17.62 17.62 0 01-3.13 1.57 1 1 0 01-1.38-.44 1.82 1.82 0 01.21-1.46c.52-.67 1.3-1.12 1.87-1.76a16.13 16.13 0 018.59-4.79c4.13-1 8.33-1.78 12.7-2.69a5.83 5.83 0 00-.94-.89c-1.69-.94-3.38-1.88-5.11-2.75-7.69-3.88-15.85-6.61-23.88-9.67q-7.38-2.81-14.74-5.64c-.57-.19-1.28-.4-2.16-.71zm115-88.68c.3.24.61.54 1 .78q5.75 3.85 11.51 7.69a111.57 111.57 0 0014.08 7.78c3.5 1.63 6.95 3.38 10.44 5 2.62 1.24 5.23 2.44 7.22 4.69a13.37 13.37 0 002.58 1.91c1.68 1.17 3.37 2.3 5 3.46a12.83 12.83 0 013.36 3c.27.36.83.51 1.33.79 1.14-1.8 2.11-3.47 3.21-5s2.44-3.26 3.67-4.89 3-2.45 3.76-4.13a6 6 0 00-2.63-3.74c-2.3-1.76-4.66-3.45-7-5.17A184.31 184.31 0 00538 293.29c-7.82-4.26-15.76-8.29-23.66-12.41-.65-.34-1.36-.57-2-.82-.87.66-1.63 1.19-2.34 1.79a3 3 0 00-.76 1c-2.02 4.39-5.19 8.03-8.08 11.95zm.07-7.7a13.75 13.75 0 004.06-5.41A11.2 11.2 0 01507 279a11.13 11.13 0 002.48-6.49 18.57 18.57 0 00-.42-5.45c-.4-2-.86-4-2.72-5.3a19.86 19.86 0 01-3.51-3.22c-1.76-2-3.33-4.18-5-6.24a11.39 11.39 0 00-1.71-1.45 12.1 12.1 0 01-1.76-1.39 6.85 6.85 0 00-5.5-2.17h-5.81a18.63 18.63 0 00-6.2 1 9.18 9.18 0 00-.59 4.56 27.71 27.71 0 01-.09 9.61 20 20 0 00.41 8.05c1.3-.84 2.5-1.7 3.69-2.56a8.18 8.18 0 014.09-1.77 2.45 2.45 0 012.93 1.9 24.65 24.65 0 011.18 5.31 36.45 36.45 0 001.17 5.81 9.71 9.71 0 002.18-1 13 13 0 003.85-4.67.91.91 0 011.59-.13 19.12 19.12 0 012.77 6.1c.47 2.29.75 4.72 1.2 7.6zm-17.49-16.2c-2.83 1.28-3.54 1.86-4.88 3.68a29.14 29.14 0 01-2.46 3 2.94 2.94 0 01-3.23.86c-1.35-.47-1.62-1.59-1.64-2.84v-.32c0-3.87 0-7.74.09-11.6a13.36 13.36 0 01.47-2.85 7.51 7.51 0 00.28-3.41c-3-1.34-3-1.35-5-3.51-.86-1-1.67-2-2.53-2.92-.41-.46-.88-.86-1.42-1.38l-2.08 1.71c-2.36 1.89-4.66 3.81-6 6.61a6.05 6.05 0 01-2.88 2.47 3.68 3.68 0 01-4-.15 10.25 10.25 0 01-1.69-1.47c-4.39-4.42-8.75-8.86-13.13-13.28a16.84 16.84 0 00-1.31-1.08c-1.61 1.37-3.26 2.48-4.24 4.25a4.23 4.23 0 00.62.56 173 173 0 0121.85 15.92 171.82 171.82 0 0019.67 14c1.64 1 3.35 1.92 5.08 2.78q9.24 4.55 18.53 9c.54.26 1.08.73 1.76.35a31.57 31.57 0 00.16-10.67c-.2 0-.47 0-.58.12-1.36 1.48-3.39 2.19-4.39 4.13a2.64 2.64 0 01-4.84-1.47c-.15-1.49-.47-3-.6-4.44-.2-2.24-1.19-4.35-1-6.65-.01-.47-.38-.94-.64-1.4zM356.05 118.09a33 33 0 01-2.36-2.87c-2.85-4.42-5.61-8.9-9.14-12.83a2.2 2.2 0 01-.52-.81 13 13 0 00-2.79-4.64c-1.39-1.76-2.55-3.69-3.9-5.49a4.93 4.93 0 00-2.74-2.23c-.76 1.24-1.48 2.43-2.21 3.61a9.07 9.07 0 01-1.2 1.89 9.25 9.25 0 00-2.07 3.94 37.51 37.51 0 01-1.86 4.44c-.8 1.63-1.82 3.16-2.6 4.81-1.39 2.9-2.51 6-4.06 8.75-1.46 2.64-2.63 5.4-3.91 8.11-.22.46-.6.92 0 1.39a2.9 2.9 0 00.63-.16 26.44 26.44 0 0110.09-3 18.81 18.81 0 002.19-.52c3.42-.79 6.61-2.64 10.28-2.34a2.86 2.86 0 00.62-.13l3.79-.62a4.32 4.32 0 001.57-.24c1.57-1 3.3-.79 5-.83a23.87 23.87 0 005.19-.23zM307.14 130c-.92-.64-1.63-1.07-2.28-1.58s-1.42-1.31-2.2-1.87c-3.21-2.32-6.26-4.88-9.8-6.71a4.39 4.39 0 01-1.31-.93 25.86 25.86 0 00-5.47-3.94c-2.17-1.37-4.39-2.68-6.61-4a2 2 0 00-3 1.25 4.28 4.28 0 00-.1 1 49.71 49.71 0 001.9 15.91 14.12 14.12 0 01.56 4.12v15.15c0 .51-.12 1.1.79 1.38a55.84 55.84 0 016.31-5.71c3.23-2.67 6.35-5.41 10.16-7.25a11.28 11.28 0 001.59-1.1c1.06-.72 2.12-1.45 3.19-2.16s1.94-1.36 3-1.93 1.95-1.02 3.27-1.63zm-51 60.53a24.58 24.58 0 00-3.77 0c-4 .67-8 1.43-12 2.21q-3.32.63-6.6 1.42-5.15 1.24-10.28 2.62a24.13 24.13 0 00-2.83 1.15c.87 1 1.52 1.86 2.23 2.62s1.65 1.66 2.46 2.51c.37.38.66.85 1.06 1.2 2.42 2.11 4.88 4.18 7.3 6.3a48.11 48.11 0 014.25 3.94 30.22 30.22 0 007.78 5.62 26.83 26.83 0 002.09-4.09c1.16-3.68 2.14-7.41 3.14-11.14a17.67 17.67 0 012.06-5c1.16-1.76 2.65-6.42 3.14-9.37zm17.94-35.21c-3.37-1.06-6.5-2.11-9.67-3.05-7-2.09-14.28-3-21.18-5.45a5.53 5.53 0 00-1.87.09 14.1 14.1 0 001.44 4.76q4 8.81 8 17.58c.53 1.17 1.11 2.33 1.72 3.46 1.07 2 2.2 3.93 3.27 5.9a8.66 8.66 0 003.23 3.66 42.9 42.9 0 003.11-6.41 58.88 58.88 0 016.53-12.86c1.31-1.83 2.67-3.63 4-5.46.47-.7.91-1.41 1.45-2.23zm-73.47 185.1c.57-1.38.92-2.14 1.2-2.93a124.93 124.93 0 019.56-21.08c1.78-3.06 3.29-6.28 4.89-9.44a19.07 19.07 0 00.78-2.22l-8.88 2.45c-2.79.77-5.61 1.46-8.38 2.33s-5.67 2-8.5 3-5.61 2-8.89 3.11c6.47 8.01 11.93 16.36 18.25 24.77zM234.4 263c.35-.47.55-.62.59-.81.78-3.32 2.25-6.45 2.57-9.88a7.85 7.85 0 01.55-2.18 37.73 37.73 0 002.42-10.25 22 22 0 011.58-6.54 24.3 24.3 0 001.19-4.34 6.48 6.48 0 00-.1-1.63l-4.13 1.51c-2.62.95-5.19 2.1-7.88 2.79-6.31 1.62-11.65 5.26-17.54 7.86a6.06 6.06 0 002.35 3.52c4.29 3.77 7.45 8.57 11.53 12.53a17.2 17.2 0 011.33 1.81 34.43 34.43 0 005.54 5.61zm-15.18 36.56c.32-.27.56-.37.64-.54 1.87-4 3.88-7.91 5.55-12 1.94-4.76 3.58-9.66 5.36-14.49a24.82 24.82 0 001.17-5.51c-1 .34-1.69.54-2.37.82-2.08.85-4.13 1.81-6.24 2.59a107.88 107.88 0 01-19.27 5.16c-.5.09-1.1 0-1.25.73 1.77 3.35 14 20.68 16.41 23.25zm-46.7 58.14c.84 1 1.57 1.92 2.34 2.8a4.83 4.83 0 001.35 1.32 16.87 16.87 0 013.94 3.29 21.13 21.13 0 002.83 2.62 34.22 34.22 0 015.36 4.61 8.56 8.56 0 003.66 2.46 14.77 14.77 0 01.94-2.14 19.42 19.42 0 002.78-8.78 31.86 31.86 0 011.82-8.43c1-2.55.78-4.87.54-7.53a12.74 12.74 0 01-2.54 1.1c-3.43.59-6.49 2.17-9.7 3.36a12.5 12.5 0 01-1.2.48c-2 .5-3.94.94-5.9 1.47-1.55.41-3.09.86-4.6 1.39a2.23 2.23 0 00-1.62 1.99zM183 411.45c.28-1.55.55-3.11.86-4.67a10.47 10.47 0 011.79-4.76 7.16 7.16 0 001.66-4.1 14.17 14.17 0 01.51-2.19q1.15-5 2.29-10a8.83 8.83 0 00.1-1.48c-3.45 1.4-6.71 2.75-10 4.07-5.25 2.13-10.45 4.4-15.85 6.16-.32.11-.53.55-.89.94a19.08 19.08 0 013.06 2.53 30.19 30.19 0 005.49 4.88 57.18 57.18 0 015.32 4.62l3 3a2.88 2.88 0 002.66 1zm-2.42 41.28l.52-.28c-.09-1.27-.21-2.55-.25-3.83s0-2.79 0-4.18v-15.77c0-1.29.1-2.78.25-4.16.23-2.09.27-2.09-.18-3.59a2.11 2.11 0 00-.62.09 2.25 2.25 0 00-.82.48c-2 2.17-4.74 3.27-7.28 4.63A55.47 55.47 0 00165 431a3.94 3.94 0 001.45 4.46 7.61 7.61 0 011.75 1.88c2 3.43 5.35 5.83 7.47 9.21a28.48 28.48 0 002.11 2.8c.93 1.15 1.89 2.26 2.84 3.38zm-45.9-88.31c-4.56-1.44-8.65-2.5-13-2.23-2.88.17-5.78 0-8.68-.05-.52 0-1 .06-1.63.1a8.36 8.36 0 00.68 3.49 107.27 107.27 0 012.89 12.5c.22 1.27.44 2.54.77 3.78.18.66.25 1.46 1 1.84a39.39 39.39 0 003.45-3.23c1.75-2 3.29-4.22 5-6.25a25.14 25.14 0 014.49-4.55c2.13-1.4 3.13-3.5 5.07-5.4zm5.17 23.78a6.11 6.11 0 00-4-1c-4.93 0-9.86 0-14.79-.11a2.42 2.42 0 00-2.64 1.82c1.34 4.83 5.35 15.37 6.59 17.27 1-.47 1.5-1.47 2.1-2.34a12.73 12.73 0 011.32-1.81c2.37-2.34 4.19-5.12 6.29-7.68a7 7 0 012.33-2.15 5.09 5.09 0 002.84-4zm332.8 38.92a19.63 19.63 0 012.24 3.21c.84 2.05 2.15 3.92 2.29 6.26a8.78 8.78 0 00.95 3.06 6.86 6.86 0 01.76 3.07 3.57 3.57 0 00.27 1.56c1 2.09.67 4.17.09 6.27-.52 1.88-.51 2 .15 5.43 2.12-3.09 4-5.88 6-8.59s4.29-5.52 6.53-8.4c-.54-.36-.88-.59-1.23-.8-2.3-1.37-4.65-2.65-6.89-4.11-2.42-1.58-4.72-3.34-7.1-5a10.69 10.69 0 00-4.02-1.96zm-362.9-72.27a34.06 34.06 0 002.65-3.15 97.62 97.62 0 005.37-8.72 29.88 29.88 0 012.72-4.68 20.85 20.85 0 002.75-4.8c-.94-.24-1.57.3-2.27.41s-1.69.21-2.54.35-1.46.3-2.19.48a3.78 3.78 0 00-1.22.38c-1.88 1.27-4.07 1.78-6.16 2.53a10.53 10.53 0 00-1.54.83c-.07 4.18 1.29 13.44 2.43 16.37zm36.8 56.77a4.26 4.26 0 00-1-.31q-8.35-.07-16.7-.1c-.16 0-.32.21-.64.43 3.59 5 8.31 9 12.46 13.42 1.15-.64 1.2-1.63 1.41-2.56a12.29 12.29 0 012-4.66 16.12 16.12 0 002.47-6.22zm441.5-175.27c2.5 1.54 4.61 2.78 6.66 4.1s2.53 3.22.94 5.1a46.46 46.46 0 01-4.13 4c-.62.58-1.42 1-2.06 1.53-6.3 5.53-12.85 10.74-19.58 15.73a12.39 12.39 0 00-1.81 1.81 6.23 6.23 0 01-3.34 1.81 2.65 2.65 0 01-2.9-.9 3 3 0 01-.16-3.34 9.12 9.12 0 011-1.23l7-7.94a1.64 1.64 0 01.21-.24c3.2-2.67 5.17-6.27 7.3-9.74a34 34 0 017.88-8.86 34.51 34.51 0 012.99-1.83zm16.2 41.14c-2.66 0-5.28-.25-8 .44-2.86.73-5.91.7-8.88 1a7.94 7.94 0 01-1.29 0 2.68 2.68 0 01-2.65-1.91 2.44 2.44 0 011.48-2.89c1.61-.83 3.28-1.55 4.91-2.34 1.06-.51 2.11-1 3.15-1.58s1.89-1 2.83-1.5a6.79 6.79 0 001.43-.7c2.77-2.47 6.16-3.85 9.36-5.58a4.24 4.24 0 015.86 2.07 19.38 19.38 0 011.13 9.77 4 4 0 01-3.9 3.22c-1.79.08-3.61 0-5.43 0z" transform="translate(-43.79 -84.75)"/><path class="cls-10" d="M524.86 263.9h-5.14c-2.82 0-4.84-1.52-6.52-3.57a2.46 2.46 0 01.43-3.69 7.83 7.83 0 011.39-.77c2.65-1.38 5.37-2.64 8-4.15a7.74 7.74 0 016.18-.49 2.9 2.9 0 012 2.36c.57 2.37 1.2 4.72 1.81 7.09.54 2.1-.34 3.25-2.59 3.3h-5.46zm2.53-9.31a3 3 0 00-2.89.29c-1.49.85-3 1.57-4.59 2.33-1.33.66-2.67 1.3-3.93 1.91-.05 1.36.7 1.63 1.65 1.62l9.65-.18a4.32 4.32 0 001-.26c.83-2.15-.5-3.89-.89-5.71zm50.67 26.93c.61 3.73-.64 5.34-4.42 5.16-2.76-.13-3.27-.42-4.23-3-.15-.4-.27-.81-.43-1.21a4 4 0 013.55-5.33 10.69 10.69 0 012.88.16c2 .39 2.59 1.2 2.65 3.33.01.37 0 .82 0 .89zm-24.95-7.42a12.23 12.23 0 002 .17c2.78-.25 4.5 3.85 2.95 6.64a2.29 2.29 0 01-.93.84 5.28 5.28 0 01-7.4-4.51c0-2.14 1-3.09 3.15-3.14zm-239.46-92.22a6 6 0 011.4.33 26.51 26.51 0 008.32 2.22 5.9 5.9 0 011.26.28 104.14 104.14 0 0016.07 4.5 8.71 8.71 0 012.14.66 24.16 24.16 0 006.38 2.11 44.76 44.76 0 0113.55 4.94 11.39 11.39 0 012.11 1.44 2.39 2.39 0 01.26 3.47 8.39 8.39 0 01-1.85 1.77 18.27 18.27 0 00-5.87 6.27c-.6 1-1.51 1.81-2.21 2.76-1.07 1.47-2.06 3-3.1 4.49-.5.69-1 1.36-1.56 2-.93 1.18-1.94 2.29-2.78 3.52a7 7 0 01-5.37 3.12 5.09 5.09 0 01-4.12-1.4 42.06 42.06 0 01-9.5-13.22 14.58 14.58 0 00-1.92-2.94 44.86 44.86 0 01-5.58-8.61c-1.75-3.44-3.8-6.72-5.06-10.4-.48-1.39-1.64-2.21-2.67-3.15a11.71 11.71 0 01-1.79-1.8c-.78-1.13-.25-2.13 1.09-2.29zm48.47 18.56a8.05 8.05 0 00-3.45-1.94 62.36 62.36 0 00-10.57-2.8 24.58 24.58 0 01-6.43-2 13.39 13.39 0 00-2.77-.8c-4-1-8.18-1.67-12-3.57a7 7 0 00-5.55-.68 6.42 6.42 0 001.2 4.64 31.38 31.38 0 012.18 3.58 40.45 40.45 0 006.6 9.49 6.33 6.33 0 011.45 2.11c1 3 3.1 5.39 4.72 8a22.22 22.22 0 003.75 4 1.7 1.7 0 002.56-.28c.83-1 1.61-2 2.43-3l2.89-3.44c3.09-3.7 6.06-7.52 9.68-10.74 1.02-.88 2.19-1.66 3.31-2.57zm88.03-27.14a13.57 13.57 0 011.93.79 1.5 1.5 0 01.51 2c-1.49 2.27-1.95 4.95-3.08 7.37a15 15 0 01-2 3.63 7.68 7.68 0 00-1.22 2.58 26.79 26.79 0 01-2.69 5.83 20.83 20.83 0 00-1.6 3.5c-1.21 3.21-2.55 6.39-3.51 9.67-.62 2.17-1.63 4.16-2.32 6.28s-2.56 2.75-4.28 1.46a12.47 12.47 0 01-3.42-3.8c-1-1.67-2-3.28-3.05-4.92a8 8 0 01-.81-1.38c-.95-2.57-2.78-4.53-4.43-6.63a42.92 42.92 0 01-2.74-4 2.44 2.44 0 01.24-3c1.19-1.52 2.39-2.94 4.41-3.56a21.73 21.73 0 004.61-2.28c3.31-2 6.5-4.21 9.88-6.08a84.7 84.7 0 008.63-5.52 12 12 0 014.94-1.94zm-4.42 6c-.64.54-1.25 1.11-1.91 1.61a8.74 8.74 0 01-2.11 1.43 22.58 22.58 0 00-4.73 2.71c-4.32 2.81-8.53 5.85-13.31 7.84-2.36 1-2.36 2-.74 3.75.29.32.64.59.9.93 1.34 1.79 3 3.45 3.91 5.45 1.32 2.86 3.58 5 4.86 8.21a5.93 5.93 0 00.92-1.21 19.23 19.23 0 01.7-2.45c1.72-3.37 2.64-7 3.93-10.56a18.16 18.16 0 011.57-3.51 24.57 24.57 0 002.56-5.53 10.88 10.88 0 011.67-3.44 8.5 8.5 0 001.78-5.23zM367 533.36c.34 5.16-1.21 9.9-3.5 14.48a9.23 9.23 0 01-3.66 3.94 6.94 6.94 0 01-2.67 1.05c-3.32.3-6.63.31-9.77-1.16a10.17 10.17 0 01-3.86-2.82 25.9 25.9 0 01-5-10.62 38.78 38.78 0 01-1-9.22 8.18 8.18 0 01.89-3.71c.76-1.42 1.55-2.82 2.23-4.27.45-.95.73-2 1.12-3a5.2 5.2 0 01.68-1.4c.88-1.06 1.89-2 2.75-3.1a4.11 4.11 0 013-1.64 36.24 36.24 0 017.05-.21 7.61 7.61 0 015.9 3.45c1 1.63 2.59 2.81 3.29 4.71a34.16 34.16 0 012.55 13.52zm-3.87-.72c.53-3.23-.78-6.39-1.26-9.66-.41-2.76-2.56-4.64-4.06-6.82a2.73 2.73 0 00-2.58-1.06c-1.59.18-3.19.26-4.77.5-1.81.29-3.71.69-4.26 2.81a57.54 57.54 0 01-3.48 8.62 9 9 0 00-.57 2.79 23.55 23.55 0 00.86 7 24.61 24.61 0 003.06 7.68 8 8 0 004.71 3.62 15.42 15.42 0 005.73.37 2.82 2.82 0 001.69-.8 10.93 10.93 0 002-2.51 22.7 22.7 0 002.94-12.54zm-69.03-263.1c.22-1.25.48-2.5.66-3.75.14-1.05.2-2.12.27-3.18.05-.65 0-1.3.07-1.93a2.32 2.32 0 012.95-2.18c3.5.91 7 1.92 10.41 3.05a7.58 7.58 0 012.25 1.76c.55.47 1 1.06 1.56 1.53 1.32 1.1 1.21 3.11-.43 3.48-1.83.42-3.29 1.6-5 2a15.06 15.06 0 00-4 1.9 11.76 11.76 0 01-5.44 1.71c-2.19 0-2.94-.64-3.07-2.76v-1.61zm4.79-6.58c.5 2.45-1.07 4.43-.49 6.73a8.62 8.62 0 001.44-.29c2.45-1 4.62-2.58 7.23-3.22.33-.09.54-.72.93-1.29-3.08-.61-5.63-2.16-9.11-1.89zm12.39 23.71c2.53-.47 4.83.9 7.19 1.8a3.8 3.8 0 011.53 5.73 61.08 61.08 0 01-5.08 6.16 15.19 15.19 0 01-3.64 2.56 3.57 3.57 0 01-5.09-1.67 6.4 6.4 0 01-.64-2.44c-.08-2.89-.09-5.78 0-8.67.07-2.42 1.15-3.36 3.66-3.46.59-.03 1.24-.01 2.07-.01zm-2.58 3.27a61.89 61.89 0 00-.08 9c0 .26.32.51.58.89 3.53-1.68 5.61-4.63 7.57-7.77-2.21-2.95-5.08-2.35-8.07-2.12zM389.85 220c0-1.75.44-2.53 1.33-2.77a2.3 2.3 0 012.52.94c.6.74 1.26 1.43 1.78 2.22a4.6 4.6 0 01.66 1.75 2.37 2.37 0 01-3.69 2.24 5.58 5.58 0 01-2.6-4.38zm15.83-2a3 3 0 01-.08.81 31.21 31.21 0 01-1.34 3.22 2.89 2.89 0 01-3.89 1.05 2.37 2.37 0 01-1.2-3 15.94 15.94 0 012-3.2 2.57 2.57 0 013.71-.1 5.82 5.82 0 01.8 1.22zm41.73 147.31c0 1.18-.05 2.36 0 3.54a17.47 17.47 0 01-1.95 8.34c-.22.49-.66.94-.7 1.43a6.22 6.22 0 01-3.44 4.81 21.39 21.39 0 01-7.38 2.86c-2.68.42-5.59.59-8.24-.71a.84.84 0 00-.3-.11c-3.17.18-5.82-1.43-8.49-2.7-4.16-2-8.23-4.18-12.19-6.53a15.82 15.82 0 01-4-3.74c-3.76-4.59-5.8-9.84-4.86-15.82.49-3.13 1.84-6 5.11-7.3 3.48-1.42 6.86-3.16 10.44-4.23 3.24-1 6.55-2 10.07-1.76a22.66 22.66 0 004.51 0c2.56-.3 4.82.92 7.24 1.28a2.81 2.81 0 011.11.62c.44.3.8.81 1.28 1 2.85.82 4.64 3 6.62 5 .45.45.88.94 1.37 1.36a10.64 10.64 0 013.62 8.57v4.19zm-4.27 0h.14v-3.86a8 8 0 00-1.89-5.31c-2.23-2.36-4.11-5.31-7.63-6.15a3 3 0 01-.8-.52 12.47 12.47 0 00-6.29-2c-5.37-.14-10.73 0-15.93 1.62a9.12 9.12 0 01-2.22.27 8.79 8.79 0 00-7.46 4.82c-1.71 2.93-1.47 8.45.26 11.46.47.84 1 1.64 1.52 2.47a14.42 14.42 0 006 5.61c2 1 4.07 1.94 6 3.09 3.52 2.09 7.06 4 11.28 4.26a11.73 11.73 0 011.83.58 11.43 11.43 0 005.72 0 40.18 40.18 0 004.19-1.61 3 3 0 002.05-1.9c.5-2.31 2.44-4.05 2.48-6.51a5.94 5.94 0 00.75-3.71v-2.65zm-60.49-52.02c-.59-7.85 2.63-13.87 7.36-19.31a28.69 28.69 0 017.63-5.78c3.54-2 7.45-2.06 11.28-1.36a21.61 21.61 0 0110.08 4.84 17.24 17.24 0 016.53 13.46c0 1-.06 1.94 0 2.9a18.84 18.84 0 01-2.69 10.46 35.4 35.4 0 01-15.36 15.13A24.73 24.73 0 01395.9 336a6.58 6.58 0 01-3.83-1.51 21 21 0 01-6.13-6.95 24.86 24.86 0 01-3.29-12zm3.66-.71a71.22 71.22 0 00.93 7.31 19.57 19.57 0 005.95 10.46 6.56 6.56 0 004.63 1.87 20.08 20.08 0 009-2c5.5-2.69 9.43-7 12.63-12.05a15.5 15.5 0 002.73-10.36c-.11-.85-.05-1.72-.11-2.57a14.58 14.58 0 00-5.19-10.36 18 18 0 00-14.59-4.45 9.91 9.91 0 00-5.53 2.28 34.11 34.11 0 00-6.62 7.41c-2.34 3.88-4.14 7.78-3.83 12.46zM454.08 347v-.64c-.43-4.84 1.63-8.72 4.67-12.25a21.51 21.51 0 002.08-2.86 36.15 36.15 0 015.2-7.32c.37-.37.53-.94.87-1.34a4 4 0 011.19-1 13.65 13.65 0 017.84-1.18 9.69 9.69 0 011.81.62 5.76 5.76 0 001.82.55 5.18 5.18 0 014.18 2c1.68 1.8 3.65 3.33 5 5.47 1.86 3 3.16 6.08 3 9.67a1.71 1.71 0 000 .32 16.53 16.53 0 01-2.33 10.79 13.62 13.62 0 00-1.32 3.95 10.06 10.06 0 01-4.68 6.29 6 6 0 00-1.34.88 12.28 12.28 0 01-6.44 3.44 9.13 9.13 0 01-2.2.37h-6.77a5.26 5.26 0 01-3-.9c-1-.64-2-1.22-3-1.85a5 5 0 01-1.27-1c-3-3.71-5.77-7.55-5.2-12.74a11.1 11.1 0 00-.11-1.27zm3.68-.18v1.88c-.24 4 1.9 7.06 4.5 9.62 1.69 1.66 3.91 3.06 6.66 2.6a13.11 13.11 0 012.26 0 10.79 10.79 0 008.2-3 5 5 0 011.31-.93 7.13 7.13 0 003.74-5 18.83 18.83 0 011.67-4.5 12.84 12.84 0 001.76-7.7 26.64 26.64 0 00-.46-4.76c-1-4-3.49-6.83-6.32-9.52a2.61 2.61 0 00-1.07-.68 19.68 19.68 0 00-7.63-.64 4.11 4.11 0 00-2.28 1 32.51 32.51 0 00-3.54 4.14c-1.7 2.34-3.12 4.9-4.92 7.16-2.5 3.14-4.37 6.39-3.88 10.29zm36.37 10.97c.12 2.77-.21 4.6-1.91 6.36-1.49 1.55-3.15 2.84-4.73 4.24a6.26 6.26 0 01-5.08 1.48 1.21 1.21 0 01-.88-.71 1.35 1.35 0 01.4-1.1 7.9 7.9 0 011.6-1.05 26.89 26.89 0 005.75-4.5 15.85 15.85 0 003.15-3.53c.21-.39.8-.58 1.7-1.19zm-116.3-41.23c.21.24.57.49.67.82a10 10 0 01.61 2.8c-.05 2.93 1.23 5.35 2.67 7.73a3.11 3.11 0 01.63 2.39 1.71 1.71 0 01-.56 1c-.29.15-.77-.07-1.16-.14a.61.61 0 01-.28-.16c-3.61-4.2-5.62-8.76-3.05-14.29.03-.03.19-.04.47-.15zm-7.56 3.31c.26.42.72.83.75 1.26a12.4 12.4 0 002.23 5.91c1.28 2.07 2.2 4.36 3.76 6.09a1.13 1.13 0 01-1.52 1 4.86 4.86 0 01-3.33-2.78c-.84-1.6-1.58-3.26-2.46-4.84-1.14-2.06-.8-4.11-.09-6.17.06-.15.33-.24.66-.47zm111.55 56.69c1.24-.71 2.19-1.18 3.06-1.77 2.48-1.66 5.17-3 7.19-5.33a4.18 4.18 0 012.63-1.62 1.41 1.41 0 01-.16 1.81c-1.64 2-3.21 4-5.54 5.28-1.4.76-2.76 1.62-4.21 2.32-.94.46-.99.36-2.97-.69zm10.95 136.03c.25 7.86.19 8.22-2.47 15.37a7.43 7.43 0 01-1.87 3c-.79.73-1.47 1.59-2.3 2.25a11 11 0 01-3 1.86c-2.94 1-6 1.81-9.09.65-1.1-.41-2.25-.7-3.38-1a3.89 3.89 0 01-2.42-2 6.25 6.25 0 00-1.07-1.59c-2.64-2.63-3.24-6-3.34-9.45-.05-1.61.15-3.22.14-4.83a12.19 12.19 0 012-6.66 6.07 6.07 0 00.86-1.36c.75-2.71 2.61-4.62 4.59-6.44 1.18-1.08 2-2.93 4.11-2.11a.39.39 0 00.29-.12c1.85-1.92 4.51-1.81 6.78-2.66a10.3 10.3 0 013.81-.38 3.54 3.54 0 012 .82 10.78 10.78 0 014.27 8c.15 2.15.09 4.4.09 6.65zm-4.08-.63h.14v-5.8a8.58 8.58 0 00-2-5.31 2.55 2.55 0 00-1.61-.89 7 7 0 00-2.53.16c-2.56.62-5.28 1-7.13 3.21-.12.15-.38.18-.56.3-2.2 1.39-4.17 3-5 5.62a12.53 12.53 0 01-1.41 2.51 7.84 7.84 0 00-1.36 4.23c0 1.93.1 3.86.22 5.79.24 3.54 2.31 6.14 4.58 8.6a2.5 2.5 0 001.12.61 19.72 19.72 0 003.11.8 9.33 9.33 0 0010.24-6c2.22-5.77 2.15-5.8 2.17-12.21zm41.8-206.1a3.71 3.71 0 01-3.87-2.32c-.21-.49-.47-1-.66-1.45-.77-2.07-.28-3.6 1.46-4.66 3.22-2 5.38-1.1 7 2.36 1.17 2.34-.83 6.3-3.93 6.07zm9.64 1.42v-1a3.36 3.36 0 015.33-2.77 7.32 7.32 0 012.28 2.22c1.69 2.62.36 4.91-1.43 6.16a2.83 2.83 0 01-1.51.44 5.11 5.11 0 01-4.67-4.44v-.65zm15.1 12.89a5.72 5.72 0 01-1.82-.44c-1.58-.78-1.8-2.28-1.68-3.86a3.18 3.18 0 012.34-3.1 5.3 5.3 0 013.47.15 3.92 3.92 0 012.54 4.64c-.28 1.61-1.46 2.49-3.54 2.61z" transform="translate(-43.79 -84.75)"/><path class="cls-10" d="M400.7 301.59v-.64c.15-2.64 1.64-3.82 4.25-3.46a2.9 2.9 0 012.59 2.49 24.89 24.89 0 01.48 4.14 2.84 2.84 0 01-1.9 3 3.54 3.54 0 01-3.86-.83 5.3 5.3 0 01-1.53-3.45v-1.28zm70.16 32.54c0-.43 0-.86.09-1.28a2.57 2.57 0 012.55-2.41 2.72 2.72 0 013.16 2.1 11.75 11.75 0 01.21 3.19 2.61 2.61 0 01-2.78 2.52 2.79 2.79 0 01-3.15-2.52 12.19 12.19 0 010-1.6z" transform="translate(-43.79 -84.75)"/></svg>